<?xml version="1.0" encoding="UTF-8"?>
<svg id="Layer_1" xmlns="http://www.w3.org/2000/svg" version="1.1" viewBox="0 0 565.63 537.27">
  <!-- Generator: Adobe Illustrator 29.8.3, SVG Export Plug-In . SVG Version: 2.1.1 Build 3)  -->
  <defs>
    <style>
      .st0 {
        fill: #fff;
        opacity: .05;
      }

      .st1 {
        fill: #ed727d;
        opacity: .25;
      }

      .st2 {
        fill: #f7c027;
      }

      .st3, .st4, .st5 {
        fill: none;
      }

      .st4 {
        opacity: .2;
      }

      .st4, .st5 {
        fill-rule: evenodd;
      }

      .st5 {
        opacity: .3;
      }
    </style>
  </defs>
  <rect class="st3" x="-.45" y="-.36" width="568.23" height="538.08"/>
  <g>
    <polygon class="st4" points="180.49 226.9 130.86 190.34 31.07 325.8 80.69 362.35 89.88 349.88 180.49 226.9 180.49 226.9"/>
    <polygon class="st5" points="396.92 207.82 477.37 342.53 483.19 352.28 536.13 320.68 449.85 176.2 396.92 207.82 396.92 207.82"/>
    <polygon class="st4" points="180.49 226.9 130.86 190.34 31.07 325.8 80.69 362.35 89.88 349.88 180.49 226.9 180.49 226.9"/>
    <polygon class="st5" points="396.92 207.82 477.37 342.53 483.19 352.28 536.13 320.68 449.85 176.2 396.92 207.82 396.92 207.82"/>
    <path class="st0" d="M122.39,385.92l-25.48-21.51-8.95,12.15c-2.33,3.18-6.8,3.87-9.98,1.54l-61.12-45.03c-3.19-2.33-3.88-6.8-1.54-9.99l108.28-146.96c2.33-3.19,6.8-3.88,9.98-1.54l61.12,45.03c3.19,2.33,3.87,6.8,1.54,9.98l-5.14,6.98c7.53,4.15,10.71,6.29,20.1,7.47,8.44,1.07,19.03.9,28.22.32,9.58-.6,19.69-1.24,29.78,1.81,16.55-14.97,17.66-19.88,42.85-17.33,12.62,1.27,54.4-1.21,67.49-7.36l6.97-3.28-5.5-9.21c-2.03-3.38-.92-7.77,2.46-9.79l65.18-38.92c3.38-2.03,7.77-.92,9.79,2.46l93.59,156.72c2.02,3.38.92,7.76-2.46,9.78l-65.18,38.93c-3.38,2.03-7.77.92-9.79-2.46l-5.19-8.69-38.31,31.15c18.76,16.63,9.18,47.93-15.9,51.01-4.42.55-8.98.08-13.29-1.43-1.19,19.47-20.76,32.25-38.98,25.85-.34,5.54-2.25,11.04-5.84,15.8h.02c-.24.36-.5.69-.79.99-4.95,6.03-11.86,9.6-19.08,10.48-4.42.54-8.98.08-13.29-1.43-1.43,23.43-28.72,35.81-47.31,21.28l-14.06-10.99c-.77,1.01-1.55,2.01-2.33,3.01-15.25,19.5-46.65,10.99-49.74-13.71-.07-.5-.12-.99-.15-1.49-16.39,2.96-31.62-8.88-32.81-25.5-16.39,2.97-31.63-8.89-32.81-25.5-15.81,2.85-30.67-8.06-32.67-24.02-.89-7.09.92-14.52,5.64-20.59l4.69-6.04h0ZM89.88,349.88l90.6-122.98-49.63-36.56L31.07,325.8l49.62,36.56,9.19-12.48h0ZM105.4,352.88l25.76,21.75.95-1.23c15.12-19.46,46.65-11.1,49.75,13.69.06.5.11.99.15,1.49,16.39-2.96,31.62,8.88,32.82,25.5,16.39-2.96,31.62,8.88,32.82,25.51,15.8-2.86,30.66,8.06,32.67,24.01.89,7.09-.92,14.52-5.64,20.6-1.14,1.4-2.28,2.81-3.39,4.24l14.15,11.05c10.24,8.01,25.82-.09,24.15-13.69-.92-7.51-5.63-9.9-10.62-13.93l-2.06-1.61c-3.1-2.43-3.66-6.9-1.23-10.01s6.9-3.65,10.01-1.23l18.31,14.29h0c3.51,2.74,7.26,3.89,11.53,3.36,8.29-1.02,14.07-8.43,13.06-16.72-.45-3.69-2.23-7.2-5.23-9.71-.3-.2-.59-.43-.87-.69l-22.78-17.8c-3.11-2.43-3.66-6.91-1.24-10.01,2.43-3.1,6.91-3.66,10.01-1.23l34.93,27.29c10.24,8,25.82-.09,24.15-13.69-.47-3.84-2.37-7.48-5.59-10.01l-44.01-34.38h0c-3.13-2.45-3.74-6.92-1.26-10.07,2.48-3.14,6.97-3.61,10.1-1.16h-.01s55.61,43.46,55.61,43.46c10.24,8,25.82-.09,24.15-13.69-.95-7.73-6.06-10.2-11.43-14.56l-40.2-31.4c-.33-.26-.64-.55-.92-.86l-43.33-36.29c-25.39,2.06-36.01-3.89-43.1-7.87-3.3-1.85-5.05-2.83-10.75,1.68-11.11,8.79-39.85,24.69-56.17,20.11-6.87-1.93-15.11-6.31-19.18-12.61-3.67-5.67-4.49-14.85-1.96-21.06,2.72-6.69,12.78-13.54,19.33-18.96,8.37-6.93,25.52-20.15,35.63-28.22-8.45-.36-16.8.87-25.38.85-13.55-.05-27.1-.17-39.21-6.86l-7.33-4.04-77.14,104.7h0ZM393.86,230.53l-8.28,3.89c-15.79,7.41-59.53,10.2-74.93,8.65-15.96-1.61-17.98.73-27.79,10.05-11.09,10.07-24.97,20.64-37.97,30.91l-21.12,16.79c-4.72,3.72-10.25,8.07-11.02,9.98-.82,2.03-.47,6.1.73,7.97,1.95,3.02,7.77,5.66,11.01,6.57,3.81,1.06,10.2-.43,17.04-3.01,10.32-3.9,20.87-10.13,26.43-14.54,13.22-10.46,17.84-7.87,26.57-2.97,5.88,3.3,14.82,8.31,38.51,5.77,3.06-.33,5.87,1.33,7.16,3.94.6.75,39.37,32.62,44.41,37.28l34.99,27.33,42.41-34.48-68.15-114.13h0ZM477.37,342.53l5.82,9.75,52.93-31.61-86.28-144.47-52.93,31.61,80.45,134.71h0ZM241.72,458.88l-14.39,18.52c-7.01,8.9.12,23.27,12.59,21.7,3.75-.47,6.71-2.23,9.18-5.31l14.39-18.52c7-8.9-.13-23.26-12.59-21.7-3.87.48-6.61,2.23-9.18,5.3h0ZM224.19,458.12l6.37-8.2c7.24-9.14-.1-23.4-12.48-21.85-3.75.47-6.71,2.23-9.18,5.31l-14.27,18.37c-7.31,9.4.26,23.38,12.47,21.85,3.5-.44,6.7-2.17,9.04-5.13l8.05-10.35h0ZM176.23,407.69l-14.41,18.55c-7.31,9.41.26,23.39,12.47,21.86,3.46-.43,6.75-2.18,9.04-5.13l14.42-18.55c7.3-9.4-.26-23.39-12.48-21.86-3.46.43-6.75,2.18-9.04,5.13h0ZM167.66,388.83c-1.52-12.11-16.92-16.07-24.25-6.65l-14.41,18.55c-7.3,9.4.26,23.38,12.48,21.86,3.46-.43,6.75-2.18,9.04-5.13l14.42-18.55c2.3-2.95,3.17-6.59,2.73-10.08h0Z"/>
    <path class="st1" d="M285.58,14.26l-118.4,40.18v57.42c0,50.99,19.68,97.22,53.29,132.88,6.25.21,12.89.01,18.94-.37.67-.04,1.35-.08,2.03-.13-37.7-34.48-59.06-81.13-59.06-132.38v-46.53l103.2-35.03,103.2,35.03v46.53c0,43.57-15.44,83.82-43.24,116.1,7.55-.68,15.11-1.64,21.49-2.88,4.76-6.53,9.1-13.33,13.01-20.36.17-1.9,1.09-3.7,2.65-4.94,13.74-26.56,21.29-56.32,21.29-87.91v-57.42l-118.4-40.18Z"/>
    <path class="st1" d="M285.91,51.47l-84.1,28.54v40.79c0,51,27.72,95.3,71.77,121.34,12.6-11.8,15.7-15.58,38.46-13.28,1.35.14,3.06.23,5.01.28,32.98-26.57,52.95-65.04,52.95-108.33v-40.79l-84.1-28.54ZM342.01,129.26l-62.38,66.35-.19-.1c-1.83,1.33-4.01,2.05-6.3,2.05-2.81,0-5.47-1.09-7.48-3.08l-26.68-26.15c-2.04-2-3.18-4.68-3.2-7.54-.02-2.86,1.07-5.55,3.07-7.59,2.03-2.06,4.74-3.2,7.63-3.2s5.49,1.09,7.5,3.07l18.87,18.49,53.58-56.98c2.01-2.14,4.85-3.37,7.79-3.37,2.74,0,5.34,1.03,7.33,2.9,2.08,1.96,3.28,4.61,3.36,7.47.09,2.86-.95,5.58-2.91,7.66Z"/>
    <g>
      <path class="st2" d="M303.27,78.41l1.59,4.97c.22.68-.56,1.24-1.14.82l-4.21-3.08c-.26-.19-.61-.19-.86,0l-4.23,3.05c-.58.42-1.35-.15-1.13-.83l1.63-4.95c.1-.3,0-.64-.26-.82l-4.21-3.08c-.57-.42-.27-1.33.44-1.33l5.21.02c.32,0,.6-.2.7-.51l1.63-4.95c.22-.68,1.18-.67,1.4,0l1.59,4.97c.1.3.38.51.7.51l5.21.02c.71,0,1.01.92.43,1.33l-4.23,3.05c-.26.19-.37.52-.27.82Z"/>
      <path class="st2" d="M278.17,78.41l1.59,4.97c.22.68-.56,1.24-1.14.82l-4.21-3.08c-.26-.19-.61-.19-.86,0l-4.23,3.05c-.58.42-1.35-.15-1.13-.83l1.63-4.95c.1-.3,0-.64-.26-.82l-4.21-3.08c-.57-.42-.27-1.33.44-1.33l5.21.02c.32,0,.6-.2.7-.51l1.63-4.95c.22-.68,1.18-.67,1.4,0l1.59,4.97c.1.3.38.51.7.51l5.21.02c.71,0,1.01.92.43,1.33l-4.23,3.05c-.26.19-.37.52-.27.82Z"/>
      <path class="st2" d="M327.53,88.11l1.59,4.97c.22.68-.56,1.24-1.14.82l-4.21-3.08c-.26-.19-.61-.19-.86,0l-4.23,3.05c-.58.42-1.35-.15-1.13-.83l1.63-4.95c.1-.3,0-.64-.26-.82l-4.21-3.08c-.57-.42-.27-1.33.44-1.33l5.21.02c.32,0,.6-.2.7-.51l1.63-4.95c.22-.68,1.18-.67,1.4,0l1.59,4.97c.1.3.38.51.7.51l5.21.02c.71,0,1.01.92.43,1.33l-4.23,3.05c-.26.19-.37.52-.27.82Z"/>
      <path class="st2" d="M253.03,88.11l1.59,4.97c.22.68-.56,1.24-1.14.82l-4.21-3.08c-.26-.19-.61-.19-.86,0l-4.23,3.05c-.58.42-1.35-.15-1.13-.83l1.63-4.95c.1-.3,0-.64-.26-.82l-4.21-3.08c-.57-.42-.27-1.33.44-1.33l5.21.02c.32,0,.6-.2.7-.51l1.63-4.95c.22-.68,1.18-.67,1.4,0l1.59,4.97c.1.3.38.51.7.51l5.21.02c.71,0,1.01.92.43,1.33l-4.23,3.05c-.26.19-.37.52-.27.82Z"/>
    </g>
  </g>
</svg>