<?xml version="1.0" encoding="UTF-8"?>
<svg id="Layer_1" xmlns="http://www.w3.org/2000/svg" version="1.1" viewBox="0 0 467.2 324">
  <!-- Generator: Adobe Illustrator 29.8.3, SVG Export Plug-In . SVG Version: 2.1.1 Build 3)  -->
  <defs>
    <style>
      .st0 {
        opacity: .05;
      }

      .st0, .st1 {
        fill: #fff;
      }

      .st2 {
        fill-rule: evenodd;
      }

      .st2, .st3 {
        fill: #205fa9;
      }

      .st4 {
        fill: #e2e1e0;
      }

      .st5 {
        fill: #006190;
      }

      .st6 {
        fill: #171714;
      }

      .st7 {
        fill: #f7c027;
      }

      .st8 {
        fill: #cecece;
      }

      .st9 {
        fill: none;
      }

      .st10 {
        fill: #ffab83;
      }

      .st11 {
        opacity: .15;
      }

      .st12 {
        opacity: .16;
      }

      .st13, .st3 {
        opacity: .35;
      }

      .st14 {
        opacity: .1;
      }

      .st15 {
        opacity: .08;
      }
    </style>
  </defs>
  <rect class="st9" x="-.35" y="-1.1" width="468.09" height="326.09"/>
  <path class="st0" d="M371.14,32.6H90.43c-26.08,0-47.3,21.22-47.3,47.3v121.82c0,26.08,21.22,47.3,47.3,47.3h31.69v48.61c0,3.04,1.83,5.78,4.64,6.93.92.38,1.9.57,2.86.57,1.96,0,3.89-.77,5.32-2.21l53.57-53.9h182.63c26.08,0,47.3-21.22,47.3-47.3v-121.82c0-26.08-21.22-47.3-47.3-47.3ZM403.44,201.72c0,17.81-14.49,32.3-32.3,32.3h-186.53v.42c-1.79.09-3.55.81-4.92,2.18-.02.02-.03.03-.04.05-.73.74-26.4,26.57-42.52,42.78v-38.52c0-4.14-3.36-7.5-7.5-7.5-1.04,0-2.04.21-2.94.6h-36.25c-17.81,0-32.3-14.49-32.3-32.3v-121.82c0-17.81,14.49-32.3,32.3-32.3h280.71c17.81,0,32.3,14.49,32.3,32.3v121.82Z"/>
  <g class="st15">
    <path class="st1" d="M372.53,125.68h-124.74c-2.49,0-4.5-2.01-4.5-4.5s2.01-4.5,4.5-4.5h124.74c2.49,0,4.5,2.01,4.5,4.5s-2.01,4.5-4.5,4.5Z"/>
    <path class="st1" d="M372.53,141.44h-124.74c-2.49,0-4.5-2.01-4.5-4.5s2.01-4.5,4.5-4.5h124.74c2.49,0,4.5,2.01,4.5,4.5s-2.01,4.5-4.5,4.5Z"/>
    <path class="st1" d="M335.22,157.19h-87.43c-2.49,0-4.5-2.01-4.5-4.5s2.01-4.5,4.5-4.5h87.43c2.49,0,4.5,2.01,4.5,4.5s-2.01,4.5-4.5,4.5Z"/>
  </g>
  <path class="st3" d="M265.49,208.71h-19.4c-1.55,0-2.8-1.26-2.8-2.8s1.26-2.8,2.8-2.8h19.4c1.55,0,2.8,1.26,2.8,2.8s-1.26,2.8-2.8,2.8Z"/>
  <path class="st3" d="M311.9,208.71h-37.33c-1.55,0-2.8-1.26-2.8-2.8s1.26-2.8,2.8-2.8h37.33c1.55,0,2.8,1.26,2.8,2.8s-1.26,2.8-2.8,2.8Z"/>
  <path class="st7" d="M310.3,100l1.28,4c.18.55-.45,1-.92.66l-3.39-2.48c-.21-.15-.49-.15-.7,0l-3.41,2.46c-.47.34-1.09-.12-.91-.67l1.32-3.99c.08-.24,0-.51-.21-.66l-3.39-2.48c-.46-.34-.22-1.07.35-1.07l4.2.02c.26,0,.49-.16.57-.41l1.32-3.99c.18-.55.95-.54,1.13,0l1.28,4c.08.24.31.41.56.41l4.2.02c.57,0,.81.74.34,1.07l-3.41,2.46c-.21.15-.3.42-.22.66Z"/>
  <path class="st7" d="M329.35,100l1.28,4c.18.55-.45,1-.92.66l-3.39-2.48c-.21-.15-.49-.15-.7,0l-3.41,2.46c-.47.34-1.09-.12-.91-.67l1.32-3.99c.08-.24,0-.51-.21-.66l-3.39-2.48c-.46-.34-.22-1.07.35-1.07l4.2.02c.26,0,.49-.16.57-.41l1.32-3.99c.18-.55.95-.54,1.13,0l1.28,4c.08.24.31.41.56.41l4.2.02c.57,0,.81.74.34,1.07l-3.41,2.46c-.21.15-.3.42-.22.66Z"/>
  <path class="st7" d="M348.25,100l1.28,4c.18.55-.45,1-.92.66l-3.39-2.48c-.21-.15-.49-.15-.7,0l-3.41,2.46c-.47.34-1.09-.12-.91-.67l1.32-3.99c.08-.24,0-.51-.21-.66l-3.39-2.48c-.46-.34-.22-1.07.35-1.07l4.2.02c.26,0,.49-.16.57-.41l1.32-3.99c.18-.55.95-.54,1.13,0l1.28,4c.08.24.31.41.56.41l4.2.02c.57,0,.81.74.34,1.07l-3.41,2.46c-.21.15-.3.42-.22.66Z"/>
  <g class="st14">
    <path class="st1" d="M366.93,100l1.28,4c.18.55-.45,1-.92.66l-3.39-2.48c-.21-.15-.49-.15-.7,0l-3.41,2.46c-.47.34-1.09-.12-.91-.67l1.32-3.99c.08-.24,0-.51-.21-.66l-3.39-2.48c-.46-.34-.22-1.07.35-1.07l4.2.02c.26,0,.49-.16.57-.41l1.32-3.99c.18-.55.95-.54,1.13,0l1.28,4c.08.24.31.41.56.41l4.2.02c.57,0,.81.74.34,1.07l-3.41,2.46c-.21.15-.3.42-.22.66Z"/>
  </g>
  <path class="st7" d="M363.7,90.99c-.27-.04-.55.07-.66.38l-1.32,3.99c-.08.24-.31.41-.57.41l-4.2-.02c-.57,0-.82.73-.35,1.07l3.39,2.48c.21.15.29.42.21.66l-1.32,3.99c-.18.55.44,1,.91.67l3.41-2.46c.14-.1.32-.11.48-.07v-11.12Z"/>
  <g class="st13">
    <path class="st2" d="M265.32,68.29v7.56c-5.55.42-10.2,3.75-12.46,8.51h7.1c2.98,0,5.37,2.38,5.37,5.36v10.72c0,2.98-2.39,5.36-5.37,5.36h-10.73c-2.98,0-5.37-2.38-5.37-5.36v-10.72c.06-11.85,9.66-21.44,21.47-21.44ZM292.09,68.29v7.56c-5.49.42-10.2,3.75-12.46,8.51h7.16c2.98,0,5.37,2.38,5.37,5.36v10.72c0,2.98-2.39,5.36-5.37,5.36h-10.73c-2.98,0-5.37-2.38-5.37-5.36v-10.72c0-11.85,9.6-21.44,21.41-21.44Z"/>
  </g>
  <path class="st3" d="M242.26,170.69c3.59,7.38,8.14,14.23,13.48,20.46,1.26,1.48,3.69.59,4.18-1.1,1.79-6.14,4.07-12.1,6.87-17.85l-3.93.51c2.63,2.78,4.01,6.44,5.44,9.93,1.59,3.87,3.28,7.68,6.24,10.71,1.08,1.1,3.19.93,3.93-.51,1.8-3.51,4.08-8.23,8.22-9.4,2.63-.75,5.45.2,8.06.62,3.11.51,6.25.8,9.39.93s6.34.12,9.52.11,6.3-.07,9.43-.55c2.95-.45,5.78-1.46,8.77-1.71s6.17-.16,9.25-.26c7.26-.22,14.51-.82,21.72-1.78,1.34-.18,2.5-1.02,2.5-2.5,0-1.21-1.15-2.68-2.5-2.5-6.55.87-13.13,1.45-19.74,1.71-3.34.13-6.69.08-10.03.25s-6.42.99-9.66,1.67c-3.04.63-6.17.65-9.26.66-3.25.01-6.5.02-9.75-.1s-6.36-.38-9.49-.97-6.37-1.31-9.53-.41c-5.54,1.57-8.74,6.89-11.2,11.7l3.93-.51c-2.67-2.74-4.08-6.38-5.51-9.87-1.59-3.87-3.26-7.69-6.17-10.77-1.05-1.11-3.23-.93-3.93.51-2.99,6.13-5.47,12.5-7.38,19.04l4.18-1.1c-5.06-5.9-9.29-12.46-12.69-19.45-.59-1.21-2.32-1.54-3.42-.9-1.24.72-1.49,2.2-.9,3.42h0Z"/>
  <g class="st13">
    <path class="st5" d="M217.47,140.57c0,21.03-9.68,39.8-24.83,52.08-.95.77-1.92,1.52-2.91,2.24-11.04,8.01-24.63,12.73-39.31,12.73-13.38,0-25.85-3.92-36.32-10.68-1.02-.66-2.01-1.34-2.99-2.05-16.81-12.18-27.74-31.97-27.74-54.32,0-37.03,30.02-67.05,67.05-67.05s67.05,30.02,67.05,67.05Z"/>
    <path class="st11" d="M189.52,185.33c-.71-.85-1.53-1.62-2.43-2.27-1.64-1.2-3.57-2.05-5.68-2.42-1.87-.33-3.74-.63-5.61-.89l-1.96-2.84-2.48-3.6h-7.02c-.04-.15-.08-.3-.11-.45-.05-.2-.09-.41-.13-.62,0-.03,0-.06-.01-.08-.1-.59-.18-1.19-.21-1.8h0s.04-.03.07-.04c.51-.29.98-.64,1.41-1.04,2.67-2.46,6.7-7.11,9.01-14.24.67-2.08,1.8-3.97,3.25-5.61,1.87-2.1,3.62-4.28,2.95-8.12-.68-3.89-2.24-4.03-3.09-3.79v-16.98c0-1.27-.31-2.51-.92-3.62-.83-1.52-2.33-3.68-4.91-5.8-3.93-3.25-10.36-6.45-20.76-7.24,0,0-10.28-.69-17.08,8.19,0,0-6.21,4.03-6.79,10.05-.16,1.64.06,3.68.45,5.8.62,3.3,1.68,6.8,2.45,9.31v.02l.02.55s-2.71-1.97-3.67,3.52c-.67,3.85,1.08,6.02,2.95,8.12,1.45,1.63,2.58,3.53,3.25,5.61,1.67,5.17,4.25,9.04,6.56,11.71.31.36.61.69.91,1.01.54.58,1.07,1.09,1.54,1.53.45.42.95.78,1.48,1.08h0c-.01.24-.03.48-.06.71-.02.19-.04.37-.07.55-.06.42-.13.83-.23,1.24-.03.15-.07.3-.11.45h-6.96l-1.9,2.75-2.54,3.68c-.11.01-.23.03-.34.05-1.78.25-3.56.54-5.34.86-6.55,1.17-11.32,6.86-11.32,13.51v2.8c10.47,6.76,22.93,10.68,36.32,10.68,14.69,0,28.27-4.72,39.31-12.73.99-.72,1.96-1.46,2.91-2.24-.3-2.75-1.41-5.29-3.12-7.33Z"/>
    <g>
      <path class="st6" d="M189.73,191.15v3.74c-11.04,8.01-24.63,12.73-39.31,12.73-13.38,0-25.85-3.92-36.32-10.68-1.02-.66-2.01-1.34-2.99-2.05v-3.74c0-6.65,4.77-12.34,11.32-13.51,1.89-.34,3.78-.64,5.68-.9,1.84-.26,3.68-.49,5.53-.69,1.09-.12,2.18-.22,3.27-.31,1.63-.14,3.26-.25,4.89-.34.78-.04,1.55-.08,2.33-.11h0c2.1-.08,4.2-.13,6.29-.13s4.23.04,6.35.13c2.39.09,4.78.24,7.17.45.48.04.96.08,1.44.13,2.48.23,4.96.52,7.43.88.34.05.69.1,1.03.15,1.53.22,3.06.47,4.58.75,3.27.58,6.1,2.3,8.11,4.7.19.23.38.47.56.72,1.67,2.28,2.64,5.09,2.64,8.09Z"/>
      <path class="st10" d="M177.56,138.3c-.95-5.49-3.67-3.52-3.67-3.52l.03-.7c.54-13.47-10.03-24.78-23.5-25.16-13.47.37-24.04,11.69-23.5,25.16l.03.7s-2.71-1.97-3.67,3.52c-.67,3.85,1.08,6.02,2.95,8.13,1.45,1.63,2.58,3.53,3.25,5.6,2.3,7.13,6.33,11.78,9,14.24,1.5,1.39,3.48,2.15,5.53,2.15h12.81c2.05,0,4.02-.76,5.53-2.15,2.67-2.46,6.7-7.11,9-14.24.67-2.08,1.8-3.97,3.25-5.6,1.87-2.1,3.62-4.28,2.95-8.13Z"/>
      <path class="st6" d="M130.81,135.75v-7.72c0-3.81,1.72-4.7,4.68-7.09h0c2.25-1.82,5.05-2.81,7.94-2.81h18.01c3.97,0,7.51,2.51,8.83,6.26h0c.35.99.53,2.04.53,3.09v8.15c0,1.02.83,1.84,1.84,1.84h0c1.02,0,1.84-.83,1.84-1.84v-18.1c0-1.27-.31-2.51-.92-3.63-2.1-3.84-8.45-11.73-25.67-13.04,0,0-10.29-.69-17.08,8.19,0,0-6.21,4.03-6.79,10.05-.48,4.98,2.49,13.65,3.53,17.13.21.68.82,1.16,1.54,1.19h0c.94.03,1.72-.72,1.72-1.66Z"/>
      <path class="st10" d="M161.22,169.85c-.18-.82-.3-1.65-.35-2.5,0,0,0,0,0,0-1.22.7-2.62,1.07-4.05,1.07h-12.81c-1.43,0-2.82-.37-4.05-1.07,0,0,0,0,0,0-.05.85-.17,1.68-.35,2.5-.64,2.85-2.08,5.48-4.19,7.59l-4.81,4.81h0c12.37,6.66,27.25,6.66,39.62,0h0l-4.81-4.81c-2.12-2.12-3.55-4.74-4.19-7.59Z"/>
      <polygon class="st6" points="175.49 188.95 126.28 188.95 126.28 180.64 150.61 181.86 175.49 180.64 175.49 188.95"/>
      <path class="st12" d="M161.22,169.85c-1.31.83-2.83,1.28-4.4,1.28h-12.81c-1.57,0-3.09-.45-4.4-1.28.18-.82.3-1.65.35-2.5,1.22.7,2.62,1.07,4.05,1.07h12.81c1.43,0,2.82-.37,4.05-1.07.05.85.17,1.68.35,2.5Z"/>
      <g>
        <polygon class="st8" points="149.09 177.43 150.61 181.86 145.21 181.86 149.09 177.43"/>
        <polygon class="st4" points="132.54 170.3 149.09 177.43 139.43 188.46 127.94 176.97 132.54 170.3"/>
      </g>
      <g>
        <polygon class="st8" points="151.81 177.43 150.28 181.86 155.69 181.86 151.81 177.43"/>
        <polygon class="st4" points="168.36 170.3 151.81 177.43 161.46 188.46 172.95 176.97 168.36 170.3"/>
      </g>
      <path class="st8" d="M162.26,172.92l6.09-2.62h-7.02c.23.9.54,1.78.93,2.62Z"/>
      <path class="st8" d="M139.5,170.3h-6.96l6.04,2.6c.38-.84.69-1.71.92-2.6Z"/>
    </g>
  </g>
</svg>