<?xml version="1.0" encoding="utf-8"?>
<!-- Generator: Adobe Illustrator 28.1.0, SVG Export Plug-In . SVG Version: 6.00 Build 0)  -->
<svg version="1.1" id="Layer_1" xmlns="http://www.w3.org/2000/svg" xmlns:xlink="http://www.w3.org/1999/xlink" x="0px" y="0px"
	 viewBox="0 0 134.74 190.23" style="enable-background:new 0 0 134.74 190.23;" xml:space="preserve">
<style type="text/css">
	.st0{fill:#205FA9;}
	.st1{fill:#ED727D;}
	.st2{fill:#F9C026;}
	.st3{fill:#F5F5F5;}
	.st4{fill:#FFFFFF;}
	.st5{fill:#F0F0F0;}
	.st6{fill:#318370;}
	.st7{fill:none;}
	.st8{fill:#F2F2F2;}
	.st9{fill:#FCEAEC;}
	.st10{fill:none;stroke:#FFFFFF;stroke-linecap:round;stroke-miterlimit:10;}
	.st11{fill:#E0EDEA;}
	.st12{fill:none;stroke:#000000;stroke-width:8;stroke-miterlimit:10;}
	.st13{fill:#FEF2D4;}
	.st14{fill:#FFFFFF;stroke:#000000;stroke-width:8;stroke-miterlimit:10;}
	.st15{fill:#2160A9;}
	.st16{fill:none;stroke:#FDF2D4;stroke-width:30;stroke-linecap:round;stroke-linejoin:round;stroke-miterlimit:10;}
	.st17{fill:#F7C027;}
	.st18{fill:#D2DFEE;}
	.st19{fill:#D6E6E2;}
	.st20{fill:#FBE3E5;}
	.st21{opacity:0.2;fill:#205FA9;}
	.st22{opacity:0.2;fill:#318370;}
	.st23{opacity:0.2;fill:#ED727D;}
	.st24{fill:#FDF1F2;}
	.st25{fill:#EDEDED;}
	.st26{opacity:0.2;fill:#F9C026;}
	.st27{opacity:0.2;fill:#828282;}
	.st28{fill:none;stroke:#FFFFFF;stroke-miterlimit:10;}
	.st29{fill-rule:evenodd;clip-rule:evenodd;fill:#205FA9;}
	.st30{fill-rule:evenodd;clip-rule:evenodd;fill:#F3A3AA;}
	.st31{fill-rule:evenodd;clip-rule:evenodd;fill:#152841;}
	.st32{fill-rule:evenodd;clip-rule:evenodd;fill:#FFFFFF;}
	.st33{fill-rule:evenodd;clip-rule:evenodd;fill:#F1959D;}
	.st34{fill:none;stroke:#034442;stroke-width:0.5;stroke-linecap:round;stroke-linejoin:round;stroke-miterlimit:10;}
	.st35{clip-path:url(#SVGID_00000039129365236482006830000000928130062994109875_);}
	.st36{fill:none;stroke:#152841;stroke-width:0.25;stroke-miterlimit:10;}
	.st37{clip-path:url(#SVGID_00000128485180388594899380000016834349182910460089_);}
	.st38{fill:none;stroke:#F9C026;stroke-width:0.25;stroke-miterlimit:10;}
	.st39{clip-path:url(#SVGID_00000038378639472093409150000007130132910136151957_);}
	.st40{fill:none;stroke:#FEF9FA;stroke-width:9;stroke-linecap:round;stroke-miterlimit:10;}
	.st41{fill:none;stroke:#D3DFEE;stroke-width:18;stroke-linecap:round;stroke-miterlimit:10;}
	.st42{fill:#D3DFEE;}
	.st43{fill:#84B885;}
	.st44{opacity:0.15;}
	.st45{fill:#5D3E29;}
	.st46{fill:#FFAB83;}
	.st47{opacity:0.16;}
	.st48{fill:#1E1E1C;}
	.st49{fill:none;stroke:#2160A9;stroke-width:26;stroke-linecap:round;stroke-miterlimit:10;}
	.st50{fill:#C1DAD4;}
	.st51{fill:#FDF2D4;}
	.st52{fill:#E9EFF6;}
</style>
<g>
	<g>
		<path class="st4" d="M127.98,189.97H7.44c-3.62,0-6.56-2.94-6.56-6.56V7.51c0-3.62,2.94-6.56,6.56-6.56h120.54
			c3.62,0,6.56,2.94,6.56,6.56v175.9C134.54,187.03,131.61,189.97,127.98,189.97z"/>
		<path class="st7" d="M127.98,190.3H7.44c-3.8,0-6.89-3.09-6.89-6.89V7.51c0-3.8,3.09-6.89,6.89-6.89h120.54
			c3.8,0,6.89,3.09,6.89,6.89v175.9C134.87,187.21,131.78,190.3,127.98,190.3z M7.44,1.27C4,1.27,1.2,4.07,1.2,7.51v175.9
			c0,3.44,2.8,6.24,6.24,6.24h120.54c3.44,0,6.24-2.8,6.24-6.24V7.51c0-3.44-2.8-6.24-6.24-6.24H7.44z"/>
	</g>
	<g>
		<path class="st3" d="M62.31,34.91H21.54c-0.81,0-1.47-0.66-1.47-1.47s0.66-1.47,1.47-1.47h40.77c0.81,0,1.47,0.66,1.47,1.47
			S63.13,34.91,62.31,34.91z"/>
		<path class="st3" d="M62.31,40.06H21.54c-0.81,0-1.47-0.66-1.47-1.47s0.66-1.47,1.47-1.47h40.77c0.81,0,1.47,0.66,1.47,1.47
			S63.13,40.06,62.31,40.06z"/>
		<path class="st3" d="M62.31,45.21H21.54c-0.81,0-1.47-0.66-1.47-1.47c0-0.81,0.66-1.47,1.47-1.47h40.77
			c0.81,0,1.47,0.66,1.47,1.47C63.78,44.55,63.13,45.21,62.31,45.21z"/>
	</g>
	<g>
		<path class="st15" d="M23.52,30.66h-3.09c-0.4,0-0.72,0.32-0.72,0.72v3.09c0,0.4,0.32,0.72,0.72,0.72h3.09
			c0.4,0,0.72-0.32,0.72-0.72v-3.09C24.24,30.98,23.92,30.66,23.52,30.66z"/>
		<path class="st4" d="M21.13,33.7c0.16,0.15,0.3,0.43,0.57,0.25l1.53-1.53c0.18-0.22-0.07-0.53-0.31-0.35l-1.38,1.37
			c-0.06,0.01-0.46-0.48-0.54-0.52c-0.14-0.06-0.32,0.02-0.34,0.18C20.62,33.29,21.01,33.58,21.13,33.7z"/>
	</g>
	<g>
		<path class="st11" d="M95.99,41.4c-0.3-0.52-0.69-0.78-1.08-0.78c-0.39,0-0.79,0.26-1.09,0.78l-6.07,10.51
			c-0.56-0.97-2.6-4.51-2.6-4.51c-0.3-0.52-0.69-0.77-1.08-0.77c-0.39,0-0.79,0.26-1.08,0.77c0,0-2.48,4.3-3.08,5.34L79,54.32
			c-0.6,1.03-0.11,1.88,1.08,1.88h22.29c1.19,0,1.68-0.84,1.09-1.88L95.99,41.4z"/>
		<path class="st11" d="M85.15,42.44c1.66,0,3.01-1.35,3.01-3.02s-1.35-3.02-3.01-3.02c-1.67,0-3.02,1.35-3.02,3.02
			S83.49,42.44,85.15,42.44z"/>
		<path class="st11" d="M109.03,29.42H73.42c-2.59,0-4.7,2.11-4.7,4.7v24.38c0,2.59,2.11,4.69,4.7,4.69h35.61
			c2.59,0,4.7-2.11,4.7-4.7V34.12C113.74,31.53,111.62,29.42,109.03,29.42z M110.92,58.49c0,1.04-0.85,1.88-1.89,1.88H73.42
			c-1.04,0-1.89-0.84-1.89-1.88V34.12c0-1.04,0.85-1.88,1.89-1.88h35.61c1.04,0,1.89,0.84,1.89,1.88V58.49z"/>
	</g>
	<g>
		<path class="st3" d="M62.31,55.1H21.54c-0.81,0-1.47-0.66-1.47-1.47s0.66-1.47,1.47-1.47h40.77c0.81,0,1.47,0.66,1.47,1.47
			S63.13,55.1,62.31,55.1z"/>
		<path class="st3" d="M62.31,60.25H21.54c-0.81,0-1.47-0.66-1.47-1.47s0.66-1.47,1.47-1.47h40.77c0.81,0,1.47,0.66,1.47,1.47
			S63.13,60.25,62.31,60.25z"/>
		<path class="st3" d="M28.97,65.4h-7.43c-0.81,0-1.47-0.66-1.47-1.47s0.66-1.47,1.47-1.47h7.43c0.81,0,1.47,0.66,1.47,1.47
			S29.78,65.4,28.97,65.4z"/>
	</g>
	<g>
		<path class="st15" d="M23.52,50.85h-3.09c-0.4,0-0.72,0.32-0.72,0.72v3.09c0,0.4,0.32,0.72,0.72,0.72h3.09
			c0.4,0,0.72-0.32,0.72-0.72v-3.09C24.24,51.17,23.92,50.85,23.52,50.85z"/>
		<path class="st4" d="M21.13,53.89c0.16,0.15,0.3,0.43,0.57,0.25l1.53-1.53c0.18-0.22-0.07-0.53-0.31-0.35l-1.38,1.37
			c-0.06,0.01-0.46-0.48-0.54-0.52c-0.14-0.06-0.32,0.02-0.34,0.18C20.62,53.48,21.01,53.77,21.13,53.89z"/>
	</g>
	<g>
		<path class="st3" d="M62.31,77.06H21.54c-0.81,0-1.47-0.66-1.47-1.47c0-0.81,0.66-1.47,1.47-1.47h40.77
			c0.81,0,1.47,0.66,1.47,1.47C63.78,76.4,63.13,77.06,62.31,77.06z"/>
		<path class="st3" d="M62.31,82.21H21.54c-0.81,0-1.47-0.66-1.47-1.47s0.66-1.47,1.47-1.47h40.77c0.81,0,1.47,0.66,1.47,1.47
			S63.13,82.21,62.31,82.21z"/>
		<path class="st3" d="M51.19,87.36H21.54c-0.81,0-1.47-0.66-1.47-1.47c0-0.81,0.66-1.47,1.47-1.47h29.65
			c0.81,0,1.47,0.66,1.47,1.47C52.66,86.7,52,87.36,51.19,87.36z"/>
	</g>
	<g>
		<path class="st15" d="M23.52,72.81h-3.09c-0.4,0-0.72,0.32-0.72,0.72v3.09c0,0.4,0.32,0.72,0.72,0.72h3.09
			c0.4,0,0.72-0.32,0.72-0.72v-3.09C24.24,73.13,23.92,72.81,23.52,72.81z"/>
		<path class="st4" d="M21.13,75.85c0.16,0.15,0.3,0.43,0.57,0.25l1.53-1.53c0.18-0.22-0.07-0.53-0.31-0.35l-1.38,1.37
			c-0.06,0.01-0.46-0.48-0.54-0.52c-0.14-0.06-0.32,0.02-0.34,0.18C20.62,75.44,21.01,75.73,21.13,75.85z"/>
	</g>
	<path class="st8" d="M122.88,176.38V32.17h2.88c2.03,0,3.67-1.65,3.67-3.67V15.42c0-2.03-1.65-3.67-3.67-3.67h-8.09h-0.65H14.71
		c-2.88,0-5.21,2.33-5.21,5.21v159.42c0,2.88,2.33,5.21,5.21,5.21h102.96C120.55,181.59,122.88,179.26,122.88,176.38z M14.71,178.65
		c-1.25,0-2.27-1.02-2.27-2.27V16.96c0-1.25,1.02-2.27,2.27-2.27h102.96c1.25,0,2.27,1.02,2.27,2.27v159.42
		c0,1.25-1.02,2.27-2.27,2.27H14.71z"/>
	<g>
		<path class="st3" d="M112.53,113.12H71.75c-0.81,0-1.47-0.66-1.47-1.47c0-0.81,0.66-1.47,1.47-1.47h40.77
			c0.81,0,1.47,0.66,1.47,1.47C114,112.47,113.34,113.12,112.53,113.12z"/>
		<path class="st3" d="M112.53,118.27H71.75c-0.81,0-1.47-0.66-1.47-1.47s0.66-1.47,1.47-1.47h40.77c0.81,0,1.47,0.66,1.47,1.47
			S113.34,118.27,112.53,118.27z"/>
		<path class="st3" d="M112.53,123.42H71.75c-0.81,0-1.47-0.66-1.47-1.47c0-0.81,0.66-1.47,1.47-1.47h40.77
			c0.81,0,1.47,0.66,1.47,1.47C114,122.76,113.34,123.42,112.53,123.42z"/>
	</g>
	<g>
		<path class="st15" d="M73.73,108.87h-3.09c-0.4,0-0.72,0.32-0.72,0.72v3.09c0,0.4,0.32,0.72,0.72,0.72h3.09
			c0.4,0,0.72-0.32,0.72-0.72v-3.09C74.46,109.19,74.13,108.87,73.73,108.87z"/>
		<path class="st4" d="M71.34,111.91c0.16,0.15,0.3,0.43,0.57,0.25l1.53-1.53c0.18-0.22-0.07-0.53-0.31-0.35l-1.38,1.37
			c-0.06,0.01-0.46-0.48-0.54-0.52c-0.14-0.06-0.32,0.02-0.34,0.18C70.84,111.5,71.22,111.79,71.34,111.91z"/>
	</g>
	<g>
		<path class="st3" d="M112.53,133.31H71.75c-0.81,0-1.47-0.66-1.47-1.47c0-0.81,0.66-1.47,1.47-1.47h40.77
			c0.81,0,1.47,0.66,1.47,1.47C114,132.65,113.34,133.31,112.53,133.31z"/>
		<path class="st3" d="M112.53,138.46H71.75c-0.81,0-1.47-0.66-1.47-1.47c0-0.81,0.66-1.47,1.47-1.47h40.77
			c0.81,0,1.47,0.66,1.47,1.47C114,137.8,113.34,138.46,112.53,138.46z"/>
		<path class="st3" d="M79.18,143.61h-7.43c-0.81,0-1.47-0.66-1.47-1.47s0.66-1.47,1.47-1.47h7.43c0.81,0,1.47,0.66,1.47,1.47
			S79.99,143.61,79.18,143.61z"/>
	</g>
	<g>
		<path class="st15" d="M73.73,129.06h-3.09c-0.4,0-0.72,0.32-0.72,0.72v3.09c0,0.4,0.32,0.72,0.72,0.72h3.09
			c0.4,0,0.72-0.32,0.72-0.72v-3.09C74.46,129.38,74.13,129.06,73.73,129.06z"/>
		<path class="st4" d="M71.34,132.1c0.16,0.15,0.3,0.43,0.57,0.25l1.53-1.53c0.18-0.22-0.07-0.53-0.31-0.35l-1.38,1.37
			c-0.06,0.01-0.46-0.48-0.54-0.52c-0.14-0.06-0.32,0.02-0.34,0.18C70.84,131.69,71.22,131.98,71.34,132.1z"/>
	</g>
	<g>
		<path class="st3" d="M112.53,155.27H71.75c-0.81,0-1.47-0.66-1.47-1.47c0-0.81,0.66-1.47,1.47-1.47h40.77
			c0.81,0,1.47,0.66,1.47,1.47C114,154.61,113.34,155.27,112.53,155.27z"/>
		<path class="st3" d="M112.53,160.42H71.75c-0.81,0-1.47-0.66-1.47-1.47s0.66-1.47,1.47-1.47h40.77c0.81,0,1.47,0.66,1.47,1.47
			S113.34,160.42,112.53,160.42z"/>
		<path class="st3" d="M101.4,165.57H71.75c-0.81,0-1.47-0.66-1.47-1.47c0-0.81,0.66-1.47,1.47-1.47h29.65
			c0.81,0,1.47,0.66,1.47,1.47C102.87,164.91,102.21,165.57,101.4,165.57z"/>
	</g>
	<g>
		<path class="st15" d="M73.73,151.02h-3.09c-0.4,0-0.72,0.32-0.72,0.72v3.09c0,0.4,0.32,0.72,0.72,0.72h3.09
			c0.4,0,0.72-0.32,0.72-0.72v-3.09C74.46,151.34,74.13,151.02,73.73,151.02z"/>
		<path class="st4" d="M71.34,154.06c0.16,0.15,0.3,0.43,0.57,0.25l1.53-1.53c0.18-0.22-0.07-0.53-0.31-0.35l-1.38,1.37
			c-0.06,0.01-0.46-0.48-0.54-0.52c-0.14-0.06-0.32,0.02-0.34,0.18C70.84,153.65,71.22,153.94,71.34,154.06z"/>
	</g>
	<g>
		<path class="st9" d="M46.07,119.62c-0.3-0.52-0.69-0.78-1.08-0.78c-0.39,0-0.79,0.26-1.09,0.78l-6.07,10.51
			c-0.56-0.97-2.6-4.51-2.6-4.51c-0.3-0.52-0.69-0.77-1.08-0.77c-0.39,0-0.79,0.26-1.08,0.77c0,0-2.48,4.3-3.08,5.34l-0.91,1.58
			c-0.6,1.03-0.11,1.88,1.08,1.88h22.29c1.19,0,1.68-0.84,1.09-1.88L46.07,119.62z"/>
		<path class="st9" d="M35.23,120.65c1.66,0,3.01-1.35,3.01-3.02c0-1.67-1.35-3.02-3.01-3.02c-1.67,0-3.02,1.35-3.02,3.02
			C32.22,119.3,33.57,120.65,35.23,120.65z"/>
		<path class="st9" d="M59.11,107.63H23.5c-2.59,0-4.7,2.11-4.7,4.7v24.38c0,2.59,2.11,4.69,4.7,4.69h35.61c2.59,0,4.7-2.11,4.7-4.7
			v-24.38C63.82,109.74,61.71,107.63,59.11,107.63z M61,136.7c0,1.04-0.85,1.88-1.89,1.88H23.5c-1.04,0-1.89-0.84-1.89-1.88v-24.38
			c0-1.04,0.85-1.88,1.89-1.88h35.61c1.04,0,1.89,0.84,1.89,1.88V136.7z"/>
	</g>
	<path class="st8" d="M125.47,53.38h-4.94v-2.62h4.94c0.72,0,1.31-0.59,1.31-1.31V36.39c0-0.72-0.59-1.31-1.31-1.31h-4.94v-2.62
		h4.94c2.16,0,3.93,1.76,3.93,3.93v13.06C129.39,51.61,127.63,53.38,125.47,53.38z"/>
	<rect x="117.48" y="35.17" class="st4" width="6.82" height="15.74"/>
	<g>
		<path class="st8" d="M120.52,55.11h4.94c1.45,0,2.62,1.17,2.62,2.62v13.06c0,1.45-1.17,2.62-2.62,2.62h-4.94"/>
		<path class="st8" d="M125.47,74.71h-4.94V72.1h4.94c0.72,0,1.31-0.59,1.31-1.31V57.73c0-0.72-0.59-1.31-1.31-1.31h-4.94V53.8h4.94
			c2.16,0,3.93,1.76,3.93,3.93v13.06C129.39,72.95,127.63,74.71,125.47,74.71z"/>
	</g>
	<g>
		<g>
			<path class="st17" d="M123.39,22.72l-0.62-0.85c-0.08-0.12,0.03-0.27,0.17-0.23l1,0.33c0.06,0.02,0.13,0,0.17-0.05l0.62-0.85
				c0.08-0.12,0.27-0.06,0.27,0.09v1.05c0,0.06,0.04,0.12,0.1,0.14l1,0.33c0.14,0.04,0.14,0.24,0,0.28l-1,0.33
				c-0.06,0.02-0.1,0.08-0.1,0.14v1.05c0,0.14-0.18,0.2-0.27,0.09l-0.62-0.85c-0.04-0.05-0.1-0.07-0.17-0.05l-1,0.33
				c-0.14,0.04-0.25-0.11-0.17-0.23l0.62-0.85C123.43,22.85,123.43,22.78,123.39,22.72z"/>
		</g>
	</g>
	<g>
		<g>
			<path class="st6" d="M122.47,40.65l-0.62-0.85c-0.08-0.12,0.03-0.27,0.17-0.23l1,0.33c0.06,0.02,0.13,0,0.17-0.05l0.62-0.85
				c0.08-0.12,0.27-0.06,0.27,0.09v1.05c0,0.06,0.04,0.12,0.1,0.14l1,0.33c0.14,0.04,0.14,0.24,0,0.28l-1,0.33
				c-0.06,0.02-0.1,0.08-0.1,0.14v1.05c0,0.14-0.18,0.2-0.27,0.09l-0.62-0.85c-0.04-0.05-0.1-0.07-0.17-0.05l-1,0.33
				c-0.14,0.04-0.25-0.11-0.17-0.23l0.62-0.85C122.51,40.77,122.51,40.7,122.47,40.65z"/>
		</g>
	</g>
	<g>
		<g>
			<path class="st6" d="M122.47,45.02l-0.62-0.85c-0.08-0.12,0.03-0.27,0.17-0.23l1,0.33c0.06,0.02,0.13,0,0.17-0.05l0.62-0.85
				c0.08-0.12,0.27-0.06,0.27,0.09v1.05c0,0.06,0.04,0.12,0.1,0.14l1,0.33c0.14,0.04,0.14,0.24,0,0.28l-1,0.33
				c-0.06,0.02-0.1,0.08-0.1,0.14v1.05c0,0.14-0.18,0.2-0.27,0.09L123.19,46c-0.04-0.05-0.1-0.07-0.17-0.05l-1,0.33
				c-0.14,0.04-0.25-0.11-0.17-0.23l0.62-0.85C122.51,45.14,122.51,45.07,122.47,45.02z"/>
		</g>
	</g>
	<g>
		<g>
			<path class="st17" d="M123.72,60.2l-0.62-0.85c-0.08-0.12,0.03-0.27,0.17-0.23l1,0.33c0.06,0.02,0.13,0,0.17-0.05l0.62-0.85
				c0.08-0.12,0.27-0.06,0.27,0.09v1.05c0,0.06,0.04,0.12,0.1,0.14l1,0.33c0.14,0.04,0.14,0.24,0,0.28l-1,0.33
				c-0.06,0.02-0.1,0.08-0.1,0.14v1.05c0,0.14-0.18,0.2-0.27,0.09l-0.62-0.85c-0.04-0.05-0.1-0.07-0.17-0.05l-1,0.33
				c-0.14,0.04-0.25-0.11-0.17-0.23l0.62-0.85C123.76,60.32,123.76,60.25,123.72,60.2z"/>
		</g>
	</g>
	<g>
		<g>
			<path class="st17" d="M123.72,64.56l-0.62-0.85c-0.08-0.12,0.03-0.27,0.17-0.23l1,0.33c0.06,0.02,0.13,0,0.17-0.05l0.62-0.85
				c0.08-0.12,0.27-0.06,0.27,0.09v1.05c0,0.06,0.04,0.12,0.1,0.14l1,0.33c0.14,0.04,0.14,0.24,0,0.28l-1,0.33
				c-0.06,0.02-0.1,0.08-0.1,0.14v1.05c0,0.14-0.18,0.2-0.27,0.09l-0.62-0.85c-0.04-0.05-0.1-0.07-0.17-0.05l-1,0.33
				c-0.14,0.04-0.25-0.11-0.17-0.23l0.62-0.85C123.76,64.69,123.76,64.62,123.72,64.56z"/>
		</g>
	</g>
	<g>
		<g>
			<path class="st17" d="M123.72,68.93l-0.62-0.85c-0.08-0.12,0.03-0.27,0.17-0.23l1,0.33c0.06,0.02,0.13,0,0.17-0.05l0.62-0.85
				c0.08-0.12,0.27-0.06,0.27,0.09v1.05c0,0.06,0.04,0.12,0.1,0.14l1,0.33c0.14,0.04,0.14,0.24,0,0.28l-1,0.33
				c-0.06,0.02-0.1,0.08-0.1,0.14v1.05c0,0.14-0.18,0.2-0.27,0.09l-0.62-0.85c-0.04-0.05-0.1-0.07-0.17-0.05l-1,0.33
				c-0.14,0.04-0.25-0.11-0.17-0.23l0.62-0.85C123.76,69.06,123.76,68.99,123.72,68.93z"/>
		</g>
	</g>
	<g>
		<path class="st6" d="M108.87,54.78h-3.09c-0.4,0-0.72,0.32-0.72,0.72v3.09c0,0.4,0.32,0.72,0.72,0.72h3.09
			c0.4,0,0.72-0.32,0.72-0.72v-3.09C109.59,55.1,109.27,54.78,108.87,54.78z"/>
		<g>
			<path class="st4" d="M107.25,58.6h-0.83c-0.36,0-0.65-0.29-0.65-0.65v-1.81c0-0.36,0.29-0.65,0.65-0.65h1.81
				c0.36,0,0.65,0.29,0.65,0.65v0.83h-0.24v-0.83c0-0.22-0.18-0.4-0.4-0.4h-1.81c-0.22,0-0.4,0.18-0.4,0.4v1.81
				c0,0.22,0.18,0.4,0.4,0.4h0.83V58.6z"/>
			<path class="st4" d="M108.69,58.97h-0.72c-0.26,0-0.48-0.21-0.48-0.48v-0.72c0-0.26,0.21-0.48,0.48-0.48h0.72
				c0.26,0,0.48,0.21,0.48,0.48v0.72C109.17,58.75,108.96,58.97,108.69,58.97z M107.98,57.54c-0.13,0-0.23,0.1-0.23,0.23v0.72
				c0,0.13,0.1,0.23,0.23,0.23h0.72c0.13,0,0.23-0.1,0.23-0.23v-0.72c0-0.13-0.1-0.23-0.23-0.23H107.98z"/>
			<path class="st4" d="M107.45,57.32c-0.03,0-0.06-0.01-0.09-0.04l-1.1-1.1c-0.05-0.05-0.05-0.13,0-0.17
				c0.05-0.05,0.13-0.05,0.17,0l1.1,1.1c0.05,0.05,0.05,0.13,0,0.17C107.51,57.31,107.48,57.32,107.45,57.32z"/>
			<path class="st4" d="M107.61,57.36h-0.91c-0.07,0-0.12-0.05-0.12-0.12c0-0.07,0.05-0.12,0.12-0.12h0.67v-0.67
				c0-0.07,0.05-0.12,0.12-0.12s0.12,0.05,0.12,0.12V57.36z"/>
		</g>
	</g>
	<g>
		<path class="st1" d="M58.87,132.41h-3.09c-0.4,0-0.72,0.32-0.72,0.72v3.09c0,0.4,0.32,0.72,0.72,0.72h3.09
			c0.4,0,0.72-0.32,0.72-0.72v-3.09C59.6,132.73,59.27,132.41,58.87,132.41z"/>
		<g>
			<path class="st4" d="M57.26,136.23h-0.83c-0.36,0-0.65-0.29-0.65-0.65v-1.81c0-0.36,0.29-0.65,0.65-0.65h1.81
				c0.36,0,0.65,0.29,0.65,0.65v0.83h-0.24v-0.83c0-0.22-0.18-0.4-0.4-0.4h-1.81c-0.22,0-0.4,0.18-0.4,0.4v1.81
				c0,0.22,0.18,0.4,0.4,0.4h0.83V136.23z"/>
			<path class="st4" d="M58.7,136.6h-0.72c-0.26,0-0.48-0.21-0.48-0.48v-0.72c0-0.26,0.21-0.48,0.48-0.48h0.72
				c0.26,0,0.48,0.21,0.48,0.48v0.72C59.18,136.38,58.96,136.6,58.7,136.6z M57.98,135.17c-0.13,0-0.23,0.1-0.23,0.23v0.72
				c0,0.13,0.1,0.23,0.23,0.23h0.72c0.13,0,0.23-0.1,0.23-0.23v-0.72c0-0.13-0.1-0.23-0.23-0.23H57.98z"/>
			<path class="st4" d="M57.45,134.95c-0.03,0-0.06-0.01-0.09-0.04l-1.1-1.1c-0.05-0.05-0.05-0.13,0-0.17
				c0.05-0.05,0.13-0.05,0.17,0l1.1,1.1c0.05,0.05,0.05,0.13,0,0.17C57.51,134.94,57.48,134.95,57.45,134.95z"/>
			<path class="st4" d="M57.62,134.99H56.7c-0.07,0-0.12-0.05-0.12-0.12s0.05-0.12,0.12-0.12h0.67v-0.67c0-0.07,0.05-0.12,0.12-0.12
				c0.07,0,0.12,0.05,0.12,0.12V134.99z"/>
		</g>
	</g>
	<path class="st17" d="M10.56,6.66c0.14,0.65,0.36,1.26,0.63,1.86c0.13,0.29,0.59,0.39,0.84,0.22c0.52-0.35,1.06-0.66,1.63-0.92
		c0.3-0.14,0.61-0.26,0.92-0.37c0.28-0.1,0.64-0.27,0.94-0.26c0.59,0.02,1.21,0.45,1.75,0.67c0.63,0.26,1.31,0.46,1.99,0.43
		c0.65-0.03,1.19-0.3,1.8-0.49c0.68-0.2,1.36-0.03,2.04,0.1c1.41,0.26,2.84,0.39,4.27,0.4C29,8.3,30.63,8.14,32.23,7.83
		C33,7.68,32.67,6.49,31.9,6.65c-2.8,0.55-5.74,0.58-8.55,0.05c-0.74-0.14-1.48-0.3-2.23-0.17C20.5,6.63,19.95,7,19.33,7.05
		c-1.37,0.13-2.41-0.99-3.73-1.09c-0.74-0.05-1.57,0.36-2.24,0.65c-0.69,0.29-1.34,0.64-1.96,1.06c0.28,0.07,0.56,0.15,0.84,0.22
		c-0.23-0.5-0.39-1.03-0.51-1.57C11.57,5.56,10.39,5.89,10.56,6.66L10.56,6.66z"/>
</g>
</svg>
