<?xml version="1.0" encoding="utf-8"?>
<!-- Generator: Adobe Illustrator 28.1.0, SVG Export Plug-In . SVG Version: 6.00 Build 0)  -->
<svg version="1.1" id="Layer_1" xmlns="http://www.w3.org/2000/svg" xmlns:xlink="http://www.w3.org/1999/xlink" x="0px" y="0px"
	 viewBox="0 0 134.74 190.23" style="enable-background:new 0 0 134.74 190.23;" xml:space="preserve">
<style type="text/css">
	.st0{fill:#205FA9;}
	.st1{fill:#ED727D;}
	.st2{fill:#F9C026;}
	.st3{fill:#F5F5F5;}
	.st4{fill:#FFFFFF;}
	.st5{fill:#F0F0F0;}
	.st6{fill:#318370;}
	.st7{fill:none;}
	.st8{fill:#F2F2F2;}
	.st9{fill:#FCEAEC;}
	.st10{fill:none;stroke:#FFFFFF;stroke-linecap:round;stroke-miterlimit:10;}
	.st11{fill:#E0EDEA;}
	.st12{fill:none;stroke:#000000;stroke-width:8;stroke-miterlimit:10;}
	.st13{fill:#FEF2D4;}
	.st14{fill:#FFFFFF;stroke:#000000;stroke-width:8;stroke-miterlimit:10;}
	.st15{fill:#2160A9;}
	.st16{fill:none;stroke:#FDF2D4;stroke-width:30;stroke-linecap:round;stroke-linejoin:round;stroke-miterlimit:10;}
	.st17{fill:#F7C027;}
	.st18{fill:#D2DFEE;}
	.st19{fill:#D6E6E2;}
	.st20{fill:#FBE3E5;}
	.st21{opacity:0.2;fill:#205FA9;}
	.st22{opacity:0.2;fill:#318370;}
	.st23{opacity:0.2;fill:#ED727D;}
	.st24{fill:#FDF1F2;}
	.st25{fill:#EDEDED;}
	.st26{opacity:0.2;fill:#F9C026;}
	.st27{opacity:0.2;fill:#828282;}
	.st28{fill:none;stroke:#FFFFFF;stroke-miterlimit:10;}
	.st29{fill-rule:evenodd;clip-rule:evenodd;fill:#205FA9;}
	.st30{fill-rule:evenodd;clip-rule:evenodd;fill:#F3A3AA;}
	.st31{fill-rule:evenodd;clip-rule:evenodd;fill:#152841;}
	.st32{fill-rule:evenodd;clip-rule:evenodd;fill:#FFFFFF;}
	.st33{fill-rule:evenodd;clip-rule:evenodd;fill:#F1959D;}
	.st34{fill:none;stroke:#034442;stroke-width:0.5;stroke-linecap:round;stroke-linejoin:round;stroke-miterlimit:10;}
	.st35{clip-path:url(#SVGID_00000121274272563026429510000002128812814985269915_);}
	.st36{fill:none;stroke:#152841;stroke-width:0.25;stroke-miterlimit:10;}
	.st37{clip-path:url(#SVGID_00000013181904506769975520000014668364093149838258_);}
	.st38{fill:none;stroke:#F9C026;stroke-width:0.25;stroke-miterlimit:10;}
	.st39{clip-path:url(#SVGID_00000171685287853024306820000014802467278866494374_);}
	.st40{fill:none;stroke:#FEF9FA;stroke-width:9;stroke-linecap:round;stroke-miterlimit:10;}
	.st41{fill:none;stroke:#D3DFEE;stroke-width:18;stroke-linecap:round;stroke-miterlimit:10;}
	.st42{fill:#D3DFEE;}
	.st43{fill:#84B885;}
	.st44{opacity:0.15;}
	.st45{fill:#5D3E29;}
	.st46{fill:#FFAB83;}
	.st47{opacity:0.16;}
	.st48{fill:#1E1E1C;}
	.st49{fill:none;stroke:#2160A9;stroke-width:26;stroke-linecap:round;stroke-miterlimit:10;}
	.st50{fill:#C1DAD4;}
	.st51{fill:#FDF2D4;}
	.st52{fill:#E9EFF6;}
</style>
<g>
	<g>
		<path class="st4" d="M127.76,189.72H7.16c-3.63,0-6.57-2.94-6.57-6.57V7.17c0-3.63,2.94-6.57,6.57-6.57h120.6
			c3.63,0,6.57,2.94,6.57,6.57v175.99C134.33,186.78,131.39,189.72,127.76,189.72z"/>
		<path class="st7" d="M127.76,190.05H7.16c-3.8,0-6.89-3.09-6.89-6.89V7.17c0-3.8,3.09-6.89,6.89-6.89h120.6
			c3.8,0,6.89,3.09,6.89,6.89v175.99C134.65,186.96,131.56,190.05,127.76,190.05z M7.16,0.93c-3.44,0-6.24,2.8-6.24,6.24v175.99
			c0,3.44,2.8,6.24,6.24,6.24h120.6c3.44,0,6.24-2.8,6.24-6.24V7.17c0-3.44-2.8-6.24-6.24-6.24H7.16z"/>
	</g>
	<path class="st8" d="M117.38,112.42h-85v-2.88c0-2.03-1.65-3.68-3.68-3.68H15.62c-2.03,0-3.68,1.65-3.68,3.68v8.1v0.65v54.38
		c0,2.88,2.34,5.22,5.22,5.22h100.21c2.88,0,5.22-2.34,5.22-5.22v-55.02C122.59,114.75,120.26,112.42,117.38,112.42z M119.65,172.66
		c0,1.25-1.02,2.27-2.27,2.27H17.16c-1.25,0-2.27-1.02-2.27-2.27v-55.02c0-1.25,1.02-2.27,2.27-2.27h100.21
		c1.25,0,2.27,1.02,2.27,2.27V172.66z"/>
	<g>
		<path class="st3" d="M63.65,37.89H14.31c-0.81,0-1.47-0.66-1.47-1.47s0.66-1.47,1.47-1.47h49.34c0.81,0,1.47,0.66,1.47,1.47
			S64.46,37.89,63.65,37.89z"/>
		<path class="st3" d="M63.65,43.04H14.31c-0.81,0-1.47-0.66-1.47-1.47s0.66-1.47,1.47-1.47h49.34c0.81,0,1.47,0.66,1.47,1.47
			S64.46,43.04,63.65,43.04z"/>
		<path class="st3" d="M63.65,48.2H14.31c-0.81,0-1.47-0.66-1.47-1.47s0.66-1.47,1.47-1.47h49.34c0.81,0,1.47,0.66,1.47,1.47
			S64.46,48.2,63.65,48.2z"/>
	</g>
	<g>
		<path class="st3" d="M35.8,56.7H14.31c-0.81,0-1.47-0.66-1.47-1.47s0.66-1.47,1.47-1.47H35.8c0.81,0,1.47,0.66,1.47,1.47
			S36.61,56.7,35.8,56.7z"/>
		<path class="st3" d="M35.8,61.85H14.31c-0.81,0-1.47-0.66-1.47-1.47s0.66-1.47,1.47-1.47H35.8c0.81,0,1.47,0.66,1.47,1.47
			S36.61,61.85,35.8,61.85z"/>
		<path class="st3" d="M35.8,67H14.31c-0.81,0-1.47-0.66-1.47-1.47s0.66-1.47,1.47-1.47H35.8c0.81,0,1.47,0.66,1.47,1.47
			S36.61,67,35.8,67z"/>
	</g>
	<g>
		<path class="st3" d="M63.65,56.7H42.16c-0.81,0-1.47-0.66-1.47-1.47s0.66-1.47,1.47-1.47h21.49c0.81,0,1.47,0.66,1.47,1.47
			S64.46,56.7,63.65,56.7z"/>
		<path class="st3" d="M63.65,61.85H42.16c-0.81,0-1.47-0.66-1.47-1.47s0.66-1.47,1.47-1.47h21.49c0.81,0,1.47,0.66,1.47,1.47
			S64.46,61.85,63.65,61.85z"/>
		<path class="st3" d="M63.65,67H42.16c-0.81,0-1.47-0.66-1.47-1.47s0.66-1.47,1.47-1.47h21.49c0.81,0,1.47,0.66,1.47,1.47
			S64.46,67,63.65,67z"/>
	</g>
	<path class="st8" d="M17.2,17.76h43.36c2.37,0,4.29,1.92,4.29,4.29v2.76c0,2.37-1.92,4.29-4.29,4.29H17.2
		c-2.37,0-4.29-1.92-4.29-4.29v-2.76C12.91,19.68,14.83,17.76,17.2,17.76z"/>
	<g>
		<path class="st3" d="M63.65,77.69H14.31c-0.81,0-1.47-0.66-1.47-1.47c0-0.81,0.66-1.47,1.47-1.47h49.34
			c0.81,0,1.47,0.66,1.47,1.47C65.12,77.03,64.46,77.69,63.65,77.69z"/>
		<path class="st3" d="M63.65,82.84H14.31c-0.81,0-1.47-0.66-1.47-1.47c0-0.81,0.66-1.47,1.47-1.47h49.34
			c0.81,0,1.47,0.66,1.47,1.47C65.12,82.19,64.46,82.84,63.65,82.84z"/>
		<path class="st3" d="M63.65,88H14.31c-0.81,0-1.47-0.66-1.47-1.47c0-0.81,0.66-1.47,1.47-1.47h49.34c0.81,0,1.47,0.66,1.47,1.47
			C65.12,87.34,64.46,88,63.65,88z"/>
	</g>
	<g>
		<path class="st3" d="M32.77,149.88c-8.36,0-15.16-6.8-15.16-15.16c0-8.36,6.8-15.16,15.16-15.16c8.36,0,15.16,6.8,15.16,15.16
			C47.93,143.08,41.13,149.88,32.77,149.88z M32.77,125.45c-5.11,0-9.27,4.16-9.27,9.27c0,5.11,4.16,9.27,9.27,9.27
			s9.27-4.16,9.27-9.27C42.04,129.61,37.88,125.45,32.77,125.45z"/>
		<path class="st20" d="M44.98,137.67c-1.63,0-2.94-1.32-2.94-2.94c0-5.11-4.16-9.27-9.27-9.27c-1.63,0-2.94-1.32-2.94-2.94
			s1.32-2.94,2.94-2.94c8.36,0,15.16,6.8,15.16,15.16C47.93,136.35,46.61,137.67,44.98,137.67z"/>
	</g>
	<g>
		<path class="st3" d="M67.4,149.88c-8.36,0-15.16-6.8-15.16-15.16c0-8.36,6.8-15.16,15.16-15.16c8.36,0,15.16,6.8,15.16,15.16
			C82.56,143.08,75.76,149.88,67.4,149.88z M67.4,125.45c-5.11,0-9.27,4.16-9.27,9.27c0,5.11,4.16,9.27,9.27,9.27
			s9.27-4.16,9.27-9.27C76.67,129.61,72.51,125.45,67.4,125.45z"/>
		<path class="st19" d="M67.4,149.88c-8.36,0-15.16-6.8-15.16-15.16c0-1.63,1.32-2.94,2.94-2.94s2.94,1.32,2.94,2.94
			c0,5.11,4.16,9.27,9.27,9.27s9.27-4.16,9.27-9.27c0-5.11-4.16-9.27-9.27-9.27c-1.63,0-2.94-1.32-2.94-2.94s1.32-2.94,2.94-2.94
			c8.36,0,15.16,6.8,15.16,15.16C82.56,143.08,75.76,149.88,67.4,149.88z"/>
	</g>
	<g>
		<path class="st3" d="M101.5,149.88c-8.36,0-15.16-6.8-15.16-15.16c0-8.36,6.8-15.16,15.16-15.16s15.16,6.8,15.16,15.16
			C116.66,143.08,109.86,149.88,101.5,149.88z M101.5,125.45c-5.11,0-9.27,4.16-9.27,9.27c0,5.11,4.16,9.27,9.27,9.27
			s9.27-4.16,9.27-9.27C110.77,129.61,106.61,125.45,101.5,125.45z"/>
		<path class="st42" d="M101.5,149.88c-1.63,0-2.94-1.32-2.94-2.94c0-1.63,1.32-2.94,2.94-2.94c5.11,0,9.27-4.16,9.27-9.27
			c0-5.11-4.16-9.27-9.27-9.27c-1.63,0-2.94-1.32-2.94-2.94s1.32-2.94,2.94-2.94c8.36,0,15.16,6.8,15.16,15.16
			C116.66,143.08,109.86,149.88,101.5,149.88z"/>
	</g>
	<g>
		<path class="st3" d="M44.57,158.69h-22.4c-0.81,0-1.47-0.66-1.47-1.47s0.66-1.47,1.47-1.47h22.4c0.81,0,1.47,0.66,1.47,1.47
			S45.39,158.69,44.57,158.69z"/>
		<path class="st3" d="M44.57,163.85h-22.4c-0.81,0-1.47-0.66-1.47-1.47c0-0.81,0.66-1.47,1.47-1.47h22.4
			c0.81,0,1.47,0.66,1.47,1.47C46.05,163.19,45.39,163.85,44.57,163.85z"/>
		<path class="st3" d="M37.48,169H22.17c-0.81,0-1.47-0.66-1.47-1.47c0-0.81,0.66-1.47,1.47-1.47h15.31c0.81,0,1.47,0.66,1.47,1.47
			C38.95,168.34,38.29,169,37.48,169z"/>
	</g>
	<g>
		<path class="st3" d="M78.74,158.69H56.83c-0.81,0-1.47-0.66-1.47-1.47s0.66-1.47,1.47-1.47h21.91c0.81,0,1.47,0.66,1.47,1.47
			S79.55,158.69,78.74,158.69z"/>
		<path class="st3" d="M71.8,163.85H56.83c-0.81,0-1.47-0.66-1.47-1.47c0-0.81,0.66-1.47,1.47-1.47H71.8c0.81,0,1.47,0.66,1.47,1.47
			C73.27,163.19,72.61,163.85,71.8,163.85z"/>
		<path class="st3" d="M78.74,169H56.83c-0.81,0-1.47-0.66-1.47-1.47c0-0.81,0.66-1.47,1.47-1.47h21.91c0.81,0,1.47,0.66,1.47,1.47
			C80.21,168.34,79.55,169,78.74,169z"/>
	</g>
	<g>
		<path class="st3" d="M113.05,158.69H91.06c-0.81,0-1.47-0.66-1.47-1.47s0.66-1.47,1.47-1.47h21.99c0.81,0,1.47,0.66,1.47,1.47
			S113.86,158.69,113.05,158.69z"/>
		<path class="st3" d="M113.05,163.85H91.06c-0.81,0-1.47-0.66-1.47-1.47c0-0.81,0.66-1.47,1.47-1.47h21.99
			c0.81,0,1.47,0.66,1.47,1.47C114.52,163.19,113.86,163.85,113.05,163.85z"/>
	</g>
	<g>
		<path class="st15" d="M24.78,155.25h-3.09c-0.4,0-0.73,0.32-0.73,0.73v3.09c0,0.4,0.32,0.73,0.73,0.73h3.09
			c0.4,0,0.73-0.32,0.73-0.73v-3.09C25.5,155.58,25.18,155.25,24.78,155.25z"/>
		<g>
			<path class="st3" d="M23.23,159.08c-0.14,0-0.25-0.11-0.25-0.25v-2.63c0-0.14,0.11-0.25,0.25-0.25c0.14,0,0.25,0.11,0.25,0.25
				v2.63C23.48,158.97,23.37,159.08,23.23,159.08z"/>
			<path class="st3" d="M24.55,157.77h-2.63c-0.14,0-0.25-0.11-0.25-0.25s0.11-0.25,0.25-0.25h2.63c0.14,0,0.25,0.11,0.25,0.25
				S24.68,157.77,24.55,157.77z"/>
		</g>
	</g>
	<g>
		<path class="st15" d="M59.34,155.25h-3.09c-0.4,0-0.73,0.32-0.73,0.73v3.09c0,0.4,0.32,0.73,0.73,0.73h3.09
			c0.4,0,0.73-0.32,0.73-0.73v-3.09C60.07,155.58,59.75,155.25,59.34,155.25z"/>
		<g>
			<path class="st3" d="M57.8,159.08c-0.14,0-0.25-0.11-0.25-0.25v-2.63c0-0.14,0.11-0.25,0.25-0.25s0.25,0.11,0.25,0.25v2.63
				C58.04,158.97,57.93,159.08,57.8,159.08z"/>
			<path class="st3" d="M59.11,157.77h-2.63c-0.14,0-0.25-0.11-0.25-0.25s0.11-0.25,0.25-0.25h2.63c0.14,0,0.25,0.11,0.25,0.25
				S59.25,157.77,59.11,157.77z"/>
		</g>
	</g>
	<g>
		<path class="st15" d="M93.77,155.25h-3.09c-0.4,0-0.73,0.32-0.73,0.73v3.09c0,0.4,0.32,0.73,0.73,0.73h3.09
			c0.4,0,0.73-0.32,0.73-0.73v-3.09C94.49,155.58,94.17,155.25,93.77,155.25z"/>
		<g>
			<path class="st3" d="M92.22,159.08c-0.14,0-0.25-0.11-0.25-0.25v-2.63c0-0.14,0.11-0.25,0.25-0.25c0.14,0,0.25,0.11,0.25,0.25
				v2.63C92.46,158.97,92.35,159.08,92.22,159.08z"/>
			<path class="st3" d="M93.53,157.77h-2.63c-0.14,0-0.25-0.11-0.25-0.25s0.11-0.25,0.25-0.25h2.63c0.14,0,0.25,0.11,0.25,0.25
				S93.67,157.77,93.53,157.77z"/>
		</g>
	</g>
	<path class="st17" d="M24.86,22.25c0.22,1.05,0.57,2.05,1.02,3.03c0.13,0.29,0.59,0.39,0.84,0.22c0.88-0.61,1.81-1.13,2.79-1.57
		c0.47-0.21,0.95-0.41,1.44-0.58c0.54-0.19,1.14-0.47,1.71-0.51c0.53-0.04,1.1,0.22,1.57,0.41c0.52,0.22,1.03,0.47,1.55,0.7
		c1.06,0.46,2.2,0.8,3.36,0.73c1.08-0.06,1.98-0.56,3-0.84c1.19-0.33,2.41-0.01,3.59,0.21c2.34,0.43,4.73,0.64,7.11,0.65
		c2.68,0.01,5.37-0.25,8-0.77c0.77-0.15,0.45-1.34-0.33-1.18c-4.69,0.93-9.6,0.98-14.31,0.15c-1.22-0.22-2.45-0.53-3.69-0.37
		c-1.08,0.14-2.03,0.76-3.1,0.91c-1.12,0.15-2.27-0.2-3.28-0.66c-1-0.45-2.02-1.03-3.12-1.15c-0.68-0.07-1.35,0.18-1.98,0.4
		c-0.6,0.2-1.18,0.43-1.76,0.68c-1.11,0.48-2.18,1.05-3.17,1.74c0.28,0.07,0.56,0.15,0.84,0.22c-0.4-0.88-0.69-1.79-0.89-2.74
		C25.88,21.15,24.69,21.48,24.86,22.25L24.86,22.25z"/>
	<g>
		<path class="st15" d="M31.75,133.87c-0.19,0-0.37-0.03-0.53-0.09c-0.16-0.06-0.31-0.13-0.43-0.23c-0.12-0.1-0.22-0.21-0.29-0.34
			c-0.07-0.13-0.11-0.27-0.11-0.42c0-0.15,0.04-0.29,0.11-0.42c0.07-0.13,0.17-0.25,0.29-0.34c0.12-0.09,0.26-0.17,0.43-0.23
			c0.16-0.06,0.34-0.08,0.53-0.08c0.19,0,0.36,0.03,0.53,0.08c0.17,0.06,0.31,0.13,0.43,0.23c0.12,0.09,0.22,0.21,0.29,0.34
			c0.07,0.13,0.11,0.27,0.11,0.42c0,0.15-0.04,0.29-0.11,0.42c-0.07,0.13-0.17,0.24-0.29,0.34c-0.12,0.1-0.26,0.17-0.43,0.23
			C32.11,133.85,31.93,133.87,31.75,133.87z M30.85,136.5l2.31-2.33l2.13-2.43l0.5,0.38l-2.24,2.29l-2.2,2.47L30.85,136.5z
			 M31.75,133.4c0.08,0,0.16-0.02,0.23-0.05c0.07-0.03,0.13-0.08,0.18-0.13c0.05-0.05,0.1-0.12,0.13-0.19
			c0.03-0.07,0.05-0.15,0.05-0.23c0-0.17-0.06-0.31-0.17-0.42c-0.11-0.12-0.25-0.17-0.41-0.17c-0.08,0-0.16,0.02-0.23,0.05
			c-0.07,0.03-0.13,0.08-0.18,0.13c-0.05,0.05-0.1,0.12-0.13,0.19c-0.03,0.07-0.05,0.15-0.05,0.23c0,0.17,0.06,0.31,0.17,0.43
			C31.45,133.34,31.59,133.4,31.75,133.4z M34.91,136.9c-0.19,0-0.37-0.03-0.53-0.08c-0.16-0.06-0.31-0.13-0.43-0.23
			c-0.12-0.09-0.22-0.21-0.29-0.34c-0.07-0.13-0.11-0.27-0.11-0.42c0-0.15,0.04-0.29,0.11-0.42c0.07-0.13,0.17-0.24,0.29-0.34
			c0.12-0.1,0.26-0.17,0.43-0.23c0.16-0.06,0.34-0.09,0.53-0.09s0.37,0.03,0.53,0.09c0.16,0.06,0.31,0.13,0.43,0.23
			c0.12,0.1,0.22,0.21,0.29,0.34c0.07,0.13,0.1,0.27,0.1,0.42c0,0.15-0.03,0.29-0.1,0.42c-0.07,0.13-0.16,0.24-0.29,0.34
			c-0.12,0.09-0.27,0.17-0.43,0.23C35.28,136.88,35.1,136.9,34.91,136.9z M34.91,136.43c0.08,0,0.16-0.02,0.23-0.05
			c0.07-0.03,0.13-0.08,0.18-0.13c0.05-0.05,0.1-0.12,0.13-0.19c0.03-0.07,0.05-0.15,0.05-0.23c0-0.08-0.02-0.16-0.05-0.24
			c-0.03-0.07-0.08-0.14-0.13-0.19c-0.05-0.05-0.11-0.1-0.18-0.13c-0.07-0.03-0.14-0.05-0.22-0.05c-0.08,0-0.16,0.02-0.22,0.05
			c-0.07,0.03-0.13,0.08-0.18,0.13c-0.05,0.05-0.1,0.12-0.13,0.19c-0.03,0.07-0.05,0.15-0.05,0.23c0,0.17,0.06,0.31,0.17,0.42
			C34.61,136.37,34.75,136.43,34.91,136.43z"/>
	</g>
	<g>
		<path class="st15" d="M65.81,133.87c-0.19,0-0.37-0.03-0.53-0.09c-0.16-0.06-0.31-0.13-0.43-0.23c-0.12-0.1-0.22-0.21-0.29-0.34
			c-0.07-0.13-0.11-0.27-0.11-0.42c0-0.15,0.04-0.29,0.11-0.42c0.07-0.13,0.17-0.25,0.29-0.34c0.12-0.09,0.26-0.17,0.43-0.23
			c0.16-0.06,0.34-0.08,0.53-0.08c0.19,0,0.36,0.03,0.53,0.08c0.17,0.06,0.31,0.13,0.43,0.23c0.12,0.09,0.22,0.21,0.29,0.34
			c0.07,0.13,0.11,0.27,0.11,0.42c0,0.15-0.04,0.29-0.11,0.42c-0.07,0.13-0.17,0.24-0.29,0.34c-0.12,0.1-0.26,0.17-0.43,0.23
			C66.17,133.85,66,133.87,65.81,133.87z M64.92,136.5l2.31-2.33l2.13-2.43l0.5,0.38l-2.24,2.29l-2.2,2.47L64.92,136.5z
			 M65.81,133.4c0.08,0,0.16-0.02,0.23-0.05c0.07-0.03,0.13-0.08,0.18-0.13c0.05-0.05,0.1-0.12,0.13-0.19
			c0.03-0.07,0.05-0.15,0.05-0.23c0-0.17-0.06-0.31-0.17-0.42c-0.11-0.12-0.25-0.17-0.41-0.17c-0.08,0-0.16,0.02-0.23,0.05
			c-0.07,0.03-0.13,0.08-0.18,0.13c-0.05,0.05-0.1,0.12-0.13,0.19s-0.05,0.15-0.05,0.23c0,0.17,0.06,0.31,0.17,0.43
			C65.52,133.34,65.65,133.4,65.81,133.4z M68.97,136.9c-0.19,0-0.37-0.03-0.53-0.08c-0.16-0.06-0.31-0.13-0.43-0.23
			c-0.12-0.09-0.22-0.21-0.29-0.34c-0.07-0.13-0.11-0.27-0.11-0.42c0-0.15,0.04-0.29,0.11-0.42c0.07-0.13,0.17-0.24,0.29-0.34
			c0.12-0.1,0.26-0.17,0.43-0.23c0.16-0.06,0.34-0.09,0.53-0.09c0.19,0,0.37,0.03,0.53,0.09c0.16,0.06,0.31,0.13,0.43,0.23
			c0.12,0.1,0.22,0.21,0.29,0.34c0.07,0.13,0.1,0.27,0.1,0.42c0,0.15-0.03,0.29-0.1,0.42c-0.07,0.13-0.16,0.24-0.29,0.34
			c-0.12,0.09-0.27,0.17-0.43,0.23C69.34,136.88,69.16,136.9,68.97,136.9z M68.97,136.43c0.08,0,0.16-0.02,0.23-0.05
			c0.07-0.03,0.13-0.08,0.18-0.13c0.05-0.05,0.1-0.12,0.13-0.19c0.03-0.07,0.05-0.15,0.05-0.23c0-0.08-0.02-0.16-0.05-0.24
			c-0.03-0.07-0.08-0.14-0.13-0.19c-0.05-0.05-0.11-0.1-0.18-0.13c-0.07-0.03-0.14-0.05-0.22-0.05c-0.08,0-0.16,0.02-0.23,0.05
			c-0.07,0.03-0.13,0.08-0.18,0.13c-0.05,0.05-0.1,0.12-0.13,0.19c-0.03,0.07-0.05,0.15-0.05,0.23c0,0.17,0.06,0.31,0.17,0.42
			C68.68,136.37,68.81,136.43,68.97,136.43z"/>
	</g>
	<g>
		<path class="st15" d="M99.81,134.2c-0.19,0-0.37-0.03-0.53-0.09c-0.16-0.06-0.31-0.13-0.43-0.23c-0.12-0.1-0.22-0.21-0.29-0.34
			c-0.07-0.13-0.11-0.27-0.11-0.42c0-0.15,0.04-0.29,0.11-0.42c0.07-0.13,0.17-0.25,0.29-0.34c0.12-0.09,0.26-0.17,0.43-0.23
			c0.16-0.06,0.34-0.08,0.53-0.08c0.19,0,0.36,0.03,0.53,0.08c0.17,0.06,0.31,0.13,0.43,0.23c0.12,0.09,0.22,0.21,0.29,0.34
			c0.07,0.13,0.11,0.27,0.11,0.42c0,0.15-0.04,0.29-0.11,0.42c-0.07,0.13-0.17,0.24-0.29,0.34c-0.12,0.1-0.26,0.17-0.43,0.23
			C100.17,134.17,100,134.2,99.81,134.2z M98.92,136.83l2.31-2.33l2.13-2.43l0.5,0.38l-2.24,2.29l-2.2,2.47L98.92,136.83z
			 M99.81,133.73c0.08,0,0.16-0.02,0.23-0.05c0.07-0.03,0.13-0.08,0.18-0.13c0.05-0.05,0.1-0.12,0.13-0.19
			c0.03-0.07,0.05-0.15,0.05-0.23c0-0.17-0.06-0.31-0.17-0.42c-0.11-0.12-0.25-0.17-0.41-0.17c-0.08,0-0.16,0.02-0.23,0.05
			c-0.07,0.03-0.13,0.08-0.18,0.13c-0.05,0.05-0.1,0.12-0.13,0.19c-0.03,0.07-0.05,0.15-0.05,0.23c0,0.17,0.06,0.31,0.17,0.43
			C99.52,133.67,99.65,133.73,99.81,133.73z M102.97,137.23c-0.19,0-0.37-0.03-0.53-0.08c-0.16-0.06-0.31-0.13-0.43-0.23
			c-0.12-0.09-0.22-0.21-0.29-0.34c-0.07-0.13-0.11-0.27-0.11-0.42c0-0.15,0.04-0.29,0.11-0.42c0.07-0.13,0.17-0.24,0.29-0.34
			c0.12-0.1,0.26-0.17,0.43-0.23c0.16-0.06,0.34-0.09,0.53-0.09c0.19,0,0.37,0.03,0.53,0.09c0.16,0.06,0.31,0.13,0.43,0.23
			c0.12,0.1,0.22,0.21,0.29,0.34s0.1,0.27,0.1,0.42c0,0.15-0.03,0.29-0.1,0.42s-0.16,0.24-0.29,0.34c-0.12,0.09-0.27,0.17-0.43,0.23
			C103.34,137.2,103.16,137.23,102.97,137.23z M102.97,136.76c0.08,0,0.16-0.02,0.23-0.05c0.07-0.03,0.13-0.08,0.18-0.13
			c0.05-0.05,0.1-0.12,0.13-0.19c0.03-0.07,0.05-0.15,0.05-0.23c0-0.08-0.02-0.16-0.05-0.24c-0.03-0.07-0.08-0.14-0.13-0.19
			c-0.05-0.05-0.11-0.1-0.18-0.13c-0.07-0.03-0.14-0.05-0.22-0.05c-0.08,0-0.16,0.02-0.23,0.05c-0.07,0.03-0.13,0.08-0.18,0.13
			c-0.05,0.05-0.1,0.12-0.13,0.19c-0.03,0.07-0.05,0.15-0.05,0.23c0,0.17,0.06,0.31,0.17,0.42
			C102.68,136.7,102.81,136.76,102.97,136.76z"/>
	</g>
	<g>
		<path class="st43" d="M21.71,23.6c0,0.96-0.45,1.81-1.14,2.36c-0.03,0.03-0.06,0.05-0.1,0.07c-0.49,0.36-1.1,0.57-1.76,0.57
			c-0.6,0-1.16-0.18-1.63-0.48c-0.05-0.03-0.09-0.06-0.13-0.09c-0.75-0.55-1.24-1.43-1.24-2.43c0-1.66,1.34-3,3-3
			C20.36,20.6,21.71,21.94,21.71,23.6z"/>
		<path class="st44" d="M20.56,25.96c-0.03,0.03-0.06,0.05-0.1,0.07c-0.49,0.36-1.1,0.57-1.76,0.57c-0.6,0-1.16-0.18-1.63-0.48v0
			c0-0.24,0.21-0.44,0.51-0.48h0c0.12-0.02,0.24-0.03,0.37-0.04h0L18,25.55l0.11-0.11l0.06-0.06c0.01-0.01,0.02-0.02,0.03-0.03
			c0.02-0.02,0.04-0.05,0.06-0.08c0-0.01,0.01-0.01,0.01-0.02c0.01-0.01,0.01-0.02,0.02-0.04c0.01-0.01,0.01-0.03,0.02-0.04
			c0,0,0,0,0,0c-0.05-0.04-0.09-0.08-0.14-0.13c-0.01-0.01-0.01-0.01-0.02-0.02c-0.03-0.04-0.07-0.08-0.09-0.13
			c-0.1-0.16-0.15-0.34-0.21-0.52c-0.01-0.03-0.02-0.06-0.03-0.1c0,0,0,0,0,0c-0.01-0.07-0.02-0.14-0.03-0.22
			c-0.02-0.02-0.03-0.04-0.05-0.07c-0.03-0.03-0.06-0.07-0.08-0.11c-0.04-0.07-0.07-0.15-0.05-0.26c0.01-0.06,0.02-0.09,0.04-0.12
			c0,0,0,0,0,0c0.01-0.02,0.02-0.03,0.03-0.03c0.05-0.04,0.09,0,0.09,0l0-0.03c0,0,0,0,0-0.01l-0.03-0.55c0-0.03,0-0.06,0-0.09
			c0.01-0.2,0.11-0.39,0.27-0.52c0.57-0.45,1.26-0.26,1.63,0.06c0.16,0.13,0.26,0.29,0.27,0.42c0.01,0.21,0,0.45-0.03,0.66
			c0,0.02-0.01,0.04-0.01,0.06c0,0,0.01-0.01,0.02-0.01c0.04-0.01,0.11-0.01,0.14,0.17c0.03,0.17-0.05,0.27-0.13,0.36
			c-0.03,0.04-0.06,0.08-0.09,0.12c-0.01,0.11-0.02,0.2-0.05,0.27c-0.06,0.18-0.11,0.36-0.21,0.52c-0.06,0.1-0.14,0.18-0.22,0.26
			c0,0,0,0,0,0c0.01,0.03,0.03,0.07,0.05,0.1c0.02,0.03,0.04,0.07,0.07,0.1c0.01,0.01,0.02,0.02,0.03,0.03l0.08,0.08h0l0,0h0v0
			l0.13,0.13c0.12,0.01,0.24,0.03,0.37,0.04c0.11,0.02,0.22,0.06,0.3,0.11c0.02,0.02,0.04,0.03,0.06,0.05
			C20.5,25.85,20.54,25.9,20.56,25.96z"/>
		<g>
			<g>
				<g>
					<g>
						<g>
							<g>
								<path class="st45" d="M20.47,25.99v0.04c-0.49,0.36-1.1,0.57-1.76,0.57c-0.6,0-1.16-0.18-1.63-0.48
									c-0.05-0.03-0.09-0.06-0.13-0.09v-0.04c0-0.24,0.21-0.44,0.51-0.48h0c0.12-0.02,0.24-0.03,0.37-0.04h0
									c0.1-0.01,0.19-0.02,0.29-0.02c0.49-0.03,0.99-0.02,1.48,0.02h0c0.12,0.01,0.24,0.03,0.37,0.04
									c0.15,0.02,0.27,0.08,0.36,0.17c0.03,0.03,0.05,0.05,0.07,0.08C20.44,25.83,20.47,25.91,20.47,25.99z"/>
								<path class="st46" d="M19.92,23.5c-0.04-0.25-0.16-0.16-0.16-0.16l0-0.03c0.02-0.6-0.45-1.11-1.05-1.13
									c-0.6,0.02-1.08,0.52-1.05,1.13l0,0.03c0,0-0.12-0.09-0.16,0.16c-0.03,0.17,0.05,0.27,0.13,0.36
									c0.06,0.07,0.12,0.16,0.15,0.25c0.1,0.32,0.28,0.53,0.4,0.64c0.07,0.06,0.16,0.1,0.25,0.1h0.29h0.29
									c0.09,0,0.18-0.03,0.25-0.1c0.12-0.11,0.3-0.32,0.4-0.64c0.03-0.09,0.08-0.18,0.15-0.25C19.87,23.77,19.95,23.67,19.92,23.5
									z"/>
								<path class="st46" d="M19.59,25.47c-0.28,0.15-0.58,0.22-0.89,0.22s-0.61-0.07-0.89-0.22l0.22-0.22
									c0.01-0.01,0.02-0.02,0.03-0.03c0.02-0.02,0.04-0.05,0.06-0.08c0.02-0.03,0.04-0.06,0.05-0.1c0.02-0.04,0.03-0.09,0.05-0.14
									c0.01-0.04,0.01-0.07,0.02-0.11c0.05,0.03,0.12,0.05,0.18,0.05h0.57c0.06,0,0.13-0.02,0.18-0.05c0,0,0,0,0,0
									c0,0.04,0.01,0.08,0.02,0.11c0.01,0.04,0.02,0.08,0.04,0.12c0.01,0.03,0.03,0.07,0.05,0.1c0.02,0.03,0.04,0.07,0.07,0.1
									c0.01,0.01,0.02,0.02,0.03,0.03L19.59,25.47z"/>
								<g>
									<path class="st47" d="M19.19,24.91c-0.06,0.04-0.13,0.06-0.2,0.06h-0.57c-0.07,0-0.14-0.02-0.2-0.06
										c0.01-0.04,0.01-0.07,0.02-0.11c0.05,0.03,0.12,0.05,0.18,0.05h0.57c0.06,0,0.13-0.02,0.18-0.05
										C19.18,24.84,19.18,24.88,19.19,24.91z"/>
								</g>
							</g>
						</g>
					</g>
				</g>
				<path class="st48" d="M17.74,23.74c0.1-0.11,0.15-0.39,0.22-1.06l1.15,0.06c0.16,0.02,0.3,0.13,0.35,0.29l0.19,0.63
					c0.01,0.03,0.06,0.03,0.07,0c0.04-0.22,0.12-0.67,0.1-1.03c-0.03-0.45-1.08-1.12-1.9-0.48c-0.18,0.14-0.28,0.37-0.27,0.6
					l0.05,0.97C17.68,23.75,17.72,23.77,17.74,23.74z"/>
				<path class="st45" d="M19.59,25.47c-0.28,0.15-0.58,0.31-0.89,0.31s-0.61-0.16-0.89-0.31l0.22-0.22
					c0.01-0.01,0.02-0.02,0.03-0.03h1.29c0.01,0.01,0.02,0.02,0.03,0.03L19.59,25.47z"/>
				<path class="st48" d="M19.72,23.38c0,0-0.18,0.58-0.23,0.73c-0.05,0.15-0.12,0.3-0.22,0.43c-0.01,0.01-0.02,0.01-0.03,0.01
					c-0.06-0.02-0.1-0.05-0.13-0.11c-0.02-0.05-0.05-0.1-0.08-0.14c-0.04-0.05-0.09-0.1-0.16-0.12c-0.04-0.02-0.09-0.03-0.14-0.02
					c-0.01,0-0.03,0-0.04,0c-0.01,0-0.03,0-0.04,0c-0.05,0-0.09,0.01-0.14,0.02c-0.06,0.03-0.11,0.07-0.16,0.12
					c-0.03,0.04-0.06,0.09-0.08,0.14c-0.02,0.06-0.07,0.09-0.13,0.11c-0.01,0-0.02,0-0.03-0.01c-0.09-0.13-0.16-0.28-0.22-0.43
					c-0.05-0.15-0.23-0.73-0.23-0.73c0,0.03-0.02,0.64,0.06,0.88c0.06,0.18,0.11,0.36,0.21,0.52c0.07,0.12,0.17,0.22,0.28,0.3
					c0.12,0.09,0.26,0.15,0.4,0.18c0.02,0,0.04,0.01,0.07,0.01c0,0,0,0,0.01,0c0,0,0,0,0.01,0c0.02,0,0.04-0.01,0.07-0.01
					c0.15-0.03,0.28-0.09,0.4-0.18c0.11-0.08,0.21-0.19,0.28-0.3c0.1-0.16,0.15-0.34,0.21-0.52C19.74,24.01,19.71,23.41,19.72,23.38
					z M18.99,24.62c-0.03,0.04-0.06,0.07-0.1,0.09c-0.03,0.02-0.07,0.02-0.1,0.01c-0.01-0.01-0.03-0.01-0.04-0.02
					c-0.02-0.01-0.04-0.02-0.06-0.02c-0.02,0-0.04,0.01-0.06,0.02c-0.01,0.01-0.02,0.01-0.04,0.02c-0.04,0.01-0.07,0.01-0.1-0.01
					c-0.04-0.02-0.07-0.06-0.1-0.09c-0.04-0.05-0.02-0.11,0.01-0.17c0.09-0.17,0.29-0.1,0.29-0.1c0,0,0.2-0.07,0.29,0.1
					C19.02,24.52,19.03,24.57,18.99,24.62z"/>
			</g>
			<g>
				<path class="st47" d="M19.28,25.13c-0.03,0.03-0.07,0.06-0.11,0.09c-0.12,0.09-0.26,0.15-0.4,0.18c-0.02,0-0.04,0.01-0.07,0.01
					c0,0,0,0-0.01,0c0,0,0,0-0.01,0c-0.02,0-0.04-0.01-0.07-0.01c-0.15-0.03-0.28-0.09-0.4-0.18c-0.03-0.02-0.06-0.05-0.09-0.07
					c0.02-0.03,0.04-0.06,0.05-0.1c0.01,0.01,0.02,0.02,0.04,0.03c0.12,0.09,0.26,0.15,0.4,0.18c0.02,0,0.04,0.01,0.07,0.01
					c0,0,0,0,0.01,0c0,0,0,0,0.01,0c0.02,0,0.04-0.01,0.07-0.01c0.15-0.03,0.28-0.09,0.4-0.18c0.02-0.01,0.04-0.03,0.06-0.05
					C19.24,25.06,19.26,25.1,19.28,25.13z"/>
			</g>
		</g>
	</g>
	<g>
		<g>
			<path class="st50" d="M121.38,33.22v32.91c0,0.65-0.53,1.18-1.18,1.18h-7.56c-0.65,0-1.18-0.53-1.18-1.18V33.22
				c0-0.65,0.53-1.18,1.18-1.18h7.56C120.85,32.03,121.38,32.56,121.38,33.22z"/>
			<path class="st42" d="M109.5,37.31v28.81c0,0.65-0.53,1.18-1.18,1.18h-7.56c-0.65,0-1.18-0.53-1.18-1.18V37.31
				c0-0.65,0.53-1.18,1.18-1.18h7.56C108.97,36.13,109.5,36.66,109.5,37.31z"/>
			<path class="st20" d="M97.35,45.7v20.43c0,0.65-0.53,1.18-1.18,1.18h-7.56c-0.65,0-1.18-0.53-1.18-1.18V45.7
				c0-0.65,0.53-1.18,1.18-1.18h7.56C96.82,44.52,97.35,45.05,97.35,45.7z"/>
			<path class="st51" d="M85.21,54.86v11.27c0,0.65-0.53,1.18-1.18,1.18h-7.56c-0.65,0-1.18-0.53-1.18-1.18V54.86
				c0-0.65,0.53-1.18,1.18-1.18h7.56C84.68,53.68,85.21,54.21,85.21,54.86z"/>
		</g>
		<path class="st3" d="M76.39,43.33c-0.59,0-1.17-0.32-1.46-0.89c-0.41-0.8-0.1-1.79,0.71-2.2l36.74-18.86
			c0.8-0.41,1.79-0.1,2.2,0.71c0.41,0.8,0.1,1.79-0.71,2.2L77.13,43.14C76.89,43.27,76.64,43.33,76.39,43.33z"/>
		<polyline class="st3" points="109.22,17.76 120.16,18.73 114.94,28.04 		"/>
	</g>
	<g>
		<path class="st52" d="M95.42,78.14H74.9c-0.81,0-1.47-0.66-1.47-1.47c0-0.81,0.66-1.47,1.47-1.47h20.52
			c0.81,0,1.47,0.66,1.47,1.47C96.89,77.49,96.23,78.14,95.42,78.14z"/>
		<path class="st52" d="M95.42,83.3H74.9c-0.81,0-1.47-0.66-1.47-1.47c0-0.81,0.66-1.47,1.47-1.47h20.52c0.81,0,1.47,0.66,1.47,1.47
			C96.89,82.64,96.23,83.3,95.42,83.3z"/>
		<path class="st52" d="M95.42,88.45H74.9c-0.81,0-1.47-0.66-1.47-1.47c0-0.81,0.66-1.47,1.47-1.47h20.52
			c0.81,0,1.47,0.66,1.47,1.47C96.89,87.79,96.23,88.45,95.42,88.45z"/>
	</g>
	<g>
		<path class="st52" d="M122.02,78.14H101.5c-0.81,0-1.47-0.66-1.47-1.47c0-0.81,0.66-1.47,1.47-1.47h20.52
			c0.81,0,1.47,0.66,1.47,1.47C123.49,77.49,122.83,78.14,122.02,78.14z"/>
		<path class="st52" d="M122.02,83.3H101.5c-0.81,0-1.47-0.66-1.47-1.47c0-0.81,0.66-1.47,1.47-1.47h20.52
			c0.81,0,1.47,0.66,1.47,1.47C123.49,82.64,122.83,83.3,122.02,83.3z"/>
		<path class="st52" d="M122.02,88.45H101.5c-0.81,0-1.47-0.66-1.47-1.47c0-0.81,0.66-1.47,1.47-1.47h20.52
			c0.81,0,1.47,0.66,1.47,1.47C123.49,87.79,122.83,88.45,122.02,88.45z"/>
	</g>
</g>
</svg>
