<?xml version="1.0" encoding="UTF-8"?>
<svg xmlns="http://www.w3.org/2000/svg" version="1.1" viewBox="0 0 134.7 190.2">
  <defs>
    <style>
      .cls-1 {
        fill: #f9c026;
      }

      .cls-1, .cls-2, .cls-3, .cls-4, .cls-5 {
        isolation: isolate;
        opacity: .2;
      }

      .cls-6 {
        fill: #d2dfee;
      }

      .cls-7 {
        fill: #fff;
      }

      .cls-8 {
        fill: none;
      }

      .cls-2, .cls-9 {
        fill: #318370;
      }

      .cls-10 {
        fill: #2160a9;
      }

      .cls-3, .cls-11 {
        fill: #ed727d;
      }

      .cls-12 {
        fill: #f2f2f2;
      }

      .cls-13 {
        fill: #fdf1f2;
      }

      .cls-4 {
        fill: #828282;
      }

      .cls-14 {
        fill: #fbe3e5;
      }

      .cls-15 {
        fill: #f5f5f5;
      }

      .cls-16, .cls-5 {
        fill: #205fa9;
      }

      .cls-17 {
        fill: #ededed;
      }
    </style>
  </defs>
  <!-- Generator: Adobe Illustrator 28.7.10, SVG Export Plug-In . SVG Version: 1.2.0 Build 236)  -->
  <g>
    <g id="Layer_2">
      <rect class="cls-7" x="0" y="0" width="134.1" height="190.2"/>
    </g>
    <g id="Layer_1">
      <rect class="cls-15" x="0" y="0" width="134.6" height="16.8"/>
      <g>
        <path class="cls-7" d="M29.5,17.2v-5.3c0-1.4,1.2-2.6,2.6-2.6h13.1c1.5,0,2.6,1.2,2.6,2.6v5.3"/>
        <path class="cls-7" d="M49.2,17.2h-2.6v-5.3c0-.7-.6-1.3-1.3-1.3h-13.1c-.7,0-1.3.6-1.3,1.3v5.3h-2.6v-5.3c0-2.2,1.8-3.9,3.9-3.9h13.1c2.2,0,3.9,1.8,3.9,3.9v5.3h0Z"/>
      </g>
      <rect class="cls-7" x="30.9" y="13.1" width="15.8" height="6.8"/>
      <g>
        <path class="cls-6" d="M50.6,16.9v-5c0-1.4,1.2-2.6,2.6-2.6h13.1c1.4,0,2.6,1.2,2.6,2.6v5"/>
        <path class="cls-6" d="M70.3,16.9h-2.6v-5c0-.7-.6-1.3-1.3-1.3h-13.1c-.7,0-1.3.6-1.3,1.3v5h-2.6v-5c0-2.2,1.8-3.9,3.9-3.9h13.1c2.2,0,3.9,1.8,3.9,3.9v5h0Z"/>
      </g>
      <g>
        <path class="cls-14" d="M8.4,16.9v-5c0-1.4,1.2-2.6,2.6-2.6h13.1c1.5,0,2.6,1.2,2.6,2.6v5"/>
        <path class="cls-14" d="M28.1,16.9h-2.6v-5c0-.7-.6-1.3-1.3-1.3h-13.1c-.7,0-1.3.6-1.3,1.3v5h-2.6v-5c0-2.2,1.8-3.9,3.9-3.9h13.1c2.2,0,3.9,1.8,3.9,3.9v5h0Z"/>
      </g>
      <path class="cls-7" d="M17.2,13.7l-.9.6c-.1,0-.3,0-.2-.2l.3-1c0,0,0-.1,0-.2l-.9-.6c-.1,0,0-.3,0-.3h1.1c0,0,.1,0,.1-.1l.3-1c0-.1.2-.1.3,0l.3,1c0,0,0,.1.1.1h1.1c.1,0,.2.2,0,.3l-.9.6s0,.1,0,.2l.3,1c0,.1-.1.2-.2.2l-.9-.6c0,0-.1,0-.2,0Z"/>
      <path class="cls-16" d="M36.4,13.8l-.9.6c-.1,0-.3,0-.2-.2l.3-1c0,0,0-.1,0-.2l-.9-.6c-.1,0,0-.3,0-.3h1.1c0,0,.1,0,.1-.1l.3-1c0-.1.2-.1.3,0l.3,1c0,0,0,.1.1.1h1.1c.1,0,.2.2,0,.3l-.9.6s0,.1,0,.2l.3,1c0,.1-.1.2-.2.2l-.9-.6c0,0-.1,0-.2,0Z"/>
      <path class="cls-16" d="M40.8,13.8l-.9.6c-.1,0-.3,0-.2-.2l.3-1c0,0,0-.1,0-.2l-.9-.6c-.1,0,0-.3,0-.3h1.1c0,0,.1,0,.1-.1l.3-1c0-.1.2-.1.3,0l.3,1c0,0,0,.1.1.1h1.1c.1,0,.2.2,0,.3l-.9.6s0,.1,0,.2l.3,1c0,.1-.1.2-.2.2l-.9-.6c0,0-.1,0-.2,0Z"/>
      <path class="cls-16" d="M55.4,13.7l-.9.6c-.1,0-.3,0-.2-.2l.3-1c0,0,0-.1,0-.2l-.9-.6c-.1,0,0-.3,0-.3h1.1c0,0,.1,0,.1-.1l.3-1c0-.1.2-.1.3,0l.3,1c0,0,0,.1.1.1h1.1c.1,0,.2.2,0,.3l-.9.6s0,.1,0,.2l.3,1c0,.1-.1.2-.2.2l-.9-.6c0,0-.1,0-.2,0Z"/>
      <path class="cls-16" d="M59.8,13.7l-.9.6c-.1,0-.3,0-.2-.2l.3-1c0,0,0-.1,0-.2l-.9-.6c-.1,0,0-.3,0-.3h1.1c0,0,.1,0,.1-.1l.3-1c0-.1.2-.1.3,0l.3,1c0,0,0,.1.1.1h1.1c.1,0,.2.2,0,.3l-.9.6s0,.1,0,.2l.3,1c0,.1-.1.2-.2.2l-.9-.6c0,0-.1,0-.2,0Z"/>
      <path class="cls-16" d="M64.2,13.7l-.9.6c-.1,0-.3,0-.2-.2l.3-1c0,0,0-.1,0-.2l-.9-.6c-.1,0,0-.3,0-.3h1.1c0,0,.1,0,.1-.1l.3-1c0-.1.2-.1.3,0l.3,1c0,0,0,.1.1.1h1.1c.1,0,.2.2,0,.3l-.9.6c0,0,0,.1,0,.2l.3,1c0,.1-.1.2-.2.2l-.9-.6c0,0-.1,0-.2,0Z"/>
      <g>
        <path class="cls-12" d="M35.4,96.6H9.6c-.8,0-1.5-.7-1.5-1.5s.7-1.5,1.5-1.5h25.8c.8,0,1.5.7,1.5,1.5s-.7,1.5-1.5,1.5Z"/>
        <path class="cls-12" d="M35.4,101.8H9.6c-.8,0-1.5-.7-1.5-1.5s.7-1.5,1.5-1.5h25.8c.8,0,1.5.7,1.5,1.5s-.7,1.5-1.5,1.5Z"/>
        <path class="cls-12" d="M28.2,107H9.6c-.8,0-1.5-.7-1.5-1.5s.7-1.5,1.5-1.5h18.7c.8,0,1.5.7,1.5,1.5s-.7,1.5-1.5,1.5Z"/>
      </g>
      <g>
        <path class="cls-10" d="M12.2,93.2h-3.1c-.4,0-.7.3-.7.7v3.1c0,.4.3.7.7.7h3.1c.4,0,.7-.3.7-.7v-3.1c0-.4-.3-.7-.7-.7Z"/>
        <g>
          <path class="cls-15" d="M10.6,97c-.1,0-.2-.1-.2-.2v-2.6c0-.1.1-.2.2-.2s.2.1.2.2v2.6c0,.1-.1.2-.2.2Z"/>
          <path class="cls-15" d="M12,95.7h-2.6c-.1,0-.2-.1-.2-.2s.1-.2.2-.2h2.6c.1,0,.2.1.2.2s-.1.2-.2.2Z"/>
        </g>
      </g>
      <g>
        <path class="cls-12" d="M126.7,165.3h-25.8c-.8,0-1.5-.7-1.5-1.5s.7-1.5,1.5-1.5h25.8c.8,0,1.5.7,1.5,1.5s-.7,1.5-1.5,1.5Z"/>
        <path class="cls-12" d="M126.7,170.5h-25.8c-.8,0-1.5-.7-1.5-1.5s.7-1.5,1.5-1.5h25.8c.8,0,1.5.7,1.5,1.5s-.7,1.5-1.5,1.5Z"/>
        <path class="cls-12" d="M119.6,175.6h-18.7c-.8,0-1.5-.7-1.5-1.5s.7-1.5,1.5-1.5h18.7c.8,0,1.5.7,1.5,1.5s-.7,1.5-1.5,1.5Z"/>
      </g>
      <g>
        <path class="cls-10" d="M103.5,161.8h-3.1c-.4,0-.7.3-.7.7v3.1c0,.4.3.7.7.7h3.1c.4,0,.7-.3.7-.7v-3.1c0-.4-.3-.7-.7-.7Z"/>
        <g>
          <path class="cls-15" d="M102,165.7c-.1,0-.2-.1-.2-.2v-2.6c0-.1.1-.2.2-.2s.2.1.2.2v2.6c0,.1-.1.2-.2.2Z"/>
          <path class="cls-15" d="M103.3,164.4h-2.6c-.1,0-.2-.1-.2-.2s.1-.2.2-.2h2.6c.1,0,.2.1.2.2s-.1.2-.2.2Z"/>
        </g>
      </g>
      <g>
        <path class="cls-12" d="M35.8,165.3H10c-.8,0-1.5-.7-1.5-1.5s.7-1.5,1.5-1.5h25.8c.8,0,1.5.7,1.5,1.5s-.7,1.5-1.5,1.5Z"/>
        <path class="cls-12" d="M35.8,170.5H10c-.8,0-1.5-.7-1.5-1.5s.7-1.5,1.5-1.5h25.8c.8,0,1.5.7,1.5,1.5s-.7,1.5-1.5,1.5Z"/>
        <path class="cls-12" d="M28.7,175.6H10c-.8,0-1.5-.7-1.5-1.5s.7-1.5,1.5-1.5h18.7c.8,0,1.5.7,1.5,1.5s-.7,1.5-1.5,1.5Z"/>
      </g>
      <g>
        <path class="cls-10" d="M12.7,161.8h-3.1c-.4,0-.7.3-.7.7v3.1c0,.4.3.7.7.7h3.1c.4,0,.7-.3.7-.7v-3.1c0-.4-.3-.7-.7-.7Z"/>
        <g>
          <path class="cls-15" d="M11.1,165.7c-.1,0-.2-.1-.2-.2v-2.6c0-.1.1-.2.2-.2s.2.1.2.2v2.6c0,.1-.1.2-.2.2Z"/>
          <path class="cls-15" d="M12.4,164.4h-2.6c-.1,0-.2-.1-.2-.2s.1-.2.2-.2h2.6c.1,0,.2.1.2.2s-.1.2-.2.2Z"/>
        </g>
      </g>
      <g>
        <circle class="cls-5" cx="67.9" cy="102.5" r="23"/>
        <circle class="cls-2" cx="51.3" cy="131.4" r="23"/>
        <path class="cls-15" d="M45.9,109c2.8,9.5,11.6,16.5,22,16.5s3.7-.2,5.4-.7c-2.8-9.5-11.6-16.5-22-16.5-1.9,0-3.7.2-5.4.7Z"/>
        <circle class="cls-3" cx="83.8" cy="131.4" r="23"/>
        <path class="cls-13" d="M61.8,124.7c2,.5,4,.8,6.1.8,10.4,0,19.1-6.9,22-16.3-1.9-.5-4-.8-6.1-.8-10.4,0-19.1,6.9-22,16.3Z"/>
        <path class="cls-17" d="M60.8,131.4c0,6.4,2.6,12.1,6.7,16.2,4.2-4.2,6.7-9.9,6.7-16.2s-2.6-12.1-6.7-16.2c-4.2,4.2-6.7,9.9-6.7,16.2Z"/>
        <path class="cls-7" d="M73.3,124.9c-1.1-3.7-3.1-7.1-5.8-9.7,0,0-.1,0-.2.2-.1.1-.2.2-.3.3-.1.1-.2.3-.4.4,0,.1-.2.2-.3.3-.2.3-.4.5-.7.8,0,.1-.2.2-.3.3-.1.2-.2.3-.3.5,0,.1-.2.2-.2.3-.1.2-.2.3-.3.5,0,.1-.2.2-.2.3-.1.2-.2.3-.3.5,0,0-.1.2-.2.3-.2.4-.5.8-.7,1.2,0,0,0,0,0,.1,0,.2-.2.4-.3.6,0,.1,0,.2-.2.3,0,.2-.2.4-.2.6,0,.1,0,.2-.1.3,0,.2-.2.4-.2.6,0,.1,0,.2-.1.3,0,.2-.1.4-.2.6,2,.5,4,.8,6.1.8,1.9,0,3.7-.2,5.4-.7Z"/>
        <g>
          <path class="cls-7" d="M55.6,134.3h-20c-.8,0-1.5-.7-1.5-1.5s.7-1.5,1.5-1.5h20c.8,0,1.5.7,1.5,1.5s-.7,1.5-1.5,1.5Z"/>
          <path class="cls-7" d="M47.9,139.5h-12.2c-.8,0-1.5-.7-1.5-1.5s.7-1.5,1.5-1.5h12.2c.8,0,1.5.7,1.5,1.5s-.7,1.5-1.5,1.5Z"/>
        </g>
        <g>
          <path class="cls-7" d="M78.7,100.4h-20.9c-.8,0-1.5-.7-1.5-1.5s.7-1.5,1.5-1.5h20.9c.8,0,1.5.7,1.5,1.5s-.7,1.5-1.5,1.5Z"/>
          <path class="cls-7" d="M71,105.5h-13.2c-.8,0-1.5-.7-1.5-1.5s.7-1.5,1.5-1.5h13.2c.8,0,1.5.7,1.5,1.5s-.7,1.5-1.5,1.5Z"/>
        </g>
        <path class="cls-9" d="M41.8,124.2h-1.5l-.5,1.9h1.5v.7h-1.7l-.5,2.2h-.8l.6-2.2h-1.9l-.5,2.2h-.8l.6-2.2h-1.3v-.7h1.4l.5-1.9h-1.4v-.7h1.6l.5-2.2h.8l-.5,2.2h1.9l.5-2.2h.8l-.5,2.2h1.3v.7h0ZM39.1,126.2l.5-1.9h-1.9l-.5,1.9h1.9Z"/>
        <path class="cls-16" d="M63.4,90.2h-1.5l-.5,1.9h1.5v.7h-1.7l-.5,2.2h-.8l.6-2.2h-1.9l-.5,2.2h-.8l.6-2.2h-1.3v-.7h1.4l.5-1.9h-1.4v-.7h1.6l.5-2.2h.8l-.5,2.2h1.9l.5-2.2h.8l-.5,2.2h1.3v.7h0ZM60.6,92.2l.5-1.9h-1.9l-.5,1.9h1.9Z"/>
        <g>
          <path class="cls-7" d="M99.4,134.5h-20.9c-.8,0-1.5-.7-1.5-1.5s.7-1.5,1.5-1.5h20.9c.8,0,1.5.7,1.5,1.5s-.7,1.5-1.5,1.5Z"/>
          <path class="cls-7" d="M91.7,139.7h-13.2c-.8,0-1.5-.7-1.5-1.5s.7-1.5,1.5-1.5h13.2c.8,0,1.5.7,1.5,1.5s-.7,1.5-1.5,1.5Z"/>
        </g>
      </g>
      <rect class="cls-17" x="8.2" y="112.4" width="44.5" height=".7"/>
      <rect class="cls-7" x="37.8" y="112.4" width="14.9" height=".7"/>
      <rect class="cls-17" x="67.3" y="138" width=".7" height="27" transform="translate(-.2 0) rotate(0)"/>
      <rect class="cls-7" x="67.3" y="138" width=".7" height="9.9"/>
      <rect class="cls-17" x="67.6" y="164.3" width="28.8" height=".7"/>
      <g>
        <path class="cls-12" d="M122,32.8h-25.8c-.8,0-1.5-.7-1.5-1.5s.7-1.5,1.5-1.5h25.8c.8,0,1.5.7,1.5,1.5s-.7,1.5-1.5,1.5Z"/>
        <path class="cls-12" d="M122,38h-25.8c-.8,0-1.5-.7-1.5-1.5s.7-1.5,1.5-1.5h25.8c.8,0,1.5.7,1.5,1.5s-.7,1.5-1.5,1.5Z"/>
        <path class="cls-12" d="M114.9,43.1h-18.7c-.8,0-1.5-.7-1.5-1.5s.7-1.5,1.5-1.5h18.7c.8,0,1.5.7,1.5,1.5s-.7,1.5-1.5,1.5Z"/>
      </g>
      <rect class="cls-17" x="34.9" y="51.8" width="92" height=".7"/>
      <path class="cls-8" d="M127.8,189.9H6.9c-3.8,0-6.9-3.1-6.9-6.9V7.3C0,3.5,3.1.4,6.9.4h120.9c3.8,0,6.9,3.1,6.9,6.9v175.7c0,3.8-3.1,6.9-6.9,6.9ZM6.9,1.1C3.5,1.1.6,3.9.6,7.3v175.7c0,3.4,2.8,6.2,6.3,6.2h120.9c3.4,0,6.3-2.8,6.3-6.2V7.3c0-3.4-2.8-6.2-6.3-6.2,0,0-120.9,0-120.9,0Z"/>
      <circle class="cls-1" cx="32.8" cy="40.7" r="11.8"/>
      <circle class="cls-3" cx="24.2" cy="55.5" r="11.8"/>
      <path class="cls-15" d="M21.5,44c1.4,4.9,6,8.5,11.3,8.5s1.9-.1,2.8-.3c-1.4-4.9-6-8.5-11.3-8.5s-1.9.1-2.8.3Z"/>
      <circle class="cls-4" cx="40.9" cy="55.5" r="11.8"/>
      <path class="cls-11" d="M29.6,52.1c1,.3,2.1.4,3.1.4,5.3,0,9.8-3.5,11.3-8.4-1-.3-2.1-.4-3.1-.4-5.3,0-9.8,3.5-11.3,8.4Z"/>
      <path class="cls-16" d="M29.1,55.5c0,3.3,1.3,6.2,3.5,8.3,2.1-2.1,3.5-5.1,3.5-8.3s-1.3-6.2-3.5-8.3c-2.1,2.1-3.5,5.1-3.5,8.3Z"/>
      <path class="cls-7" d="M35.6,52.2c-.6-1.9-1.6-3.6-3-5h0c0,.1-.1.2-.2.3,0,0-.1.1-.2.2,0,0,0,.1-.2.2-.1.1-.2.3-.3.4,0,0,0,.1-.1.2,0,0-.1.2-.2.2,0,0,0,.1-.1.2,0,0-.1.2-.2.2,0,0,0,.1-.1.2,0,0-.1.2-.2.3,0,0,0,0,0,.2-.1.2-.2.4-.3.6,0,0,0,0,0,0,0,0,0,.2-.1.3s0,.1,0,.2c0,0,0,.2-.1.3,0,0,0,.1,0,.2,0,0,0,.2-.1.3,0,0,0,.1,0,.2,0,.1,0,.2-.1.3,1,.3,2.1.4,3.1.4,1,0,1.9-.1,2.8-.3Z"/>
      <rect class="cls-7" x="34.9" y="51.8" width="17.5" height=".7"/>
    </g>
  </g>
</svg>