<?xml version="1.0" encoding="utf-8"?>
<!-- Generator: Adobe Illustrator 28.1.0, SVG Export Plug-In . SVG Version: 6.00 Build 0)  -->
<svg version="1.1" id="Layer_1" xmlns="http://www.w3.org/2000/svg" xmlns:xlink="http://www.w3.org/1999/xlink" x="0px" y="0px"
	 viewBox="0 0 134.74 190.23" style="enable-background:new 0 0 134.74 190.23;" xml:space="preserve">
<style type="text/css">
	.st0{fill:#205FA9;}
	.st1{fill:#ED727D;}
	.st2{fill:#F9C026;}
	.st3{fill:#F5F5F5;}
	.st4{fill:#FFFFFF;}
	.st5{fill:#F0F0F0;}
	.st6{fill:#318370;}
	.st7{fill:none;}
	.st8{fill:#F2F2F2;}
	.st9{fill:#FCEAEC;}
	.st10{fill:none;stroke:#FFFFFF;stroke-linecap:round;stroke-miterlimit:10;}
	.st11{fill:#E0EDEA;}
	.st12{fill:none;stroke:#000000;stroke-width:8;stroke-miterlimit:10;}
	.st13{fill:#FEF2D4;}
	.st14{fill:#FFFFFF;stroke:#000000;stroke-width:8;stroke-miterlimit:10;}
	.st15{fill:#2160A9;}
	.st16{fill:none;stroke:#FDF2D4;stroke-width:30;stroke-linecap:round;stroke-linejoin:round;stroke-miterlimit:10;}
	.st17{fill:#F7C027;}
	.st18{fill:#D2DFEE;}
	.st19{fill:#D6E6E2;}
	.st20{fill:#FBE3E5;}
	.st21{opacity:0.2;fill:#205FA9;}
	.st22{opacity:0.2;fill:#318370;}
	.st23{opacity:0.2;fill:#ED727D;}
	.st24{fill:#FDF1F2;}
	.st25{fill:#EDEDED;}
	.st26{opacity:0.2;fill:#F9C026;}
	.st27{opacity:0.2;fill:#828282;}
	.st28{fill:none;stroke:#FFFFFF;stroke-miterlimit:10;}
	.st29{fill-rule:evenodd;clip-rule:evenodd;fill:#205FA9;}
	.st30{fill-rule:evenodd;clip-rule:evenodd;fill:#F3A3AA;}
	.st31{fill-rule:evenodd;clip-rule:evenodd;fill:#152841;}
	.st32{fill-rule:evenodd;clip-rule:evenodd;fill:#FFFFFF;}
	.st33{fill-rule:evenodd;clip-rule:evenodd;fill:#F1959D;}
	.st34{fill:none;stroke:#034442;stroke-width:0.5;stroke-linecap:round;stroke-linejoin:round;stroke-miterlimit:10;}
	.st35{clip-path:url(#SVGID_00000137094434548086539250000007956685310851356077_);}
	.st36{fill:none;stroke:#152841;stroke-width:0.25;stroke-miterlimit:10;}
	.st37{clip-path:url(#SVGID_00000011020613271069528590000014863866165565859722_);}
	.st38{fill:none;stroke:#F9C026;stroke-width:0.25;stroke-miterlimit:10;}
	.st39{clip-path:url(#SVGID_00000149374641081010337850000012453387311511987358_);}
	.st40{fill:none;stroke:#FEF9FA;stroke-width:9;stroke-linecap:round;stroke-miterlimit:10;}
	.st41{fill:none;stroke:#D3DFEE;stroke-width:18;stroke-linecap:round;stroke-miterlimit:10;}
	.st42{fill:#D3DFEE;}
	.st43{fill:#84B885;}
	.st44{opacity:0.15;}
	.st45{fill:#5D3E29;}
	.st46{fill:#FFAB83;}
	.st47{opacity:0.16;}
	.st48{fill:#1E1E1C;}
	.st49{fill:none;stroke:#2160A9;stroke-width:26;stroke-linecap:round;stroke-miterlimit:10;}
	.st50{fill:#C1DAD4;}
	.st51{fill:#FDF2D4;}
	.st52{fill:#E9EFF6;}
</style>
<path class="st4" d="M128.65,189.53H6.24c-3.19,0-5.78-2.59-5.78-5.78V6.53c0-3.19,2.59-5.78,5.78-5.78h122.41
	c3.19,0,5.78,2.59,5.78,5.78v177.21C134.43,186.94,131.84,189.53,128.65,189.53z"/>
<g>
	<path class="st7" d="M127.83,189.94H6.91c-3.81,0-6.91-3.09-6.91-6.88V7.32c0-3.8,3.1-6.88,6.91-6.88h120.92
		c3.81,0,6.91,3.09,6.91,6.88v175.74C134.74,186.85,131.64,189.94,127.83,189.94z M6.91,1.09c-3.45,0-6.26,2.8-6.26,6.23v175.74
		c0,3.44,2.81,6.23,6.26,6.23h120.92c3.45,0,6.26-2.8,6.26-6.23V7.32c0-3.44-2.81-6.23-6.26-6.23H6.91z"/>
</g>
<g>
	<path class="st18" d="M36.46,100.96H30.1c-3.63,0-6.58-2.95-6.58-6.58v0c0-3.63,2.95-6.58,6.58-6.58h6.35
		c3.63,0,6.58,2.95,6.58,6.58v0C43.04,98.01,40.09,100.96,36.46,100.96z"/>
	<path class="st8" d="M40.09,102.43H26.47c-2.44,0-4.42-1.98-4.42-4.42v-7.26c0-2.44,1.98-4.42,4.42-4.42h13.62
		c2.44,0,4.42,1.98,4.42,4.42v7.26C44.51,100.45,42.52,102.43,40.09,102.43z M26.47,89.27c-0.82,0-1.48,0.66-1.48,1.48v7.26
		c0,0.82,0.66,1.48,1.48,1.48h13.62c0.82,0,1.48-0.66,1.48-1.48v-7.26c0-0.82-0.66-1.48-1.48-1.48H26.47z"/>
</g>
<g>
	<path class="st19" d="M70.25,100.96H63.9c-3.63,0-6.58-2.95-6.58-6.58v0c0-3.63,2.95-6.58,6.58-6.58h6.35
		c3.63,0,6.58,2.95,6.58,6.58v0C76.83,98.01,73.89,100.96,70.25,100.96z"/>
	<path class="st8" d="M73.88,102.43H60.27c-2.44,0-4.42-1.98-4.42-4.42v-7.26c0-2.44,1.98-4.42,4.42-4.42h13.62
		c2.44,0,4.42,1.98,4.42,4.42v7.26C78.3,100.45,76.32,102.43,73.88,102.43z M60.27,89.27c-0.82,0-1.48,0.66-1.48,1.48v7.26
		c0,0.82,0.66,1.48,1.48,1.48h13.62c0.82,0,1.48-0.66,1.48-1.48v-7.26c0-0.82-0.66-1.48-1.48-1.48H60.27z"/>
</g>
<g>
	<path class="st20" d="M81.18,55.26H52.97c-2.89,0-5.24-2.35-5.24-5.24V34.77c0-2.89,2.35-5.24,5.24-5.24h28.21
		c2.89,0,5.24,2.35,5.24,5.24v15.26C86.42,52.92,84.07,55.26,81.18,55.26z"/>
	<path class="st8" d="M81.27,56.73H52.88c-3.65,0-6.62-2.97-6.62-6.62V34.68c0-3.65,2.97-6.62,6.62-6.62h28.39
		c3.65,0,6.62,2.97,6.62,6.62v15.44C87.89,53.76,84.92,56.73,81.27,56.73z M52.88,31c-2.03,0-3.68,1.65-3.68,3.68v15.44
		c0,2.03,1.65,3.68,3.68,3.68h28.39c2.03,0,3.68-1.65,3.68-3.68V34.68c0-2.03-1.65-3.68-3.68-3.68H52.88z"/>
</g>
<g>
	<path class="st19" d="M104.72,100.96h-6.35c-3.63,0-6.58-2.95-6.58-6.58v0c0-3.63,2.95-6.58,6.58-6.58h6.35
		c3.63,0,6.58,2.95,6.58,6.58v0C111.3,98.01,108.35,100.96,104.72,100.96z"/>
	<path class="st8" d="M108.35,102.43H94.74c-2.44,0-4.42-1.98-4.42-4.42v-7.26c0-2.44,1.98-4.42,4.42-4.42h13.61
		c2.44,0,4.42,1.98,4.42,4.42v7.26C112.77,100.45,110.79,102.43,108.35,102.43z M94.74,89.27c-0.82,0-1.48,0.66-1.48,1.48v7.26
		c0,0.82,0.66,1.48,1.48,1.48h13.61c0.82,0,1.48-0.66,1.48-1.48v-7.26c0-0.82-0.66-1.48-1.48-1.48H94.74z"/>
</g>
<path class="st8" d="M103.32,88.25h-2.94v-14.2c0-1.65-1.35-3-3-3H38.06c-1.65,0-3,1.35-3,3v14.2h-2.94v-14.2
	c0-3.28,2.66-5.94,5.94-5.94h59.32c3.28,0,5.94,2.66,5.94,5.94V88.25z"/>
<g>
	<rect x="65.61" y="55.26" class="st8" width="2.94" height="32.99"/>
</g>
<path class="st4" d="M105.95,93.08h-8.81c-0.73,0-1.3,0.57-1.3,1.3c0,0.73,0.57,1.3,1.3,1.3h8.81c0.73,0,1.3-0.57,1.3-1.3
	C107.24,93.65,106.67,93.08,105.95,93.08z"/>
<path class="st4" d="M71.57,93.08h-8.81c-0.73,0-1.3,0.57-1.3,1.3c0,0.73,0.57,1.3,1.3,1.3h8.81c0.73,0,1.3-0.57,1.3-1.3
	C72.86,93.65,72.29,93.08,71.57,93.08z"/>
<path class="st4" d="M37.69,93.08h-8.81c-0.73,0-1.3,0.57-1.3,1.3c0,0.73,0.57,1.3,1.3,1.3h8.81c0.73,0,1.3-0.57,1.3-1.3
	C38.98,93.65,38.41,93.08,37.69,93.08z"/>
<path class="st4" d="M54.47,44h25.91c0.73,0,1.3-0.57,1.3-1.3s-0.57-1.3-1.3-1.3H54.47c-0.73,0-1.3,0.57-1.3,1.3S53.75,44,54.47,44z
	"/>
<path class="st4" d="M54.47,38.44h25.91c0.73,0,1.3-0.57,1.3-1.3s-0.57-1.3-1.3-1.3H54.47c-0.73,0-1.3,0.57-1.3,1.3
	S53.75,38.44,54.47,38.44z"/>
<path class="st4" d="M74.13,48.26c0-0.73-0.57-1.3-1.3-1.3H54.47c-0.73,0-1.3,0.57-1.3,1.3s0.57,1.3,1.3,1.3h18.36
	C73.56,49.55,74.13,48.98,74.13,48.26z"/>
<g>
	<path class="st1" d="M82.35,46.74h-3.52c-0.46,0-0.83,0.37-0.83,0.83v3.52c0,0.46,0.37,0.83,0.83,0.83h3.52
		c0.46,0,0.83-0.37,0.83-0.83v-3.52C83.17,47.11,82.8,46.74,82.35,46.74z"/>
	<g>
		<path class="st4" d="M80.5,51.1h-0.94c-0.41,0-0.74-0.33-0.74-0.74V48.3c0-0.41,0.33-0.74,0.74-0.74h2.06
			c0.41,0,0.74,0.33,0.74,0.74v0.94h-0.28V48.3c0-0.25-0.21-0.46-0.46-0.46h-2.06c-0.25,0-0.46,0.21-0.46,0.46v2.06
			c0,0.25,0.21,0.46,0.46,0.46h0.94V51.1z"/>
		<path class="st4" d="M82.15,51.52h-0.82c-0.3,0-0.54-0.24-0.54-0.54v-0.82c0-0.3,0.24-0.54,0.54-0.54h0.82
			c0.3,0,0.54,0.24,0.54,0.54v0.82C82.69,51.27,82.45,51.52,82.15,51.52z M81.33,49.89c-0.15,0-0.27,0.12-0.27,0.27v0.82
			c0,0.15,0.12,0.27,0.27,0.27h0.82c0.15,0,0.27-0.12,0.27-0.27v-0.82c0-0.15-0.12-0.27-0.27-0.27H81.33z"/>
		<path class="st4" d="M80.72,49.64c-0.04,0-0.07-0.01-0.1-0.04l-1.25-1.25c-0.05-0.05-0.05-0.14,0-0.2c0.05-0.05,0.14-0.05,0.2,0
			l1.25,1.25c0.05,0.05,0.05,0.14,0,0.2C80.79,49.63,80.76,49.64,80.72,49.64z"/>
		<path class="st4" d="M80.91,49.69h-1.04c-0.08,0-0.14-0.06-0.14-0.14c0-0.08,0.06-0.14,0.14-0.14h0.76v-0.76
			c0-0.08,0.06-0.14,0.14-0.14s0.14,0.06,0.14,0.14V49.69z"/>
	</g>
</g>
<g>
	<path class="st8" d="M45.8,113.52H21.77c-0.81,0-1.47-0.66-1.47-1.47s0.66-1.47,1.47-1.47H45.8c0.81,0,1.47,0.66,1.47,1.47
		S46.61,113.52,45.8,113.52z"/>
	<path class="st8" d="M45.8,118.66H21.77c-0.81,0-1.47-0.66-1.47-1.47c0-0.81,0.66-1.47,1.47-1.47H45.8c0.81,0,1.47,0.66,1.47,1.47
		C47.27,118,46.61,118.66,45.8,118.66z"/>
	<path class="st8" d="M37.96,123.81h-16.2c-0.81,0-1.47-0.66-1.47-1.47s0.66-1.47,1.47-1.47h16.2c0.81,0,1.47,0.66,1.47,1.47
		S38.78,123.81,37.96,123.81z"/>
</g>
<g>
	<path class="st15" d="M23.74,109.45h-3.09c-0.4,0-0.72,0.32-0.72,0.72v3.09c0,0.4,0.32,0.72,0.72,0.72h3.09
		c0.4,0,0.72-0.32,0.72-0.72v-3.09C24.47,109.78,24.14,109.45,23.74,109.45z"/>
	<path class="st4" d="M21.36,112.49c0.16,0.15,0.3,0.43,0.57,0.25l1.53-1.53c0.18-0.22-0.07-0.52-0.31-0.35l-1.38,1.37
		c-0.06,0.01-0.46-0.48-0.54-0.52c-0.14-0.06-0.32,0.02-0.34,0.18C20.85,112.08,21.23,112.37,21.36,112.49z"/>
</g>
<g>
	<path class="st8" d="M80.83,113.52H56.8c-0.81,0-1.47-0.66-1.47-1.47s0.66-1.47,1.47-1.47h24.03c0.81,0,1.47,0.66,1.47,1.47
		S81.64,113.52,80.83,113.52z"/>
	<path class="st8" d="M80.83,118.66H56.8c-0.81,0-1.47-0.66-1.47-1.47c0-0.81,0.66-1.47,1.47-1.47h24.03c0.81,0,1.47,0.66,1.47,1.47
		C82.3,118,81.64,118.66,80.83,118.66z"/>
	<path class="st8" d="M73,123.81H56.8c-0.81,0-1.47-0.66-1.47-1.47s0.66-1.47,1.47-1.47H73c0.81,0,1.47,0.66,1.47,1.47
		S73.81,123.81,73,123.81z"/>
</g>
<g>
	<path class="st15" d="M58.78,109.27h-3.09c-0.4,0-0.72,0.32-0.72,0.72v3.09c0,0.4,0.32,0.72,0.72,0.72h3.09
		c0.4,0,0.72-0.32,0.72-0.72v-3.09C59.5,109.59,59.18,109.27,58.78,109.27z"/>
	<path class="st4" d="M56.39,112.31c0.16,0.15,0.3,0.43,0.57,0.25l1.53-1.53c0.18-0.22-0.07-0.52-0.31-0.35l-1.38,1.37
		c-0.06,0.01-0.46-0.48-0.54-0.52c-0.14-0.06-0.32,0.02-0.34,0.18C55.89,111.9,56.27,112.19,56.39,112.31z"/>
</g>
<g>
	<path class="st8" d="M114.89,113.52H90.86c-0.81,0-1.47-0.66-1.47-1.47s0.66-1.47,1.47-1.47h24.03c0.81,0,1.47,0.66,1.47,1.47
		S115.7,113.52,114.89,113.52z"/>
	<path class="st8" d="M114.89,118.66H90.86c-0.81,0-1.47-0.66-1.47-1.47c0-0.81,0.66-1.47,1.47-1.47h24.03
		c0.81,0,1.47,0.66,1.47,1.47C116.36,118,115.7,118.66,114.89,118.66z"/>
	<path class="st8" d="M107.06,123.81h-16.2c-0.81,0-1.47-0.66-1.47-1.47s0.66-1.47,1.47-1.47h16.2c0.81,0,1.47,0.66,1.47,1.47
		S107.87,123.81,107.06,123.81z"/>
</g>
<g>
	<path class="st15" d="M92.84,109.27h-3.09c-0.4,0-0.72,0.32-0.72,0.72v3.09c0,0.4,0.32,0.72,0.72,0.72h3.09
		c0.4,0,0.72-0.32,0.72-0.72v-3.09C93.56,109.59,93.24,109.27,92.84,109.27z"/>
	<path class="st4" d="M90.45,112.31c0.16,0.15,0.3,0.43,0.57,0.25l1.53-1.53c0.18-0.22-0.07-0.52-0.31-0.35l-1.38,1.37
		c-0.06,0.01-0.46-0.48-0.54-0.52c-0.14-0.06-0.32,0.02-0.34,0.18C89.95,111.9,90.33,112.19,90.45,112.31z"/>
</g>
<path class="st8" d="M122.44,15.71H29.13v-2.88c0-2.03-1.64-3.67-3.67-3.67H12.4c-2.03,0-3.67,1.64-3.67,3.67v8.09v0.64v154.57
	c0,2.88,2.33,5.21,5.21,5.21h108.5c2.88,0,5.21-2.33,5.21-5.21V20.92C127.65,18.05,125.31,15.71,122.44,15.71z M124.71,176.14
	c0,1.25-1.02,2.27-2.27,2.27H13.93c-1.25,0-2.27-1.02-2.27-2.27V20.92c0-1.25,1.02-2.27,2.27-2.27h108.5c1.25,0,2.27,1.02,2.27,2.27
	V176.14z"/>
<path class="st8" d="M50.64,18.07h-2.61v-4.94c0-0.72-0.59-1.31-1.31-1.31h-13.7c-0.72,0-1.31,0.59-1.31,1.31v4.94h-2.61v-4.94
	c0-2.16,1.76-3.92,3.92-3.92h13.7c2.16,0,3.92,1.76,3.92,3.92V18.07z"/>
<rect x="31.71" y="14.38" class="st4" width="16.3" height="6.81"/>
<g>
	<path class="st8" d="M51.95,18.07v-4.94c0-1.44,1.17-2.62,2.62-2.62h13.14c1.44,0,2.62,1.17,2.62,2.62v4.94"/>
	<path class="st8" d="M71.63,18.07h-2.61v-4.94c0-0.72-0.59-1.31-1.31-1.31H54.57c-0.72,0-1.31,0.59-1.31,1.31v4.94h-2.61v-4.94
		c0-2.16,1.76-3.92,3.92-3.92h13.14c2.16,0,3.92,1.76,3.92,3.92V18.07z"/>
</g>
<g>
	<g>
		<path class="st17" d="M18.71,15.21l-0.85,0.62c-0.12,0.08-0.27-0.03-0.23-0.17l0.32-1c0.02-0.06,0-0.13-0.05-0.17l-0.85-0.62
			c-0.12-0.08-0.06-0.27,0.09-0.27h1.05c0.06,0,0.12-0.04,0.14-0.1l0.32-1c0.04-0.14,0.24-0.14,0.28,0l0.32,1
			c0.02,0.06,0.08,0.1,0.14,0.1h1.05c0.14,0,0.2,0.18,0.09,0.27l-0.85,0.62c-0.05,0.04-0.07,0.1-0.05,0.17l0.32,1
			c0.04,0.14-0.11,0.25-0.23,0.17l-0.85-0.62C18.83,15.17,18.76,15.17,18.71,15.21z"/>
	</g>
</g>
<g>
	<g>
		<path class="st0" d="M37.6,16.12l-0.85,0.62c-0.12,0.08-0.27-0.03-0.23-0.17l0.32-1c0.02-0.06,0-0.13-0.05-0.17l-0.85-0.62
			c-0.12-0.08-0.06-0.27,0.09-0.27h1.05c0.06,0,0.12-0.04,0.14-0.1l0.32-1c0.04-0.14,0.24-0.14,0.28,0l0.32,1
			c0.02,0.06,0.08,0.1,0.14,0.1h1.05c0.14,0,0.2,0.18,0.09,0.27l-0.85,0.62c-0.05,0.04-0.07,0.1-0.05,0.17l0.32,1
			c0.04,0.14-0.11,0.25-0.23,0.17l-0.85-0.62C37.72,16.08,37.65,16.08,37.6,16.12z"/>
	</g>
</g>
<g>
	<g>
		<path class="st0" d="M41.96,16.12l-0.85,0.62c-0.12,0.08-0.27-0.03-0.23-0.17l0.32-1c0.02-0.06,0-0.13-0.05-0.17l-0.85-0.62
			c-0.12-0.08-0.06-0.27,0.09-0.27h1.05c0.06,0,0.12-0.04,0.14-0.1l0.32-1c0.04-0.14,0.24-0.14,0.28,0l0.32,1
			c0.02,0.06,0.08,0.1,0.14,0.1h1.05c0.14,0,0.2,0.18,0.09,0.27l-0.85,0.62c-0.05,0.04-0.07,0.1-0.05,0.17l0.32,1
			c0.04,0.14-0.11,0.25-0.23,0.17l-0.85-0.62C42.08,16.08,42.01,16.08,41.96,16.12z"/>
	</g>
</g>
<g>
	<g>
		<path class="st17" d="M57.13,14.88l-0.85,0.62c-0.12,0.08-0.27-0.03-0.23-0.17l0.32-1c0.02-0.06,0-0.13-0.05-0.17l-0.85-0.62
			c-0.12-0.08-0.06-0.27,0.09-0.27l1.05,0c0.06,0,0.12-0.04,0.14-0.1l0.32-1c0.04-0.14,0.24-0.14,0.28,0l0.32,1
			c0.02,0.06,0.08,0.1,0.14,0.1h1.05c0.14,0,0.2,0.18,0.09,0.27l-0.85,0.62c-0.05,0.04-0.07,0.1-0.05,0.17l0.32,1
			c0.04,0.14-0.11,0.25-0.23,0.17l-0.85-0.62C57.25,14.84,57.18,14.84,57.13,14.88z"/>
	</g>
</g>
<g>
	<g>
		<path class="st17" d="M61.49,14.88l-0.85,0.62c-0.12,0.08-0.27-0.03-0.23-0.17l0.32-1c0.02-0.06,0-0.13-0.05-0.17l-0.85-0.62
			c-0.12-0.08-0.06-0.27,0.09-0.27l1.05,0c0.06,0,0.12-0.04,0.14-0.1l0.32-1c0.04-0.14,0.24-0.14,0.28,0l0.32,1
			c0.02,0.06,0.08,0.1,0.14,0.1h1.05c0.14,0,0.2,0.18,0.09,0.27l-0.85,0.62c-0.05,0.04-0.07,0.1-0.05,0.17l0.32,1
			c0.04,0.14-0.11,0.25-0.23,0.17l-0.85-0.62C61.61,14.84,61.54,14.84,61.49,14.88z"/>
	</g>
</g>
<g>
	<g>
		<path class="st17" d="M65.86,14.88l-0.85,0.62c-0.12,0.08-0.27-0.03-0.23-0.17l0.32-1c0.02-0.06,0-0.13-0.05-0.17l-0.85-0.62
			c-0.12-0.08-0.06-0.27,0.09-0.27l1.05,0c0.06,0,0.12-0.04,0.14-0.1l0.32-1c0.04-0.14,0.24-0.14,0.28,0l0.32,1
			c0.02,0.06,0.08,0.1,0.14,0.1h1.05c0.14,0,0.2,0.18,0.09,0.27l-0.85,0.62c-0.05,0.04-0.07,0.1-0.05,0.17l0.32,1
			c0.04,0.14-0.11,0.25-0.23,0.17l-0.85-0.62C65.98,14.84,65.91,14.84,65.86,14.88z"/>
	</g>
</g>
<path class="st17" d="M104.84,6.47c0.14,0.64,0.36,1.26,0.63,1.86c0.13,0.29,0.59,0.39,0.84,0.22c0.52-0.35,1.06-0.66,1.63-0.92
	c0.3-0.14,0.61-0.26,0.92-0.37c0.28-0.1,0.64-0.27,0.94-0.26c0.59,0.02,1.21,0.45,1.74,0.67c0.62,0.26,1.31,0.46,1.99,0.43
	c0.65-0.03,1.19-0.3,1.8-0.49c0.68-0.2,1.36-0.03,2.04,0.1c1.41,0.26,2.84,0.39,4.27,0.4c1.63,0.01,3.26-0.15,4.85-0.46
	c0.77-0.15,0.45-1.33-0.33-1.18c-2.8,0.55-5.74,0.58-8.54,0.05c-0.74-0.14-1.48-0.3-2.23-0.17c-0.62,0.1-1.17,0.47-1.79,0.53
	c-1.36,0.13-2.41-0.99-3.72-1.09c-0.74-0.05-1.57,0.36-2.23,0.65c-0.68,0.29-1.34,0.64-1.95,1.06c0.28,0.07,0.56,0.15,0.84,0.22
	c-0.23-0.5-0.39-1.03-0.51-1.56C105.86,5.37,104.67,5.7,104.84,6.47L104.84,6.47z"/>
<g>
	<path class="st8" d="M113.95,137.18H37.03v-2.44c0-1.72-1.39-3.11-3.11-3.11H22.85c-1.72,0-3.11,1.39-3.11,3.11v6.85v0.55v24.97
		c0,2.44,1.98,4.41,4.41,4.41h89.79c2.44,0,4.41-1.98,4.41-4.41V141.6C118.36,139.16,116.39,137.18,113.95,137.18z M115.87,167.11
		c0,1.06-0.86,1.92-1.92,1.92H24.16c-1.06,0-1.92-0.86-1.92-1.92V141.6c0-1.06,0.86-1.92,1.92-1.92h89.79
		c1.06,0,1.92,0.86,1.92,1.92V167.11z"/>
	<path class="st3" d="M109.4,147.63H32.51c-0.69,0-1.25-0.56-1.25-1.25s0.56-1.25,1.25-1.25h76.89c0.69,0,1.25,0.56,1.25,1.25
		S110.09,147.63,109.4,147.63z"/>
	<path class="st3" d="M109.4,155.56H32.51c-0.69,0-1.25-0.56-1.25-1.25c0-0.69,0.56-1.25,1.25-1.25h76.89
		c0.69,0,1.25,0.56,1.25,1.25C110.65,155,110.09,155.56,109.4,155.56z"/>
	<path class="st15" d="M28.74,146.04h-0.72l-0.23,0.93h0.72v0.36h-0.8l-0.26,1.05h-0.39l0.27-1.05h-0.9l-0.26,1.05h-0.39l0.27-1.05
		h-0.61v-0.36h0.69l0.23-0.93h-0.69v-0.34h0.77l0.26-1.04h0.39l-0.26,1.04h0.9l0.26-1.04h0.39l-0.26,1.04h0.63V146.04z M27.4,146.98
		l0.23-0.93h-0.9l-0.23,0.93H27.4z"/>
	<path class="st15" d="M28.74,153.51h-0.72l-0.23,0.93h0.72v0.36h-0.8l-0.26,1.05h-0.39l0.27-1.05h-0.9l-0.26,1.05h-0.39l0.27-1.05
		h-0.61v-0.36h0.69l0.23-0.93h-0.69v-0.34h0.77l0.26-1.04h0.39l-0.26,1.04h0.9l0.26-1.04h0.39l-0.26,1.04h0.63V153.51z M27.4,154.45
		l0.23-0.93h-0.9l-0.23,0.93H27.4z"/>
	<path class="st3" d="M109.4,163.05H32.51c-0.69,0-1.25-0.56-1.25-1.25c0-0.69,0.56-1.25,1.25-1.25h76.89
		c0.69,0,1.25,0.56,1.25,1.25C110.65,162.5,110.09,163.05,109.4,163.05z"/>
	<path class="st15" d="M28.74,161.01h-0.72l-0.23,0.93h0.72v0.36h-0.8l-0.26,1.05h-0.39l0.27-1.05h-0.9l-0.26,1.05h-0.39l0.27-1.05
		h-0.61v-0.36h0.69l0.23-0.93h-0.69v-0.34h0.77l0.26-1.04h0.39l-0.26,1.04h0.9l0.26-1.04h0.39l-0.26,1.04h0.63V161.01z M27.4,161.94
		l0.23-0.93h-0.9l-0.23,0.93H27.4z"/>
	<g>
		<g>
			<g>
				<path class="st17" d="M25.43,136.03l0.27,0.85c0.04,0.12-0.1,0.21-0.19,0.14l-0.72-0.53c-0.04-0.03-0.1-0.03-0.15,0l-0.72,0.52
					c-0.1,0.07-0.23-0.03-0.19-0.14l0.28-0.85c0.02-0.05,0-0.11-0.05-0.14l-0.72-0.53c-0.1-0.07-0.05-0.23,0.07-0.23l0.89,0
					c0.05,0,0.1-0.03,0.12-0.09l0.28-0.85c0.04-0.12,0.2-0.11,0.24,0l0.27,0.85c0.02,0.05,0.06,0.09,0.12,0.09l0.89,0
					c0.12,0,0.17,0.16,0.07,0.23l-0.72,0.52C25.43,135.92,25.41,135.97,25.43,136.03z"/>
			</g>
		</g>
		<g>
			<g>
				<path class="st17" d="M29.47,136.03l0.27,0.85c0.04,0.12-0.1,0.21-0.19,0.14l-0.72-0.53c-0.04-0.03-0.1-0.03-0.15,0l-0.72,0.52
					c-0.1,0.07-0.23-0.03-0.19-0.14l0.28-0.85c0.02-0.05,0-0.11-0.05-0.14l-0.72-0.53c-0.1-0.07-0.05-0.23,0.07-0.23l0.89,0
					c0.05,0,0.1-0.03,0.12-0.09l0.28-0.85c0.04-0.12,0.2-0.11,0.24,0l0.27,0.85c0.02,0.05,0.06,0.09,0.12,0.09l0.89,0
					c0.12,0,0.17,0.16,0.07,0.23l-0.72,0.52C29.47,135.92,29.45,135.97,29.47,136.03z"/>
			</g>
		</g>
		<g>
			<g>
				<path class="st17" d="M33.47,136.03l0.27,0.85c0.04,0.12-0.1,0.21-0.19,0.14l-0.72-0.53c-0.04-0.03-0.1-0.03-0.15,0l-0.72,0.52
					c-0.1,0.07-0.23-0.03-0.19-0.14l0.28-0.85c0.02-0.05,0-0.11-0.05-0.14l-0.72-0.53c-0.1-0.07-0.05-0.23,0.07-0.23l0.89,0
					c0.05,0,0.1-0.03,0.12-0.09l0.28-0.85c0.04-0.12,0.2-0.11,0.24,0l0.27,0.85c0.02,0.05,0.06,0.09,0.12,0.09l0.89,0
					c0.12,0,0.17,0.16,0.07,0.23l-0.72,0.52C33.47,135.92,33.45,135.97,33.47,136.03z"/>
			</g>
		</g>
	</g>
</g>
</svg>
