<?xml version="1.0" encoding="utf-8"?>
<!-- Generator: Adobe Illustrator 28.1.0, SVG Export Plug-In . SVG Version: 6.00 Build 0)  -->
<svg version="1.1" id="Layer_1" xmlns="http://www.w3.org/2000/svg" xmlns:xlink="http://www.w3.org/1999/xlink" x="0px" y="0px"
	 viewBox="0 0 134.74 190.23" style="enable-background:new 0 0 134.74 190.23;" xml:space="preserve">
<style type="text/css">
	.st0{fill:#205FA9;}
	.st1{fill:#ED727D;}
	.st2{fill:#F9C026;}
	.st3{fill:#F5F5F5;}
	.st4{fill:#FFFFFF;}
	.st5{fill:#F0F0F0;}
	.st6{fill:#318370;}
	.st7{fill:none;}
	.st8{fill:#F2F2F2;}
	.st9{fill:#FCEAEC;}
	.st10{fill:none;stroke:#FFFFFF;stroke-linecap:round;stroke-miterlimit:10;}
	.st11{fill:#E0EDEA;}
	.st12{fill:none;stroke:#000000;stroke-width:8;stroke-miterlimit:10;}
	.st13{fill:#FEF2D4;}
	.st14{fill:#FFFFFF;stroke:#000000;stroke-width:8;stroke-miterlimit:10;}
	.st15{fill:#2160A9;}
	.st16{fill:none;stroke:#FDF2D4;stroke-width:30;stroke-linecap:round;stroke-linejoin:round;stroke-miterlimit:10;}
	.st17{fill:#F7C027;}
	.st18{fill:#D2DFEE;}
	.st19{fill:#D6E6E2;}
	.st20{fill:#FBE3E5;}
	.st21{opacity:0.2;fill:#205FA9;}
	.st22{opacity:0.2;fill:#318370;}
	.st23{opacity:0.2;fill:#ED727D;}
	.st24{fill:#FDF1F2;}
	.st25{fill:#EDEDED;}
	.st26{opacity:0.2;fill:#F9C026;}
	.st27{opacity:0.2;fill:#828282;}
	.st28{fill:none;stroke:#FFFFFF;stroke-miterlimit:10;}
	.st29{fill-rule:evenodd;clip-rule:evenodd;fill:#205FA9;}
	.st30{fill-rule:evenodd;clip-rule:evenodd;fill:#F3A3AA;}
	.st31{fill-rule:evenodd;clip-rule:evenodd;fill:#152841;}
	.st32{fill-rule:evenodd;clip-rule:evenodd;fill:#FFFFFF;}
	.st33{fill-rule:evenodd;clip-rule:evenodd;fill:#F1959D;}
	.st34{fill:none;stroke:#034442;stroke-width:0.5;stroke-linecap:round;stroke-linejoin:round;stroke-miterlimit:10;}
	.st35{clip-path:url(#SVGID_00000047751474322288238980000005976544436123938234_);}
	.st36{fill:none;stroke:#152841;stroke-width:0.25;stroke-miterlimit:10;}
	.st37{clip-path:url(#SVGID_00000141450627060842815560000006996125448179724453_);}
	.st38{fill:none;stroke:#F9C026;stroke-width:0.25;stroke-miterlimit:10;}
	.st39{clip-path:url(#SVGID_00000046297591511150682400000012321194138858884253_);}
	.st40{fill:none;stroke:#FEF9FA;stroke-width:9;stroke-linecap:round;stroke-miterlimit:10;}
	.st41{fill:none;stroke:#D3DFEE;stroke-width:18;stroke-linecap:round;stroke-miterlimit:10;}
	.st42{fill:#D3DFEE;}
	.st43{fill:#84B885;}
	.st44{opacity:0.15;}
	.st45{fill:#5D3E29;}
	.st46{fill:#FFAB83;}
	.st47{opacity:0.16;}
	.st48{fill:#1E1E1C;}
	.st49{fill:none;stroke:#2160A9;stroke-width:26;stroke-linecap:round;stroke-miterlimit:10;}
	.st50{fill:#C1DAD4;}
	.st51{fill:#FDF2D4;}
	.st52{fill:#E9EFF6;}
</style>
<g>
	<g>
		<path class="st4" d="M127.47,189.68H6.91c-3.63,0-6.56-2.94-6.56-6.56V7.18c0-3.63,2.94-6.56,6.56-6.56h120.56
			c3.63,0,6.56,2.94,6.56,6.56v175.93C134.04,186.74,131.1,189.68,127.47,189.68z"/>
		<path class="st7" d="M127.47,190.01H6.91c-3.8,0-6.89-3.09-6.89-6.89V7.18c0-3.8,3.09-6.89,6.89-6.89h120.56
			c3.8,0,6.89,3.09,6.89,6.89v175.93C134.37,186.92,131.27,190.01,127.47,190.01z M6.91,0.94c-3.44,0-6.24,2.8-6.24,6.24v175.93
			c0,3.44,2.8,6.24,6.24,6.24h120.56c3.44,0,6.24-2.8,6.24-6.24V7.18c0-3.44-2.8-6.24-6.24-6.24H6.91z"/>
	</g>
	<path class="st8" d="M120.49,33.18H29.59V30.3c0-2.03-1.65-3.68-3.68-3.68H12.84c-2.03,0-3.67,1.65-3.67,3.68v8.09v0.65v29.5
		c0,2.88,2.33,5.21,5.21,5.21h106.11c2.88,0,5.21-2.33,5.21-5.21V38.4C125.7,35.52,123.37,33.18,120.49,33.18z M122.76,68.55
		c0,1.25-1.02,2.27-2.27,2.27H14.38c-1.25,0-2.27-1.02-2.27-2.27V38.4c0-1.25,1.02-2.27,2.27-2.27h106.11
		c1.25,0,2.27,1.02,2.27,2.27V68.55z"/>
	<path class="st3" d="M115.11,45.53H24.25c-0.81,0-1.47-0.66-1.47-1.47c0-0.81,0.66-1.47,1.47-1.47h90.86
		c0.81,0,1.47,0.66,1.47,1.47C116.59,44.87,115.93,45.53,115.11,45.53z"/>
	<path class="st3" d="M115.11,54.9H24.25c-0.81,0-1.47-0.66-1.47-1.47s0.66-1.47,1.47-1.47h90.86c0.81,0,1.47,0.66,1.47,1.47
		S115.93,54.9,115.11,54.9z"/>
	<path class="st15" d="M19.8,43.65h-0.85l-0.27,1.1h0.85v0.42h-0.95l-0.31,1.25H17.8l0.32-1.25h-1.07l-0.31,1.25h-0.46l0.32-1.25
		h-0.72v-0.42h0.82l0.27-1.1h-0.81v-0.4h0.91l0.3-1.23h0.46l-0.31,1.23h1.07l0.3-1.23h0.46l-0.31,1.23h0.75V43.65z M18.22,44.76
		l0.27-1.1h-1.07l-0.27,1.1H18.22z"/>
	<path class="st15" d="M19.8,52.48h-0.85l-0.27,1.1h0.85v0.42h-0.95l-0.31,1.25H17.8l0.32-1.25h-1.07l-0.31,1.25h-0.46l0.32-1.25
		h-0.72v-0.42h0.82l0.27-1.1h-0.81v-0.4h0.91l0.3-1.23h0.46l-0.31,1.23h1.07l0.3-1.23h0.46l-0.31,1.23h0.75V52.48z M18.22,53.58
		l0.27-1.1h-1.07l-0.27,1.1H18.22z"/>
	<path class="st3" d="M115.11,63.75H24.25c-0.81,0-1.47-0.66-1.47-1.47s0.66-1.47,1.47-1.47h90.86c0.81,0,1.47,0.66,1.47,1.47
		S115.93,63.75,115.11,63.75z"/>
	<path class="st15" d="M19.8,61.34h-0.85l-0.27,1.1h0.85v0.42h-0.95l-0.31,1.25H17.8l0.32-1.25h-1.07l-0.31,1.25h-0.46l0.32-1.25
		h-0.72v-0.42h0.82l0.27-1.1h-0.81v-0.4h0.91l0.3-1.23h0.46l-0.31,1.23h1.07l0.3-1.23h0.46l-0.31,1.23h0.75V61.34z M18.22,62.44
		l0.27-1.1h-1.07l-0.27,1.1H18.22z"/>
	<g>
		<g>
			<g>
				<path class="st17" d="M15.89,31.82l0.32,1c0.04,0.14-0.11,0.25-0.23,0.17l-0.85-0.62c-0.05-0.04-0.12-0.04-0.17,0l-0.85,0.61
					c-0.12,0.08-0.27-0.03-0.23-0.17l0.33-1c0.02-0.06,0-0.13-0.05-0.17l-0.85-0.62c-0.12-0.09-0.06-0.27,0.09-0.27l1.05,0
					c0.06,0,0.12-0.04,0.14-0.1l0.33-1c0.05-0.14,0.24-0.14,0.28,0l0.32,1c0.02,0.06,0.08,0.1,0.14,0.1l1.05,0
					c0.14,0,0.2,0.18,0.09,0.27l-0.85,0.61C15.89,31.69,15.87,31.75,15.89,31.82z"/>
			</g>
		</g>
		<g>
			<g>
				<path class="st17" d="M20.65,31.82l0.32,1c0.04,0.14-0.11,0.25-0.23,0.17l-0.85-0.62c-0.05-0.04-0.12-0.04-0.17,0l-0.85,0.61
					c-0.12,0.08-0.27-0.03-0.23-0.17l0.33-1c0.02-0.06,0-0.13-0.05-0.17l-0.85-0.62c-0.12-0.09-0.06-0.27,0.09-0.27l1.05,0
					c0.06,0,0.12-0.04,0.14-0.1l0.33-1c0.05-0.14,0.24-0.14,0.28,0l0.32,1c0.02,0.06,0.08,0.1,0.14,0.1l1.05,0
					c0.14,0,0.2,0.18,0.09,0.27l-0.85,0.61C20.66,31.69,20.63,31.75,20.65,31.82z"/>
			</g>
		</g>
		<g>
			<g>
				<path class="st17" d="M25.39,31.82l0.32,1c0.04,0.14-0.11,0.25-0.23,0.17l-0.85-0.62c-0.05-0.04-0.12-0.04-0.17,0l-0.85,0.61
					c-0.12,0.08-0.27-0.03-0.23-0.17l0.33-1c0.02-0.06,0-0.13-0.05-0.17l-0.85-0.62c-0.12-0.09-0.06-0.27,0.09-0.27l1.05,0
					c0.06,0,0.12-0.04,0.14-0.1l0.33-1c0.05-0.14,0.24-0.14,0.28,0l0.32,1c0.02,0.06,0.08,0.1,0.14,0.1l1.05,0
					c0.14,0,0.2,0.18,0.09,0.27l-0.85,0.61C25.39,31.69,25.37,31.75,25.39,31.82z"/>
			</g>
		</g>
	</g>
	<path class="st8" d="M120.49,87.21H29.59v-2.88c0-2.03-1.65-3.68-3.68-3.68H12.84c-2.03,0-3.67,1.65-3.67,3.68v8.09v0.65v29.5
		c0,2.88,2.33,5.21,5.21,5.21h106.11c2.88,0,5.21-2.33,5.21-5.21V92.42C125.7,89.54,123.37,87.21,120.49,87.21z M122.76,122.57
		c0,1.25-1.02,2.27-2.27,2.27H14.38c-1.25,0-2.27-1.02-2.27-2.27V92.42c0-1.25,1.02-2.27,2.27-2.27h106.11
		c1.25,0,2.27,1.02,2.27,2.27V122.57z"/>
	<path class="st3" d="M115.11,99.55H24.25c-0.81,0-1.47-0.66-1.47-1.47c0-0.81,0.66-1.47,1.47-1.47h90.86
		c0.81,0,1.47,0.66,1.47,1.47C116.59,98.89,115.93,99.55,115.11,99.55z"/>
	<path class="st3" d="M115.11,108.92H24.25c-0.81,0-1.47-0.66-1.47-1.47s0.66-1.47,1.47-1.47h90.86c0.81,0,1.47,0.66,1.47,1.47
		S115.93,108.92,115.11,108.92z"/>
	<path class="st15" d="M19.8,97.68h-0.85l-0.27,1.1h0.85v0.42h-0.95l-0.31,1.25H17.8l0.32-1.25h-1.07l-0.31,1.25h-0.46l0.32-1.25
		h-0.72v-0.42h0.82l0.27-1.1h-0.81v-0.4h0.91l0.3-1.23h0.46l-0.31,1.23h1.07l0.3-1.23h0.46l-0.31,1.23h0.75V97.68z M18.22,98.78
		l0.27-1.1h-1.07l-0.27,1.1H18.22z"/>
	<path class="st15" d="M19.8,106.5h-0.85l-0.27,1.1h0.85v0.42h-0.95l-0.31,1.25H17.8l0.32-1.25h-1.07l-0.31,1.25h-0.46l0.32-1.25
		h-0.72v-0.42h0.82l0.27-1.1h-0.81v-0.4h0.91l0.3-1.23h0.46l-0.31,1.23h1.07l0.3-1.23h0.46l-0.31,1.23h0.75V106.5z M18.22,107.61
		l0.27-1.1h-1.07l-0.27,1.1H18.22z"/>
	<path class="st3" d="M115.11,117.78H24.25c-0.81,0-1.47-0.66-1.47-1.47c0-0.81,0.66-1.47,1.47-1.47h90.86
		c0.81,0,1.47,0.66,1.47,1.47C116.59,117.12,115.93,117.78,115.11,117.78z"/>
	<path class="st15" d="M19.8,115.36h-0.85l-0.27,1.1h0.85v0.42h-0.95l-0.31,1.25H17.8l0.32-1.25h-1.07l-0.31,1.25h-0.46l0.32-1.25
		h-0.72v-0.42h0.82l0.27-1.1h-0.81v-0.4h0.91l0.3-1.23h0.46l-0.31,1.23h1.07l0.3-1.23h0.46l-0.31,1.23h0.75V115.36z M18.22,116.46
		l0.27-1.1h-1.07l-0.27,1.1H18.22z"/>
	<g>
		<g>
			<g>
				<path class="st17" d="M15.89,85.84l0.32,1c0.04,0.14-0.11,0.25-0.23,0.17l-0.85-0.62c-0.05-0.04-0.12-0.04-0.17,0L14.1,87
					c-0.12,0.08-0.27-0.03-0.23-0.17l0.33-1c0.02-0.06,0-0.13-0.05-0.17l-0.85-0.62c-0.12-0.09-0.06-0.27,0.09-0.27l1.05,0
					c0.06,0,0.12-0.04,0.14-0.1l0.33-1c0.05-0.14,0.24-0.14,0.28,0l0.32,1c0.02,0.06,0.08,0.1,0.14,0.1l1.05,0
					c0.14,0,0.2,0.18,0.09,0.27l-0.85,0.61C15.89,85.71,15.87,85.78,15.89,85.84z"/>
			</g>
		</g>
		<g>
			<g>
				<path class="st17" d="M20.65,85.84l0.32,1c0.04,0.14-0.11,0.25-0.23,0.17l-0.85-0.62c-0.05-0.04-0.12-0.04-0.17,0L18.87,87
					c-0.12,0.08-0.27-0.03-0.23-0.17l0.33-1c0.02-0.06,0-0.13-0.05-0.17l-0.85-0.62c-0.12-0.09-0.06-0.27,0.09-0.27l1.05,0
					c0.06,0,0.12-0.04,0.14-0.1l0.33-1c0.05-0.14,0.24-0.14,0.28,0l0.32,1c0.02,0.06,0.08,0.1,0.14,0.1l1.05,0
					c0.14,0,0.2,0.18,0.09,0.27l-0.85,0.61C20.66,85.71,20.63,85.78,20.65,85.84z"/>
			</g>
		</g>
		<g>
			<g>
				<path class="st17" d="M25.39,85.84l0.32,1c0.04,0.14-0.11,0.25-0.23,0.17l-0.85-0.62c-0.05-0.04-0.12-0.04-0.17,0L23.6,87
					c-0.12,0.08-0.27-0.03-0.23-0.17l0.33-1c0.02-0.06,0-0.13-0.05-0.17l-0.85-0.62c-0.12-0.09-0.06-0.27,0.09-0.27l1.05,0
					c0.06,0,0.12-0.04,0.14-0.1l0.33-1c0.05-0.14,0.24-0.14,0.28,0l0.32,1c0.02,0.06,0.08,0.1,0.14,0.1l1.05,0
					c0.14,0,0.2,0.18,0.09,0.27l-0.85,0.61C25.39,85.71,25.37,85.78,25.39,85.84z"/>
			</g>
		</g>
	</g>
	<path class="st8" d="M120.49,140.26H29.59v-2.88c0-2.03-1.65-3.68-3.68-3.68H12.84c-2.03,0-3.67,1.65-3.67,3.68v8.09v0.65v29.5
		c0,2.88,2.33,5.21,5.21,5.21h106.11c2.88,0,5.21-2.33,5.21-5.21v-30.15C125.7,142.59,123.37,140.26,120.49,140.26z M122.76,175.62
		c0,1.25-1.02,2.27-2.27,2.27H14.38c-1.25,0-2.27-1.02-2.27-2.27v-30.15c0-1.25,1.02-2.27,2.27-2.27h106.11
		c1.25,0,2.27,1.02,2.27,2.27V175.62z"/>
	<path class="st3" d="M115.11,152.61H24.25c-0.81,0-1.47-0.66-1.47-1.47c0-0.81,0.66-1.47,1.47-1.47h90.86
		c0.81,0,1.47,0.66,1.47,1.47C116.59,151.95,115.93,152.61,115.11,152.61z"/>
	<path class="st3" d="M115.11,161.97H24.25c-0.81,0-1.47-0.66-1.47-1.47c0-0.81,0.66-1.47,1.47-1.47h90.86
		c0.81,0,1.47,0.66,1.47,1.47C116.59,161.31,115.93,161.97,115.11,161.97z"/>
	<path class="st15" d="M19.8,150.73h-0.85l-0.27,1.1h0.85v0.42h-0.95l-0.31,1.25H17.8l0.32-1.25h-1.07l-0.31,1.25h-0.46l0.32-1.25
		h-0.72v-0.42h0.82l0.27-1.1h-0.81v-0.4h0.91l0.3-1.23h0.46l-0.31,1.23h1.07l0.3-1.23h0.46l-0.31,1.23h0.75V150.73z M18.22,151.83
		l0.27-1.1h-1.07l-0.27,1.1H18.22z"/>
	<path class="st15" d="M19.8,159.56h-0.85l-0.27,1.1h0.85v0.42h-0.95l-0.31,1.25H17.8l0.32-1.25h-1.07l-0.31,1.25h-0.46l0.32-1.25
		h-0.72v-0.42h0.82l0.27-1.1h-0.81v-0.4h0.91l0.3-1.23h0.46l-0.31,1.23h1.07l0.3-1.23h0.46l-0.31,1.23h0.75V159.56z M18.22,160.66
		l0.27-1.1h-1.07l-0.27,1.1H18.22z"/>
	<path class="st3" d="M115.11,170.83H24.25c-0.81,0-1.47-0.66-1.47-1.47c0-0.81,0.66-1.47,1.47-1.47h90.86
		c0.81,0,1.47,0.66,1.47,1.47C116.59,170.17,115.93,170.83,115.11,170.83z"/>
	<path class="st15" d="M19.8,168.41h-0.85l-0.27,1.1h0.85v0.42h-0.95l-0.31,1.25H17.8l0.32-1.25h-1.07l-0.31,1.25h-0.46l0.32-1.25
		h-0.72v-0.42h0.82l0.27-1.1h-0.81v-0.4h0.91l0.3-1.23h0.46l-0.31,1.23h1.07l0.3-1.23h0.46l-0.31,1.23h0.75V168.41z M18.22,169.52
		l0.27-1.1h-1.07l-0.27,1.1H18.22z"/>
	<g>
		<g>
			<g>
				<path class="st17" d="M15.89,138.89l0.32,1c0.04,0.14-0.11,0.25-0.23,0.17l-0.85-0.62c-0.05-0.04-0.12-0.04-0.17,0l-0.85,0.61
					c-0.12,0.08-0.27-0.03-0.23-0.17l0.33-1c0.02-0.06,0-0.13-0.05-0.17l-0.85-0.62c-0.12-0.09-0.06-0.27,0.09-0.27l1.05,0
					c0.06,0,0.12-0.04,0.14-0.1l0.33-1c0.05-0.14,0.24-0.14,0.28,0l0.32,1c0.02,0.06,0.08,0.1,0.14,0.1l1.05,0
					c0.14,0,0.2,0.18,0.09,0.27l-0.85,0.61C15.89,138.76,15.87,138.83,15.89,138.89z"/>
			</g>
		</g>
		<g>
			<g>
				<path class="st17" d="M20.65,138.89l0.32,1c0.04,0.14-0.11,0.25-0.23,0.17l-0.85-0.62c-0.05-0.04-0.12-0.04-0.17,0l-0.85,0.61
					c-0.12,0.08-0.27-0.03-0.23-0.17l0.33-1c0.02-0.06,0-0.13-0.05-0.17l-0.85-0.62c-0.12-0.09-0.06-0.27,0.09-0.27l1.05,0
					c0.06,0,0.12-0.04,0.14-0.1l0.33-1c0.05-0.14,0.24-0.14,0.28,0l0.32,1c0.02,0.06,0.08,0.1,0.14,0.1l1.05,0
					c0.14,0,0.2,0.18,0.09,0.27l-0.85,0.61C20.66,138.76,20.63,138.83,20.65,138.89z"/>
			</g>
		</g>
		<g>
			<g>
				<path class="st17" d="M25.39,138.89l0.32,1c0.04,0.14-0.11,0.25-0.23,0.17l-0.85-0.62c-0.05-0.04-0.12-0.04-0.17,0l-0.85,0.61
					c-0.12,0.08-0.27-0.03-0.23-0.17l0.33-1c0.02-0.06,0-0.13-0.05-0.17l-0.85-0.62c-0.12-0.09-0.06-0.27,0.09-0.27l1.05,0
					c0.06,0,0.12-0.04,0.14-0.1l0.33-1c0.05-0.14,0.24-0.14,0.28,0l0.32,1c0.02,0.06,0.08,0.1,0.14,0.1l1.05,0
					c0.14,0,0.2,0.18,0.09,0.27l-0.85,0.61C25.39,138.76,25.37,138.83,25.39,138.89z"/>
			</g>
		</g>
	</g>
	<g>
		<g>
			<path class="st15" d="M19.62,13.57c0,0.01,0,0.03,0,0.04c0.02-0.17,0.03-0.34,0.04-0.51c-0.08-0.63-0.19-1.29-0.33-1.98
				c-0.06-0.16-0.12-0.31-0.19-0.46C19.35,11.7,19.52,12.68,19.62,13.57z"/>
			<path class="st15" d="M19.49,13.87c-0.08-1.06-0.25-2.23-0.5-3.49c-0.05-0.09-0.1-0.18-0.16-0.26c0.27,1.37,0.46,2.63,0.55,3.76
				c0.02,0.23,0.03,0.45,0.04,0.66c0.03-0.1,0.06-0.21,0.09-0.31C19.5,14.11,19.5,13.99,19.49,13.87z"/>
			<path class="st15" d="M19.23,14.16c-0.05-1.25-0.23-2.67-0.51-4.22c-0.05-0.07-0.09-0.13-0.14-0.2c0.3,1.63,0.49,3.12,0.55,4.42
				c0.02,0.39,0.02,0.76,0.02,1.1c0.04-0.08,0.07-0.16,0.11-0.24C19.25,14.75,19.24,14.46,19.23,14.16z"/>
			<path class="st15" d="M18.34,9.46c0.31,1.85,0.49,3.53,0.5,4.98c0,0.53-0.02,1.02-0.06,1.47c0.04-0.06,0.08-0.13,0.12-0.2
				c0.03-0.39,0.04-0.82,0.04-1.27c-0.01-1.4-0.17-3.03-0.47-4.81C18.43,9.57,18.39,9.51,18.34,9.46z"/>
			<path class="st15" d="M18.13,9.23c0.31,2.05,0.45,3.9,0.39,5.45c-0.02,0.66-0.08,1.26-0.17,1.78c0.05-0.05,0.09-0.11,0.14-0.16
				c0.08-0.48,0.12-1.02,0.15-1.62c0.05-1.52-0.08-3.32-0.37-5.32C18.22,9.32,18.17,9.28,18.13,9.23z"/>
			<path class="st15" d="M17.93,9.04c0.28,2.23,0.38,4.22,0.25,5.87c-0.06,0.79-0.17,1.48-0.33,2.07c0.05-0.05,0.1-0.09,0.15-0.14
				c0.14-0.55,0.24-1.19,0.3-1.92c0.13-1.62,0.04-3.57-0.23-5.75C18.01,9.12,17.97,9.08,17.93,9.04z"/>
			<path class="st15" d="M17.86,8.98c-0.04-0.04-0.08-0.07-0.13-0.11c0.25,2.39,0.28,4.51,0.06,6.23c-0.12,0.92-0.3,1.69-0.54,2.31
				c0.06-0.04,0.11-0.08,0.17-0.11c0.22-0.6,0.39-1.33,0.49-2.18C18.13,13.42,18.1,11.33,17.86,8.98z"/>
			<path class="st15" d="M17.4,15.28c-0.18,1.03-0.45,1.87-0.8,2.51c0.06-0.03,0.12-0.06,0.18-0.09c0.32-0.63,0.57-1.43,0.74-2.4
				c0.31-1.76,0.35-3.97,0.17-6.47c-0.04-0.03-0.08-0.07-0.13-0.1C17.75,11.27,17.71,13.5,17.4,15.28z"/>
			<path class="st15" d="M16,17.86c-0.02,0.03-0.03,0.05-0.05,0.07c-0.03,0.04-0.06,0.08-0.09,0.13c0.07-0.02,0.13-0.04,0.19-0.06
				c0.01-0.02,0.03-0.04,0.04-0.06c0.06-0.09,0.11-0.18,0.17-0.28c0.01-0.03,0.03-0.05,0.04-0.08c0.31-0.57,0.57-1.29,0.77-2.14
				c0.42-1.8,0.55-4.11,0.43-6.76c-0.04-0.03-0.08-0.06-0.13-0.09c0.13,2.67,0,5-0.42,6.82c-0.19,0.83-0.45,1.53-0.75,2.09
				c-0.01,0.03-0.03,0.05-0.04,0.08C16.11,17.68,16.06,17.78,16,17.86z"/>
			<path class="st15" d="M15.61,17.55c-0.02,0.03-0.03,0.05-0.05,0.08c-0.06,0.09-0.13,0.18-0.19,0.26
				c-0.02,0.02-0.04,0.05-0.06,0.07c-0.07,0.08-0.14,0.16-0.21,0.23c-0.01,0.01-0.02,0.03-0.04,0.04c0.07-0.01,0.14-0.02,0.2-0.03
				c0.05-0.05,0.09-0.1,0.14-0.16c0.02-0.02,0.04-0.05,0.06-0.07c0.06-0.08,0.13-0.17,0.19-0.26c0.02-0.02,0.03-0.05,0.05-0.08
				c0.06-0.09,0.12-0.19,0.17-0.29c0.01-0.03,0.03-0.05,0.04-0.08c0.26-0.48,0.49-1.05,0.69-1.7c0.54-1.83,0.77-4.23,0.72-7
				c-0.04-0.03-0.08-0.06-0.13-0.08c0.05,2.79-0.17,5.2-0.72,7.04c-0.19,0.64-0.41,1.19-0.66,1.66c-0.01,0.03-0.03,0.05-0.04,0.08
				C15.73,17.37,15.67,17.46,15.61,17.55z"/>
			<path class="st15" d="M15.22,17.21c-0.02,0.03-0.03,0.05-0.05,0.08c-0.06,0.1-0.13,0.19-0.2,0.27c-0.02,0.02-0.04,0.05-0.06,0.07
				c-0.07,0.09-0.14,0.17-0.21,0.25c-0.02,0.02-0.04,0.05-0.07,0.07c-0.07,0.08-0.15,0.15-0.23,0.21c-0.03,0.02-0.05,0.04-0.08,0.06
				c-0.02,0.02-0.05,0.04-0.07,0.06c0.07,0,0.14,0,0.21,0c0.02-0.01,0.03-0.03,0.05-0.04c0.08-0.07,0.15-0.14,0.22-0.21
				c0.02-0.02,0.04-0.05,0.07-0.07c0.07-0.08,0.14-0.16,0.21-0.24c0.02-0.02,0.04-0.05,0.06-0.07c0.07-0.09,0.13-0.18,0.19-0.27
				c0.02-0.02,0.03-0.05,0.05-0.08c0.06-0.09,0.12-0.19,0.18-0.29c0.02-0.03,0.03-0.05,0.05-0.08c0.21-0.37,0.4-0.8,0.57-1.27
				c0.67-1.85,1.01-4.32,1.06-7.2c-0.04-0.03-0.08-0.05-0.13-0.07c-0.04,2.89-0.38,5.37-1.05,7.23c-0.17,0.45-0.35,0.86-0.55,1.23
				c-0.01,0.03-0.03,0.05-0.04,0.08C15.34,17.02,15.28,17.12,15.22,17.21z"/>
			<path class="st15" d="M14.02,17.97c0.02-0.02,0.05-0.04,0.07-0.07c0.08-0.07,0.15-0.15,0.23-0.23c0.02-0.02,0.04-0.05,0.07-0.07
				c0.07-0.08,0.15-0.16,0.22-0.25c0.02-0.02,0.04-0.05,0.06-0.07c0.07-0.09,0.14-0.18,0.2-0.28c0.02-0.03,0.03-0.05,0.05-0.08
				c0.06-0.09,0.12-0.19,0.19-0.3c0.02-0.03,0.03-0.05,0.05-0.08c0.15-0.26,0.29-0.54,0.43-0.85c0.81-1.84,1.28-4.37,1.43-7.34
				c-0.04-0.02-0.08-0.05-0.13-0.07c-0.14,2.98-0.61,5.52-1.42,7.36c-0.13,0.29-0.26,0.56-0.4,0.81c-0.02,0.03-0.03,0.05-0.05,0.08
				c-0.06,0.1-0.12,0.2-0.18,0.3c-0.02,0.03-0.03,0.05-0.05,0.08c-0.07,0.1-0.13,0.19-0.2,0.28c-0.02,0.02-0.04,0.05-0.06,0.07
				c-0.07,0.09-0.14,0.17-0.22,0.26c-0.02,0.02-0.04,0.05-0.06,0.07c-0.08,0.08-0.15,0.16-0.23,0.23c-0.02,0.02-0.05,0.04-0.07,0.07
				c-0.07,0.06-0.15,0.12-0.23,0.18c-0.03,0.03-0.07,0.05-0.11,0.07c-0.03,0.02-0.07,0.05-0.1,0.07c0.06,0.01,0.12,0.02,0.19,0.03
				c0.01,0,0.01-0.01,0.02-0.01c0.04-0.02,0.07-0.05,0.1-0.08C13.88,18.09,13.95,18.03,14.02,17.97z"/>
			<path class="st15" d="M13.6,17.6c0.02-0.02,0.05-0.04,0.07-0.07c0.08-0.07,0.16-0.15,0.24-0.24c0.02-0.02,0.04-0.05,0.07-0.07
				c0.08-0.08,0.15-0.17,0.22-0.26c0.02-0.02,0.04-0.05,0.06-0.07c0.07-0.09,0.14-0.18,0.21-0.28c0.02-0.03,0.04-0.05,0.05-0.08
				c0.06-0.09,0.13-0.19,0.19-0.29c0.02-0.03,0.03-0.05,0.05-0.08c0.08-0.14,0.17-0.28,0.25-0.44c0.97-1.83,1.57-4.4,1.84-7.45
				c-0.04-0.02-0.08-0.05-0.13-0.07c-0.26,3.06-0.87,5.63-1.83,7.45c-0.07,0.14-0.15,0.27-0.22,0.4c-0.02,0.03-0.03,0.05-0.05,0.08
				c-0.06,0.1-0.13,0.2-0.19,0.3c-0.02,0.03-0.04,0.05-0.05,0.08c-0.07,0.1-0.14,0.19-0.21,0.28c-0.02,0.02-0.04,0.05-0.06,0.07
				c-0.07,0.09-0.15,0.18-0.22,0.26c-0.02,0.02-0.04,0.05-0.07,0.07c-0.08,0.08-0.16,0.16-0.24,0.24c-0.02,0.02-0.05,0.05-0.07,0.07
				c-0.08,0.07-0.16,0.13-0.24,0.19c-0.03,0.03-0.07,0.05-0.1,0.08c-0.08,0.06-0.16,0.11-0.25,0.16c-0.04,0.02-0.08,0.05-0.12,0.07
				c-0.02,0.01-0.03,0.02-0.05,0.03c0.06,0.02,0.11,0.03,0.17,0.05c0.03-0.02,0.07-0.04,0.1-0.06c0.08-0.05,0.16-0.1,0.24-0.16
				c0.03-0.02,0.07-0.05,0.1-0.08C13.45,17.73,13.53,17.67,13.6,17.6z"/>
			<path class="st15" d="M12.84,17.47c0.03-0.02,0.07-0.05,0.1-0.08c0.08-0.06,0.16-0.13,0.24-0.2c0.02-0.02,0.05-0.04,0.07-0.07
				c0.08-0.08,0.16-0.16,0.25-0.24c0.02-0.02,0.04-0.05,0.07-0.07c0.08-0.08,0.15-0.17,0.23-0.26c0.02-0.02,0.04-0.05,0.06-0.07
				c0.07-0.09,0.14-0.18,0.21-0.28c0.02-0.03,0.04-0.05,0.06-0.08c0.07-0.09,0.13-0.19,0.2-0.29c0.02-0.03,0.03-0.05,0.05-0.08
				c0.01-0.01,0.02-0.03,0.03-0.04c1.13-1.79,1.89-4.39,2.28-7.51c-0.04-0.02-0.09-0.04-0.13-0.06c-0.4,3.11-1.15,5.71-2.27,7.5
				c0,0,0,0.01-0.01,0.01c-0.02,0.03-0.03,0.05-0.05,0.08c-0.06,0.1-0.13,0.2-0.2,0.29c-0.02,0.03-0.04,0.05-0.06,0.08
				c-0.07,0.1-0.14,0.19-0.21,0.28c-0.02,0.02-0.04,0.05-0.06,0.07c-0.08,0.09-0.15,0.18-0.23,0.26c-0.02,0.02-0.04,0.05-0.07,0.07
				c-0.08,0.09-0.16,0.17-0.25,0.24c-0.02,0.02-0.05,0.04-0.07,0.07c-0.08,0.07-0.16,0.14-0.24,0.2c-0.03,0.03-0.07,0.05-0.1,0.08
				c-0.08,0.06-0.17,0.12-0.26,0.17c-0.04,0.02-0.08,0.05-0.11,0.07c-0.09,0.05-0.18,0.1-0.26,0.14c-0.01,0-0.02,0.01-0.03,0.01
				c0.05,0.02,0.1,0.05,0.15,0.07c0.08-0.04,0.16-0.08,0.24-0.13c0.04-0.02,0.08-0.05,0.12-0.07
				C12.67,17.59,12.76,17.53,12.84,17.47z"/>
			<path class="st15" d="M12.03,17.29c0.04-0.02,0.08-0.05,0.11-0.07c0.09-0.06,0.18-0.12,0.26-0.18c0.03-0.02,0.07-0.05,0.1-0.08
				c0.08-0.07,0.17-0.13,0.25-0.21c0.02-0.02,0.05-0.04,0.07-0.07c0.09-0.08,0.17-0.16,0.25-0.24c0.02-0.02,0.05-0.05,0.07-0.07
				c0.08-0.08,0.16-0.17,0.24-0.26c0.02-0.02,0.04-0.05,0.06-0.07c0.07-0.09,0.15-0.18,0.22-0.27c0.02-0.03,0.04-0.05,0.06-0.08
				c0.01-0.01,0.02-0.03,0.03-0.04c0.06-0.08,0.12-0.16,0.18-0.24c0.02-0.03,0.04-0.05,0.05-0.08c1.18-1.74,2.03-4.22,2.54-7.2
				c-0.04-0.02-0.09-0.04-0.13-0.06c-0.51,2.95-1.34,5.42-2.51,7.15c-0.02,0.03-0.04,0.05-0.05,0.08c-0.06,0.09-0.13,0.18-0.19,0.27
				c0,0.01-0.01,0.01-0.01,0.02c-0.02,0.03-0.04,0.05-0.06,0.08c-0.07,0.1-0.15,0.19-0.22,0.28c-0.02,0.02-0.04,0.05-0.06,0.07
				c-0.08,0.09-0.16,0.18-0.24,0.26c-0.02,0.02-0.05,0.05-0.07,0.07c-0.08,0.09-0.17,0.17-0.25,0.25c-0.02,0.02-0.05,0.05-0.07,0.07
				c-0.08,0.07-0.17,0.14-0.25,0.21c-0.03,0.03-0.07,0.05-0.1,0.08c-0.09,0.07-0.18,0.13-0.26,0.18c-0.04,0.02-0.07,0.05-0.11,0.07
				c-0.09,0.06-0.18,0.11-0.28,0.15c-0.04,0.02-0.09,0.04-0.13,0.06c-0.02,0.01-0.04,0.02-0.06,0.03c0.04,0.03,0.09,0.06,0.14,0.08
				c0.01,0,0.02-0.01,0.03-0.01c0.04-0.02,0.09-0.04,0.13-0.06C11.85,17.39,11.94,17.34,12.03,17.29z"/>
			<path class="st15" d="M11.6,16.83c0.04-0.02,0.07-0.05,0.11-0.07c0.09-0.06,0.18-0.12,0.27-0.19c0.03-0.02,0.07-0.05,0.1-0.07
				c0.09-0.07,0.17-0.14,0.26-0.21c0.03-0.02,0.05-0.04,0.08-0.07c0.09-0.08,0.18-0.16,0.26-0.24c0.02-0.02,0.05-0.05,0.07-0.07
				c0.08-0.08,0.16-0.17,0.25-0.26c0.02-0.02,0.04-0.05,0.06-0.07c0.01-0.01,0.02-0.02,0.03-0.04c0.07-0.08,0.13-0.15,0.2-0.23
				c0.02-0.02,0.04-0.05,0.06-0.07c0.07-0.09,0.14-0.18,0.21-0.28c0.02-0.03,0.04-0.05,0.06-0.08c1.22-1.67,2.14-4.02,2.76-6.83
				C16.34,8.04,16.29,8.02,16.25,8c-0.61,2.78-1.52,5.11-2.73,6.77c-0.02,0.03-0.04,0.05-0.06,0.08c-0.07,0.09-0.14,0.19-0.21,0.28
				c-0.02,0.03-0.04,0.05-0.06,0.08c-0.07,0.09-0.14,0.17-0.21,0.25c-0.01,0.01-0.01,0.01-0.02,0.02c-0.02,0.02-0.04,0.05-0.07,0.07
				c-0.08,0.09-0.16,0.17-0.24,0.26c-0.02,0.02-0.05,0.05-0.07,0.07c-0.09,0.08-0.17,0.17-0.26,0.24c-0.03,0.02-0.05,0.04-0.08,0.07
				c-0.09,0.07-0.17,0.15-0.26,0.21c-0.03,0.03-0.07,0.05-0.1,0.08c-0.09,0.07-0.18,0.13-0.27,0.19c-0.04,0.02-0.07,0.05-0.11,0.07
				c-0.09,0.06-0.19,0.11-0.29,0.16c-0.04,0.02-0.08,0.04-0.13,0.06c-0.06,0.03-0.11,0.05-0.17,0.08c0.04,0.03,0.08,0.06,0.12,0.1
				c0.05-0.02,0.1-0.05,0.15-0.07c0.04-0.02,0.08-0.04,0.13-0.06C11.41,16.94,11.5,16.89,11.6,16.83z"/>
			<path class="st15" d="M11.16,16.34c0.04-0.02,0.07-0.05,0.11-0.07c0.1-0.06,0.19-0.12,0.28-0.19c0.03-0.02,0.07-0.05,0.1-0.07
				c0.09-0.07,0.18-0.14,0.27-0.21c0.03-0.02,0.05-0.04,0.08-0.06c0.09-0.08,0.18-0.15,0.27-0.24c0.02-0.02,0.05-0.05,0.07-0.07
				c0.01-0.01,0.02-0.02,0.03-0.03c0.07-0.07,0.15-0.14,0.22-0.22c0.02-0.02,0.05-0.05,0.07-0.07c0.08-0.08,0.16-0.17,0.24-0.26
				c0.02-0.02,0.04-0.05,0.06-0.07c0.07-0.09,0.15-0.17,0.22-0.26c0.02-0.02,0.04-0.05,0.06-0.07c1.26-1.59,2.26-3.81,2.98-6.45
				c-0.05-0.02-0.09-0.03-0.14-0.05c-0.71,2.61-1.7,4.8-2.94,6.37c-0.02,0.03-0.04,0.05-0.06,0.08c-0.07,0.09-0.15,0.18-0.22,0.26
				c-0.02,0.02-0.04,0.05-0.06,0.07c-0.08,0.09-0.16,0.17-0.24,0.26c-0.02,0.02-0.05,0.05-0.07,0.07c-0.08,0.08-0.15,0.15-0.23,0.23
				c-0.01,0.01-0.02,0.01-0.02,0.02c-0.02,0.02-0.05,0.05-0.07,0.07c-0.09,0.08-0.18,0.16-0.27,0.24c-0.03,0.02-0.05,0.04-0.08,0.07
				c-0.09,0.07-0.18,0.14-0.27,0.21c-0.03,0.02-0.07,0.05-0.1,0.07c-0.09,0.07-0.19,0.13-0.28,0.19c-0.04,0.02-0.07,0.05-0.11,0.07
				c-0.1,0.06-0.2,0.12-0.3,0.17c-0.04,0.02-0.08,0.04-0.12,0.06c-0.07,0.03-0.14,0.07-0.21,0.1c0.03,0.04,0.07,0.07,0.1,0.11
				c0.07-0.03,0.14-0.06,0.21-0.1c0.04-0.02,0.08-0.04,0.12-0.06C10.97,16.46,11.06,16.4,11.16,16.34z"/>
			<path class="st15" d="M10.73,15.83c0.04-0.02,0.07-0.04,0.11-0.07c0.1-0.06,0.2-0.12,0.29-0.19c0.03-0.02,0.07-0.05,0.1-0.07
				c0.09-0.07,0.19-0.13,0.28-0.21c0.03-0.02,0.05-0.04,0.08-0.06c0.01-0.01,0.02-0.02,0.03-0.02c0.08-0.07,0.16-0.13,0.25-0.2
				c0.03-0.02,0.05-0.04,0.08-0.07c0.09-0.08,0.17-0.16,0.26-0.24c0.02-0.02,0.05-0.05,0.07-0.07c0.08-0.08,0.16-0.16,0.24-0.25
				c0.02-0.02,0.05-0.05,0.07-0.07c0.08-0.08,0.15-0.17,0.23-0.25c0.02-0.02,0.04-0.05,0.06-0.07c1.3-1.51,2.37-3.58,3.19-6.05
				c-0.05-0.02-0.09-0.03-0.14-0.05c-0.81,2.44-1.86,4.48-3.15,5.97c-0.02,0.02-0.04,0.05-0.06,0.07c-0.08,0.09-0.15,0.17-0.23,0.25
				c-0.02,0.02-0.04,0.05-0.07,0.07c-0.08,0.08-0.16,0.17-0.24,0.25c-0.02,0.02-0.05,0.05-0.07,0.07c-0.09,0.08-0.17,0.16-0.26,0.24
				c-0.03,0.02-0.05,0.04-0.08,0.07c-0.08,0.07-0.16,0.14-0.25,0.21c-0.01,0.01-0.02,0.02-0.03,0.02c-0.03,0.02-0.05,0.04-0.08,0.06
				c-0.09,0.07-0.19,0.14-0.28,0.21c-0.03,0.02-0.07,0.05-0.1,0.07c-0.1,0.07-0.2,0.13-0.29,0.19c-0.04,0.02-0.07,0.04-0.11,0.07
				c-0.1,0.06-0.2,0.12-0.31,0.17c-0.04,0.02-0.08,0.04-0.12,0.06c-0.07,0.03-0.13,0.06-0.2,0.09c0.03,0.04,0.06,0.08,0.09,0.12
				c0.07-0.03,0.14-0.06,0.2-0.1c0.04-0.02,0.08-0.04,0.12-0.06C10.53,15.95,10.63,15.89,10.73,15.83z"/>
			<path class="st15" d="M10.31,15.3c0.04-0.02,0.07-0.04,0.11-0.06c0.1-0.06,0.2-0.12,0.3-0.19c0.03-0.02,0.07-0.04,0.1-0.07
				c0.01,0,0.01-0.01,0.02-0.01c0.09-0.06,0.18-0.12,0.27-0.19c0.03-0.02,0.06-0.04,0.08-0.06c0.1-0.07,0.19-0.14,0.29-0.22
				c0.03-0.02,0.05-0.04,0.08-0.06c0.09-0.07,0.18-0.15,0.27-0.23c0.02-0.02,0.05-0.04,0.07-0.07c0.08-0.08,0.17-0.15,0.25-0.23
				c0.02-0.02,0.05-0.05,0.07-0.07c0.08-0.08,0.16-0.16,0.24-0.24c0.02-0.02,0.04-0.05,0.07-0.07c1.34-1.42,2.48-3.34,3.39-5.64
				c-0.05-0.02-0.1-0.03-0.15-0.04c-0.9,2.26-2.02,4.16-3.34,5.56c-0.02,0.02-0.04,0.05-0.07,0.07c-0.08,0.08-0.16,0.16-0.24,0.24
				c-0.02,0.02-0.05,0.05-0.07,0.07c-0.08,0.08-0.17,0.16-0.25,0.23c-0.02,0.02-0.05,0.04-0.07,0.07c-0.09,0.08-0.18,0.15-0.27,0.23
				c-0.03,0.02-0.05,0.04-0.08,0.06c-0.09,0.08-0.19,0.15-0.29,0.22c-0.03,0.02-0.06,0.04-0.08,0.06c-0.09,0.06-0.17,0.12-0.26,0.18
				c-0.01,0.01-0.02,0.01-0.03,0.02c-0.03,0.02-0.07,0.04-0.1,0.07c-0.1,0.06-0.2,0.13-0.31,0.19c-0.04,0.02-0.07,0.04-0.11,0.06
				c-0.11,0.06-0.21,0.11-0.32,0.17c-0.04,0.02-0.08,0.04-0.12,0.06c-0.04,0.02-0.08,0.04-0.12,0.05c0.02,0.05,0.05,0.09,0.08,0.14
				c0.05-0.02,0.09-0.04,0.14-0.07c0.04-0.02,0.08-0.04,0.12-0.06C10.1,15.41,10.2,15.36,10.31,15.3z"/>
			<path class="st15" d="M9.89,14.75c0.04-0.02,0.08-0.04,0.11-0.06c0.01,0,0.01-0.01,0.02-0.01c0.1-0.05,0.2-0.11,0.3-0.17
				c0.03-0.02,0.07-0.04,0.1-0.06c0.1-0.06,0.2-0.13,0.3-0.19c0.03-0.02,0.06-0.04,0.09-0.06c0.1-0.07,0.2-0.14,0.29-0.21
				c0.03-0.02,0.05-0.04,0.08-0.06c0.09-0.07,0.18-0.14,0.28-0.22c0.03-0.02,0.05-0.04,0.08-0.06c0.09-0.07,0.17-0.14,0.26-0.22
				c0.02-0.02,0.05-0.04,0.07-0.07c0.08-0.07,0.16-0.15,0.24-0.22c0.02-0.02,0.05-0.04,0.07-0.07c1.38-1.32,2.59-3.1,3.58-5.23
				c-0.05-0.01-0.1-0.03-0.15-0.04c-0.98,2.09-2.17,3.84-3.53,5.14c-0.02,0.02-0.05,0.04-0.07,0.07c-0.08,0.08-0.16,0.15-0.24,0.22
				c-0.02,0.02-0.05,0.04-0.07,0.07c-0.09,0.08-0.17,0.15-0.26,0.22c-0.03,0.02-0.05,0.04-0.08,0.06c-0.09,0.07-0.18,0.15-0.28,0.22
				c-0.03,0.02-0.05,0.04-0.08,0.06c-0.1,0.07-0.2,0.14-0.29,0.21c-0.03,0.02-0.06,0.04-0.09,0.06c-0.1,0.07-0.2,0.13-0.3,0.19
				c-0.03,0.02-0.07,0.04-0.1,0.06c-0.09,0.06-0.19,0.11-0.28,0.16c-0.01,0.01-0.02,0.01-0.04,0.02c-0.04,0.02-0.07,0.04-0.11,0.06
				c-0.11,0.06-0.22,0.11-0.33,0.16c-0.03,0.01-0.06,0.03-0.09,0.04c0.02,0.05,0.04,0.1,0.06,0.15c0,0,0.01,0,0.01-0.01
				c0.04-0.02,0.08-0.04,0.12-0.06C9.67,14.86,9.78,14.81,9.89,14.75z"/>
			<path class="st15" d="M9.92,13.96c0.03-0.02,0.07-0.04,0.1-0.06c0.1-0.06,0.21-0.12,0.31-0.18c0.03-0.02,0.06-0.04,0.09-0.05
				c0.1-0.06,0.2-0.13,0.3-0.2c0.03-0.02,0.06-0.04,0.08-0.06c0.1-0.07,0.19-0.13,0.28-0.2c0.03-0.02,0.05-0.04,0.08-0.06
				c0.09-0.07,0.18-0.13,0.27-0.2c0.03-0.02,0.05-0.04,0.08-0.06c0.08-0.07,0.17-0.14,0.25-0.21c0.02-0.02,0.05-0.04,0.07-0.06
				c1.42-1.22,2.68-2.86,3.76-4.81c-0.05-0.01-0.11-0.03-0.16-0.04c0,0.01-0.01,0.01-0.01,0.02c-1.06,1.91-2.3,3.5-3.69,4.7
				c-0.02,0.02-0.05,0.04-0.07,0.06c-0.08,0.07-0.17,0.14-0.25,0.21c-0.03,0.02-0.05,0.04-0.08,0.06c-0.09,0.07-0.18,0.14-0.27,0.2
				c-0.03,0.02-0.05,0.04-0.08,0.06c-0.09,0.07-0.19,0.14-0.28,0.2c-0.03,0.02-0.06,0.04-0.09,0.06c-0.1,0.07-0.2,0.13-0.3,0.19
				c-0.03,0.02-0.06,0.04-0.09,0.05c-0.1,0.06-0.21,0.12-0.31,0.18c-0.03,0.02-0.07,0.04-0.1,0.06C9.72,13.88,9.61,13.94,9.5,14
				c-0.04,0.02-0.07,0.04-0.11,0.05c-0.07,0.04-0.15,0.07-0.22,0.1c0.01,0.06,0.03,0.11,0.04,0.17c0.09-0.04,0.19-0.08,0.28-0.13
				c0.04-0.02,0.08-0.04,0.11-0.06C9.71,14.08,9.82,14.02,9.92,13.96z"/>
			<path class="st15" d="M9.54,13.41c0.04-0.02,0.07-0.04,0.11-0.05c0.11-0.05,0.21-0.11,0.32-0.17c0.03-0.02,0.06-0.03,0.09-0.05
				c0.1-0.06,0.21-0.12,0.31-0.18c0.03-0.02,0.06-0.04,0.09-0.05c0.1-0.06,0.2-0.12,0.29-0.18c0.03-0.02,0.06-0.04,0.08-0.06
				c0.09-0.06,0.18-0.12,0.27-0.19c0.03-0.02,0.05-0.04,0.08-0.06c0.09-0.06,0.17-0.13,0.26-0.19c0.03-0.02,0.05-0.04,0.08-0.06
				c1.45-1.11,2.77-2.6,3.92-4.38c0-0.01,0.01-0.01,0.01-0.02c0,0,0,0,0,0c-0.05-0.01-0.11-0.02-0.16-0.03
				c-0.02,0.03-0.05,0.06-0.07,0.09c-1.12,1.7-2.39,3.13-3.79,4.2c-0.03,0.02-0.05,0.04-0.08,0.06c-0.09,0.06-0.17,0.13-0.26,0.19
				c-0.03,0.02-0.05,0.04-0.08,0.06c-0.09,0.06-0.18,0.13-0.27,0.19c-0.03,0.02-0.06,0.04-0.08,0.06c-0.1,0.06-0.19,0.12-0.29,0.18
				c-0.03,0.02-0.06,0.04-0.09,0.05c-0.1,0.06-0.21,0.12-0.31,0.18c-0.03,0.02-0.06,0.03-0.09,0.05c-0.11,0.06-0.21,0.11-0.32,0.17
				c-0.04,0.02-0.07,0.03-0.11,0.05c-0.11,0.05-0.22,0.11-0.34,0.16c-0.02,0.01-0.03,0.01-0.05,0.02c0.01,0.06,0.01,0.12,0.02,0.18
				c0,0,0.01,0,0.01-0.01c0.04-0.02,0.08-0.03,0.11-0.05C9.31,13.52,9.43,13.46,9.54,13.41z"/>
			<path class="st15" d="M9.6,12.65c0.03-0.02,0.06-0.03,0.1-0.05c0.11-0.05,0.21-0.11,0.32-0.16c0.03-0.02,0.06-0.03,0.09-0.05
				c0.1-0.05,0.2-0.11,0.3-0.17c0.03-0.02,0.06-0.03,0.09-0.05c0.09-0.06,0.19-0.11,0.28-0.17c0.03-0.02,0.06-0.04,0.08-0.05
				c0.09-0.06,0.18-0.11,0.27-0.17c0.03-0.02,0.05-0.04,0.08-0.05c1.46-0.99,2.81-2.31,4.01-3.89c0.02-0.03,0.05-0.06,0.07-0.09
				c-0.06-0.01-0.12-0.02-0.17-0.03c-0.05,0.05-0.09,0.1-0.14,0.15c-1.17,1.5-2.47,2.76-3.87,3.71c-0.03,0.02-0.05,0.04-0.08,0.05
				c-0.09,0.06-0.18,0.12-0.26,0.17c-0.03,0.02-0.06,0.04-0.08,0.05c-0.09,0.06-0.19,0.12-0.28,0.17c-0.03,0.02-0.06,0.03-0.09,0.05
				c-0.1,0.06-0.2,0.11-0.3,0.17c-0.03,0.02-0.06,0.03-0.09,0.05c-0.1,0.06-0.21,0.11-0.32,0.16c-0.03,0.02-0.06,0.03-0.1,0.05
				c-0.11,0.05-0.22,0.1-0.33,0.15c-0.04,0.02-0.07,0.03-0.11,0.05c-0.01,0-0.02,0.01-0.02,0.01c0,0.06-0.01,0.13-0.01,0.19
				c0.04-0.02,0.09-0.04,0.13-0.06c0.04-0.02,0.07-0.03,0.11-0.05C9.38,12.75,9.49,12.7,9.6,12.65z"/>
			<path class="st15" d="M9.67,11.92c0.03-0.01,0.06-0.03,0.09-0.05c0.1-0.05,0.2-0.1,0.31-0.15c0.03-0.02,0.06-0.03,0.09-0.05
				c0.1-0.05,0.19-0.1,0.29-0.15c0.03-0.02,0.06-0.03,0.09-0.05c0.09-0.05,0.18-0.1,0.27-0.16c0.03-0.02,0.06-0.03,0.08-0.05
				c1.46-0.87,2.83-2.02,4.08-3.41c0.05-0.05,0.09-0.1,0.14-0.15c-0.06-0.01-0.12-0.02-0.18-0.02c-0.07,0.07-0.14,0.14-0.22,0.21
				c-1.2,1.31-2.52,2.4-3.92,3.23c-0.03,0.02-0.06,0.03-0.08,0.05c-0.09,0.05-0.18,0.1-0.27,0.16c-0.03,0.02-0.06,0.03-0.09,0.05
				c-0.1,0.05-0.19,0.1-0.29,0.15c-0.03,0.02-0.06,0.03-0.09,0.05c-0.1,0.05-0.2,0.1-0.31,0.15c-0.03,0.02-0.06,0.03-0.09,0.05
				c-0.11,0.05-0.21,0.1-0.32,0.15c-0.03,0.01-0.07,0.03-0.1,0.04c0,0-0.01,0-0.01,0.01c-0.01,0.07-0.03,0.14-0.04,0.21
				c0.05-0.02,0.1-0.04,0.15-0.06c0.03-0.01,0.07-0.03,0.1-0.04C9.45,12.02,9.56,11.97,9.67,11.92z"/>
			<path class="st15" d="M9.74,11.24c0.03-0.01,0.06-0.03,0.09-0.04c0.1-0.04,0.2-0.09,0.29-0.14c0.03-0.01,0.06-0.03,0.09-0.04
				c0.09-0.05,0.19-0.09,0.28-0.14c0.03-0.01,0.06-0.03,0.09-0.04c1.46-0.75,2.84-1.74,4.12-2.94c0.07-0.07,0.15-0.14,0.22-0.21
				c-0.07-0.01-0.13-0.01-0.2-0.02c-0.1,0.08-0.2,0.16-0.31,0.24c-1.22,1.12-2.54,2.06-3.93,2.77c-0.03,0.01-0.06,0.03-0.09,0.04
				c-0.09,0.05-0.19,0.09-0.28,0.14c-0.03,0.01-0.06,0.03-0.09,0.04c-0.1,0.05-0.2,0.09-0.29,0.14c-0.03,0.01-0.06,0.03-0.09,0.04
				c-0.1,0.04-0.21,0.09-0.31,0.13c-0.03,0.08-0.05,0.15-0.07,0.23c0.02-0.01,0.05-0.02,0.07-0.03c0.03-0.01,0.07-0.03,0.1-0.04
				C9.53,11.33,9.64,11.28,9.74,11.24z"/>
			<path class="st15" d="M10.21,10.44c0.03-0.01,0.06-0.03,0.09-0.04c1.44-0.63,2.82-1.47,4.12-2.49c0.1-0.08,0.2-0.16,0.31-0.24
				c-0.08-0.01-0.15-0.01-0.23-0.01c-0.13,0.09-0.26,0.18-0.4,0.27c-1.23,0.94-2.54,1.73-3.9,2.32c-0.03,0.01-0.06,0.03-0.09,0.04
				c-0.09,0.04-0.19,0.08-0.28,0.12c-0.03,0.01-0.06,0.03-0.09,0.04c-0.02,0.01-0.04,0.02-0.06,0.02c-0.04,0.08-0.09,0.17-0.13,0.25
				c0.1-0.04,0.2-0.08,0.29-0.12c0.03-0.01,0.06-0.03,0.09-0.04C10.02,10.52,10.11,10.48,10.21,10.44z"/>
			<path class="st15" d="M14.09,7.92c0.13-0.09,0.27-0.18,0.4-0.27c-0.09,0-0.18,0-0.27,0c-0.16,0.09-0.32,0.18-0.48,0.26
				c-1.15,0.73-2.36,1.34-3.61,1.81c-0.07,0.09-0.14,0.19-0.2,0.28C9.96,10,9.99,9.99,10.02,9.98C11.44,9.46,12.8,8.77,14.09,7.92z"
				/>
			<path class="st15" d="M13.86,7.67c-0.17,0.08-0.33,0.15-0.5,0.22c-0.83,0.43-1.68,0.8-2.55,1.11c-0.12,0.1-0.23,0.21-0.34,0.33
				c1.12-0.38,2.22-0.85,3.27-1.42c0.16-0.09,0.32-0.17,0.48-0.26C14.1,7.66,13.98,7.66,13.86,7.67z"/>
			<path class="st15" d="M13,7.83c-0.02,0.01-0.04,0.01-0.07,0.02c-0.32,0.13-0.64,0.25-0.97,0.37c-0.27,0.14-0.53,0.3-0.78,0.48
				c0.73-0.23,1.46-0.5,2.17-0.8c0.17-0.07,0.34-0.15,0.5-0.22C13.57,7.7,13.28,7.75,13,7.83z"/>
		</g>
		<path class="st15" d="M12.48,7.99c0.15-0.05,0.3-0.09,0.45-0.14c0.02-0.01,0.04-0.01,0.07-0.02C12.82,7.87,12.65,7.93,12.48,7.99z
			"/>
	</g>
	<g>
		<path class="st8" d="M50.77,10.51H22.74c-0.54,0-0.98-0.44-0.98-0.98c0-0.54,0.44-0.98,0.98-0.98h28.04
			c0.54,0,0.98,0.44,0.98,0.98C51.76,10.07,51.32,10.51,50.77,10.51z"/>
		<path class="st8" d="M50.77,14.14H22.74c-0.54,0-0.98-0.44-0.98-0.98c0-0.54,0.44-0.98,0.98-0.98h28.04
			c0.54,0,0.98,0.44,0.98,0.98C51.76,13.7,51.32,14.14,50.77,14.14z"/>
		<path class="st8" d="M40.02,17.77H22.74c-0.54,0-0.98-0.44-0.98-0.98c0-0.54,0.44-0.98,0.98-0.98h17.28
			c0.54,0,0.98,0.44,0.98,0.98C41,17.33,40.56,17.77,40.02,17.77z"/>
	</g>
</g>
</svg>
