<?xml version="1.0" encoding="UTF-8"?>
<svg id="Layer_1" xmlns="http://www.w3.org/2000/svg" version="1.1" viewBox="0 0 134.74 190.23">
  <!-- Generator: Adobe Illustrator 29.8.3, SVG Export Plug-In . SVG Version: 2.1.1 Build 3)  -->
  <defs>
    <style>
      .st0 {
        stroke: #fdf2d4;
      }

      .st0, .st1, .st2, .st3, .st4, .st5 {
        fill: none;
      }

      .st0, .st2, .st3, .st5 {
        stroke-linecap: round;
        stroke-linejoin: round;
        stroke-width: 2px;
      }

      .st1 {
        stroke: #f2f2f2;
      }

      .st1, .st6, .st4, .st7, .st8 {
        stroke-miterlimit: 10;
      }

      .st9 {
        fill: #f2f2f2;
      }

      .st2 {
        stroke: #e0edea;
      }

      .st10, .st6, .st7, .st8 {
        fill: #fff;
      }

      .st11 {
        fill: #f7c027;
      }

      .st12 {
        fill: #fbe3e5;
      }

      .st3 {
        stroke: #dee7f2;
      }

      .st13 {
        fill: #d6e6e2;
      }

      .st6 {
        stroke: #f9c026;
      }

      .st6, .st7, .st8 {
        stroke-width: 1.5px;
      }

      .st4 {
        stroke: #ededed;
        stroke-dasharray: 2 3;
        stroke-width: .6px;
      }

      .st14 {
        fill: #318370;
      }

      .st15 {
        fill: #f8ebc4;
      }

      .st16 {
        fill: #d3dfee;
      }

      .st17 {
        fill: #2160a9;
      }

      .st18 {
        fill: #dcdfe2;
      }

      .st5 {
        stroke: #fceaeb;
      }

      .st19 {
        fill: #f5f5f5;
      }

      .st7 {
        stroke: #ed727d;
      }

      .st8 {
        stroke: #318471;
      }
    </style>
  </defs>
  <path class="st9" d="M122.64,176.02V31.81h2.88c2.03,0,3.67-1.65,3.67-3.67v-13.08c0-2.03-1.65-3.67-3.67-3.67H14.47c-2.88,0-5.21,2.33-5.21,5.21v159.42c0,2.88,2.33,5.21,5.21,5.21h102.96c2.88,0,5.21-2.33,5.21-5.21ZM14.47,178.29c-1.25,0-2.27-1.02-2.27-2.27V16.6c0-1.25,1.02-2.27,2.27-2.27h102.96c1.25,0,2.27,1.02,2.27,2.27v159.42c0,1.25-1.02,2.27-2.27,2.27H14.47Z"/>
  <path class="st9" d="M125.11,52.98h-4.94v-2.62h4.94c.72,0,1.31-.59,1.31-1.31v-13.06c0-.72-.59-1.31-1.31-1.31h-4.94v-2.62h4.94c2.16,0,3.93,1.76,3.93,3.93v13.06c0,2.16-1.76,3.93-3.93,3.93Z"/>
  <rect class="st10" x="117.13" y="34.77" width="6.82" height="15.74"/>
  <path class="st9" d="M120.17,54.71h4.94c1.45,0,2.62,1.17,2.62,2.62v13.06c0,1.45-1.17,2.62-2.62,2.62h-4.94"/>
  <path class="st9" d="M125.11,74.31h-4.94v-2.62h4.94c.72,0,1.31-.59,1.31-1.31v-13.06c0-.72-.59-1.31-1.31-1.31h-4.94v-2.62h4.94c2.16,0,3.93,1.76,3.93,3.93v13.06c0,2.16-1.76,3.93-3.93,3.93Z"/>
  <path class="st11" d="M123.04,22.33l-.62-.85c-.08-.12.03-.27.17-.23l1,.33c.06.02.13,0,.17-.05l.62-.85c.08-.12.27-.06.27.09v1.05c0,.06.04.12.1.14l1,.33c.14.04.14.24,0,.28l-1,.33c-.06.02-.1.08-.1.14v1.05c0,.14-.18.2-.27.09l-.62-.85c-.04-.05-.1-.07-.17-.05l-1,.33c-.14.04-.25-.11-.17-.23l.62-.85c.04-.05.04-.12,0-.17Z"/>
  <path class="st14" d="M122.12,40.25l-.62-.85c-.08-.12.03-.27.17-.23l1,.33c.06.02.13,0,.17-.05l.62-.85c.08-.12.27-.06.27.09v1.05c0,.06.04.12.1.14l1,.33c.14.04.14.24,0,.28l-1,.33c-.06.02-.1.08-.1.14v1.05c0,.14-.18.2-.27.09l-.62-.85c-.04-.05-.1-.07-.17-.05l-1,.33c-.14.04-.25-.11-.17-.23l.62-.85c.04-.05.04-.12,0-.17Z"/>
  <path class="st14" d="M122.12,44.62l-.62-.85c-.08-.12.03-.27.17-.23l1,.33c.06.02.13,0,.17-.05l.62-.85c.08-.12.27-.06.27.09v1.05c0,.06.04.12.1.14l1,.33c.14.04.14.24,0,.28l-1,.33c-.06.02-.1.08-.1.14v1.05c0,.14-.18.2-.27.09l-.62-.85c-.04-.05-.1-.07-.17-.05l-1,.33c-.14.04-.25-.11-.17-.23l.62-.85c.04-.05.04-.12,0-.17Z"/>
  <g>
    <path class="st11" d="M123.37,59.8l-.62-.85c-.08-.12.03-.27.17-.23l1,.33c.06.02.13,0,.17-.05l.62-.85c.08-.12.27-.06.27.09v1.05c0,.06.04.12.1.14l1,.33c.14.04.14.24,0,.28l-1,.33c-.06.02-.1.08-.1.14v1.05c0,.14-.18.2-.27.09l-.62-.85c-.04-.05-.1-.07-.17-.05l-1,.33c-.14.04-.25-.11-.17-.23l.62-.85c.04-.05.04-.12,0-.17Z"/>
    <path class="st11" d="M123.37,64.17l-.62-.85c-.08-.12.03-.27.17-.23l1,.33c.06.02.13,0,.17-.05l.62-.85c.08-.12.27-.06.27.09v1.05c0,.06.04.12.1.14l1,.33c.14.04.14.24,0,.28l-1,.33c-.06.02-.1.08-.1.14v1.05c0,.14-.18.2-.27.09l-.62-.85c-.04-.05-.1-.07-.17-.05l-1,.33c-.14.04-.25-.11-.17-.23l.62-.85c.04-.05.04-.12,0-.17Z"/>
    <path class="st11" d="M123.37,68.54l-.62-.85c-.08-.12.03-.27.17-.23l1,.33c.06.02.13,0,.17-.05l.62-.85c.08-.12.27-.06.27.09v1.05c0,.06.04.12.1.14l1,.33c.14.04.14.24,0,.28l-1,.33c-.06.02-.1.08-.1.14v1.05c0,.14-.18.2-.27.09l-.62-.85c-.04-.05-.1-.07-.17-.05l-1,.33c-.14.04-.25-.11-.17-.23l.62-.85c.04-.05.04-.12,0-.17Z"/>
  </g>
  <path class="st11" d="M10.21,6.26c.14.65.36,1.26.63,1.86.13.29.59.39.84.22.52-.35,1.06-.66,1.63-.92.3-.14.61-.26.92-.37.28-.1.64-.27.94-.26.59.02,1.21.45,1.75.67.63.26,1.31.46,1.99.43s1.19-.3,1.8-.49c.68-.2,1.36-.03,2.04.1,1.41.26,2.84.39,4.27.4,1.63,0,3.26-.15,4.86-.46.77-.15.45-1.33-.33-1.18-2.8.55-5.74.58-8.55.05-.74-.14-1.48-.3-2.23-.17-.62.1-1.17.47-1.79.53-1.37.13-2.41-.99-3.73-1.09-.74-.05-1.57.36-2.24.65s-1.34.64-1.96,1.06l.84.22c-.23-.5-.39-1.03-.51-1.57-.17-.77-1.35-.44-1.18.33h0Z"/>
  <polyline class="st1" points="25.77 26.71 25.77 83.86 107.4 83.86"/>
  <line class="st4" x1="34.59" y1="83.84" x2="34.59" y2="27.1"/>
  <line class="st4" x1="45.57" y1="83.84" x2="45.57" y2="27.1"/>
  <line class="st4" x1="56.55" y1="83.84" x2="56.55" y2="27.1"/>
  <line class="st4" x1="67.52" y1="83.84" x2="67.52" y2="27.1"/>
  <line class="st4" x1="78.5" y1="83.84" x2="78.5" y2="27.1"/>
  <line class="st4" x1="89.47" y1="83.84" x2="89.47" y2="27.1"/>
  <line class="st4" x1="100.45" y1="83.84" x2="100.45" y2="27.1"/>
  <polyline class="st5" points="26.06 76.01 34.88 70.15 45.86 73.08 56.83 65.98 67.81 76.62 78.78 71.84 89.76 75.39 100.73 69.06"/>
  <polyline class="st0" points="26.06 63.61 34.88 60.48 45.86 56.93 56.83 59.64 67.81 63.61 78.78 56.38 89.76 66.27 100.73 60.27"/>
  <polyline class="st2" points="26.06 43.95 34.88 48.61 45.86 46.28 56.83 43.31 67.81 50.47 78.78 50.47 89.76 38.35 100.73 49.83"/>
  <polyline class="st3" points="26.06 36.63 34.88 32.4 45.86 31.33 56.83 39.97 67.81 41.19 78.78 39.97 89.76 45.03 100.73 36.05"/>
  <path class="st9" d="M90.23,92.27h-40.77c-.81,0-1.47-.66-1.47-1.47s.66-1.47,1.47-1.47h40.77c.81,0,1.47.66,1.47,1.47s-.66,1.47-1.47,1.47Z"/>
  <rect class="st17" x="41.84" y="88.7" width="4.54" height="4.54" rx=".72" ry=".72"/>
  <path class="st10" d="M43.27,91.74c.16.15.3.43.57.25l1.53-1.53c.18-.22-.07-.53-.31-.35l-1.38,1.37c-.06,0-.46-.48-.54-.52-.14-.06-.32.02-.34.18-.03.19.35.48.47.6Z"/>
  <circle class="st8" cx="89.64" cy="37.85" r="2.08"/>
  <circle class="st6" cx="45.63" cy="57.03" r="2.08"/>
  <circle class="st7" cx="78.72" cy="72.6" r="2.08"/>
  <g>
    <rect class="st9" x="55.46" y="127.22" width="53.98" height="4.55" rx="2.28" ry="2.28"/>
    <rect class="st9" x="55.46" y="134.84" width="53.98" height="4.55" rx="2.28" ry="2.28"/>
    <rect class="st9" x="55.46" y="142.46" width="53.98" height="4.55" rx="2.28" ry="2.28"/>
    <rect class="st9" x="55.46" y="150.08" width="53.98" height="4.55" rx="2.28" ry="2.28"/>
    <rect class="st9" x="55.46" y="157.7" width="53.98" height="4.55" rx="2.28" ry="2.28"/>
    <rect class="st12" x="55.46" y="127.22" width="36.78" height="4.55" rx="2.28" ry="2.28"/>
    <rect class="st16" x="55.46" y="134.84" width="48.39" height="4.55" rx="2.28" ry="2.28"/>
    <rect class="st15" x="55.46" y="142.46" width="28.48" height="4.55" rx="2.28" ry="2.28"/>
    <rect class="st13" x="55.46" y="150.08" width="42.07" height="4.55" rx="2.28" ry="2.28"/>
    <rect class="st18" x="55.46" y="157.7" width="21.75" height="4.55" rx="2.28" ry="2.28"/>
  </g>
  <g>
    <path class="st19" d="M44.7,130.12h-16.89c-.81,0-1.47-.66-1.47-1.47s.66-1.47,1.47-1.47h16.89c.81,0,1.47.66,1.47,1.47s-.66,1.47-1.47,1.47Z"/>
    <path class="st19" d="M44.7,135.27h-22.4c-.81,0-1.47-.66-1.47-1.47s.66-1.47,1.47-1.47h22.4c.81,0,1.47.66,1.47,1.47s-.66,1.47-1.47,1.47Z"/>
    <path class="st19" d="M37.61,140.42h-15.31c-.81,0-1.47-.66-1.47-1.47s.66-1.47,1.47-1.47h15.31c.81,0,1.47.66,1.47,1.47s-.66,1.47-1.47,1.47Z"/>
  </g>
  <g>
    <path class="st19" d="M44.7,148.26h-16.89c-.81,0-1.47-.66-1.47-1.47s.66-1.47,1.47-1.47h16.89c.81,0,1.47.66,1.47,1.47s-.66,1.47-1.47,1.47Z"/>
    <path class="st19" d="M44.7,153.41h-22.4c-.81,0-1.47-.66-1.47-1.47s.66-1.47,1.47-1.47h22.4c.81,0,1.47.66,1.47,1.47s-.66,1.47-1.47,1.47Z"/>
    <path class="st19" d="M37.61,158.56h-15.31c-.81,0-1.47-.66-1.47-1.47s.66-1.47,1.47-1.47h15.31c.81,0,1.47.66,1.47,1.47s-.66,1.47-1.47,1.47Z"/>
  </g>
  <g>
    <path class="st9" d="M107.77,107.1H22.36c-.7,0-1.27-.66-1.27-1.47s.57-1.47,1.27-1.47h85.41c.7,0,1.27.66,1.27,1.47s-.57,1.47-1.27,1.47Z"/>
    <path class="st9" d="M60.62,112.26H22.36c-.7,0-1.27-.66-1.27-1.47s.57-1.47,1.27-1.47h38.26c.7,0,1.27.66,1.27,1.47s-.57,1.47-1.27,1.47Z"/>
  </g>
  <g>
    <rect class="st17" x="21.09" y="126.66" width="4.54" height="4.54" rx=".73" ry=".73"/>
    <path class="st10" d="M22.72,127.87c.33,0,.55.21.55.51s-.23.51-.55.51-.55-.2-.55-.51.23-.51.55-.51ZM24.01,127.91h.32l-1.68,2.2h-.32l1.68-2.2ZM22.72,128.67c.18,0,.29-.11.29-.28s-.12-.28-.29-.28-.3.11-.3.28.12.28.3.28ZM23.95,129.11c.33,0,.55.21.55.51s-.23.51-.55.51-.55-.21-.55-.51.23-.51.55-.51ZM23.95,129.9c.18,0,.3-.11.3-.28s-.12-.28-.3-.28-.29.11-.29.28.12.28.29.28Z"/>
  </g>
  <g>
    <rect class="st17" x="21.09" y="144.85" width="4.54" height="4.54" rx=".73" ry=".73"/>
    <path class="st10" d="M22.72,146.06c.33,0,.55.21.55.51s-.23.51-.55.51-.55-.2-.55-.51.23-.51.55-.51ZM24.01,146.1h.32l-1.68,2.2h-.32l1.68-2.2ZM22.72,146.86c.18,0,.29-.11.29-.28s-.12-.28-.29-.28-.3.11-.3.28.12.28.3.28ZM23.95,147.3c.33,0,.55.21.55.51s-.23.51-.55.51-.55-.21-.55-.51.23-.51.55-.51ZM23.95,148.09c.18,0,.3-.11.3-.28s-.12-.28-.3-.28-.29.11-.29.28.12.28.29.28Z"/>
  </g>
</svg>