<?xml version="1.0" encoding="UTF-8"?>
<svg id="Layer_1" xmlns="http://www.w3.org/2000/svg" version="1.1" viewBox="0 0 134.74 190.23">
  <!-- Generator: Adobe Illustrator 29.8.3, SVG Export Plug-In . SVG Version: 2.1.1 Build 3)  -->
  <defs>
    <style>
      .st0 {
        fill: #fdf1f2;
      }

      .st1 {
        fill: #f2f2f2;
      }

      .st2 {
        fill: #ed727d;
      }

      .st3 {
        fill: #f9c026;
      }

      .st4, .st5, .st6 {
        fill: #fff;
      }

      .st7 {
        fill: #f7c027;
      }

      .st8 {
        fill: #fbe3e5;
      }

      .st9 {
        fill: #fceaeb;
      }

      .st10 {
        fill: #d6e6e2;
      }

      .st11 {
        stroke: #d2dfee;
        stroke-width: 2px;
      }

      .st11, .st12 {
        stroke-linecap: round;
        stroke-linejoin: round;
      }

      .st11, .st12, .st13 {
        fill: none;
      }

      .st14 {
        fill: #318370;
      }

      .st15 {
        fill: #fef2d4;
      }

      .st16 {
        fill: #f7f7f7;
      }

      .st17 {
        fill: #2160a9;
      }

      .st18 {
        fill: #205fa9;
      }

      .st5 {
        stroke: #ed727d;
      }

      .st5, .st6 {
        stroke-width: 1.32px;
      }

      .st5, .st6, .st13 {
        stroke-miterlimit: 10;
      }

      .st12 {
        stroke: #f2f2f2;
        stroke-width: .88px;
      }

      .st19 {
        fill: #e0ecea;
      }

      .st6 {
        stroke: #205fa9;
      }

      .st20 {
        fill: #e9eff6;
      }

      .st21 {
        fill: #e8e8e8;
      }

      .st13 {
        stroke: #ededed;
        stroke-dasharray: 1.77 2.65;
        stroke-width: .53px;
      }

      .st22 {
        fill: #eaf3f1;
      }
    </style>
  </defs>
  <rect class="st16" x="16.93" y="26.8" width="100.89" height="8.17" rx="2.11" ry="2.11"/>
  <path class="st21" d="M56.58,32.12H22.12c-.7,0-1.27-.57-1.27-1.27s.57-1.27,1.27-1.27h34.46c.7,0,1.27.57,1.27,1.27s-.57,1.27-1.27,1.27Z"/>
  <rect class="st16" x="16.93" y="115.07" width="100.89" height="8.17" rx="2.11" ry="2.11"/>
  <path class="st21" d="M56.58,120.39H22.12c-.7,0-1.27-.57-1.27-1.27s.57-1.27,1.27-1.27h34.46c.7,0,1.27.57,1.27,1.27s-.57,1.27-1.27,1.27Z"/>
  <g>
    <path class="st1" d="M113.06,41.83H21.07c-.59,0-1.07-.56-1.07-1.24s.48-1.24,1.07-1.24h91.99c.59,0,1.07.56,1.07,1.24s-.48,1.24-1.07,1.24Z"/>
    <path class="st1" d="M50.53,46.18h-29.46c-.59,0-1.07-.56-1.07-1.24s.48-1.24,1.07-1.24h29.46c.59,0,1.07.56,1.07,1.24s-.48,1.24-1.07,1.24Z"/>
  </g>
  <g>
    <path class="st1" d="M92.27,164.54h-.59s0-4.6,0-4.6c-2.34.02-4.64-1.02-6.35-2.58l-3.22,3.15c.17.48.58.86.77,1.36.83,2.18-.1,4.72-2.21,5.73-4,1.91-8.09-2.33-5.93-6.23,1.43-2.58,4.66-3.01,6.92-1.24l3.18-3.14-.06-.21c-.77-.88-1.42-1.89-1.84-2.98s-.6-2.11-.68-3.24l-4.6-.04c-.21,2.41-2.09,4.14-4.5,4.23-2.25.08-4.33-1.8-4.5-4.05-.41-5.57,7.27-6.9,8.86-1.59.06.21.03.8.25.87l4.41-.02c.2-.32.1-.7.15-1.03.3-1.96,1.09-3.81,2.48-5.24l.03-.25-3.16-3.09c-.15-.04-.48.32-.67.42-4.39,2.53-8.99-2.76-5.84-6.74s9.67-.19,7.67,4.63c-.18.44-.57.83-.73,1.26l3.07,3.1c.26.21.47-.21.67-.37,1.24-1.01,2.76-1.67,4.32-1.99.23-.05,1.5-.18,1.54-.24l.02-4.41c-.04-.14-.79-.21-.99-.27-6.02-1.85-2.84-10.76,2.85-8.57,4.51,1.73,3.46,8.43-1.33,8.72v4.6c2.35.08,4.56,1.02,6.31,2.56l.17.03,3.16-3.16c-.67-.97-1.08-1.84-1.08-3.05,0-4.84,6.64-6.11,8.57-1.91,1.65,3.58-1.66,7.42-5.48,6.23-.62-.19-1.08-.62-1.65-.85l-3.17,3.16c1.46,1.65,2.26,3.46,2.58,5.64.05.33-.14.82.34.85l4.28-.04c.2-1.75,1.26-3.35,2.95-3.96,4.82-1.74,8.27,4.53,4.51,7.7-2.84,2.39-7.11.43-7.45-3.16h-4.54c-.13,2.27-.93,4.18-2.3,5.94-.11.14-.42.32-.34.48l3.14,3.11c.23.06.49-.25.71-.37,5.15-2.71,9.28,3.88,5.25,7.33-1.45,1.24-3.73,1.4-5.33.35-2.33-1.54-2.75-4.65-1-6.8l-3.23-3.24c-1.19,1.06-2.49,1.82-4.04,2.26-.39.11-.99.28-1.38.33-.33.04-.75-.1-.99.12v4.49ZM91.51,127.44c-2.73.31-4.31,3.43-2.99,5.84s4.67,2.75,6.46.67c2.34-2.72.09-6.92-3.47-6.51ZM78.22,133.01c-5.06.5-4.39,8.37,1.01,7.77,4.75-.53,4.33-8.29-1.01-7.77ZM104.8,133.01c-3.5.36-4.62,5.12-1.72,7.09,3.25,2.21,7.33-1.13,5.85-4.74-.7-1.7-2.33-2.54-4.13-2.35ZM91.07,141.1c-4.82.41-8.49,4.87-8.22,9.67.44,8.02,10.54,11.63,15.93,5.68,5.67-6.26.74-16.06-7.7-15.35ZM72.73,146.3c-3.22.32-4.63,4.23-2.51,6.62,1.56,1.76,4.44,1.64,5.94-.15,2.28-2.72.08-6.83-3.43-6.47ZM110.45,146.3c-2.77.28-4.41,3.39-3.07,5.85s4.74,2.73,6.5.62c2.28-2.72.08-6.83-3.43-6.47ZM78.45,159.67c-5.38.34-4.49,8.38.57,7.85s4.47-8.17-.57-7.85ZM104.88,159.66c-3.34.4-4.66,4.61-2.14,6.85,1.86,1.66,4.77,1.17,5.98-1,1.56-2.79-.68-6.22-3.84-5.85Z"/>
    <path class="st1" d="M95.21,165.91c4.16,4.16-2.04,10.49-6.28,6.54-4.41-4.11,1.98-10.84,6.28-6.54ZM91.44,165.23c-4.83.58-4.24,8.37,1.16,7.77,4.79-.53,4.32-8.43-1.16-7.77Z"/>
    <path class="st20" d="M72.73,146.3c3.51-.35,5.71,3.75,3.43,6.47-1.5,1.79-4.37,1.91-5.94.15-2.13-2.39-.72-6.3,2.51-6.62Z"/>
    <path class="st15" d="M78.22,133.01c5.34-.53,5.76,7.24,1.01,7.77-5.4.6-6.07-7.27-1.01-7.77Z"/>
    <path class="st0" d="M110.45,146.3c3.51-.35,5.71,3.75,3.43,6.47-1.76,2.1-5.18,1.8-6.5-.62s.29-5.57,3.07-5.85Z"/>
    <path class="st20" d="M104.8,133.01c1.8-.18,3.44.65,4.13,2.35,1.48,3.61-2.6,6.95-5.85,4.74-2.9-1.97-1.79-6.73,1.72-7.09Z"/>
    <path class="st22" d="M78.45,159.67c5.04-.32,5.64,7.32.57,7.85s-5.95-7.51-.57-7.85Z"/>
    <path class="st19" d="M104.88,159.66c3.16-.38,5.4,3.06,3.84,5.85-1.21,2.17-4.12,2.66-5.98,1-2.52-2.24-1.2-6.45,2.14-6.85Z"/>
    <path class="st9" d="M91.51,127.44c3.56-.4,5.81,3.8,3.47,6.51-1.79,2.08-5.14,1.72-6.46-.67s.25-5.53,2.99-5.84Z"/>
    <path class="st15" d="M91.44,165.23c5.48-.66,5.95,7.23,1.16,7.77-5.4.6-5.99-7.19-1.16-7.77Z"/>
    <path class="st20" d="M91.07,141.1c-4.82.41-8.49,4.87-8.22,9.67.44,8.02,10.54,11.63,15.93,5.68,5.67-6.26.74-16.06-7.7-15.35ZM97.36,155.49h-10.77l-.1-.12c.18-2.55,1.99-4.58,4.5-5.05,2.53-.48,5.19.95,6.12,3.34.19.49.51,1.38.25,1.83ZM91.89,144c3.31-.13,4.01,4.58.94,5.48-4.1,1.2-5.09-5.32-.94-5.48Z"/>
    <path class="st4" d="M86.59,155.49l-.1-.12c.18-2.55,1.99-4.58,4.5-5.05s5.19.95,6.12,3.34c.19.49.51,1.38.25,1.83h-10.77Z"/>
    <path class="st4" d="M91.89,144c3.31-.13,4.01,4.58.94,5.48-4.1,1.2-5.09-5.32-.94-5.48Z"/>
    <path class="st14" d="M104.07,162.55c.81.06,1.8-.1,2.59,0,.27.03.4.25.43.51.04.32.03.99,0,1.32s-.15.54-.51.58c-.57.06-1.75.05-2.33,0-.23-.02-.5-.16-.54-.4-.04-.28-.04-1.29,0-1.58.03-.21.17-.36.37-.42ZM104.31,162.84l.04.13,1.04.96,1.1-1.03-2.18-.06ZM104.06,163.1c-.06,0-.04.08-.04.11.01.35.06.72-.02,1.07l.09.06.62-.58c-.06-.1-.61-.65-.66-.66ZM106.75,163.1l-.32.26-.35.39s.49.48.56.53c.04.03.05.07.11.06v-1.24ZM106.49,164.61l-.66-.63c-.14.03-.3.32-.42.33-.13.01-.31-.3-.47-.33-.2.16-.38.34-.57.52-.04.03-.08.03-.06.11h2.18Z"/>
    <path class="st18" d="M103.9,138.36c-.05-.08-.05-.16-.06-.25-.05-.59-.05-1.69,0-2.28.04-.48.3-.27.67-.32.21-.86,1.29-1.05,1.75-.26.04.07.04.21.09.25.21.15.63-.24.68.33s.05,1.67,0,2.23c-.01.13-.02.22-.12.32l-3.02-.02ZM105.03,135.51h.82l.05-.1c-.25-.32-.67-.33-.92,0l.05.1ZM104.81,135.9l-.56.05c.02.52.04,1.05.03,1.58,0,.18-.16.45.12.51.12.02.33.03.41-.07v-2.06ZM105.68,135.9h-.48v2.06c.13.14.33.06.48.02v-2.08ZM106.1,135.91l-.07.1v1.9c.03.16.49.16.58.05.14-.17-.01-1.66.03-1.99-.03-.11-.45-.1-.54-.07Z"/>
    <path class="st14" d="M78.37,161.92c1.49-.22,2.51,1.5,1.58,2.7-1.04,1.34-3.17.48-2.99-1.25.07-.71.72-1.35,1.42-1.45ZM78.46,162.22c-.42.04-.85.34-1.05.72-.08.15-.2.38-.06.52h1.05l.06-.06v-1.18ZM78.77,162.28v1.39l-.06.06h-1.36c-.21,0,.14.63.21.72.97,1.17,2.89.13,2.33-1.36-.17-.45-.6-.74-1.05-.85l-.08.04Z"/>
    <path class="st18" d="M73.78,149.12c-.18.11-.95-.16-.77.57.18.01.65-.06.76.11.05.1.06.29-.06.33h-.69c-.05.31.09,1.56-.07,1.73-.04.05-.16.08-.23.06-.09-.03-.13-.1-.15-.19-.08-.42.06-1.05,0-1.5l-.08-.08-.42-.03c-.21-.4.2-.46.51-.42-.15-.6.53-1.16,1.08-1,.17.05.28.34.14.43Z"/>
    <path class="st3" d="M79.47,136.06c.24.25.72.64.57.99-.05.11-1.22,1.3-1.36,1.39-.32.21-.74.09-.81-.29-.04-.23-.02-2.5.04-2.63.09-.2.41-.34.63-.27.09.03.82.69.94.81ZM78.45,137.74c.34-.14.68-.54.89-.85,0-.12-.7-.84-.89-.85v1.71Z"/>
    <g>
      <path class="st2" d="M110.75,148.06c-1.09.09-1.75,1.18-1.34,2.2.13.33.91,1.88,1.13,2.05.43.34.72.03.94-.35.2-.33.87-1.62.94-1.93.23-1.08-.56-2.06-1.67-1.97ZM112.03,149.84c-.04.25-.77,1.75-.94,1.99-.05.07-.12.17-.22.18l-.19-.11c-.2-.6-1-1.66-1.02-2.25-.02-.54.44-1.12.98-1.2.83-.12,1.52.56,1.39,1.39Z"/>
      <path class="st2" d="M111.27,148.79c-.99-.46-1.76.78-1.09,1.46,1.06,1.08,2.37-.87,1.09-1.46ZM111.12,150.07c-.7.44-1.14-.82-.33-.97.5-.1.84.65.33.97Z"/>
    </g>
    <path class="st3" d="M90.6,170.71c-.17-.05-.05-.58-.09-.77-.04-.17-.21-.28-.23-.47l-.53-.03c-.06-.08-.06-.6-.04-.72.05-.38.44-.13.58-.24.07-.05.02-.23.12-.26.33-.04.72.04,1.04-.02.37-.07.96-.58,1.32-.65.12-.02.71-.03.78.01.17.1.05.51.1.67.05.14.49.2.52.68.02.34-.09.52-.34.72-.05.04-.17.06-.18.08-.06.1.06.51-.05.65-.08.1-.74.09-.88.06-.31-.06-.79-.51-1.14-.57v.75s-.06.07-.05.12h-.94ZM93.03,170.03h.16s.08-.12.08-.12v-1.93s-.24-.08-.24-.08v2.12ZM92.65,168.06l-.84.43c0,.26-.11.87.08,1.03.16.14.56.29.77.36v-1.83ZM90.72,169.41l.63-.02c.06-.04.07-.67.04-.77-.05-.17-.44.06-.6-.07l-.07.06v.79ZM93.61,169.22c.28.07.24-.41.07-.48-.14-.02-.03.17-.03.26,0,.07-.06.14-.04.22ZM91.2,170.32c.14-.7-.48-.76-.32-.05l.32.05Z"/>
    <g>
      <path class="st2" d="M91.3,129.61c.52-.06,1.7-.07,2.12.22.26.18.44.56.47.87.04.41.05,1.62-.09,1.97-.09.23-.32.48-.56.58-.41.16-1.93.16-2.35.04s-.68-.59-.71-.99c-.03-.35-.05-1.64.04-1.93.14-.49.61-.71,1.09-.77ZM91.25,130.07c-.33.04-.58.19-.65.54-.06.32-.04,1.24-.01,1.59.02.28.11.53.38.65.25.11,1.07.05,1.4.05.11,0,.2.05.3.05.37,0,.71-.2.75-.59.04-.36.04-1.35,0-1.7-.02-.19-.15-.42-.32-.5-.3-.14-1.49-.12-1.85-.08Z"/>
      <path class="st2" d="M91.81,130.59c.57-.1,1.1.26,1.14.85.05.99-1.3,1.4-1.76.47-.26-.53.05-1.23.63-1.32ZM91.97,131c-.65.05-.54,1.01.04,1.01.69,0,.65-1.07-.04-1.01Z"/>
      <path class="st2" d="M93.06,130.62c-.13.18-.48-.14-.2-.28.15-.07.26.2.2.28Z"/>
    </g>
  </g>
  <g>
    <path class="st1" d="M52.55,151.52h-24.89c-.81,0-1.47-.66-1.47-1.47s.66-1.47,1.47-1.47h24.89c.81,0,1.47.66,1.47,1.47s-.66,1.47-1.47,1.47Z"/>
    <path class="st1" d="M44.55,156.68h-22.4c-.81,0-1.47-.66-1.47-1.47s.66-1.47,1.47-1.47h22.4c.81,0,1.47.66,1.47,1.47s-.66,1.47-1.47,1.47Z"/>
  </g>
  <g>
    <path class="st1" d="M52.55,164.2h-24.89c-.81,0-1.47-.66-1.47-1.47s.66-1.47,1.47-1.47h24.89c.81,0,1.47.66,1.47,1.47s-.66,1.47-1.47,1.47Z"/>
    <path class="st1" d="M44.55,169.35h-22.4c-.81,0-1.47-.66-1.47-1.47s.66-1.47,1.47-1.47h22.4c.81,0,1.47.66,1.47,1.47s-.66,1.47-1.47,1.47Z"/>
  </g>
  <g>
    <rect class="st17" x="20.94" y="148.07" width="4.54" height="4.54" rx=".73" ry=".73"/>
    <path class="st4" d="M22.56,149.28c.33,0,.55.21.55.51s-.23.51-.55.51-.55-.2-.55-.51.23-.51.55-.51ZM23.85,149.31h.32l-1.68,2.2h-.32l1.68-2.2ZM22.56,150.07c.18,0,.29-.11.29-.28s-.12-.28-.29-.28-.3.11-.3.28.12.28.3.28ZM23.8,150.51c.33,0,.55.21.55.51s-.23.51-.55.51-.55-.21-.55-.51.23-.51.55-.51ZM23.8,151.31c.18,0,.3-.11.3-.28s-.12-.28-.3-.28-.29.11-.29.28.12.28.29.28Z"/>
  </g>
  <g>
    <rect class="st17" x="20.94" y="160.79" width="4.54" height="4.54" rx=".73" ry=".73"/>
    <path class="st4" d="M22.56,162c.33,0,.55.21.55.51s-.23.51-.55.51-.55-.2-.55-.51.23-.51.55-.51ZM23.85,162.03h.32l-1.68,2.2h-.32l1.68-2.2ZM22.56,162.79c.18,0,.29-.11.29-.28s-.12-.28-.29-.28-.3.11-.3.28.12.28.3.28ZM23.8,163.23c.33,0,.55.21.55.51s-.23.51-.55.51-.55-.21-.55-.51.23-.51.55-.51ZM23.8,164.03c.18,0,.3-.11.3-.28s-.12-.28-.3-.28-.29.11-.29.28.12.28.29.28Z"/>
  </g>
  <path class="st1" d="M66.84,131.03H22.35c-.7,0-1.27-.66-1.27-1.47s.57-1.47,1.27-1.47h44.48c.7,0,1.27.66,1.27,1.47s-.57,1.47-1.27,1.47Z"/>
  <path class="st1" d="M66.84,136.46H22.35c-.7,0-1.27-.66-1.27-1.47s.57-1.47,1.27-1.47h44.48c.7,0,1.27.66,1.27,1.47s-.57,1.47-1.27,1.47Z"/>
  <path class="st1" d="M52.57,141.63h-30.22c-.7,0-1.27-.66-1.27-1.47s.57-1.47,1.27-1.47h30.22c.7,0,1.27.66,1.27,1.47s-.57,1.47-1.27,1.47Z"/>
  <g>
    <path class="st1" d="M121.68,15.71H28.37v-2.88c0-2.03-1.64-3.67-3.67-3.67h-13.06c-2.03,0-3.67,1.64-3.67,3.67v163.3c0,2.88,2.33,5.21,5.21,5.21h108.5c2.88,0,5.21-2.33,5.21-5.21V20.92c0-2.88-2.33-5.21-5.21-5.21ZM123.95,176.14c0,1.25-1.02,2.27-2.27,2.27H13.17c-1.25,0-2.27-1.02-2.27-2.27V20.92c0-1.25,1.02-2.27,2.27-2.27h108.5c1.25,0,2.27,1.02,2.27,2.27v155.21Z"/>
    <g>
      <path class="st1" d="M29.8,18.16v-4.94c0-1.44,1.17-2.62,2.62-2.62h13.14c1.44,0,2.62,1.17,2.62,2.62v4.94"/>
      <path class="st1" d="M49.48,18.15h-2.61v-4.94c0-.72-.59-1.31-1.31-1.31h-13.14c-.72,0-1.31.59-1.31,1.31v4.94h-2.61v-4.94c0-2.16,1.76-3.92,3.92-3.92h13.14c2.16,0,3.92,1.76,3.92,3.92v4.94Z"/>
    </g>
    <path class="st7" d="M17.95,15.21l-.85.62c-.12.08-.27-.03-.23-.17l.32-1c.02-.06,0-.13-.05-.17l-.85-.62c-.12-.08-.06-.27.09-.27h1.05c.06,0,.12-.04.14-.1l.32-1c.04-.14.24-.14.28,0l.32,1c.02.06.08.1.14.1h1.05c.14,0,.2.18.09.27l-.85.62c-.05.04-.07.1-.05.17l.32,1c.04.14-.11.25-.23.17l-.85-.62c-.05-.04-.12-.04-.17,0Z"/>
    <path class="st3" d="M36.92,15.12l-.85.62c-.12.08-.27-.03-.23-.17l.32-1c.02-.06,0-.13-.05-.17l-.85-.62c-.12-.08-.06-.27.09-.27h1.05c.06,0,.12-.04.14-.1l.32-1c.04-.14.24-.14.28,0l.32,1c.02.06.08.1.14.1h1.05c.14,0,.2.18.09.27l-.85.62c-.05.04-.07.1-.05.17l.32,1c.04.14-.11.25-.23.17l-.85-.62c-.05-.04-.12-.04-.17,0Z"/>
    <path class="st3" d="M41.29,15.12l-.85.62c-.12.08-.27-.03-.23-.17l.32-1c.02-.06,0-.13-.05-.17l-.85-.62c-.12-.08-.06-.27.09-.27h1.05c.06,0,.12-.04.14-.1l.32-1c.04-.14.24-.14.28,0l.32,1c.02.06.08.1.14.1h1.05c.14,0,.2.18.09.27l-.85.62c-.05.04-.07.1-.05.17l.32,1c.04.14-.11.25-.23.17l-.85-.62c-.05-.04-.12-.04-.17,0Z"/>
    <path class="st1" d="M71.15,18.1h-2.61v-4.94c0-.72-.59-1.31-1.31-1.31h-13.7c-.72,0-1.31.59-1.31,1.31v4.94h-2.61v-4.94c0-2.16,1.76-3.92,3.92-3.92h13.7c2.16,0,3.92,1.76,3.92,3.92v4.94Z"/>
    <rect class="st4" x="52.26" y="14.32" width="16.3" height="6.81"/>
    <path class="st18" d="M56.06,16.39l-.85.62c-.12.08-.27-.03-.23-.17l.32-1c.02-.06,0-.13-.05-.17l-.85-.62c-.12-.08-.06-.27.09-.27h1.05c.06,0,.12-.04.14-.1l.32-1c.04-.14.24-.14.28,0l.32,1c.02.06.08.1.14.1h1.05c.14,0,.2.18.09.27l-.85.62c-.05.04-.07.1-.05.17l.32,1c.04.14-.11.25-.23.17l-.85-.62c-.05-.04-.12-.04-.17,0Z"/>
    <path class="st18" d="M60.42,16.39l-.85.62c-.12.08-.27-.03-.23-.17l.32-1c.02-.06,0-.13-.05-.17l-.85-.62c-.12-.08-.06-.27.09-.27h1.05c.06,0,.12-.04.14-.1l.32-1c.04-.14.24-.14.28,0l.32,1c.02.06.08.1.14.1h1.05c.14,0,.2.18.09.27l-.85.62c-.05.04-.07.1-.05.17l.32,1c.04.14-.11.25-.23.17l-.85-.62c-.05-.04-.12-.04-.17,0Z"/>
    <path class="st18" d="M64.78,16.39l-.85.62c-.12.08-.27-.03-.23-.17l.32-1c.02-.06,0-.13-.05-.17l-.85-.62c-.12-.08-.06-.27.09-.27h1.05c.06,0,.12-.04.14-.1l.32-1c.04-.14.24-.14.28,0l.32,1c.02.06.08.1.14.1h1.05c.14,0,.2.18.09.27l-.85.62c-.05.04-.07.1-.05.17l.32,1c.04.14-.11.25-.23.17l-.85-.62c-.05-.04-.12-.04-.17,0Z"/>
  </g>
  <path class="st1" d="M90.66,109.18h-40.77c-.81,0-1.47-.66-1.47-1.47s.66-1.47,1.47-1.47h40.77c.81,0,1.47.66,1.47,1.47s-.66,1.47-1.47,1.47Z"/>
  <g>
    <rect class="st17" x="42.49" y="105.67" width="4.54" height="4.54" rx=".73" ry=".73"/>
    <path class="st4" d="M44.12,106.88c.33,0,.55.21.55.51s-.23.51-.55.51-.55-.2-.55-.51.23-.51.55-.51ZM45.41,106.91h.32l-1.68,2.2h-.32l1.68-2.2ZM44.12,107.67c.18,0,.29-.11.29-.28s-.12-.28-.29-.28-.3.11-.3.28.12.28.3.28ZM45.35,108.11c.33,0,.55.21.55.51s-.23.51-.55.51-.55-.21-.55-.51.23-.51.55-.51ZM45.35,108.9c.18,0,.3-.11.3-.28s-.12-.28-.3-.28-.29.11-.29.28.12.28.29.28Z"/>
  </g>
  <g>
    <polyline class="st12" points="28.9 52.42 28.9 102.54 103.51 102.54"/>
    <line class="st13" x1="39.26" y1="102.52" x2="39.26" y2="52.76"/>
    <line class="st13" x1="49.04" y1="102.52" x2="49.04" y2="52.76"/>
    <line class="st13" x1="58.83" y1="102.52" x2="58.83" y2="52.76"/>
    <line class="st13" x1="68.61" y1="102.52" x2="68.61" y2="52.76"/>
    <line class="st13" x1="78.39" y1="102.52" x2="78.39" y2="52.76"/>
    <line class="st13" x1="88.17" y1="102.52" x2="88.17" y2="52.76"/>
    <line class="st13" x1="97.96" y1="102.52" x2="97.96" y2="52.76"/>
    <rect class="st8" x="62.87" y="90.19" width="11.44" height="8.04" rx="1.18" ry="1.18" transform="translate(-25.62 162.79) rotate(-90)"/>
    <rect class="st8" x="51.2" y="88.14" width="15.54" height="8.04" rx="1.18" ry="1.18" transform="translate(-33.19 151.13) rotate(-90)"/>
    <rect class="st10" x="68.68" y="76.23" width="38.56" height="8.04" rx="1.18" ry="1.18" transform="translate(7.71 168.2) rotate(-90)"/>
    <rect class="st10" x="66.1" y="83.26" width="24.48" height="8.04" rx="1.18" ry="1.18" transform="translate(-8.94 165.62) rotate(-90)"/>
    <rect class="st10" x="38.52" y="85.29" width="21.24" height="8.04" rx="1.18" ry="1.18" transform="translate(-40.17 138.45) rotate(-90)"/>
    <rect class="st10" x="33.79" y="90.39" width="11.04" height="8.04" rx="1.18" ry="1.18" transform="translate(-55.1 133.72) rotate(-90)"/>
    <g>
      <path class="st1" d="M101.56,78.11c-.43-.22-.72-.67-.72-1.18,0-.73.6-1.32,1.33-1.32l7.76.08c.73,0,1.32.6,1.32,1.33,0,.73-.6,1.32-1.33,1.32l-7.76-.08c-.22,0-.42-.05-.6-.15Z"/>
      <polyline class="st1" points="107.37 72.37 114.85 77.18 107.61 81.89"/>
    </g>
    <polyline class="st11" points="39.29 81.92 59.91 62.78 68.56 71.22 88.16 51.62"/>
    <circle class="st6" cx="39.49" cy="81.97" r="1.83"/>
    <circle class="st6" cx="49.17" cy="72.63" r="1.83"/>
    <circle class="st5" cx="59.99" cy="63.63" r="1.83"/>
    <circle class="st5" cx="68.77" cy="71.03" r="1.83"/>
    <circle class="st6" cx="78.34" cy="61.58" r="1.83"/>
    <circle class="st6" cx="88.13" cy="51.9" r="1.83"/>
    <polyline class="st1" points="102.86 100.25 106.42 102.54 102.98 104.78"/>
    <polyline class="st1" points="26.61 54.36 28.9 50.8 31.14 54.25"/>
  </g>
</svg>