<?xml version="1.0" encoding="UTF-8"?>
<svg id="Layer_1" xmlns="http://www.w3.org/2000/svg" version="1.1" viewBox="0 0 134.74 190.23">
  <!-- Generator: Adobe Illustrator 29.8.3, SVG Export Plug-In . SVG Version: 2.1.1 Build 3)  -->
  <defs>
    <style>
      .st0 {
        fill: #f2f2f2;
      }

      .st1 {
        fill: #fff;
      }

      .st2 {
        fill: #f4f9f8;
      }

      .st3 {
        fill: #f7c027;
      }

      .st4 {
        fill: #dee7f2;
      }

      .st5 {
        stroke: #318370;
      }

      .st5, .st6 {
        stroke-width: .5px;
      }

      .st5, .st6, .st7 {
        fill: none;
        stroke-linecap: round;
        stroke-linejoin: round;
      }

      .st5, .st7 {
        opacity: .1;
      }

      .st6 {
        stroke: #fff;
      }

      .st8 {
        fill: #f7f7f7;
      }

      .st9 {
        fill: #2160a9;
      }

      .st10 {
        fill: #e0ecea;
      }

      .st7 {
        stroke: #548170;
        stroke-width: 2.5px;
      }

      .st11 {
        fill: #c1dad4;
      }

      .st12 {
        fill: #e8e8e8;
      }
    </style>
  </defs>
  <rect class="st10" x="7.99" y="45.02" width="116.63" height="8.17" rx="2.11" ry="2.11"/>
  <path class="st11" d="M47.64,50.34H13.18c-.7,0-1.27-.57-1.27-1.27s.57-1.27,1.27-1.27h34.46c.7,0,1.27.57,1.27,1.27s-.57,1.27-1.27,1.27Z"/>
  <path class="st11" d="M108.99,50.34h-22.44c-.7,0-1.27-.57-1.27-1.27s.57-1.27,1.27-1.27h22.44c.7,0,1.27.57,1.27,1.27s-.57,1.27-1.27,1.27Z"/>
  <path class="st11" d="M73.7,50.49h-6.44c-.7,0-1.27-.57-1.27-1.27s.57-1.27,1.27-1.27h6.44c.7,0,1.27.57,1.27,1.27s-.57,1.27-1.27,1.27Z"/>
  <path class="st3" d="M8.42,7.43c.14-.65.36-1.26.63-1.86.13-.29.59-.39.84-.22.52.35,1.06.66,1.63.92.3.14.61.26.92.37.28.1.64.27.94.26.59-.02,1.21-.45,1.75-.67.63-.26,1.31-.46,1.99-.43s1.19.3,1.8.49c.68.2,1.36.03,2.04-.1,1.41-.26,2.84-.39,4.27-.4,1.63,0,3.26.15,4.86.46.77.15.45,1.33-.33,1.18-2.8-.55-5.74-.58-8.55-.05-.74.14-1.48.3-2.23.17-.62-.1-1.17-.47-1.79-.53-1.37-.13-2.41.99-3.73,1.09-.74.05-1.57-.36-2.24-.65s-1.34-.64-1.96-1.06l.84-.22c-.23.5-.39,1.03-.51,1.57-.17.77-1.35.44-1.18-.33h0Z"/>
  <rect class="st8" x="7.99" y="14.34" width="83.08" height="8.17" rx="2.11" ry="2.11"/>
  <path class="st12" d="M47.64,19.66H13.18c-.7,0-1.27-.57-1.27-1.27s.57-1.27,1.27-1.27h34.46c.7,0,1.27.57,1.27,1.27s-.57,1.27-1.27,1.27Z"/>
  <g>
    <path class="st0" d="M87.62,29.36H12.13c-.59,0-1.07-.56-1.07-1.24s.48-1.24,1.07-1.24h75.49c.59,0,1.07.56,1.07,1.24s-.48,1.24-1.07,1.24Z"/>
    <path class="st0" d="M43.91,33.72H12.13c-.59,0-1.07-.56-1.07-1.24s.48-1.24,1.07-1.24h31.78c.59,0,1.07.56,1.07,1.24s-.48,1.24-1.07,1.24Z"/>
  </g>
  <rect class="st8" x="7.99" y="101.77" width="116.63" height="8.17" rx="2.11" ry="2.11"/>
  <path class="st12" d="M47.64,107.09H13.18c-.7,0-1.27-.57-1.27-1.27s.57-1.27,1.27-1.27h34.46c.7,0,1.27.57,1.27,1.27s-.57,1.27-1.27,1.27Z"/>
  <g>
    <path class="st0" d="M119.17,116.79H12.13c-.59,0-1.07-.56-1.07-1.24s.48-1.24,1.07-1.24h107.04c.59,0,1.07.56,1.07,1.24s-.48,1.24-1.07,1.24Z"/>
    <path class="st0" d="M75.64,121.15H12.13c-.59,0-1.07-.56-1.07-1.24s.48-1.24,1.07-1.24h63.51c.59,0,1.07.56,1.07,1.24s-.48,1.24-1.07,1.24Z"/>
  </g>
  <rect class="st8" x="7.99" y="130" width="116.63" height="8.17" rx="2.11" ry="2.11"/>
  <path class="st12" d="M47.64,135.32H13.18c-.7,0-1.27-.57-1.27-1.27s.57-1.27,1.27-1.27h34.46c.7,0,1.27.57,1.27,1.27s-.57,1.27-1.27,1.27Z"/>
  <g>
    <path class="st0" d="M119.17,145.02H12.13c-.59,0-1.07-.56-1.07-1.24s.48-1.24,1.07-1.24h107.04c.59,0,1.07.56,1.07,1.24s-.48,1.24-1.07,1.24Z"/>
    <path class="st0" d="M75.64,149.38H12.13c-.59,0-1.07-.56-1.07-1.24s.48-1.24,1.07-1.24h63.51c.59,0,1.07.56,1.07,1.24s-.48,1.24-1.07,1.24Z"/>
  </g>
  <rect class="st8" x="7.99" y="158.8" width="116.63" height="8.17" rx="2.11" ry="2.11"/>
  <path class="st12" d="M47.64,164.12H13.18c-.7,0-1.27-.57-1.27-1.27s.57-1.27,1.27-1.27h34.46c.7,0,1.27.57,1.27,1.27s-.57,1.27-1.27,1.27Z"/>
  <g>
    <path class="st0" d="M119.17,173.82H12.13c-.59,0-1.07-.56-1.07-1.24s.48-1.24,1.07-1.24h107.04c.59,0,1.07.56,1.07,1.24s-.48,1.24-1.07,1.24Z"/>
    <path class="st0" d="M75.64,178.17H12.13c-.59,0-1.07-.56-1.07-1.24s.48-1.24,1.07-1.24h63.51c.59,0,1.07.56,1.07,1.24s-.48,1.24-1.07,1.24Z"/>
  </g>
  <rect class="st2" x="10.14" y="59.71" width="112.42" height="5.63"/>
  <line class="st7" x1="13.23" y1="62.52" x2="51.68" y2="62.52"/>
  <line class="st7" x1="67.95" y1="62.52" x2="73.5" y2="62.52"/>
  <line class="st7" x1="86.37" y1="62.52" x2="100.13" y2="62.52"/>
  <g>
    <rect class="st1" x="10.14" y="65.48" width="112.42" height="5.63"/>
    <line class="st7" x1="13.23" y1="68.29" x2="43.04" y2="68.29"/>
    <line class="st7" x1="67.95" y1="68.29" x2="73.5" y2="68.29"/>
    <line class="st7" x1="86.37" y1="68.29" x2="109.13" y2="68.29"/>
  </g>
  <g>
    <rect class="st2" x="10.14" y="71.06" width="112.42" height="5.63"/>
    <line class="st7" x1="13.23" y1="73.87" x2="51.68" y2="73.87"/>
    <line class="st7" x1="67.95" y1="73.87" x2="73.5" y2="73.87"/>
    <line class="st7" x1="86.37" y1="73.87" x2="100.13" y2="73.87"/>
  </g>
  <g>
    <rect class="st1" x="10.14" y="76.83" width="112.42" height="5.63"/>
    <line class="st7" x1="13.23" y1="79.65" x2="43.04" y2="79.65"/>
    <line class="st7" x1="67.95" y1="79.65" x2="73.5" y2="79.65"/>
    <line class="st7" x1="86.37" y1="79.65" x2="109.13" y2="79.65"/>
  </g>
  <g>
    <rect class="st2" x="10.14" y="82.6" width="112.42" height="5.63"/>
    <line class="st7" x1="13.23" y1="85.42" x2="51.68" y2="85.42"/>
    <line class="st7" x1="67.95" y1="85.42" x2="73.5" y2="85.42"/>
    <line class="st7" x1="86.37" y1="85.42" x2="100.13" y2="85.42"/>
  </g>
  <g>
    <rect class="st1" x="10.14" y="88.37" width="112.42" height="5.63"/>
    <line class="st7" x1="13.23" y1="91.19" x2="43.04" y2="91.19"/>
    <line class="st7" x1="67.95" y1="91.19" x2="73.5" y2="91.19"/>
    <line class="st7" x1="86.37" y1="91.19" x2="109.13" y2="91.19"/>
  </g>
  <g>
    <rect class="st1" x="10.14" y="53.93" width="111.42" height="5.63"/>
    <line class="st7" x1="13.23" y1="56.74" x2="43.04" y2="56.74"/>
    <line class="st7" x1="67.95" y1="56.74" x2="73.5" y2="56.74"/>
    <line class="st7" x1="86.37" y1="56.74" x2="109.13" y2="56.74"/>
  </g>
  <line class="st5" x1="60.58" y1="45.35" x2="60.58" y2="93.96"/>
  <line class="st5" x1="81.01" y1="45.35" x2="81.01" y2="93.96"/>
  <line class="st6" x1="60.58" y1="45.35" x2="60.58" y2="53.34"/>
  <line class="st6" x1="81.01" y1="45.35" x2="81.01" y2="53.34"/>
  <g>
    <rect class="st9" x="117.63" y="60.31" width="4.54" height="4.54" rx=".72" ry=".72"/>
    <path class="st1" d="M119.05,63.35c.16.15.3.43.57.25l1.53-1.53c.18-.22-.07-.52-.31-.35l-1.38,1.37c-.06,0-.46-.48-.54-.52-.14-.06-.32.02-.34.18-.03.19.35.48.47.6Z"/>
  </g>
  <g>
    <rect class="st9" x="54.29" y="60.31" width="4.54" height="4.54" rx=".72" ry=".72"/>
    <path class="st1" d="M55.71,63.35c.16.15.3.43.57.25l1.53-1.53c.18-.22-.07-.52-.31-.35l-1.38,1.37c-.06,0-.46-.48-.54-.52-.14-.06-.32.02-.34.18-.03.19.35.48.47.6Z"/>
  </g>
  <g>
    <rect class="st9" x="117.63" y="60.31" width="4.54" height="4.54" rx=".72" ry=".72"/>
    <path class="st1" d="M119.05,63.35c.16.15.3.43.57.25l1.53-1.53c.18-.22-.07-.52-.31-.35l-1.38,1.37c-.06,0-.46-.48-.54-.52-.14-.06-.32.02-.34.18-.03.19.35.48.47.6Z"/>
  </g>
  <g>
    <rect class="st9" x="54.29" y="60.31" width="4.54" height="4.54" rx=".72" ry=".72"/>
    <path class="st1" d="M55.71,63.35c.16.15.3.43.57.25l1.53-1.53c.18-.22-.07-.52-.31-.35l-1.38,1.37c-.06,0-.46-.48-.54-.52-.14-.06-.32.02-.34.18-.03.19.35.48.47.6Z"/>
  </g>
  <g>
    <rect class="st9" x="117.63" y="83.21" width="4.54" height="4.54" rx=".72" ry=".72"/>
    <path class="st1" d="M119.05,86.25c.16.15.3.43.57.25l1.53-1.53c.18-.22-.07-.52-.31-.35l-1.38,1.37c-.06,0-.46-.48-.54-.52-.14-.06-.32.02-.34.18-.03.19.35.48.47.6Z"/>
  </g>
  <g>
    <rect class="st9" x="54.29" y="83.21" width="4.54" height="4.54" rx=".72" ry=".72"/>
    <path class="st1" d="M55.71,86.25c.16.15.3.43.57.25l1.53-1.53c.18-.22-.07-.52-.31-.35l-1.38,1.37c-.06,0-.46-.48-.54-.52-.14-.06-.32.02-.34.18-.03.19.35.48.47.6Z"/>
  </g>
  <g>
    <rect class="st9" x="75.82" y="71.59" width="4.54" height="4.54" rx=".72" ry=".72"/>
    <path class="st1" d="M77.24,74.63c.16.15.3.43.57.25l1.53-1.53c.18-.22-.07-.52-.31-.35l-1.38,1.37c-.06,0-.46-.48-.54-.52-.14-.06-.32.02-.34.18-.03.19.35.48.47.6Z"/>
  </g>
  <g>
    <path class="st4" d="M113.25,22.21c-.2-.35-.47-.53-.74-.53s-.54.18-.74.53l-4.14,7.17c-.38-.66-1.78-3.08-1.78-3.08-.2-.35-.47-.53-.74-.53s-.54.18-.74.53c0,0-1.7,2.94-2.1,3.64l-.62,1.08c-.41.71-.07,1.28.74,1.28h15.22c.81,0,1.15-.58.74-1.28l-5.09-8.82Z"/>
    <path class="st4" d="M105.84,22.92c1.14,0,2.06-.92,2.06-2.06s-.92-2.06-2.06-2.06-2.06.92-2.06,2.06.92,2.06,2.06,2.06Z"/>
    <path class="st4" d="M122.15,14.03h-24.32c-1.77,0-3.21,1.44-3.21,3.21v16.65c0,1.77,1.44,3.21,3.21,3.21h24.32c1.77,0,3.21-1.44,3.21-3.21v-16.65c0-1.77-1.44-3.21-3.21-3.21ZM123.44,33.88c0,.71-.58,1.28-1.29,1.28h-24.32c-.71,0-1.29-.58-1.29-1.28v-16.65c0-.71.58-1.28,1.29-1.28h24.32c.71,0,1.29.58,1.29,1.28v16.65Z"/>
  </g>
</svg>