<?xml version="1.0" encoding="UTF-8"?>
<svg id="Layer_1" xmlns="http://www.w3.org/2000/svg" version="1.1" viewBox="0 0 134.74 190.23">
  <!-- Generator: Adobe Illustrator 29.8.3, SVG Export Plug-In . SVG Version: 2.1.1 Build 3)  -->
  <defs>
    <style>
      .st0 {
        fill: #f2f2f2;
      }

      .st1 {
        stroke: #318370;
      }

      .st1, .st2, .st3, .st4, .st5 {
        fill: #fff;
      }

      .st1, .st3, .st4, .st5 {
        stroke-miterlimit: 10;
        stroke-width: 1.5px;
      }

      .st6 {
        fill: #f7c027;
      }

      .st7 {
        fill: #fbe3e5;
      }

      .st3 {
        stroke: #f9c026;
      }

      .st8 {
        fill: #dde6e2;
      }

      .st9 {
        fill: #f8ebc4;
      }

      .st10 {
        fill: #d3dfee;
      }

      .st11 {
        fill: #2160a9;
      }

      .st12 {
        fill: #205fa9;
      }

      .st4 {
        stroke: #205fa9;
      }

      .st13 {
        fill: #d2dfee;
      }

      .st14 {
        fill: #f5f5f5;
      }

      .st5 {
        stroke: #ed727d;
      }
    </style>
  </defs>
  <polygon class="st7" points="40.11 59.58 15.3 59.58 18.71 64.79 15.3 69.99 40.11 69.99 43.52 64.79 40.11 59.58"/>
  <polygon class="st9" points="65.59 59.58 40.78 59.58 44.18 64.79 40.78 69.99 65.59 69.99 69 64.79 65.59 59.58"/>
  <polygon class="st8" points="91.26 59.58 66.44 59.58 69.85 64.79 66.44 69.99 91.26 69.99 94.67 64.79 91.26 59.58"/>
  <polygon class="st13" points="117.02 59.58 92.2 59.58 95.61 64.79 92.2 69.99 117.02 69.99 120.43 64.79 117.02 59.58"/>
  <path class="st2" d="M34.68,65.44h-10.05c-.52,0-.94-.42-.94-.94s.42-.94.94-.94h10.05c.52,0,.94.42.94.94s-.42.94-.94.94Z"/>
  <path class="st2" d="M85.94,65.44h-10.05c-.52,0-.94-.42-.94-.94s.42-.94.94-.94h10.05c.52,0,.94.42.94.94s-.42.94-.94.94Z"/>
  <path class="st2" d="M111.06,65.44h-10.05c-.52,0-.94-.42-.94-.94s.42-.94.94-.94h10.05c.52,0,.94.42.94.94s-.42.94-.94.94Z"/>
  <path class="st2" d="M60.69,65.44h-10.05c-.52,0-.94-.42-.94-.94s.42-.94.94-.94h10.05c.52,0,.94.42.94.94s-.42.94-.94.94Z"/>
  <path class="st0" d="M48.29,50.19h-20.13c-.82,0-1.49-.67-1.49-1.49s.67-1.49,1.49-1.49h20.13c.82,0,1.49.67,1.49,1.49s-.67,1.49-1.49,1.49Z"/>
  <circle class="st5" cx="22.46" cy="48.66" r="2.11"/>
  <path class="st0" d="M51.13,42.9h-20.13c-.82,0-1.49-.67-1.49-1.49s.67-1.49,1.49-1.49h20.13c.82,0,1.49.67,1.49,1.49s-.67,1.49-1.49,1.49Z"/>
  <circle class="st5" cx="25.31" cy="41.37" r="2.11"/>
  <path class="st0" d="M95.79,50.19h-20.13c-.82,0-1.49-.67-1.49-1.49s.67-1.49,1.49-1.49h20.13c.82,0,1.49.67,1.49,1.49s-.67,1.49-1.49,1.49Z"/>
  <circle class="st1" cx="69.97" cy="48.66" r="2.11"/>
  <path class="st0" d="M113.79,42.9h-20.13c-.82,0-1.49-.67-1.49-1.49s.67-1.49,1.49-1.49h20.13c.82,0,1.49.67,1.49,1.49s-.67,1.49-1.49,1.49Z"/>
  <circle class="st1" cx="87.97" cy="41.37" r="2.11"/>
  <path class="st0" d="M70.87,88.24h-20.13c-.82,0-1.49-.67-1.49-1.49s.67-1.49,1.49-1.49h20.13c.82,0,1.49.67,1.49,1.49s-.67,1.49-1.49,1.49Z"/>
  <circle class="st3" cx="45.04" cy="86.71" r="2.11"/>
  <path class="st0" d="M85.9,80.95h-20.13c-.82,0-1.49-.67-1.49-1.49s.67-1.49,1.49-1.49h20.13c.82,0,1.49.67,1.49,1.49s-.67,1.49-1.49,1.49Z"/>
  <circle class="st3" cx="60.08" cy="79.42" r="2.11"/>
  <path class="st0" d="M116.41,88.24h-20.13c-.82,0-1.49-.67-1.49-1.49s.67-1.49,1.49-1.49h20.13c.82,0,1.49.67,1.49,1.49s-.67,1.49-1.49,1.49Z"/>
  <circle class="st4" cx="90.59" cy="86.71" r="2.11"/>
  <path class="st0" d="M119.26,80.95h-20.13c-.82,0-1.49-.67-1.49-1.49s.67-1.49,1.49-1.49h20.13c.82,0,1.49.67,1.49,1.49s-.67,1.49-1.49,1.49Z"/>
  <circle class="st4" cx="93.44" cy="79.42" r="2.11"/>
  <path class="st0" d="M122.44,15.71H29.13v-2.88c0-2.03-1.64-3.67-3.67-3.67h-13.06c-2.03,0-3.67,1.64-3.67,3.67v163.3c0,2.88,2.33,5.21,5.21,5.21h108.5c2.88,0,5.21-2.33,5.21-5.21V20.92c0-2.88-2.33-5.21-5.21-5.21ZM124.71,176.14c0,1.25-1.02,2.27-2.27,2.27H13.93c-1.25,0-2.27-1.02-2.27-2.27V20.92c0-1.25,1.02-2.27,2.27-2.27h108.5c1.25,0,2.27,1.02,2.27,2.27v155.21Z"/>
  <path class="st0" d="M50.64,18.07h-2.61v-4.94c0-.72-.59-1.31-1.31-1.31h-13.7c-.72,0-1.31.59-1.31,1.31v4.94h-2.61v-4.94c0-2.16,1.76-3.92,3.92-3.92h13.7c2.16,0,3.92,1.76,3.92,3.92v4.94Z"/>
  <rect class="st2" x="31.71" y="14.38" width="16.3" height="6.81"/>
  <g>
    <path class="st0" d="M51.95,18.07v-4.94c0-1.44,1.17-2.62,2.62-2.62h13.14c1.44,0,2.62,1.17,2.62,2.62v4.94"/>
    <path class="st0" d="M71.63,18.07h-2.61v-4.94c0-.72-.59-1.31-1.31-1.31h-13.14c-.72,0-1.31.59-1.31,1.31v4.94h-2.61v-4.94c0-2.16,1.76-3.92,3.92-3.92h13.14c2.16,0,3.92,1.76,3.92,3.92v4.94Z"/>
  </g>
  <path class="st6" d="M18.71,15.21l-.85.62c-.12.08-.27-.03-.23-.17l.32-1c.02-.06,0-.13-.05-.17l-.85-.62c-.12-.08-.06-.27.09-.27h1.05c.06,0,.12-.04.14-.1l.32-1c.04-.14.24-.14.28,0l.32,1c.02.06.08.1.14.1h1.05c.14,0,.2.18.09.27l-.85.62c-.05.04-.07.1-.05.17l.32,1c.04.14-.11.25-.23.17l-.85-.62c-.05-.04-.12-.04-.17,0Z"/>
  <path class="st12" d="M37.6,16.12l-.85.62c-.12.08-.27-.03-.23-.17l.32-1c.02-.06,0-.13-.05-.17l-.85-.62c-.12-.08-.06-.27.09-.27h1.05c.06,0,.12-.04.14-.1l.32-1c.04-.14.24-.14.28,0l.32,1c.02.06.08.1.14.1h1.05c.14,0,.2.18.09.27l-.85.62c-.05.04-.07.1-.05.17l.32,1c.04.14-.11.25-.23.17l-.85-.62c-.05-.04-.12-.04-.17,0Z"/>
  <path class="st12" d="M41.96,16.12l-.85.62c-.12.08-.27-.03-.23-.17l.32-1c.02-.06,0-.13-.05-.17l-.85-.62c-.12-.08-.06-.27.09-.27h1.05c.06,0,.12-.04.14-.1l.32-1c.04-.14.24-.14.28,0l.32,1c.02.06.08.1.14.1h1.05c.14,0,.2.18.09.27l-.85.62c-.05.04-.07.1-.05.17l.32,1c.04.14-.11.25-.23.17l-.85-.62c-.05-.04-.12-.04-.17,0Z"/>
  <path class="st6" d="M57.13,14.88l-.85.62c-.12.08-.27-.03-.23-.17l.32-1c.02-.06,0-.13-.05-.17l-.85-.62c-.12-.08-.06-.27.09-.27h1.05c.06,0,.12-.04.14-.1l.32-1c.04-.14.24-.14.28,0l.32,1c.02.06.08.1.14.1h1.05c.14,0,.2.18.09.27l-.85.62c-.05.04-.07.1-.05.17l.32,1c.04.14-.11.25-.23.17l-.85-.62c-.05-.04-.12-.04-.17,0Z"/>
  <path class="st6" d="M61.49,14.88l-.85.62c-.12.08-.27-.03-.23-.17l.32-1c.02-.06,0-.13-.05-.17l-.85-.62c-.12-.08-.06-.27.09-.27h1.05c.06,0,.12-.04.14-.1l.32-1c.04-.14.24-.14.28,0l.32,1c.02.06.08.1.14.1h1.05c.14,0,.2.18.09.27l-.85.62c-.05.04-.07.1-.05.17l.32,1c.04.14-.11.25-.23.17l-.85-.62c-.05-.04-.12-.04-.17,0Z"/>
  <path class="st6" d="M65.86,14.88l-.85.62c-.12.08-.27-.03-.23-.17l.32-1c.02-.06,0-.13-.05-.17l-.85-.62c-.12-.08-.06-.27.09-.27h1.05c.06,0,.12-.04.14-.1l.32-1c.04-.14.24-.14.28,0l.32,1c.02.06.08.1.14.1h1.05c.14,0,.2.18.09.27l-.85.62c-.05.04-.07.1-.05.17l.32,1c.04.14-.11.25-.23.17l-.85-.62c-.05-.04-.12-.04-.17,0Z"/>
  <path class="st6" d="M104.84,6.47c.14.64.36,1.26.63,1.86.13.29.59.39.84.22.52-.35,1.06-.66,1.63-.92.3-.14.61-.26.92-.37.28-.1.64-.27.94-.26.59.02,1.21.45,1.74.67.62.26,1.31.46,1.99.43s1.19-.3,1.8-.49c.68-.2,1.36-.03,2.04.1,1.41.26,2.84.39,4.27.4,1.63,0,3.26-.15,4.85-.46.77-.15.45-1.33-.33-1.18-2.8.55-5.74.58-8.54.05-.74-.14-1.48-.3-2.23-.17-.62.1-1.17.47-1.79.53-1.36.13-2.41-.99-3.72-1.09-.74-.05-1.57.36-2.23.65s-1.34.64-1.95,1.06l.84.22c-.23-.5-.39-1.03-.51-1.56-.17-.77-1.35-.44-1.18.33h0Z"/>
  <g>
    <path class="st14" d="M100.92,152.76c-8.36,0-15.16-6.8-15.16-15.16s6.8-15.16,15.16-15.16,15.16,6.8,15.16,15.16-6.8,15.16-15.16,15.16ZM100.92,128.33c-5.11,0-9.27,4.16-9.27,9.27s4.16,9.27,9.27,9.27,9.27-4.16,9.27-9.27-4.16-9.27-9.27-9.27Z"/>
    <path class="st10" d="M100.92,152.76c-1.63,0-2.94-1.32-2.94-2.94s1.32-2.94,2.94-2.94c5.11,0,9.27-4.16,9.27-9.27s-4.16-9.27-9.27-9.27c-1.63,0-2.94-1.32-2.94-2.94s1.32-2.94,2.94-2.94c8.36,0,15.16,6.8,15.16,15.16s-6.8,15.16-15.16,15.16Z"/>
  </g>
  <g>
    <path class="st14" d="M112.47,161.57h-21.99c-.81,0-1.47-.66-1.47-1.47s.66-1.47,1.47-1.47h21.99c.81,0,1.47.66,1.47,1.47s-.66,1.47-1.47,1.47Z"/>
    <path class="st14" d="M112.47,166.73h-21.99c-.81,0-1.47-.66-1.47-1.47s.66-1.47,1.47-1.47h21.99c.81,0,1.47.66,1.47,1.47s-.66,1.47-1.47,1.47Z"/>
  </g>
  <g>
    <rect class="st11" x="89.37" y="158.13" width="4.54" height="4.54" rx=".73" ry=".73"/>
    <g>
      <path class="st14" d="M91.64,161.96c-.14,0-.25-.11-.25-.25v-2.63c0-.14.11-.25.25-.25s.25.11.25.25v2.63c0,.14-.11.25-.25.25Z"/>
      <path class="st14" d="M92.95,160.65h-2.63c-.14,0-.25-.11-.25-.25s.11-.25.25-.25h2.63c.14,0,.25.11.25.25s-.11.25-.25.25Z"/>
    </g>
  </g>
  <g>
    <path class="st0" d="M114.39,105.01h-27.03c-.81,0-1.47-.66-1.47-1.47s.66-1.47,1.47-1.47h27.03c.81,0,1.47.66,1.47,1.47s-.66,1.47-1.47,1.47Z"/>
    <path class="st0" d="M114.39,110.16h-27.03c-.81,0-1.47-.66-1.47-1.47s.66-1.47,1.47-1.47h27.03c.81,0,1.47.66,1.47,1.47s-.66,1.47-1.47,1.47Z"/>
    <path class="st0" d="M103.56,115.3h-16.2c-.81,0-1.47-.66-1.47-1.47s.66-1.47,1.47-1.47h16.2c.81,0,1.47.66,1.47,1.47s-.66,1.47-1.47,1.47Z"/>
  </g>
  <g>
    <path class="st0" d="M76.46,125.1H18.44c-.7,0-1.27-.66-1.27-1.47s.57-1.47,1.27-1.47h58.03c.7,0,1.27.66,1.27,1.47s-.57,1.47-1.27,1.47Z"/>
    <path class="st0" d="M76.46,130.26H18.44c-.7,0-1.27-.66-1.27-1.47s.57-1.47,1.27-1.47h58.03c.7,0,1.27.66,1.27,1.47s-.57,1.47-1.27,1.47Z"/>
    <path class="st0" d="M76.46,135.41H18.44c-.7,0-1.27-.66-1.27-1.47s.57-1.47,1.27-1.47h58.03c.7,0,1.27.66,1.27,1.47s-.57,1.47-1.27,1.47Z"/>
    <path class="st0" d="M59.15,140.58H18.44c-.7,0-1.27-.66-1.27-1.47s.57-1.47,1.27-1.47h40.71c.7,0,1.27.66,1.27,1.47s-.57,1.47-1.27,1.47Z"/>
  </g>
  <g>
    <path class="st0" d="M76.46,104.59H18.44c-.7,0-1.27-.66-1.27-1.47s.57-1.47,1.27-1.47h58.03c.7,0,1.27.66,1.27,1.47s-.57,1.47-1.27,1.47Z"/>
    <path class="st0" d="M59.65,109.75H18.44c-.7,0-1.27-.66-1.27-1.47s.57-1.47,1.27-1.47h41.22c.7,0,1.27.66,1.27,1.47s-.57,1.47-1.27,1.47Z"/>
  </g>
  <path class="st12" d="M99.45,134.9c.76,0,1.28.48,1.28,1.18s-.52,1.18-1.28,1.18-1.27-.47-1.27-1.18.53-1.18,1.27-1.18ZM102.43,134.97h.75l-3.87,5.09h-.75l3.87-5.09ZM99.45,136.73c.41,0,.68-.26.68-.65s-.27-.65-.68-.65-.68.26-.68.65.28.65.68.65ZM102.3,137.75c.76,0,1.28.48,1.28,1.18s-.53,1.18-1.28,1.18-1.27-.47-1.27-1.18.53-1.18,1.27-1.18ZM102.3,139.58c.41,0,.68-.26.68-.65s-.28-.65-.68-.65-.68.26-.68.65.28.65.68.65Z"/>
</svg>