<?xml version="1.0" encoding="UTF-8"?>
<svg xmlns="http://www.w3.org/2000/svg" version="1.1" viewBox="0 0 134.74 190.23">
  <!-- Generator: Adobe Illustrator 29.8.3, SVG Export Plug-In . SVG Version: 2.1.1 Build 3)  -->
  <defs>
    <style>
      .st0 {
        fill: #f2f2f2;
      }

      .st1 {
        fill: #ed727d;
      }

      .st2 {
        fill: #fff;
      }

      .st3 {
        opacity: .3;
      }

      .st4 {
        fill: #f4f9f8;
      }

      .st5 {
        fill: #f7c027;
      }

      .st6 {
        fill: #d6e6e2;
      }

      .st7 {
        fill: #999;
      }

      .st7, .st8, .st9 {
        mix-blend-mode: multiply;
      }

      .st10 {
        isolation: isolate;
      }

      .st11, .st9, .st12 {
        fill: #318370;
      }

      .st13 {
        stroke: #318370;
      }

      .st13, .st14 {
        stroke-width: .5px;
      }

      .st13, .st14, .st15 {
        fill: none;
        stroke-linecap: round;
        stroke-linejoin: round;
      }

      .st13, .st15 {
        opacity: .1;
      }

      .st14 {
        stroke: #fff;
      }

      .st16 {
        fill: #f7f7f7;
      }

      .st17 {
        fill: #2160a9;
      }

      .st8 {
        fill: gray;
      }

      .st15 {
        stroke: #548170;
        stroke-width: 2.5px;
      }

      .st18 {
        fill: #f5f5f5;
      }

      .st19 {
        fill: gray;
      }

      .st12 {
        mix-blend-mode: screen;
      }

      .st20 {
        fill: #e8e8e8;
      }

      .st21 {
        fill: #eaf3f1;
      }
    </style>
  </defs>
  <g class="st10">
    <g id="Layer_1">
      <rect class="st16" x="21.23" y="19.74" width="95.89" height="8.17" rx="2.11" ry="2.11"/>
      <path class="st20" d="M60.87,25.06H26.42c-.7,0-1.27-.57-1.27-1.27s.57-1.27,1.27-1.27h34.46c.7,0,1.27.57,1.27,1.27s-.57,1.27-1.27,1.27Z"/>
      <g>
        <path class="st0" d="M112.81,35.22H25.82c-.59,0-1.07-.56-1.07-1.24s.48-1.24,1.07-1.24h86.99c.59,0,1.07.56,1.07,1.24s-.48,1.24-1.07,1.24Z"/>
        <path class="st0" d="M55.28,39.57h-29.46c-.59,0-1.07-.56-1.07-1.24s.48-1.24,1.07-1.24h29.46c.59,0,1.07.56,1.07,1.24s-.48,1.24-1.07,1.24Z"/>
      </g>
      <path class="st0" d="M17.21,180.06h102.96c2.88,0,5.21-2.33,5.21-5.21V15.43c0-2.88-2.33-5.21-5.21-5.21H17.86s-.65,0-.65,0h-8.09c-2.03,0-3.67,1.65-3.67,3.67v13.08c0,2.03,1.65,3.67,3.67,3.67h2.88v144.21c0,2.88,2.33,5.21,5.21,5.21ZM17.21,177.12c-1.25,0-2.27-1.02-2.27-2.27V15.43c0-1.25,1.02-2.27,2.27-2.27h102.96c1.25,0,2.27,1.02,2.27,2.27v159.42c0,1.25-1.02,2.27-2.27,2.27H17.21Z"/>
      <path class="st0" d="M9.53,51.81h4.94s0-2.62,0-2.62h-4.94c-.72,0-1.31-.59-1.31-1.31v-13.06c0-.72.59-1.31,1.31-1.31h4.94s0-2.62,0-2.62h-4.94c-2.16,0-3.93,1.76-3.93,3.93v13.06c0,2.16,1.76,3.93,3.93,3.93Z"/>
      <rect class="st2" x="10.69" y="33.6" width="6.82" height="15.74" transform="translate(28.2 82.94) rotate(-180)"/>
      <path class="st0" d="M14.47,53.54h-4.94c-1.45,0-2.62,1.17-2.62,2.62v13.06c0,1.45,1.17,2.62,2.62,2.62h4.94"/>
      <path class="st0" d="M9.53,73.14h4.94s0-2.62,0-2.62h-4.94c-.72,0-1.31-.59-1.31-1.31v-13.06c0-.72.59-1.31,1.31-1.31h4.94s0-2.62,0-2.62h-4.94c-2.16,0-3.93,1.76-3.93,3.93v13.06c0,2.16,1.76,3.93,3.93,3.93Z"/>
      <path class="st5" d="M11.6,21.16l.62-.85c.08-.12-.03-.27-.17-.23l-1,.33c-.06.02-.13,0-.17-.05l-.62-.85c-.08-.12-.27-.06-.27.09v1.05c0,.06-.04.12-.1.14l-1,.33c-.14.04-.14.24,0,.28l1,.33c.06.02.1.08.1.14v1.05c0,.14.18.2.27.09l.62-.85c.04-.05.1-.07.17-.05l1,.33c.14.04.25-.11.17-.23l-.62-.85c-.04-.05-.04-.12,0-.17Z"/>
      <path class="st11" d="M12.52,39.08l.62-.85c.08-.12-.03-.27-.17-.23l-1,.33c-.06.02-.13,0-.17-.05l-.62-.85c-.08-.12-.27-.06-.27.09v1.05c0,.06-.04.12-.1.14l-1,.33c-.14.04-.14.24,0,.28l1,.33c.06.02.1.08.1.14v1.05c0,.14.18.2.27.09l.62-.85c.04-.05.1-.07.17-.05l1,.33c.14.04.25-.11.17-.23l-.62-.85c-.04-.05-.04-.12,0-.17Z"/>
      <path class="st11" d="M12.52,43.45l.62-.85c.08-.12-.03-.27-.17-.23l-1,.33c-.06.02-.13,0-.17-.05l-.62-.85c-.08-.12-.27-.06-.27.09v1.05c0,.06-.04.12-.1.14l-1,.33c-.14.04-.14.24,0,.28l1,.33c.06.02.1.08.1.14v1.05c0,.14.18.2.27.09l.62-.85c.04-.05.1-.07.17-.05l1,.33c.14.04.25-.11.17-.23l-.62-.85c-.04-.05-.04-.12,0-.17Z"/>
      <g>
        <path class="st5" d="M11.28,58.63l.62-.85c.08-.12-.03-.27-.17-.23l-1,.33c-.06.02-.13,0-.17-.05l-.62-.85c-.08-.12-.27-.06-.27.09v1.05c0,.06-.04.12-.1.14l-1,.33c-.14.04-.14.24,0,.28l1,.33c.06.02.1.08.1.14v1.05c0,.14.18.2.27.09l.62-.85c.04-.05.1-.07.17-.05l1,.33c.14.04.25-.11.17-.23l-.62-.85c-.04-.05-.04-.12,0-.17Z"/>
        <path class="st5" d="M11.28,63l.62-.85c.08-.12-.03-.27-.17-.23l-1,.33c-.06.02-.13,0-.17-.05l-.62-.85c-.08-.12-.27-.06-.27.09v1.05c0,.06-.04.12-.1.14l-1,.33c-.14.04-.14.24,0,.28l1,.33c.06.02.1.08.1.14v1.05c0,.14.18.2.27.09l.62-.85c.04-.05.1-.07.17-.05l1,.33c.14.04.25-.11.17-.23l-.62-.85c-.04-.05-.04-.12,0-.17Z"/>
        <path class="st5" d="M11.28,67.37l.62-.85c.08-.12-.03-.27-.17-.23l-1,.33c-.06.02-.13,0-.17-.05l-.62-.85c-.08-.12-.27-.06-.27.09v1.05c0,.06-.04.12-.1.14l-1,.33c-.14.04-.14.24,0,.28l1,.33c.06.02.1.08.1.14v1.05c0,.14.18.2.27.09l.62-.85c.04-.05.1-.07.17-.05l1,.33c.14.04.25-.11.17-.23l-.62-.85c-.04-.05-.04-.12,0-.17Z"/>
      </g>
      <path class="st0" d="M52.5,59.14l-12.73,22.59c-.4.71-1.3.96-2,.56s-.96-1.3-.56-2l12.73-22.59c.4-.71,1.3-.96,2-.56s.96,1.3.56,2Z"/>
      <path class="st0" d="M98.33,87.61l-20.81-35.06c-.41-.7-.18-1.6.51-2.02s1.6-.18,2.02.51l20.81,35.06c.41.7.18,1.6-.51,2.02s-1.6.18-2.02-.51Z"/>
      <path class="st0" d="M88.38,108.69h-40.77c-.81,0-1.47-.66-1.47-1.47s.66-1.47,1.47-1.47h40.77c.81,0,1.47.66,1.47,1.47s-.66,1.47-1.47,1.47Z"/>
      <g>
        <g class="st3">
          <polygon class="st19" points="55.72 61.55 32.6 101.61 78.85 101.61 55.72 61.55"/>
          <polygon class="st1" points="49.89 71.66 32.6 101.61 67.18 101.61 49.89 71.66"/>
          <polygon class="st8" points="78.63 61.55 55.51 101.61 101.76 101.61 78.63 61.55"/>
          <polygon class="st7" points="84.47 71.66 67.17 101.61 101.76 101.61 84.47 71.66"/>
          <polygon class="st9" points="67.11 41.59 43.98 81.65 90.23 81.65 67.11 41.59"/>
          <polygon class="st12" points="67.04 41.58 49.74 71.53 84.33 71.53 67.04 41.58"/>
        </g>
        <path class="st2" d="M54.39,95.78h-12.1c-.61,0-1.1-.52-1.1-1.15s.49-1.15,1.1-1.15h12.1c.61,0,1.1.52,1.1,1.15s-.49,1.15-1.1,1.15Z"/>
        <path class="st2" d="M52.04,91.64h-6.65c-.61,0-1.1-.52-1.1-1.15s.49-1.15,1.1-1.15h6.65c.61,0,1.1.52,1.1,1.15s-.49,1.15-1.1,1.15Z"/>
        <path class="st2" d="M74.74,80.99h-17.55c-.61,0-1.1-.52-1.1-1.15s.49-1.15,1.1-1.15h17.55c.61,0,1.1.52,1.1,1.15s-.49,1.15-1.1,1.15Z"/>
        <path class="st2" d="M69.67,60.49h-6.65c-.61,0-1.1-.52-1.1-1.15s.49-1.15,1.1-1.15h6.65c.61,0,1.1.52,1.1,1.15s-.49,1.15-1.1,1.15Z"/>
        <path class="st2" d="M68.84,84.71h-6.65c-.61,0-1.1-.52-1.1-1.15s.49-1.15,1.1-1.15h6.65c.61,0,1.1.52,1.1,1.15s-.49,1.15-1.1,1.15Z"/>
        <g>
          <path class="st2" d="M90.62,91.43h-12.1c-.61,0-1.1-.52-1.1-1.15s.49-1.15,1.1-1.15h12.1c.61,0,1.1.52,1.1,1.15s-.49,1.15-1.1,1.15Z"/>
          <path class="st2" d="M87.66,95.36h-6.65c-.61,0-1.1-.52-1.1-1.15s.49-1.15,1.1-1.15h6.65c.61,0,1.1.52,1.1,1.15s-.49,1.15-1.1,1.15Z"/>
        </g>
      </g>
      <rect class="st21" x="21.16" y="115.38" width="95.63" height="8.17" rx="2.11" ry="2.11"/>
      <path class="st6" d="M63.7,120.7H29.24c-.7,0-1.27-.57-1.27-1.27s.57-1.27,1.27-1.27h34.46c.7,0,1.27.57,1.27,1.27s-.57,1.27-1.27,1.27Z"/>
      <path class="st6" d="M109.86,120.7h-11.44c-.7,0-1.27-.57-1.27-1.27s.57-1.27,1.27-1.27h11.44c.7,0,1.27.57,1.27,1.27s-.57,1.27-1.27,1.27Z"/>
      <rect class="st4" x="22.31" y="130.06" width="94.42" height="5.63"/>
      <line class="st15" x1="26.41" y1="132.88" x2="64.86" y2="132.88"/>
      <line class="st15" x1="79.91" y1="132.88" x2="85.46" y2="132.88"/>
      <line class="st15" x1="97.12" y1="132.88" x2="110.88" y2="132.88"/>
      <line class="st15" x1="30.81" y1="138.65" x2="60.62" y2="138.65"/>
      <line class="st15" x1="79.91" y1="138.65" x2="85.46" y2="138.65"/>
      <line class="st15" x1="99.39" y1="138.65" x2="109.15" y2="138.65"/>
      <g>
        <rect class="st4" x="22.31" y="141.41" width="94.42" height="5.63"/>
        <line class="st15" x1="26.41" y1="144.23" x2="64.86" y2="144.23"/>
        <line class="st15" x1="79.91" y1="144.23" x2="85.46" y2="144.23"/>
        <line class="st15" x1="97.57" y1="144.23" x2="111.33" y2="144.23"/>
      </g>
      <line class="st15" x1="30.81" y1="127.1" x2="60.62" y2="127.1"/>
      <line class="st15" x1="79.91" y1="127.1" x2="85.46" y2="127.1"/>
      <line class="st15" x1="99.39" y1="127.1" x2="109.15" y2="127.1"/>
      <line class="st13" x1="73.75" y1="115.71" x2="73.75" y2="147.32"/>
      <line class="st13" x1="92.18" y1="115.71" x2="92.18" y2="147.32"/>
      <line class="st14" x1="73.75" y1="115.71" x2="73.75" y2="123.69"/>
      <line class="st14" x1="92.18" y1="115.71" x2="92.18" y2="123.69"/>
      <path class="st6" d="M85.9,120.85h-6.44c-.7,0-1.27-.57-1.27-1.27s.57-1.27,1.27-1.27h6.44c.7,0,1.27.57,1.27,1.27s-.57,1.27-1.27,1.27Z"/>
      <path class="st0" d="M73.54,162.29H25.96c-.7,0-1.27-.66-1.27-1.47s.57-1.47,1.27-1.47h47.58c.7,0,1.27.66,1.27,1.47s-.57,1.47-1.27,1.47Z"/>
      <path class="st0" d="M113.49,156.84H25.96c-.7,0-1.27-.66-1.27-1.47s.57-1.47,1.27-1.47h87.53c.7,0,1.27.66,1.27,1.47s-.57,1.47-1.27,1.47Z"/>
      <g>
        <rect class="st1" x="102.07" y="92.57" width="5.18" height="5.18" rx=".83" ry=".83"/>
        <g>
          <path class="st2" d="M104.58,96.93h-.94c-.41,0-.74-.33-.74-.74v-2.06c0-.41.33-.74.74-.74h2.06c.41,0,.74.33.74.74v.94h-.28v-.94c0-.25-.21-.46-.46-.46h-2.06c-.25,0-.46.21-.46.46v2.06c0,.25.21.46.46.46h.94v.28Z"/>
          <path class="st2" d="M106.22,97.35h-.82c-.3,0-.54-.24-.54-.54v-.82c0-.3.24-.54.54-.54h.82c.3,0,.54.24.54.54v.82c0,.3-.24.54-.54.54ZM105.4,95.72c-.15,0-.27.12-.27.27v.82c0,.15.12.27.27.27h.82c.15,0,.27-.12.27-.27v-.82c0-.15-.12-.27-.27-.27h-.82Z"/>
          <path class="st2" d="M104.8,95.47s-.07-.01-.1-.04l-1.25-1.25c-.05-.05-.05-.14,0-.2s.14-.05.2,0l1.25,1.25c.05.05.05.14,0,.2-.03.03-.06.04-.1.04Z"/>
          <path class="st2" d="M104.99,95.52h-1.04c-.08,0-.14-.06-.14-.14s.06-.14.14-.14h.76v-.76c0-.08.06-.14.14-.14s.14.06.14.14v1.04Z"/>
        </g>
      </g>
      <path class="st0" d="M51.3,170.06h-19.4c-.81,0-1.47-.66-1.47-1.47s.66-1.47,1.47-1.47h19.4c.81,0,1.47.66,1.47,1.47s-.66,1.47-1.47,1.47Z"/>
      <g>
        <rect class="st17" x="25.06" y="166.61" width="4.54" height="4.54" rx=".73" ry=".73"/>
        <g>
          <path class="st18" d="M27.33,170.44c-.14,0-.25-.11-.25-.25v-2.63c0-.14.11-.25.25-.25s.25.11.25.25v2.63c0,.14-.11.25-.25.25Z"/>
          <path class="st18" d="M28.65,169.13h-2.63c-.14,0-.25-.11-.25-.25s.11-.25.25-.25h2.63c.14,0,.25.11.25.25s-.11.25-.25.25Z"/>
        </g>
      </g>
      <path class="st0" d="M82.44,170.06h-19.4c-.81,0-1.47-.66-1.47-1.47s.66-1.47,1.47-1.47h19.4c.81,0,1.47.66,1.47,1.47s-.66,1.47-1.47,1.47Z"/>
      <g>
        <rect class="st17" x="56.2" y="166.61" width="4.54" height="4.54" rx=".73" ry=".73"/>
        <g>
          <path class="st18" d="M58.47,170.44c-.14,0-.25-.11-.25-.25v-2.63c0-.14.11-.25.25-.25s.25.11.25.25v2.63c0,.14-.11.25-.25.25Z"/>
          <path class="st18" d="M59.79,169.13h-2.63c-.14,0-.25-.11-.25-.25s.11-.25.25-.25h2.63c.14,0,.25.11.25.25s-.11.25-.25.25Z"/>
        </g>
      </g>
      <path class="st0" d="M113.42,170.06h-19.4c-.81,0-1.47-.66-1.47-1.47s.66-1.47,1.47-1.47h19.4c.81,0,1.47.66,1.47,1.47s-.66,1.47-1.47,1.47Z"/>
      <g>
        <rect class="st17" x="87.19" y="166.61" width="4.54" height="4.54" rx=".73" ry=".73"/>
        <g>
          <path class="st18" d="M89.46,170.44c-.14,0-.25-.11-.25-.25v-2.63c0-.14.11-.25.25-.25s.25.11.25.25v2.63c0,.14-.11.25-.25.25Z"/>
          <path class="st18" d="M90.78,169.13h-2.63c-.14,0-.25-.11-.25-.25s.11-.25.25-.25h2.63c.14,0,.25.11.25.25s-.11.25-.25.25Z"/>
        </g>
      </g>
    </g>
  </g>
</svg>