<?xml version="1.0" encoding="UTF-8"?>
<svg id="Layer_1" xmlns="http://www.w3.org/2000/svg" version="1.1" viewBox="0 0 134.74 190.23">
  <!-- Generator: Adobe Illustrator 29.8.3, SVG Export Plug-In . SVG Version: 2.1.1 Build 3)  -->
  <defs>
    <style>
      .st0 {
        fill: #a7c0dd;
      }

      .st1 {
        fill: #f2f2f2;
      }

      .st2 {
        stroke-dasharray: 2.04 1.53;
      }

      .st2, .st3, .st4 {
        fill: none;
        stroke: #2160a9;
        stroke-linecap: round;
        stroke-width: .35px;
      }

      .st2, .st4 {
        stroke-linejoin: round;
      }

      .st5 {
        fill: #f9c026;
      }

      .st6 {
        fill: #fff;
      }

      .st7 {
        fill: #f7c027;
      }

      .st8 {
        fill: #fbe3e5;
      }

      .st9 {
        fill: #e0e0e0;
      }

      .st3 {
        stroke-dasharray: 2 2;
        stroke-miterlimit: 10;
      }

      .st10, .st11 {
        fill: #318370;
      }

      .st11 {
        opacity: .5;
      }

      .st12 {
        fill: #f7f7f7;
      }

      .st13 {
        fill: #d3dfee;
      }

      .st14 {
        fill: #2160a9;
      }

      .st15 {
        fill: #cbe0db;
      }

      .st16 {
        fill: #fdf2d4;
      }

      .st17 {
        fill: #fce6a9;
      }

      .st18 {
        fill: #c1dad4;
      }

      .st19 {
        fill: #e8e8e8;
      }

      .st20 {
        fill: #f7c3c1;
      }
    </style>
  </defs>
  <path class="st1" d="M121.82,176.8V32.59h2.88c2.03,0,3.67-1.65,3.67-3.67v-13.08c0-2.03-1.65-3.67-3.67-3.67H13.65c-2.88,0-5.21,2.33-5.21,5.21v159.42c0,2.88,2.33,5.21,5.21,5.21h102.96c2.88,0,5.21-2.33,5.21-5.21ZM13.65,179.07c-1.25,0-2.27-1.02-2.27-2.27V17.38c0-1.25,1.02-2.27,2.27-2.27h102.96c1.25,0,2.27,1.02,2.27,2.27v159.42c0,1.25-1.02,2.27-2.27,2.27H13.65Z"/>
  <path class="st1" d="M124.29,53.76h-4.94v-2.62h4.94c.72,0,1.31-.59,1.31-1.31v-13.06c0-.72-.59-1.31-1.31-1.31h-4.94v-2.62h4.94c2.16,0,3.93,1.76,3.93,3.93v13.06c0,2.16-1.76,3.93-3.93,3.93Z"/>
  <rect class="st6" x="116.31" y="56.9" width="6.82" height="15.74"/>
  <path class="st1" d="M118.97,33.84h4.94c1.45,0,2.62,1.17,2.62,2.62v13.06c0,1.45-1.17,2.62-2.62,2.62h-4.94"/>
  <path class="st1" d="M124.29,75.1h-4.94v-2.62h4.94c.72,0,1.31-.59,1.31-1.31v-13.06c0-.72-.59-1.31-1.31-1.31h-4.94v-2.62h4.94c2.16,0,3.93,1.76,3.93,3.93v13.06c0,2.16-1.76,3.93-3.93,3.93Z"/>
  <path class="st7" d="M122.22,23.11l-.62-.85c-.08-.12.03-.27.17-.23l1,.33c.06.02.13,0,.17-.05l.62-.85c.08-.12.27-.06.27.09v1.05c0,.06.04.12.1.14l1,.33c.14.04.14.24,0,.28l-1,.33c-.06.02-.1.08-.1.14v1.05c0,.14-.18.2-.27.09l-.62-.85c-.04-.05-.1-.07-.17-.05l-1,.33c-.14.04-.25-.11-.17-.23l.62-.85c.04-.05.04-.12,0-.17Z"/>
  <path class="st5" d="M122.04,41.18l-.62-.85c-.08-.12.03-.27.17-.23l1,.33c.06.02.13,0,.17-.05l.62-.85c.08-.12.27-.06.27.09v1.05c0,.06.04.12.1.14l1,.33c.14.04.14.24,0,.28l-1,.33c-.06.02-.1.08-.1.14v1.05c0,.14-.18.2-.27.09l-.62-.85c-.04-.05-.1-.07-.17-.05l-1,.33c-.14.04-.25-.11-.17-.23l.62-.85c.04-.05.04-.12,0-.17Z"/>
  <path class="st5" d="M122.04,45.55l-.62-.85c-.08-.12.03-.27.17-.23l1,.33c.06.02.13,0,.17-.05l.62-.85c.08-.12.27-.06.27.09v1.05c0,.06.04.12.1.14l1,.33c.14.04.14.24,0,.28l-1,.33c-.06.02-.1.08-.1.14v1.05c0,.14-.18.2-.27.09l-.62-.85c-.04-.05-.1-.07-.17-.05l-1,.33c-.14.04-.25-.11-.17-.23l.62-.85c.04-.05.04-.12,0-.17Z"/>
  <g>
    <path class="st10" d="M121.43,60.08l-.62-.85c-.08-.12.03-.27.17-.23l1,.33c.06.02.13,0,.17-.05l.62-.85c.08-.12.27-.06.27.09v1.05c0,.06.04.12.1.14l1,.33c.14.04.14.24,0,.28l-1,.33c-.06.02-.1.08-.1.14v1.05c0,.14-.18.2-.27.09l-.62-.85c-.04-.05-.1-.07-.17-.05l-1,.33c-.14.04-.25-.11-.17-.23l.62-.85c.04-.05.04-.12,0-.17Z"/>
    <path class="st10" d="M121.43,64.44l-.62-.85c-.08-.12.03-.27.17-.23l1,.33c.06.02.13,0,.17-.05l.62-.85c.08-.12.27-.06.27.09v1.05c0,.06.04.12.1.14l1,.33c.14.04.14.24,0,.28l-1,.33c-.06.02-.1.08-.1.14v1.05c0,.14-.18.2-.27.09l-.62-.85c-.04-.05-.1-.07-.17-.05l-1,.33c-.14.04-.25-.11-.17-.23l.62-.85c.04-.05.04-.12,0-.17Z"/>
    <path class="st10" d="M121.43,68.81l-.62-.85c-.08-.12.03-.27.17-.23l1,.33c.06.02.13,0,.17-.05l.62-.85c.08-.12.27-.06.27.09v1.05c0,.06.04.12.1.14l1,.33c.14.04.14.24,0,.28l-1,.33c-.06.02-.1.08-.1.14v1.05c0,.14-.18.2-.27.09l-.62-.85c-.04-.05-.1-.07-.17-.05l-1,.33c-.14.04-.25-.11-.17-.23l.62-.85c.04-.05.04-.12,0-.17Z"/>
  </g>
  <path class="st7" d="M105.09,7.43c.14-.65.36-1.26.63-1.86.13-.29.59-.39.84-.22.52.35,1.06.66,1.63.92.3.14.61.26.92.37.28.1.64.27.94.26.59-.02,1.21-.45,1.75-.67.63-.26,1.31-.46,1.99-.43s1.19.3,1.8.49c.68.2,1.36.03,2.04-.1,1.41-.26,2.84-.39,4.27-.4,1.63,0,3.26.15,4.86.46.77.15.45,1.33-.33,1.18-2.8-.55-5.74-.58-8.55-.05-.74.14-1.48.3-2.23.17-.62-.1-1.17-.47-1.79-.53-1.37-.13-2.41.99-3.73,1.09-.74.05-1.57-.36-2.24-.65s-1.34-.64-1.96-1.06l.84-.22c-.23.5-.39,1.03-.51,1.57-.17.77-1.35.44-1.18-.33h0Z"/>
  <rect class="st12" x="16.75" y="23.4" width="96.89" height="8.17" rx="2.11" ry="2.11"/>
  <path class="st19" d="M56.4,28.72H21.94c-.7,0-1.27-.57-1.27-1.27s.57-1.27,1.27-1.27h34.46c.7,0,1.27.57,1.27,1.27s-.57,1.27-1.27,1.27Z"/>
  <g>
    <path class="st1" d="M93.88,38.43H20.89c-.59,0-1.07-.56-1.07-1.24s.48-1.24,1.07-1.24h72.99c.59,0,1.07.56,1.07,1.24s-.48,1.24-1.07,1.24Z"/>
    <path class="st1" d="M50.35,42.78h-29.46c-.59,0-1.07-.56-1.07-1.24s.48-1.24,1.07-1.24h29.46c.59,0,1.07.56,1.07,1.24s-.48,1.24-1.07,1.24Z"/>
  </g>
  <rect class="st12" x="16.75" y="104.4" width="96.89" height="8.17" rx="2.11" ry="2.11"/>
  <path class="st19" d="M56.4,109.72H21.94c-.7,0-1.27-.57-1.27-1.27s.57-1.27,1.27-1.27h34.46c.7,0,1.27.57,1.27,1.27s-.57,1.27-1.27,1.27Z"/>
  <g>
    <rect class="st9" x="17.25" y="53.38" width="93.87" height=".12"/>
    <rect class="st9" x="17.25" y="61.91" width="93.87" height=".12"/>
    <rect class="st9" x="17.25" y="70.44" width="93.87" height=".12"/>
    <rect class="st9" x="17.25" y="78.98" width="93.87" height=".12"/>
    <rect class="st9" x="17.25" y="87.51" width="93.87" height=".12"/>
    <rect class="st9" x="102.53" y="44.79" width=".12" height="51.31"/>
    <rect class="st9" x="94" y="44.79" width=".12" height="51.31"/>
    <rect class="st9" x="85.46" y="44.79" width=".12" height="51.31"/>
    <rect class="st9" x="76.93" y="44.79" width=".12" height="51.31"/>
    <rect class="st9" x="68.39" y="44.79" width=".12" height="51.31"/>
    <rect class="st9" x="59.86" y="44.79" width=".12" height="51.31"/>
    <rect class="st9" x="51.33" y="44.79" width=".12" height="51.31"/>
    <rect class="st9" x="42.79" y="44.79" width=".12" height="51.31"/>
    <rect class="st9" x="34.26" y="44.79" width=".12" height="51.31"/>
    <rect class="st9" x="25.73" y="44.79" width=".12" height="51.31"/>
  </g>
  <rect class="st17" x="28.57" y="81.14" width="37.66" height="6.24" rx="3.12" ry="3.12"/>
  <path class="st16" d="M63.11,81.14h-7.2v6.24h7.2c1.72,0,3.12-1.4,3.12-3.12h0c0-1.72-1.4-3.12-3.12-3.12Z"/>
  <path class="st6" d="M46.68,83.42h-14.91c-.49,0-.9.4-.9.9s.4.9.9.9h14.91c.49,0,.9-.4.9-.9s-.4-.9-.9-.9Z"/>
  <g>
    <line class="st4" x1="58.37" y1="53.33" x2="59.37" y2="53.33"/>
    <path class="st2" d="M60.88,53.49c.95.36,1.63,1.28,1.63,2.36v2.9c0,1.4-1.13,2.53-2.53,2.53h0c-1.4,0-2.53,1.13-2.53,2.53v2.9c0,1.35,1.07,2.46,2.41,2.52"/>
    <line class="st4" x1="60.63" y1="69.24" x2="61.63" y2="69.24"/>
  </g>
  <line class="st3" x1="48.26" y1="96.2" x2="48.26" y2="45.43"/>
  <rect class="st20" x="20.27" y="73.65" width="60.73" height="6.24" rx="3.12" ry="3.12"/>
  <path class="st8" d="M77.88,73.65h-26.5v6.24h26.5c1.72,0,3.12-1.4,3.12-3.12h0c0-1.72-1.4-3.12-3.12-3.12Z"/>
  <path class="st6" d="M38.38,75.93h-14.91c-.49,0-.9.4-.9.9s.4.9.9.9h14.91c.49,0,.9-.4.9-.9s-.4-.9-.9-.9Z"/>
  <rect class="st11" x="61.54" y="66.09" width="37.27" height="6.24" rx="3.12" ry="3.12"/>
  <path class="st15" d="M95.69,66.09h-15.56v6.24h15.56c1.72,0,3.12-1.4,3.12-3.12s-1.4-3.12-3.12-3.12Z"/>
  <path class="st6" d="M81.97,68.32h-16.95c-.49,0-.9.4-.9.9s.4.9.9.9h16.95c.49,0,.9-.4.9-.9s-.4-.9-.9-.9Z"/>
  <rect class="st0" x="70.94" y="89.24" width="37.27" height="6.24" rx="3.12" ry="3.12"/>
  <path class="st13" d="M104.92,89.24h-5.49v6.24h5.67c1.78,0,3.21-1.49,3.11-3.29-.09-1.69-1.6-2.95-3.29-2.95Z"/>
  <path class="st6" d="M90.91,91.47h-16.95c-.49,0-.9.4-.9.9s.4.9.9.9h16.95c.49,0,.9-.4.9-.9s-.4-.9-.9-.9Z"/>
  <g>
    <rect class="st14" x="58.1" y="82.1" width="4.54" height="4.54" rx=".73" ry=".73"/>
    <path class="st6" d="M59.73,83.31c.33,0,.55.21.55.51s-.23.51-.55.51-.55-.2-.55-.51.23-.51.55-.51ZM61.02,83.35h.32l-1.68,2.2h-.32l1.68-2.2ZM59.73,84.11c.18,0,.29-.11.29-.28s-.12-.28-.29-.28-.3.11-.3.28.12.28.3.28ZM60.96,84.55c.33,0,.55.21.55.51s-.23.51-.55.51-.55-.21-.55-.51.23-.51.55-.51ZM60.96,85.34c.18,0,.3-.11.3-.28s-.12-.28-.3-.28-.29.11-.29.28.12.28.29.28Z"/>
  </g>
  <g>
    <rect class="st14" x="73.02" y="74.5" width="4.54" height="4.54" rx=".73" ry=".73"/>
    <path class="st6" d="M74.65,75.71c.33,0,.55.21.55.51s-.23.51-.55.51-.55-.2-.55-.51.23-.51.55-.51ZM75.94,75.74h.32l-1.68,2.2h-.32l1.68-2.2ZM74.65,76.5c.18,0,.29-.11.29-.28s-.12-.28-.29-.28-.3.11-.3.28.12.28.3.28ZM75.88,76.94c.33,0,.55.21.55.51s-.23.51-.55.51-.55-.21-.55-.51.23-.51.55-.51ZM75.88,77.74c.18,0,.3-.11.3-.28s-.12-.28-.3-.28-.29.11-.29.28.12.28.29.28Z"/>
  </g>
  <g>
    <rect class="st14" x="91.24" y="66.89" width="4.54" height="4.54" rx=".73" ry=".73"/>
    <path class="st6" d="M92.86,68.1c.33,0,.55.21.55.51s-.23.51-.55.51-.55-.2-.55-.51.23-.51.55-.51ZM94.15,68.13h.32l-1.68,2.2h-.32l1.68-2.2ZM92.86,68.89c.18,0,.29-.11.29-.28s-.12-.28-.29-.28-.3.11-.3.28.12.28.3.28ZM94.1,69.34c.33,0,.55.21.55.51s-.23.51-.55.51-.55-.21-.55-.51.23-.51.55-.51ZM94.1,70.13c.18,0,.3-.11.3-.28s-.12-.28-.3-.28-.29.11-.29.28.12.28.29.28Z"/>
  </g>
  <g>
    <rect class="st14" x="101.23" y="90.06" width="4.54" height="4.54" rx=".73" ry=".73"/>
    <path class="st6" d="M102.85,91.27c.33,0,.55.21.55.51s-.23.51-.55.51-.55-.2-.55-.51.23-.51.55-.51ZM104.14,91.3h.32l-1.68,2.2h-.32l1.68-2.2ZM102.85,92.06c.18,0,.29-.11.29-.28s-.12-.28-.29-.28-.3.11-.3.28.12.28.3.28ZM104.09,92.5c.33,0,.55.21.55.51s-.23.51-.55.51-.55-.21-.55-.51.23-.51.55-.51ZM104.09,93.3c.18,0,.3-.11.3-.28s-.12-.28-.3-.28-.29.11-.29.28.12.28.29.28Z"/>
  </g>
  <g>
    <path class="st1" d="M61.75,134.35H21.16c-.7,0-1.27-.66-1.27-1.47s.57-1.47,1.27-1.47h40.59c.7,0,1.27.66,1.27,1.47s-.57,1.47-1.27,1.47Z"/>
    <path class="st1" d="M61.75,139.51H21.16c-.7,0-1.27-.66-1.27-1.47s.57-1.47,1.27-1.47h40.59c.7,0,1.27.66,1.27,1.47s-.57,1.47-1.27,1.47Z"/>
    <path class="st1" d="M40.83,144.67h-19.67c-.7,0-1.27-.66-1.27-1.47s.57-1.47,1.27-1.47h19.67c.7,0,1.27.66,1.27,1.47s-.57,1.47-1.27,1.47Z"/>
  </g>
  <g>
    <path class="st1" d="M21.16,154.96h40.59c.7,0,1.27-.66,1.27-1.47s-.57-1.47-1.27-1.47H21.16c-.7,0-1.27.66-1.27,1.47s.57,1.47,1.27,1.47Z"/>
    <path class="st1" d="M61.75,157.17H21.16c-.7,0-1.27.66-1.27,1.47s.57,1.47,1.27,1.47h40.59c.7,0,1.27-.66,1.27-1.47s-.57-1.47-1.27-1.47Z"/>
    <path class="st1" d="M61.75,162.49H21.16c-.7,0-1.27.66-1.27,1.47s.57,1.47,1.27,1.47h40.59c.7,0,1.27-.66,1.27-1.47s-.57-1.47-1.27-1.47Z"/>
    <path class="st1" d="M41.75,167.65h-20.59c-.7,0-1.27.66-1.27,1.47s.57,1.47,1.27,1.47h20.59c.7,0,1.27-.66,1.27-1.47s-.57-1.47-1.27-1.47Z"/>
  </g>
  <path class="st1" d="M109.07,119.21H21.16c-.7,0-1.27-.66-1.27-1.47s.57-1.47,1.27-1.47h87.92c.7,0,1.27.66,1.27,1.47s-.57,1.47-1.27,1.47Z"/>
  <path class="st1" d="M54.47,124.37H21.16c-.7,0-1.27-.66-1.27-1.47s.57-1.47,1.27-1.47h33.31c.7,0,1.27.66,1.27,1.47s-.57,1.47-1.27,1.47Z"/>
  <g>
    <g>
      <rect class="st18" x="91.44" y="152.57" width="28.56" height="8.04" rx="1.18" ry="1.18" transform="translate(-50.87 262.3) rotate(-90)"/>
      <rect class="st13" x="83.48" y="154.23" width="25.24" height="8.04" rx="1.18" ry="1.18" transform="translate(-62.15 254.34) rotate(-90)"/>
      <rect class="st8" x="77.04" y="157.62" width="18.45" height="8.04" rx="1.18" ry="1.18" transform="translate(-75.37 247.91) rotate(-90)"/>
      <rect class="st16" x="70.92" y="161.33" width="11.04" height="8.04" rx="1.18" ry="1.18" transform="translate(-88.91 241.78) rotate(-90)"/>
    </g>
    <path class="st1" d="M73.31,151.45c-.48,0-.94-.26-1.18-.72-.33-.65-.08-1.45.57-1.78l29.74-15.27c.65-.33,1.45-.08,1.78.57.33.65.08,1.45-.57,1.78l-29.74,15.27c-.19.1-.4.15-.6.15Z"/>
    <polyline class="st1" points="99.89 130.76 108.74 131.54 104.52 139.08"/>
  </g>
  <rect class="st0" x="28.71" y="50.12" width="29.52" height="6.24" rx="3.12" ry="3.12"/>
  <path class="st13" d="M55.11,50.12h-6.75v6.24h6.75c1.72,0,3.12-1.4,3.12-3.12s-1.4-3.12-3.12-3.12Z"/>
  <path class="st6" d="M42.81,52.35h-11c-.49,0-.9.4-.9.9s.4.9.9.9h11c.49,0,.9-.4.9-.9s-.4-.9-.9-.9Z"/>
  <g>
    <rect class="st14" x="50.68" y="50.99" width="4.54" height="4.54" rx=".73" ry=".73"/>
    <path class="st6" d="M52.3,52.2c.33,0,.55.21.55.51s-.23.51-.55.51-.55-.2-.55-.51.23-.51.55-.51ZM53.59,52.24h.32l-1.68,2.2h-.32l1.68-2.2ZM52.3,53c.18,0,.29-.11.29-.28s-.12-.28-.29-.28-.3.11-.3.28.12.28.3.28ZM53.53,53.44c.33,0,.55.21.55.51s-.23.51-.55.51-.55-.21-.55-.51.23-.51.55-.51ZM53.53,54.23c.18,0,.3-.11.3-.28s-.12-.28-.3-.28-.29.11-.29.28.12.28.29.28Z"/>
  </g>
</svg>