<?xml version="1.0" encoding="UTF-8"?>
<svg id="Layer_1" xmlns="http://www.w3.org/2000/svg" version="1.1" viewBox="0 0 134.74 190.23">
  <!-- Generator: Adobe Illustrator 29.8.3, SVG Export Plug-In . SVG Version: 2.1.1 Build 3)  -->
  <defs>
    <style>
      .st0 {
        fill: #f2f2f2;
      }

      .st1 {
        fill: #fff;
      }

      .st2 {
        fill: #f7c027;
      }

      .st3 {
        fill: #fbe3e5;
      }

      .st4 {
        fill: #ccc;
      }

      .st5 {
        fill: #fceaeb;
      }

      .st6 {
        fill: #d6e6e2;
      }

      .st7 {
        fill: #dee7f2;
      }

      .st8 {
        fill: #fef2d4;
      }

      .st9 {
        fill: #2160a9;
      }

      .st10 {
        fill: #d2dfee;
      }

      .st11 {
        fill: #f5f5f5;
      }

      .st12 {
        fill: none;
        stroke: #f2f2f2;
        stroke-miterlimit: 10;
        stroke-width: 4px;
      }
    </style>
  </defs>
  <g>
    <circle class="st12" cx="66.82" cy="57.93" r="36.39"/>
    <circle class="st0" cx="66.82" cy="57.93" r="17.88"/>
  </g>
  <path class="st0" d="M117.7,119.2H32.71v-2.88c0-2.03-1.65-3.68-3.68-3.68h-13.08c-2.03,0-3.68,1.65-3.68,3.68v58.81c0,2.88,2.34,5.22,5.22,5.22h100.21c2.88,0,5.22-2.34,5.22-5.22v-50.71c0-2.88-2.34-5.22-5.22-5.22ZM119.98,175.13c0,1.25-1.02,2.27-2.27,2.27H17.49c-1.25,0-2.27-1.02-2.27-2.27v-50.71c0-1.25,1.02-2.27,2.27-2.27h100.21c1.25,0,2.27,1.02,2.27,2.27v50.71Z"/>
  <g>
    <path class="st11" d="M44.9,159.5h-22.4c-.81,0-1.47-.66-1.47-1.47s.66-1.47,1.47-1.47h22.4c.81,0,1.47.66,1.47,1.47s-.66,1.47-1.47,1.47Z"/>
    <path class="st11" d="M44.9,164.65h-22.4c-.81,0-1.47-.66-1.47-1.47s.66-1.47,1.47-1.47h22.4c.81,0,1.47.66,1.47,1.47s-.66,1.47-1.47,1.47Z"/>
    <path class="st11" d="M37.81,169.8h-15.31c-.81,0-1.47-.66-1.47-1.47s.66-1.47,1.47-1.47h15.31c.81,0,1.47.66,1.47,1.47s-.66,1.47-1.47,1.47Z"/>
  </g>
  <g>
    <path class="st11" d="M78.55,159.5h-22.91c-.81,0-1.47-.66-1.47-1.47s.66-1.47,1.47-1.47h22.91c.81,0,1.47.66,1.47,1.47s-.66,1.47-1.47,1.47Z"/>
    <path class="st11" d="M70.61,164.65h-14.97c-.81,0-1.47-.66-1.47-1.47s.66-1.47,1.47-1.47h14.97c.81,0,1.47.66,1.47,1.47s-.66,1.47-1.47,1.47Z"/>
    <path class="st11" d="M78.55,169.8h-22.91c-.81,0-1.47-.66-1.47-1.47s.66-1.47,1.47-1.47h22.91c.81,0,1.47.66,1.47,1.47s-.66,1.47-1.47,1.47Z"/>
  </g>
  <g>
    <path class="st11" d="M112.04,159.5h-23.99c-.81,0-1.47-.66-1.47-1.47s.66-1.47,1.47-1.47h23.99c.81,0,1.47.66,1.47,1.47s-.66,1.47-1.47,1.47Z"/>
    <path class="st11" d="M112.04,164.65h-23.99c-.81,0-1.47-.66-1.47-1.47s.66-1.47,1.47-1.47h23.99c.81,0,1.47.66,1.47,1.47s-.66,1.47-1.47,1.47Z"/>
  </g>
  <g>
    <rect class="st9" x="21.29" y="156.05" width="4.54" height="4.54" rx=".73" ry=".73"/>
    <g>
      <path class="st11" d="M23.56,159.88c-.14,0-.25-.11-.25-.25v-2.63c0-.14.11-.25.25-.25s.25.11.25.25v2.63c0,.14-.11.25-.25.25Z"/>
      <path class="st11" d="M24.87,158.57h-2.63c-.14,0-.25-.11-.25-.25s.11-.25.25-.25h2.63c.14,0,.25.11.25.25s-.11.25-.25.25Z"/>
    </g>
  </g>
  <g>
    <rect class="st9" x="54.34" y="156.05" width="4.54" height="4.54" rx=".73" ry=".73"/>
    <g>
      <path class="st11" d="M56.61,159.88c-.14,0-.25-.11-.25-.25v-2.63c0-.14.11-.25.25-.25s.25.11.25.25v2.63c0,.14-.11.25-.25.25Z"/>
      <path class="st11" d="M57.92,158.57h-2.63c-.14,0-.25-.11-.25-.25s.11-.25.25-.25h2.63c.14,0,.25.11.25.25s-.11.25-.25.25Z"/>
    </g>
  </g>
  <g>
    <rect class="st9" x="86.93" y="156.05" width="4.54" height="4.54" rx=".73" ry=".73"/>
    <g>
      <path class="st11" d="M89.21,159.88c-.14,0-.25-.11-.25-.25v-2.63c0-.14.11-.25.25-.25s.25.11.25.25v2.63c0,.14-.11.25-.25.25Z"/>
      <path class="st11" d="M90.52,158.57h-2.63c-.14,0-.25-.11-.25-.25s.11-.25.25-.25h2.63c.14,0,.25.11.25.25s-.11.25-.25.25Z"/>
    </g>
  </g>
  <circle class="st0" cx="34.12" cy="43.02" r="10.96"/>
  <circle class="st6" cx="36.35" cy="76.85" r="10.96"/>
  <circle class="st3" cx="66.84" cy="94.66" r="10.96"/>
  <circle class="st0" cx="96.73" cy="77.17" r="10.96"/>
  <circle class="st10" cx="100.63" cy="43.17" r="10.96"/>
  <circle class="st4" cx="67.06" cy="23.22" r="10.96"/>
  <g>
    <g>
      <path class="st0" d="M116.69,99.58h-25.03c-.81,0-1.47-.66-1.47-1.47s.66-1.47,1.47-1.47h25.03c.81,0,1.47.66,1.47,1.47s-.66,1.47-1.47,1.47Z"/>
      <path class="st0" d="M116.69,104.72h-25.03c-.81,0-1.47-.66-1.47-1.47s.66-1.47,1.47-1.47h25.03c.81,0,1.47.66,1.47,1.47s-.66,1.47-1.47,1.47Z"/>
      <path class="st0" d="M107.86,109.86h-16.2c-.81,0-1.47-.66-1.47-1.47s.66-1.47,1.47-1.47h16.2c.81,0,1.47.66,1.47,1.47s-.66,1.47-1.47,1.47Z"/>
    </g>
    <g>
      <rect class="st9" x="89.83" y="95.33" width="4.54" height="4.54" rx=".72" ry=".72"/>
      <path class="st1" d="M91.25,98.36c.16.15.3.43.57.25l1.53-1.53c.18-.22-.07-.52-.31-.35l-1.38,1.37c-.06,0-.46-.48-.54-.52-.14-.06-.32.02-.34.18-.03.19.35.48.47.6Z"/>
    </g>
  </g>
  <path class="st1" d="M77.07,58.07h-19.84c-.67,0-1.21-.54-1.21-1.21s.54-1.21,1.21-1.21h19.84c.67,0,1.21.54,1.21,1.21s-.54,1.21-1.21,1.21Z"/>
  <path class="st1" d="M73.56,62.32h-13.37c-.67,0-1.21-.54-1.21-1.21s.54-1.21,1.21-1.21h13.37c.67,0,1.21.54,1.21,1.21s-.54,1.21-1.21,1.21Z"/>
  <path class="st1" d="M39.55,77.91h-6.44c-.47,0-.85-.38-.85-.85s.38-.85.85-.85h6.44c.47,0,.85.38.85.85s-.38.85-.85.85Z"/>
  <path class="st1" d="M69.8,95.69h-6.44c-.47,0-.85-.38-.85-.85s.38-.85.85-.85h6.44c.47,0,.85.38.85.85s-.38.85-.85.85Z"/>
  <path class="st1" d="M100.03,78.07h-6.44c-.47,0-.85-.38-.85-.85s.38-.85.85-.85h6.44c.47,0,.85.38.85.85s-.38.85-.85.85Z"/>
  <path class="st1" d="M103.68,44.2h-6.44c-.47,0-.85-.38-.85-.85s.38-.85.85-.85h6.44c.47,0,.85.38.85.85s-.38.85-.85.85Z"/>
  <path class="st1" d="M70.41,24.15h-6.44c-.47,0-.85-.38-.85-.85s.38-.85.85-.85h6.44c.47,0,.85.38.85.85s-.38.85-.85.85Z"/>
  <path class="st1" d="M37.45,44.05h-6.44c-.47,0-.85-.38-.85-.85s.38-.85.85-.85h6.44c.47,0,.85.38.85.85s-.38.85-.85.85Z"/>
  <g>
    <path class="st7" d="M38.06,135.58c-.2-.35-.47-.53-.74-.53s-.54.18-.74.53l-4.14,7.17c-.38-.66-1.78-3.08-1.78-3.08-.2-.35-.47-.53-.74-.53s-.54.18-.74.53c0,0-1.7,2.94-2.1,3.64l-.62,1.08c-.41.71-.07,1.28.74,1.28h15.22c.81,0,1.15-.58.74-1.28l-5.09-8.82Z"/>
    <path class="st7" d="M30.66,136.29c1.14,0,2.06-.92,2.06-2.06s-.92-2.06-2.06-2.06-2.06.92-2.06,2.06.92,2.06,2.06,2.06Z"/>
    <path class="st7" d="M46.97,127.4h-24.32c-1.77,0-3.21,1.44-3.21,3.21v16.65c0,1.77,1.44,3.21,3.21,3.21h24.32c1.77,0,3.21-1.44,3.21-3.21v-16.65c0-1.77-1.44-3.21-3.21-3.21ZM48.26,147.25c0,.71-.58,1.28-1.29,1.28h-24.32c-.71,0-1.29-.58-1.29-1.28v-16.65c0-.71.58-1.28,1.29-1.28h24.32c.71,0,1.29.58,1.29,1.28v16.65Z"/>
  </g>
  <g>
    <path class="st5" d="M71.18,135.58c-.2-.35-.47-.53-.74-.53s-.54.18-.74.53l-4.14,7.17c-.38-.66-1.78-3.08-1.78-3.08-.2-.35-.47-.53-.74-.53s-.54.18-.74.53c0,0-1.7,2.94-2.1,3.64l-.62,1.08c-.41.71-.07,1.28.74,1.28h15.22c.81,0,1.15-.58.74-1.28l-5.09-8.82Z"/>
    <path class="st5" d="M63.77,136.29c1.14,0,2.06-.92,2.06-2.06s-.92-2.06-2.06-2.06-2.06.92-2.06,2.06.92,2.06,2.06,2.06Z"/>
    <path class="st5" d="M80.08,127.4h-24.32c-1.77,0-3.21,1.44-3.21,3.21v16.65c0,1.77,1.44,3.21,3.21,3.21h24.32c1.77,0,3.21-1.44,3.21-3.21v-16.65c0-1.77-1.44-3.21-3.21-3.21ZM81.37,147.25c0,.71-.58,1.28-1.29,1.28h-24.32c-.71,0-1.29-.58-1.29-1.28v-16.65c0-.71.58-1.28,1.29-1.28h24.32c.71,0,1.29.58,1.29,1.28v16.65Z"/>
  </g>
  <g>
    <path class="st8" d="M103.99,135.58c-.2-.35-.47-.53-.74-.53s-.54.18-.74.53l-4.14,7.17c-.38-.66-1.78-3.08-1.78-3.08-.2-.35-.47-.53-.74-.53s-.54.18-.74.53c0,0-1.7,2.94-2.1,3.64l-.62,1.08c-.41.71-.07,1.28.74,1.28h15.22c.81,0,1.15-.58.74-1.28l-5.09-8.82Z"/>
    <path class="st8" d="M96.58,136.29c1.14,0,2.06-.92,2.06-2.06s-.92-2.06-2.06-2.06-2.06.92-2.06,2.06.92,2.06,2.06,2.06Z"/>
    <path class="st8" d="M112.89,127.4h-24.32c-1.77,0-3.21,1.44-3.21,3.21v16.65c0,1.77,1.44,3.21,3.21,3.21h24.32c1.77,0,3.21-1.44,3.21-3.21v-16.65c0-1.77-1.44-3.21-3.21-3.21ZM114.18,147.25c0,.71-.58,1.28-1.29,1.28h-24.32c-.71,0-1.29-.58-1.29-1.28v-16.65c0-.71.58-1.28,1.29-1.28h24.32c.71,0,1.29.58,1.29,1.28v16.65Z"/>
  </g>
  <path class="st2" d="M10.18,6.23c.14.65.36,1.26.63,1.86.13.29.59.39.84.22.52-.35,1.06-.66,1.63-.92.3-.14.61-.26.92-.37.28-.1.64-.27.94-.26.59.02,1.21.45,1.75.67.63.26,1.31.46,1.99.43s1.19-.3,1.8-.49c.68-.2,1.36-.03,2.04.1,1.41.26,2.84.39,4.27.4,1.63,0,3.26-.15,4.86-.46.77-.15.45-1.33-.33-1.18-2.8.55-5.74.58-8.55.05-.74-.14-1.48-.3-2.23-.17-.62.1-1.17.47-1.79.53-1.37.13-2.41-.99-3.73-1.09-.74-.05-1.57.36-2.24.65s-1.34.64-1.96,1.06l.84.22c-.23-.5-.39-1.03-.51-1.57-.17-.77-1.35-.44-1.18.33h0Z"/>
  <g>
    <path class="st2" d="M18.33,118.19l-.85.62c-.12.08-.27-.03-.23-.17l.33-1c.02-.06,0-.13-.05-.17l-.85-.62c-.12-.08-.06-.27.09-.27h1.05c.06,0,.12-.04.14-.1l.33-1c.04-.14.24-.14.28,0l.33,1c.02.06.08.1.14.1h1.05c.14,0,.2.18.09.27l-.85.62c-.05.04-.07.1-.05.17l.33,1c.04.14-.11.25-.23.17l-.85-.62c-.05-.04-.12-.04-.17,0Z"/>
    <path class="st2" d="M22.7,118.19l-.85.62c-.12.08-.27-.03-.23-.17l.33-1c.02-.06,0-.13-.05-.17l-.85-.62c-.12-.08-.06-.27.09-.27h1.05c.06,0,.12-.04.14-.1l.33-1c.04-.14.24-.14.28,0l.33,1c.02.06.08.1.14.1h1.05c.14,0,.2.18.09.27l-.85.62c-.05.04-.07.1-.05.17l.33,1c.04.14-.11.25-.23.17l-.85-.62c-.05-.04-.12-.04-.17,0Z"/>
    <path class="st2" d="M27.07,118.19l-.85.62c-.12.08-.27-.03-.23-.17l.33-1c.02-.06,0-.13-.05-.17l-.85-.62c-.12-.08-.06-.27.09-.27h1.05c.06,0,.12-.04.14-.1l.33-1c.04-.14.24-.14.28,0l.33,1c.02.06.08.1.14.1h1.05c.14,0,.2.18.09.27l-.85.62c-.05.04-.07.1-.05.17l.33,1c.04.14-.11.25-.23.17l-.85-.62c-.05-.04-.12-.04-.17,0Z"/>
  </g>
  <path class="st1" d="M25.99,60.44h-6.44c-.47,0-.85-.38-.85-.85s.38-.85.85-.85h6.44c.47,0,.85.38.85.85s-.38.85-.85.85Z"/>
</svg>