<?xml version="1.0" encoding="UTF-8"?>
<svg id="Layer_1" xmlns="http://www.w3.org/2000/svg" version="1.1" viewBox="0 0 134.74 190.23">
  <!-- Generator: Adobe Illustrator 29.8.3, SVG Export Plug-In . SVG Version: 2.1.1 Build 3)  -->
  <defs>
    <style>
      .st0 {
        fill: #dfeafb;
      }

      .st1 {
        fill: #f2f2f2;
      }

      .st2 {
        fill: #fdecbe;
      }

      .st3 {
        fill: #ed727d;
      }

      .st4, .st5, .st6 {
        fill: #fff;
      }

      .st7 {
        fill: #f7c027;
      }

      .st8 {
        fill: #fbe3e5;
      }

      .st9 {
        fill: #318370;
      }

      .st10 {
        fill: #2160a9;
      }

      .st5 {
        stroke: #205fa9;
      }

      .st5, .st6 {
        stroke-miterlimit: 10;
        stroke-width: 1.5px;
      }

      .st11 {
        fill: #d2dfee;
      }

      .st12 {
        fill: #f5f5f5;
      }

      .st6 {
        stroke: #ed727d;
      }
    </style>
  </defs>
  <path class="st12" d="M55.18,171.82h-24.14c-.44,0-.83-.28-.97-.7l-7.45-22.7c-.14-.42.01-.88.37-1.14l19.52-14.04c.36-.26.83-.26,1.19,0l19.52,14.04c.36.26.51.72.37,1.14l-7.45,22.7c-.14.42-.53.7-.97.7ZM42.71,133.51h0,0Z"/>
  <g>
    <path class="st1" d="M65.95,117.71H24.4c-.7,0-1.27-.66-1.27-1.47s.57-1.47,1.27-1.47h41.54c.7,0,1.27.66,1.27,1.47s-.57,1.47-1.27,1.47Z"/>
    <path class="st1" d="M65.95,122.87H24.4c-.7,0-1.27-.66-1.27-1.47s.57-1.47,1.27-1.47h41.54c.7,0,1.27.66,1.27,1.47s-.57,1.47-1.27,1.47Z"/>
    <path class="st1" d="M48.02,128.03h-23.62c-.7,0-1.27-.66-1.27-1.47s.57-1.47,1.27-1.47h23.62c.7,0,1.27.66,1.27,1.47s-.57,1.47-1.27,1.47Z"/>
  </g>
  <path class="st1" d="M18.02,181.23h102.96c2.88,0,5.21-2.33,5.21-5.21V16.6c0-2.88-2.33-5.21-5.21-5.21H18.67s-.65,0-.65,0h-8.09c-2.03,0-3.67,1.65-3.67,3.67v13.08c0,2.03,1.65,3.67,3.67,3.67h2.88v144.21c0,2.88,2.33,5.21,5.21,5.21ZM18.02,178.29c-1.25,0-2.27-1.02-2.27-2.27V16.6c0-1.25,1.02-2.27,2.27-2.27h102.96c1.25,0,2.27,1.02,2.27,2.27v159.42c0,1.25-1.02,2.27-2.27,2.27H18.02Z"/>
  <path class="st1" d="M10.34,52.98h4.94s0-2.62,0-2.62h-4.94c-.72,0-1.31-.59-1.31-1.31v-13.06c0-.72.59-1.31,1.31-1.31h4.94s0-2.62,0-2.62h-4.94c-2.16,0-3.93,1.76-3.93,3.93v13.06c0,2.16,1.76,3.93,3.93,3.93Z"/>
  <rect class="st4" x="11.5" y="34.77" width="6.82" height="15.74" transform="translate(29.82 85.29) rotate(-180)"/>
  <path class="st1" d="M15.28,54.71h-4.94c-1.45,0-2.62,1.17-2.62,2.62v13.06c0,1.45,1.17,2.62,2.62,2.62h4.94"/>
  <path class="st1" d="M10.34,74.31h4.94s0-2.62,0-2.62h-4.94c-.72,0-1.31-.59-1.31-1.31v-13.06c0-.72.59-1.31,1.31-1.31h4.94s0-2.62,0-2.62h-4.94c-2.16,0-3.93,1.76-3.93,3.93v13.06c0,2.16,1.76,3.93,3.93,3.93Z"/>
  <path class="st7" d="M12.41,22.33l.62-.85c.08-.12-.03-.27-.17-.23l-1,.33c-.06.02-.13,0-.17-.05l-.62-.85c-.08-.12-.27-.06-.27.09v1.05c0,.06-.04.12-.1.14l-1,.33c-.14.04-.14.24,0,.28l1,.33c.06.02.1.08.1.14v1.05c0,.14.18.2.27.09l.62-.85c.04-.05.1-.07.17-.05l1,.33c.14.04.25-.11.17-.23l-.62-.85c-.04-.05-.04-.12,0-.17Z"/>
  <path class="st9" d="M13.33,40.25l.62-.85c.08-.12-.03-.27-.17-.23l-1,.33c-.06.02-.13,0-.17-.05l-.62-.85c-.08-.12-.27-.06-.27.09v1.05c0,.06-.04.12-.1.14l-1,.33c-.14.04-.14.24,0,.28l1,.33c.06.02.1.08.1.14v1.05c0,.14.18.2.27.09l.62-.85c.04-.05.1-.07.17-.05l1,.33c.14.04.25-.11.17-.23l-.62-.85c-.04-.05-.04-.12,0-.17Z"/>
  <path class="st9" d="M13.33,44.62l.62-.85c.08-.12-.03-.27-.17-.23l-1,.33c-.06.02-.13,0-.17-.05l-.62-.85c-.08-.12-.27-.06-.27.09v1.05c0,.06-.04.12-.1.14l-1,.33c-.14.04-.14.24,0,.28l1,.33c.06.02.1.08.1.14v1.05c0,.14.18.2.27.09l.62-.85c.04-.05.1-.07.17-.05l1,.33c.14.04.25-.11.17-.23l-.62-.85c-.04-.05-.04-.12,0-.17Z"/>
  <g>
    <path class="st7" d="M12.09,59.8l.62-.85c.08-.12-.03-.27-.17-.23l-1,.33c-.06.02-.13,0-.17-.05l-.62-.85c-.08-.12-.27-.06-.27.09v1.05c0,.06-.04.12-.1.14l-1,.33c-.14.04-.14.24,0,.28l1,.33c.06.02.1.08.1.14v1.05c0,.14.18.2.27.09l.62-.85c.04-.05.1-.07.17-.05l1,.33c.14.04.25-.11.17-.23l-.62-.85c-.04-.05-.04-.12,0-.17Z"/>
    <path class="st7" d="M12.09,64.17l.62-.85c.08-.12-.03-.27-.17-.23l-1,.33c-.06.02-.13,0-.17-.05l-.62-.85c-.08-.12-.27-.06-.27.09v1.05c0,.06-.04.12-.1.14l-1,.33c-.14.04-.14.24,0,.28l1,.33c.06.02.1.08.1.14v1.05c0,.14.18.2.27.09l.62-.85c.04-.05.1-.07.17-.05l1,.33c.14.04.25-.11.17-.23l-.62-.85c-.04-.05-.04-.12,0-.17Z"/>
    <path class="st7" d="M12.09,68.54l.62-.85c.08-.12-.03-.27-.17-.23l-1,.33c-.06.02-.13,0-.17-.05l-.62-.85c-.08-.12-.27-.06-.27.09v1.05c0,.06-.04.12-.1.14l-1,.33c-.14.04-.14.24,0,.28l1,.33c.06.02.1.08.1.14v1.05c0,.14.18.2.27.09l.62-.85c.04-.05.1-.07.17-.05l1,.33c.14.04.25-.11.17-.23l-.62-.85c-.04-.05-.04-.12,0-.17Z"/>
  </g>
  <g>
    <path class="st1" d="M95.98,105.16h-52.61c-.96,0-1.81-.61-2.11-1.53l-16.25-49.49c-.3-.92.02-1.92.81-2.49l42.55-30.6h0c.77-.56,1.81-.56,2.59,0l42.55,30.6c.79.57,1.12,1.57.81,2.49l-16.25,49.49c-.3.91-1.15,1.53-2.11,1.53ZM69.24,22.26l-42.55,30.6c-.26.19-.37.52-.27.83l16.25,49.49c.1.3.38.51.7.51h52.61c.32,0,.6-.2.7-.51l16.25-49.49c.1-.31,0-.64-.27-.83l-42.55-30.6c-.26-.19-.6-.19-.86,0h0Z"/>
    <path class="st1" d="M87.61,90.62h-35.88c-.32,0-.6-.21-.7-.51l-11-33.5c-.1-.31,0-.64.27-.83l28.94-20.81c.26-.19.6-.19.86,0l28.94,20.81c.26.19.37.52.27.83l-11,33.5c-.1.3-.38.51-.7.51ZM52.26,89.14h34.81l10.66-32.48-28.07-20.18-28.07,20.18,10.66,32.48Z"/>
    <path class="st1" d="M78.18,76.08h-17.01c-.32,0-.6-.21-.7-.51l-5.08-15.46c-.1-.31,0-.64.27-.83l13.58-9.77c.26-.19.6-.19.86,0l13.58,9.77c.26.19.37.52.27.83l-5.08,15.46c-.1.3-.38.51-.7.51ZM61.7,74.6h15.94l4.74-14.44-12.71-9.14-12.71,9.14,4.74,14.44Z"/>
    <path class="st1" d="M42.29,104.86c-.14,0-.28-.04-.41-.12-.34-.23-.43-.68-.21-1.02l27.25-41.19V21.38c0-.41.33-.74.74-.74s.74.33.74.74v41.37c0,.15-.04.29-.12.41l-27.38,41.37c-.14.21-.38.33-.62.33Z"/>
    <path class="st1" d="M96.85,104.86c-.24,0-.48-.12-.62-.33l-26.99-41.2-43.65-9.72c-.4-.09-.65-.48-.56-.88.09-.4.48-.65.88-.56l43.94,9.79c.19.04.35.16.46.32l27.16,41.45c.22.34.13.8-.21,1.02-.12.08-.27.12-.4.12Z"/>
    <path class="st1" d="M69.67,63.47c-.34,0-.64-.23-.72-.58-.09-.4.16-.79.56-.88l43.95-9.76c.4-.09.79.16.88.56.09.4-.16.79-.56.88l-43.95,9.76c-.05.01-.11.02-.16.02Z"/>
  </g>
  <path class="st11" d="M45.9,101.09c-.44,0-.86-.15-1.2-.45-.48-.41-.71-1.03-.63-1.66l2.82-20.1-13.97-23.06c-.48-.79-.3-1.81.42-2.39l34.94-28.32c.43-.35.99-.49,1.53-.37.54.11,1,.46,1.26.95l23.45,44.55c.33.63.27,1.39-.15,1.96l-13.44,18.14c-.24.32-.58.56-.96.67l-33.54,10c-.17.05-.35.08-.53.08ZM34.98,54.95l13.87,22.9c.22.36.31.79.25,1.21l-2.75,19.66,32.87-9.8,13.23-17.86-23.13-43.95-34.34,27.83ZM69.67,26.84h0ZM68.97,25.98h0,0Z"/>
  <path class="st8" d="M72.67,105.23c-.14,0-.28-.02-.42-.05-.49-.11-.9-.41-1.16-.84l-8.23-13.63c-.25-.41-.33-.89-.22-1.36l5.37-26.67c.06-.28.19-.54.37-.76l20.8-25.15c.44-.55,1.14-.79,1.82-.65.69.15,1.22.66,1.4,1.33l12.19,46.05c.21.78-.11,1.59-.79,2.03l-30.13,19.4c-.3.19-.65.29-1,.29ZM64.82,89.69l7.96,13.18,29.58-19.04-11.93-45.09-20.29,24.51-5.32,26.44Z"/>
  <circle class="st5" cx="34.35" cy="55.03" r="2.11"/>
  <circle class="st5" cx="47.91" cy="78.84" r="2.11"/>
  <circle class="st5" cx="45.63" cy="99.8" r="2.11"/>
  <circle class="st6" cx="64.09" cy="89.89" r="2.11"/>
  <circle class="st6" cx="72.29" cy="104.47" r="2.11"/>
  <circle class="st5" cx="69.86" cy="26.92" r="2.11"/>
  <circle class="st6" cx="90.97" cy="36.34" r="2.11"/>
  <circle class="st5" cx="80.15" cy="89.77" r="2.11"/>
  <circle class="st5" cx="93.48" cy="70.75" r="2.11"/>
  <circle class="st6" cx="103.62" cy="83.96" r="2.11"/>
  <path class="st4" d="M55.18,171.82h-24.14c-.44,0-.83-.28-.97-.7l-7.45-22.7c-.14-.42.01-.88.37-1.14l19.52-14.04c.36-.26.83-.26,1.19,0l19.52,14.04c.36.26.51.72.37,1.14l-7.45,22.7c-.14.42-.53.7-.97.7ZM43.11,133.73c-.07,0-.14.02-.2.06h0s-19.52,14.04-19.52,14.04c-.12.09-.17.24-.12.38l7.45,22.7c.05.14.18.23.32.23h24.14c.15,0,.28-.09.32-.23l7.45-22.7c.05-.14,0-.29-.12-.38l-19.52-14.04c-.06-.04-.13-.06-.2-.06ZM42.71,133.51h0,0Z"/>
  <path class="st4" d="M51.34,165.15h-16.46c-.15,0-.28-.09-.32-.23l-5.05-15.37c-.05-.14,0-.29.12-.38l13.28-9.55c.12-.08.28-.08.4,0l13.28,9.55c.12.09.17.24.12.38l-5.05,15.37c-.05.14-.18.23-.32.23ZM35.12,164.48h15.97l4.89-14.9-12.88-9.26-12.88,9.26,4.89,14.9Z"/>
  <path class="st0" d="M47.01,158.48h-7.81c-.15,0-.28-.09-.32-.23l-2.33-7.1c-.05-.14,0-.29.12-.38l6.23-4.48c.12-.08.28-.08.4,0l6.23,4.48c.12.09.17.24.12.38l-2.33,7.1c-.05.14-.18.23-.32.23ZM39.45,157.81h7.31l2.18-6.63-5.83-4.19-5.83,4.19,2.18,6.63Z"/>
  <path class="st2" d="M42.79,135.5l-16.03,12.99c-.13.11-.16.29-.08.44l6.44,10.63c.04.07.06.15.05.22l-1.3,9.28c-.03.24.2.44.43.37l15.39-4.59c.07-.02.13-.06.18-.12l6.17-8.32c.08-.1.09-.24.03-.36l-10.76-20.44c-.1-.19-.35-.24-.51-.11Z"/>
  <path class="st8" d="M44.66,171.3l13.82-8.9c.12-.08.18-.23.14-.37l-5.59-21.13c-.07-.27-.42-.34-.59-.13l-9.29,11.53s-.06.09-.07.14l-2.72,12.25c-.02.09,0,.17.04.25l3.78,6.25c.1.16.31.21.47.11Z"/>
  <path class="st4" d="M30.55,171.69c-.06,0-.13-.02-.19-.06-.16-.1-.2-.31-.1-.47l12.5-18.9v-18.88c0-.19.15-.34.34-.34s.34.15.34.34v18.98c0,.07-.02.13-.06.19l-12.56,18.98c-.07.1-.17.15-.28.15Z"/>
  <path class="st4" d="M55.58,171.69c-.11,0-.22-.05-.28-.15l-12.38-18.9-20.03-4.46c-.18-.04-.3-.22-.26-.4.04-.18.22-.3.4-.26l20.16,4.49c.09.02.16.07.21.15l12.46,19.02c.1.16.06.37-.1.47-.06.04-.12.06-.19.06Z"/>
  <path class="st4" d="M43.11,152.7c-.16,0-.3-.11-.33-.27-.04-.18.07-.36.26-.4l20.16-4.48c.18-.04.36.07.4.26.04.18-.07.36-.26.4l-20.16,4.48s-.05,0-.07,0Z"/>
  <g>
    <path class="st1" d="M113.49,117.69h-36.68c-.81,0-1.47-.66-1.47-1.47s.66-1.47,1.47-1.47h36.68c.81,0,1.47.66,1.47,1.47s-.66,1.47-1.47,1.47Z"/>
    <path class="st1" d="M113.49,122.83h-36.68c-.81,0-1.47-.66-1.47-1.47s.66-1.47,1.47-1.47h36.68c.81,0,1.47.66,1.47,1.47s-.66,1.47-1.47,1.47Z"/>
    <path class="st1" d="M93.02,127.98h-16.2c-.81,0-1.47-.66-1.47-1.47s.66-1.47,1.47-1.47h16.2c.81,0,1.47.66,1.47,1.47s-.66,1.47-1.47,1.47Z"/>
  </g>
  <g>
    <rect class="st10" x="74.98" y="113.62" width="4.54" height="4.54" rx=".72" ry=".72"/>
    <path class="st4" d="M76.41,116.66c.16.15.3.43.57.25l1.53-1.53c.18-.22-.07-.52-.31-.35l-1.38,1.37c-.06,0-.46-.48-.54-.52-.14-.06-.32.02-.34.18-.03.19.35.48.47.6Z"/>
  </g>
  <g>
    <rect class="st3" x="60.88" y="165.92" width="5.18" height="5.18" rx=".83" ry=".83"/>
    <g>
      <path class="st4" d="M63.39,170.28h-.94c-.41,0-.74-.33-.74-.74v-2.06c0-.41.33-.74.74-.74h2.06c.41,0,.74.33.74.74v.94h-.28v-.94c0-.25-.21-.46-.46-.46h-2.06c-.25,0-.46.21-.46.46v2.06c0,.25.21.46.46.46h.94v.28Z"/>
      <path class="st4" d="M65.03,170.69h-.82c-.3,0-.54-.24-.54-.54v-.82c0-.3.24-.54.54-.54h.82c.3,0,.54.24.54.54v.82c0,.3-.24.54-.54.54ZM64.22,169.07c-.15,0-.27.12-.27.27v.82c0,.15.12.27.27.27h.82c.15,0,.27-.12.27-.27v-.82c0-.15-.12-.27-.27-.27h-.82Z"/>
      <path class="st4" d="M63.61,168.82s-.07-.01-.1-.04l-1.25-1.25c-.05-.05-.05-.14,0-.2s.14-.05.2,0l1.25,1.25c.05.05.05.14,0,.2-.03.03-.06.04-.1.04Z"/>
      <path class="st4" d="M63.8,168.87h-1.04c-.08,0-.14-.06-.14-.14s.06-.14.14-.14h.76v-.76c0-.08.06-.14.14-.14s.14.06.14.14v1.04Z"/>
    </g>
  </g>
  <g>
    <rect class="st3" x="112.07" y="165.92" width="5.18" height="5.18" rx=".83" ry=".83"/>
    <g>
      <path class="st4" d="M114.58,170.28h-.94c-.41,0-.74-.33-.74-.74v-2.06c0-.41.33-.74.74-.74h2.06c.41,0,.74.33.74.74v.94h-.28v-.94c0-.25-.21-.46-.46-.46h-2.06c-.25,0-.46.21-.46.46v2.06c0,.25.21.46.46.46h.94v.28Z"/>
      <path class="st4" d="M116.22,170.69h-.82c-.3,0-.54-.24-.54-.54v-.82c0-.3.24-.54.54-.54h.82c.3,0,.54.24.54.54v.82c0,.3-.24.54-.54.54ZM115.41,169.07c-.15,0-.27.12-.27.27v.82c0,.15.12.27.27.27h.82c.15,0,.27-.12.27-.27v-.82c0-.15-.12-.27-.27-.27h-.82Z"/>
      <path class="st4" d="M114.8,168.82s-.07-.01-.1-.04l-1.25-1.25c-.05-.05-.05-.14,0-.2s.14-.05.2,0l1.25,1.25c.05.05.05.14,0,.2-.03.03-.06.04-.1.04Z"/>
      <path class="st4" d="M114.99,168.87h-1.04c-.08,0-.14-.06-.14-.14s.06-.14.14-.14h.76v-.76c0-.08.06-.14.14-.14s.14.06.14.14v1.04Z"/>
    </g>
  </g>
  <path class="st11" d="M95.4,135.72l-16.03,12.99c-.13.11-.16.29-.08.44l6.44,10.63c.04.07.06.15.05.22l-1.3,9.28c-.03.24.2.44.43.37l15.39-4.59c.07-.02.13-.06.18-.12l6.17-8.32c.08-.1.09-.24.03-.36l-10.76-20.44c-.1-.19-.35-.24-.51-.11Z"/>
  <path class="st8" d="M97.28,171.53l13.82-8.9c.12-.08.18-.23.14-.37l-5.59-21.13c-.07-.27-.42-.34-.59-.13l-9.29,11.53s-.06.09-.07.14l-2.72,12.25c-.02.09,0,.17.04.25l3.78,6.25c.1.16.31.21.47.11Z"/>
  <path class="st1" d="M107.79,172.05h-24.14c-.44,0-.83-.28-.97-.7l-7.45-22.7c-.14-.42.01-.88.37-1.14l19.52-14.04c.36-.26.83-.26,1.19,0l19.52,14.04c.36.26.51.72.37,1.14l-7.45,22.7c-.14.42-.53.7-.97.7ZM95.72,133.95c-.07,0-.14.02-.2.06h0s-19.52,14.04-19.52,14.04c-.12.09-.17.24-.12.38l7.45,22.7c.05.14.18.23.32.23h24.14c.15,0,.28-.09.32-.23l7.45-22.7c.05-.14,0-.29-.12-.38l-19.52-14.04c-.06-.04-.13-.06-.2-.06ZM95.32,133.74h0,0Z"/>
  <path class="st1" d="M103.95,165.38h-16.46c-.15,0-.28-.09-.32-.23l-5.05-15.37c-.05-.14,0-.29.12-.38l13.28-9.55c.12-.08.28-.08.4,0l13.28,9.55c.12.09.17.24.12.38l-5.05,15.37c-.05.14-.18.23-.32.23ZM87.73,164.71h15.97l4.89-14.9-12.88-9.26-12.88,9.26,4.89,14.9Z"/>
  <path class="st1" d="M99.62,158.71h-7.81c-.15,0-.28-.09-.32-.23l-2.33-7.1c-.05-.14,0-.29.12-.38l6.23-4.48c.12-.08.28-.08.4,0l6.23,4.48c.12.09.17.24.12.38l-2.33,7.1c-.05.14-.18.23-.32.23ZM92.06,158.04h7.31l2.18-6.63-5.83-4.19-5.83,4.19,2.18,6.63Z"/>
  <path class="st1" d="M83.16,171.92c-.06,0-.13-.02-.19-.06-.16-.1-.2-.31-.1-.47l12.5-18.9v-18.88c0-.19.15-.34.34-.34s.34.15.34.34v18.98c0,.07-.02.13-.06.19l-12.56,18.98c-.07.1-.17.15-.28.15Z"/>
  <path class="st1" d="M108.19,171.92c-.11,0-.22-.05-.28-.15l-12.38-18.9-20.03-4.46c-.18-.04-.3-.22-.26-.4.04-.18.22-.3.4-.26l20.16,4.49c.09.02.16.07.21.15l12.46,19.02c.1.16.06.37-.1.47-.06.04-.12.06-.19.06Z"/>
  <path class="st1" d="M95.72,152.93c-.16,0-.3-.11-.33-.27-.04-.18.07-.36.26-.4l20.16-4.48c.18-.04.36.07.4.26.04.18-.07.36-.26.4l-20.16,4.48s-.05,0-.07,0Z"/>
</svg>