<?xml version="1.0" encoding="utf-8"?>
<!-- Generator: Adobe Illustrator 28.1.0, SVG Export Plug-In . SVG Version: 6.00 Build 0)  -->
<svg version="1.1" id="Layer_1" xmlns="http://www.w3.org/2000/svg" xmlns:xlink="http://www.w3.org/1999/xlink" x="0px" y="0px"
	 viewBox="0 0 595.28 594.17" style="enable-background:new 0 0 595.28 594.17;" xml:space="preserve">
<style type="text/css">
	.st0{fill:#f29da4;}
	.st1{fill-rule:evenodd;clip-rule:evenodd;fill:#f29da4;}
	.st2{fill-rule:evenodd;clip-rule:evenodd;fill:#f29da4;}
	.st3{fill:#f29da4;}
</style>
<g>
	<path class="st0" d="M428.04,221.55c-7.54,4.09-10.55,13.28-7.07,21.13c11.05,24.89,16.85,52.14,16.85,79.65
		c0.02,107.96-87.79,195.81-195.75,195.84c-108.01,0.03-195.82-87.74-195.84-195.75c-0.02-107.96,87.79-195.81,195.75-195.83
		c41.66-0.01,82.06,13.24,115.3,37.56c6.82,4.99,16.38,3.75,21.88-2.67l0,0c6.25-7.29,4.84-18.29-2.92-23.95
		c-38.76-28.25-85.8-43.63-134.27-43.62C113.01,93.93,8.67,201.37,13.74,331.45c4.62,118.58,100.74,214.66,219.31,219.22
		c130.08,5.01,237.49-99.37,237.46-228.35c-0.01-32.08-6.77-63.86-19.67-92.91C446.95,220.64,436.48,216.97,428.04,221.55
		L428.04,221.55z"/>
	<path class="st0" d="M322.41,212.4c5.75-7.86,3.44-19.05-5.04-23.84c-22.89-12.93-48.62-19.69-75.37-19.69
		c-87.36,0.02-157.88,73.45-153.17,161.86c4.15,77.8,67.1,140.73,144.9,144.85c88.4,4.68,161.82-65.88,161.8-153.24
		c0-12.76-1.55-25.27-4.6-37.38c-2.38-9.44-12.62-14.55-21.7-11.04l0,0c-7.65,2.96-11.98,11.14-9.97,19.1
		c2.39,9.48,3.59,19.3,3.59,29.33c0.01,68.48-57.32,123.85-126.54,120.64c-61.81-2.87-111.99-53.02-114.88-114.83
		c-3.24-69.22,52.1-126.58,120.58-126.59c21.03,0,41.26,5.3,59.25,15.44C308.45,221.06,317.53,219.06,322.41,212.4L322.41,212.4z"/>
	<path class="st0" d="M242.11,268.49c3.42,0,6.76,0.32,10.03,0.94c7.37,1.4,14.74-2.42,17.87-9.24l0,0
		c4.45-9.72-1.48-20.95-11.99-22.91c-5.2-0.97-10.52-1.46-15.93-1.46c-43.59-0.02-80.96,32.93-86.01,76.23
		c-6.1,52.3,34.83,96.84,85.98,96.83c39.66-0.01,73.12-26.45,83.34-63.01c2.81-10.05-4.69-20.06-15.12-20.5l0,0
		c-7.65-0.33-14.36,4.74-16.48,12.09c-6.5,22.51-27.22,38.74-51.74,38.74c-33.4,0.01-59.8-30.49-52.75-65.06
		C194.44,285.95,216.41,268.46,242.11,268.49z"/>
	<path class="st0" d="M513.13,99.51l0-10.17l-0.08-64.12l-109.16,84.65l0.06,55.54L249.43,294.31c-2.4-0.63-4.88-1-7.41-1
		c-16.01,0-29.06,13.04-29.06,29.07c0,15.99,13.06,29,29.07,28.99c16.04,0,29.06-13.01,29.06-29.01c0-1.15-0.09-2.29-0.22-3.4
		l154.95-129.26l39.42,10.14l10.65,2.81l109.16-84.71L513.13,99.51z"/>
</g>
</svg>
