<?xml version="1.0" encoding="UTF-8"?>
<svg id="Layer_1" xmlns="http://www.w3.org/2000/svg" version="1.1" viewBox="0 0 134.74 190.23">
  <!-- Generator: Adobe Illustrator 29.8.3, SVG Export Plug-In . SVG Version: 2.1.1 Build 3)  -->
  <defs>
    <style>
      .st0 {
        fill: #a7c0dd;
      }

      .st1 {
        fill: #f2f2f2;
      }

      .st2 {
        stroke-dasharray: 2.04 1.53;
      }

      .st2, .st3, .st4 {
        fill: none;
        stroke: #2160a9;
        stroke-linecap: round;
        stroke-width: .35px;
      }

      .st2, .st4 {
        stroke-linejoin: round;
      }

      .st5, .st6 {
        fill: #fff;
      }

      .st6, .st7 {
        opacity: .5;
      }

      .st8 {
        fill: #f7c027;
      }

      .st9 {
        fill: #e0e0e0;
      }

      .st10 {
        fill: #accec6;
      }

      .st3 {
        stroke-dasharray: 2 2;
        stroke-miterlimit: 10;
      }

      .st11 {
        fill: #fadcdf;
      }

      .st12 {
        fill: #318370;
      }

      .st13 {
        fill: #f7f7f7;
      }

      .st14 {
        fill: #d3dfee;
      }

      .st15 {
        fill: #2160a9;
      }

      .st7 {
        fill: #ed727d;
      }

      .st16 {
        fill: #fdf2d4;
      }

      .st17 {
        fill: #fce6a9;
      }

      .st18 {
        fill: #d6e6e3;
      }

      .st19 {
        fill: #e8e8e8;
      }
    </style>
  </defs>
  <path class="st1" d="M121.02,176.8V32.59h2.88c2.03,0,3.67-1.65,3.67-3.67v-13.08c0-2.03-1.65-3.67-3.67-3.67H12.84c-2.88,0-5.21,2.33-5.21,5.21v159.42c0,2.88,2.33,5.21,5.21,5.21h102.96c2.88,0,5.21-2.33,5.21-5.21ZM12.84,179.07c-1.25,0-2.27-1.02-2.27-2.27V17.38c0-1.25,1.02-2.27,2.27-2.27h102.96c1.25,0,2.27,1.02,2.27,2.27v159.42c0,1.25-1.02,2.27-2.27,2.27H12.84Z"/>
  <path class="st1" d="M123.49,53.76h-4.94v-2.62h4.94c.72,0,1.31-.59,1.31-1.31v-13.06c0-.72-.59-1.31-1.31-1.31h-4.94v-2.62h4.94c2.16,0,3.93,1.76,3.93,3.93v13.06c0,2.16-1.76,3.93-3.93,3.93Z"/>
  <rect class="st5" x="115.5" y="35.55" width="6.82" height="15.74"/>
  <path class="st1" d="M118.54,55.49h4.94c1.45,0,2.62,1.17,2.62,2.62v13.06c0,1.45-1.17,2.62-2.62,2.62h-4.94"/>
  <path class="st1" d="M123.49,75.1h-4.94v-2.62h4.94c.72,0,1.31-.59,1.31-1.31v-13.06c0-.72-.59-1.31-1.31-1.31h-4.94v-2.62h4.94c2.16,0,3.93,1.76,3.93,3.93v13.06c0,2.16-1.76,3.93-3.93,3.93Z"/>
  <path class="st8" d="M121.41,23.11l-.62-.85c-.08-.12.03-.27.17-.23l1,.33c.06.02.13,0,.17-.05l.62-.85c.08-.12.27-.06.27.09v1.05c0,.06.04.12.1.14l1,.33c.14.04.14.24,0,.28l-1,.33c-.06.02-.1.08-.1.14v1.05c0,.14-.18.2-.27.09l-.62-.85c-.04-.05-.1-.07-.17-.05l-1,.33c-.14.04-.25-.11-.17-.23l.62-.85c.04-.05.04-.12,0-.17Z"/>
  <path class="st12" d="M120.49,41.03l-.62-.85c-.08-.12.03-.27.17-.23l1,.33c.06.02.13,0,.17-.05l.62-.85c.08-.12.27-.06.27.09v1.05c0,.06.04.12.1.14l1,.33c.14.04.14.24,0,.28l-1,.33c-.06.02-.1.08-.1.14v1.05c0,.14-.18.2-.27.09l-.62-.85c-.04-.05-.1-.07-.17-.05l-1,.33c-.14.04-.25-.11-.17-.23l.62-.85c.04-.05.04-.12,0-.17Z"/>
  <path class="st12" d="M120.49,45.4l-.62-.85c-.08-.12.03-.27.17-.23l1,.33c.06.02.13,0,.17-.05l.62-.85c.08-.12.27-.06.27.09v1.05c0,.06.04.12.1.14l1,.33c.14.04.14.24,0,.28l-1,.33c-.06.02-.1.08-.1.14v1.05c0,.14-.18.2-.27.09l-.62-.85c-.04-.05-.1-.07-.17-.05l-1,.33c-.14.04-.25-.11-.17-.23l.62-.85c.04-.05.04-.12,0-.17Z"/>
  <g>
    <path class="st8" d="M121.74,60.58l-.62-.85c-.08-.12.03-.27.17-.23l1,.33c.06.02.13,0,.17-.05l.62-.85c.08-.12.27-.06.27.09v1.05c0,.06.04.12.1.14l1,.33c.14.04.14.24,0,.28l-1,.33c-.06.02-.1.08-.1.14v1.05c0,.14-.18.2-.27.09l-.62-.85c-.04-.05-.1-.07-.17-.05l-1,.33c-.14.04-.25-.11-.17-.23l.62-.85c.04-.05.04-.12,0-.17Z"/>
    <path class="st8" d="M121.74,64.95l-.62-.85c-.08-.12.03-.27.17-.23l1,.33c.06.02.13,0,.17-.05l.62-.85c.08-.12.27-.06.27.09v1.05c0,.06.04.12.1.14l1,.33c.14.04.14.24,0,.28l-1,.33c-.06.02-.1.08-.1.14v1.05c0,.14-.18.2-.27.09l-.62-.85c-.04-.05-.1-.07-.17-.05l-1,.33c-.14.04-.25-.11-.17-.23l.62-.85c.04-.05.04-.12,0-.17Z"/>
    <path class="st8" d="M121.74,69.32l-.62-.85c-.08-.12.03-.27.17-.23l1,.33c.06.02.13,0,.17-.05l.62-.85c.08-.12.27-.06.27.09v1.05c0,.06.04.12.1.14l1,.33c.14.04.14.24,0,.28l-1,.33c-.06.02-.1.08-.1.14v1.05c0,.14-.18.2-.27.09l-.62-.85c-.04-.05-.1-.07-.17-.05l-1,.33c-.14.04-.25-.11-.17-.23l.62-.85c.04-.05.04-.12,0-.17Z"/>
  </g>
  <path class="st8" d="M8.58,7.04c.14.65.36,1.26.63,1.86.13.29.59.39.84.22.52-.35,1.06-.66,1.63-.92.3-.14.61-.26.92-.37.28-.1.64-.27.94-.26.59.02,1.21.45,1.75.67.63.26,1.31.46,1.99.43s1.19-.3,1.8-.49c.68-.2,1.36-.03,2.04.1,1.41.26,2.84.39,4.27.4,1.63,0,3.26-.15,4.86-.46.77-.15.45-1.33-.33-1.18-2.8.55-5.74.58-8.55.05-.74-.14-1.48-.3-2.23-.17-.62.1-1.17.47-1.79.53-1.37.13-2.41-.99-3.73-1.09-.74-.05-1.57.36-2.24.65s-1.34.64-1.96,1.06l.84.22c-.23-.5-.39-1.03-.51-1.57-.17-.77-1.35-.44-1.18.33h0Z"/>
  <rect class="st13" x="15.95" y="23.4" width="96.89" height="8.17" rx="2.11" ry="2.11"/>
  <path class="st19" d="M55.59,28.72H21.14c-.7,0-1.27-.57-1.27-1.27s.57-1.27,1.27-1.27h34.46c.7,0,1.27.57,1.27,1.27s-.57,1.27-1.27,1.27Z"/>
  <rect class="st13" x="15.95" y="98.33" width="96.89" height="8.17" rx="2.11" ry="2.11"/>
  <path class="st19" d="M55.59,103.65H21.14c-.7,0-1.27-.57-1.27-1.27s.57-1.27,1.27-1.27h34.46c.7,0,1.27.57,1.27,1.27s-.57,1.27-1.27,1.27Z"/>
  <g>
    <path class="st1" d="M108.03,54.21h-18.89c-.81,0-1.47-.66-1.47-1.47s.66-1.47,1.47-1.47h18.89c.81,0,1.47.66,1.47,1.47s-.66,1.47-1.47,1.47Z"/>
    <path class="st1" d="M101.03,59.37h-17.4c-.81,0-1.47-.66-1.47-1.47s.66-1.47,1.47-1.47h17.4c.81,0,1.47.66,1.47,1.47s-.66,1.47-1.47,1.47Z"/>
  </g>
  <g>
    <path class="st1" d="M108.03,66.89h-18.89c-.81,0-1.47-.66-1.47-1.47s.66-1.47,1.47-1.47h18.89c.81,0,1.47.66,1.47,1.47s-.66,1.47-1.47,1.47Z"/>
    <path class="st1" d="M101.03,72.04h-17.4c-.81,0-1.47-.66-1.47-1.47s.66-1.47,1.47-1.47h17.4c.81,0,1.47.66,1.47,1.47s-.66,1.47-1.47,1.47Z"/>
  </g>
  <g>
    <rect class="st15" x="82.42" y="50.76" width="4.54" height="4.54" rx=".73" ry=".73"/>
    <path class="st5" d="M84.05,51.97c.33,0,.55.21.55.51s-.23.51-.55.51-.55-.2-.55-.51.23-.51.55-.51ZM85.34,52h.32l-1.68,2.2h-.32l1.68-2.2ZM84.05,52.76c.18,0,.29-.11.29-.28s-.12-.28-.29-.28-.3.11-.3.28.12.28.3.28ZM85.28,53.2c.33,0,.55.21.55.51s-.23.51-.55.51-.55-.21-.55-.51.23-.51.55-.51ZM85.28,54c.18,0,.3-.11.3-.28s-.12-.28-.3-.28-.29.11-.29.28.12.28.29.28Z"/>
  </g>
  <g>
    <rect class="st15" x="82.42" y="63.48" width="4.54" height="4.54" rx=".73" ry=".73"/>
    <path class="st5" d="M84.05,64.69c.33,0,.55.21.55.51s-.23.51-.55.51-.55-.2-.55-.51.23-.51.55-.51ZM85.34,64.72h.32l-1.68,2.2h-.32l1.68-2.2ZM84.05,65.48c.18,0,.29-.11.29-.28s-.12-.28-.29-.28-.3.11-.3.28.12.28.3.28ZM85.28,65.92c.33,0,.55.21.55.51s-.23.51-.55.51-.55-.21-.55-.51.23-.51.55-.51ZM85.28,66.72c.18,0,.3-.11.3-.28s-.12-.28-.3-.28-.29.11-.29.28.12.28.29.28Z"/>
  </g>
  <g>
    <path class="st1" d="M108.03,79.87h-18.89c-.81,0-1.47-.66-1.47-1.47s.66-1.47,1.47-1.47h18.89c.81,0,1.47.66,1.47,1.47s-.66,1.47-1.47,1.47Z"/>
    <path class="st1" d="M101.03,85.03h-17.4c-.81,0-1.47-.66-1.47-1.47s.66-1.47,1.47-1.47h17.4c.81,0,1.47.66,1.47,1.47s-.66,1.47-1.47,1.47Z"/>
  </g>
  <g>
    <rect class="st15" x="82.42" y="76.47" width="4.54" height="4.54" rx=".73" ry=".73"/>
    <path class="st5" d="M84.05,77.68c.33,0,.55.21.55.51s-.23.51-.55.51-.55-.2-.55-.51.23-.51.55-.51ZM85.34,77.71h.32l-1.68,2.2h-.32l1.68-2.2ZM84.05,78.47c.18,0,.29-.11.29-.28s-.12-.28-.29-.28-.3.11-.3.28.12.28.3.28ZM85.28,78.91c.33,0,.55.21.55.51s-.23.51-.55.51-.55-.21-.55-.51.23-.51.55-.51ZM85.28,79.7c.18,0,.3-.11.3-.28s-.12-.28-.3-.28-.29.11-.29.28.12.28.29.28Z"/>
  </g>
  <g>
    <path class="st1" d="M74.49,54.45H20.35c-.7,0-1.27-.66-1.27-1.47s.57-1.47,1.27-1.47h54.14c.7,0,1.27.66,1.27,1.47s-.57,1.47-1.27,1.47Z"/>
    <path class="st1" d="M74.49,59.61H20.35c-.7,0-1.27-.66-1.27-1.47s.57-1.47,1.27-1.47h54.14c.7,0,1.27.66,1.27,1.47s-.57,1.47-1.27,1.47Z"/>
    <path class="st1" d="M53.57,64.77H20.35c-.7,0-1.27-.66-1.27-1.47s.57-1.47,1.27-1.47h33.22c.7,0,1.27.66,1.27,1.47s-.57,1.47-1.27,1.47Z"/>
  </g>
  <g>
    <path class="st1" d="M20.35,75.06h54.14c.7,0,1.27-.66,1.27-1.47s-.57-1.47-1.27-1.47H20.35c-.7,0-1.27.66-1.27,1.47s.57,1.47,1.27,1.47Z"/>
    <path class="st1" d="M74.49,77.27H20.35c-.7,0-1.27.66-1.27,1.47s.57,1.47,1.27,1.47h54.14c.7,0,1.27-.66,1.27-1.47s-.57-1.47-1.27-1.47Z"/>
    <path class="st1" d="M74.49,82.59H20.35c-.7,0-1.27.66-1.27,1.47s.57,1.47,1.27,1.47h54.14c.7,0,1.27-.66,1.27-1.47s-.57-1.47-1.27-1.47Z"/>
    <path class="st1" d="M54.49,87.75H20.35c-.7,0-1.27.66-1.27,1.47s.57,1.47,1.27,1.47h34.14c.7,0,1.27-.66,1.27-1.47s-.57-1.47-1.27-1.47Z"/>
  </g>
  <path class="st1" d="M108.27,39.31H20.35c-.7,0-1.27-.66-1.27-1.47s.57-1.47,1.27-1.47h87.92c.7,0,1.27.66,1.27,1.47s-.57,1.47-1.27,1.47Z"/>
  <path class="st1" d="M53.66,44.47H20.35c-.7,0-1.27-.66-1.27-1.47s.57-1.47,1.27-1.47h33.31c.7,0,1.27.66,1.27,1.47s-.57,1.47-1.27,1.47Z"/>
  <g>
    <path class="st1" d="M93.07,113.01H20.09c-.59,0-1.07-.56-1.07-1.24s.48-1.24,1.07-1.24h72.99c.59,0,1.07.56,1.07,1.24s-.48,1.24-1.07,1.24Z"/>
    <path class="st1" d="M49.54,117.36h-29.46c-.59,0-1.07-.56-1.07-1.24s.48-1.24,1.07-1.24h29.46c.59,0,1.07.56,1.07,1.24s-.48,1.24-1.07,1.24Z"/>
  </g>
  <g>
    <rect class="st9" x="16.44" y="127.96" width="93.87" height=".12"/>
    <rect class="st9" x="16.44" y="136.49" width="93.87" height=".12"/>
    <rect class="st9" x="16.44" y="145.03" width="93.87" height=".12"/>
    <rect class="st9" x="16.44" y="153.56" width="93.87" height=".12"/>
    <rect class="st9" x="16.44" y="162.09" width="93.87" height=".12"/>
    <rect class="st9" x="101.72" y="119.37" width=".12" height="51.31"/>
    <rect class="st9" x="93.19" y="119.37" width=".12" height="51.31"/>
    <rect class="st9" x="84.66" y="119.37" width=".12" height="51.31"/>
    <rect class="st9" x="76.12" y="119.37" width=".12" height="51.31"/>
    <rect class="st9" x="67.59" y="119.37" width=".12" height="51.31"/>
    <rect class="st9" x="59.05" y="119.37" width=".12" height="51.31"/>
    <rect class="st9" x="50.52" y="119.37" width=".12" height="51.31"/>
    <rect class="st9" x="41.99" y="119.37" width=".12" height="51.31"/>
    <rect class="st9" x="33.45" y="119.37" width=".12" height="51.31"/>
    <rect class="st9" x="24.92" y="119.37" width=".12" height="51.31"/>
  </g>
  <rect class="st0" x="19.35" y="132.52" width="29.52" height="6.24" rx="3.12" ry="3.12"/>
  <rect class="st17" x="19.26" y="124.73" width="37.66" height="6.24" rx="3.12" ry="3.12"/>
  <path class="st16" d="M53.8,124.73h-7.2v6.24h7.2c1.72,0,3.12-1.4,3.12-3.12h0c0-1.72-1.4-3.12-3.12-3.12Z"/>
  <path class="st14" d="M45.75,132.52h-6.75v6.24h6.75c1.72,0,3.12-1.4,3.12-3.12s-1.4-3.12-3.12-3.12Z"/>
  <path class="st5" d="M37.37,127.01h-14.91c-.49,0-.9.4-.9.9s.4.9.9.9h14.91c.49,0,.9-.4.9-.9s-.4-.9-.9-.9Z"/>
  <g>
    <line class="st4" x1="66.63" y1="151.11" x2="67.63" y2="151.11"/>
    <path class="st2" d="M69.14,151.28c.95.36,1.63,1.28,1.63,2.36v2.9c0,1.4-1.13,2.53-2.53,2.53h0c-1.4,0-2.53,1.13-2.53,2.53v2.9c0,1.35,1.07,2.46,2.41,2.52"/>
    <line class="st4" x1="68.89" y1="167.02" x2="69.89" y2="167.02"/>
  </g>
  <line class="st3" x1="88.77" y1="172.91" x2="88.77" y2="122.14"/>
  <path class="st5" d="M33.45,134.74h-11c-.49,0-.9.4-.9.9s.4.9.9.9h11c.49,0,.9-.4.9-.9s-.4-.9-.9-.9Z"/>
  <rect class="st10" x="34.65" y="140.34" width="60.73" height="6.24" rx="3.12" ry="3.12"/>
  <path class="st18" d="M92.27,140.34h-26.5v6.24h26.5c1.72,0,3.12-1.4,3.12-3.12h0c0-1.72-1.4-3.12-3.12-3.12Z"/>
  <path class="st5" d="M52.76,142.61h-14.91c-.49,0-.9.4-.9.9s.4.9.9.9h14.91c.49,0,.9-.4.9-.9s-.4-.9-.9-.9Z"/>
  <rect class="st7" x="29.69" y="147.91" width="37.27" height="6.24" rx="3.12" ry="3.12"/>
  <path class="st11" d="M63.84,147.91h-15.56v6.24h15.56c1.72,0,3.12-1.4,3.12-3.12s-1.4-3.12-3.12-3.12Z"/>
  <path class="st5" d="M50.11,150.13h-16.95c-.49,0-.9.4-.9.9s.4.9.9.9h16.95c.49,0,.9-.4.9-.9s-.4-.9-.9-.9Z"/>
  <path class="st6" d="M79.84,150.16h-3.99c-.49,0-.9.4-.9.9s.4.9.9.9h3.99c.49,0,.9-.4.9-.9s-.4-.9-.9-.9Z"/>
  <rect class="st0" x="70.14" y="163.82" width="37.27" height="6.24" rx="3.12" ry="3.12"/>
  <path class="st14" d="M104.11,163.82h-5.49v6.24h5.67c1.78,0,3.21-1.49,3.11-3.29-.09-1.69-1.6-2.95-3.29-2.95Z"/>
  <path class="st5" d="M90.11,166.05h-16.95c-.49,0-.9.4-.9.9s.4.9.9.9h16.95c.49,0,.9-.4.9-.9s-.4-.9-.9-.9Z"/>
  <g>
    <rect class="st15" x="48.79" y="125.7" width="4.54" height="4.54" rx=".73" ry=".73"/>
    <path class="st5" d="M50.41,126.91c.33,0,.55.21.55.51s-.23.51-.55.51-.55-.2-.55-.51.23-.51.55-.51ZM51.7,126.94h.32l-1.68,2.2h-.32l1.68-2.2ZM50.41,127.7c.18,0,.29-.11.29-.28s-.12-.28-.29-.28-.3.11-.3.28.12.28.3.28ZM51.65,128.14c.33,0,.55.21.55.51s-.23.51-.55.51-.55-.21-.55-.51.23-.51.55-.51ZM51.65,128.93c.18,0,.3-.11.3-.28s-.12-.28-.3-.28-.29.11-.29.28.12.28.29.28Z"/>
  </g>
  <g>
    <rect class="st15" x="41.31" y="133.38" width="4.54" height="4.54" rx=".73" ry=".73"/>
    <path class="st5" d="M42.94,134.6c.33,0,.55.21.55.51s-.23.51-.55.51-.55-.2-.55-.51.23-.51.55-.51ZM44.23,134.63h.32l-1.68,2.2h-.32l1.68-2.2ZM42.94,135.39c.18,0,.29-.11.29-.28s-.12-.28-.29-.28-.3.11-.3.28.12.28.3.28ZM44.17,135.83c.33,0,.55.21.55.51s-.23.51-.55.51-.55-.21-.55-.51.23-.51.55-.51ZM44.17,136.62c.18,0,.3-.11.3-.28s-.12-.28-.3-.28-.29.11-.29.28.12.28.29.28Z"/>
  </g>
  <g>
    <rect class="st15" x="87.41" y="141.18" width="4.54" height="4.54" rx=".73" ry=".73"/>
    <path class="st5" d="M89.03,142.39c.33,0,.55.21.55.51s-.23.51-.55.51-.55-.2-.55-.51.23-.51.55-.51ZM90.32,142.43h.32l-1.68,2.2h-.32l1.68-2.2ZM89.03,143.19c.18,0,.29-.11.29-.28s-.12-.28-.29-.28-.3.11-.3.28.12.28.3.28ZM90.27,143.63c.33,0,.55.21.55.51s-.23.51-.55.51-.55-.21-.55-.51.23-.51.55-.51ZM90.27,144.42c.18,0,.3-.11.3-.28s-.12-.28-.3-.28-.29.11-.29.28.12.28.29.28Z"/>
  </g>
  <g>
    <rect class="st15" x="59.38" y="148.71" width="4.54" height="4.54" rx=".73" ry=".73"/>
    <path class="st5" d="M61.01,149.92c.33,0,.55.21.55.51s-.23.51-.55.51-.55-.2-.55-.51.23-.51.55-.51ZM62.3,149.95h.32l-1.68,2.2h-.32l1.68-2.2ZM61.01,150.71c.18,0,.29-.11.29-.28s-.12-.28-.29-.28-.3.11-.3.28.12.28.3.28ZM62.24,151.15c.33,0,.55.21.55.51s-.23.51-.55.51-.55-.21-.55-.51.23-.51.55-.51ZM62.24,151.95c.18,0,.3-.11.3-.28s-.12-.28-.3-.28-.29.11-.29.28.12.28.29.28Z"/>
  </g>
  <g>
    <rect class="st15" x="100.42" y="164.64" width="4.54" height="4.54" rx=".73" ry=".73"/>
    <path class="st5" d="M102.05,165.85c.33,0,.55.21.55.51s-.23.51-.55.51-.55-.2-.55-.51.23-.51.55-.51ZM103.34,165.88h.32l-1.68,2.2h-.32l1.68-2.2ZM102.05,166.64c.18,0,.29-.11.29-.28s-.12-.28-.29-.28-.3.11-.3.28.12.28.3.28ZM103.28,167.08c.33,0,.55.21.55.51s-.23.51-.55.51-.55-.21-.55-.51.23-.51.55-.51ZM103.28,167.88c.18,0,.3-.11.3-.28s-.12-.28-.3-.28-.29.11-.29.28.12.28.29.28Z"/>
  </g>
</svg>