<?xml version="1.0" encoding="utf-8"?>
<!-- Generator: Adobe Illustrator 28.1.0, SVG Export Plug-In . SVG Version: 6.00 Build 0)  -->
<svg version="1.1" id="Layer_1" xmlns="http://www.w3.org/2000/svg" xmlns:xlink="http://www.w3.org/1999/xlink" x="0px" y="0px"
	 viewBox="0 0 595.28 594.17" style="enable-background:new 0 0 595.28 594.17;" xml:space="preserve">
<style type="text/css">
	.st0{fill:#fff;}
	.st1{fill-rule:evenodd;clip-rule:evenodd;fill:#2160a9;}
	.st2{fill-rule:evenodd;clip-rule:evenodd;fill:#688abe;}
	.st3{fill:#fff;}
</style>
<g>
	<polygon id="XMLID_00000025406648416052449140000014245736168212957330_" class="st1" points="259.19,233.31 299.14,210.25 
		339.08,233.31 379.02,256.37 379.02,210.25 379.02,164.12 418.96,141.06 458.91,118 438.56,106.25 299.14,25.76 179.31,94.94 
		59.48,164.12 59.48,282.23 59.48,325.12 59.48,348.61 99.42,325.55 139.36,302.49 179.31,325.55 219.25,348.61 219.25,302.49 
		219.25,256.37 	"/>
	<polygon id="XMLID_00000090981270041909965140000007984999839735037061_" class="st2" points="299.14,579.22 299.14,302.49 
		259.19,279.43 219.25,256.37 219.25,302.49 219.25,533.1 259.19,556.16 	"/>
	<polygon id="XMLID_00000049204296616871963490000001663259902763533209_" class="st1" points="299.14,579.22 299.14,302.49 
		339.08,279.43 379.02,256.37 379.02,302.49 379.02,533.1 339.08,556.16 	"/>
	<polygon id="XMLID_00000025442942771002504810000001302871280845664155_" class="st2" points="139.36,486.98 139.36,394.73 
		99.42,371.67 59.48,348.61 59.48,394.73 59.48,440.86 	"/>
	<polygon id="XMLID_00000163046806139993566940000006506672696671573182_" class="st1" points="139.36,486.98 139.36,394.73 
		179.31,371.67 219.25,348.61 219.25,394.73 219.25,533.1 179.31,510.04 	"/>
	<polygon id="XMLID_00000077309319563732328130000000851887721995638147_" class="st2" points="458.91,486.98 458.91,210.25 
		418.96,187.18 379.02,164.12 379.02,210.25 379.02,533.1 	"/>
	<polygon id="XMLID_00000165194581200797601780000002068141502964326068_" class="st1" points="458.91,486.98 458.91,210.25 
		498.85,187.18 538.79,164.12 538.79,210.25 538.79,440.86 498.85,463.92 	"/>
</g>
</svg>
