<?xml version="1.0" encoding="UTF-8"?>
<svg id="Layer_1" xmlns="http://www.w3.org/2000/svg" version="1.1" viewBox="0 0 134.74 190.23">
  <!-- Generator: Adobe Illustrator 29.8.3, SVG Export Plug-In . SVG Version: 2.1.1 Build 3)  -->
  <defs>
    <style>
      .st0 {
        fill: #f2f2f2;
      }

      .st1 {
        fill: #ed727d;
      }

      .st2 {
        fill: #f9c026;
      }

      .st3 {
        fill: #fff;
      }

      .st4 {
        fill: #f7c027;
      }

      .st5 {
        fill: #fad5d8;
      }

      .st6 {
        fill: #318370;
      }

      .st7 {
        fill: #c7d7e9;
      }

      .st8 {
        fill: #e5e5e5;
      }

      .st9 {
        fill: #2160a9;
      }

      .st10 {
        fill: #205fa9;
      }

      .st11 {
        fill: #fde6a8;
      }

      .st12 {
        fill: #f5f5f5;
      }

      .st13 {
        fill: #c1dad4;
      }
    </style>
  </defs>
  <path class="st0" d="M104.06,103.14c-.36,0-.64-.29-.64-.64V33.71c0-.36.29-.64.64-.64s.64.29.64.64v68.78c0,.36-.29.64-.64.64Z"/>
  <path class="st0" d="M91.16,103.14c-.36,0-.64-.29-.64-.64V33.71c0-.36.29-.64.64-.64s.64.29.64.64v68.78c0,.36-.29.64-.64.64Z"/>
  <path class="st0" d="M78.26,103.14c-.36,0-.64-.29-.64-.64V33.71c0-.36.29-.64.64-.64s.64.29.64.64v68.78c0,.36-.29.64-.64.64Z"/>
  <path class="st0" d="M65.36,103.14c-.36,0-.64-.29-.64-.64V33.71c0-.36.29-.64.64-.64s.64.29.64.64v68.78c0,.36-.29.64-.64.64Z"/>
  <path class="st0" d="M52.46,103.14c-.36,0-.64-.29-.64-.64V33.71c0-.36.29-.64.64-.64s.64.29.64.64v68.78c0,.36-.29.64-.64.64Z"/>
  <path class="st0" d="M32.75,65.07h-5.16c-.71,0-1.29-.58-1.29-1.29s.58-1.29,1.29-1.29h5.16c.71,0,1.29.58,1.29,1.29s-.58,1.29-1.29,1.29Z"/>
  <path class="st0" d="M32.72,50.65h-5.16c-.71,0-1.29-.58-1.29-1.29s.58-1.29,1.29-1.29h5.16c.71,0,1.29.58,1.29,1.29s-.58,1.29-1.29,1.29Z"/>
  <path class="st0" d="M32.75,78.78h-5.16c-.71,0-1.29-.58-1.29-1.29s.58-1.29,1.29-1.29h5.16c.71,0,1.29.58,1.29,1.29s-.58,1.29-1.29,1.29Z"/>
  <path class="st0" d="M32.75,91.55h-5.16c-.71,0-1.29-.58-1.29-1.29s.58-1.29,1.29-1.29h5.16c.71,0,1.29.58,1.29,1.29s-.58,1.29-1.29,1.29Z"/>
  <path class="st0" d="M39.48,103.47c-.36,0-.64-.29-.64-.64V34.04c0-.36.29-.64.64-.64s.64.29.64.64v68.78c0,.36-.29.64-.64.64Z"/>
  <path class="st0" d="M67.94,108.63h-5.16c-.71,0-1.29-.58-1.29-1.29s.58-1.29,1.29-1.29h5.16c.71,0,1.29.58,1.29,1.29s-.58,1.29-1.29,1.29Z"/>
  <path class="st0" d="M80.84,108.63h-5.16c-.71,0-1.29-.58-1.29-1.29s.58-1.29,1.29-1.29h5.16c.71,0,1.29.58,1.29,1.29s-.58,1.29-1.29,1.29Z"/>
  <path class="st0" d="M93.74,108.63h-5.16c-.71,0-1.29-.58-1.29-1.29s.58-1.29,1.29-1.29h5.16c.71,0,1.29.58,1.29,1.29s-.58,1.29-1.29,1.29Z"/>
  <path class="st0" d="M106.64,108.63h-5.16c-.71,0-1.29-.58-1.29-1.29s.58-1.29,1.29-1.29h5.16c.71,0,1.29.58,1.29,1.29s-.58,1.29-1.29,1.29Z"/>
  <path class="st0" d="M55.04,108.63h-5.16c-.71,0-1.29-.58-1.29-1.29s.58-1.29,1.29-1.29h5.16c.71,0,1.29.58,1.29,1.29s-.58,1.29-1.29,1.29Z"/>
  <path class="st0" d="M42.17,108.63h-5.16c-.71,0-1.29-.58-1.29-1.29s.58-1.29,1.29-1.29h5.16c.71,0,1.29.58,1.29,1.29s-.58,1.29-1.29,1.29Z"/>
  <path class="st13" d="M99.84,54.65h-55.47c-1.07,0-1.93-.87-1.93-1.93v-8.3c0-1.07.87-1.93,1.93-1.93h55.47c1.07,0,1.93.87,1.93,1.93v8.3c0,1.07-.87,1.93-1.93,1.93Z"/>
  <path class="st7" d="M94.2,68.05h-44.18c-1.07,0-1.93-.87-1.93-1.93v-8.3c0-1.07.87-1.93,1.93-1.93h44.18c1.07,0,1.93.87,1.93,1.93v8.3c0,1.07-.87,1.93-1.93,1.93Z"/>
  <path class="st11" d="M88.56,81.45h-32.89c-1.07,0-1.93-.87-1.93-1.93v-8.3c0-1.07.87-1.93,1.93-1.93h32.89c1.07,0,1.93.87,1.93,1.93v8.3c0,1.07-.87,1.93-1.93,1.93Z"/>
  <path class="st5" d="M84.53,94.85h-24.83c-1.07,0-1.93-.87-1.93-1.93v-8.3c0-1.07.87-1.93,1.93-1.93h24.83c1.07,0,1.93.87,1.93,1.93v8.3c0,1.07-.87,1.93-1.93,1.93Z"/>
  <path class="st3" d="M77.27,49.82h-10.32c-.53,0-.97-.43-.97-.97s.43-.97.97-.97h10.32c.53,0,.97.43.97.97s-.43.97-.97.97Z"/>
  <path class="st3" d="M77.27,62.93h-10.32c-.53,0-.97-.43-.97-.97s.43-.97.97-.97h10.32c.53,0,.97.43.97.97s-.43.97-.97.97Z"/>
  <path class="st3" d="M77.27,76.04h-10.32c-.53,0-.97-.43-.97-.97s.43-.97.97-.97h10.32c.53,0,.97.43.97.97s-.43.97-.97.97Z"/>
  <path class="st3" d="M77.27,89.58h-10.32c-.53,0-.97-.43-.97-.97s.43-.97.97-.97h10.32c.53,0,.97.43.97.97s-.43.97-.97.97Z"/>
  <polygon class="st12" points="134.81 17.83 .21 18.02 .21 .29 134.81 .31 134.81 17.83"/>
  <g>
    <path class="st3" d="M30.2,18.2v-5.29c0-1.45,1.18-2.63,2.63-2.63h13.12c1.45,0,2.63,1.18,2.63,2.63v5.29"/>
    <path class="st3" d="M49.9,18.2h-2.63v-5.29c0-.73-.59-1.32-1.32-1.32h-13.12c-.73,0-1.32.59-1.32,1.32v5.29h-2.63v-5.29c0-2.18,1.77-3.94,3.94-3.94h13.12c2.18,0,3.94,1.77,3.94,3.94v5.29Z"/>
  </g>
  <rect class="st3" x="36.09" y="9.59" width="6.85" height="15.81" transform="translate(22.01 57.01) rotate(-90)"/>
  <g>
    <path class="st8" d="M51.32,17.87v-4.96c0-1.45,1.18-2.63,2.63-2.63h13.12c1.45,0,2.63,1.18,2.63,2.63v4.96"/>
    <path class="st8" d="M71.01,17.87h-2.63v-4.96c0-.73-.59-1.32-1.32-1.32h-13.12c-.73,0-1.32.59-1.32,1.32v4.96h-2.63v-4.96c0-2.18,1.77-3.94,3.94-3.94h13.12c2.18,0,3.94,1.77,3.94,3.94v4.96Z"/>
  </g>
  <g>
    <path class="st8" d="M9.09,17.87v-4.96c0-1.45,1.18-2.63,2.63-2.63h13.12c1.45,0,2.63,1.18,2.63,2.63v4.96"/>
    <path class="st8" d="M28.78,17.87h-2.63v-4.96c0-.73-.59-1.32-1.32-1.32h-13.12c-.73,0-1.32.59-1.32,1.32v4.96h-2.63v-4.96c0-2.18,1.77-3.94,3.94-3.94h13.12c2.18,0,3.94,1.77,3.94,3.94v4.96Z"/>
  </g>
  <path class="st3" d="M17.87,14.66l-.86.62c-.12.08-.27-.03-.23-.17l.33-1.01c.02-.06,0-.13-.05-.17l-.86-.62c-.12-.08-.06-.27.09-.27h1.06c.06,0,.12-.04.14-.1l.33-1.01c.04-.14.24-.14.28,0l.33,1.01c.02.06.08.1.14.1h1.06c.14,0,.2.18.09.27l-.86.62c-.05.04-.07.11-.05.17l.33,1.01c.04.14-.11.25-.23.17l-.86-.62c-.05-.04-.12-.04-.18,0Z"/>
  <path class="st2" d="M37.11,14.74l-.86.62c-.12.08-.27-.03-.23-.17l.33-1.01c.02-.06,0-.13-.05-.17l-.86-.62c-.12-.08-.06-.27.09-.27h1.06c.06,0,.12-.04.14-.1l.33-1.01c.04-.14.24-.14.28,0l.33,1.01c.02.06.08.1.14.1h1.06c.14,0,.2.18.09.27l-.86.62c-.05.04-.07.11-.05.17l.33,1.01c.04.14-.11.25-.23.17l-.86-.62c-.05-.04-.12-.04-.18,0Z"/>
  <path class="st2" d="M41.5,14.74l-.86.62c-.12.08-.27-.03-.23-.17l.33-1.01c.02-.06,0-.13-.05-.17l-.86-.62c-.12-.08-.06-.27.09-.27h1.06c.06,0,.12-.04.14-.1l.33-1.01c.04-.14.24-.14.28,0l.33,1.01c.02.06.08.1.14.1h1.06c.14,0,.2.18.09.27l-.86.62c-.05.04-.07.11-.05.17l.33,1.01c.04.14-.11.25-.23.17l-.86-.62c-.05-.04-.12-.04-.18,0Z"/>
  <path class="st3" d="M56.11,14.66l-.86.62c-.12.08-.27-.03-.23-.17l.33-1.01c.02-.06,0-.13-.05-.17l-.86-.62c-.12-.08-.06-.27.09-.27h1.06c.06,0,.12-.04.14-.1l.33-1.01c.04-.14.24-.14.28,0l.33,1.01c.02.06.08.1.14.1h1.06c.14,0,.2.18.09.27l-.86.62c-.05.04-.07.11-.05.17l.33,1.01c.04.14-.11.25-.23.17l-.86-.62c-.05-.04-.12-.04-.18,0Z"/>
  <path class="st3" d="M60.5,14.66l-.86.62c-.12.08-.27-.03-.23-.17l.33-1.01c.02-.06,0-.13-.05-.17l-.86-.62c-.12-.08-.06-.27.09-.27h1.06c.06,0,.12-.04.14-.1l.33-1.01c.04-.14.24-.14.28,0l.33,1.01c.02.06.08.1.14.1h1.06c.14,0,.2.18.09.27l-.86.62c-.05.04-.07.11-.05.17l.33,1.01c.04.14-.11.25-.23.17l-.86-.62c-.05-.04-.12-.04-.18,0Z"/>
  <path class="st3" d="M64.89,14.66l-.86.62c-.12.08-.27-.03-.23-.17l.33-1.01c.02-.06,0-.13-.05-.17l-.86-.62c-.12-.08-.06-.27.09-.27h1.06c.06,0,.12-.04.14-.1l.33-1.01c.04-.14.24-.14.28,0l.33,1.01c.02.06.08.1.14.1h1.06c.14,0,.2.18.09.27l-.86.62c-.05.04-.07.11-.05.17l.33,1.01c.04.14-.11.25-.23.17l-.86-.62c-.05-.04-.12-.04-.18,0Z"/>
  <path class="st0" d="M118.55,137.83H28.59v-2.44c0-1.72-1.39-3.11-3.11-3.11h-11.07c-1.72,0-3.11,1.39-3.11,3.11v41.14c0,2.44,1.98,4.41,4.41,4.41h102.83c2.44,0,4.41-1.98,4.41-4.41v-34.29c0-2.44-1.98-4.41-4.41-4.41ZM120.47,176.53c0,1.06-.86,1.92-1.92,1.92H15.71c-1.06,0-1.92-.86-1.92-1.92v-34.29c0-1.06.86-1.92,1.92-1.92h102.83c1.06,0,1.92.86,1.92,1.92v34.29Z"/>
  <path class="st12" d="M114,149.05H24.07c-.69,0-1.25-.56-1.25-1.25s.56-1.25,1.25-1.25h89.94c.69,0,1.25.56,1.25,1.25s-.56,1.25-1.25,1.25Z"/>
  <path class="st12" d="M114,156.98H24.07c-.69,0-1.25-.56-1.25-1.25s.56-1.25,1.25-1.25h89.94c.69,0,1.25.56,1.25,1.25s-.56,1.25-1.25,1.25Z"/>
  <path class="st9" d="M20.3,147.46h-.72l-.23.93h.72v.36h-.8l-.26,1.05h-.39l.27-1.05h-.9l-.26,1.05h-.39l.27-1.05h-.61v-.36h.69l.23-.93h-.69v-.34h.77l.26-1.04h.39l-.26,1.04h.9l.26-1.04h.39l-.26,1.04h.63v.34ZM18.96,148.39l.23-.93h-.9l-.23.93h.9Z"/>
  <path class="st9" d="M20.3,154.93h-.72l-.23.93h.72v.36h-.8l-.26,1.05h-.39l.27-1.05h-.9l-.26,1.05h-.39l.27-1.05h-.61v-.36h.69l.23-.93h-.69v-.34h.77l.26-1.04h.39l-.26,1.04h.9l.26-1.04h.39l-.26,1.04h.63v.34ZM18.96,155.86l.23-.93h-.9l-.23.93h.9Z"/>
  <path class="st12" d="M114,164.47H24.07c-.69,0-1.25-.56-1.25-1.25s.56-1.25,1.25-1.25h89.94c.69,0,1.25.56,1.25,1.25s-.56,1.25-1.25,1.25Z"/>
  <path class="st9" d="M20.3,162.43h-.72l-.23.93h.72v.36h-.8l-.26,1.05h-.39l.27-1.05h-.9l-.26,1.05h-.39l.27-1.05h-.61v-.36h.69l.23-.93h-.69v-.34h.77l.26-1.04h.39l-.26,1.04h.9l.26-1.04h.39l-.26,1.04h.63v.34ZM18.96,163.36l.23-.93h-.9l-.23.93h.9Z"/>
  <path class="st12" d="M114,172.37H24.07c-.69,0-1.25-.56-1.25-1.25s.56-1.25,1.25-1.25h89.94c.69,0,1.25.56,1.25,1.25s-.56,1.25-1.25,1.25Z"/>
  <path class="st9" d="M20.3,170.33h-.72l-.23.93h.72v.36h-.8l-.26,1.05h-.39l.27-1.05h-.9l-.26,1.05h-.39l.27-1.05h-.61v-.36h.69l.23-.93h-.69v-.34h.77l.26-1.04h.39l-.26,1.04h.9l.26-1.04h.39l-.26,1.04h.63v.34ZM18.96,171.26l.23-.93h-.9l-.23.93h.9Z"/>
  <g>
    <path class="st4" d="M16.99,136.67l.27.85c.04.12-.1.21-.19.14l-.72-.53s-.1-.03-.15,0l-.72.52c-.1.07-.23-.03-.19-.14l.28-.85c.02-.05,0-.11-.05-.14l-.72-.53c-.1-.07-.05-.23.07-.23h.89c.05,0,.1-.03.12-.08l.28-.85c.04-.12.2-.11.24,0l.27.85c.02.05.06.09.12.09h.89c.12,0,.17.16.07.23l-.72.52s-.06.09-.05.14Z"/>
    <path class="st4" d="M21.02,136.67l.27.85c.04.12-.1.21-.19.14l-.72-.53s-.1-.03-.15,0l-.72.52c-.1.07-.23-.03-.19-.14l.28-.85c.02-.05,0-.11-.05-.14l-.72-.53c-.1-.07-.05-.23.07-.23h.89c.05,0,.1-.03.12-.08l.28-.85c.04-.12.2-.11.24,0l.27.85c.02.05.06.09.12.09h.89c.12,0,.17.16.07.23l-.72.52s-.06.09-.05.14Z"/>
    <path class="st4" d="M25.03,136.67l.27.85c.04.12-.1.21-.19.14l-.72-.53s-.1-.03-.15,0l-.72.52c-.1.07-.23-.03-.19-.14l.28-.85c.02-.05,0-.11-.05-.14l-.72-.53c-.1-.07-.05-.23.07-.23h.89c.05,0,.1-.03.12-.08l.28-.85c.04-.12.2-.11.24,0l.27.85c.02.05.06.09.12.09h.89c.12,0,.17.16.07.23l-.72.52s-.06.09-.05.14Z"/>
  </g>
  <path class="st0" d="M94.23,121.03h-40.77c-.81,0-1.47-.66-1.47-1.47s.66-1.47,1.47-1.47h40.77c.81,0,1.47.66,1.47,1.47s-.66,1.47-1.47,1.47Z"/>
  <g>
    <rect class="st9" x="46.07" y="117.52" width="4.54" height="4.54" rx=".73" ry=".73"/>
    <path class="st3" d="M47.7,118.73c.33,0,.55.21.55.51s-.23.51-.55.51-.55-.2-.55-.51.23-.51.55-.51ZM48.99,118.76h.32l-1.68,2.2h-.32l1.68-2.2ZM47.7,119.52c.18,0,.29-.11.29-.28s-.12-.28-.29-.28-.3.11-.3.28.12.28.3.28ZM48.93,119.96c.33,0,.55.21.55.51s-.23.51-.55.51-.55-.21-.55-.51.23-.51.55-.51ZM48.93,120.75c.18,0,.3-.11.3-.28s-.12-.28-.3-.28-.29.11-.29.28.12.28.29.28Z"/>
  </g>
  <path class="st0" d="M18.82,49.66v40.77c0,.81-.66,1.47-1.47,1.47s-1.47-.66-1.47-1.47v-40.77c0-.81.66-1.47,1.47-1.47s1.47.66,1.47,1.47Z"/>
  <g>
    <rect class="st1" x="80.7" y="88.45" width="5.18" height="5.18" rx=".83" ry=".83"/>
    <g>
      <path class="st3" d="M83.2,92.8h-.94c-.41,0-.74-.33-.74-.74v-2.06c0-.41.33-.74.74-.74h2.06c.41,0,.74.33.74.74v.94h-.28v-.94c0-.25-.21-.46-.46-.46h-2.06c-.25,0-.46.21-.46.46v2.06c0,.25.21.46.46.46h.94v.28Z"/>
      <path class="st3" d="M84.85,93.22h-.82c-.3,0-.54-.24-.54-.54v-.82c0-.3.24-.54.54-.54h.82c.3,0,.54.24.54.54v.82c0,.3-.24.54-.54.54ZM84.03,91.59c-.15,0-.27.12-.27.27v.82c0,.15.12.27.27.27h.82c.15,0,.27-.12.27-.27v-.82c0-.15-.12-.27-.27-.27h-.82Z"/>
      <path class="st3" d="M83.42,91.34s-.07-.01-.1-.04l-1.25-1.25c-.05-.05-.05-.14,0-.2s.14-.05.2,0l1.25,1.25c.05.05.05.14,0,.2-.03.03-.06.04-.1.04Z"/>
      <path class="st3" d="M83.61,91.39h-1.04c-.08,0-.14-.06-.14-.14s.06-.14.14-.14h.76v-.76c0-.08.06-.14.14-.14s.14.06.14.14v1.04Z"/>
    </g>
  </g>
  <g>
    <rect class="st2" x="85.4" y="76.27" width="5.18" height="5.18" rx=".83" ry=".83"/>
    <g>
      <path class="st3" d="M87.91,80.63h-.94c-.41,0-.74-.33-.74-.74v-2.06c0-.41.33-.74.74-.74h2.06c.41,0,.74.33.74.74v.94h-.28v-.94c0-.25-.21-.46-.46-.46h-2.06c-.25,0-.46.21-.46.46v2.06c0,.25.21.46.46.46h.94v.28Z"/>
      <path class="st3" d="M89.56,81.05h-.82c-.3,0-.54-.24-.54-.54v-.82c0-.3.24-.54.54-.54h.82c.3,0,.54.24.54.54v.82c0,.3-.24.54-.54.54ZM88.74,79.42c-.15,0-.27.12-.27.27v.82c0,.15.12.27.27.27h.82c.15,0,.27-.12.27-.27v-.82c0-.15-.12-.27-.27-.27h-.82Z"/>
      <path class="st3" d="M88.13,79.17s-.07-.01-.1-.04l-1.25-1.25c-.05-.05-.05-.14,0-.2s.14-.05.2,0l1.25,1.25c.05.05.05.14,0,.2-.03.03-.06.04-.1.04Z"/>
      <path class="st3" d="M88.32,79.22h-1.04c-.08,0-.14-.06-.14-.14s.06-.14.14-.14h.76v-.76c0-.08.06-.14.14-.14s.14.06.14.14v1.04Z"/>
    </g>
  </g>
  <g>
    <rect class="st10" x="91.16" y="62.93" width="5.18" height="5.18" rx=".83" ry=".83"/>
    <g>
      <path class="st3" d="M93.66,67.29h-.94c-.41,0-.74-.33-.74-.74v-2.06c0-.41.33-.74.74-.74h2.06c.41,0,.74.33.74.74v.94h-.28v-.94c0-.25-.21-.46-.46-.46h-2.06c-.25,0-.46.21-.46.46v2.06c0,.25.21.46.46.46h.94v.28Z"/>
      <path class="st3" d="M95.31,67.7h-.82c-.3,0-.54-.24-.54-.54v-.82c0-.3.24-.54.54-.54h.82c.3,0,.54.24.54.54v.82c0,.3-.24.54-.54.54ZM94.49,66.07c-.15,0-.27.12-.27.27v.82c0,.15.12.27.27.27h.82c.15,0,.27-.12.27-.27v-.82c0-.15-.12-.27-.27-.27h-.82Z"/>
      <path class="st3" d="M93.88,65.82s-.07-.01-.1-.04l-1.25-1.25c-.05-.05-.05-.14,0-.2s.14-.05.2,0l1.25,1.25c.05.05.05.14,0,.2-.03.03-.06.04-.1.04Z"/>
      <path class="st3" d="M94.07,65.87h-1.04c-.08,0-.14-.06-.14-.14s.06-.14.14-.14h.76v-.76c0-.08.06-.14.14-.14s.14.06.14.14v1.04Z"/>
    </g>
  </g>
  <g>
    <rect class="st6" x="96.62" y="49.08" width="5.18" height="5.18" rx=".83" ry=".83"/>
    <g>
      <path class="st3" d="M99.13,53.44h-.94c-.41,0-.74-.33-.74-.74v-2.06c0-.41.33-.74.74-.74h2.06c.41,0,.74.33.74.74v.94h-.28v-.94c0-.25-.21-.46-.46-.46h-2.06c-.25,0-.46.21-.46.46v2.06c0,.25.21.46.46.46h.94v.28Z"/>
      <path class="st3" d="M100.78,53.85h-.82c-.3,0-.54-.24-.54-.54v-.82c0-.3.24-.54.54-.54h.82c.3,0,.54.24.54.54v.82c0,.3-.24.54-.54.54ZM99.96,52.23c-.15,0-.27.12-.27.27v.82c0,.15.12.27.27.27h.82c.15,0,.27-.12.27-.27v-.82c0-.15-.12-.27-.27-.27h-.82Z"/>
      <path class="st3" d="M99.35,51.98s-.07-.01-.1-.04l-1.25-1.25c-.05-.05-.05-.14,0-.2s.14-.05.2,0l1.25,1.25c.05.05.05.14,0,.2-.03.03-.06.04-.1.04Z"/>
      <path class="st3" d="M99.54,52.03h-1.04c-.08,0-.14-.06-.14-.14s.06-.14.14-.14h.76v-.76c0-.08.06-.14.14-.14s.14.06.14.14v1.04Z"/>
    </g>
  </g>
</svg>