<?xml version="1.0" encoding="UTF-8"?>
<svg id="Layer_1" xmlns="http://www.w3.org/2000/svg" version="1.1" viewBox="0 0 134.74 190.23">
  <!-- Generator: Adobe Illustrator 29.8.3, SVG Export Plug-In . SVG Version: 2.1.1 Build 3)  -->
  <defs>
    <style>
      .st0 {
        fill: #f2f2f2;
      }

      .st1 {
        fill: #fdecbe;
      }

      .st2 {
        fill: #fff;
      }

      .st3 {
        fill: #f7c027;
      }

      .st4 {
        fill: #318370;
      }

      .st5 {
        stroke: #ededed;
      }

      .st5, .st6, .st7, .st8 {
        stroke-miterlimit: 10;
      }

      .st5, .st7, .st8 {
        fill: none;
        stroke-width: .5px;
      }

      .st6 {
        fill: #205fa9;
        stroke-width: 1.5px;
      }

      .st6, .st7 {
        stroke: #205fa9;
      }

      .st9 {
        fill: #2160a9;
      }

      .st8 {
        stroke: #f2f2f2;
        stroke-linecap: round;
      }

      .st10 {
        fill: #f5f5f5;
      }

      .st11 {
        fill: #c1dad4;
      }
    </style>
  </defs>
  <path class="st0" d="M122.64,176.02V31.81h2.88c2.03,0,3.67-1.65,3.67-3.67v-13.08c0-2.03-1.65-3.67-3.67-3.67H14.47c-2.88,0-5.21,2.33-5.21,5.21v159.42c0,2.88,2.33,5.21,5.21,5.21h102.96c2.88,0,5.21-2.33,5.21-5.21ZM14.47,178.29c-1.25,0-2.27-1.02-2.27-2.27V16.6c0-1.25,1.02-2.27,2.27-2.27h102.96c1.25,0,2.27,1.02,2.27,2.27v159.42c0,1.25-1.02,2.27-2.27,2.27H14.47Z"/>
  <path class="st0" d="M125.11,52.98h-4.94v-2.62h4.94c.72,0,1.31-.59,1.31-1.31v-13.06c0-.72-.59-1.31-1.31-1.31h-4.94v-2.62h4.94c2.16,0,3.93,1.76,3.93,3.93v13.06c0,2.16-1.76,3.93-3.93,3.93Z"/>
  <rect class="st2" x="117.13" y="34.77" width="6.82" height="15.74"/>
  <path class="st0" d="M120.17,54.71h4.94c1.45,0,2.62,1.17,2.62,2.62v13.06c0,1.45-1.17,2.62-2.62,2.62h-4.94"/>
  <path class="st0" d="M125.11,74.31h-4.94v-2.62h4.94c.72,0,1.31-.59,1.31-1.31v-13.06c0-.72-.59-1.31-1.31-1.31h-4.94v-2.62h4.94c2.16,0,3.93,1.76,3.93,3.93v13.06c0,2.16-1.76,3.93-3.93,3.93Z"/>
  <path class="st3" d="M123.04,22.33l-.62-.85c-.08-.12.03-.27.17-.23l1,.33c.06.02.13,0,.17-.05l.62-.85c.08-.12.27-.06.27.09v1.05c0,.06.04.12.1.14l1,.33c.14.04.14.24,0,.28l-1,.33c-.06.02-.1.08-.1.14v1.05c0,.14-.18.2-.27.09l-.62-.85c-.04-.05-.1-.07-.17-.05l-1,.33c-.14.04-.25-.11-.17-.23l.62-.85c.04-.05.04-.12,0-.17Z"/>
  <path class="st4" d="M122.12,40.25l-.62-.85c-.08-.12.03-.27.17-.23l1,.33c.06.02.13,0,.17-.05l.62-.85c.08-.12.27-.06.27.09v1.05c0,.06.04.12.1.14l1,.33c.14.04.14.24,0,.28l-1,.33c-.06.02-.1.08-.1.14v1.05c0,.14-.18.2-.27.09l-.62-.85c-.04-.05-.1-.07-.17-.05l-1,.33c-.14.04-.25-.11-.17-.23l.62-.85c.04-.05.04-.12,0-.17Z"/>
  <path class="st4" d="M122.12,44.62l-.62-.85c-.08-.12.03-.27.17-.23l1,.33c.06.02.13,0,.17-.05l.62-.85c.08-.12.27-.06.27.09v1.05c0,.06.04.12.1.14l1,.33c.14.04.14.24,0,.28l-1,.33c-.06.02-.1.08-.1.14v1.05c0,.14-.18.2-.27.09l-.62-.85c-.04-.05-.1-.07-.17-.05l-1,.33c-.14.04-.25-.11-.17-.23l.62-.85c.04-.05.04-.12,0-.17Z"/>
  <g>
    <path class="st3" d="M123.37,59.8l-.62-.85c-.08-.12.03-.27.17-.23l1,.33c.06.02.13,0,.17-.05l.62-.85c.08-.12.27-.06.27.09v1.05c0,.06.04.12.1.14l1,.33c.14.04.14.24,0,.28l-1,.33c-.06.02-.1.08-.1.14v1.05c0,.14-.18.2-.27.09l-.62-.85c-.04-.05-.1-.07-.17-.05l-1,.33c-.14.04-.25-.11-.17-.23l.62-.85c.04-.05.04-.12,0-.17Z"/>
    <path class="st3" d="M123.37,64.17l-.62-.85c-.08-.12.03-.27.17-.23l1,.33c.06.02.13,0,.17-.05l.62-.85c.08-.12.27-.06.27.09v1.05c0,.06.04.12.1.14l1,.33c.14.04.14.24,0,.28l-1,.33c-.06.02-.1.08-.1.14v1.05c0,.14-.18.2-.27.09l-.62-.85c-.04-.05-.1-.07-.17-.05l-1,.33c-.14.04-.25-.11-.17-.23l.62-.85c.04-.05.04-.12,0-.17Z"/>
    <path class="st3" d="M123.37,68.54l-.62-.85c-.08-.12.03-.27.17-.23l1,.33c.06.02.13,0,.17-.05l.62-.85c.08-.12.27-.06.27.09v1.05c0,.06.04.12.1.14l1,.33c.14.04.14.24,0,.28l-1,.33c-.06.02-.1.08-.1.14v1.05c0,.14-.18.2-.27.09l-.62-.85c-.04-.05-.1-.07-.17-.05l-1,.33c-.14.04-.25-.11-.17-.23l.62-.85c.04-.05.04-.12,0-.17Z"/>
  </g>
  <path class="st3" d="M10.21,6.26c.14.65.36,1.26.63,1.86.13.29.59.39.84.22.52-.35,1.06-.66,1.63-.92.3-.14.61-.26.92-.37.28-.1.64-.27.94-.26.59.02,1.21.45,1.75.67.63.26,1.31.46,1.99.43s1.19-.3,1.8-.49c.68-.2,1.36-.03,2.04.1,1.41.26,2.84.39,4.27.4,1.63,0,3.26-.15,4.86-.46.77-.15.45-1.33-.33-1.18-2.8.55-5.74.58-8.55.05-.74-.14-1.48-.3-2.23-.17-.62.1-1.17.47-1.79.53-1.37.13-2.41-.99-3.73-1.09-.74-.05-1.57.36-2.24.65s-1.34.64-1.96,1.06l.84.22c-.23-.5-.39-1.03-.51-1.57-.17-.77-1.35-.44-1.18.33h0Z"/>
  <path class="st0" d="M23.19,164.08h-5.16c-.71,0-1.29-.58-1.29-1.29s.58-1.29,1.29-1.29h5.16c.71,0,1.29.58,1.29,1.29s-.58,1.29-1.29,1.29Z"/>
  <path class="st0" d="M38,164.08h-5.16c-.71,0-1.29-.58-1.29-1.29s.58-1.29,1.29-1.29h5.16c.71,0,1.29.58,1.29,1.29s-.58,1.29-1.29,1.29Z"/>
  <path class="st0" d="M53.61,164.08h-5.16c-.71,0-1.29-.58-1.29-1.29s.58-1.29,1.29-1.29h5.16c.71,0,1.29.58,1.29,1.29s-.58,1.29-1.29,1.29Z"/>
  <path class="st0" d="M68.42,164.08h-5.16c-.71,0-1.29-.58-1.29-1.29s.58-1.29,1.29-1.29h5.16c.71,0,1.29.58,1.29,1.29s-.58,1.29-1.29,1.29Z"/>
  <path class="st0" d="M83,164.08h-5.16c-.71,0-1.29-.58-1.29-1.29s.58-1.29,1.29-1.29h5.16c.71,0,1.29.58,1.29,1.29s-.58,1.29-1.29,1.29Z"/>
  <path class="st0" d="M97.81,164.08h-5.16c-.71,0-1.29-.58-1.29-1.29s.58-1.29,1.29-1.29h5.16c.71,0,1.29.58,1.29,1.29s-.58,1.29-1.29,1.29Z"/>
  <path class="st0" d="M112.97,164.08h-5.16c-.71,0-1.29-.58-1.29-1.29s.58-1.29,1.29-1.29h5.16c.71,0,1.29.58,1.29,1.29s-.58,1.29-1.29,1.29Z"/>
  <g>
    <line class="st5" x1="20.39" y1="157.6" x2="20.39" y2="97.87"/>
    <line class="st5" x1="35.39" y1="157.6" x2="35.39" y2="97.87"/>
    <line class="st5" x1="50.39" y1="157.6" x2="50.39" y2="97.87"/>
    <line class="st5" x1="65.39" y1="157.6" x2="65.39" y2="97.87"/>
    <line class="st5" x1="80.39" y1="157.6" x2="80.39" y2="97.87"/>
    <line class="st5" x1="95.39" y1="157.6" x2="95.39" y2="97.87"/>
    <line class="st5" x1="110.39" y1="157.6" x2="110.39" y2="97.87"/>
    <line class="st8" x1="20.5" y1="158.18" x2="110.39" y2="158.18"/>
    <line class="st8" x1="20.5" y1="143.18" x2="110.39" y2="143.18"/>
    <line class="st8" x1="20.5" y1="128.18" x2="110.39" y2="128.18"/>
    <line class="st8" x1="20.5" y1="113.18" x2="110.39" y2="113.18"/>
    <line class="st8" x1="20.5" y1="98.18" x2="110.39" y2="98.18"/>
  </g>
  <g>
    <rect class="st11" x="93.01" y="114.49" width="3.55" height="5" rx=".93" ry=".93" transform="translate(189.58 233.99) rotate(-180)"/>
    <g>
      <rect class="st11" x="106" y="114.49" width="3.55" height="12.12" rx=".93" ry=".93" transform="translate(215.55 241.11) rotate(-180)"/>
      <rect class="st1" x="101.78" y="116.41" width="3.55" height="12.12" rx=".93" ry=".93" transform="translate(207.11 244.95) rotate(-180)"/>
      <rect class="st1" x="97.37" y="116.41" width="3.55" height="8.1" rx=".93" ry=".93" transform="translate(198.28 240.92) rotate(-180)"/>
      <rect class="st11" x="88.79" y="115.6" width="3.55" height="5" rx=".93" ry=".93" transform="translate(181.13 236.21) rotate(-180)"/>
      <rect class="st11" x="84.38" y="115.6" width="3.55" height="8.02" rx=".93" ry=".93" transform="translate(172.31 239.22) rotate(-180)"/>
      <rect class="st11" x="80.24" y="116.65" width="3.55" height="12.9" rx=".93" ry=".93" transform="translate(164.02 246.2) rotate(-180)"/>
      <rect class="st11" x="76.02" y="118.12" width="3.55" height="17.93" rx=".93" ry=".93" transform="translate(155.58 254.18) rotate(-180)"/>
      <rect class="st11" x="50.44" y="133.26" width="3.55" height="7.88" rx=".93" ry=".93" transform="translate(104.44 274.4) rotate(-180)"/>
      <rect class="st11" x="46.22" y="134.74" width="3.55" height="10.89" rx=".93" ry=".93" transform="translate(95.99 280.37) rotate(-180)"/>
      <rect class="st1" x="41.96" y="136.28" width="3.55" height="4.86" rx=".93" ry=".93" transform="translate(87.48 277.42) rotate(-180)"/>
      <rect class="st1" x="37.74" y="138.76" width="3.55" height="6.87" rx=".93" ry=".93" transform="translate(79.04 284.4) rotate(-180)"/>
      <rect class="st11" x="71.6" y="121.45" width="3.55" height="8.88" rx=".93" ry=".93" transform="translate(146.75 251.78) rotate(-180)"/>
      <rect class="st1" x="67.25" y="125.57" width="3.55" height="12.9" rx=".93" ry=".93" transform="translate(138.05 264.05) rotate(-180)"/>
      <rect class="st1" x="63.01" y="118.85" width="3.55" height="9.89" rx=".93" ry=".93" transform="translate(129.57 247.59) rotate(-180)"/>
      <rect class="st1" x="58.88" y="123.78" width="3.55" height="8.88" rx=".93" ry=".93" transform="translate(121.32 256.44) rotate(-180)"/>
      <rect class="st1" x="54.64" y="122.29" width="3.55" height="16.29" rx=".93" ry=".93" transform="translate(112.84 260.86) rotate(-180)"/>
      <rect class="st11" x="29.47" y="133.26" width="3.55" height="7.88" rx=".93" ry=".93" transform="translate(62.5 274.4) rotate(-180)"/>
      <rect class="st11" x="25.25" y="134.74" width="3.55" height="10.89" rx=".93" ry=".93" transform="translate(54.05 280.37) rotate(-180)"/>
      <rect class="st1" x="33.67" y="131.15" width="3.55" height="7.99" rx=".93" ry=".93" transform="translate(70.9 270.3) rotate(-180)"/>
      <rect class="st1" x="21.18" y="127.95" width="3.55" height="7.99" rx=".93" ry=".93" transform="translate(45.92 263.89) rotate(-180)"/>
    </g>
  </g>
  <g>
    <path class="st10" d="M108.14,30.07h-16.89c-.81,0-1.47-.66-1.47-1.47s.66-1.47,1.47-1.47h16.89c.81,0,1.47.66,1.47,1.47s-.66,1.47-1.47,1.47Z"/>
    <path class="st10" d="M108.14,35.22h-22.4c-.81,0-1.47-.66-1.47-1.47s.66-1.47,1.47-1.47h22.4c.81,0,1.47.66,1.47,1.47s-.66,1.47-1.47,1.47Z"/>
    <path class="st10" d="M101.05,40.37h-15.31c-.81,0-1.47-.66-1.47-1.47s.66-1.47,1.47-1.47h15.31c.81,0,1.47.66,1.47,1.47s-.66,1.47-1.47,1.47Z"/>
  </g>
  <g>
    <path class="st10" d="M108.14,48.21h-16.89c-.81,0-1.47-.66-1.47-1.47s.66-1.47,1.47-1.47h16.89c.81,0,1.47.66,1.47,1.47s-.66,1.47-1.47,1.47Z"/>
    <path class="st10" d="M108.14,53.36h-22.4c-.81,0-1.47-.66-1.47-1.47s.66-1.47,1.47-1.47h22.4c.81,0,1.47.66,1.47,1.47s-.66,1.47-1.47,1.47Z"/>
    <path class="st10" d="M101.05,58.51h-15.31c-.81,0-1.47-.66-1.47-1.47s.66-1.47,1.47-1.47h15.31c.81,0,1.47.66,1.47,1.47s-.66,1.47-1.47,1.47Z"/>
  </g>
  <g>
    <rect class="st9" x="84.53" y="26.61" width="4.54" height="4.54" rx=".73" ry=".73"/>
    <path class="st2" d="M86.16,27.82c.33,0,.55.21.55.51s-.23.51-.55.51-.55-.2-.55-.51.23-.51.55-.51ZM87.45,27.86h.32l-1.68,2.2h-.32l1.68-2.2ZM86.16,28.62c.18,0,.29-.11.29-.28s-.12-.28-.29-.28-.3.11-.3.28.12.28.3.28ZM87.39,29.06c.33,0,.55.21.55.51s-.23.51-.55.51-.55-.21-.55-.51.23-.51.55-.51ZM87.39,29.85c.18,0,.3-.11.3-.28s-.12-.28-.3-.28-.29.11-.29.28.12.28.29.28Z"/>
  </g>
  <g>
    <rect class="st9" x="84.53" y="44.8" width="4.54" height="4.54" rx=".73" ry=".73"/>
    <path class="st2" d="M86.16,46.01c.33,0,.55.21.55.51s-.23.51-.55.51-.55-.2-.55-.51.23-.51.55-.51ZM87.45,46.05h.32l-1.68,2.2h-.32l1.68-2.2ZM86.16,46.81c.18,0,.29-.11.29-.28s-.12-.28-.29-.28-.3.11-.3.28.12.28.3.28ZM87.39,47.25c.33,0,.55.21.55.51s-.23.51-.55.51-.55-.21-.55-.51.23-.51.55-.51ZM87.39,48.04c.18,0,.3-.11.3-.28s-.12-.28-.3-.28-.29.11-.29.28.12.28.29.28Z"/>
  </g>
  <g>
    <path class="st10" d="M108.14,67.12h-16.89c-.81,0-1.47-.66-1.47-1.47s.66-1.47,1.47-1.47h16.89c.81,0,1.47.66,1.47,1.47s-.66,1.47-1.47,1.47Z"/>
    <path class="st10" d="M108.14,72.27h-22.4c-.81,0-1.47-.66-1.47-1.47s.66-1.47,1.47-1.47h22.4c.81,0,1.47.66,1.47,1.47s-.66,1.47-1.47,1.47Z"/>
    <path class="st10" d="M101.05,77.43h-15.31c-.81,0-1.47-.66-1.47-1.47s.66-1.47,1.47-1.47h15.31c.81,0,1.47.66,1.47,1.47s-.66,1.47-1.47,1.47Z"/>
  </g>
  <g>
    <rect class="st9" x="84.53" y="63.71" width="4.54" height="4.54" rx=".73" ry=".73"/>
    <path class="st2" d="M86.16,64.93c.33,0,.55.21.55.51s-.23.51-.55.51-.55-.2-.55-.51.23-.51.55-.51ZM87.45,64.96h.32l-1.68,2.2h-.32l1.68-2.2ZM86.16,65.72c.18,0,.29-.11.29-.28s-.12-.28-.29-.28-.3.11-.3.28.12.28.3.28ZM87.39,66.16c.33,0,.55.21.55.51s-.23.51-.55.51-.55-.21-.55-.51.23-.51.55-.51ZM87.39,66.95c.18,0,.3-.11.3-.28s-.12-.28-.3-.28-.29.11-.29.28.12.28.29.28Z"/>
  </g>
  <path class="st7" d="M65.24,125.44c-3.89,9.8-14,16.78-25.86,16.78"/>
  <g>
    <circle class="st2" cx="39.44" cy="142.17" r="2.09"/>
    <g>
      <circle class="st6" cx="39.44" cy="142.17" r="1.9"/>
      <g>
        <path class="st10" d="M39.44,143.71c-.14,0-.25-.11-.25-.25v-2.63c0-.14.11-.25.25-.25s.25.11.25.25v2.63c0,.14-.11.25-.25.25Z"/>
        <path class="st10" d="M40.75,142.39h-2.63c-.14,0-.25-.11-.25-.25s.11-.25.25-.25h2.63c.14,0,.25.11.25.25s-.11.25-.25.25Z"/>
      </g>
    </g>
  </g>
  <g>
    <circle class="st2" cx="50.33" cy="139.91" r="2.09"/>
    <g>
      <circle class="st6" cx="50.33" cy="139.91" r="1.9"/>
      <g>
        <path class="st10" d="M50.33,141.45c-.14,0-.25-.11-.25-.25v-2.63c0-.14.11-.25.25-.25s.25.11.25.25v2.63c0,.14-.11.25-.25.25Z"/>
        <path class="st10" d="M51.64,140.14h-2.63c-.14,0-.25-.11-.25-.25s.11-.25.25-.25h2.63c.14,0,.25.11.25.25s-.11.25-.25.25Z"/>
      </g>
    </g>
  </g>
  <g>
    <circle class="st2" cx="58.84" cy="134.71" r="2.09"/>
    <g>
      <circle class="st6" cx="58.84" cy="134.71" r="1.9"/>
      <g>
        <path class="st10" d="M58.84,136.25c-.14,0-.25-.11-.25-.25v-2.63c0-.14.11-.25.25-.25s.25.11.25.25v2.63c0,.14-.11.25-.25.25Z"/>
        <path class="st10" d="M60.15,134.93h-2.63c-.14,0-.25-.11-.25-.25s.11-.25.25-.25h2.63c.14,0,.25.11.25.25s-.11.25-.25.25Z"/>
      </g>
    </g>
  </g>
  <g>
    <circle class="st2" cx="64.84" cy="125.48" r="2.09"/>
    <g>
      <circle class="st6" cx="64.84" cy="125.48" r="1.9"/>
      <g>
        <path class="st10" d="M64.84,127.02c-.14,0-.25-.11-.25-.25v-2.63c0-.14.11-.25.25-.25s.25.11.25.25v2.63c0,.14-.11.25-.25.25Z"/>
        <path class="st10" d="M66.16,125.71h-2.63c-.14,0-.25-.11-.25-.25s.11-.25.25-.25h2.63c.14,0,.25.11.25.25s-.11.25-.25.25Z"/>
      </g>
    </g>
  </g>
  <g>
    <path class="st0" d="M72.97,29.76H21.83c-.7,0-1.27-.66-1.27-1.47s.57-1.47,1.27-1.47h51.14c.7,0,1.27.66,1.27,1.47s-.57,1.47-1.27,1.47Z"/>
    <path class="st0" d="M72.97,34.92H21.83c-.7,0-1.27-.66-1.27-1.47s.57-1.47,1.27-1.47h51.14c.7,0,1.27.66,1.27,1.47s-.57,1.47-1.27,1.47Z"/>
    <path class="st0" d="M55.04,40.08H21.83c-.7,0-1.27-.66-1.27-1.47s.57-1.47,1.27-1.47h33.22c.7,0,1.27.66,1.27,1.47s-.57,1.47-1.27,1.47Z"/>
  </g>
  <g>
    <path class="st0" d="M72.97,48.22H21.83c-.7,0-1.27-.66-1.27-1.47s.57-1.47,1.27-1.47h51.14c.7,0,1.27.66,1.27,1.47s-.57,1.47-1.27,1.47Z"/>
    <path class="st0" d="M72.97,53.37H21.83c-.7,0-1.27-.66-1.27-1.47s.57-1.47,1.27-1.47h51.14c.7,0,1.27.66,1.27,1.47s-.57,1.47-1.27,1.47Z"/>
  </g>
  <g>
    <path class="st0" d="M72.97,58.7H21.83c-.7,0-1.27-.66-1.27-1.47s.57-1.47,1.27-1.47h51.14c.7,0,1.27.66,1.27,1.47s-.57,1.47-1.27,1.47Z"/>
    <path class="st0" d="M72.97,63.86H21.83c-.7,0-1.27-.66-1.27-1.47s.57-1.47,1.27-1.47h51.14c.7,0,1.27.66,1.27,1.47s-.57,1.47-1.27,1.47Z"/>
    <path class="st0" d="M55.04,69.02H21.83c-.7,0-1.27-.66-1.27-1.47s.57-1.47,1.27-1.47h33.22c.7,0,1.27.66,1.27,1.47s-.57,1.47-1.27,1.47Z"/>
  </g>
</svg>