<?xml version="1.0" encoding="UTF-8"?>
<svg id="Layer_1" xmlns="http://www.w3.org/2000/svg" version="1.1" viewBox="0 0 134.74 190.23">
  <!-- Generator: Adobe Illustrator 29.8.3, SVG Export Plug-In . SVG Version: 2.1.1 Build 3)  -->
  <defs>
    <style>
      .st0 {
        fill: #fdf1f2;
      }

      .st1 {
        fill: #f2f2f2;
      }

      .st2 {
        fill: #ed727d;
      }

      .st3 {
        fill: #f9c026;
      }

      .st4 {
        fill: #fff;
      }

      .st5 {
        fill: #f7c027;
      }

      .st6 {
        fill: #fceaeb;
      }

      .st7, .st8 {
        fill: #318370;
      }

      .st9 {
        fill: #fef2d4;
      }

      .st10 {
        fill: #f7f7f7;
      }

      .st11 {
        fill: #e5e5e5;
      }

      .st12 {
        fill: #2160a9;
      }

      .st13 {
        fill: #205fa9;
      }

      .st14 {
        fill: #e0ecea;
      }

      .st15 {
        fill: #ededed;
      }

      .st16 {
        fill: #f5f5f5;
      }

      .st17 {
        fill: #e9eff6;
      }

      .st18 {
        fill: #e8e8e8;
      }

      .st19 {
        fill: #eaf3f1;
      }

      .st8 {
        stroke: #318370;
        stroke-miterlimit: 10;
        stroke-width: 1.5px;
      }
    </style>
  </defs>
  <rect class="st10" x="7.31" y="143.82" width="117.63" height="8.17" rx="2.11" ry="2.11"/>
  <path class="st18" d="M46.96,149.14H12.5c-.7,0-1.27-.57-1.27-1.27s.57-1.27,1.27-1.27h34.46c.7,0,1.27.57,1.27,1.27s-.57,1.27-1.27,1.27Z"/>
  <g>
    <path class="st1" d="M52.35,128.31H18.69c-.59,0-1.07-.56-1.07-1.24s.48-1.24,1.07-1.24h33.66c.59,0,1.07.56,1.07,1.24s-.48,1.24-1.07,1.24Z"/>
    <path class="st1" d="M26.83,133.66h-15.1c-.59,0-1.07-.56-1.07-1.24s.48-1.24,1.07-1.24h15.1c.59,0,1.07.56,1.07,1.24s-.48,1.24-1.07,1.24Z"/>
    <path class="st1" d="M46.12,133.66h-15.3c-.59,0-1.07-.56-1.07-1.24s.48-1.24,1.07-1.24h15.3c.59,0,1.07.56,1.07,1.24s-.48,1.24-1.07,1.24Z"/>
  </g>
  <polygon class="st16" points="134.84 17.53 .23 17.72 .23 -.01 134.84 0 134.84 17.53"/>
  <g>
    <path class="st4" d="M30.23,17.9v-5.29c0-1.45,1.18-2.63,2.63-2.63h13.12c1.45,0,2.63,1.18,2.63,2.63v5.29"/>
    <path class="st4" d="M49.92,17.9h-2.63v-5.29c0-.73-.59-1.32-1.32-1.32h-13.12c-.73,0-1.32.59-1.32,1.32v5.29h-2.63v-5.29c0-2.18,1.77-3.94,3.94-3.94h13.12c2.18,0,3.94,1.77,3.94,3.94v5.29Z"/>
  </g>
  <rect class="st4" x="36.11" y="9.29" width="6.85" height="15.81" transform="translate(22.34 56.74) rotate(-90)"/>
  <g>
    <path class="st11" d="M51.34,17.57v-4.96c0-1.45,1.18-2.63,2.63-2.63h13.12c1.45,0,2.63,1.18,2.63,2.63v4.96"/>
    <path class="st11" d="M71.04,17.57h-2.63v-4.96c0-.73-.59-1.32-1.32-1.32h-13.12c-.73,0-1.32.59-1.32,1.32v4.96h-2.63v-4.96c0-2.18,1.77-3.94,3.94-3.94h13.12c2.18,0,3.94,1.77,3.94,3.94v4.96Z"/>
  </g>
  <g>
    <path class="st11" d="M9.11,17.57v-4.96c0-1.45,1.18-2.63,2.63-2.63h13.12c1.45,0,2.63,1.18,2.63,2.63v4.96"/>
    <path class="st11" d="M28.81,17.57h-2.63v-4.96c0-.73-.59-1.32-1.32-1.32h-13.12c-.73,0-1.32.59-1.32,1.32v4.96h-2.63v-4.96c0-2.18,1.77-3.94,3.94-3.94h13.12c2.18,0,3.94,1.77,3.94,3.94v4.96Z"/>
  </g>
  <path class="st4" d="M17.9,14.36l-.86.62c-.12.08-.27-.03-.23-.17l.33-1.01c.02-.06,0-.13-.05-.17l-.86-.62c-.12-.08-.06-.27.09-.27h1.06c.06,0,.12-.04.14-.1l.33-1.01c.04-.14.24-.14.28,0l.33,1.01c.02.06.08.1.14.1h1.06c.14,0,.2.18.09.27l-.86.62c-.05.04-.07.11-.05.17l.33,1.01c.04.14-.11.25-.23.17l-.86-.62c-.05-.04-.12-.04-.18,0Z"/>
  <path class="st3" d="M37.13,14.43l-.86.62c-.12.08-.27-.03-.23-.17l.33-1.01c.02-.06,0-.13-.05-.17l-.86-.62c-.12-.08-.06-.27.09-.27h1.06c.06,0,.12-.04.14-.1l.33-1.01c.04-.14.24-.14.28,0l.33,1.01c.02.06.08.1.14.1h1.06c.14,0,.2.18.09.27l-.86.62c-.05.04-.07.11-.05.17l.33,1.01c.04.14-.11.25-.23.17l-.86-.62c-.05-.04-.12-.04-.18,0Z"/>
  <path class="st3" d="M41.53,14.43l-.86.62c-.12.08-.27-.03-.23-.17l.33-1.01c.02-.06,0-.13-.05-.17l-.86-.62c-.12-.08-.06-.27.09-.27h1.06c.06,0,.12-.04.14-.1l.33-1.01c.04-.14.24-.14.28,0l.33,1.01c.02.06.08.1.14.1h1.06c.14,0,.2.18.09.27l-.86.62c-.05.04-.07.11-.05.17l.33,1.01c.04.14-.11.25-.23.17l-.86-.62c-.05-.04-.12-.04-.18,0Z"/>
  <path class="st4" d="M56.14,14.36l-.86.62c-.12.08-.27-.03-.23-.17l.33-1.01c.02-.06,0-.13-.05-.17l-.86-.62c-.12-.08-.06-.27.09-.27h1.06c.06,0,.12-.04.14-.1l.33-1.01c.04-.14.24-.14.28,0l.33,1.01c.02.06.08.1.14.1h1.06c.14,0,.2.18.09.27l-.86.62c-.05.04-.07.11-.05.17l.33,1.01c.04.14-.11.25-.23.17l-.86-.62c-.05-.04-.12-.04-.18,0Z"/>
  <path class="st4" d="M60.52,14.36l-.86.62c-.12.08-.27-.03-.23-.17l.33-1.01c.02-.06,0-.13-.05-.17l-.86-.62c-.12-.08-.06-.27.09-.27h1.06c.06,0,.12-.04.14-.1l.33-1.01c.04-.14.24-.14.28,0l.33,1.01c.02.06.08.1.14.1h1.06c.14,0,.2.18.09.27l-.86.62c-.05.04-.07.11-.05.17l.33,1.01c.04.14-.11.25-.23.17l-.86-.62c-.05-.04-.12-.04-.18,0Z"/>
  <path class="st4" d="M64.91,14.36l-.86.62c-.12.08-.27-.03-.23-.17l.33-1.01c.02-.06,0-.13-.05-.17l-.86-.62c-.12-.08-.06-.27.09-.27h1.06c.06,0,.12-.04.14-.1l.33-1.01c.04-.14.24-.14.28,0l.33,1.01c.02.06.08.1.14.1h1.06c.14,0,.2.18.09.27l-.86.62c-.05.04-.07.11-.05.17l.33,1.01c.04.14-.11.25-.23.17l-.86-.62c-.05-.04-.12-.04-.18,0Z"/>
  <rect class="st10" x="7.38" y="26.19" width="117.84" height="8.17" rx="2.11" ry="2.11"/>
  <path class="st5" d="M102.68,7.09c.14.65.36,1.26.63,1.86.13.29.59.39.84.22.52-.35,1.06-.66,1.63-.92.3-.14.61-.26.92-.37.28-.1.64-.27.94-.26.59.02,1.21.45,1.75.67.63.26,1.31.46,1.99.43s1.19-.3,1.8-.49c.68-.2,1.36-.03,2.04.1,1.41.26,2.84.39,4.27.4,1.63,0,3.26-.15,4.86-.46.77-.15.45-1.33-.33-1.18-2.8.55-5.74.58-8.55.05-.74-.14-1.48-.3-2.23-.17-.62.1-1.17.47-1.79.53-1.37.13-2.41-.99-3.73-1.09-.74-.05-1.57.36-2.24.65s-1.34.64-1.96,1.06l.84.22c-.23-.5-.39-1.03-.51-1.57-.17-.77-1.35-.44-1.18.33h0Z"/>
  <path class="st18" d="M47.03,31.51H12.57c-.7,0-1.27-.57-1.27-1.27s.57-1.27,1.27-1.27h34.46c.7,0,1.27.57,1.27,1.27s-.57,1.27-1.27,1.27Z"/>
  <g>
    <path class="st1" d="M122.53,41.21H12.28c-.59,0-1.07-.56-1.07-1.24s.48-1.24,1.07-1.24h110.25c.59,0,1.07.56,1.07,1.24s-.48,1.24-1.07,1.24Z"/>
    <path class="st1" d="M67.76,45.57H12.28c-.59,0-1.07-.56-1.07-1.24s.48-1.24,1.07-1.24h55.48c.59,0,1.07.56,1.07,1.24s-.48,1.24-1.07,1.24Z"/>
  </g>
  <g>
    <path class="st1" d="M122.05,163.07h-24.89c-.81,0-1.47-.66-1.47-1.47s.66-1.47,1.47-1.47h24.89c.81,0,1.47.66,1.47,1.47s-.66,1.47-1.47,1.47Z"/>
    <path class="st1" d="M114.05,168.22h-22.4c-.81,0-1.47-.66-1.47-1.47s.66-1.47,1.47-1.47h22.4c.81,0,1.47.66,1.47,1.47s-.66,1.47-1.47,1.47Z"/>
  </g>
  <g>
    <path class="st1" d="M122.05,175.74h-24.89c-.81,0-1.47-.66-1.47-1.47s.66-1.47,1.47-1.47h24.89c.81,0,1.47.66,1.47,1.47s-.66,1.47-1.47,1.47Z"/>
    <path class="st1" d="M114.05,180.89h-22.4c-.81,0-1.47-.66-1.47-1.47s.66-1.47,1.47-1.47h22.4c.81,0,1.47.66,1.47,1.47s-.66,1.47-1.47,1.47Z"/>
  </g>
  <g>
    <rect class="st12" x="90.44" y="159.61" width="4.54" height="4.54" rx=".73" ry=".73"/>
    <path class="st4" d="M92.06,160.82c.33,0,.55.21.55.51s-.23.51-.55.51-.55-.2-.55-.51.23-.51.55-.51ZM93.35,160.86h.32l-1.68,2.2h-.32l1.68-2.2ZM92.06,161.62c.18,0,.29-.11.29-.28s-.12-.28-.29-.28-.3.11-.3.28.12.28.3.28ZM93.3,162.06c.33,0,.55.21.55.51s-.23.51-.55.51-.55-.21-.55-.51.23-.51.55-.51ZM93.3,162.85c.18,0,.3-.11.3-.28s-.12-.28-.3-.28-.29.11-.29.28.12.28.29.28Z"/>
  </g>
  <g>
    <rect class="st12" x="90.44" y="172.33" width="4.54" height="4.54" rx=".73" ry=".73"/>
    <path class="st4" d="M92.06,173.55c.33,0,.55.21.55.51s-.23.51-.55.51-.55-.2-.55-.51.23-.51.55-.51ZM93.35,173.58h.32l-1.68,2.2h-.32l1.68-2.2ZM92.06,174.34c.18,0,.29-.11.29-.28s-.12-.28-.29-.28-.3.11-.3.28.12.28.3.28ZM93.3,174.78c.33,0,.55.21.55.51s-.23.51-.55.51-.55-.21-.55-.51.23-.51.55-.51ZM93.3,175.57c.18,0,.3-.11.3-.28s-.12-.28-.3-.28-.29.11-.29.28.12.28.29.28Z"/>
  </g>
  <g>
    <path class="st1" d="M81.51,163.31H11.87c-.7,0-1.27-.66-1.27-1.47s.57-1.47,1.27-1.47h69.64c.7,0,1.27.66,1.27,1.47s-.57,1.47-1.27,1.47Z"/>
    <path class="st1" d="M81.51,168.46H11.87c-.7,0-1.27-.66-1.27-1.47s.57-1.47,1.27-1.47h69.64c.7,0,1.27.66,1.27,1.47s-.57,1.47-1.27,1.47Z"/>
  </g>
  <path class="st1" d="M81.51,173.89H11.87c-.7,0-1.27-.66-1.27-1.47s.57-1.47,1.27-1.47h69.64c.7,0,1.27.66,1.27,1.47s-.57,1.47-1.27,1.47Z"/>
  <path class="st1" d="M42.09,179.06H11.87c-.7,0-1.27-.66-1.27-1.47s.57-1.47,1.27-1.47h30.22c.7,0,1.27.66,1.27,1.47s-.57,1.47-1.27,1.47Z"/>
  <polygon class="st15" points="12.97 111.58 12.93 120.74 13.6 120.74 13.63 111.58 12.97 111.58"/>
  <rect class="st15" x="13.17" y="111.54" width="19.5" height=".66"/>
  <g>
    <circle class="st8" cx="13.55" cy="126.86" r="1.9"/>
    <path class="st1" d="M13.29,125.25c1.41-.2,2.37,1.42,1.49,2.55-.99,1.27-3,.45-2.83-1.18.07-.67.68-1.27,1.34-1.37ZM13.37,125.53c-.39.04-.81.32-.99.68-.07.14-.18.36-.05.5h.99l.05-.05v-1.12ZM13.67,125.59v1.32l-.05.05h-1.28c-.2,0,.13.6.2.68.91,1.1,2.74.13,2.2-1.29-.16-.42-.56-.7-.99-.8l-.08.04Z"/>
  </g>
  <g>
    <path class="st1" d="M65.91,113.95h-1.01s0-7.85,0-7.85c-3.99.03-7.91-1.73-10.82-4.4l-5.49,5.37c.29.81.99,1.46,1.31,2.32,1.41,3.71-.17,8.05-3.77,9.77-6.82,3.25-13.79-3.97-10.11-10.61,2.43-4.39,7.94-5.13,11.8-2.12l5.42-5.35-.1-.36c-1.32-1.51-2.41-3.22-3.14-5.09s-1.03-3.59-1.16-5.53l-7.85-.06c-.36,4.11-3.55,7.06-7.67,7.21-3.84.14-7.38-3.07-7.67-6.9-.7-9.5,12.4-11.77,15.11-2.7.11.36.05,1.36.42,1.48l7.52-.04c.34-.54.17-1.2.26-1.76.52-3.35,1.85-6.49,4.22-8.94l.05-.42-5.39-5.26c-.25-.07-.82.54-1.14.72-7.48,4.31-15.32-4.7-9.96-11.48s16.48-.32,13.08,7.89c-.31.75-.97,1.42-1.24,2.14l5.23,5.29c.44.36.81-.36,1.15-.64,2.12-1.72,4.7-2.84,7.37-3.39.4-.08,2.55-.3,2.63-.41l.04-7.53c-.06-.24-1.35-.35-1.69-.46-10.26-3.15-4.84-18.34,4.86-14.61,7.69,2.96,5.9,14.37-2.27,14.87v7.85c4.01.13,7.77,1.74,10.76,4.37l.3.06,5.38-5.39c-1.14-1.65-1.84-3.14-1.84-5.19,0-8.26,11.32-10.41,14.62-3.25,2.82,6.11-2.84,12.65-9.35,10.61-1.05-.33-1.85-1.05-2.82-1.44l-5.4,5.38c2.49,2.81,3.85,5.9,4.4,9.62.08.56-.24,1.39.58,1.45l7.29-.06c.34-2.98,2.14-5.71,5.03-6.74,8.22-2.96,14.1,7.72,7.68,13.12-4.84,4.07-12.11.74-12.71-5.38l-7.74.02c-.22,3.84-1.59,7.11-3.91,10.11-.19.24-.72.54-.57.83l5.35,5.3c.4.11.83-.43,1.22-.64,8.79-4.62,15.82,6.62,8.95,12.49-2.47,2.12-6.35,2.39-9.08.6-3.98-2.62-4.69-7.93-1.7-11.59l-5.51-5.52c-2.03,1.81-4.25,3.1-6.88,3.85-.67.19-1.69.47-2.36.56-.56.07-1.28-.16-1.7.2v7.66ZM64.62,50.69c-4.66.53-7.35,5.85-5.09,9.96s7.96,4.69,11.01,1.15c3.99-4.63.16-11.79-5.92-11.1ZM41.96,60.19c-8.62.85-7.48,14.27,1.72,13.24,8.1-.9,7.38-14.14-1.72-13.24ZM87.27,60.19c-5.97.61-7.87,8.73-2.93,12.09,5.55,3.77,12.49-1.93,9.98-8.08-1.19-2.9-3.98-4.33-7.05-4.01ZM63.86,73.98c-8.22.69-14.47,8.3-14.02,16.48.75,13.67,17.97,19.82,27.15,9.69,9.67-10.67,1.27-27.38-13.13-26.17ZM32.59,82.84c-5.49.55-7.9,7.21-4.27,11.29,2.67,3,7.57,2.79,10.12-.25,3.88-4.64.14-11.64-5.85-11.04ZM96.89,82.84c-4.73.48-7.51,5.78-5.23,9.97s8.08,4.65,11.08,1.06c3.88-4.64.13-11.64-5.85-11.04ZM42.34,105.63c-9.17.58-7.65,14.28.98,13.38s7.62-13.92-.98-13.38ZM87.4,105.62c-5.69.68-7.94,7.86-3.64,11.68,3.18,2.82,8.13,1.99,10.19-1.71,2.66-4.76-1.16-10.61-6.55-9.97Z"/>
    <path class="st1" d="M70.93,116.27c7.09,7.09-3.47,17.89-10.7,11.14s3.37-18.47,10.7-11.14ZM64.49,115.12c-8.23.99-7.23,14.27,1.98,13.24,8.17-.91,7.36-14.36-1.98-13.24Z"/>
    <path class="st17" d="M32.59,82.84c5.99-.6,9.73,6.4,5.85,11.04-2.55,3.05-7.45,3.25-10.12.25-3.63-4.08-1.22-10.74,4.27-11.29Z"/>
    <path class="st9" d="M41.96,60.19c9.1-.9,9.82,12.34,1.72,13.24-9.2,1.03-10.34-12.38-1.72-13.24Z"/>
    <path class="st0" d="M96.89,82.84c5.98-.6,9.73,6.4,5.85,11.04-3,3.58-8.83,3.07-11.08-1.06s.5-9.49,5.23-9.97Z"/>
    <path class="st17" d="M87.27,60.19c3.07-.31,5.86,1.12,7.05,4.01,2.52,6.15-4.43,11.85-9.98,8.08-4.94-3.36-3.04-11.48,2.93-12.09Z"/>
    <path class="st19" d="M42.34,105.63c8.59-.54,9.62,12.47.98,13.38s-10.15-12.8-.98-13.38Z"/>
    <path class="st14" d="M87.4,105.62c5.39-.64,9.21,5.21,6.55,9.97-2.07,3.7-7.02,4.53-10.19,1.71-4.3-3.82-2.05-11,3.64-11.68Z"/>
    <path class="st6" d="M64.62,50.69c6.07-.69,9.9,6.47,5.92,11.1-3.05,3.54-8.76,2.93-11.01-1.15s.43-9.43,5.09-9.96Z"/>
    <path class="st9" d="M64.49,115.12c9.34-1.12,10.15,12.33,1.98,13.24-9.21,1.03-10.21-12.25-1.98-13.24Z"/>
    <path class="st17" d="M63.86,73.98c-8.22.69-14.47,8.3-14.02,16.48.75,13.67,17.97,19.82,27.15,9.69,9.67-10.67,1.27-27.38-13.13-26.17ZM74.58,98.5h-18.35l-.18-.21c.31-4.35,3.39-7.81,7.68-8.62,4.31-.81,8.84,1.62,10.43,5.7.32.83.87,2.36.42,3.12ZM65.26,78.92c5.65-.21,6.83,7.8,1.61,9.34-6.99,2.05-8.68-9.07-1.61-9.34Z"/>
    <path class="st4" d="M56.23,98.5l-.18-.21c.31-4.35,3.39-7.81,7.68-8.62s8.84,1.62,10.43,5.7c.32.83.87,2.36.42,3.12h-18.35Z"/>
    <path class="st4" d="M65.26,78.92c5.65-.21,6.83,7.8,1.61,9.34-6.99,2.05-8.68-9.07-1.61-9.34Z"/>
    <path class="st7" d="M86.03,110.54c1.38.1,3.06-.18,4.41-.02.46.06.69.43.74.87.06.55.05,1.68,0,2.25s-.26.93-.87.99c-.98.1-2.99.09-3.98,0-.38-.03-.86-.26-.92-.68-.07-.47-.06-2.2,0-2.69.04-.36.29-.62.63-.72ZM86.43,111.04l.07.22,1.77,1.63,1.88-1.76-3.72-.1ZM86.01,111.49c-.1,0-.07.14-.07.19.03.6.1,1.23-.03,1.82l.16.1,1.06-1c-.1-.16-1.04-1.12-1.12-1.12ZM90.6,111.49l-.55.45-.6.67c.01.06.84.82.96.91.06.05.08.12.19.1v-2.12ZM90.15,114.05l-1.12-1.07c-.25.05-.5.54-.71.56-.23.02-.54-.5-.8-.56-.35.27-.65.59-.98.88-.06.06-.14.06-.11.18h3.72Z"/>
    <path class="st13" d="M85.74,69.31c-.09-.13-.09-.28-.11-.43-.08-1.01-.09-2.89,0-3.89.07-.81.52-.46,1.15-.54.35-1.46,2.21-1.78,2.99-.45.07.12.08.36.16.42.36.26,1.08-.4,1.17.57s.09,2.85,0,3.81c-.02.21-.04.38-.2.54l-5.15-.03ZM87.66,64.46h1.4l.08-.17c-.42-.55-1.15-.55-1.57,0l.08.17ZM87.29,65.12l-.95.08c.03.88.07,1.79.05,2.69,0,.3-.28.77.2.86.2.04.57.05.7-.12v-3.51ZM88.77,65.12h-.83v3.51c.21.24.56.1.83.04v-3.55ZM89.49,65.13l-.12.17.02,3.24c.04.28.81.28.97.09.23-.29-.02-2.83.06-3.38-.06-.19-.76-.17-.92-.12Z"/>
    <path class="st7" d="M42.21,109.47c2.54-.37,4.28,2.55,2.69,4.6-1.78,2.28-5.4.82-5.1-2.13.12-1.2,1.23-2.3,2.42-2.47ZM42.36,109.99c-.71.07-1.45.58-1.78,1.22-.13.26-.33.65-.1.89h1.78l.1-.1v-2.01ZM42.89,110.09v2.38l-.1.1h-2.31c-.37,0,.24,1.07.36,1.22,1.65,1.99,4.93.23,3.97-2.32-.29-.76-1.02-1.27-1.79-1.44l-.14.07Z"/>
    <path class="st13" d="M34.39,87.66c-.3.19-1.62-.28-1.32.97.31.02,1.12-.1,1.29.19.08.17.11.49-.11.56h-1.18c-.08.53.16,2.67-.12,2.95-.08.08-.28.13-.39.11-.15-.06-.23-.17-.26-.32-.14-.72.11-1.79-.02-2.56l-.14-.14-.71-.05c-.36-.68.34-.78.86-.72-.26-1.02.9-1.98,1.84-1.7.3.09.47.59.24.73Z"/>
    <path class="st3" d="M44.08,65.39c.42.43,1.22,1.09.96,1.69-.08.19-2.08,2.22-2.32,2.37-.55.35-1.26.15-1.38-.5-.07-.39-.04-4.26.06-4.49.16-.35.7-.57,1.08-.46.16.05,1.39,1.18,1.6,1.38ZM42.36,68.25c.58-.24,1.17-.92,1.52-1.46,0-.2-1.19-1.42-1.52-1.46v2.91Z"/>
    <g>
      <path class="st2" d="M97.4,85.84c-1.86.16-2.98,2.02-2.28,3.75.23.56,1.56,3.21,1.92,3.49.74.57,1.23.04,1.61-.59.33-.56,1.49-2.77,1.61-3.3.4-1.85-.96-3.52-2.85-3.36ZM99.6,88.88c-.07.43-1.31,2.98-1.6,3.39-.09.13-.2.3-.37.31l-.33-.18c-.34-1.02-1.71-2.83-1.74-3.84-.03-.92.75-1.92,1.67-2.05,1.41-.2,2.59.95,2.37,2.37Z"/>
      <path class="st2" d="M98.3,87.1c-1.68-.78-2.99,1.34-1.86,2.5,1.81,1.85,4.05-1.49,1.86-2.5ZM98.04,89.27c-1.19.75-1.94-1.4-.56-1.66.86-.16,1.44,1.11.56,1.66Z"/>
    </g>
    <path class="st3" d="M63.06,124.45c-.28-.09-.08-.98-.16-1.32-.07-.28-.36-.48-.39-.8l-.9-.06c-.1-.14-.1-1.02-.08-1.23.08-.64.74-.22.99-.4.12-.09.03-.39.21-.45.56-.07,1.23.07,1.78-.03.62-.12,1.63-.98,2.25-1.11.2-.04,1.2-.06,1.34.02.29.17.09.87.18,1.14.08.24.84.35.89,1.16.04.57-.16.88-.58,1.23-.09.07-.29.11-.31.14-.11.17.1.87-.09,1.1-.14.17-1.26.15-1.51.1-.53-.11-1.34-.87-1.95-.97v1.27s-.11.12-.08.21h-1.6ZM67.2,123.3h.28s.13-.2.13-.2v-3.28s-.41-.13-.41-.13v3.61ZM66.55,119.94l-1.44.74c-.01.45-.19,1.48.13,1.76.28.25.96.49,1.31.62v-3.12ZM63.27,122.24l1.07-.04c.11-.07.12-1.15.06-1.31-.09-.28-.74.1-1.02-.12l-.12.1v1.35ZM68.19,121.91c.47.11.42-.7.12-.82-.24-.04-.05.29-.05.44,0,.12-.1.25-.08.38ZM64.09,123.8c.24-1.19-.81-1.29-.54-.08l.54.08Z"/>
    <g>
      <path class="st2" d="M64.26,54.39c.88-.1,2.89-.13,3.62.38.45.31.74.95.8,1.49.07.69.08,2.77-.16,3.36-.16.4-.54.83-.95.99-.69.27-3.28.27-4.01.08s-1.15-1-1.21-1.69c-.05-.6-.08-2.79.06-3.28.24-.84,1.04-1.22,1.86-1.31ZM64.17,55.18c-.56.07-.99.32-1.1.92-.1.55-.07,2.11-.02,2.71.04.48.18.9.66,1.1.42.18,1.83.08,2.38.08.18,0,.34.09.51.08.63-.01,1.21-.34,1.29-1,.07-.61.07-2.3,0-2.9-.04-.32-.26-.72-.55-.85-.51-.23-2.55-.21-3.16-.13Z"/>
      <path class="st2" d="M65.13,56.06c.98-.16,1.88.44,1.94,1.46.09,1.69-2.22,2.38-3,.8-.44-.9.08-2.09,1.07-2.26ZM65.4,56.76c-1.11.09-.91,1.73.07,1.73,1.18,0,1.11-1.82-.07-1.73Z"/>
      <path class="st2" d="M67.26,56.12c-.22.31-.82-.24-.34-.48.25-.12.45.34.34.48Z"/>
    </g>
  </g>
</svg>