<?xml version="1.0" encoding="UTF-8"?>
<svg id="Layer_1" xmlns="http://www.w3.org/2000/svg" version="1.1" viewBox="0 0 134.74 190.23">
  <!-- Generator: Adobe Illustrator 29.8.3, SVG Export Plug-In . SVG Version: 2.1.1 Build 3)  -->
  <defs>
    <style>
      .st0 {
        stroke: #dee7f2;
      }

      .st0, .st1, .st2, .st3, .st4, .st5, .st6, .st7 {
        stroke-miterlimit: 10;
      }

      .st0, .st1, .st3, .st5, .st7 {
        fill: none;
        stroke-linecap: round;
        stroke-width: 5px;
      }

      .st8 {
        fill: #f2f2f2;
      }

      .st9 {
        fill: #f9c026;
      }

      .st10, .st2, .st4, .st6 {
        fill: #fff;
      }

      .st1 {
        stroke: #dcdfe2;
      }

      .st2 {
        stroke: #f9c026;
      }

      .st2, .st4, .st6 {
        stroke-width: 1.5px;
      }

      .st3 {
        stroke: #fef2d4;
      }

      .st11 {
        fill: #e5e5e5;
      }

      .st12 {
        fill: #2160a9;
      }

      .st4 {
        stroke: #205fa9;
      }

      .st13 {
        fill: #ededed;
      }

      .st14 {
        fill: #f5f5f5;
      }

      .st5 {
        stroke: #fceaeb;
      }

      .st6 {
        stroke: #ed727d;
      }

      .st7 {
        stroke: #e0ecea;
      }
    </style>
  </defs>
  <polygon class="st14" points="134.71 17.57 .11 17.77 .11 .03 134.71 .05 134.71 17.57"/>
  <g>
    <path class="st5" d="M89.3,71.77c0,5.18-1.05,10.11-2.95,14.6-1.9,4.49-4.65,8.53-8.04,11.93-3.39,3.39-7.44,6.14-11.93,8.04s-9.42,2.95-14.6,2.95-10.11-1.05-14.6-2.95-8.53-4.65-11.93-8.04c-3.39-3.39-6.14-7.44-8.04-11.93s-2.95-9.42-2.95-14.6,1.05-10.11,2.95-14.6,4.65-8.53,8.04-11.93c3.39-3.39,7.44-6.14,11.93-8.04,4.49-1.9,9.42-2.95,14.6-2.95s10.11,1.05,14.6,2.95,8.53,4.65,11.93,8.04"/>
    <path class="st0" d="M83.2,71.77c0,4.34-.88,8.47-2.47,12.23-1.59,3.76-3.89,7.14-6.73,9.99s-6.23,5.14-9.99,6.73c-3.76,1.59-7.89,2.47-12.23,2.47s-8.47-.88-12.23-2.47-7.14-3.89-9.99-6.73c-2.84-2.84-5.14-6.23-6.73-9.99s-2.47-7.89-2.47-12.23.88-8.47,2.47-12.23,3.89-7.14,6.73-9.99,6.23-5.14,9.99-6.73c3.76-1.59,7.89-2.47,12.23-2.47"/>
    <path class="st3" d="M77.23,71.77c0,3.51-.71,6.86-2,9.91s-3.15,5.79-5.45,8.09c-2.3,2.3-5.04,4.17-8.09,5.45s-6.39,2-9.91,2-6.86-.71-9.91-2-5.79-3.15-8.09-5.45-4.17-5.04-5.45-8.09c-1.29-3.04-2-6.39-2-9.91s.71-6.86,2-9.91c1.29-3.04,3.15-5.79,5.45-8.09"/>
    <path class="st7" d="M71.12,71.77c0,2.67-.54,5.21-1.52,7.53s-2.4,4.4-4.15,6.15-3.83,3.17-6.15,4.15c-2.31.98-4.86,1.52-7.53,1.52s-5.21-.54-7.53-1.52c-2.31-.98-4.4-2.4-6.15-4.15s-3.17-3.83-4.15-6.15"/>
    <path class="st1" d="M65.13,71.77c0,1.84-.37,3.6-1.05,5.2s-1.65,3.03-2.86,4.24c-1.21,1.21-2.65,2.18-4.24,2.86-1.6.68-3.35,1.05-5.2,1.05s-3.6-.37-5.2-1.05-3.03-1.65-4.24-2.86"/>
  </g>
  <g>
    <path class="st8" d="M122.66,65.33h-25.34c-.82,0-1.49-.67-1.49-1.49s.67-1.49,1.49-1.49h25.34c.82,0,1.49.67,1.49,1.49s-.67,1.49-1.49,1.49Z"/>
    <path class="st8" d="M122.66,70.54h-25.34c-.82,0-1.49-.67-1.49-1.49s.67-1.49,1.49-1.49h25.34c.82,0,1.49.67,1.49,1.49s-.67,1.49-1.49,1.49Z"/>
    <path class="st8" d="M113.72,75.75h-16.4c-.82,0-1.49-.67-1.49-1.49s.67-1.49,1.49-1.49h16.4c.82,0,1.49.67,1.49,1.49s-.67,1.49-1.49,1.49Z"/>
  </g>
  <rect class="st13" x="86.42" y="49.38" width=".66" height="27.28" transform="translate(23.63 149.71) rotate(-89.93)"/>
  <rect class="st13" x="73.09" y="47.94" width=".66" height="15.2"/>
  <circle class="st6" cx="98.12" cy="63.01" r="2.11"/>
  <path class="st8" d="M119.54,86.38h-25.34c-.82,0-1.49-.67-1.49-1.49s.67-1.49,1.49-1.49h25.34c.82,0,1.49.67,1.49,1.49s-.67,1.49-1.49,1.49Z"/>
  <path class="st8" d="M119.54,91.59h-25.34c-.82,0-1.49-.67-1.49-1.49s.67-1.49,1.49-1.49h25.34c.82,0,1.49.67,1.49,1.49s-.67,1.49-1.49,1.49Z"/>
  <path class="st8" d="M110.59,96.79h-16.4c-.82,0-1.49-.67-1.49-1.49s.67-1.49,1.49-1.49h16.4c.82,0,1.49.67,1.49,1.49s-.67,1.49-1.49,1.49Z"/>
  <circle class="st4" cx="95" cy="84.05" r="2.11"/>
  <g>
    <path class="st8" d="M113.23,44.09h-25.34c-.82,0-1.49-.67-1.49-1.49s.67-1.49,1.49-1.49h25.34c.82,0,1.49.67,1.49,1.49s-.67,1.49-1.49,1.49Z"/>
    <path class="st8" d="M113.23,49.3h-25.34c-.82,0-1.49-.67-1.49-1.49s.67-1.49,1.49-1.49h25.34c.82,0,1.49.67,1.49,1.49s-.67,1.49-1.49,1.49Z"/>
    <path class="st8" d="M104.29,54.51h-16.4c-.82,0-1.49-.67-1.49-1.49s.67-1.49,1.49-1.49h16.4c.82,0,1.49.67,1.49,1.49s-.67,1.49-1.49,1.49Z"/>
  </g>
  <circle class="st2" cx="88.69" cy="41.77" r="2.11"/>
  <rect class="st13" x="75.02" y="16.09" width=".66" height="27.28" transform="translate(45.53 105.04) rotate(-89.93)"/>
  <rect class="st13" x="88.36" y="29.62" width=".66" height="9.13"/>
  <rect class="st13" x="67.09" y="113.02" width="27.28" height=".66" transform="translate(-.14 .1) rotate(-.07)"/>
  <rect class="st13" x="93.74" y="99.26" width=".66" height="14.2"/>
  <g>
    <path class="st10" d="M30.1,17.94v-5.29c0-1.45,1.18-2.63,2.63-2.63h13.12c1.45,0,2.63,1.18,2.63,2.63v5.29"/>
    <path class="st10" d="M49.8,17.94h-2.63v-5.29c0-.73-.59-1.32-1.32-1.32h-13.12c-.73,0-1.32.59-1.32,1.32v5.29h-2.63v-5.29c0-2.18,1.77-3.94,3.94-3.94h13.12c2.18,0,3.94,1.77,3.94,3.94v5.29Z"/>
  </g>
  <rect class="st10" x="35.99" y="9.34" width="6.85" height="15.81" transform="translate(22.18 56.66) rotate(-90)"/>
  <g>
    <path class="st11" d="M51.22,17.61v-4.96c0-1.45,1.18-2.63,2.63-2.63h13.12c1.45,0,2.63,1.18,2.63,2.63v4.96"/>
    <path class="st11" d="M70.92,17.61h-2.63v-4.96c0-.73-.59-1.32-1.32-1.32h-13.12c-.73,0-1.32.59-1.32,1.32v4.96h-2.63v-4.96c0-2.18,1.77-3.94,3.94-3.94h13.12c2.18,0,3.94,1.77,3.94,3.94v4.96Z"/>
  </g>
  <g>
    <path class="st11" d="M8.99,17.61v-4.96c0-1.45,1.18-2.63,2.63-2.63h13.12c1.45,0,2.63,1.18,2.63,2.63v4.96"/>
    <path class="st11" d="M28.69,17.61h-2.63v-4.96c0-.73-.59-1.32-1.32-1.32h-13.12c-.73,0-1.32.59-1.32,1.32v4.96h-2.63v-4.96c0-2.18,1.77-3.94,3.94-3.94h13.12c2.18,0,3.94,1.77,3.94,3.94v4.96Z"/>
  </g>
  <path class="st10" d="M17.78,14.41l-.86.62c-.12.08-.27-.03-.23-.17l.33-1.01c.02-.06,0-.13-.05-.17l-.86-.62c-.12-.08-.06-.27.09-.27h1.06c.06,0,.12-.04.14-.1l.33-1.01c.04-.14.24-.14.28,0l.33,1.01c.02.06.08.1.14.1h1.06c.14,0,.2.18.09.27l-.86.62c-.05.04-.07.11-.05.17l.33,1.01c.04.14-.11.25-.23.17l-.86-.62c-.05-.04-.12-.04-.18,0Z"/>
  <path class="st9" d="M37.01,14.48l-.86.62c-.12.08-.27-.03-.23-.17l.33-1.01c.02-.06,0-.13-.05-.17l-.86-.62c-.12-.08-.06-.27.09-.27h1.06c.06,0,.12-.04.14-.1l.33-1.01c.04-.14.24-.14.28,0l.33,1.01c.02.06.08.1.14.1h1.06c.14,0,.2.18.09.27l-.86.62c-.05.04-.07.11-.05.17l.33,1.01c.04.14-.11.25-.23.17l-.86-.62c-.05-.04-.12-.04-.18,0Z"/>
  <path class="st9" d="M41.4,14.48l-.86.62c-.12.08-.27-.03-.23-.17l.33-1.01c.02-.06,0-.13-.05-.17l-.86-.62c-.12-.08-.06-.27.09-.27h1.06c.06,0,.12-.04.14-.1l.33-1.01c.04-.14.24-.14.28,0l.33,1.01c.02.06.08.1.14.1h1.06c.14,0,.2.18.09.27l-.86.62c-.05.04-.07.11-.05.17l.33,1.01c.04.14-.11.25-.23.17l-.86-.62c-.05-.04-.12-.04-.18,0Z"/>
  <path class="st10" d="M56.02,14.41l-.86.62c-.12.08-.27-.03-.23-.17l.33-1.01c.02-.06,0-.13-.05-.17l-.86-.62c-.12-.08-.06-.27.09-.27h1.06c.06,0,.12-.04.14-.1l.33-1.01c.04-.14.24-.14.28,0l.33,1.01c.02.06.08.1.14.1h1.06c.14,0,.2.18.09.27l-.86.62c-.05.04-.07.11-.05.17l.33,1.01c.04.14-.11.25-.23.17l-.86-.62c-.05-.04-.12-.04-.18,0Z"/>
  <path class="st10" d="M60.4,14.41l-.86.62c-.12.08-.27-.03-.23-.17l.33-1.01c.02-.06,0-.13-.05-.17l-.86-.62c-.12-.08-.06-.27.09-.27h1.06c.06,0,.12-.04.14-.1l.33-1.01c.04-.14.24-.14.28,0l.33,1.01c.02.06.08.1.14.1h1.06c.14,0,.2.18.09.27l-.86.62c-.05.04-.07.11-.05.17l.33,1.01c.04.14-.11.25-.23.17l-.86-.62c-.05-.04-.12-.04-.18,0Z"/>
  <path class="st10" d="M64.79,14.41l-.86.62c-.12.08-.27-.03-.23-.17l.33-1.01c.02-.06,0-.13-.05-.17l-.86-.62c-.12-.08-.06-.27.09-.27h1.06c.06,0,.12-.04.14-.1l.33-1.01c.04-.14.24-.14.28,0l.33,1.01c.02.06.08.1.14.1h1.06c.14,0,.2.18.09.27l-.86.62c-.05.04-.07.11-.05.17l.33,1.01c.04.14-.11.25-.23.17l-.86-.62c-.05-.04-.12-.04-.18,0Z"/>
  <g>
    <path class="st8" d="M122.74,145.66H56.81c-.7,0-1.27-.66-1.27-1.47s.57-1.47,1.27-1.47h65.92c.7,0,1.27.66,1.27,1.47s-.57,1.47-1.27,1.47Z"/>
    <path class="st8" d="M122.74,150.82H56.81c-.7,0-1.27-.66-1.27-1.47s.57-1.47,1.27-1.47h65.92c.7,0,1.27.66,1.27,1.47s-.57,1.47-1.27,1.47Z"/>
    <path class="st8" d="M122.74,155.97H56.81c-.7,0-1.27-.66-1.27-1.47s.57-1.47,1.27-1.47h65.92c.7,0,1.27.66,1.27,1.47s-.57,1.47-1.27,1.47Z"/>
    <path class="st8" d="M105.42,161.14h-48.61c-.7,0-1.27-.66-1.27-1.47s.57-1.47,1.27-1.47h48.61c.7,0,1.27.66,1.27,1.47s-.57,1.47-1.27,1.47Z"/>
  </g>
  <g>
    <path class="st8" d="M122.74,125.15H56.81c-.7,0-1.27-.66-1.27-1.47s.57-1.47,1.27-1.47h65.92c.7,0,1.27.66,1.27,1.47s-.57,1.47-1.27,1.47Z"/>
    <path class="st8" d="M105.93,130.31h-49.11c-.7,0-1.27-.66-1.27-1.47s.57-1.47,1.27-1.47h49.11c.7,0,1.27.66,1.27,1.47s-.57,1.47-1.27,1.47Z"/>
  </g>
  <g>
    <path class="st8" d="M41.95,125.82H14.92c-.81,0-1.47-.66-1.47-1.47s.66-1.47,1.47-1.47h27.03c.81,0,1.47.66,1.47,1.47s-.66,1.47-1.47,1.47Z"/>
    <path class="st8" d="M41.95,130.96H14.92c-.81,0-1.47-.66-1.47-1.47s.66-1.47,1.47-1.47h27.03c.81,0,1.47.66,1.47,1.47s-.66,1.47-1.47,1.47Z"/>
    <path class="st8" d="M31.11,136.11H14.92c-.81,0-1.47-.66-1.47-1.47s.66-1.47,1.47-1.47h16.2c.81,0,1.47.66,1.47,1.47s-.66,1.47-1.47,1.47Z"/>
  </g>
  <g>
    <rect class="st12" x="13.08" y="121.75" width="4.54" height="4.54" rx=".72" ry=".72"/>
    <path class="st10" d="M14.51,124.79c.16.15.3.43.57.25l1.53-1.53c.18-.22-.07-.52-.31-.35l-1.38,1.37c-.06,0-.46-.48-.54-.52-.14-.06-.32.02-.34.18-.03.19.35.48.47.6Z"/>
  </g>
  <g>
    <g>
      <path class="st8" d="M41.54,145.72H14.51c-.81,0-1.47-.66-1.47-1.47s.66-1.47,1.47-1.47h27.03c.81,0,1.47.66,1.47,1.47s-.66,1.47-1.47,1.47Z"/>
      <path class="st8" d="M41.54,150.86H14.51c-.81,0-1.47-.66-1.47-1.47s.66-1.47,1.47-1.47h27.03c.81,0,1.47.66,1.47,1.47s-.66,1.47-1.47,1.47Z"/>
      <path class="st8" d="M30.71,156.01H14.51c-.81,0-1.47-.66-1.47-1.47s.66-1.47,1.47-1.47h16.2c.81,0,1.47.66,1.47,1.47s-.66,1.47-1.47,1.47Z"/>
    </g>
    <g>
      <rect class="st12" x="12.68" y="141.47" width="4.54" height="4.54" rx=".72" ry=".72"/>
      <path class="st10" d="M14.1,144.51c.16.15.3.43.57.25l1.53-1.53c.18-.22-.07-.52-.31-.35l-1.38,1.37c-.06,0-.46-.48-.54-.52-.14-.06-.32.02-.34.18-.03.19.35.48.47.6Z"/>
    </g>
  </g>
  <g>
    <path class="st8" d="M41.62,165.31H14.59c-.81,0-1.47-.66-1.47-1.47s.66-1.47,1.47-1.47h27.03c.81,0,1.47.66,1.47,1.47s-.66,1.47-1.47,1.47Z"/>
    <path class="st8" d="M41.62,170.45H14.59c-.81,0-1.47-.66-1.47-1.47s.66-1.47,1.47-1.47h27.03c.81,0,1.47.66,1.47,1.47s-.66,1.47-1.47,1.47Z"/>
    <path class="st8" d="M30.79,175.6H14.59c-.81,0-1.47-.66-1.47-1.47s.66-1.47,1.47-1.47h16.2c.81,0,1.47.66,1.47,1.47s-.66,1.47-1.47,1.47Z"/>
  </g>
  <g>
    <rect class="st12" x="12.76" y="161.06" width="4.54" height="4.54" rx=".72" ry=".72"/>
    <path class="st10" d="M14.18,164.1c.16.15.3.43.57.25l1.53-1.53c.18-.22-.07-.52-.31-.35l-1.38,1.37c-.06,0-.46-.48-.54-.52-.14-.06-.32.02-.34.18-.03.19.35.48.47.6Z"/>
  </g>
</svg>