<?xml version="1.0" encoding="utf-8"?>
<!-- Generator: Adobe Illustrator 28.1.0, SVG Export Plug-In . SVG Version: 6.00 Build 0)  -->
<svg version="1.1" id="Layer_1" xmlns="http://www.w3.org/2000/svg" xmlns:xlink="http://www.w3.org/1999/xlink" x="0px" y="0px"
	 viewBox="0 0 595.28 595.63" style="enable-background:new 0 0 595.28 595.63;" xml:space="preserve">
<style type="text/css">
	.st0{fill:#ED727D;}
	.st1{fill-rule:evenodd;clip-rule:evenodd;fill:#2757A2;}
	.st2{fill-rule:evenodd;clip-rule:evenodd;fill:#93ABD1;}
	.st3{fill:#fbd97d;}
</style>
<g>
	<path class="st3" d="M218.33,524.84c6.42,1.97,14.97,4.65,21.47,6.31c8.19,1.41,23.42,4.03,65.81-8.05
		c8.2-2.15,28.08-6.6,35.54-1.54c0.1,0.73,0.24,1.71,0.34,2.44c-3.26,3.26-3.85,3.84-11.35,6.32c-5.94,1.73-11.69,3.19-17.2,4.36
		c-10.53,2.23-19.3,3.17-26.21,2.96l10.11,0.15c18.67-0.6,24.03-1.01,43.57-4.41c0.46-0.09,0.93-0.19,1.41-0.29
		c34.41-7.27,83.11-31.57,108.76-54.27c0.04-0.03,0.07-0.07,0.11-0.1c9.42-8.77,19.16-17.84,31.21-33.71l4.41-6.01
		c-3.68,5.15-9.09,10.95-16.27,17.3c-9.43,8.34-21.01,16.83-33.85,25.03c-17.75,10.48-18.37,3.29-17.57,0.78
		c0.62-1.94,4.05-9.21,21.89-21.33c16.34-10.43,31.07-21.23,43.06-31.84c13.65-12.07,22.25-22.58,26.05-31.08
		c2.76-6.93,6.41-16.18,8.8-23.24c1.66-5.96,4.01-13.89,5.41-19.92c-2.51,10.95-13.3,25.53-32.88,42.85
		c-55.67,49.26-161.35,101.98-236.03,117.77c-27.73,5.86-47.29,5.8-58.07,0.89C203.27,518.87,211.75,522.64,218.33,524.84
		L218.33,524.84z"/>
	<path class="st3" d="M84.93,407.15c3.37,6.18,7.74,14.48,11.41,20.48c14.29,17.02,52.86,16.55,114.64-1.38
		c36.54-8.73,52.62,4.45,45.62,17.59c-5.03,9.46-18.19,14.15-23.8,16.15c-10.76,3.14-21.19,5.79-31.17,7.9
		c-41.22,8.71-67.47,6.59-77.39-3.97c17.39,17.12,17.39,17.12,27.24,24.76l6.61,4.93c10.8,7.73,34.2,8.75,69.23,1.35
		c83.74-17.7,202.23-76.82,264.65-132.05c24.87-22,37.09-40.07,37.5-52.72l0.07-10.73c-0.57-10.28-1.76-23.97-3.08-34.19
		c2.25,13.68-10.72,34.57-40.1,60.57c-17.08,15.12-38.07,30.5-61.35,45.36c-31.86,17.94-43.5,5.21-40.8-6.64
		c3.23-14.23,20.42-26.38,26.07-30.38c24.14-15.4,45.9-31.36,63.62-47.03c32.93-29.14,45.98-52.08,40.71-66.09
		c-2.74-6.48-6.28-15.17-9.33-21.51c-3.37-6.18-7.74-14.49-11.41-20.49c8.5,13.62-3.94,37.75-39.27,69.01
		c-69.64,61.61-201.82,127.57-295.24,147.31c-49.25,10.41-77.89,5.9-83.76-9.72C78.33,392.12,81.71,400.89,84.93,407.15
		L84.93,407.15z"/>
	<path class="st3" d="M145.34,353.97c90.1-19.04,217.58-82.63,284.75-142.07c36.44-32.24,47.62-56.62,35.85-69.15l-6.25-6.39
		c-7.67-6.99-18.1-15.84-26.48-22.4c13.39,11.14,3.6,34.44-31.76,65.73c-7.23,6.39-15.22,12.85-23.82,19.3
		c-28.26,18.09-45.14,4.75-43.19-9.06c1.43-10.03,10.22-17.54,13.98-20.73c7.66-5.75,14.78-11.51,21.23-17.21
		c34.97-30.94,41.89-53.14,23.73-61.48c-9.32-3.88-21.9-8.64-31.47-11.87l-9.52-2.57c7.6,2.31,11.51,6.74,11.52,12.92
		c-8.33,12.33-40.17-2.72-41.51-8.36c-0.02-7.13-6.58-11.26-19.24-11.59c-6.46-0.05-15.09-0.03-21.57,0.23
		c-13.68,1.11-15.1,1.23-25.74,2.93c0.92-0.08,2.16-0.22,3.09-0.32c25.02-2.62,28.05,9.49,5.29,29.65
		c-25.68,22.7-74.36,47-108.77,54.27c-25.67,5.41-36.13-0.17-29.17-12.74c7.9-10.42,20.94-20.79,31.02-24.67
		c-2.99,6.88,2.39,9.74,15.58,6.95c17.68-3.74,42.69-16.22,55.86-27.9c11.69-10.33,10.16-16.56-2.72-15.21
		c-4.52,1.14-8.1,2.26-15.99,6.92c1.58-1.06,3.65-2.53,5.21-3.65c-10.56,2.02-21.57,6.82-31.42,12.35
		c-4.63,2.4-9.46,4.46-13.92,7.24c-1.89,1.24-4.43,2.85-6.3,4.11c-6.9,4.81-7.16,5-10.83,7.78c-8.04,6.37-8.52,6.77-13.05,10.74
		c-10.77,9.98-13.25,12.57-22.34,22.66c-4.09,5.04-9.46,11.77-13.29,16.98c-15.72,21.64-1.33,31.89,38.93,23.38
		c38.34-8.11,88.95-30.83,127.07-55.85c20.98-11.69,39.56-2.16,37.64,9.59c-1.04,6.35-5.99,10.19-10.36,13.56
		c-48.5,31.81-112.88,60.71-161.65,71.02c-43.95,9.29-63.66,1.03-55.72-18.89l-3.99,9.68c-3.24,9.55-7.15,22.43-9.7,32.2
		c-4.58,20.13,18.92,27.92,67.3,17.69c18.62-3.91,39.15-10.15,60.37-18.05c30.66-9.42,42.28,5.75,34.86,20.19
		c-5.77,11.26-18.82,17.09-24.38,19.6c-23.77,8.86-46.79,15.84-67.69,20.25c-48.86,10.32-75.1,4.26-76.08-13.54
		c0.17,10.6,0.83,24.12,1.71,34.36l1.3,8.85C66.62,359,94.68,364.69,145.34,353.97z"/>
</g>
</svg>
