<?xml version="1.0" encoding="UTF-8"?>
<svg id="Layer_1" xmlns="http://www.w3.org/2000/svg" version="1.1" viewBox="0 0 134.74 190.23">
  <!-- Generator: Adobe Illustrator 29.8.3, SVG Export Plug-In . SVG Version: 2.1.1 Build 3)  -->
  <defs>
    <style>
      .st0 {
        fill: #f2f2f2;
      }

      .st1 {
        fill: #ed727d;
      }

      .st2 {
        fill: #fff;
      }

      .st3 {
        fill: #f4f9f8;
      }

      .st4 {
        fill: #f7c027;
      }

      .st5 {
        fill: #fde9b3;
      }

      .st6 {
        fill: #fad5d8;
      }

      .st7 {
        fill: #318370;
      }

      .st8 {
        stroke: #318370;
      }

      .st8, .st9 {
        stroke-width: .5px;
      }

      .st8, .st9, .st10 {
        fill: none;
        stroke-linecap: round;
        stroke-linejoin: round;
      }

      .st8, .st10 {
        opacity: .1;
      }

      .st9 {
        stroke: #fff;
      }

      .st11 {
        fill: #f4f7fb;
      }

      .st12 {
        fill: #f7f7f7;
      }

      .st13 {
        fill: #2160a9;
      }

      .st14 {
        fill: #fde6a8;
      }

      .st15 {
        fill: #a6bfdd;
      }

      .st16 {
        fill: #d2dfee;
      }

      .st17 {
        fill: #e0ecea;
      }

      .st10 {
        stroke: #548170;
        stroke-width: 2.5px;
      }

      .st18 {
        fill: #f5f5f5;
      }

      .st19 {
        fill: #c1dad4;
      }

      .st20 {
        fill: #e9eff6;
      }

      .st21 {
        fill: #e8e8e8;
      }
    </style>
  </defs>
  <rect class="st17" x="12.96" y="143.85" width="108.63" height="8.17" rx="2.11" ry="2.11"/>
  <path class="st19" d="M52.61,149.17H18.15c-.7,0-1.27-.57-1.27-1.27s.57-1.27,1.27-1.27h34.46c.7,0,1.27.57,1.27,1.27s-.57,1.27-1.27,1.27Z"/>
  <path class="st19" d="M113.96,149.17h-22.44c-.7,0-1.27-.57-1.27-1.27s.57-1.27,1.27-1.27h22.44c.7,0,1.27.57,1.27,1.27s-.57,1.27-1.27,1.27Z"/>
  <path class="st4" d="M102.49,7.09c.14.65.36,1.26.63,1.86.13.29.59.39.84.22.52-.35,1.06-.66,1.63-.92.3-.14.61-.26.92-.37.28-.1.64-.27.94-.26.59.02,1.21.45,1.75.67.63.26,1.31.46,1.99.43s1.19-.3,1.8-.49c.68-.2,1.36-.03,2.04.1,1.41.26,2.84.39,4.27.4,1.63,0,3.26-.15,4.86-.46.77-.15.45-1.33-.33-1.18-2.8.55-5.74.58-8.55.05-.74-.14-1.48-.3-2.23-.17-.62.1-1.17.47-1.79.53-1.37.13-2.41-.99-3.73-1.09-.74-.05-1.57.36-2.24.65s-1.34.64-1.96,1.06l.84.22c-.23-.5-.39-1.03-.51-1.57-.17-.77-1.35-.44-1.18.33h0Z"/>
  <rect class="st12" x="7.95" y="14.34" width="116.84" height="8.17" rx="2.11" ry="2.11"/>
  <path class="st21" d="M47.6,19.66H13.14c-.7,0-1.27-.57-1.27-1.27s.57-1.27,1.27-1.27h34.46c.7,0,1.27.57,1.27,1.27s-.57,1.27-1.27,1.27Z"/>
  <g>
    <path class="st0" d="M121.34,29.36H12.09c-.59,0-1.07-.56-1.07-1.24s.48-1.24,1.07-1.24h109.25c.59,0,1.07.56,1.07,1.24s-.48,1.24-1.07,1.24Z"/>
    <path class="st0" d="M67.56,33.72H12.09c-.59,0-1.07-.56-1.07-1.24s.48-1.24,1.07-1.24h55.48c.59,0,1.07.56,1.07,1.24s-.48,1.24-1.07,1.24Z"/>
  </g>
  <rect class="st12" x="7.95" y="101.69" width="116.63" height="8.17" rx="2.11" ry="2.11"/>
  <path class="st21" d="M47.6,107.01H13.14c-.7,0-1.27-.57-1.27-1.27s.57-1.27,1.27-1.27h34.46c.7,0,1.27.57,1.27,1.27s-.57,1.27-1.27,1.27Z"/>
  <path class="st0" d="M119.13,116.72H12.09c-.59,0-1.07-.56-1.07-1.24s.48-1.24,1.07-1.24h107.04c.59,0,1.07.56,1.07,1.24s-.48,1.24-1.07,1.24Z"/>
  <g>
    <path class="st0" d="M119.13,121.43H12.09c-.59,0-1.07-.56-1.07-1.24s.48-1.24,1.07-1.24h107.04c.59,0,1.07.56,1.07,1.24s-.48,1.24-1.07,1.24Z"/>
    <path class="st0" d="M75.6,125.78H12.09c-.59,0-1.07-.56-1.07-1.24s.48-1.24,1.07-1.24h63.51c.59,0,1.07.56,1.07,1.24s-.48,1.24-1.07,1.24Z"/>
  </g>
  <rect class="st3" x="15.11" y="158.53" width="104.42" height="5.63"/>
  <line class="st10" x1="18.2" y1="161.35" x2="56.65" y2="161.35"/>
  <line class="st10" x1="72.93" y1="161.35" x2="78.47" y2="161.35"/>
  <line class="st10" x1="91.34" y1="161.35" x2="105.1" y2="161.35"/>
  <g>
    <rect class="st2" x="15.11" y="164.3" width="104.42" height="5.63"/>
    <line class="st10" x1="18.2" y1="167.12" x2="48.01" y2="167.12"/>
    <line class="st10" x1="72.93" y1="167.12" x2="78.47" y2="167.12"/>
    <line class="st10" x1="91.34" y1="167.12" x2="114.1" y2="167.12"/>
  </g>
  <g>
    <rect class="st3" x="15.11" y="169.88" width="104.42" height="5.63"/>
    <line class="st10" x1="18.2" y1="172.7" x2="56.65" y2="172.7"/>
    <line class="st10" x1="72.93" y1="172.7" x2="78.47" y2="172.7"/>
    <line class="st10" x1="91.34" y1="172.7" x2="105.1" y2="172.7"/>
  </g>
  <g>
    <rect class="st2" x="15.11" y="152.75" width="103.42" height="5.63"/>
    <line class="st10" x1="18.2" y1="155.57" x2="48.01" y2="155.57"/>
    <line class="st10" x1="72.93" y1="155.57" x2="78.47" y2="155.57"/>
    <line class="st10" x1="91.34" y1="155.57" x2="114.1" y2="155.57"/>
  </g>
  <line class="st8" x1="65.55" y1="144.17" x2="65.55" y2="175.78"/>
  <line class="st8" x1="85.98" y1="144.17" x2="85.98" y2="175.78"/>
  <line class="st9" x1="65.55" y1="144.17" x2="65.55" y2="152.16"/>
  <line class="st9" x1="85.98" y1="144.17" x2="85.98" y2="152.16"/>
  <path class="st19" d="M78.91,149.32h-6.44c-.7,0-1.27-.57-1.27-1.27s.57-1.27,1.27-1.27h6.44c.7,0,1.27.57,1.27,1.27s-.57,1.27-1.27,1.27Z"/>
  <path class="st0" d="M121.73,138.83H25.7v-2.44c0-1.72-1.39-3.11-3.11-3.11h-11.07c-1.72,0-3.11,1.39-3.11,3.11v40.14c0,2.44,1.98,4.41,4.41,4.41h108.9c2.44,0,4.41-1.98,4.41-4.41v-33.29c0-2.44-1.98-4.41-4.41-4.41ZM123.65,176.53c0,1.06-.86,1.92-1.92,1.92H12.83c-1.06,0-1.92-.86-1.92-1.92v-33.29c0-1.06.86-1.92,1.92-1.92h108.9c1.06,0,1.92.86,1.92,1.92v33.29Z"/>
  <g>
    <path class="st4" d="M14.1,137.67l.27.85c.04.12-.1.21-.19.14l-.72-.53s-.1-.03-.15,0l-.72.52c-.1.07-.23-.03-.19-.14l.28-.85c.02-.05,0-.11-.05-.14l-.72-.53c-.1-.07-.05-.23.07-.23h.89c.05,0,.1-.03.12-.08l.28-.85c.04-.12.2-.11.24,0l.27.85c.02.05.06.09.12.09h.89c.12,0,.17.16.07.23l-.72.52s-.06.09-.05.14Z"/>
    <path class="st4" d="M18.14,137.67l.27.85c.04.12-.1.21-.19.14l-.72-.53s-.1-.03-.15,0l-.72.52c-.1.07-.23-.03-.19-.14l.28-.85c.02-.05,0-.11-.05-.14l-.72-.53c-.1-.07-.05-.23.07-.23h.89c.05,0,.1-.03.12-.08l.28-.85c.04-.12.2-.11.24,0l.27.85c.02.05.06.09.12.09h.89c.12,0,.17.16.07.23l-.72.52s-.06.09-.05.14Z"/>
    <path class="st4" d="M22.14,137.67l.27.85c.04.12-.1.21-.19.14l-.72-.53s-.1-.03-.15,0l-.72.52c-.1.07-.23-.03-.19-.14l.28-.85c.02-.05,0-.11-.05-.14l-.72-.53c-.1-.07-.05-.23.07-.23h.89c.05,0,.1-.03.12-.08l.28-.85c.04-.12.2-.11.24,0l.27.85c.02.05.06.09.12.09h.89c.12,0,.17.16.07.23l-.72.52s-.06.09-.05.14Z"/>
  </g>
  <rect class="st20" x="106.21" y="41.94" width="11.62" height="6.97" rx="2.07" ry="2.07"/>
  <rect class="st20" x="93.9" y="41.94" width="11.62" height="6.97" rx="1.93" ry="1.93"/>
  <rect class="st20" x="81.58" y="41.94" width="11.62" height="6.97" rx="1.89" ry="1.89"/>
  <rect class="st20" x="69.27" y="41.94" width="11.62" height="6.97" rx="1.71" ry="1.71"/>
  <rect class="st20" x="56.96" y="41.94" width="11.62" height="6.97" rx="1.9" ry="1.9"/>
  <rect class="st20" x="44.64" y="41.94" width="11.62" height="6.97" rx="1.72" ry="1.72"/>
  <rect class="st19" x="106.21" y="49.61" width="11.62" height="6.97"/>
  <rect class="st19" x="93.9" y="49.61" width="11.62" height="6.97"/>
  <rect class="st19" x="81.58" y="49.61" width="11.62" height="6.97"/>
  <rect class="st11" x="69.27" y="49.61" width="11.62" height="6.97"/>
  <rect class="st6" x="56.96" y="49.61" width="11.62" height="6.97"/>
  <rect class="st11" x="44.64" y="49.61" width="11.62" height="6.97"/>
  <rect class="st11" x="106.21" y="57.28" width="11.62" height="6.97"/>
  <rect class="st14" x="93.9" y="57.28" width="11.62" height="6.97"/>
  <rect class="st14" x="81.58" y="57.28" width="11.62" height="6.97"/>
  <rect class="st15" x="69.27" y="57.28" width="11.62" height="6.97"/>
  <rect class="st11" x="56.96" y="57.28" width="11.62" height="6.97"/>
  <rect class="st11" x="44.64" y="57.28" width="11.62" height="6.97"/>
  <rect class="st15" x="106.21" y="64.94" width="11.62" height="6.97"/>
  <rect class="st15" x="93.9" y="64.94" width="11.62" height="6.97"/>
  <rect class="st11" x="81.58" y="64.94" width="11.62" height="6.97"/>
  <rect class="st11" x="69.27" y="64.94" width="11.62" height="6.97"/>
  <rect class="st11" x="56.96" y="64.94" width="11.62" height="6.97"/>
  <rect class="st11" x="44.64" y="64.94" width="11.62" height="6.97"/>
  <rect class="st5" x="106.21" y="72.61" width="11.62" height="6.97"/>
  <rect class="st11" x="93.9" y="72.61" width="11.62" height="6.97"/>
  <rect class="st11" x="81.58" y="72.61" width="11.62" height="6.97"/>
  <rect class="st11" x="69.27" y="72.61" width="11.62" height="6.97"/>
  <rect class="st11" x="56.96" y="72.61" width="11.62" height="6.97"/>
  <rect class="st11" x="44.64" y="72.61" width="11.62" height="6.97"/>
  <rect class="st6" x="106.21" y="80.28" width="11.62" height="6.97"/>
  <rect class="st6" x="93.9" y="80.28" width="11.62" height="6.97"/>
  <rect class="st11" x="81.58" y="80.28" width="11.62" height="6.97"/>
  <rect class="st11" x="69.27" y="80.28" width="11.62" height="6.97"/>
  <rect class="st11" x="56.96" y="80.28" width="11.62" height="6.97"/>
  <rect class="st11" x="44.64" y="80.28" width="11.62" height="6.97"/>
  <rect class="st20" x="15.61" y="80.28" width="28.33" height="6.97" rx="1.89" ry="1.89"/>
  <rect class="st20" x="15.61" y="72.61" width="28.33" height="6.97" rx="1.47" ry="1.47"/>
  <rect class="st20" x="15.61" y="64.94" width="28.33" height="6.97" rx="1.62" ry="1.62"/>
  <rect class="st20" x="15.61" y="57.28" width="28.33" height="6.97" rx="1.58" ry="1.58"/>
  <rect class="st20" x="15.61" y="49.61" width="28.33" height="6.97" rx="1.61" ry="1.61"/>
  <path class="st16" d="M53.25,46.76h-5.67c-.67,0-1.21-.57-1.21-1.27s.54-1.27,1.21-1.27h5.67c.67,0,1.21.57,1.21,1.27s-.54,1.27-1.21,1.27Z"/>
  <path class="st16" d="M65.32,46.76h-5.67c-.67,0-1.21-.57-1.21-1.27s.54-1.27,1.21-1.27h5.67c.67,0,1.21.57,1.21,1.27s-.54,1.27-1.21,1.27Z"/>
  <path class="st16" d="M77.78,46.76h-5.67c-.67,0-1.21-.57-1.21-1.27s.54-1.27,1.21-1.27h5.67c.67,0,1.21.57,1.21,1.27s-.54,1.27-1.21,1.27Z"/>
  <path class="st16" d="M89.93,46.76h-5.67c-.67,0-1.21-.57-1.21-1.27s.54-1.27,1.21-1.27h5.67c.67,0,1.21.57,1.21,1.27s-.54,1.27-1.21,1.27Z"/>
  <path class="st16" d="M102.61,46.76h-5.67c-.67,0-1.21-.57-1.21-1.27s.54-1.27,1.21-1.27h5.67c.67,0,1.21.57,1.21,1.27s-.54,1.27-1.21,1.27Z"/>
  <path class="st16" d="M114.77,46.76h-5.67c-.67,0-1.21-.57-1.21-1.27s.54-1.27,1.21-1.27h5.67c.67,0,1.21.57,1.21,1.27s-.54,1.27-1.21,1.27Z"/>
  <path class="st16" d="M35.66,54.6h-13.32c-.67,0-1.21-.57-1.21-1.27s.54-1.27,1.21-1.27h13.32c.67,0,1.21.57,1.21,1.27s-.54,1.27-1.21,1.27Z"/>
  <path class="st16" d="M35.66,62.12h-13.32c-.67,0-1.21-.57-1.21-1.27s.54-1.27,1.21-1.27h13.32c.67,0,1.21.57,1.21,1.27s-.54,1.27-1.21,1.27Z"/>
  <path class="st16" d="M35.66,69.79h-13.32c-.67,0-1.21-.57-1.21-1.27s.54-1.27,1.21-1.27h13.32c.67,0,1.21.57,1.21,1.27s-.54,1.27-1.21,1.27Z"/>
  <path class="st16" d="M35.66,77.38h-13.32c-.67,0-1.21-.57-1.21-1.27s.54-1.27,1.21-1.27h13.32c.67,0,1.21.57,1.21,1.27s-.54,1.27-1.21,1.27Z"/>
  <path class="st16" d="M35.66,84.98h-13.32c-.67,0-1.21-.57-1.21-1.27s.54-1.27,1.21-1.27h13.32c.67,0,1.21.57,1.21,1.27s-.54,1.27-1.21,1.27Z"/>
  <g>
    <rect class="st1" x="97.74" y="81.01" width="5.18" height="5.18" rx=".83" ry=".83"/>
    <g>
      <path class="st2" d="M100.24,85.37h-.94c-.41,0-.74-.33-.74-.74v-2.06c0-.41.33-.74.74-.74h2.06c.41,0,.74.33.74.74v.94h-.28v-.94c0-.25-.21-.46-.46-.46h-2.06c-.25,0-.46.21-.46.46v2.06c0,.25.21.46.46.46h.94v.28Z"/>
      <path class="st2" d="M101.89,85.78h-.82c-.3,0-.54-.24-.54-.54v-.82c0-.3.24-.54.54-.54h.82c.3,0,.54.24.54.54v.82c0,.3-.24.54-.54.54ZM101.07,84.15c-.15,0-.27.12-.27.27v.82c0,.15.12.27.27.27h.82c.15,0,.27-.12.27-.27v-.82c0-.15-.12-.27-.27-.27h-.82Z"/>
      <path class="st2" d="M100.46,83.9s-.07-.01-.1-.04l-1.25-1.25c-.05-.05-.05-.14,0-.2s.14-.05.2,0l1.25,1.25c.05.05.05.14,0,.2-.03.03-.06.04-.1.04Z"/>
      <path class="st2" d="M100.65,83.95h-1.04c-.08,0-.14-.06-.14-.14s.06-.14.14-.14h.76v-.76c0-.08.06-.14.14-.14s.14.06.14.14v1.04Z"/>
    </g>
  </g>
  <g>
    <rect class="st1" x="60.27" y="50.42" width="5.18" height="5.18" rx=".83" ry=".83"/>
    <g>
      <path class="st2" d="M62.77,54.78h-.94c-.41,0-.74-.33-.74-.74v-2.06c0-.41.33-.74.74-.74h2.06c.41,0,.74.33.74.74v.94h-.28v-.94c0-.25-.21-.46-.46-.46h-2.06c-.25,0-.46.21-.46.46v2.06c0,.25.21.46.46.46h.94v.28Z"/>
      <path class="st2" d="M64.42,55.19h-.82c-.3,0-.54-.24-.54-.54v-.82c0-.3.24-.54.54-.54h.82c.3,0,.54.24.54.54v.82c0,.3-.24.54-.54.54ZM63.6,53.57c-.15,0-.27.12-.27.27v.82c0,.15.12.27.27.27h.82c.15,0,.27-.12.27-.27v-.82c0-.15-.12-.27-.27-.27h-.82Z"/>
      <path class="st2" d="M62.99,53.32s-.07-.01-.1-.04l-1.25-1.25c-.05-.05-.05-.14,0-.2s.14-.05.2,0l1.25,1.25c.05.05.05.14,0,.2-.03.03-.06.04-.1.04Z"/>
      <path class="st2" d="M63.18,53.36h-1.04c-.08,0-.14-.06-.14-.14s.06-.14.14-.14h.76v-.76c0-.08.06-.14.14-.14s.14.06.14.14v1.04Z"/>
    </g>
  </g>
  <g>
    <rect class="st7" x="109.8" y="58.26" width="4.54" height="4.54" rx=".72" ry=".72"/>
    <path class="st2" d="M111.23,61.3c.16.15.3.43.57.25l1.53-1.53c.18-.22-.07-.52-.31-.35l-1.38,1.37c-.06,0-.46-.48-.54-.52-.14-.06-.32.02-.34.18-.03.19.35.48.47.6Z"/>
  </g>
  <path class="st0" d="M44.58,94.18h-27.4c-.81,0-1.47-.66-1.47-1.47s.66-1.47,1.47-1.47h27.4c.81,0,1.47.66,1.47,1.47s-.66,1.47-1.47,1.47Z"/>
  <path class="st0" d="M80.26,94.18h-27.91c-.81,0-1.47-.66-1.47-1.47s.66-1.47,1.47-1.47h27.91c.81,0,1.47.66,1.47,1.47s-.66,1.47-1.47,1.47Z"/>
  <path class="st0" d="M116.5,94.18h-28.99c-.81,0-1.47-.66-1.47-1.47s.66-1.47,1.47-1.47h28.99c.81,0,1.47.66,1.47,1.47s-.66,1.47-1.47,1.47Z"/>
  <g>
    <rect class="st13" x="15.97" y="90.73" width="4.54" height="4.54" rx=".73" ry=".73"/>
    <g>
      <path class="st18" d="M18.24,94.56c-.14,0-.25-.11-.25-.25v-2.63c0-.14.11-.25.25-.25s.25.11.25.25v2.63c0,.14-.11.25-.25.25Z"/>
      <path class="st18" d="M19.55,93.25h-2.63c-.14,0-.25-.11-.25-.25s.11-.25.25-.25h2.63c.14,0,.25.11.25.25s-.11.25-.25.25Z"/>
    </g>
  </g>
  <g>
    <rect class="st13" x="51.05" y="90.73" width="4.54" height="4.54" rx=".73" ry=".73"/>
    <g>
      <path class="st18" d="M53.32,94.56c-.14,0-.25-.11-.25-.25v-2.63c0-.14.11-.25.25-.25s.25.11.25.25v2.63c0,.14-.11.25-.25.25Z"/>
      <path class="st18" d="M54.64,93.25h-2.63c-.14,0-.25-.11-.25-.25s.11-.25.25-.25h2.63c.14,0,.25.11.25.25s-.11.25-.25.25Z"/>
    </g>
  </g>
  <g>
    <rect class="st13" x="86.4" y="90.73" width="4.54" height="4.54" rx=".73" ry=".73"/>
    <g>
      <path class="st18" d="M88.67,94.56c-.14,0-.25-.11-.25-.25v-2.63c0-.14.11-.25.25-.25s.25.11.25.25v2.63c0,.14-.11.25-.25.25Z"/>
      <path class="st18" d="M89.98,93.25h-2.63c-.14,0-.25-.11-.25-.25s.11-.25.25-.25h2.63c.14,0,.25.11.25.25s-.11.25-.25.25Z"/>
    </g>
  </g>
</svg>