<svg width="50" height="50" viewBox="0 0 50 50" fill="none" xmlns="http://www.w3.org/2000/svg">
    <circle cx="25" cy="25" r="25" fill="#fbc124"/>

    <svg x="7" y="7" width="35" height="35" viewBox="0 0 750 883">
        <path fill-rule="evenodd" clip-rule="evenodd" fill="#102B32" d="M678.91,450.95c48.7-.02,81.83-50.39,63.36-96.35l-9.37-23.3-115.52-287.42c-23.24-57.81-103.53-57.81-126.77,0L234.15,681.95l-92.84-230.99h145.92l48.08-119.62H68.58c-48.71,0-81.86,50.39-63.39,96.35l165.58,411.95c23.24,57.81,103.53,57.81,126.77,0L554,201.57l52.14,129.73h-64.58l-48.07,119.62h160.74l.02.04h24.67Z"/>
    </svg>
</svg>