<svg height="50" id="Layer_1" xmlns="http://www.w3.org/2000/svg" version="1.1" xmlns:xlink="http://www.w3.org/1999/xlink" viewBox="0 0 2000 883">
    <g>
        {# Original group that used clipPath "clippath" and image data. Now directly filled. #}
        <path fill="#FFFFFF" d="M1874.16,589.44c-14.86,0-27.4,4.6-37.16,14.27-9.74,9.21-15.32,18.88-16.71,28.54h106.81c-1.85-21.64-19.96-42.81-52.94-42.81ZM1998.63,679.67h-180.2c4.18,29.93,30.18,48.35,61.3,48.35,21.83,0,44.12-11.51,55.27-29.46l52.48,34.07c-20.9,37.29-56.2,55.7-106.83,55.7-38.54,0-70.59-11.97-97.06-35.91-26.01-24.4-39.01-55.25-39.01-92.99,0-35.46,13-65.38,38.54-90.7,26.02-25.32,57.13-37.75,92.89-37.75s66.42,11.51,89.17,34.07c22.75,22.56,34.37,52.48,34.37,88.85,0,11.51-.46,20.26-.93,25.78ZM1702.07,605.55c-46.9,0-67.34,29.01-67.34,73.2v52.7c0,28.36-23.19,51.34-51.79,51.34h-20.66v-245.85h71.99v37.75h.46c10.69-22.56,37.16-40.51,70.13-40.51,6.04,0,10.69.46,14.4,1.84v70.9c-5.57-.92-11.14-1.38-17.18-1.38ZM1429.69,782.8v-30.39h-.46c-16.25,23.48-39.48,35.45-69.2,35.45s-52.02-9.21-67.81-27.62c-15.32-18.87-23.22-41.9-23.22-69.06v-154.23h72.45v137.19c0,29.01,13.47,46.96,42.73,46.96s44.58-19.8,44.58-46.96v-137.19h72.45v245.85h-71.53ZM1155.66,599.11v85.64c0,28.08,14.86,39.13,43.2,39.13,6.03,0,11.6-.45,16.71-1.84v59.39c-10.68,3.22-21.83,4.6-33.9,4.6-64.56,0-98.47-34.99-98.47-92.54v-94.38h-44.59v-62.15h45.51v-76.88h71.53v76.88h61.3v62.15h-61.3ZM928.54,782.8v-136.27c0-29.01-14.86-47.88-43.19-47.88s-44.58,20.71-44.58,47.88v92.65c0,24.09-19.7,43.62-44,43.62h-28.45v-245.84h71.99v32.23h.46c6.04-10.13,13.93-17.95,24.62-23.94,21.83-12.43,34.83-12.89,45.51-12.89,29.73,0,52.02,9.2,66.88,28.08,15.32,18.88,22.76,41.9,22.76,69.52v152.84h-71.99ZM591.36,589.44c-14.86,0-27.4,4.6-37.16,14.27-9.75,9.21-15.32,18.88-16.71,28.54h106.82c-1.86-21.64-19.97-42.81-52.94-42.81ZM715.83,679.67h-180.21c4.18,29.93,30.19,48.35,61.31,48.35,21.83,0,44.12-11.51,55.27-29.46l52.48,34.07c-20.9,37.29-56.19,55.7-106.82,55.7-38.54,0-70.59-11.97-97.07-35.91-26-24.4-39.01-55.25-39.01-92.99,0-35.46,13.01-65.38,38.55-90.7,26.01-25.32,57.13-37.75,92.89-37.75s66.42,11.51,89.17,34.07c22.76,22.56,34.37,52.48,34.37,88.85,0,11.51-.46,20.26-.93,25.78Z"/>
    </g>
    <g>
        {# Original group that used clipPath "clippath-2" and image data. Now directly filled. #}
        <path fill="#FFFFFF" d="M678.91,450.95c48.7-.02,81.83-50.39,63.36-96.35l-9.37-23.3-115.52-287.42c-23.24-57.81-103.53-57.81-126.77,0L234.15,681.95l-92.84-230.99h145.92l48.08-119.62H68.58c-48.71,0-81.86,50.39-63.39,96.35l165.58,411.95c23.24,57.81,103.53,57.81,126.77,0L554,201.57l52.14,129.73h-64.58l-48.07,119.62h160.74l.02.04h24.67Z"/>
    </g>
    <g>
        {# Original group that used clipPath "clippath-4" and image data. Now directly filled. #}
        <path fill="#fbc124" d="M1160.59,415.04h30.98v-58.56h34.83c31.95,0,54.28-22.95,54.28-55.93s-22.34-55.22-54.28-55.22h-65.81v169.7ZM1191.57,329.71v-57.84h29.55c17.53,0,28.1,11.23,28.1,28.68s-10.57,29.16-28.58,29.16h-29.07ZM1301.58,377.03c0,34.9,20.9,39.2,37.71,39.2,5.05,0,9.61-.72,9.61-.72v-26.53s-2.16.24-4.56.24c-7.93,0-12.49-3.35-12.49-16.73v-127.16h-30.27v131.7ZM1361.15,379.9c0,24.38,19.7,38.01,41.55,38.01,27.86,0,37.47-21.51,37.23-21.51h.48s-.48,3.83-.48,8.6v10.04h28.1v-76.24c0-30.84-18.73-48.53-50.92-48.53-29.06,0-48.03,15.06-48.03,15.06l11.52,21.75s16.1-11.71,33.63-11.71c13.45,0,23.53,5.5,23.53,21.51v1.67h-4.08c-19.93,0-72.54,2.63-72.54,41.35M1391.89,378.47c0-16.97,25.22-19.12,40.83-19.12h5.29v2.87c0,14.82-11.53,32.03-27.63,32.03-12.49,0-18.49-7.65-18.49-15.78M1499.73,415.04h30.51v-55.93c0-5.73.48-11.23,2.16-16.25,4.56-14.58,16.57-24.86,32.9-24.86s19.45,10.04,19.45,24.86v72.18h30.27v-78.4c0-32.27-15.37-46.37-42.52-46.37-24.74,0-38.19,15.06-43.47,25.34h-.48s.48-3.83.48-8.37v-14.1h-29.31v121.9ZM1646.97,415.04h30.5v-55.93c0-5.73.48-11.23,2.16-16.25,4.56-14.58,16.57-24.86,32.9-24.86s19.46,10.04,19.46,24.86v72.18h30.27v-78.4c0-32.27-15.38-46.37-42.52-46.37-24.74,0-38.19,15.06-43.47,25.34h-.48s.48-3.83.48-8.37v-14.1h-29.31v121.9ZM1785.55,354.09c0,34.66,25.22,63.82,65.81,63.82,30.51,0,49.24-17.45,49.24-17.45l-11.78-21.75s-15.61,13.38-35.3,13.38c-18.25,0-34.83-10.99-36.75-32.26h84.55s.72-8.13.72-11.71c0-32.27-18.97-57.84-54.28-57.84s-62.21,26.3-62.21,63.82M1817.74,339.03c2.89-15.77,13.69-25.33,29.31-25.33,13.45,0,23.78,8.84,24.26,25.33h-53.56ZM1927.27,415.04h30.5v-48.28c0-7.17.72-13.86,2.64-19.83,5.76-18.17,20.41-25.58,33.39-25.58,4.08,0,7.2.48,7.2.48v-29.88s-2.64-.48-5.52-.48c-18.73,0-33.39,13.86-38.9,31.31h-.48s.48-4.06.48-8.6v-21.03h-29.31v121.9Z"/>
    </g>
</svg>