<?xml version="1.0" encoding="UTF-8"?>
<svg xmlns="http://www.w3.org/2000/svg" version="1.1" viewBox="0 0 134.7 190.2">
  <defs>
    <style>
      .cls-1 {
        fill: #f7c027;
      }

      .cls-2 {
        fill: #fceaec;
      }

      .cls-3 {
        fill: #fff;
      }

      .cls-4 {
        fill: none;
      }

      .cls-5 {
        fill: #2160a9;
      }

      .cls-6 {
        fill: #f2f2f2;
      }

      .cls-7 {
        fill: #f9c026;
      }

      .cls-8 {
        fill: #fef2d4;
      }

      .cls-9 {
        fill: #e0edea;
      }

      .cls-10 {
        fill: #318370;
      }

      .cls-11 {
        fill: #205fa9;
      }

      .cls-12 {
        fill: #ed727d;
      }
    </style>
  </defs>
  <!-- Generator: Adobe Illustrator 28.7.10, SVG Export Plug-In . SVG Version: 1.2.0 Build 236)  -->
  <g>
    <g id="Layer_2">
      <rect class="cls-3" x=".7" y=".8" width="134.1" height="189.4"/>
    </g>
    <g id="Layer_1">
      <path class="cls-4" d="M127.6,190.1H6.9c-3.8,0-6.9-3.1-6.9-6.9V7C0,3.2,3.1.1,6.9.1h120.7c3.8,0,6.9,3.1,6.9,6.9v176.1c0,3.8-3.1,6.9-6.9,6.9ZM6.9.8C3.5.8.7,3.6.7,7v176.1c0,3.4,2.8,6.2,6.2,6.2h120.7c3.4,0,6.2-2.8,6.2-6.2V7c0-3.4-2.8-6.2-6.2-6.2H6.9Z"/>
      <path class="cls-6" d="M118.8,20.3H30.8v-2.9c0-2-1.6-3.7-3.7-3.7h-13.1c-2,0-3.7,1.6-3.7,3.7v76.9c0,2.9,2.3,5.2,5.2,5.2h103.3c2.9,0,5.2-2.3,5.2-5.2V25.6c0-2.9-2.3-5.2-5.2-5.2ZM121.1,94.4c0,1.2-1,2.3-2.3,2.3H15.6c-1.2,0-2.3-1-2.3-2.3V25.6c0-1.2,1-2.3,2.3-2.3h103.3c1.2,0,2.3,1,2.3,2.3v68.8Z"/>
      <rect class="cls-3" x="61.2" y="106.3" width="66.2" height="48.2"/>
      <g>
        <path class="cls-6" d="M119,105.1h-46.7v-2.7c0-1.9-1.5-3.5-3.3-3.5h-11.9c-1.8,0-3.3,1.6-3.3,3.5v49.1c0,2.7,2.1,4.9,4.7,4.9h60.5c2.6,0,4.7-2.2,4.7-4.9v-41.4c0-2.7-2.1-4.9-4.7-4.9ZM121,151.4c0,1.2-.9,2.1-2.1,2.1h-60.5c-1.1,0-2.1-1-2.1-2.1v-41.4c0-1.2.9-2.1,2.1-2.1h60.5c1.1,0,2.1,1,2.1,2.1v41.4h0Z"/>
        <g>
          <ellipse class="cls-12" cx="58" cy="102.8" rx="1.2" ry="1.2"/>
          <ellipse class="cls-7" cx="62.8" cy="102.8" rx="1.2" ry="1.3"/>
          <ellipse class="cls-10" cx="67.7" cy="102.8" rx="1.2" ry="1.2"/>
        </g>
      </g>
      <g>
        <g>
          <path class="cls-2" d="M93,126c-.3-.5-.7-.8-1.1-.8s-.8.3-1.1.8l-6.1,10.5c-.6-1-2.6-4.5-2.6-4.5-.3-.5-.7-.8-1.1-.8s-.8.3-1.1.8c0,0-2.5,4.3-3.1,5.3l-.9,1.6c-.6,1-.1,1.9,1.1,1.9h22.3c1.2,0,1.7-.8,1.1-1.9l-7.5-12.9Z"/>
          <path class="cls-2" d="M82.1,127.1c1.7,0,3-1.3,3-3s-1.3-3-3-3-3,1.3-3,3,1.3,3,3,3Z"/>
          <path class="cls-2" d="M106.1,114h-35.7c-2.6,0-4.7,2.1-4.7,4.7v24.4c0,2.6,2.1,4.7,4.7,4.7h35.7c2.6,0,4.7-2.1,4.7-4.7v-24.4c0-2.6-2.1-4.7-4.7-4.7ZM107.9,143.1c0,1-.8,1.9-1.9,1.9h-35.7c-1,0-1.9-.9-1.9-1.9v-24.4c0-1,.8-1.9,1.9-1.9h35.7c1,0,1.9.8,1.9,1.9v24.4h0Z"/>
        </g>
        <g>
          <path class="cls-12" d="M105.8,138.9h-3.1c-.4,0-.7.3-.7.7v3.1c0,.4.3.7.7.7h3.1c.4,0,.7-.3.7-.7v-3.1c0-.4-.3-.7-.7-.7Z"/>
          <g>
            <path class="cls-3" d="M104.2,142.7h-.8c-.4,0-.7-.3-.7-.6v-1.8c0-.4.3-.6.7-.6h1.8c.4,0,.7.3.7.6v.8h-.2v-.8c0-.2-.2-.4-.4-.4h-1.8c-.2,0-.4.2-.4.4v1.8c0,.2.2.4.4.4h.8v.2h0Z"/>
            <path class="cls-3" d="M105.6,143.1h-.7c-.3,0-.5-.2-.5-.5v-.7c0-.3.2-.5.5-.5h.7c.3,0,.5.2.5.5v.7c0,.3-.2.5-.5.5ZM104.9,141.6c-.1,0-.2.1-.2.2v.7c0,.1,0,.2.2.2h.7c.1,0,.2-.1.2-.2v-.7c0-.1,0-.2-.2-.2h-.7Z"/>
            <path class="cls-3" d="M104.4,141.4s0,0,0,0l-1.1-1.1c0,0,0-.1,0-.2s.1,0,.2,0l1.1,1.1c0,0,0,.1,0,.2,0,0,0,0,0,0Z"/>
            <path class="cls-3" d="M104.6,141.4h-.9c0,0-.1,0-.1-.1s0-.1.1-.1h.7v-.7c0,0,0-.1.1-.1s.1,0,.1.1v.9h0Z"/>
          </g>
        </g>
      </g>
      <rect class="cls-3" x="61.8" y="36.3" width="66.2" height="48.2"/>
      <g>
        <path class="cls-6" d="M125.3,35.1h-46.7v-2.7c0-1.9-1.5-3.5-3.3-3.5h-11.9c-1.8,0-3.3,1.5-3.3,3.5v49.1c0,2.7,2.1,4.9,4.7,4.9h60.5c2.6,0,4.7-2.2,4.7-4.9v-41.4c0-2.7-2.1-4.9-4.7-4.9ZM127.4,81.4c0,1.2-.9,2.1-2.1,2.1h-60.5c-1.1,0-2.1-1-2.1-2.1v-41.4c0-1.2.9-2.1,2.1-2.1h60.5c1.1,0,2.1,1,2.1,2.1v41.4h0Z"/>
        <g>
          <ellipse class="cls-12" cx="64.4" cy="32.8" rx="1.2" ry="1.3"/>
          <ellipse class="cls-7" cx="69.2" cy="32.8" rx="1.2" ry="1.2"/>
          <ellipse class="cls-10" cx="74" cy="32.8" rx="1.2" ry="1.2"/>
        </g>
      </g>
      <g>
        <path class="cls-9" d="M99.2,55.9c-.3-.5-.7-.8-1.1-.8s-.8.3-1.1.8l-6.1,10.5c-.6-1-2.6-4.5-2.6-4.5-.3-.5-.7-.8-1.1-.8s-.8.3-1.1.8c0,0-2.5,4.3-3.1,5.3l-.9,1.6c-.6,1-.1,1.9,1.1,1.9h22.3c1.2,0,1.7-.8,1.1-1.9l-7.5-12.9Z"/>
        <path class="cls-9" d="M88.3,57c1.7,0,3-1.3,3-3s-1.3-3-3-3-3,1.3-3,3,1.4,3,3,3Z"/>
        <path class="cls-9" d="M112.2,43.9h-35.7c-2.6,0-4.7,2.1-4.7,4.7v24.4c0,2.6,2.1,4.7,4.7,4.7h35.7c2.6,0,4.7-2.1,4.7-4.7v-24.4c0-2.6-2.1-4.7-4.7-4.7ZM114.1,73c0,1-.8,1.9-1.9,1.9h-35.7c-1,0-1.9-.8-1.9-1.9v-24.4c0-1,.8-1.9,1.9-1.9h35.7c1,0,1.9.8,1.9,1.9v24.4h0Z"/>
      </g>
      <g>
        <path class="cls-10" d="M112.1,69.3h-3.1c-.4,0-.7.3-.7.7v3.1c0,.4.3.7.7.7h3.1c.4,0,.7-.3.7-.7v-3.1c0-.4-.3-.7-.7-.7Z"/>
        <g>
          <path class="cls-3" d="M110.4,73.1h-.8c-.4,0-.7-.3-.7-.7v-1.8c0-.4.3-.7.7-.7h1.8c.4,0,.7.3.7.7v.8h-.2v-.8c0-.2-.2-.4-.4-.4h-1.8c-.2,0-.4.2-.4.4v1.8c0,.2.2.4.4.4h.8v.2h0Z"/>
          <path class="cls-3" d="M111.9,73.5h-.7c-.3,0-.5-.2-.5-.5v-.7c0-.3.2-.5.5-.5h.7c.3,0,.5.2.5.5v.7c0,.3-.2.5-.5.5ZM111.2,72.1c-.1,0-.2,0-.2.2v.7c0,.1,0,.2.2.2h.7c.1,0,.2,0,.2-.2v-.7c0-.1,0-.2-.2-.2h-.7Z"/>
          <path class="cls-3" d="M110.6,71.9s0,0,0,0l-1.1-1.1c0,0,0-.1,0-.2s.1,0,.2,0l1.1,1.1c0,0,0,.1,0,.2,0,0,0,0,0,0Z"/>
          <path class="cls-3" d="M110.8,71.9h-.9c0,0-.1,0-.1-.1s0-.1.1-.1h.7v-.7c0,0,0-.1.1-.1s.1,0,.1.1v.9h0Z"/>
        </g>
      </g>
      <g>
        <rect class="cls-3" x="22" y="61.2" width="66.7" height="47.4"/>
        <path class="cls-8" d="M80.1,104.1H31.9c-2.9,0-5.3-2.4-5.3-5.3v-28.4c0-2.9,2.4-5.3,5.3-5.3h48.2c2.9,0,5.3,2.4,5.3,5.3v28.4c0,2.9-2.4,5.3-5.3,5.3Z"/>
        <g>
          <path class="cls-6" d="M86,59.1h-46.7v-2.7c0-1.9-1.5-3.5-3.3-3.5h-11.9c-1.9,0-3.3,1.5-3.3,3.5v49.1c0,2.7,2.1,4.9,4.7,4.9h60.6c2.6,0,4.7-2.2,4.7-4.9v-41.4c0-2.7-2.1-4.9-4.8-4.9ZM88,105.4c0,1.2-.9,2.1-2.1,2.1H25.4c-1.1,0-2.1-1-2.1-2.1v-41.4c0-1.2.9-2.1,2.1-2.1h60.6c1.1,0,2.1,1,2.1,2.1v41.4h0Z"/>
          <g>
            <ellipse class="cls-12" cx="25" cy="56.9" rx="1.2" ry="1.2"/>
            <ellipse class="cls-7" cx="29.8" cy="56.9" rx="1.2" ry="1.2"/>
            <ellipse class="cls-10" cx="34.7" cy="56.9" rx="1.2" ry="1.2"/>
          </g>
        </g>
        <g>
          <path class="cls-3" d="M55.7,98.4c-.9,0-1.8,0-2.8-.3-.9-.2-1.7-.4-2.6-.8-.8-.3-1.6-.8-2.3-1.3-.7-.5-1.4-1.1-2-1.7-.6-.6-1.2-1.3-1.7-2-.5-.7-.9-1.5-1.3-2.3-.3-.8-.6-1.7-.8-2.6-.2-.9-.3-1.8-.3-2.8s0-1.8.3-2.8c.2-.9.5-1.7.8-2.6.3-.8.8-1.6,1.3-2.3.5-.7,1-1.4,1.7-2,.6-.6,1.3-1.2,2-1.7.7-.5,1.5-.9,2.3-1.3.8-.3,1.7-.6,2.6-.8.9-.2,1.8-.3,2.8-.3s1.8,0,2.8.3c.9.2,1.7.4,2.6.8.8.3,1.6.8,2.3,1.3.7.5,1.4,1.1,2,1.7.6.6,1.2,1.3,1.7,2,.5.7.9,1.5,1.3,2.3.3.8.6,1.7.8,2.6.2.9.3,1.8.3,2.8s0,1.8-.3,2.8c-.2.9-.4,1.7-.8,2.6-.3.8-.8,1.6-1.3,2.3-.5.7-1.1,1.4-1.7,2s-1.3,1.2-2,1.7c-.7.5-1.5.9-2.3,1.3-.8.3-1.7.6-2.6.8-.9.2-1.8.3-2.8.3ZM55.7,73.2c-6.4,0-11.5,5.2-11.5,11.5s5.2,11.5,11.5,11.5,11.5-5.2,11.5-11.5-5.2-11.5-11.5-11.5Z"/>
          <path class="cls-3" d="M55.7,71.1c.9,0,1.8,0,2.8.3.9.2,1.7.4,2.6.8.8.3,1.6.8,2.3,1.3.7.5,1.4,1.1,2,1.7.6.6,1.2,1.3,1.7,2,.5.7.9,1.5,1.3,2.3.3.8.6,1.7.8,2.6.2.9.3,1.8.3,2.8s0,1.8-.3,2.8c-.2.9-.4,1.7-.8,2.6-.3.8-.8,1.6-1.3,2.3-.5.7-1.1,1.4-1.7,2s-1.3,1.2-2,1.7c-.7.5-1.5.9-2.3,1.3-.8.3-1.7.6-2.6.8-.9.2-1.8.3-2.8.3s-1.8,0-2.8-.3c-.9-.2-1.7-.4-2.6-.8-.8-.3-1.6-.8-2.3-1.3-.7-.5-1.4-1.1-2-1.7-.6-.6-1.2-1.3-1.7-2-.5-.7-.9-1.5-1.3-2.3-.3-.8-.6-1.7-.8-2.6-.2-.9-.3-1.8-.3-2.8s0-1.8.3-2.8c.2-.9.5-1.7.8-2.6.3-.8.8-1.6,1.3-2.3.5-.7,1-1.4,1.7-2,.6-.6,1.3-1.2,2-1.7.7-.5,1.5-.9,2.3-1.3.8-.3,1.7-.6,2.6-.8.9-.2,1.8-.3,2.8-.3M55.7,96.3c6.4,0,11.5-5.2,11.5-11.5s-5.2-11.5-11.5-11.5-11.5,5.2-11.5,11.5c0,6.3,5.2,11.5,11.5,11.5M55.7,70.8c-1,0-1.9,0-2.8.3-.9.2-1.8.5-2.6.8-.8.3-1.6.8-2.4,1.3-.7.5-1.4,1.1-2.1,1.7-.6.6-1.2,1.3-1.7,2.1-.5.8-.9,1.6-1.3,2.4-.4.8-.6,1.7-.8,2.6-.2.9-.3,1.9-.3,2.8s0,1.9.3,2.8c.2.9.5,1.8.8,2.6.3.8.8,1.6,1.3,2.4.5.7,1.1,1.4,1.7,2.1.6.6,1.3,1.2,2.1,1.7.8.5,1.5.9,2.4,1.3.8.4,1.7.6,2.6.8.9.2,1.9.3,2.8.3s1.9,0,2.8-.3c.9-.2,1.8-.5,2.6-.8.8-.3,1.6-.8,2.4-1.3.7-.5,1.4-1.1,2.1-1.7.6-.6,1.2-1.3,1.7-2.1.5-.8.9-1.6,1.3-2.4.4-.8.6-1.7.8-2.6.2-.9.3-1.9.3-2.8s0-1.9-.3-2.8c-.2-.9-.5-1.8-.8-2.6-.3-.8-.8-1.6-1.3-2.4-.5-.7-1.1-1.4-1.7-2.1s-1.3-1.2-2.1-1.7c-.8-.5-1.5-.9-2.4-1.3-.8-.4-1.7-.6-2.6-.8-.9-.2-1.9-.3-2.8-.3h0ZM55.7,95.9c-6.2,0-11.2-5-11.2-11.2s5-11.2,11.2-11.2,11.2,5,11.2,11.2-5,11.2-11.2,11.2h0Z"/>
        </g>
        <path class="cls-3" d="M63.5,85.4l-11,6.3c-.5.3-1.2,0-1.2-.7v-12.7c0-.6.6-1,1.2-.7l11,6.3c.5.3.5,1,0,1.3Z"/>
        <g>
          <path class="cls-11" d="M82.9,97.6h-3.1c-.4,0-.7.3-.7.7v3.1c0,.4.3.7.7.7h3.1c.4,0,.7-.3.7-.7v-3.1c0-.4-.3-.7-.7-.7Z"/>
          <g>
            <path class="cls-3" d="M83.2,100l-1.5.9c0,0-.2,0-.2,0v-1.8c0,0,0-.1.2,0l1.5.9c0,0,0,.1,0,.2Z"/>
            <path class="cls-3" d="M81.4,100l-1.5.9c0,0-.2,0-.2,0v-1.8c0,0,0-.1.2,0l1.5.9c0,0,0,.1,0,.2Z"/>
          </g>
        </g>
      </g>
      <g>
        <g>
          <path class="cls-6" d="M49,38h-29.9c-.8,0-1.5-.7-1.5-1.5s.7-1.5,1.5-1.5h29.9c.8,0,1.5.7,1.5,1.5s-.7,1.5-1.5,1.5Z"/>
          <path class="cls-6" d="M49,43.1h-29.9c-.8,0-1.5-.7-1.5-1.5s.7-1.5,1.5-1.5h29.9c.8,0,1.5.7,1.5,1.5s-.7,1.5-1.5,1.5Z"/>
          <path class="cls-6" d="M26.5,48.3h-7.4c-.8,0-1.5-.7-1.5-1.5s.7-1.5,1.5-1.5h7.4c.8,0,1.5.7,1.5,1.5,0,.8-.6,1.5-1.5,1.5Z"/>
        </g>
        <g>
          <path class="cls-5" d="M21,33.7h-3.1c-.4,0-.7.3-.7.7v3.1c0,.4.3.7.7.7h3.1c.4,0,.7-.3.7-.7v-3.1c0-.4-.3-.7-.7-.7Z"/>
          <path class="cls-3" d="M18.6,36.8c.2.2.3.4.6.2l1.5-1.5c.2-.2,0-.5-.3-.3l-1.4,1.4c0,0-.5-.5-.5-.5-.1,0-.3,0-.4.2,0,.2.3.5.5.6Z"/>
        </g>
      </g>
      <g>
        <path class="cls-6" d="M48.2,118H11.5c-.7,0-1.3-.7-1.3-1.5s.6-1.5,1.3-1.5h36.7c.7,0,1.3.7,1.3,1.5s-.6,1.5-1.3,1.5Z"/>
        <path class="cls-6" d="M48.2,123.2H11.5c-.7,0-1.3-.7-1.3-1.5s.6-1.5,1.3-1.5h36.7c.7,0,1.3.7,1.3,1.5s-.6,1.5-1.3,1.5Z"/>
        <path class="cls-6" d="M48.2,128.3H11.5c-.7,0-1.3-.7-1.3-1.5s.6-1.5,1.3-1.5h36.7c.7,0,1.3.7,1.3,1.5s-.6,1.5-1.3,1.5Z"/>
      </g>
      <g>
        <path class="cls-6" d="M120.4,168.8H13.9c-2,0-3.7-.7-3.7-1.5s1.6-1.5,3.7-1.5h106.4c2,0,3.7.7,3.7,1.5s-1.7,1.5-3.7,1.5Z"/>
        <path class="cls-6" d="M120.4,174H13.9c-2,0-3.7-.7-3.7-1.5s1.6-1.5,3.7-1.5h106.4c2,0,3.7.7,3.7,1.5s-1.7,1.5-3.7,1.5Z"/>
        <path class="cls-6" d="M120.4,179.1H13.9c-2,0-3.7-.7-3.7-1.5s1.6-1.5,3.7-1.5h106.4c2,0,3.7.7,3.7,1.5s-1.7,1.5-3.7,1.5Z"/>
      </g>
      <path class="cls-1" d="M104.5,6.2c.1.7.4,1.3.6,1.9.1.3.6.4.8.2.5-.3,1.1-.7,1.6-.9.3-.1.6-.3.9-.4.3,0,.6-.3.9-.3.6,0,1.2.4,1.8.7.6.3,1.3.5,2,.4.7,0,1.2-.3,1.8-.5.7-.2,1.4,0,2.1,0,1.4.3,2.8.4,4.3.4,1.6,0,3.3-.2,4.9-.5.8-.2.4-1.3-.3-1.2-2.8.6-5.8.6-8.6,0-.7-.1-1.5-.3-2.2-.2-.6,0-1.2.5-1.8.5-1.4.1-2.4-1-3.7-1.1-.7,0-1.6.4-2.2.7-.7.3-1.3.6-2,1.1.3,0,.6.2.8.2-.2-.5-.4-1-.5-1.6-.2-.8-1.3-.4-1.2.3h0Z"/>
    </g>
  </g>
</svg>