<?xml version="1.0" encoding="UTF-8"?>
<svg xmlns="http://www.w3.org/2000/svg" version="1.1" viewBox="0 0 408.9 578.3">
  <defs>
    <style>
      .cls-1 {
        fill: #f7c027;
      }

      .cls-2 {
        fill: #d2dfee;
      }

      .cls-2, .cls-3, .cls-4, .cls-5, .cls-6, .cls-7, .cls-8, .cls-9 {
        stroke-miterlimit: 10;
      }

      .cls-2, .cls-3, .cls-5, .cls-6, .cls-7, .cls-8, .cls-9 {
        stroke: #f2f2f2;
      }

      .cls-2, .cls-3, .cls-5, .cls-8, .cls-9 {
        stroke-width: 9px;
      }

      .cls-3, .cls-4 {
        stroke-linecap: round;
      }

      .cls-3, .cls-5, .cls-7 {
        fill: none;
      }

      .cls-10, .cls-4 {
        fill: #fff;
      }

      .cls-4 {
        stroke: #fff;
        stroke-width: 2px;
      }

      .cls-11 {
        fill: #2160a9;
      }

      .cls-12, .cls-6 {
        fill: #f2f2f2;
      }

      .cls-6, .cls-7 {
        stroke-width: 8px;
      }

      .cls-13 {
        fill: #205fa9;
      }

      .cls-14 {
        fill: #ed727d;
      }

      .cls-8 {
        fill: #fbe3e5;
      }

      .cls-9 {
        fill: #d6e6e2;
      }
    </style>
  </defs>
  <!-- Generator: Adobe Illustrator 28.7.10, SVG Export Plug-In . SVG Version: 1.2.0 Build 236)  -->
  <g>
    <g id="Layer_1">
      <polygon class="cls-4" points="0 0 408.9 0 408.9 578.3 408.9 578.3 0 578.3 0 0"/>
      <rect class="cls-2" x="69.4" y="266.5" width="59.8" height="40.3" rx="9" ry="9"/>
      <rect class="cls-9" x="172.8" y="266.5" width="59.7" height="40.3" rx="9" ry="9"/>
      <rect class="cls-8" x="143.5" y="88.1" width="118.5" height="78.8" rx="15.8" ry="15.8"/>
      <rect class="cls-9" x="278.4" y="266.5" width="59.8" height="40.3" rx="9" ry="9"/>
      <path class="cls-5" d="M100.2,267.9v-43.5c0-7.6,6.1-13.7,13.7-13.7h181.6c7.6,0,13.7,6.1,13.7,13.7v43.5"/>
      <line class="cls-5" x1="202.7" y1="166.9" x2="202.7" y2="267.9"/>
      <path class="cls-10" d="M321.7,282.7h-27c-2.2,0-4,1.8-4,4s1.8,4,4,4h27c2.2,0,4-1.8,4-4s-1.8-4-4-4Z"/>
      <path class="cls-10" d="M216.5,282.7h-27c-2.2,0-4,1.8-4,4s1.8,4,4,4h27c2.2,0,4-1.8,4-4s-1.8-4-4-4Z"/>
      <path class="cls-10" d="M112.7,282.7h-27c-2.2,0-4,1.8-4,4s1.8,4,4,4h27c2.2,0,4-1.8,4-4s-1.8-4-4-4Z"/>
      <path class="cls-10" d="M164.1,132.4h79.3c2.2,0,4-1.8,4-4s-1.8-4-4-4h-79.3c-2.2,0-4,1.8-4,4s1.8,4,4,4Z"/>
      <path class="cls-10" d="M164.1,115.4h79.3c2.2,0,4-1.8,4-4s-1.8-4-4-4h-79.3c-2.2,0-4,1.8-4,4s1.8,4,4,4Z"/>
      <path class="cls-10" d="M224.3,145.4c0-2.2-1.8-4-4-4h-56.2c-2.2,0-4,1.8-4,4s1.8,4,4,4h56.2c2.2,0,4-1.8,4-4Z"/>
      <g>
        <rect class="cls-14" x="236.2" y="140.8" width="15.9" height="15.9" rx="2.5" ry="2.5"/>
        <g>
          <path class="cls-10" d="M243.8,154.1h-2.9c-1.2,0-2.3-1-2.3-2.3v-6.3c0-1.2,1-2.3,2.3-2.3h6.3c1.2,0,2.3,1,2.3,2.3v2.9h-.9v-2.9c0-.8-.6-1.4-1.4-1.4h-6.3c-.8,0-1.4.6-1.4,1.4v6.3c0,.8.6,1.4,1.4,1.4h2.9v.9h0Z"/>
          <path class="cls-10" d="M248.9,155.4h-2.5c-.9,0-1.7-.8-1.7-1.7v-2.5c0-.9.8-1.7,1.7-1.7h2.5c.9,0,1.7.8,1.7,1.7v2.5c0,.9-.8,1.7-1.7,1.7ZM246.4,150.4c-.5,0-.8.4-.8.8v2.5c0,.4.4.8.8.8h2.5c.5,0,.8-.4.8-.8v-2.5c0-.4-.4-.8-.8-.8h-2.5Z"/>
          <path class="cls-10" d="M244.5,149.7c-.1,0-.2,0-.3-.1l-3.8-3.8c-.2-.2-.2-.4,0-.6s.4-.2.6,0l3.8,3.8c.2.2.2.4,0,.6,0,0-.2.1-.3.1h0Z"/>
          <path class="cls-10" d="M245.1,149.8h-3.2c-.2,0-.4-.2-.4-.4s.2-.4.4-.4h2.3v-2.3c0-.2.2-.4.4-.4s.4.2.4.4v3.2h0Z"/>
        </g>
      </g>
      <g>
        <line class="cls-3" x1="64" y1="340.8" x2="137.6" y2="340.8"/>
        <line class="cls-3" x1="64" y1="356.5" x2="137.6" y2="356.5"/>
        <line class="cls-3" x1="64" y1="372.3" x2="113.6" y2="372.3"/>
      </g>
      <g>
        <rect class="cls-11" x="58.4" y="332.8" width="13.9" height="13.9" rx="2.2" ry="2.2"/>
        <path class="cls-10" d="M62.7,342.1c.5.5.9,1.3,1.7.8l4.7-4.7c.6-.7-.2-1.6-.9-1.1l-4.2,4.2c-.2,0-1.4-1.5-1.6-1.6-.4-.2-1,0-1.1.5-.1.6,1.1,1.5,1.4,1.8h0Z"/>
      </g>
      <g>
        <line class="cls-3" x1="171.3" y1="340.8" x2="244.8" y2="340.8"/>
        <line class="cls-3" x1="171.3" y1="356.5" x2="244.8" y2="356.5"/>
        <line class="cls-3" x1="171.3" y1="372.3" x2="220.8" y2="372.3"/>
      </g>
      <g>
        <rect class="cls-11" x="165.6" y="332.2" width="13.9" height="13.9" rx="2.2" ry="2.2"/>
        <path class="cls-10" d="M170,341.6c.5.5.9,1.3,1.7.8l4.7-4.7c.6-.7-.2-1.6-.9-1.1l-4.2,4.2c-.2,0-1.4-1.5-1.6-1.6-.4-.2-1,0-1.1.5-.1.6,1.1,1.5,1.4,1.8h0Z"/>
      </g>
      <g>
        <line class="cls-3" x1="275.5" y1="340.8" x2="349.1" y2="340.8"/>
        <line class="cls-3" x1="275.5" y1="356.5" x2="349.1" y2="356.5"/>
        <line class="cls-3" x1="275.5" y1="372.3" x2="325.1" y2="372.3"/>
      </g>
      <g>
        <rect class="cls-11" x="269.9" y="332.2" width="13.9" height="13.9" rx="2.2" ry="2.2"/>
        <path class="cls-10" d="M274.3,341.6c.5.5.9,1.3,1.7.8l4.7-4.7c.6-.7-.2-1.6-1-1.1l-4.2,4.2c-.2,0-1.4-1.5-1.6-1.6-.4-.2-1,0-1,.5-.1.6,1.1,1.5,1.5,1.8h0Z"/>
      </g>
      <path class="cls-12" d="M372.2,45.8H86.5v-8.8c0-6.2-5-11.2-11.2-11.2h-40c-6.2,0-11.2,5-11.2,11.2v500c0,8.8,7.1,16,15.9,16h332.2c8.8,0,16-7.1,16-16V61.7c0-8.8-7.1-15.9-16-15.9h0ZM379.2,537c0,3.8-3.1,7-7,7H40c-3.8,0-6.9-3.1-6.9-7V61.7c0-3.8,3.1-6.9,6.9-6.9h332.2c3.8,0,7,3.1,7,6.9v475.3Z"/>
      <path class="cls-7" d="M90.4,53v-15.1c0-4.4,3.6-8,8-8h42c4.4,0,8,3.6,8,8v15.1"/>
      <rect class="cls-10" x="94.4" y="41.7" width="49.9" height="20.9"/>
      <path class="cls-6" d="M156.4,53v-15.1c0-4.4,3.6-8,8-8h40.2c4.4,0,8,3.6,8,8v15.1"/>
      <path class="cls-1" d="M54.6,44.2l-2.6,1.9c-.4.3-.8,0-.7-.5l1-3.1c0-.2,0-.4-.2-.5l-2.6-1.9c-.4-.3-.2-.8.3-.8h3.2c.2,0,.4-.1.4-.3l1-3.1c.1-.4.7-.4.9,0l1,3.1c0,.2.2.3.4.3h3.2c.4,0,.6.6.3.8l-2.6,1.9c-.2.1-.2.3-.2.5l1,3.1c.1.4-.3.8-.7.5l-2.6-1.9c-.2-.1-.4-.1-.5,0h0Z"/>
      <path class="cls-13" d="M112.4,47l-2.6,1.9c-.4.3-.8,0-.7-.5l1-3.1c0-.2,0-.4-.2-.5l-2.6-1.9c-.4-.3-.2-.8.3-.8h3.2c.2,0,.4-.1.4-.3l1-3.1c.1-.4.7-.4.9,0l1,3.1c0,.2.2.3.4.3h3.2c.4,0,.6.6.3.8l-2.6,1.9c-.2.1-.2.3-.2.5l1,3.1c.1.4-.3.8-.7.5l-2.6-1.9c-.2-.1-.4-.1-.5,0h0Z"/>
      <path class="cls-13" d="M125.8,47l-2.6,1.9c-.4.3-.8,0-.7-.5l1-3.1c0-.2,0-.4-.2-.5l-2.6-1.9c-.4-.3-.2-.8.3-.8h3.2c.2,0,.4-.1.4-.3l1-3.1c.1-.4.7-.4.9,0l1,3.1c0,.2.2.3.4.3h3.2c.4,0,.6.6.3.8l-2.6,1.9c-.2.1-.2.3-.2.5l1,3.1c.1.4-.3.8-.7.5l-2.6-1.9c-.2-.1-.4-.1-.5,0h0Z"/>
      <path class="cls-1" d="M172.3,43.2l-2.6,1.9c-.4.3-.8,0-.7-.5l1-3.1c0-.2,0-.4-.2-.5l-2.6-1.9c-.4-.3-.2-.8.3-.8h3.2c.2,0,.4-.1.4-.3l1-3.1c.1-.4.7-.4.9,0l1,3.1c0,.2.2.3.4.3h3.2c.4,0,.6.6.3.8l-2.6,1.9c-.2.1-.2.3-.2.5l1,3.1c.1.4-.3.8-.7.5l-2.6-1.9c-.2-.1-.4-.1-.5,0h0Z"/>
      <path class="cls-1" d="M185.6,43.2l-2.6,1.9c-.4.3-.8,0-.7-.5l1-3.1c0-.2,0-.4-.2-.5l-2.6-1.9c-.4-.3-.2-.8.3-.8h3.2c.2,0,.4-.1.4-.3l1-3.1c.1-.4.7-.4.9,0l1,3.1c0,.2.2.3.4.3h3.2c.4,0,.6.6.3.8l-2.6,1.9c-.2.1-.2.3-.2.5l1,3.1c.1.4-.3.8-.7.5l-2.6-1.9c-.2-.1-.4-.1-.5,0h0Z"/>
      <path class="cls-1" d="M199,43.2l-2.6,1.9c-.4.3-.8,0-.7-.5l1-3.1c0-.2,0-.4-.2-.5l-2.6-1.9c-.4-.3-.2-.8.3-.8h3.2c.2,0,.4-.1.4-.3l1-3.1c.1-.4.7-.4.9,0l1,3.1c0,.2.2.3.4.3h3.2c.4,0,.6.6.3.8l-2.6,1.9c-.2.1-.2.3-.2.5l1,3.1c.1.4-.3.8-.7.5l-2.6-1.9c-.2-.1-.4-.1-.5,0h0Z"/>
      <path class="cls-1" d="M318.3,17.5c.4,2,1.1,3.8,1.9,5.7.4.9,1.8,1.2,2.6.7,1.6-1.1,3.2-2,5-2.8.9-.4,1.9-.8,2.8-1.1.9-.3,2-.8,2.9-.8,1.8,0,3.7,1.4,5.3,2.1,1.9.8,4,1.4,6.1,1.3s3.6-.9,5.5-1.5c2.1-.6,4.2,0,6.2.3,4.3.8,8.7,1.2,13.1,1.2,5,0,10-.5,14.9-1.4,2.4-.5,1.4-4.1-1-3.6-8.6,1.7-17.6,1.8-26.2.2-2.3-.4-4.5-.9-6.8-.5-1.9.3-3.6,1.4-5.5,1.6-4.2.4-7.4-3-11.4-3.3-2.3-.2-4.8,1.1-6.8,2-2.1.9-4.1,2-6,3.2l2.6.7c-.7-1.5-1.2-3.1-1.5-4.8-.5-2.4-4.1-1.4-3.6,1h0Z"/>
    </g>
  </g>
</svg>