<?xml version="1.0" encoding="UTF-8"?>
<svg xmlns="http://www.w3.org/2000/svg" version="1.1" viewBox="0 0 409 578.3">
  <defs>
    <style>
      .cls-1 {
        fill: #d2dfee;
        stroke: #d2dfee;
      }

      .cls-1, .cls-2, .cls-3, .cls-4, .cls-5, .cls-6, .cls-7, .cls-8 {
        stroke-miterlimit: 10;
      }

      .cls-1, .cls-7, .cls-8 {
        stroke-width: 8px;
      }

      .cls-2 {
        stroke: #f2f2f2;
      }

      .cls-2, .cls-3, .cls-4 {
        stroke-linecap: round;
      }

      .cls-2, .cls-3, .cls-4, .cls-5, .cls-6 {
        fill: none;
      }

      .cls-2, .cls-4 {
        stroke-width: 9px;
      }

      .cls-9, .cls-8 {
        fill: #fff;
      }

      .cls-10, .cls-11, .cls-12 {
        isolation: isolate;
        opacity: .2;
      }

      .cls-10, .cls-13 {
        fill: #318370;
      }

      .cls-14 {
        fill: #2160a9;
      }

      .cls-11 {
        fill: #ed727d;
      }

      .cls-3 {
        stroke: #f5f5f5;
        stroke-width: 1.5px;
      }

      .cls-15 {
        fill: #fdf1f2;
      }

      .cls-4, .cls-6, .cls-8 {
        stroke: #fff;
      }

      .cls-5 {
        stroke: #ededed;
      }

      .cls-5, .cls-6 {
        stroke-width: 2px;
      }

      .cls-16 {
        fill: #f5f5f5;
      }

      .cls-17, .cls-12 {
        fill: #205fa9;
      }

      .cls-18 {
        fill: #ededed;
      }

      .cls-7 {
        fill: #fbe3e5;
        stroke: #fbe3e5;
      }
    </style>
  </defs>
  <!-- Generator: Adobe Illustrator 28.7.10, SVG Export Plug-In . SVG Version: 1.2.0 Build 236)  -->
  <g>
    <g id="Layer_1">
      <rect class="cls-9" x="0" width="408.9" height="578.3"/>
      <path class="cls-16" d="M408.7,50.2V0H-.2v50.2h408.9,0Z"/>
      <path class="cls-8" d="M89.4,50.8v-16.1c0-4.4,3.6-8,8-8h40c4.4,0,8,3.6,8,8v16.1"/>
      <rect class="cls-9" x="93.7" y="38.3" width="48.1" height="20.9"/>
      <path class="cls-1" d="M153.7,49.8v-15.1c0-4.4,3.6-8,8-8h40c4.4,0,8,3.6,8,8v15.1"/>
      <path class="cls-7" d="M25.2,49.8v-15.1c0-4.4,3.6-8,8-8h40c4.4,0,8,3.6,8,8v15.1"/>
      <path class="cls-9" d="M51.9,40.1l-2.6,1.9c-.4.3-.8,0-.7-.5l1-3.1c0-.2,0-.4-.2-.5l-2.6-1.9c-.4-.3-.2-.8.3-.8h3.2c.2,0,.4-.1.4-.3l1-3.1c.1-.4.7-.4.9,0l1,3.1c0,.2.2.3.4.3h3.2c.4,0,.6.6.3.8l-2.6,1.9c-.2.1-.2.3-.2.5l1,3.1c.1.4-.3.8-.7.5l-2.6-1.9c-.2-.1-.4-.1-.5,0h0Z"/>
      <path class="cls-17" d="M110.5,40.3l-2.6,1.9c-.4.3-.8,0-.7-.5l1-3.1c0-.2,0-.4-.2-.5l-2.6-1.9c-.4-.3-.2-.8.3-.8h3.2c.2,0,.4-.1.4-.3l1-3.1c.1-.4.7-.4.9,0l1,3.1c0,.2.2.3.4.3h3.2c.4,0,.6.6.3.8l-2.6,1.9c-.2.1-.2.3-.2.5l1,3.1c.1.4-.3.8-.7.5l-2.6-1.9c-.2-.1-.4-.1-.5,0h0Z"/>
      <path class="cls-17" d="M123.9,40.3l-2.6,1.9c-.4.3-.8,0-.7-.5l1-3.1c0-.2,0-.4-.2-.5l-2.6-1.9c-.4-.3-.2-.8.3-.8h3.2c.2,0,.4-.1.4-.3l1-3.1c.1-.4.7-.4.9,0l1,3.1c0,.2.2.3.4.3h3.2c.4,0,.6.6.3.8l-2.6,1.9c-.2.1-.2.3-.2.5l1,3.1c.1.4-.3.8-.7.5l-2.6-1.9c-.2-.1-.4-.1-.5,0h0Z"/>
      <path class="cls-17" d="M168.3,40.1l-2.6,1.9c-.4.3-.8,0-.7-.5l1-3.1c0-.2,0-.4-.2-.5l-2.6-1.9c-.4-.3-.2-.8.3-.8h3.2c.2,0,.4-.1.4-.3l1-3.1c.1-.4.7-.4.9,0l1,3.1c0,.2.2.3.4.3h3.2c.4,0,.6.6.3.8l-2.6,1.9c-.2.1-.2.3-.2.5l1,3.1c.1.4-.3.8-.7.5l-2.6-1.9c-.2-.1-.4-.1-.5,0h0Z"/>
      <path class="cls-17" d="M181.7,40.1l-2.6,1.9c-.4.3-.8,0-.7-.5l1-3.1c0-.2,0-.4-.2-.5l-2.6-1.9c-.4-.3-.2-.8.3-.8h3.2c.2,0,.4-.1.4-.3l1-3.1c.1-.4.7-.4.9,0l1,3.1c0,.2.2.3.4.3h3.2c.4,0,.6.6.3.8l-2.6,1.9c-.2.1-.2.3-.2.5l1,3.1c.1.4-.3.8-.7.5l-2.6-1.9c-.2-.1-.4-.1-.5,0h0Z"/>
      <path class="cls-17" d="M195.1,40.1l-2.6,1.9c-.4.3-.8,0-.7-.5l1-3.1c0-.2,0-.4-.2-.5l-2.6-1.9c-.4-.3-.2-.8.3-.8h3.2c.2,0,.4-.1.4-.3l1-3.1c.1-.4.7-.4.9,0l1,3.1c0,.2.2.3.4.3h3.2c.4,0,.6.6.3.8l-2.6,1.9c-.2.1-.2.3-.2.5l1,3.1c.1.4-.3.8-.7.5l-2.6-1.9c-.2-.1-.4-.1-.5,0h0Z"/>
      <g>
        <line class="cls-2" x1="28.8" y1="130.2" x2="107.3" y2="130.2"/>
        <line class="cls-2" x1="28.8" y1="146" x2="107.3" y2="146"/>
        <line class="cls-2" x1="28.8" y1="161.7" x2="85.6" y2="161.7"/>
      </g>
      <g>
        <rect class="cls-14" x="25.1" y="124.2" width="13.9" height="13.9" rx="2.2" ry="2.2"/>
        <g>
          <line class="cls-3" x1="32" y1="127.1" x2="32" y2="135.2"/>
          <line class="cls-3" x1="28" y1="131.1" x2="36.1" y2="131.1"/>
        </g>
      </g>
      <g>
        <line class="cls-2" x1="306.8" y1="339.3" x2="385.3" y2="339.3"/>
        <line class="cls-2" x1="306.8" y1="355.1" x2="385.3" y2="355.1"/>
        <line class="cls-2" x1="306.8" y1="370.9" x2="363.6" y2="370.9"/>
      </g>
      <g>
        <rect class="cls-14" x="303.1" y="333.3" width="13.9" height="13.9" rx="2.2" ry="2.2"/>
        <g>
          <line class="cls-3" x1="310.1" y1="336.2" x2="310.1" y2="344.3"/>
          <line class="cls-3" x1="306" y1="340.3" x2="314.1" y2="340.3"/>
        </g>
      </g>
      <g>
        <line class="cls-2" x1="30.2" y1="339.3" x2="108.7" y2="339.3"/>
        <line class="cls-2" x1="30.2" y1="355.1" x2="108.7" y2="355.1"/>
        <line class="cls-2" x1="30.2" y1="370.9" x2="87" y2="370.9"/>
      </g>
      <g>
        <rect class="cls-14" x="26.5" y="333.3" width="13.9" height="13.9" rx="2.2" ry="2.2"/>
        <g>
          <line class="cls-3" x1="33.4" y1="336.2" x2="33.4" y2="344.3"/>
          <line class="cls-3" x1="29.4" y1="340.3" x2="37.4" y2="340.3"/>
        </g>
      </g>
      <g>
        <circle class="cls-12" cx="206.4" cy="152.8" r="70"/>
        <circle class="cls-10" cx="155.7" cy="240.6" r="70"/>
        <path class="cls-16" d="M139.3,172.6c8.6,29,35.4,50.2,67.1,50.2s11.2-.7,16.5-2c-8.6-29-35.4-50.2-67.1-50.2s-11.2.7-16.5,2h0Z"/>
        <circle class="cls-11" cx="254.7" cy="240.6" r="70"/>
        <path class="cls-15" d="M187.7,220.2c5.9,1.6,12.2,2.5,18.6,2.5,31.6,0,58.2-20.9,67-49.6-5.9-1.6-12.2-2.5-18.6-2.5-31.6,0-58.2,20.9-67,49.6h0Z"/>
        <path class="cls-18" d="M184.7,240.6c0,19.3,7.8,36.8,20.5,49.5,12.7-12.7,20.5-30.2,20.5-49.5s-7.8-36.8-20.5-49.5c-12.7,12.7-20.5,30.2-20.5,49.5Z"/>
        <path class="cls-9" d="M222.8,220.8c-3.4-11.4-9.5-21.5-17.6-29.6l-.5.5c-.3.3-.7.7-1,1-.4.4-.8.8-1.1,1.2-.3.3-.6.7-.9,1-.7.8-1.4,1.6-2,2.4-.3.3-.5.7-.8,1-.4.5-.7,1-1,1.4-.2.3-.5.7-.7,1-.3.5-.7,1-1,1.5-.2.3-.4.7-.7,1-.3.5-.6,1-1,1.6-.2.3-.4.6-.5.9-.7,1.2-1.4,2.5-2,3.7,0,.1-.1.3-.2.4-.3.6-.5,1.2-.8,1.8-.1.3-.3.7-.5,1-.2.6-.5,1.2-.7,1.8-.1.4-.3.7-.4,1.1-.2.6-.5,1.2-.7,1.8-.1.4-.2.7-.4,1-.2.6-.4,1.3-.6,1.9,5.9,1.6,12.2,2.5,18.6,2.5s11.2-.7,16.5-2h0Z"/>
        <g>
          <line class="cls-4" x1="108.3" y1="245.1" x2="169" y2="245.1"/>
          <line class="cls-4" x1="108.3" y1="260.8" x2="145.6" y2="260.8"/>
        </g>
        <g>
          <line class="cls-4" x1="175.8" y1="141.7" x2="239.3" y2="141.7"/>
          <line class="cls-4" x1="175.8" y1="157.4" x2="215.9" y2="157.4"/>
        </g>
        <path class="cls-13" d="M127,218.8h-4.6l-1.5,5.9h4.5v2.2h-5.1l-1.7,6.7h-2.5l1.7-6.7h-5.7l-1.7,6.7h-2.5l1.7-6.7h-3.8v-2.2h4.4l1.5-5.9h-4.4v-2.1h4.9l1.6-6.6h2.5l-1.7,6.6h5.7l1.6-6.6h2.5l-1.7,6.6h4v2.1h0ZM118.6,224.7l1.5-5.9h-5.7l-1.5,5.9h5.7Z"/>
        <path class="cls-17" d="M192.6,115.2h-4.5l-1.5,5.9h4.5v2.2h-5.1l-1.7,6.7h-2.5l1.7-6.7h-5.7l-1.7,6.7h-2.5l1.7-6.7h-3.8v-2.2h4.4l1.5-5.9h-4.4v-2.1h4.9l1.6-6.6h2.5l-1.7,6.6h5.7l1.6-6.6h2.5l-1.7,6.6h4v2.1h0ZM184.1,121.1l1.5-5.9h-5.7l-1.5,5.9h5.7Z"/>
        <g>
          <line class="cls-4" x1="238.8" y1="245.7" x2="302.4" y2="245.7"/>
          <line class="cls-4" x1="238.8" y1="261.5" x2="278.9" y2="261.5"/>
        </g>
      </g>
      <line class="cls-5" x1="160.2" y1="183.9" x2="24.6" y2="183.9"/>
      <line class="cls-6" x1="160.2" y1="183.9" x2="114.7" y2="183.9"/>
      <line class="cls-5" x1="205.6" y1="260.8" x2="205.7" y2="342.8"/>
      <line class="cls-6" x1="205.6" y1="260.8" x2="205.6" y2="290.8"/>
      <line class="cls-5" x1="292.8" y1="341.9" x2="205.3" y2="341.9"/>
    </g>
  </g>
</svg>