<?xml version="1.0" encoding="UTF-8"?>
<svg id="Layer_1" xmlns="http://www.w3.org/2000/svg" version="1.1" xmlns:xlink="http://www.w3.org/1999/xlink" viewBox="0 0 134.74 190.23">
  <!-- Generator: Adobe Illustrator 29.8.1, SVG Export Plug-In . SVG Version: 2.1.1 Build 2)  -->
  <defs>
    <style>
      .st0 {
        fill: #d3dfee;
      }

      .st1 {
        fill: #f7c027;
      }

      .st2 {
        clip-path: url(#clippath-4);
      }

      .st3 {
        fill: #f2f2f2;
      }

      .st4 {
        stroke-width: 3.27px;
      }

      .st4, .st5, .st6, .st7, .st8, .st9, .st10, .st11, .st12, .st13 {
        fill: none;
      }

      .st4, .st5, .st7, .st8, .st9, .st10, .st11, .st12, .st13 {
        stroke-linecap: round;
        stroke-miterlimit: 10;
      }

      .st4, .st8, .st12, .st13 {
        stroke: #f5f5f5;
      }

      .st5 {
        stroke: #d9d9d9;
        stroke-width: .65px;
      }

      .st14 {
        fill: #fff;
      }

      .st15 {
        fill: #fbe3e5;
      }

      .st7 {
        stroke: #e9eff6;
      }

      .st7, .st13 {
        stroke-width: 2.95px;
      }

      .st16 {
        fill: #ffab83;
      }

      .st8, .st9, .st10, .st11 {
        stroke-width: 5.89px;
      }

      .st17 {
        fill: #2160a9;
      }

      .st18 {
        clip-path: url(#clippath-1);
      }

      .st19 {
        fill: #fdf2d4;
      }

      .st20 {
        clip-path: url(#clippath-5);
      }

      .st9 {
        stroke: #d3dfee;
      }

      .st21 {
        fill: #1e1e1c;
      }

      .st22 {
        fill: #5d3e29;
      }

      .st23 {
        clip-path: url(#clippath-3);
      }

      .st24 {
        opacity: .15;
      }

      .st10 {
        stroke: #d6e6e2;
      }

      .st25 {
        fill: #84b885;
      }

      .st26 {
        fill: #f5f5f5;
      }

      .st27 {
        fill: #c1dad4;
      }

      .st11 {
        stroke: #fbe3e5;
      }

      .st12 {
        stroke-width: .49px;
      }

      .st28 {
        clip-path: url(#clippath-2);
      }

      .st29 {
        opacity: .16;
      }

      .st30 {
        clip-path: url(#clippath);
      }
    </style>
    <clipPath id="clippath">
      <rect class="st6" x="-25.53" y="-25.67" width="185.81" height="242.03"/>
    </clipPath>
    <clipPath id="clippath-1">
      <rect class="st6" x="-25.53" y="-25.67" width="185.81" height="242.03"/>
    </clipPath>
    <clipPath id="clippath-2">
      <rect class="st6" x="-25.53" y="-25.67" width="185.81" height="242.03"/>
    </clipPath>
    <clipPath id="clippath-3">
      <rect class="st6" x="16.87" y="21.96" width="3.49" height="4.59"/>
    </clipPath>
    <clipPath id="clippath-4">
      <rect class="st6" x="18.02" y="24.75" width=".97" height=".17"/>
    </clipPath>
    <clipPath id="clippath-5">
      <rect class="st6" x="17.92" y="24.98" width="1.16" height=".38"/>
    </clipPath>
    <clipPath id="clippath-6">
      <rect class="st6" x="127.8" y="-25.69" width="185.83" height="242.05"/>
    </clipPath>
  </defs>
  <g class="st30">
    <g class="st18">
      <g class="st28">
        <path class="st14" d="M127.83,189.78l-120.75.1c-3.63,0-6.58-2.94-6.58-6.57L.35,7.11c0-3.63,2.94-6.58,6.57-6.58l120.75-.1c3.63,0,6.58,2.94,6.58,6.57l.15,176.21c0,3.63-2.94,6.58-6.57,6.58"/>
        <rect class="st5" x=".42" y=".48" width="133.9" height="189.36" rx="6.57" ry="6.57"/>
        <path class="st3" d="M117.36,112.39l-85.1.07v-2.88c0-2.03-1.65-3.68-3.69-3.68h-13.1c-2.03.01-3.68,1.66-3.68,3.69v8.11s0,.65,0,.65l.05,54.44c0,2.88,2.34,5.22,5.23,5.22l100.34-.08c2.88,0,5.22-2.34,5.22-5.23l-.05-55.09c0-2.88-2.34-5.22-5.23-5.22M119.69,172.7c0,1.25-1.02,2.28-2.27,2.28l-100.34.08c-1.25,0-2.28-1.02-2.28-2.27l-.05-55.09c0-1.25,1.02-2.28,2.27-2.28l100.34-.08c1.25,0,2.28,1.02,2.28,2.27l.05,55.09Z"/>
        <line class="st13" x1="14.11" y1="36.39" x2="63.51" y2="36.35"/>
        <line class="st13" x1="14.11" y1="41.55" x2="63.51" y2="41.5"/>
        <line class="st13" x1="14.11" y1="46.7" x2="63.52" y2="46.66"/>
        <line class="st13" x1="14.12" y1="55.22" x2="35.64" y2="55.2"/>
        <line class="st13" x1="14.13" y1="60.37" x2="35.64" y2="60.36"/>
        <line class="st13" x1="14.13" y1="65.53" x2="35.65" y2="65.51"/>
        <line class="st13" x1="42.01" y1="55.19" x2="63.52" y2="55.18"/>
        <line class="st13" x1="42.01" y1="60.35" x2="63.53" y2="60.33"/>
        <line class="st13" x1="42.02" y1="65.51" x2="63.53" y2="65.49"/>
        <path class="st3" d="M16.98,17.71l43.41-.04c2.37,0,4.29,1.92,4.29,4.29v2.76c0,2.37-1.92,4.29-4.29,4.29l-43.41.04c-2.37,0-4.29-1.92-4.29-4.29v-2.76c0-2.37,1.92-4.29,4.29-4.29"/>
        <line class="st13" x1="14.14" y1="76.24" x2="63.54" y2="76.2"/>
        <line class="st13" x1="14.14" y1="81.39" x2="63.55" y2="81.35"/>
        <line class="st13" x1="14.15" y1="86.55" x2="63.55" y2="86.51"/>
        <path class="st8" d="M44.9,134.78c0,6.76-5.47,12.24-12.22,12.24s-12.24-5.47-12.24-12.22,5.47-12.24,12.22-12.24,12.24,5.47,12.24,12.22Z"/>
        <path class="st11" d="M32.66,122.56c6.76,0,12.24,5.47,12.24,12.22"/>
        <path class="st8" d="M79.58,134.75c0,6.76-5.47,12.24-12.22,12.24-6.76,0-12.24-5.47-12.24-12.22s5.47-12.24,12.22-12.24c6.76,0,12.24,5.47,12.24,12.22Z"/>
        <path class="st10" d="M67.34,122.53c6.76,0,12.24,5.47,12.24,12.22s-5.47,12.24-12.22,12.24c-6.76,0-12.24-5.47-12.24-12.22"/>
        <path class="st8" d="M113.72,134.73c0,6.76-5.47,12.24-12.22,12.24-6.76,0-12.24-5.47-12.24-12.22,0-6.76,5.47-12.24,12.22-12.24,6.76,0,12.24,5.47,12.24,12.22Z"/>
        <path class="st9" d="M101.48,122.5c6.76,0,12.24,5.47,12.24,12.22s-5.47,12.24-12.22,12.24"/>
        <line class="st13" x1="22.08" y1="157.33" x2="44.51" y2="157.31"/>
        <line class="st13" x1="22.08" y1="162.49" x2="44.52" y2="162.47"/>
        <line class="st13" x1="22.09" y1="167.65" x2="37.42" y2="167.63"/>
        <line class="st13" x1="56.78" y1="157.3" x2="78.72" y2="157.28"/>
        <line class="st13" x1="56.78" y1="162.46" x2="71.77" y2="162.45"/>
        <line class="st13" x1="56.79" y1="167.62" x2="78.73" y2="167.6"/>
        <line class="st13" x1="91.05" y1="157.27" x2="113.07" y2="157.26"/>
        <line class="st13" x1="91.06" y1="162.43" x2="113.07" y2="162.41"/>
        <path class="st17" d="M24.69,155.36h-3.1c-.4,0-.73.33-.73.73v3.1c0,.4.33.73.73.73h3.1c.4,0,.73-.33.73-.73v-3.1c0-.4-.33-.73-.73-.73"/>
        <line class="st12" x1="23.14" y1="156.32" x2="23.14" y2="158.95"/>
        <line class="st12" x1="21.83" y1="157.63" x2="24.46" y2="157.63"/>
        <path class="st17" d="M59.3,155.33h-3.1c-.4,0-.73.33-.73.73v3.1c0,.4.33.73.73.73h3.1c.4,0,.73-.33.73-.73v-3.1c0-.4-.33-.73-.73-.73"/>
        <line class="st12" x1="57.75" y1="156.29" x2="57.75" y2="158.92"/>
        <line class="st12" x1="56.44" y1="157.6" x2="59.07" y2="157.6"/>
        <path class="st17" d="M93.76,155.3h-3.1c-.4,0-.73.33-.73.73v3.1c0,.4.33.73.73.73h3.1c.4,0,.73-.33.73-.73v-3.1c0-.4-.33-.73-.73-.73"/>
        <line class="st12" x1="92.21" y1="156.26" x2="92.22" y2="158.89"/>
        <line class="st12" x1="90.9" y1="157.57" x2="93.53" y2="157.57"/>
        <path class="st1" d="M24.66,22.19c.22,1.05.58,2.06,1.02,3.03.13.29.59.39.84.22.88-.61,1.82-1.13,2.79-1.57.47-.21.95-.41,1.44-.58.54-.19,1.14-.47,1.71-.51.53-.04,1.1.22,1.58.41.53.22,1.03.47,1.55.7,1.06.45,2.2.8,3.37.73,1.08-.06,1.99-.56,3-.84,1.2-.33,2.41,0,3.6.2,2.35.43,4.73.64,7.12.64,2.69,0,5.37-.25,8.01-.77.77-.15.45-1.34-.33-1.18-4.69.93-9.61.99-14.32.16-1.22-.22-2.45-.53-3.7-.37-1.09.14-2.03.77-3.11.92-1.12.15-2.27-.2-3.28-.66-1-.45-2.02-1.03-3.13-1.15-.68-.07-1.35.18-1.99.4-.6.2-1.18.43-1.76.68-1.11.48-2.18,1.05-3.18,1.74.28.07.56.15.84.22-.4-.88-.7-1.8-.9-2.74-.16-.77-1.35-.44-1.18.33"/>
        <path class="st17" d="M31.65,133.95c-.19,0-.37-.03-.53-.08-.16-.06-.31-.13-.43-.23-.12-.1-.22-.21-.29-.34-.07-.13-.11-.27-.11-.42s.04-.29.11-.42c.07-.13.17-.25.29-.34.12-.09.26-.17.43-.23.16-.06.34-.09.53-.09s.36.03.53.08c.17.06.31.13.43.23.12.09.22.21.29.34.07.13.11.27.11.42s-.04.29-.11.42c-.07.13-.17.24-.29.34-.12.1-.26.17-.43.23-.17.06-.34.09-.53.09M30.76,136.57l2.31-2.34,2.13-2.43.5.38-2.24,2.3-2.2,2.47-.5-.38ZM31.65,133.47c.08,0,.16-.02.23-.05.07-.03.13-.08.18-.13.05-.05.1-.12.13-.19.03-.07.05-.15.04-.23,0-.17-.06-.31-.17-.42-.12-.12-.25-.17-.41-.17-.08,0-.16.02-.23.05-.07.03-.13.08-.18.13-.05.05-.1.12-.13.19-.03.07-.05.15-.04.23,0,.17.06.31.17.43.12.12.25.18.41.18M34.82,136.98c-.19,0-.37-.03-.53-.08-.16-.06-.31-.13-.43-.23s-.22-.21-.29-.34c-.07-.13-.11-.27-.11-.42s.04-.29.11-.42c.07-.13.17-.24.29-.34.12-.1.26-.17.43-.23.16-.06.34-.09.53-.09s.37.03.53.09c.16.06.31.13.43.23.12.1.22.21.29.34.07.13.1.27.1.42s-.03.29-.1.42c-.07.13-.16.24-.29.34-.12.09-.27.17-.43.23-.16.06-.34.09-.53.09M34.82,136.5c.08,0,.16-.02.23-.05.07-.03.13-.08.18-.13.05-.05.1-.12.13-.19.03-.07.04-.15.04-.23,0-.09-.02-.16-.05-.24-.03-.07-.08-.14-.13-.19-.05-.05-.11-.1-.18-.13-.07-.03-.15-.05-.22-.05-.08,0-.16.02-.22.05-.07.03-.13.08-.18.13-.05.05-.1.12-.13.19-.03.07-.04.15-.04.23,0,.17.06.31.17.42.12.12.25.17.41.17"/>
        <path class="st17" d="M65.75,133.92c-.19,0-.37-.03-.53-.08-.16-.06-.31-.13-.43-.23-.12-.1-.22-.21-.29-.34-.07-.13-.11-.27-.11-.42s.04-.29.11-.42c.07-.13.17-.25.29-.34.12-.09.26-.17.43-.23.16-.06.34-.09.53-.09s.36.03.53.08c.17.06.31.13.43.23.12.09.22.21.29.34.07.13.11.27.11.42s-.04.29-.11.42c-.07.13-.17.24-.29.34-.12.1-.26.17-.43.23-.17.06-.34.09-.53.09M64.86,136.55l2.31-2.34,2.13-2.43.5.38-2.24,2.3-2.2,2.47-.5-.38ZM65.75,133.44c.08,0,.16-.02.23-.05.07-.03.13-.08.18-.13.05-.05.1-.12.13-.19.03-.07.04-.15.04-.23,0-.17-.06-.31-.17-.42-.12-.12-.25-.17-.41-.17-.08,0-.16.02-.23.05-.07.03-.13.08-.18.13-.05.05-.1.12-.13.19-.03.07-.04.15-.04.23,0,.17.06.31.17.43.12.12.25.18.41.18M68.92,136.95c-.19,0-.37-.03-.53-.08s-.31-.13-.43-.23-.22-.21-.29-.34c-.07-.13-.11-.27-.11-.42s.04-.29.11-.42c.07-.13.17-.24.29-.34.12-.1.26-.17.43-.23.16-.06.34-.09.53-.09s.37.03.53.09c.16.06.31.13.43.23.12.1.22.21.29.34.07.13.1.27.1.42s-.03.29-.1.42c-.07.13-.16.24-.29.34-.12.09-.27.17-.43.23-.16.06-.34.09-.53.09M68.92,136.47c.08,0,.16-.02.23-.05.07-.03.13-.08.18-.13s.1-.12.13-.19c.03-.07.04-.15.04-.23,0-.09-.02-.16-.05-.24-.03-.07-.08-.14-.13-.19-.05-.05-.11-.1-.18-.13-.07-.03-.15-.05-.22-.05-.08,0-.16.02-.23.05-.07.03-.13.08-.18.13-.05.05-.1.12-.13.19-.03.07-.04.15-.04.23,0,.17.06.31.17.42.12.12.25.17.41.17"/>
        <path class="st17" d="M99.8,134.22c-.19,0-.37-.03-.53-.08-.16-.06-.31-.13-.43-.23-.12-.1-.22-.21-.29-.34-.07-.13-.11-.27-.11-.42s.04-.29.11-.42c.07-.13.17-.25.29-.34.12-.09.26-.17.43-.23.16-.06.34-.09.53-.09s.36.03.53.08c.17.06.31.13.43.23.12.09.22.21.29.34.07.13.11.27.11.42s-.04.29-.11.42c-.07.13-.17.24-.29.34-.12.1-.26.17-.43.23-.17.06-.34.09-.53.09M98.91,136.85l2.31-2.34,2.13-2.43.5.38-2.24,2.3-2.2,2.47-.5-.38ZM99.8,133.74c.08,0,.16-.02.23-.05.07-.03.13-.08.18-.13.05-.05.1-.12.13-.19.03-.07.04-.15.04-.23,0-.17-.06-.31-.17-.42-.12-.12-.25-.17-.41-.17-.08,0-.16.02-.23.05-.07.03-.13.08-.18.13-.05.05-.1.12-.13.19-.03.07-.04.15-.04.23,0,.17.06.31.17.43.12.12.25.18.41.18M102.96,137.25c-.19,0-.37-.03-.53-.08s-.31-.13-.43-.23-.22-.21-.29-.34c-.07-.13-.11-.27-.11-.42s.04-.29.11-.42c.07-.13.17-.24.29-.34.12-.1.26-.17.43-.23.16-.06.34-.09.53-.09s.37.03.53.09c.16.06.31.13.43.23.12.1.22.21.29.34.07.13.1.27.1.42s-.03.29-.1.42c-.07.13-.16.24-.29.34-.12.09-.27.17-.43.23-.16.06-.34.09-.53.09M102.96,136.77c.08,0,.16-.02.23-.05.07-.03.13-.08.18-.13s.1-.12.13-.19c.03-.07.04-.15.04-.23,0-.09-.02-.16-.05-.24-.03-.07-.08-.14-.13-.19-.05-.05-.11-.1-.18-.13-.07-.03-.15-.05-.22-.05-.08,0-.16.02-.23.05-.07.03-.13.08-.18.13-.05.05-.1.12-.13.19-.03.07-.04.15-.04.23,0,.17.06.31.17.42.12.12.25.17.41.17"/>
        <path class="st25" d="M21.51,23.55c0,.96-.45,1.81-1.14,2.36-.03.03-.06.05-.1.07-.49.36-1.1.57-1.76.57-.6,0-1.16-.17-1.63-.48-.05-.03-.09-.06-.13-.09-.75-.55-1.24-1.43-1.25-2.43,0-1.66,1.34-3.01,3-3.01s3.01,1.34,3.01,3"/>
        <g class="st24">
          <g class="st23">
            <path d="M20.36,25.91s-.06.05-.1.07c-.49.36-1.1.57-1.76.57-.6,0-1.16-.17-1.63-.48h0c0-.24.21-.44.51-.48.12-.02.24-.03.37-.04h0s.05-.05.05-.05l.11-.11.06-.06s.02-.02.03-.03c.02-.02.04-.05.06-.08,0,0,0-.01.01-.02,0-.01.01-.02.02-.04,0-.01.01-.03.02-.04h0s-.1-.08-.14-.13c0,0-.01-.01-.02-.02-.03-.04-.07-.08-.09-.13-.1-.16-.15-.34-.21-.52,0-.03-.02-.06-.03-.1h0c-.01-.07-.02-.14-.03-.22-.02-.02-.03-.04-.05-.07-.03-.03-.06-.07-.08-.11-.04-.07-.07-.15-.05-.26,0-.06.02-.09.04-.12,0,0,0,0,0,0,0-.02.02-.03.03-.03.05-.04.09,0,.09,0v-.03s0,0,0,0l-.03-.55s0-.06,0-.09c.01-.2.11-.39.27-.52.57-.45,1.26-.26,1.63.05.16.13.26.29.27.42.02.21,0,.45-.03.66,0,.02,0,.04,0,.06,0,0,0,0,.02-.01.04-.01.11-.01.14.17.03.17-.05.27-.13.36-.03.04-.06.08-.09.12,0,.11-.02.2-.05.27-.06.18-.11.36-.21.52-.06.1-.14.18-.22.26h0s.03.07.05.1c.02.03.04.07.07.09,0,.01.02.02.03.03l.08.08h0s0,0,0,0h0s0,0,0,0l.13.13c.12.01.25.03.37.04.11.02.22.06.3.11.02.02.04.03.06.05.05.04.08.09.11.15"/>
          </g>
        </g>
        <path class="st22" d="M20.26,25.94v.04c-.49.36-1.1.57-1.76.57-.6,0-1.16-.17-1.63-.48-.05-.03-.09-.06-.13-.09v-.04c0-.24.21-.44.51-.48.12-.02.24-.03.37-.04h0c.1,0,.19-.02.29-.02.49-.03.99-.03,1.48.02.12.01.25.03.37.04.15.02.27.08.36.17.03.03.05.05.07.08.05.07.07.15.07.23"/>
        <path class="st16" d="M19.72,23.45c-.04-.25-.16-.16-.16-.16v-.03c.03-.6-.45-1.11-1.05-1.13-.6.02-1.08.52-1.05,1.13v.03s-.12-.09-.16.16c-.03.17.05.27.13.36.06.07.12.16.15.25.1.32.28.53.4.64.07.06.16.1.25.1h.29s.29,0,.29,0c.09,0,.18-.03.25-.1.12-.11.3-.32.4-.64.03-.09.08-.18.15-.25.08-.09.16-.19.13-.36"/>
        <path class="st16" d="M19.39,25.42c-.28.15-.58.22-.89.22s-.61-.07-.89-.22l.22-.22s.02-.02.03-.03c.02-.02.04-.05.06-.08.02-.03.04-.06.05-.1.02-.04.03-.09.05-.14,0-.04.01-.07.02-.11.06.03.12.05.18.05h.57c.06,0,.13-.02.18-.05,0,.04,0,.08.02.11,0,.04.02.08.04.12.01.03.03.07.05.1.02.03.04.07.07.1,0,.01.02.02.03.03l.22.22Z"/>
        <g class="st29">
          <g class="st2">
            <path d="M18.99,24.86c-.06.04-.13.06-.2.06h-.57c-.07,0-.14-.02-.2-.06,0-.04.01-.07.02-.11.06.03.12.05.18.05h.57c.06,0,.13-.02.18-.05,0,.04,0,.08.02.11"/>
          </g>
        </g>
        <path class="st21" d="M17.53,23.69c.1-.11.15-.39.22-1.06l1.15.06c.16.02.3.13.35.29l.19.63s.06.03.07,0c.04-.22.12-.67.1-1.03-.03-.45-1.08-1.12-1.9-.48-.18.14-.28.37-.27.6l.05.97s.04.04.06.02"/>
        <path class="st22" d="M19.39,25.42c-.28.15-.58.31-.89.31s-.61-.16-.89-.31l.22-.22s.02-.02.03-.03h1.29s.02.02.03.03l.22.22Z"/>
        <path class="st21" d="M19.51,23.32s-.18.58-.23.73c-.05.15-.12.3-.22.43,0,.01-.02.02-.03.01-.06-.02-.1-.05-.13-.11-.02-.05-.05-.1-.08-.14-.04-.05-.09-.1-.16-.12-.04-.02-.09-.02-.14-.02-.01,0-.03,0-.04,0s-.03,0-.04,0c-.05,0-.09,0-.14.02-.06.03-.11.07-.16.12-.03.04-.06.09-.08.14-.02.06-.07.09-.13.11-.01,0-.02,0-.03-.01-.1-.13-.16-.28-.22-.43-.05-.15-.23-.73-.23-.73,0,.03-.02.64.06.88.06.18.11.36.21.52.07.12.17.22.28.3.12.09.26.15.41.18.02,0,.04.01.07.01,0,0,0,0,0,0,0,0,0,0,0,0,.02,0,.04,0,.07-.01.15-.03.28-.09.41-.18.11-.08.21-.19.28-.3.1-.16.15-.34.21-.52.08-.24.06-.85.06-.88M18.79,24.57s-.06.07-.1.09c-.03.02-.07.02-.1,0-.01,0-.03-.01-.04-.02-.02-.01-.04-.02-.06-.02s-.04,0-.06.02c-.01,0-.03.01-.04.02-.04.01-.07.01-.1,0-.04-.02-.07-.06-.1-.09-.04-.05-.02-.11.01-.17.09-.17.29-.1.29-.1,0,0,.2-.07.29.1.03.06.05.11,0,.17"/>
        <g class="st29">
          <g class="st20">
            <path d="M19.07,25.08s-.07.06-.11.09c-.12.09-.26.15-.4.18-.02,0-.04.01-.07.01,0,0,0,0,0,0,0,0,0,0,0,0-.02,0-.04,0-.07-.01-.15-.03-.28-.09-.41-.18-.03-.02-.06-.05-.09-.07.02-.03.04-.06.05-.1.01,0,.02.02.04.03.12.09.26.15.41.18.02,0,.04.01.07.01,0,0,0,0,0,0,0,0,0,0,0,0,.02,0,.04,0,.07-.01.15-.03.28-.09.4-.18.02-.01.04-.03.06-.05.01.03.03.07.05.1"/>
          </g>
        </g>
        <path class="st27" d="M121.31,33.09l.03,32.95c0,.65-.53,1.19-1.18,1.19h-7.57c-.65,0-1.19-.52-1.19-1.18l-.03-32.95c0-.65.53-1.19,1.18-1.19h7.57c.65,0,1.19.52,1.19,1.18"/>
        <path class="st0" d="M109.41,37.2l.02,28.85c0,.65-.53,1.19-1.18,1.19h-7.57c-.65,0-1.19-.52-1.19-1.18l-.02-28.85c0-.65.53-1.19,1.18-1.19h7.57c.65,0,1.19.52,1.19,1.18"/>
        <path class="st15" d="M97.26,45.61l.02,20.45c0,.65-.53,1.19-1.18,1.19h-7.57c-.65,0-1.19-.52-1.19-1.18l-.02-20.45c0-.65.53-1.19,1.18-1.19h7.57c.65,0,1.19.52,1.19,1.18"/>
        <path class="st19" d="M85.11,54.79v11.28c0,.65-.52,1.19-1.18,1.19h-7.57c-.65,0-1.19-.52-1.19-1.18v-11.28c0-.65.52-1.19,1.18-1.19h7.57c.65,0,1.19.52,1.19,1.18"/>
        <line class="st4" x1="76.26" y1="41.61" x2="113.03" y2="22.69"/>
        <polyline class="st26" points="109.12 17.63 120.07 18.59 114.85 27.91"/>
        <line class="st7" x1="74.81" y1="76.64" x2="95.35" y2="76.62"/>
        <line class="st7" x1="74.81" y1="81.8" x2="95.36" y2="81.78"/>
        <line class="st7" x1="74.81" y1="86.95" x2="95.36" y2="86.94"/>
        <line class="st7" x1="101.44" y1="76.62" x2="121.99" y2="76.6"/>
        <line class="st7" x1="101.44" y1="81.77" x2="121.99" y2="81.76"/>
        <line class="st7" x1="101.45" y1="86.93" x2="122" y2="86.92"/>
      </g>
    </g>
  </g>
</svg>