<?xml version="1.0" encoding="UTF-8"?>
<svg id="Layer_1" xmlns="http://www.w3.org/2000/svg" version="1.1" xmlns:xlink="http://www.w3.org/1999/xlink" viewBox="0 0 134.74 190.23">
  <!-- Generator: Adobe Illustrator 29.8.1, SVG Export Plug-In . SVG Version: 2.1.1 Build 2)  -->
  <defs>
    <style>
      .st0 {
        fill: #d9d9d9;
      }

      .st1 {
        fill: #f0f0f0;
      }

      .st2 {
        fill: #f9c026;
      }

      .st3 {
        stroke: #152841;
      }

      .st3, .st4 {
        stroke-miterlimit: 10;
        stroke-width: .25px;
      }

      .st3, .st4, .st5 {
        fill: none;
      }

      .st6 {
        fill: #fff;
      }

      .st4 {
        stroke: #f9c026;
      }

      .st7 {
        clip-path: url(#clippath-1);
      }

      .st8 {
        fill: #205fa9;
      }

      .st9 {
        clip-path: url(#clippath-2);
      }

      .st10 {
        clip-path: url(#clippath);
      }
    </style>
    <clipPath id="clippath">
      <rect class="st5" x="3.84" y="4.26" width="129.28" height="185.48"/>
    </clipPath>
    <clipPath id="clippath-1">
      <rect class="st5" x="1.08" y="3.39" width="134.28" height="184.38"/>
    </clipPath>
    <clipPath id="clippath-2">
      <rect class="st5" x="3.42" y="3.39" width="128.52" height="184.38"/>
    </clipPath>
  </defs>
  <path class="st6" d="M127.85,189.66l-120.77.09c-3.63,0-6.58-2.94-6.58-6.57L.37,7C.37,3.37,3.31.42,6.94.42l120.77-.09c3.63,0,6.58,2.94,6.58,6.57l.13,176.18c0,3.63-2.94,6.58-6.57,6.58"/>
  <path class="st8" d="M8.16,187.78c-2.54,0-4.61-2.06-4.61-4.61L3.42,6.99c0-2.54,2.07-4.61,4.61-4.61l120.77-.09c2.54,0,4.61,2.06,4.61,4.61l.12,176.17c0,2.54-2.06,4.61-4.61,4.61l-120.77.09Z"/>
  <path class="st1" d="M16.29,20.82c-.81,0-1.47-.66-1.47-1.47,0-.81.66-1.48,1.47-1.48h4.75s0-.01,0-.01c.81,0,1.47.66,1.47,1.47,0,.81-.66,1.48-1.47,1.48h-4.75s0,.01,0,.01Z"/>
  <path class="st2" d="M32.37,16.19h0l-16.24-.02c-.61,0-1.1-.49-1.1-1.1,0-.61.49-1.1,1.1-1.1h0l16.24.02c.61,0,1.1.49,1.1,1.1,0,.61-.49,1.1-1.1,1.1Z"/>
  <g class="st10">
    <g>
      <circle class="st3" cx="110.67" cy="163.86" r="58.33"/>
      <circle class="st3" cx="110.67" cy="163.86" r="54.44"/>
      <circle class="st3" cx="110.67" cy="163.86" r="50.55"/>
      <circle class="st3" cx="110.67" cy="163.86" r="46.66"/>
      <circle class="st3" cx="110.67" cy="163.86" r="42.77"/>
      <circle class="st3" cx="110.67" cy="163.86" r="38.89"/>
      <circle class="st3" cx="110.67" cy="163.86" r="35"/>
    </g>
  </g>
  <rect class="st5" x="2.67" y="3.39" width="129.88" height="183.78"/>
  <rect class="st5" x="2.67" y="3.39" width="129.88" height="183.78"/>
  <g class="st7">
    <g>
      <circle class="st4" cx="39.3" cy="103.57" r="58.33"/>
      <circle class="st4" cx="39.3" cy="103.57" r="54.44"/>
      <circle class="st4" cx="39.3" cy="103.57" r="50.55"/>
      <circle class="st4" cx="39.3" cy="103.57" r="46.66"/>
      <circle class="st4" cx="39.3" cy="103.57" r="42.77"/>
      <circle class="st4" cx="39.3" cy="103.57" r="38.89"/>
      <circle class="st4" cx="39.3" cy="103.57" r="35"/>
    </g>
  </g>
  <rect class="st5" x="2.67" y="3.39" width="129.88" height="183.78"/>
  <path class="st0" d="M7.07,190.07c-3.8,0-6.9-3.09-6.9-6.9L.04,7C.04,3.19,3.14.09,6.94.09L127.71,0h0c1.84,0,3.57.72,4.88,2.02,1.31,1.3,2.02,3.04,2.03,4.88l.13,176.18c0,3.81-3.09,6.9-6.9,6.91l-120.77.09h0ZM127.72.66h0L6.94.74c-3.45,0-6.25,2.81-6.24,6.25l.13,176.18c0,3.44,2.81,6.24,6.25,6.24h0l120.77-.09c3.44,0,6.25-2.81,6.24-6.25l-.13-176.17c0-1.67-.65-3.24-1.83-4.42-1.18-1.18-2.75-1.83-4.41-1.83Z"/>
  <path class="st6" d="M25.46,119.67h0l-9.67-.02c-.54,0-.98-.44-.98-.98,0-.54.44-.98.98-.98h0l9.67.02c.54,0,.98.44.98.98,0,.54-.44.98-.98.98Z"/>
  <path class="st6" d="M37.04,124.74h0l-20.75-.03c-.82,0-1.48-.66-1.48-1.48,0-.82.66-1.48,1.48-1.48h0l20.75.03c.82,0,1.48.66,1.48,1.48,0,.82-.66,1.48-1.48,1.48Z"/>
  <path class="st6" d="M38.92,173.6h0l-23.67-.02c-.54,0-.98-.44-.98-.98,0-.54.44-.98.98-.98h0l23.67.02c.54,0,.98.44.98.98,0,.54-.44.98-.98.98Z"/>
  <path class="st6" d="M30.87,170.53h0l-15.62-.02c-.54,0-.98-.44-.98-.98,0-.54.44-.98.98-.98h0l15.62.02c.54,0,.98.44.98.98,0,.54-.44.98-.98.98Z"/>
  <path class="st6" d="M36.23,176.66h0l-20.98-.02c-.54,0-.98-.44-.98-.98,0-.54.44-.98.98-.98h0l20.98.02c.54,0,.98.44.98.98,0,.54-.44.98-.98.98Z"/>
  <g class="st9">
    <g>
      <circle class="st3" cx="94.21" cy="-13.09" r="58.33"/>
      <circle class="st3" cx="94.21" cy="-13.09" r="54.44"/>
      <circle class="st3" cx="94.21" cy="-13.09" r="50.55"/>
      <circle class="st3" cx="94.21" cy="-13.09" r="46.66"/>
      <circle class="st3" cx="94.21" cy="-13.09" r="42.77"/>
      <circle class="st3" cx="94.21" cy="-13.09" r="38.89"/>
      <circle class="st3" cx="94.21" cy="-13.09" r="35"/>
    </g>
  </g>
  <path class="st6" d="M127.71,4.26c1.46,0,2.65,1.18,2.65,2.64l.13,176.18c0,1.46-1.18,2.65-2.64,2.65l-120.77.09c-1.46,0-2.65-1.18-2.65-2.64l-.12-176.18c0-1.46,1.18-2.65,2.64-2.65l120.77-.09ZM127.71.33L6.94.42C3.31.42.37,3.37.37,7l.12,176.18c0,3.63,2.95,6.57,6.58,6.57l120.77-.09c3.63,0,6.57-2.95,6.57-6.58l-.12-176.18c0-3.63-2.95-6.57-6.58-6.57"/>
  <g>
    <path class="st6" d="M15.59,90.01c0-.3.02-.57.07-.81.05-.24.13-.47.24-.68.12-.21.28-.4.48-.58.2-.18.46-.36.78-.53.27-.15.51-.27.72-.38.21-.11.38-.21.53-.31.14-.09.25-.19.32-.29.07-.1.11-.21.11-.33,0-.2-.08-.37-.24-.51-.16-.14-.39-.22-.69-.22-.16,0-.31.02-.44.06-.13.04-.26.1-.38.18-.12.07-.22.15-.32.25-.1.09-.18.18-.26.28l-.86-.99c.09-.09.21-.2.37-.31s.35-.21.57-.31.46-.18.72-.24.54-.1.84-.1c.34,0,.64.04.91.12.27.08.49.2.67.35.18.15.32.33.42.54s.15.44.15.69c0,.23-.04.44-.13.62-.09.18-.2.34-.33.48-.13.14-.28.26-.44.36-.16.1-.31.19-.45.27-.12.07-.26.14-.41.23-.15.09-.31.18-.46.29-.15.1-.29.21-.42.32-.13.11-.22.22-.29.33h3.03v1.21h-4.82Z"/>
    <path class="st6" d="M26.5,87.08c0,.44-.07.85-.2,1.22-.13.37-.31.69-.54.96-.23.27-.5.48-.82.63-.32.15-.66.23-1.03.23s-.72-.08-1.03-.23-.58-.36-.81-.63c-.23-.27-.41-.59-.54-.96-.13-.37-.2-.78-.2-1.22s.07-.84.2-1.21.31-.69.54-.96c.23-.27.5-.48.81-.64.31-.15.66-.23,1.03-.23s.71.08,1.03.23c.32.15.59.37.82.64.23.27.41.59.54.96s.2.77.2,1.21ZM25.15,87.08c0-.27-.03-.51-.09-.73-.06-.22-.14-.42-.25-.58-.11-.16-.24-.28-.39-.37-.15-.09-.32-.13-.5-.13s-.36.04-.5.13c-.15.09-.28.21-.39.37-.11.16-.19.35-.25.58-.06.22-.09.47-.09.73s.03.51.09.73c.06.22.15.41.25.57.11.16.24.28.39.37.15.09.32.13.5.13s.34-.04.5-.13c.15-.09.28-.21.39-.37.11-.16.2-.35.25-.57.06-.22.09-.46.09-.73Z"/>
    <path class="st6" d="M27.37,90.01c0-.3.02-.57.07-.81s.13-.47.25-.68c.12-.21.28-.4.48-.58.2-.18.46-.36.78-.53.27-.15.51-.27.72-.38.21-.11.39-.21.53-.31s.25-.19.32-.29c.07-.1.11-.21.11-.33,0-.2-.08-.37-.24-.51-.16-.14-.39-.22-.69-.22-.16,0-.31.02-.44.06-.13.04-.26.1-.38.18-.12.07-.22.15-.32.25-.1.09-.19.18-.27.28l-.86-.99c.09-.09.21-.2.37-.31s.35-.21.56-.31.46-.18.72-.24c.26-.06.54-.1.84-.1.34,0,.64.04.91.12.27.08.49.2.67.35s.32.33.42.54.14.44.14.69c0,.23-.04.44-.13.62-.09.18-.2.34-.33.48-.13.14-.28.26-.43.36-.16.1-.31.19-.46.27-.12.07-.26.14-.41.23-.15.09-.3.18-.46.29-.15.1-.29.21-.42.32-.13.11-.22.22-.29.33h3.03v1.21h-4.82Z"/>
    <path class="st6" d="M38.3,87.64c0,.35-.07.67-.2.97-.13.3-.32.56-.55.78-.23.22-.51.4-.83.53-.32.13-.66.19-1.03.19-.4,0-.76-.07-1.08-.22s-.6-.36-.82-.64c-.23-.28-.4-.62-.52-1.03-.12-.4-.18-.86-.18-1.38,0-.65.06-1.22.19-1.71.13-.5.31-.91.55-1.25.24-.34.53-.59.87-.77.34-.17.72-.26,1.14-.26.45,0,.86.1,1.23.29.38.19.7.47.96.83l-.77.84c-.16-.25-.37-.45-.62-.59-.25-.14-.53-.21-.82-.21-.45,0-.8.18-1.07.53s-.41.85-.42,1.5c.14-.24.34-.43.59-.57.26-.14.55-.21.89-.21s.67.06.98.18c.3.12.57.29.79.5.22.21.4.46.52.75.13.29.19.6.19.94ZM35.71,88.98c.17,0,.34-.04.5-.1.16-.07.3-.17.42-.29.12-.12.21-.27.29-.43.07-.16.1-.33.1-.52s-.04-.35-.1-.5c-.07-.16-.17-.29-.29-.42s-.26-.21-.42-.28c-.16-.07-.33-.1-.5-.1s-.35.03-.51.1c-.16.07-.3.16-.42.28s-.21.26-.28.42c-.07.16-.1.33-.1.5s.04.35.11.52c.07.16.17.31.29.42.12.12.26.22.42.29.16.07.32.11.5.11Z"/>
    <path class="st2" d="M16.03,102.01v-7.81h5.25v1.33h-3.73v2.01h3.1v1.23h-3.1v3.23h-1.52Z"/>
    <path class="st2" d="M22.2,95.44v-1.46h1.47v1.46h-1.47ZM22.2,102.01v-5.76h1.47v5.76h-1.47Z"/>
    <path class="st2" d="M30.36,102.01h-1.47v-3.23c0-.46-.08-.8-.24-1.01-.16-.21-.38-.32-.67-.32-.15,0-.3.03-.45.09-.15.06-.3.14-.43.25s-.26.23-.37.38c-.11.15-.19.31-.24.48v3.37h-1.47v-5.76h1.33v1.07c.21-.37.52-.65.92-.86.4-.21.86-.31,1.36-.31.36,0,.65.07.88.2s.4.3.53.52c.12.21.21.45.26.73s.07.55.07.82v3.6Z"/>
    <path class="st2" d="M33.22,102.12c-.28,0-.54-.05-.78-.14-.24-.09-.45-.22-.63-.39-.18-.17-.31-.36-.41-.58-.1-.22-.15-.46-.15-.73s.06-.52.18-.75c.12-.23.29-.43.51-.59.22-.16.47-.29.78-.38s.63-.14.99-.14c.26,0,.51.02.75.07.25.04.46.11.66.19v-.33c0-.38-.11-.67-.33-.88-.22-.21-.54-.31-.96-.31-.31,0-.61.05-.9.17-.29.11-.59.27-.9.48l-.45-.94c.74-.49,1.54-.74,2.4-.74s1.47.2,1.93.61c.46.41.69,1,.69,1.77v1.79c0,.15.03.26.08.33.06.07.15.1.27.11v1.25c-.25.05-.47.08-.65.08-.28,0-.49-.06-.64-.19s-.24-.29-.28-.5l-.03-.32c-.26.34-.57.59-.94.77-.37.18-.76.26-1.18.26ZM33.64,101.04c.25,0,.49-.04.71-.13s.4-.21.52-.35c.16-.12.24-.26.24-.42v-.66c-.18-.07-.37-.12-.57-.16-.21-.04-.4-.06-.59-.06-.38,0-.69.09-.94.26-.24.17-.36.39-.36.65,0,.25.1.46.29.62s.43.25.7.25Z"/>
    <path class="st2" d="M43.32,102.01h-1.47v-3.23c0-.46-.08-.8-.24-1.01-.16-.21-.38-.32-.67-.32-.15,0-.3.03-.45.09-.15.06-.3.14-.43.25s-.26.23-.37.38c-.11.15-.19.31-.24.48v3.37h-1.47v-5.76h1.33v1.07c.21-.37.52-.65.92-.86.4-.21.86-.31,1.36-.31.36,0,.65.07.88.2s.4.3.53.52c.12.21.21.45.26.73s.07.55.07.82v3.6Z"/>
    <path class="st2" d="M44.24,99.13c0-.4.07-.78.21-1.14.14-.36.34-.67.6-.95.26-.27.58-.49.96-.65.37-.16.8-.24,1.27-.24.63,0,1.17.14,1.61.41.44.27.78.63,1,1.07l-1.44.44c-.12-.21-.29-.38-.49-.49-.21-.11-.43-.17-.68-.17-.21,0-.41.04-.59.13s-.34.2-.48.35-.24.33-.32.54-.12.45-.12.7.04.49.12.7c.08.21.19.4.32.55.14.15.29.27.48.36.18.08.38.13.58.13.26,0,.51-.07.73-.2.22-.13.38-.29.47-.48l1.44.44c-.2.44-.52.8-.98,1.08-.46.28-1,.42-1.64.42-.47,0-.89-.08-1.27-.24-.37-.16-.69-.38-.96-.65-.26-.27-.47-.59-.61-.96-.14-.36-.21-.74-.21-1.14Z"/>
    <path class="st2" d="M50.81,95.44v-1.46h1.47v1.46h-1.47ZM50.81,102.01v-5.76h1.47v5.76h-1.47Z"/>
    <path class="st2" d="M55.19,102.12c-.28,0-.54-.05-.78-.14-.24-.09-.45-.22-.63-.39-.18-.17-.31-.36-.41-.58-.1-.22-.15-.46-.15-.73s.06-.52.18-.75c.12-.23.29-.43.51-.59.22-.16.47-.29.78-.38s.63-.14.99-.14c.26,0,.51.02.75.07.25.04.46.11.66.19v-.33c0-.38-.11-.67-.33-.88-.22-.21-.54-.31-.96-.31-.31,0-.61.05-.9.17-.29.11-.59.27-.9.48l-.45-.94c.74-.49,1.54-.74,2.4-.74s1.47.2,1.93.61c.46.41.69,1,.69,1.77v1.79c0,.15.03.26.08.33.06.07.15.1.27.11v1.25c-.25.05-.47.08-.65.08-.28,0-.49-.06-.64-.19s-.24-.29-.28-.5l-.03-.32c-.26.34-.57.59-.94.77-.37.18-.76.26-1.18.26ZM55.6,101.04c.25,0,.49-.04.71-.13s.4-.21.52-.35c.16-.12.24-.26.24-.42v-.66c-.18-.07-.37-.12-.57-.16-.21-.04-.4-.06-.59-.06-.38,0-.69.09-.94.26-.24.17-.36.39-.36.65,0,.25.1.46.29.62s.43.25.7.25Z"/>
    <path class="st2" d="M59.92,93.98h1.47v6.18c0,.21.05.38.15.5.1.12.25.18.44.18.09,0,.19-.01.29-.04.11-.03.21-.07.3-.11l.2,1.12c-.2.1-.43.17-.69.22-.26.05-.5.08-.72.08-.46,0-.82-.12-1.07-.37s-.38-.6-.38-1.05v-6.7Z"/>
    <path class="st2" d="M16.03,114.01v-7.81h3.31c.36,0,.69.08,1,.23s.57.35.79.59c.22.25.39.52.52.84.12.31.19.62.19.94s-.06.65-.18.96-.28.59-.5.83c-.21.24-.47.44-.77.58s-.63.22-.99.22h-1.85v2.62h-1.52ZM17.54,110.06h1.76c.28,0,.51-.11.7-.34.19-.23.28-.54.28-.92,0-.2-.03-.38-.09-.53s-.14-.29-.23-.4c-.1-.11-.21-.19-.34-.25-.13-.06-.26-.08-.39-.08h-1.69v2.53Z"/>
    <path class="st2" d="M22.72,105.98h1.47v6.18c0,.21.05.38.15.5s.25.18.44.18c.09,0,.18-.01.29-.04.11-.03.21-.07.3-.11l.2,1.12c-.2.1-.43.17-.69.22-.26.05-.5.08-.71.08-.46,0-.82-.12-1.07-.37s-.38-.6-.38-1.05v-6.7Z"/>
    <path class="st2" d="M27.8,114.12c-.28,0-.54-.05-.78-.14-.24-.09-.45-.22-.63-.39s-.31-.36-.41-.58c-.1-.22-.15-.46-.15-.73s.06-.52.18-.75c.12-.23.29-.43.51-.59.22-.16.47-.29.78-.38s.63-.14.99-.14c.26,0,.51.02.75.07.25.04.46.11.65.19v-.33c0-.38-.11-.67-.32-.88-.22-.21-.54-.31-.96-.31-.31,0-.61.05-.9.17-.29.11-.59.27-.9.48l-.45-.94c.74-.49,1.54-.74,2.4-.74s1.47.2,1.93.61c.46.41.69,1,.69,1.77v1.79c0,.15.03.26.08.33.05.07.14.1.27.11v1.25c-.25.05-.47.08-.65.08-.28,0-.49-.06-.64-.19s-.24-.29-.28-.5l-.03-.32c-.26.34-.57.59-.93.77-.37.18-.76.26-1.18.26ZM28.21,113.04c.25,0,.49-.04.71-.13s.4-.21.52-.35c.16-.12.24-.26.24-.42v-.66c-.18-.07-.37-.12-.57-.16-.21-.04-.4-.06-.59-.06-.38,0-.69.09-.93.26-.24.17-.36.39-.36.65,0,.25.09.46.29.62.19.17.42.25.7.25Z"/>
    <path class="st2" d="M37.89,114.01h-1.47v-3.23c0-.46-.08-.8-.24-1.01-.16-.21-.39-.32-.67-.32-.15,0-.3.03-.45.09s-.3.14-.43.25-.26.23-.37.38c-.11.15-.19.31-.24.48v3.37h-1.47v-5.76h1.33v1.07c.21-.37.52-.65.92-.86.4-.21.86-.31,1.36-.31.36,0,.65.07.88.2s.4.3.53.52.21.45.26.73c.05.27.07.55.07.82v3.6Z"/>
  </g>
  <path class="st1" d="M25.73,20.81c-.81,0-1.47-.66-1.47-1.47s.66-1.47,1.47-1.47h18.5s0-.01,0-.01c.81,0,1.47.66,1.47,1.47s-.66,1.47-1.47,1.47h-18.5s0,.01,0,.01Z"/>
</svg>