<?xml version="1.0" encoding="UTF-8"?>
<svg xmlns="http://www.w3.org/2000/svg" version="1.1" viewBox="0 0 409.5 578.1">
  <defs>
    <style>
      .cls-1 {
        fill: #f7c027;
      }

      .cls-2 {
        fill: #fceaec;
      }

      .cls-3 {
        fill: none;
        stroke: #f2f2f2;
        stroke-width: 9px;
      }

      .cls-3, .cls-4 {
        stroke-linecap: round;
        stroke-miterlimit: 10;
      }

      .cls-5, .cls-4 {
        fill: #fff;
      }

      .cls-4 {
        stroke: #fff;
        stroke-width: 2px;
      }

      .cls-6 {
        fill: #2160a9;
      }

      .cls-7 {
        fill: #f2f2f2;
      }

      .cls-8 {
        fill: #f9c026;
      }

      .cls-9 {
        fill: #fef2d4;
      }

      .cls-10 {
        fill: #e0edea;
      }

      .cls-11 {
        fill: #318370;
      }

      .cls-12 {
        fill: #205fa9;
      }

      .cls-13 {
        fill: #ed727d;
      }
    </style>
  </defs>
  <!-- Generator: Adobe Illustrator 28.7.10, SVG Export Plug-In . SVG Version: 1.2.0 Build 236)  -->
  <g>
    <g id="Layer_1">
      <polygon class="cls-4" points=".3 -.1 409.2 -.1 409.2 578.1 409.2 578.1 .3 578.1 .3 -.1"/>
      <path class="cls-7" d="M362.3,60.6H93.3v-8.8c0-6.2-5-11.2-11.2-11.2h-40c-6.2,0-11.2,5-11.2,11.2v235c0,8.8,7.1,16,15.9,16h315.5c8.8,0,16-7.1,16-16V76.5c0-8.8-7.1-15.9-16-15.9h0ZM369.2,286.8c0,3.8-3.1,7-7,7H46.8c-3.8,0-6.9-3.1-6.9-7V76.5c0-3.8,3.1-6.9,6.9-6.9h315.5c3.8,0,7,3.1,7,6.9v210.2Z"/>
      <rect class="cls-5" x="186.3" y="323.3" width="202.3" height="147.3"/>
      <g>
        <path class="cls-7" d="M380.2,319.4h-142.7v-8.3c0-5.9-4.6-10.6-10.2-10.6h-36.3c-5.6,0-10.2,4.7-10.2,10.6v149.9c0,8.3,6.5,15,14.5,15h185c8,0,14.5-6.7,14.5-15v-126.6c0-8.3-6.5-15-14.5-15h0ZM386.5,461c0,3.6-2.8,6.5-6.3,6.5h-185c-3.5,0-6.3-2.9-6.3-6.5v-126.6c0-3.6,2.8-6.5,6.3-6.5h185c3.5,0,6.3,2.9,6.3,6.5v126.6h0Z"/>
        <g>
          <ellipse class="cls-13" cx="194" cy="312.5" rx="3.7" ry="3.8"/>
          <ellipse class="cls-8" cx="208.7" cy="312.5" rx="3.7" ry="3.8"/>
          <ellipse class="cls-11" cx="223.4" cy="312.5" rx="3.7" ry="3.8"/>
        </g>
      </g>
      <g>
        <g>
          <path class="cls-2" d="M300.8,383.5c-.9-1.6-2.1-2.4-3.3-2.4s-2.4.8-3.3,2.4l-18.6,32.1c-1.7-3-8-13.8-8-13.8-.9-1.6-2.1-2.4-3.3-2.4s-2.4.8-3.3,2.4c0,0-7.6,13.2-9.4,16.3l-2.8,4.8c-1.8,3.2-.3,5.7,3.3,5.7h68.2c3.6,0,5.1-2.6,3.3-5.7l-22.8-39.5h0Z"/>
          <path class="cls-2" d="M267.6,386.7c5.1,0,9.2-4.1,9.2-9.2s-4.1-9.2-9.2-9.2-9.2,4.1-9.2,9.2,4.1,9.2,9.2,9.2Z"/>
          <path class="cls-2" d="M340.7,346.8h-109c-7.9,0-14.4,6.4-14.4,14.4v74.6c0,7.9,6.5,14.4,14.4,14.4h109c7.9,0,14.4-6.4,14.4-14.4v-74.6c0-7.9-6.5-14.4-14.4-14.4h0ZM346.5,435.8c0,3.2-2.6,5.8-5.8,5.8h-109c-3.2,0-5.8-2.6-5.8-5.8v-74.6c0-3.2,2.6-5.8,5.8-5.8h109c3.2,0,5.8,2.6,5.8,5.8v74.6h0Z"/>
        </g>
        <g>
          <rect class="cls-13" x="328.3" y="422.6" width="13.9" height="13.9" rx="2.2" ry="2.2"/>
          <g>
            <path class="cls-5" d="M335,434.3h-2.5c-1.1,0-2-.9-2-2v-5.5c0-1.1.9-2,2-2h5.5c1.1,0,2,.9,2,2v2.5h-.8v-2.5c0-.7-.5-1.2-1.2-1.2h-5.5c-.7,0-1.2.5-1.2,1.2v5.5c0,.7.5,1.2,1.2,1.2h2.5v.8Z"/>
            <path class="cls-5" d="M339.4,435.4h-2.2c-.8,0-1.5-.7-1.5-1.5v-2.2c0-.8.7-1.5,1.5-1.5h2.2c.8,0,1.5.7,1.5,1.5v2.2c0,.8-.7,1.5-1.5,1.5ZM337.2,431.1c-.4,0-.7.3-.7.7v2.2c0,.4.3.7.7.7h2.2c.4,0,.7-.3.7-.7v-2.2c0-.4-.3-.7-.7-.7h-2.2Z"/>
            <path class="cls-5" d="M335.6,430.4c-.1,0-.2,0-.3-.1l-3.4-3.4c-.1-.1-.1-.4,0-.5s.4-.1.5,0l3.4,3.4c.1.1.1.4,0,.5s-.2.1-.3.1h0Z"/>
            <path class="cls-5" d="M336.1,430.5h-2.8c-.2,0-.4-.2-.4-.4s.2-.4.4-.4h2v-2c0-.2.2-.4.4-.4s.4.2.4.4v2.8h0Z"/>
          </g>
        </g>
      </g>
      <rect class="cls-5" x="188.2" y="109.5" width="202.3" height="147.3"/>
      <g>
        <path class="cls-7" d="M382.1,105.6h-142.7v-8.3c0-5.9-4.6-10.6-10.2-10.6h-36.3c-5.6,0-10.2,4.7-10.2,10.6v149.9c0,8.3,6.5,15,14.5,15h185c8,0,14.5-6.7,14.5-15v-126.6c0-8.3-6.5-15-14.5-15h0ZM388.4,247.2c0,3.6-2.8,6.5-6.3,6.5h-185c-3.5,0-6.3-2.9-6.3-6.5v-126.6c0-3.6,2.8-6.6,6.3-6.6h185c3.5,0,6.3,2.9,6.3,6.6v126.6h0Z"/>
        <g>
          <ellipse class="cls-13" cx="196" cy="98.8" rx="3.7" ry="3.8"/>
          <ellipse class="cls-8" cx="210.7" cy="98.8" rx="3.7" ry="3.8"/>
          <ellipse class="cls-11" cx="225.4" cy="98.8" rx="3.7" ry="3.8"/>
        </g>
      </g>
      <g>
        <path class="cls-10" d="M302.2,169.3c-.9-1.6-2.1-2.4-3.3-2.4s-2.4.8-3.3,2.4l-18.6,32.1c-1.7-3-8-13.8-8-13.8-.9-1.6-2.1-2.4-3.3-2.4s-2.4.8-3.3,2.4c0,0-7.6,13.2-9.4,16.3l-2.8,4.8c-1.8,3.2-.3,5.7,3.3,5.7h68.2c3.6,0,5.1-2.6,3.3-5.7l-22.8-39.5h0Z"/>
        <path class="cls-10" d="M269.1,172.5c5.1,0,9.2-4.1,9.2-9.2s-4.1-9.2-9.2-9.2-9.2,4.1-9.2,9.2,4.1,9.2,9.2,9.2Z"/>
        <path class="cls-10" d="M342.1,132.6h-108.9c-7.9,0-14.4,6.4-14.4,14.4v74.6c0,7.9,6.5,14.4,14.4,14.4h109c7.9,0,14.4-6.4,14.4-14.4v-74.6c0-7.9-6.5-14.4-14.4-14.4h0ZM347.9,221.6c0,3.2-2.6,5.8-5.8,5.8h-108.9c-3.2,0-5.8-2.6-5.8-5.8v-74.6c0-3.2,2.6-5.8,5.8-5.8h109c3.2,0,5.8,2.6,5.8,5.8v74.6h0Z"/>
      </g>
      <g>
        <rect class="cls-11" x="329.9" y="210.2" width="13.9" height="13.9" rx="2.2" ry="2.2"/>
        <g>
          <path class="cls-5" d="M336.7,221.9h-2.5c-1.1,0-2-.9-2-2v-5.5c0-1.1.9-2,2-2h5.5c1.1,0,2,.9,2,2v2.5h-.8v-2.5c0-.7-.5-1.2-1.2-1.2h-5.5c-.7,0-1.2.5-1.2,1.2v5.5c0,.7.5,1.2,1.2,1.2h2.5v.8Z"/>
          <path class="cls-5" d="M341.1,223h-2.2c-.8,0-1.5-.7-1.5-1.5v-2.2c0-.8.7-1.5,1.5-1.5h2.2c.8,0,1.5.7,1.5,1.5v2.2c0,.8-.7,1.5-1.5,1.5ZM338.9,218.6c-.4,0-.7.3-.7.7v2.2c0,.4.3.7.7.7h2.2c.4,0,.7-.3.7-.7v-2.2c0-.4-.3-.7-.7-.7h-2.2Z"/>
          <path class="cls-5" d="M337.2,218c-.1,0-.2,0-.3-.1l-3.4-3.4c-.1-.1-.1-.4,0-.5s.4-.1.5,0l3.4,3.4c.1.1.1.4,0,.5s-.2.1-.3.1h0Z"/>
          <path class="cls-5" d="M337.8,218.1h-2.8c-.2,0-.4-.2-.4-.4s.2-.4.4-.4h2v-2c0-.2.2-.4.4-.4s.4.2.4.4v2.8h0Z"/>
        </g>
      </g>
      <g>
        <rect class="cls-5" x="66.5" y="185.4" width="203.7" height="144.9"/>
        <rect class="cls-9" x="80.5" y="197.2" width="179.7" height="119.3" rx="5.3" ry="5.3"/>
        <g>
          <path class="cls-7" d="M261.9,179H119.2v-8.3c0-5.9-4.6-10.6-10.2-10.6h-36.3c-5.6,0-10.2,4.7-10.2,10.6v149.9c0,8.3,6.5,15,14.5,15h185c8,0,14.5-6.7,14.5-15v-126.6c0-8.3-6.5-15-14.5-15h0ZM268.2,320.6c0,3.6-2.8,6.5-6.3,6.5H76.9c-3.5,0-6.3-2.9-6.3-6.5v-126.6c0-3.6,2.8-6.5,6.3-6.5h185c3.5,0,6.3,2.9,6.3,6.5v126.6Z"/>
          <g>
            <ellipse class="cls-13" cx="75.7" cy="172.1" rx="3.7" ry="3.8"/>
            <ellipse class="cls-8" cx="90.4" cy="172.1" rx="3.7" ry="3.8"/>
            <ellipse class="cls-11" cx="105.1" cy="172.1" rx="3.7" ry="3.8"/>
          </g>
        </g>
        <g>
          <path class="cls-5" d="M169.5,299.5c-2.9,0-5.7-.3-8.5-.9-2.7-.5-5.4-1.4-7.9-2.5-2.5-1.1-4.9-2.4-7.2-3.9-2.2-1.5-4.3-3.2-6.2-5.1s-3.6-4-5.1-6.2c-1.5-2.3-2.8-4.7-3.9-7.2-1.1-2.5-1.9-5.2-2.5-7.9-.6-2.8-.9-5.6-.9-8.5s.3-5.7.9-8.5c.6-2.7,1.4-5.4,2.5-7.9,1.1-2.5,2.4-4.9,3.9-7.2,1.5-2.2,3.2-4.3,5.1-6.2,1.9-1.9,4-3.6,6.2-5.1,2.3-1.5,4.7-2.8,7.2-3.9,2.6-1.1,5.2-1.9,7.9-2.5,2.8-.6,5.6-.9,8.5-.9s5.7.3,8.5.9c2.7.5,5.4,1.4,7.9,2.5,2.5,1.1,4.9,2.4,7.2,3.9,2.2,1.5,4.3,3.2,6.2,5.1s3.6,4,5.1,6.2c1.5,2.3,2.8,4.7,3.9,7.2,1.1,2.5,1.9,5.2,2.5,7.9.6,2.8.9,5.6.9,8.5s-.3,5.7-.9,8.5c-.5,2.7-1.4,5.4-2.5,7.9-1.1,2.5-2.4,4.9-3.9,7.2-1.5,2.2-3.2,4.3-5.1,6.2-1.9,1.9-4,3.6-6.2,5.1-2.3,1.5-4.7,2.8-7.2,3.9-2.5,1.1-5.2,1.9-7.9,2.5-2.8.6-5.6.9-8.5.9h0ZM169.5,222.5c-19.1,0-34.7,15.6-34.7,34.7s15.6,34.7,34.7,34.7,34.7-15.6,34.7-34.7-15.6-34.7-34.7-34.7Z"/>
          <path class="cls-5" d="M169.5,215.6c2.8,0,5.6.3,8.4.9,2.7.5,5.3,1.4,7.8,2.4,2.5,1,4.9,2.3,7.1,3.8,2.2,1.5,4.3,3.2,6.2,5.1,1.9,1.9,3.6,4,5.1,6.2,1.5,2.2,2.8,4.6,3.8,7.1,1.1,2.5,1.9,5.1,2.4,7.8.6,2.8.9,5.6.9,8.4s-.3,5.6-.9,8.4c-.5,2.7-1.4,5.3-2.4,7.8-1,2.5-2.3,4.9-3.8,7.1-1.5,2.2-3.2,4.3-5.1,6.2s-4,3.6-6.2,5.1c-2.2,1.5-4.6,2.8-7.1,3.8-2.5,1.1-5.1,1.9-7.8,2.4-2.8.6-5.6.9-8.4.9s-5.6-.3-8.4-.9c-2.7-.5-5.3-1.4-7.8-2.4-2.5-1-4.9-2.3-7.1-3.8-2.2-1.5-4.3-3.2-6.2-5.1-1.9-1.9-3.6-4-5.1-6.2-1.5-2.2-2.8-4.6-3.8-7.1-1.1-2.5-1.9-5.1-2.4-7.8-.6-2.8-.9-5.6-.9-8.4s.3-5.6.9-8.4c.6-2.7,1.4-5.3,2.4-7.8,1-2.5,2.3-4.9,3.8-7.1,1.5-2.2,3.2-4.3,5.1-6.2s4-3.6,6.2-5.1c2.2-1.5,4.6-2.8,7.1-3.8,2.5-1.1,5.1-1.9,7.8-2.4,2.8-.6,5.6-.9,8.4-.9M169.5,292.5c19.4,0,35.2-15.8,35.2-35.2s-15.8-35.2-35.2-35.2-35.2,15.8-35.2,35.2,15.8,35.2,35.2,35.2M169.5,214.6c-2.9,0-5.8.3-8.6.9-2.7.6-5.4,1.4-8,2.5-2.5,1.1-5,2.4-7.2,3.9-2.3,1.5-4.4,3.3-6.3,5.2s-3.7,4-5.2,6.3c-1.5,2.3-2.9,4.7-3.9,7.2-1.1,2.6-1.9,5.3-2.5,8-.6,2.8-.9,5.7-.9,8.6s.3,5.8.9,8.6c.6,2.7,1.4,5.4,2.5,8,1.1,2.5,2.4,5,3.9,7.2,1.5,2.3,3.3,4.4,5.2,6.3,1.9,1.9,4.1,3.7,6.3,5.2,2.3,1.5,4.7,2.9,7.2,3.9,2.6,1.1,5.3,1.9,8,2.5,2.8.6,5.7.9,8.6.9s5.8-.3,8.6-.9c2.7-.6,5.4-1.4,8-2.5,2.5-1.1,5-2.4,7.2-3.9,2.3-1.5,4.4-3.3,6.3-5.2s3.7-4,5.2-6.3c1.5-2.3,2.9-4.7,3.9-7.2,1.1-2.6,1.9-5.3,2.5-8,.6-2.8.9-5.7.9-8.6s-.3-5.8-.9-8.6c-.6-2.7-1.4-5.4-2.5-8-1.1-2.5-2.4-5-3.9-7.2-1.5-2.3-3.3-4.4-5.2-6.3s-4-3.7-6.3-5.2c-2.3-1.5-4.7-2.9-7.2-3.9-2.6-1.1-5.3-1.9-8-2.5-2.8-.6-5.7-.9-8.6-.9h0ZM169.5,291.5c-18.9,0-34.2-15.4-34.2-34.2s15.4-34.2,34.2-34.2,34.2,15.4,34.2,34.2-15.4,34.2-34.2,34.2h0Z"/>
        </g>
        <path class="cls-5" d="M193.2,259.3l-33.5,19.3c-1.6.9-3.5-.2-3.5-2v-38.6c0-1.8,1.9-2.9,3.5-2l33.5,19.3c1.6.9,1.6,3.1,0,4h0Z"/>
        <g>
          <rect class="cls-12" x="240.8" y="296.5" width="13.9" height="13.9" rx="2.2" ry="2.2"/>
          <g>
            <path class="cls-5" d="M253.3,304l-4.6,2.7c-.2.1-.5,0-.5-.3v-5.4c0-.2.3-.4.5-.3l4.6,2.7c.2.1.2.4,0,.6Z"/>
            <path class="cls-5" d="M248,304l-4.6,2.7c-.2.1-.5,0-.5-.3v-5.4c0-.2.3-.4.5-.3l4.6,2.7c.2.1.2.4,0,.6Z"/>
          </g>
        </g>
      </g>
      <g>
        <g>
          <line class="cls-3" x1="57.4" y1="109.9" x2="148.8" y2="109.9"/>
          <line class="cls-3" x1="57.4" y1="125.7" x2="148.8" y2="125.7"/>
          <line class="cls-3" x1="57.4" y1="141.4" x2="80.2" y2="141.4"/>
        </g>
        <g>
          <rect class="cls-6" x="51.8" y="101.4" width="13.9" height="13.9" rx="2.2" ry="2.2"/>
          <path class="cls-5" d="M56.2,110.7c.5.5.9,1.3,1.7.8l4.7-4.7c.6-.7-.2-1.6-.9-1.1l-4.2,4.2c-.2,0-1.4-1.5-1.6-1.6-.4-.2-1,0-1.1.5-.1.6,1.1,1.5,1.4,1.8h0Z"/>
        </g>
      </g>
      <g>
        <line class="cls-3" x1="35.1" y1="354.4" x2="164.8" y2="354.4"/>
        <line class="cls-3" x1="35.1" y1="370.2" x2="164.8" y2="370.2"/>
        <line class="cls-3" x1="35.1" y1="385.9" x2="164.8" y2="385.9"/>
      </g>
      <path class="cls-1" d="M318.6,17.3c.4,2,1.1,3.8,1.9,5.7.4.9,1.8,1.2,2.6.7,1.6-1.1,3.2-2,5-2.8.9-.4,1.9-.8,2.8-1.1.9-.3,2-.8,2.9-.8,1.8,0,3.7,1.4,5.3,2.1,1.9.8,4,1.4,6.1,1.3s3.6-.9,5.5-1.5c2.1-.6,4.2,0,6.2.3,4.3.8,8.7,1.2,13.1,1.2,5,0,10-.5,14.9-1.4,2.4-.5,1.4-4.1-1-3.6-8.6,1.7-17.6,1.8-26.2.2-2.3-.4-4.5-.9-6.8-.5-1.9.3-3.6,1.4-5.5,1.6-4.2.4-7.4-3-11.4-3.3-2.3-.2-4.8,1.1-6.8,2s-4.1,2-6,3.2l2.6.7c-.7-1.5-1.2-3.1-1.5-4.8-.5-2.4-4.1-1.4-3.6,1h0Z"/>
    </g>
  </g>
</svg>