<?xml version="1.0" encoding="UTF-8"?>
<svg xmlns="http://www.w3.org/2000/svg" version="1.1" viewBox="0 0 134.7 190.2">
  <defs>
    <style>
      .cls-1, .cls-2, .cls-3, .cls-4, .cls-5 {
        fill-rule: evenodd;
      }

      .cls-1, .cls-6 {
        fill: #205fa9;
      }

      .cls-2 {
        fill: #f3a3aa;
      }

      .cls-3 {
        fill: #f1959d;
      }

      .cls-7, .cls-4 {
        fill: #fff;
      }

      .cls-8 {
        fill: #f0f0f0;
      }

      .cls-5 {
        fill: #152841;
      }

      .cls-9 {
        fill: #ed727d;
      }
    </style>
  </defs>
  <!-- Generator: Adobe Illustrator 28.7.10, SVG Export Plug-In . SVG Version: 1.2.0 Build 236)  -->
  <g>
    <g id="Layer_1">
      <path class="cls-9" d="M8.2,187.8c-2.5,0-4.6-2.1-4.6-4.6V7C3.4,4.4-2.5,0,0,0h135.1c2.5,0-1.7,4.3-1.7,6.9v176.2c.1,2.5-1.9,4.6-4.5,4.6H8.2c0,0,0,.1,0,.1Z"/>
      <g>
        <path class="cls-1" d="M29.4,80.8c0-10.1,8.2-18.5,18.4-18.5,0,.3,0,18.5,0,18.5,0,0-18.4,0-18.4,0h0Z"/>
        <path class="cls-2" d="M66.1,62.4c0,10.1-8.2,18.5-18.4,18.5,0-.3,0-18.5,0-18.5,0,0,18.4,0,18.4,0h0Z"/>
        <path class="cls-5" d="M66.1,71.6c0-5.1,4.1-9.2,9.3-9.2s9.3,4.1,9.3,9.2-4.1,9.2-9.3,9.2-9.3-4.1-9.3-9.2h0Z"/>
        <path class="cls-2" d="M103.2,62.4c0,10.1-8.2,18.5-18.4,18.5,0-.3,0-18.5,0-18.5,0,0,18.4,0,18.4,0h0Z"/>
        <path class="cls-1" d="M103.3,99.2c-10.1,0-18.5-8.2-18.5-18.3.3,0,18.5,0,18.5,0,0,0,0,18.3,0,18.4h0Z"/>
        <path class="cls-2" d="M66.2,81c10.1,0,18.5,8.2,18.5,18.3-.3,0-18.5,0-18.5,0,0,0,0-18.3,0-18.4h0Z"/>
        <path class="cls-4" d="M66.1,81c0,10.1-8.2,18.5-18.4,18.5,0-.3,0-18.5,0-18.5,0,0,18.4,0,18.4,0h0Z"/>
        <path class="cls-3" d="M29.2,90.2c0-5.1,4.1-9.2,9.3-9.2s9.3,4.1,9.3,9.2-4.1,9.2-9.3,9.2-9.3-4.1-9.3-9.2h0Z"/>
        <path class="cls-3" d="M47.8,99.6c0,10.1-8.2,18.5-18.3,18.5,0-.3,0-18.5,0-18.5,0,0,18.3,0,18.4,0h0Z"/>
        <path class="cls-2" d="M47.7,117.8c0-10.2,8.3-18.4,18.5-18.4,0-.1,0,18-.1,18.1,0,0,.2,18.8.1,18.8-10.2,0-18.5-8.3-18.5-18.4h0Z"/>
        <path class="cls-4" d="M47.8,118.1c0,10.1-8.2,18.5-18.3,18.5,0-.3,0-18.4,0-18.4,0,0,18.3,0,18.4,0h0Z"/>
        <path class="cls-1" d="M66.1,127.1c0-5.1,4.1-9.2,9.3-9.2s9.3,4.1,9.3,9.2-4.1,9.2-9.3,9.2-9.3-4.1-9.3-9.2h0Z"/>
        <path class="cls-5" d="M66.1,117.9c0-10.1,8.2-18.5,18.4-18.5,0,.3,0,18.4,0,18.4,0,0-18.4,0-18.4,0h0Z"/>
        <path class="cls-4" d="M84.6,117.7c0-10.1,8.3-18.5,18.6-18.5,0,.3,0,18.5,0,18.5,0,0-18.6,0-18.6,0h0Z"/>
        <path class="cls-5" d="M103.1,136.1c-10.1,0-18.5-8.2-18.5-18.3.3,0,18.5,0,18.5,0,0,0,0,18.3,0,18.4h0Z"/>
      </g>
      <path class="cls-7" d="M89.6,173.4h33.1c.5,0,1-.5,1-1s-.4-1-1-1h-33.1c-.5,0-1,.5-1,1s.4,1,1,1Z"/>
      <path class="cls-7" d="M99,176.4h23.7c.5,0,1-.5,1-1s-.4-1-1-1h-23.7c-.5,0-1,.5-1,1s.4,1,1,1Z"/>
      <path class="cls-7" d="M36.8,173.6H13.1c-.5,0-1-.5-1-1s.4-1,1-1h23.7c.5,0,1,.5,1,1s-.4,1-1,1Z"/>
      <path class="cls-7" d="M23.6,170.6h-10.5c-.5,0-1-.5-1-1s.4-1,1-1h10.5c.5,0,1,.5,1,1s-.4,1-1,1Z"/>
      <path class="cls-7" d="M122.7,170.3h-20.3c-.5,0-1-.5-1-1s.4-1,1-1h20.3c.5,0,1,.5,1,1s-.4,1-1,1Z"/>
      <path class="cls-7" d="M34.1,176.7H13.1c-.5,0-1-.5-1-1s.4-1,1-1h21c.5,0,1,.5,1,1s-.4,1-1,1Z"/>
      <g>
        <path class="cls-7" d="M15.6,90c0-.3,0-.6,0-.8,0-.2.1-.5.2-.7.1-.2.3-.4.5-.6.2-.2.5-.4.8-.5.3-.2.5-.3.7-.4s.4-.2.5-.3c.1,0,.2-.2.3-.3s.1-.2.1-.3c0-.2,0-.4-.2-.5s-.4-.2-.7-.2-.3,0-.4,0c-.1,0-.3,0-.4.2-.1,0-.2.2-.3.2-.1,0-.2.2-.3.3l-.9-1c0,0,.2-.2.4-.3s.4-.2.6-.3.5-.2.7-.2.5,0,.8,0,.6,0,.9.1.5.2.7.3.3.3.4.5.1.4.1.7,0,.4-.1.6c0,.2-.2.3-.3.5-.1.1-.3.3-.4.4s-.3.2-.5.3c-.1,0-.3.1-.4.2-.1,0-.3.2-.5.3-.1,0-.3.2-.4.3s-.2.2-.3.3h3v1.2h-4.8,0Z"/>
        <path class="cls-7" d="M26.5,87.1c0,.4,0,.8-.2,1.2-.1.4-.3.7-.5,1-.2.3-.5.5-.8.6-.3.2-.7.2-1,.2s-.7,0-1-.2-.6-.4-.8-.6-.4-.6-.5-1c-.1-.4-.2-.8-.2-1.2s0-.8.2-1.2.3-.7.5-1c.2-.3.5-.5.8-.6.3-.2.7-.2,1-.2s.7,0,1,.2c.3.2.6.4.8.6s.4.6.5,1,.2.8.2,1.2ZM25.1,87.1c0-.3,0-.5,0-.7s-.1-.4-.2-.6-.2-.3-.4-.4c-.1,0-.3-.1-.5-.1s-.4,0-.5.1c-.1,0-.3.2-.4.4-.1.2-.2.3-.2.6,0,.2,0,.5,0,.7s0,.5,0,.7.1.4.2.6c.1.2.2.3.4.4.1,0,.3.1.5.1s.3,0,.5-.1c.1,0,.3-.2.4-.4.1-.2.2-.3.2-.6,0-.2,0-.5,0-.7Z"/>
        <path class="cls-7" d="M27.4,90c0-.3,0-.6,0-.8s.1-.5.2-.7.3-.4.5-.6c.2-.2.5-.4.8-.5.3-.2.5-.3.7-.4s.4-.2.5-.3.2-.2.3-.3.1-.2.1-.3c0-.2,0-.4-.2-.5s-.4-.2-.7-.2-.3,0-.4,0c-.1,0-.3,0-.4.2-.1,0-.2.2-.3.2-.1,0-.2.2-.3.3l-.9-1c0,0,.2-.2.4-.3s.4-.2.6-.3.5-.2.7-.2.5,0,.8,0,.6,0,.9.1.5.2.7.3.3.3.4.5.1.4.1.7,0,.4-.1.6c0,.2-.2.3-.3.5-.1.1-.3.3-.4.4-.2,0-.3.2-.5.3-.1,0-.3.1-.4.2-.1,0-.3.2-.5.3-.1,0-.3.2-.4.3s-.2.2-.3.3h3v1.2h-4.8,0Z"/>
        <path class="cls-7" d="M38.3,87.6c0,.3,0,.7-.2,1s-.3.6-.5.8-.5.4-.8.5c-.3.1-.7.2-1,.2s-.8,0-1.1-.2-.6-.4-.8-.6c-.2-.3-.4-.6-.5-1-.1-.4-.2-.9-.2-1.4s0-1.2.2-1.7c.1-.5.3-.9.5-1.2.2-.3.5-.6.9-.8.3-.2.7-.3,1.1-.3s.9,0,1.2.3c.4.2.7.5,1,.8l-.8.8c-.2-.2-.4-.4-.6-.6s-.5-.2-.8-.2c-.5,0-.8.2-1.1.5s-.4.8-.4,1.5c.1-.2.3-.4.6-.6.3-.1.5-.2.9-.2s.7,0,1,.2c.3.1.6.3.8.5s.4.5.5.8c.1.3.2.6.2.9h0ZM35.7,89c.2,0,.3,0,.5,0,.2,0,.3-.2.4-.3s.2-.3.3-.4c0-.2,0-.3,0-.5s0-.3,0-.5c0-.2-.2-.3-.3-.4s-.3-.2-.4-.3-.3,0-.5,0-.3,0-.5,0-.3.2-.4.3-.2.3-.3.4c0,.2,0,.3,0,.5s0,.3.1.5c0,.2.2.3.3.4.1.1.3.2.4.3s.3.1.5.1h0Z"/>
        <path class="cls-6" d="M22.4,102v-5.2l-2,3.8h-.8l-2-3.8v5.2h-1.5v-7.8h1.6l2.3,4.4,2.3-4.4h1.6v7.8s-1.5,0-1.5,0Z"/>
        <path class="cls-6" d="M26.9,102.1c-.3,0-.5,0-.8-.1s-.5-.2-.6-.4-.3-.4-.4-.6-.1-.5-.1-.7,0-.5.2-.8.3-.4.5-.6c.2-.2.5-.3.8-.4s.6-.1,1-.1.5,0,.8,0c.2,0,.5.1.6.2v-.3c0-.4-.1-.7-.3-.9-.2-.2-.5-.3-1-.3s-.6,0-.9.2c-.3.1-.6.3-.9.5l-.5-.9c.7-.5,1.5-.7,2.4-.7s1.5.2,1.9.6c.5.4.7,1,.7,1.8v1.8c0,.2,0,.3,0,.3s.1,0,.3.1v1.2c-.2,0-.5,0-.6,0-.3,0-.5,0-.6-.2s-.2-.3-.3-.5v-.3c-.3.3-.6.6-1,.8-.4.2-.8.3-1.2.3h0ZM27.3,101c.2,0,.5,0,.7-.1s.4-.2.5-.3c.2-.1.2-.3.2-.4v-.7c-.2,0-.4-.1-.6-.2-.2,0-.4,0-.6,0-.4,0-.7,0-.9.3-.2.2-.4.4-.4.7s0,.5.3.6c.2.2.4.2.7.2h0Z"/>
        <path class="cls-6" d="M35.1,97.5c-.5,0-.8,0-1.2.3-.3.2-.6.4-.8.7v3.5h-1.5v-5.8h1.4v1.2c0-.2.2-.4.4-.5.1-.2.3-.3.5-.4s.3-.2.5-.3c.2,0,.3,0,.5,0h.2s0,0,.1,0v1.3h0Z"/>
        <path class="cls-6" d="M39.8,102l-1.7-2.5-.8.8v1.7h-1.5v-8h1.5v4.9l2.3-2.6h1.6l-2.2,2.4,2.3,3.3h-1.6Z"/>
        <path class="cls-6" d="M44.4,102.1c-.5,0-.9,0-1.2-.2s-.7-.4-1-.6c-.3-.3-.5-.6-.6-.9s-.2-.7-.2-1.1,0-.8.2-1.2.3-.7.6-1c.3-.3.6-.5,1-.7.4-.2.8-.2,1.3-.2s.9,0,1.3.2c.4.2.7.4,1,.7.3.3.5.6.6.9s.2.7.2,1.1v.3c0,0,0,.2,0,.2h-4.5c0,.2,0,.4.2.6,0,.2.2.3.3.4.1.1.3.2.5.3s.4,0,.5,0c.3,0,.6,0,.8-.2.3-.1.4-.3.5-.6l1.3.3c-.2.4-.5.8-1,1.1s-1,.4-1.7.4h0ZM45.9,98.6c0-.4-.2-.8-.5-1s-.6-.4-1-.4-.4,0-.6,0c-.2,0-.3.2-.5.3-.1.1-.2.3-.3.4,0,.2-.1.4-.2.6h3Z"/>
        <path class="cls-6" d="M51.8,101.7c-.2,0-.4.2-.7.3-.3,0-.6.1-.9.1s-.4,0-.6,0-.3-.1-.5-.2c-.1-.1-.2-.3-.3-.4,0-.2-.1-.4-.1-.7v-3.3h-.8v-1.1h.8v-1.9h1.5v1.9h1.2v1.1h-1.2v2.8c0,.2,0,.3.2.4s.2.1.4.1.3,0,.5,0,.3,0,.3-.1c0,0,.3,1.2.3,1.2Z"/>
        <path class="cls-6" d="M52.5,95.4v-1.5h1.5v1.5h-1.5ZM52.5,102v-5.8h1.5v5.8h-1.5Z"/>
        <path class="cls-6" d="M60.7,102h-1.5v-3.2c0-.5,0-.8-.2-1s-.4-.3-.7-.3-.3,0-.5,0-.3.1-.4.2-.3.2-.4.4c-.1.2-.2.3-.2.5v3.4h-1.5v-5.8h1.3v1.1c.2-.4.5-.7.9-.9.4-.2.9-.3,1.4-.3s.7,0,.9.2.4.3.5.5.2.4.3.7c0,.3,0,.6,0,.8v3.6h0Z"/>
        <path class="cls-6" d="M64.2,102c-.4,0-.7,0-1.1-.2s-.6-.4-.8-.6-.4-.6-.5-.9-.2-.7-.2-1.1,0-.8.2-1.2.3-.7.5-.9c.2-.3.5-.5.8-.6.3-.2.7-.2,1.1-.2s.8,0,1.2.3c.3.2.6.5.8.8v-1h1.3v5.5c0,.4,0,.8-.2,1.1-.2.3-.4.6-.7.9-.3.2-.6.4-1,.5-.4.1-.8.2-1.3.2s-1.2,0-1.6-.3-.8-.5-1.1-.9l.8-.8c.2.3.5.5.8.6.3.2.7.2,1.1.2s.4,0,.7,0c.2,0,.4-.2.6-.3.2-.1.3-.3.4-.5s.1-.4.1-.7v-.7c-.2.3-.5.6-.8.8s-.7.3-1.1.3h0ZM64.7,100.9c.2,0,.3,0,.5,0,.2,0,.3-.1.4-.2.1,0,.2-.2.3-.3,0-.1.2-.2.2-.4v-1.4c-.1-.3-.3-.6-.6-.8-.3-.2-.6-.3-.9-.3s-.4,0-.6.2-.3.2-.5.4-.2.3-.3.6c0,.2,0,.4,0,.7s0,.4.1.7c0,.2.2.4.3.5.1.2.3.3.5.4.2,0,.4.1.6.1h0Z"/>
        <path class="cls-6" d="M16,114v-7.8h3.3c.4,0,.7,0,1,.2s.6.3.8.6c.2.2.4.5.5.8.1.3.2.6.2.9s0,.7-.2,1-.3.6-.5.8c-.2.2-.5.4-.8.6s-.6.2-1,.2h-1.9v2.6s-1.5,0-1.5,0ZM17.5,110.1h1.8c.3,0,.5-.1.7-.3.2-.2.3-.5.3-.9s0-.4,0-.5-.1-.3-.2-.4c-.1-.1-.2-.2-.3-.2-.1,0-.3,0-.4,0h-1.7v2.5h0Z"/>
        <path class="cls-6" d="M22.7,106h1.5v6.2c0,.2,0,.4.1.5s.2.2.4.2.2,0,.3,0,.2,0,.3-.1l.2,1.1c-.2,0-.4.2-.7.2s-.5,0-.7,0c-.5,0-.8-.1-1.1-.4s-.4-.6-.4-1.1v-6.7h0Z"/>
        <path class="cls-6" d="M27.8,114.1c-.3,0-.5,0-.8-.1s-.5-.2-.6-.4-.3-.4-.4-.6-.1-.5-.1-.7,0-.5.2-.8.3-.4.5-.6c.2-.2.5-.3.8-.4s.6-.1,1-.1.5,0,.8,0c.2,0,.5.1.6.2v-.3c0-.4-.1-.7-.3-.9-.2-.2-.5-.3-1-.3s-.6,0-.9.2c-.3.1-.6.3-.9.5l-.5-.9c.7-.5,1.5-.7,2.4-.7s1.5.2,1.9.6c.5.4.7,1,.7,1.8v1.8c0,.2,0,.3,0,.3s.1,0,.3.1v1.2c-.2,0-.5,0-.6,0-.3,0-.5,0-.6-.2s-.2-.3-.3-.5v-.3c-.3.3-.6.6-1,.8-.4.2-.8.3-1.2.3h0ZM28.2,113c.2,0,.5,0,.7-.1s.4-.2.5-.3c.2-.1.2-.3.2-.4v-.7c-.2,0-.4-.1-.6-.2-.2,0-.4,0-.6,0-.4,0-.7,0-.9.3-.2.2-.4.4-.4.7s0,.5.3.6c.2.2.4.2.7.2h0Z"/>
        <path class="cls-6" d="M37.9,114h-1.5v-3.2c0-.5,0-.8-.2-1s-.4-.3-.7-.3-.3,0-.5,0-.3.1-.4.2-.3.2-.4.4c-.1.2-.2.3-.2.5v3.4h-1.5v-5.8h1.3v1.1c.2-.4.5-.7.9-.9.4-.2.9-.3,1.4-.3s.7,0,.9.2.4.3.5.5.2.4.3.7c0,.3,0,.6,0,.8v3.6h0Z"/>
      </g>
      <path class="cls-8" d="M25.7,20.8c-.8,0-1.5-.7-1.5-1.5s.7-1.5,1.5-1.5h18.5c.8,0,1.5.6,1.5,1.5s-.7,1.5-1.5,1.5h-18.5Z"/>
      <path class="cls-8" d="M16.3,20.8c-.8,0-1.5-.7-1.5-1.5s.7-1.5,1.5-1.5h4.8c.8,0,1.5.6,1.5,1.5s-.7,1.5-1.5,1.5h-4.8Z"/>
      <path class="cls-6" d="M32.4,16.2h-16.2c-.6,0-1.1-.5-1.1-1.1s.5-1.1,1.1-1.1h16.2c.6,0,1.1.5,1.1,1.1s-.5,1.1-1.1,1.1Z"/>
    </g>
  </g>
</svg>