<?xml version="1.0" encoding="UTF-8"?>
<svg id="Layer_1" xmlns="http://www.w3.org/2000/svg" version="1.1" viewBox="0 0 134.74 190.23">
  <!-- Generator: Adobe Illustrator 29.8.1, SVG Export Plug-In . SVG Version: 2.1.1 Build 2)  -->
  <defs>
    <style>
      .st0 {
        font-size: 10px;
      }

      .st0, .st1 {
        fill: #fff;
      }

      .st2 {
        fill: #d9d9d9;
      }

      .st3 {
        fill: #f0f0f0;
      }

      .st4 {
        font-size: 11px;
      }

      .st4, .st5 {
        fill: #318370;
      }

      .st6 {
        fill: #f9c026;
      }

      .st7 {
        font-family: Raleway-Bold, Raleway;
        font-weight: 700;
      }
    </style>
  </defs>
  <path class="st1" d="M127.85,189.66l-120.77.09c-3.63,0-6.58-2.94-6.58-6.57L.37,7C.37,3.37,3.31.42,6.94.42l120.77-.09c3.63,0,6.58,2.94,6.58,6.57l.13,176.18c0,3.63-2.94,6.58-6.57,6.58"/>
  <path class="st6" d="M8.16,187.78c-2.54,0-4.61-2.06-4.61-4.61L3.42,6.99c0-2.54,2.07-4.61,4.61-4.61l120.77-.09c2.54,0,4.61,2.06,4.61,4.61l.12,176.17c0,2.54-2.06,4.61-4.61,4.61l-120.77.09Z"/>
  <path class="st2" d="M7.07,190.07c-3.8,0-6.9-3.09-6.9-6.9L.04,7C.04,3.19,3.14.09,6.94.09L127.71,0h0c1.84,0,3.57.72,4.88,2.02,1.31,1.3,2.02,3.04,2.03,4.88l.13,176.18c0,3.81-3.09,6.9-6.9,6.91l-120.77.09h0ZM127.72.66h0L6.94.74c-3.45,0-6.25,2.81-6.24,6.25l.13,176.18c0,3.44,2.81,6.24,6.25,6.24h0l120.77-.09c3.44,0,6.25-2.81,6.24-6.25l-.13-176.17c0-1.67-.65-3.24-1.83-4.42-1.18-1.18-2.75-1.83-4.41-1.83Z"/>
  <path class="st3" d="M25.73,20.81c-.81,0-1.47-.66-1.47-1.47s.66-1.47,1.47-1.47h18.5s0-.01,0-.01c.81,0,1.47.66,1.47,1.47s-.66,1.47-1.47,1.47h-18.5s0,.01,0,.01Z"/>
  <path class="st3" d="M16.29,20.82c-.81,0-1.47-.66-1.47-1.47,0-.81.66-1.48,1.47-1.48h4.75s0-.01,0-.01c.81,0,1.47.66,1.47,1.47,0,.81-.66,1.48-1.47,1.48h-4.75s0,.01,0,.01Z"/>
  <path class="st5" d="M91.97,46.66c-2.45,0-4.92-.2-7.41-.64-6.31-1.11-12.69-3.68-20.67-8.32-1.3-.75-2.61-1.54-3.88-2.31-6.02-3.62-12.24-7.37-19.11-8.67-7.57-1.43-15.48.28-21.52,1.93-5.14,1.4-10.27,3.13-15.23,5.13l-.08-.2c4.98-2.01,10.11-3.74,15.26-5.14,6.07-1.66,14.01-3.37,21.62-1.94,6.91,1.3,13.15,5.06,19.19,8.69,1.27.76,2.58,1.55,3.87,2.31,7.97,4.63,14.32,7.19,20.6,8.29,17.67,3.11,34.53-5.77,45.56-13.76l.13.18c-9.51,6.89-23.34,14.44-38.31,14.44Z"/>
  <path class="st5" d="M4.47,164.62l-.12-.18c17.08-11.16,33.84-20.62,49.81-28.1,14.49-6.79,33.72-14.79,53.94-16.4,1.74-.14,3.88-.1,4.93,1.41.84,1.21.55,2.83.16,4.25-1.01,3.66-2.45,7.26-3.84,10.74-1.99,4.97-4.05,10.12-4.85,15.48-.23,1.51-.7,6.54,2.68,8.03.92.4,2,.54,3.24.4,7.13-.78,11.14-2.33,16.68-4.47,1.06-.41,2.16-.83,3.35-1.28l.08.2c-1.19.45-2.28.87-3.34,1.28-5.56,2.15-9.58,3.7-16.74,4.48-1.27.14-2.4,0-3.35-.42-3.52-1.55-3.04-6.71-2.81-8.26.81-5.39,2.87-10.55,4.86-15.53,1.39-3.48,2.83-7.07,3.83-10.72.38-1.37.66-2.92-.13-4.06-.98-1.42-3.05-1.45-4.73-1.32-20.18,1.6-39.39,9.6-53.86,16.38-15.96,7.48-32.7,16.93-49.78,28.08Z"/>
  <g>
    <path class="st1" d="M40.21,146.69h0l-23.67-.02c-.54,0-.98-.44-.98-.98,0-.54.44-.98.98-.98h0l23.67.02c.54,0,.98.44.98.98,0,.54-.44.98-.98.98Z"/>
    <path class="st6" d="M34.29,141.94h0l-17.75-.02c-.54,0-.98-.44-.98-.98,0-.54.44-.98.98-.98h0l17.75.02c.54,0,.98.44.98.98,0,.54-.44.98-.98.98Z"/>
    <path class="st1" d="M40.21,149.75h0l-23.67-.02c-.54,0-.98-.44-.98-.98,0-.54.44-.98.98-.98h0l23.67.02c.54,0,.98.44.98.98,0,.54-.44.98-.98.98Z"/>
    <path class="st1" d="M31.13,152.8h-14.59c-.54-.01-.98-.45-.98-.99,0-.54.44-.98.98-.98h14.59c.54.01.98.45.98.99,0,.54-.44.98-.98.98Z"/>
    <path class="st1" d="M33.62,155.86h-17.08c-.54-.01-.98-.45-.98-.99s.44-.98.98-.98h17.08c.54.01.98.45.98.99s-.44.98-.98.98Z"/>
    <path class="st1" d="M40.21,168.95h0l-23.67-.02c-.54,0-.98-.44-.98-.98,0-.54.44-.98.98-.98h0l23.67.02c.54,0,.98.44.98.98,0,.54-.44.98-.98.98Z"/>
    <path class="st6" d="M27.03,164.2h0l-10.49-.02c-.54,0-.98-.44-.98-.98,0-.54.44-.98.98-.98h0l10.49.02c.54,0,.98.44.98.98,0,.54-.44.98-.98.98Z"/>
    <path class="st1" d="M37.53,172.01h0l-20.98-.02c-.54,0-.98-.44-.98-.98,0-.54.44-.98.98-.98h0l20.98.02c.54,0,.98.44.98.98,0,.54-.44.98-.98.98Z"/>
    <path class="st1" d="M76.34,168.95h0l-23.67-.02c-.54,0-.98-.44-.98-.98,0-.54.44-.98.98-.98h0l23.67.02c.54,0,.98.44.98.98,0,.54-.44.98-.98.98Z"/>
    <path class="st6" d="M63.16,164.2h0l-10.49-.02c-.54,0-.98-.44-.98-.98,0-.54.44-.98.98-.98h0l10.49.02c.54,0,.98.44.98.98,0,.54-.44.98-.98.98Z"/>
    <path class="st1" d="M73.65,172.01h0l-20.98-.02c-.54,0-.98-.44-.98-.98,0-.54.44-.98.98-.98h0l20.98.02c.54,0,.98.44.98.98,0,.54-.44.98-.98.98Z"/>
  </g>
  <g>
    <path class="st5" d="M11.37,79.46c-.11,0-.22-.04-.31-.13-.17-.17-.17-.45,0-.62l2.56-2.56-2.56-2.56c-.17-.17-.17-.45,0-.62s.45-.17.62,0l2.87,2.87c.17.17.17.45,0,.62l-2.87,2.87c-.09.09-.2.13-.31.13Z"/>
    <path class="st5" d="M7.49,79.46c-.11,0-.22-.04-.31-.13-.17-.17-.17-.45,0-.62l2.56-2.56-2.56-2.56c-.17-.17-.17-.45,0-.62s.45-.17.62,0l2.87,2.87c.08.08.13.19.13.31s-.05.23-.13.31l-2.87,2.87c-.09.09-.2.13-.31.13Z"/>
    <path class="st5" d="M3.58,79.46c-.11,0-.22-.04-.31-.13-.17-.17-.17-.45,0-.62l2.56-2.56-2.56-2.56c-.17-.17-.17-.45,0-.62s.45-.17.62,0l2.87,2.87c.17.17.17.45,0,.62l-2.87,2.87c-.09.09-.2.13-.31.13Z"/>
  </g>
  <g>
    <path class="st5" d="M111.51,86.31c-.45,0-.89-.17-1.23-.51l-6.78-6.78c-.68-.68-.68-1.78,0-2.46l6.78-6.78c.68-.68,1.78-.68,2.46,0,.68.68.68,1.78,0,2.46l-5.55,5.54,5.55,5.54c.68.68.68,1.78,0,2.46-.34.34-.79.51-1.23.51Z"/>
    <path class="st5" d="M120.68,86.31c-.45,0-.89-.17-1.23-.51l-6.78-6.78c-.68-.68-.68-1.78,0-2.46l6.78-6.78c.68-.68,1.78-.68,2.46,0,.68.68.68,1.78,0,2.46l-5.55,5.54,5.55,5.54c.68.68.68,1.78,0,2.46-.34.34-.79.51-1.23.51Z"/>
    <path class="st5" d="M129.92,86.31c-.45,0-.89-.17-1.23-.51l-6.78-6.78c-.68-.68-.68-1.78,0-2.46l6.78-6.78c.68-.68,1.78-.68,2.46,0,.68.68.68,1.78,0,2.46l-5.55,5.54,5.55,5.54c.68.68.68,1.78,0,2.46-.34.34-.79.51-1.23.51Z"/>
  </g>
  <path class="st1" d="M127.71,4.26c1.46,0,2.65,1.18,2.65,2.64l.13,176.18c0,1.46-1.18,2.65-2.64,2.65l-120.77.09c-1.46,0-2.65-1.18-2.65-2.64l-.12-176.18c0-1.46,1.18-2.65,2.64-2.65l120.77-.09ZM127.71.33L6.94.42C3.31.42.37,3.37.37,7l.12,176.18c0,3.63,2.95,6.57,6.58,6.57l120.77-.09c3.63,0,6.57-2.95,6.57-6.58l-.12-176.18c0-3.63-2.95-6.57-6.58-6.57"/>
  <text class="st7" transform="translate(15.21 90.01)"><tspan class="st0"><tspan x="0" y="0">2026</tspan></tspan><tspan class="st4"><tspan x="0" y="12">Business</tspan></tspan><tspan class="st4"><tspan x="0" y="24">Plan</tspan></tspan></text>
  <path class="st5" d="M32.37,16.19h0l-16.24-.02c-.61,0-1.1-.49-1.1-1.1,0-.61.49-1.1,1.1-1.1h0l16.24.02c.61,0,1.1.49,1.1,1.1,0,.61-.49,1.1-1.1,1.1Z"/>
</svg>