<?xml version="1.0" encoding="UTF-8"?>
<svg id="Layer_1" xmlns="http://www.w3.org/2000/svg" version="1.1" xmlns:xlink="http://www.w3.org/1999/xlink" viewBox="0 0 134.74 190.23">
  <!-- Generator: Adobe Illustrator 29.8.1, SVG Export Plug-In . SVG Version: 2.1.1 Build 2)  -->
  <defs>
    <style>
      .st0 {
        fill: #f2f2f2;
      }

      .st1 {
        fill: #d9d9d9;
      }

      .st2 {
        fill: #ed727d;
      }

      .st3 {
        fill: #f9c026;
      }

      .st4 {
        fill: #fff;
      }

      .st5 {
        fill: #f7c027;
      }

      .st6 {
        fill: none;
      }

      .st7 {
        fill: #318370;
      }

      .st8 {
        fill: #fef2d4;
      }

      .st9 {
        fill: #fceaec;
      }

      .st10 {
        fill: #2160a9;
      }

      .st11 {
        fill: #205fa9;
      }

      .st12 {
        fill: #e0edea;
      }
    </style>
    <clipPath id="clippath">
      <rect class="st6" x="-181.71" y="-25.67" width="185.81" height="242.03"/>
    </clipPath>
    <clipPath id="clippath-1">
      <rect class="st6" x="-181.71" y="-25.67" width="185.81" height="242.03"/>
    </clipPath>
  </defs>
  <g>
    <rect class="st4" x=".33" y=".46" width="133.86" height="189.3" rx="20.08" ry="20.08"/>
    <path class="st1" d="M127.61,190.09H6.9c-3.8,0-6.9-3.1-6.9-6.9V7.03C0,3.23,3.1.13,6.9.13h120.71c3.8,0,6.9,3.1,6.9,6.9v176.15c0,3.8-3.1,6.9-6.9,6.9ZM6.9.79C3.46.79.65,3.59.65,7.03v176.15c0,3.44,2.8,6.25,6.25,6.25h120.71c3.44,0,6.25-2.8,6.25-6.25V7.03c0-3.44-2.8-6.25-6.25-6.25H6.9Z"/>
  </g>
  <path class="st0" d="M118.83,20.34H30.78v-2.88c0-2.03-1.65-3.68-3.68-3.68h-13.09c-2.03,0-3.68,1.65-3.68,3.68v76.93c0,2.88,2.34,5.22,5.22,5.22h103.28c2.88,0,5.22-2.34,5.22-5.22V25.56c0-2.88-2.34-5.22-5.22-5.22ZM121.1,94.38c0,1.25-1.02,2.27-2.27,2.27H15.55c-1.25,0-2.27-1.02-2.27-2.27V25.56c0-1.25,1.02-2.27,2.27-2.27h103.28c1.25,0,2.27,1.02,2.27,2.27v68.82Z"/>
  <rect class="st4" x="61.21" y="106.33" width="66.22" height="48.22"/>
  <g>
    <path class="st0" d="M118.97,105.05h-46.71v-2.72c0-1.91-1.5-3.47-3.34-3.47h-11.89c-1.85,0-3.34,1.55-3.34,3.47v49.07c0,2.72,2.12,4.92,4.74,4.92h60.55c2.62,0,4.74-2.2,4.74-4.92v-41.43c0-2.72-2.12-4.92-4.74-4.92ZM121.04,151.4c0,1.18-.93,2.14-2.07,2.14h-60.55c-1.14,0-2.07-.96-2.07-2.14v-41.43c0-1.18.93-2.14,2.07-2.14h60.55c1.14,0,2.07.96,2.07,2.14v41.43Z"/>
    <g>
      <ellipse class="st2" cx="58.04" cy="102.82" rx="1.2" ry="1.25"/>
      <ellipse class="st3" cx="62.85" cy="102.82" rx="1.2" ry="1.25"/>
      <ellipse class="st7" cx="67.66" cy="102.82" rx="1.2" ry="1.25"/>
    </g>
  </g>
  <g>
    <g>
      <path class="st9" d="M93,126.04c-.3-.52-.69-.78-1.09-.78s-.79.26-1.09.78l-6.07,10.52c-.56-.97-2.61-4.51-2.61-4.51-.3-.52-.69-.78-1.09-.78s-.79.26-1.09.78c0,0-2.49,4.31-3.09,5.34l-.91,1.58c-.6,1.03-.11,1.88,1.09,1.88h22.32c1.19,0,1.68-.84,1.09-1.88l-7.47-12.93Z"/>
      <path class="st9" d="M82.14,127.08c1.67,0,3.02-1.35,3.02-3.02s-1.35-3.02-3.02-3.02-3.02,1.35-3.02,3.02,1.35,3.02,3.02,3.02Z"/>
      <path class="st9" d="M106.05,114.04h-35.66c-2.6,0-4.71,2.11-4.71,4.7v24.41c0,2.59,2.11,4.7,4.71,4.7h35.66c2.6,0,4.71-2.11,4.71-4.7v-24.41c0-2.59-2.11-4.7-4.71-4.7ZM107.95,143.15c0,1.04-.85,1.88-1.89,1.88h-35.66c-1.04,0-1.89-.85-1.89-1.88v-24.41c0-1.04.85-1.88,1.89-1.88h35.66c1.04,0,1.89.84,1.89,1.88v24.41Z"/>
    </g>
    <g>
      <rect class="st2" x="102" y="138.85" width="4.55" height="4.55" rx=".73" ry=".73"/>
      <g>
        <path class="st4" d="M104.2,142.68h-.83c-.36,0-.65-.29-.65-.65v-1.81c0-.36.29-.65.65-.65h1.81c.36,0,.65.29.65.65v.83h-.24v-.83c0-.22-.18-.4-.4-.4h-1.81c-.22,0-.4.18-.4.4v1.81c0,.22.18.4.4.4h.83v.24Z"/>
        <path class="st4" d="M105.64,143.05h-.72c-.26,0-.48-.21-.48-.48v-.72c0-.26.21-.48.48-.48h.72c.26,0,.48.21.48.48v.72c0,.26-.21.48-.48.48ZM104.92,141.62c-.13,0-.23.1-.23.23v.72c0,.13.1.23.23.23h.72c.13,0,.23-.1.23-.23v-.72c0-.13-.1-.23-.23-.23h-.72Z"/>
        <path class="st4" d="M104.39,141.4s-.06-.01-.09-.04l-1.1-1.1s-.05-.13,0-.17.13-.05.17,0l1.1,1.1s.05.13,0,.17c-.02.02-.06.04-.09.04Z"/>
        <path class="st4" d="M104.56,141.44h-.92c-.07,0-.12-.05-.12-.12s.05-.12.12-.12h.67v-.67c0-.07.05-.12.12-.12s.12.05.12.12v.92Z"/>
      </g>
    </g>
  </g>
  <rect class="st4" x="61.85" y="36.35" width="66.22" height="48.22"/>
  <g>
    <path class="st0" d="M125.32,35.07h-46.71v-2.72c0-1.91-1.5-3.47-3.34-3.47h-11.89c-1.85,0-3.34,1.55-3.34,3.47v49.07c0,2.72,2.12,4.92,4.74,4.92h60.55c2.62,0,4.74-2.2,4.74-4.92v-41.43c0-2.72-2.12-4.92-4.74-4.92ZM127.38,81.42c0,1.18-.93,2.14-2.07,2.14h-60.55c-1.14,0-2.07-.96-2.07-2.14v-41.43c0-1.18.93-2.14,2.07-2.14h60.55c1.14,0,2.07.96,2.07,2.14v41.43Z"/>
    <g>
      <ellipse class="st2" cx="64.39" cy="32.83" rx="1.2" ry="1.25"/>
      <ellipse class="st3" cx="69.2" cy="32.83" rx="1.2" ry="1.25"/>
      <ellipse class="st7" cx="74.01" cy="32.83" rx="1.2" ry="1.25"/>
    </g>
  </g>
  <g>
    <path class="st12" d="M99.17,55.92c-.3-.52-.69-.78-1.09-.78s-.79.26-1.09.78l-6.07,10.52c-.56-.97-2.61-4.51-2.61-4.51-.3-.52-.69-.78-1.09-.78s-.79.26-1.09.78c0,0-2.49,4.31-3.09,5.34l-.91,1.58c-.6,1.03-.11,1.88,1.09,1.88h22.32c1.19,0,1.68-.84,1.09-1.88l-7.47-12.93Z"/>
    <path class="st12" d="M88.31,56.96c1.67,0,3.02-1.35,3.02-3.02s-1.35-3.02-3.02-3.02-3.02,1.35-3.02,3.02,1.35,3.02,3.02,3.02Z"/>
    <path class="st12" d="M112.23,43.92h-35.66c-2.6,0-4.71,2.11-4.71,4.7v24.41c0,2.59,2.11,4.7,4.71,4.7h35.66c2.6,0,4.71-2.11,4.71-4.7v-24.41c0-2.59-2.11-4.7-4.71-4.7ZM114.12,73.03c0,1.04-.85,1.88-1.89,1.88h-35.66c-1.04,0-1.89-.85-1.89-1.88v-24.41c0-1.04.85-1.88,1.89-1.88h35.66c1.04,0,1.89.84,1.89,1.88v24.41Z"/>
  </g>
  <g>
    <rect class="st7" x="108.24" y="69.32" width="4.55" height="4.55" rx=".73" ry=".73"/>
    <g>
      <path class="st4" d="M110.44,73.14h-.83c-.36,0-.65-.29-.65-.65v-1.81c0-.36.29-.65.65-.65h1.81c.36,0,.65.29.65.65v.83h-.24v-.83c0-.22-.18-.4-.4-.4h-1.81c-.22,0-.4.18-.4.4v1.81c0,.22.18.4.4.4h.83v.24Z"/>
      <path class="st4" d="M111.89,73.51h-.72c-.26,0-.48-.21-.48-.48v-.72c0-.26.21-.48.48-.48h.72c.26,0,.48.21.48.48v.72c0,.26-.21.48-.48.48ZM111.17,72.08c-.13,0-.23.1-.23.23v.72c0,.13.1.23.23.23h.72c.13,0,.23-.1.23-.23v-.72c0-.13-.1-.23-.23-.23h-.72Z"/>
      <path class="st4" d="M110.64,71.86s-.06-.01-.09-.04l-1.1-1.1s-.05-.13,0-.17.13-.05.17,0l1.1,1.1s.05.13,0,.17c-.02.02-.06.04-.09.04Z"/>
      <path class="st4" d="M110.8,71.9h-.92c-.07,0-.12-.05-.12-.12s.05-.12.12-.12h.67v-.67c0-.07.05-.12.12-.12s.12.05.12.12v.92Z"/>
    </g>
  </g>
  <g>
    <rect class="st4" x="22.01" y="61.2" width="66.7" height="47.44"/>
    <rect class="st8" x="26.59" y="65.07" width="58.81" height="39.06" rx="5.33" ry="5.33"/>
    <g>
      <path class="st0" d="M85.96,59.09h-46.71v-2.72c0-1.91-1.5-3.47-3.34-3.47h-11.89c-1.85,0-3.34,1.55-3.34,3.47v49.07c0,2.72,2.12,4.92,4.74,4.92h60.55c2.62,0,4.74-2.2,4.74-4.92v-41.43c0-2.72-2.12-4.92-4.74-4.92ZM88.03,105.44c0,1.18-.93,2.14-2.07,2.14H25.42c-1.14,0-2.07-.96-2.07-2.14v-41.43c0-1.18.93-2.14,2.07-2.14h60.55c1.14,0,2.07.96,2.07,2.14v41.43Z"/>
      <g>
        <ellipse class="st2" cx="25.03" cy="56.86" rx="1.2" ry="1.25"/>
        <ellipse class="st3" cx="29.84" cy="56.86" rx="1.2" ry="1.25"/>
        <ellipse class="st7" cx="34.65" cy="56.86" rx="1.2" ry="1.25"/>
      </g>
    </g>
    <g>
      <path class="st4" d="M55.72,98.37c-.93,0-1.85-.09-2.75-.28-.88-.18-1.74-.45-2.56-.8-.81-.34-1.59-.77-2.32-1.26-.72-.49-1.4-1.05-2.02-1.67-.62-.62-1.18-1.3-1.67-2.02-.49-.73-.92-1.51-1.26-2.32-.35-.82-.62-1.69-.8-2.56-.18-.9-.28-1.82-.28-2.75s.09-1.85.28-2.75c.18-.88.45-1.74.8-2.56.34-.81.77-1.59,1.26-2.32.49-.72,1.05-1.4,1.67-2.02.62-.62,1.3-1.18,2.02-1.67.73-.49,1.51-.92,2.32-1.26.82-.35,1.69-.62,2.56-.8.9-.18,1.82-.28,2.75-.28s1.85.09,2.75.28c.88.18,1.74.45,2.56.8.81.34,1.59.77,2.32,1.26.72.49,1.4,1.05,2.02,1.67.62.62,1.18,1.3,1.67,2.02.49.73.92,1.51,1.26,2.32.35.82.62,1.69.8,2.56.18.9.28,1.82.28,2.75s-.09,1.85-.28,2.75c-.18.88-.45,1.74-.8,2.56-.34.81-.77,1.59-1.26,2.32-.49.72-1.05,1.4-1.67,2.02-.62.62-1.3,1.18-2.02,1.67-.73.49-1.51.92-2.32,1.26-.82.35-1.69.62-2.56.8-.9.18-1.82.28-2.75.28ZM55.72,73.19c-6.36,0-11.53,5.17-11.53,11.53s5.17,11.53,11.53,11.53,11.53-5.17,11.53-11.53-5.17-11.53-11.53-11.53Z"/>
      <path class="st4" d="M55.72,71.08c.93,0,1.85.09,2.75.28.88.18,1.74.45,2.56.8.81.34,1.59.77,2.32,1.26.72.49,1.4,1.05,2.02,1.67.62.62,1.18,1.3,1.67,2.02.49.73.92,1.51,1.26,2.32.35.82.62,1.69.8,2.56.18.9.28,1.82.28,2.75s-.09,1.85-.28,2.75c-.18.88-.45,1.74-.8,2.56-.34.81-.77,1.59-1.26,2.32-.49.72-1.05,1.4-1.67,2.02s-1.3,1.18-2.02,1.67c-.73.49-1.51.92-2.32,1.26-.82.35-1.69.62-2.56.8-.9.18-1.82.28-2.75.28s-1.85-.09-2.75-.28c-.88-.18-1.74-.45-2.56-.8-.81-.34-1.59-.77-2.32-1.26-.72-.49-1.4-1.05-2.02-1.67-.62-.62-1.18-1.3-1.67-2.02-.49-.73-.92-1.51-1.26-2.32-.35-.82-.62-1.69-.8-2.56-.18-.9-.28-1.82-.28-2.75s.09-1.85.28-2.75c.18-.88.45-1.74.8-2.56.34-.81.77-1.59,1.26-2.32.49-.72,1.05-1.4,1.67-2.02.62-.62,1.3-1.18,2.02-1.67.73-.49,1.51-.92,2.32-1.26.82-.35,1.69-.62,2.56-.8.9-.18,1.82-.28,2.75-.28M55.72,96.26c6.36,0,11.53-5.17,11.53-11.53s-5.17-11.53-11.53-11.53-11.53,5.17-11.53,11.53,5.17,11.53,11.53,11.53M55.72,70.75c-.95,0-1.89.1-2.81.28-.9.18-1.78.46-2.62.81-.83.35-1.63.78-2.37,1.29-.74.5-1.43,1.07-2.07,1.71-.63.63-1.21,1.33-1.71,2.07-.5.75-.94,1.55-1.29,2.37-.36.84-.63,1.73-.81,2.62-.19.92-.28,1.87-.28,2.81s.1,1.89.28,2.81c.18.9.46,1.78.81,2.62.35.83.78,1.63,1.29,2.37.5.74,1.07,1.43,1.71,2.07.63.63,1.33,1.21,2.07,1.71.75.5,1.55.94,2.37,1.29.84.36,1.73.63,2.62.81.92.19,1.87.28,2.81.28s1.89-.1,2.81-.28c.9-.18,1.78-.46,2.62-.81.83-.35,1.63-.78,2.37-1.29.74-.5,1.43-1.07,2.07-1.71.63-.63,1.21-1.33,1.71-2.07.5-.75.94-1.55,1.29-2.37.36-.84.63-1.73.81-2.62.19-.92.28-1.87.28-2.81s-.1-1.89-.28-2.81c-.18-.9-.46-1.78-.81-2.62-.35-.83-.78-1.63-1.29-2.37-.5-.74-1.07-1.43-1.71-2.07s-1.33-1.21-2.07-1.71c-.75-.5-1.55-.94-2.37-1.29-.84-.36-1.73-.63-2.62-.81-.92-.19-1.87-.28-2.81-.28h0ZM55.72,95.93c-6.18,0-11.21-5.03-11.21-11.21s5.03-11.21,11.21-11.21,11.21,5.03,11.21,11.21-5.03,11.21-11.21,11.21h0Z"/>
    </g>
    <path class="st4" d="M63.49,85.39l-10.95,6.32c-.51.29-1.15-.07-1.15-.66v-12.65c0-.59.64-.96,1.15-.66l10.95,6.32c.51.29.51,1.03,0,1.32Z"/>
    <g>
      <rect class="st11" x="79.06" y="97.57" width="4.55" height="4.55" rx=".73" ry=".73"/>
      <g>
        <path class="st4" d="M83.17,100.02l-1.52.88c-.07.04-.16-.01-.16-.09v-1.75c0-.08.09-.13.16-.09l1.52.88c.07.04.07.14,0,.18Z"/>
        <path class="st4" d="M81.44,100.02l-1.52.88c-.07.04-.16-.01-.16-.09v-1.75c0-.08.09-.13.16-.09l1.52.88c.07.04.07.14,0,.18Z"/>
      </g>
    </g>
  </g>
  <g>
    <g>
      <path class="st0" d="M48.96,37.97h-29.91c-.81,0-1.47-.66-1.47-1.47s.66-1.47,1.47-1.47h29.91c.81,0,1.47.66,1.47,1.47s-.66,1.47-1.47,1.47Z"/>
      <path class="st0" d="M48.96,43.12h-29.91c-.81,0-1.47-.66-1.47-1.47s.66-1.47,1.47-1.47h29.91c.81,0,1.47.66,1.47,1.47s-.66,1.47-1.47,1.47Z"/>
      <path class="st0" d="M26.48,48.28h-7.44c-.81,0-1.47-.66-1.47-1.47s.66-1.47,1.47-1.47h7.44c.81,0,1.47.66,1.47,1.47s-.66,1.47-1.47,1.47Z"/>
    </g>
    <g>
      <rect class="st10" x="17.21" y="33.71" width="4.55" height="4.55" rx=".73" ry=".73"/>
      <path class="st4" d="M18.64,36.75c.16.15.3.43.57.25l1.54-1.53c.18-.23-.07-.53-.31-.35l-1.38,1.38c-.06,0-.46-.48-.54-.52-.14-.06-.32.02-.35.18-.03.19.35.48.47.6Z"/>
    </g>
  </g>
  <g>
    <path class="st0" d="M48.21,117.99H11.52c-.7,0-1.27-.66-1.27-1.47s.57-1.47,1.27-1.47h36.69c.7,0,1.27.66,1.27,1.47s-.57,1.47-1.27,1.47Z"/>
    <path class="st0" d="M48.21,123.15H11.52c-.7,0-1.27-.66-1.27-1.47s.57-1.47,1.27-1.47h36.69c.7,0,1.27.66,1.27,1.47s-.57,1.47-1.27,1.47Z"/>
    <path class="st0" d="M48.21,128.31H11.52c-.7,0-1.27-.66-1.27-1.47s.57-1.47,1.27-1.47h36.69c.7,0,1.27.66,1.27,1.47s-.57,1.47-1.27,1.47Z"/>
  </g>
  <g>
    <path class="st0" d="M120.36,168.8H13.94c-2.04,0-3.69-.66-3.69-1.47s1.65-1.47,3.69-1.47h106.41c2.04,0,3.69.66,3.69,1.47s-1.65,1.47-3.69,1.47Z"/>
    <path class="st0" d="M120.36,173.96H13.94c-2.04,0-3.69-.66-3.69-1.47s1.65-1.47,3.69-1.47h106.41c2.04,0,3.69.66,3.69,1.47s-1.65,1.47-3.69,1.47Z"/>
    <path class="st0" d="M120.36,179.12H13.94c-2.04,0-3.69-.66-3.69-1.47s1.65-1.47,3.69-1.47h106.41c2.04,0,3.69.66,3.69,1.47s-1.65,1.47-3.69,1.47Z"/>
  </g>
  <path class="st5" d="M104.54,6.18c.14.65.36,1.26.63,1.86.13.29.59.39.84.22.52-.35,1.06-.66,1.63-.92.3-.14.61-.26.92-.37.28-.1.64-.27.94-.26.59.02,1.21.45,1.75.67.63.26,1.31.46,2,.43s1.19-.31,1.8-.49c.68-.2,1.37-.03,2.05.1,1.41.26,2.84.39,4.28.4,1.63,0,3.26-.15,4.87-.46.77-.15.45-1.34-.33-1.18-2.81.55-5.75.58-8.56.05-.74-.14-1.48-.3-2.24-.17-.62.1-1.17.47-1.8.53-1.37.13-2.42-.99-3.73-1.09-.74-.05-1.57.36-2.24.65s-1.34.64-1.96,1.06l.84.22c-.23-.5-.39-1.03-.51-1.57-.17-.77-1.35-.45-1.18.33h0Z"/>
</svg>