<?xml version="1.0" encoding="UTF-8"?>
<svg id="Layer_1" xmlns="http://www.w3.org/2000/svg" version="1.1" viewBox="0 0 567.46 739.14">
  <!-- Generator: Adobe Illustrator 29.8.1, SVG Export Plug-In . SVG Version: 2.1.1 Build 2)  -->
  <defs>
    <style>
      .st0 {
        stroke: #f2f2f2;
      }

      .st0, .st1, .st2, .st3, .st4, .st5, .st6, .st7 {
        stroke-miterlimit: 10;
      }

      .st0, .st1, .st3 {
        stroke-linecap: round;
      }

      .st0, .st1, .st3, .st4, .st6 {
        fill: none;
      }

      .st0, .st3 {
        stroke-width: 9px;
      }

      .st8 {
        fill: #fdf1f2;
      }

      .st1 {
        stroke: #f5f5f5;
        stroke-width: 1.5px;
      }

      .st9, .st7 {
        fill: #fff;
      }

      .st10, .st11 {
        fill: #205fa9;
      }

      .st10, .st12, .st13 {
        opacity: .2;
      }

      .st2 {
        fill: #d2dfee;
        stroke: #d2dfee;
      }

      .st2, .st5, .st7 {
        stroke-width: 8px;
      }

      .st14, .st12 {
        fill: #318370;
      }

      .st15 {
        fill: #2160a9;
      }

      .st3, .st4, .st7 {
        stroke: #fff;
      }

      .st4, .st6 {
        stroke-width: 2px;
      }

      .st16 {
        fill: #ededed;
      }

      .st17 {
        fill: #f5f5f5;
      }

      .st5 {
        fill: #fbe3e5;
        stroke: #fbe3e5;
      }

      .st6 {
        stroke: #ededed;
      }

      .st13 {
        fill: #ed727d;
      }
    </style>
  </defs>
  <rect class="st9" x="83.57" y="79.86" width="408.92" height="578.28" rx="20.08" ry="20.08"/>
  <path class="st17" d="M492.24,130.08v-30.14c0-11.09-8.99-20.08-20.08-20.08H103.4c-11.09,0-20.08,8.99-20.08,20.08v30.14h408.92Z"/>
  <path class="st7" d="M172.96,130.68v-16.12c0-4.42,3.59-8.01,8.01-8.01h39.96c4.42,0,8.01,3.59,8.01,8.01v16.12"/>
  <rect class="st9" x="190.89" y="104.47" width="20.86" height="48.15" transform="translate(72.77 329.87) rotate(-90)"/>
  <path class="st2" d="M237.26,129.68v-15.12c0-4.42,3.59-8.01,8.01-8.01h39.96c4.42,0,8.01,3.59,8.01,8.01v15.12"/>
  <path class="st5" d="M108.67,129.68v-15.12c0-4.42,3.59-8.01,8.01-8.01h39.96c4.42,0,8.01,3.59,8.01,8.01v15.12"/>
  <path class="st9" d="M135.43,119.91l-2.6,1.89c-.36.26-.83-.09-.7-.51l.99-3.06c.06-.19,0-.39-.16-.51l-2.6-1.89c-.36-.26-.17-.82.27-.82h3.22c.2,0,.37-.13.43-.31l.99-3.06c.14-.42.73-.42.86,0l.99,3.06c.06.19.24.31.43.31h3.22c.44,0,.62.56.27.82l-2.6,1.89c-.16.12-.23.32-.16.51l.99,3.06c.14.42-.34.77-.7.51l-2.6-1.89c-.16-.12-.37-.12-.53,0Z"/>
  <path class="st11" d="M194,120.13l-2.6,1.89c-.36.26-.83-.09-.7-.51l.99-3.06c.06-.19,0-.39-.16-.51l-2.6-1.89c-.36-.26-.17-.82.27-.82h3.22c.2,0,.37-.13.43-.31l.99-3.06c.14-.42.73-.42.86,0l.99,3.06c.06.19.24.31.43.31h3.22c.44,0,.62.56.27.82l-2.6,1.89c-.16.12-.23.32-.16.51l.99,3.06c.14.42-.34.77-.7.51l-2.6-1.89c-.16-.12-.37-.12-.53,0Z"/>
  <path class="st11" d="M207.37,120.13l-2.6,1.89c-.36.26-.83-.09-.7-.51l.99-3.06c.06-.19,0-.39-.16-.51l-2.6-1.89c-.36-.26-.17-.82.27-.82h3.22c.2,0,.37-.13.43-.31l.99-3.06c.14-.42.73-.42.86,0l.99,3.06c.06.19.24.31.43.31h3.22c.44,0,.62.56.27.82l-2.6,1.89c-.16.12-.23.32-.16.51l.99,3.06c.14.42-.34.77-.7.51l-2.6-1.89c-.16-.12-.37-.12-.53,0Z"/>
  <path class="st11" d="M251.86,119.91l-2.6,1.89c-.36.26-.83-.09-.7-.51l.99-3.06c.06-.19,0-.39-.16-.51l-2.6-1.89c-.36-.26-.17-.82.27-.82h3.22c.2,0,.37-.13.43-.31l.99-3.06c.14-.42.73-.42.86,0l.99,3.06c.06.19.24.31.43.31h3.22c.44,0,.62.56.27.82l-2.6,1.89c-.16.12-.23.32-.16.51l.99,3.06c.14.42-.34.77-.7.51l-2.6-1.89c-.16-.12-.37-.12-.53,0Z"/>
  <path class="st11" d="M265.21,119.91l-2.6,1.89c-.36.26-.83-.09-.7-.51l.99-3.06c.06-.19,0-.39-.16-.51l-2.6-1.89c-.36-.26-.17-.82.27-.82h3.22c.2,0,.37-.13.43-.31l.99-3.06c.14-.42.73-.42.86,0l.99,3.06c.06.19.24.31.43.31h3.22c.44,0,.62.56.27.82l-2.6,1.89c-.16.12-.23.32-.16.51l.99,3.06c.14.42-.34.77-.7.51l-2.6-1.89c-.16-.12-.37-.12-.53,0Z"/>
  <path class="st11" d="M278.58,119.91l-2.6,1.89c-.36.26-.83-.09-.7-.51l.99-3.06c.06-.19,0-.39-.16-.51l-2.6-1.89c-.36-.26-.17-.82.27-.82h3.22c.2,0,.37-.13.43-.31l.99-3.06c.14-.42.73-.42.86,0l.99,3.06c.06.19.24.31.43.31h3.22c.44,0,.62.56.27.82l-2.6,1.89c-.16.12-.23.32-.16.51l.99,3.06c.14.42-.34.77-.7.51l-2.6-1.89c-.16-.12-.37-.12-.53,0Z"/>
  <g>
    <line class="st0" x1="112.31" y1="210.09" x2="190.82" y2="210.09"/>
    <line class="st0" x1="112.31" y1="225.84" x2="190.82" y2="225.84"/>
    <line class="st0" x1="112.31" y1="241.6" x2="169.12" y2="241.6"/>
  </g>
  <g>
    <rect class="st15" x="108.62" y="204.06" width="13.89" height="13.89" rx="2.22" ry="2.22"/>
    <g>
      <line class="st1" x1="115.56" y1="206.99" x2="115.56" y2="215.02"/>
      <line class="st1" x1="111.55" y1="211.01" x2="119.58" y2="211.01"/>
    </g>
  </g>
  <g>
    <line class="st0" x1="390.33" y1="419.21" x2="468.83" y2="419.21"/>
    <line class="st0" x1="390.33" y1="434.96" x2="468.83" y2="434.96"/>
    <line class="st0" x1="390.33" y1="450.72" x2="447.13" y2="450.72"/>
  </g>
  <g>
    <rect class="st15" x="386.63" y="413.19" width="13.89" height="13.89" rx="2.22" ry="2.22"/>
    <g>
      <line class="st1" x1="393.58" y1="416.11" x2="393.58" y2="424.15"/>
      <line class="st1" x1="389.56" y1="420.13" x2="397.59" y2="420.13"/>
    </g>
  </g>
  <g>
    <line class="st0" x1="113.69" y1="419.21" x2="192.19" y2="419.21"/>
    <line class="st0" x1="113.69" y1="434.96" x2="192.19" y2="434.96"/>
    <line class="st0" x1="113.69" y1="450.72" x2="170.49" y2="450.72"/>
  </g>
  <g>
    <rect class="st15" x="109.99" y="413.19" width="13.89" height="13.89" rx="2.22" ry="2.22"/>
    <g>
      <line class="st1" x1="116.94" y1="416.11" x2="116.94" y2="424.15"/>
      <line class="st1" x1="112.92" y1="420.13" x2="120.95" y2="420.13"/>
    </g>
  </g>
  <g>
    <circle class="st10" cx="289.9" cy="232.61" r="69.99"/>
    <circle class="st12" cx="239.24" cy="320.47" r="69.99"/>
    <path class="st17" d="M222.77,252.44c8.56,28.99,35.36,50.16,67.12,50.16,5.67,0,11.18-.69,16.47-1.97-8.56-28.99-35.36-50.16-67.12-50.16-5.67,0-11.18.69-16.47,1.97Z"/>
    <circle class="st13" cx="338.22" cy="320.47" r="69.99"/>
    <path class="st8" d="M271.26,300.07c5.94,1.64,12.18,2.53,18.64,2.53,31.56,0,58.23-20.89,66.96-49.59-5.94-1.64-12.18-2.53-18.64-2.53-31.56,0-58.23,20.89-66.96,49.59Z"/>
    <path class="st16" d="M268.23,320.47c0,19.33,7.83,36.83,20.5,49.49,12.67-12.67,20.5-30.16,20.5-49.49s-7.83-36.83-20.5-49.49c-12.67,12.67-20.5,30.16-20.5,49.49Z"/>
    <path class="st9" d="M306.36,300.64c-3.35-11.35-9.48-21.5-17.62-29.65-.16.16-.32.32-.48.48-.34.34-.66.69-.99,1.04-.37.4-.75.79-1.11,1.19-.31.34-.6.69-.9,1.04-.68.79-1.35,1.6-2,2.42-.26.33-.53.66-.78,1-.36.47-.7.95-1.04,1.42-.25.34-.49.69-.73,1.03-.34.49-.67.98-1,1.48-.22.34-.44.69-.66,1.03-.33.52-.65,1.03-.97,1.56-.18.3-.35.61-.52.91-.71,1.22-1.38,2.47-2.01,3.74-.06.13-.13.26-.2.39-.29.58-.55,1.18-.82,1.77-.15.34-.31.67-.46,1.01-.25.58-.49,1.16-.73,1.75-.15.36-.29.72-.43,1.08-.23.59-.45,1.19-.67,1.79-.12.35-.24.7-.35,1.05-.21.63-.43,1.26-.62,1.9,5.94,1.64,12.18,2.53,18.64,2.53,5.67,0,11.19-.69,16.47-1.96Z"/>
    <g>
      <line class="st3" x1="191.77" y1="324.92" x2="252.53" y2="324.92"/>
      <line class="st3" x1="191.77" y1="340.67" x2="229.08" y2="340.67"/>
    </g>
    <g>
      <line class="st3" x1="259.28" y1="221.53" x2="322.85" y2="221.53"/>
      <line class="st3" x1="259.28" y1="237.28" x2="299.39" y2="237.28"/>
    </g>
    <path class="st14" d="M210.55,298.71h-4.55l-1.46,5.9h4.52v2.25h-5.06l-1.66,6.66h-2.48l1.7-6.66h-5.71l-1.66,6.66h-2.48l1.7-6.66h-3.84v-2.25h4.38l1.46-5.9h-4.35v-2.12h4.89l1.63-6.59h2.48l-1.66,6.59h5.71l1.63-6.59h2.48l-1.67,6.59h4.01v2.12ZM202.09,304.61l1.46-5.9h-5.71l-1.46,5.9h5.71Z"/>
    <path class="st11" d="M276.07,195.11h-4.55l-1.46,5.9h4.52v2.25h-5.06l-1.66,6.66h-2.48l1.7-6.66h-5.71l-1.66,6.66h-2.48l1.7-6.66h-3.84v-2.25h4.38l1.46-5.9h-4.35v-2.12h4.89l1.63-6.59h2.48l-1.66,6.59h5.71l1.63-6.59h2.48l-1.67,6.59h4.01v2.12ZM267.61,201.01l1.46-5.9h-5.71l-1.46,5.9h5.71Z"/>
    <g>
      <line class="st3" x1="322.31" y1="325.56" x2="385.88" y2="325.56"/>
      <line class="st3" x1="322.31" y1="341.32" x2="362.43" y2="341.32"/>
    </g>
  </g>
  <line class="st6" x1="243.68" y1="263.78" x2="108.07" y2="263.78"/>
  <line class="st4" x1="243.68" y1="263.78" x2="198.21" y2="263.78"/>
  <line class="st6" x1="289.09" y1="340.63" x2="289.19" y2="422.7"/>
  <line class="st4" x1="289.09" y1="340.63" x2="289.09" y2="370.66"/>
  <line class="st6" x1="376.34" y1="421.79" x2="288.81" y2="421.79"/>
</svg>