<?xml version="1.0" encoding="UTF-8"?>
<svg id="Layer_1" xmlns="http://www.w3.org/2000/svg" version="1.1" viewBox="0 0 134.74 190.23">
  <!-- Generator: Adobe Illustrator 29.8.1, SVG Export Plug-In . SVG Version: 2.1.1 Build 2)  -->
  <defs>
    <style>
      .st0 {
        fill: #fdf1f2;
      }

      .st1 {
        fill: #f2f2f2;
      }

      .st2 {
        fill: #d9d9d9;
      }

      .st3, .st4 {
        fill: #ed727d;
      }

      .st5 {
        fill: #fff;
      }

      .st6, .st7, .st8, .st9, .st4 {
        opacity: .2;
      }

      .st6, .st10 {
        fill: #205fa9;
      }

      .st11 {
        fill: #fbe3e5;
      }

      .st7 {
        fill: #f9c026;
      }

      .st12, .st8 {
        fill: #318370;
      }

      .st13 {
        fill: #2160a9;
      }

      .st14 {
        fill: #d2dfee;
      }

      .st15 {
        fill: #ededed;
      }

      .st16 {
        fill: #f5f5f5;
      }

      .st9 {
        fill: #828282;
      }
    </style>
  </defs>
  <path class="st16" d="M134.36,17.02V7.13c0-3.64-2.95-6.59-6.59-6.59H6.66C3.02.53.06,3.48.06,7.13v9.9h134.3Z"/>
  <g>
    <path class="st5" d="M29.5,17.22v-5.29c0-1.45,1.18-2.63,2.63-2.63h13.12c1.45,0,2.63,1.18,2.63,2.63v5.29"/>
    <path class="st5" d="M49.2,17.22h-2.63v-5.29c0-.73-.59-1.32-1.32-1.32h-13.12c-.73,0-1.32.59-1.32,1.32v5.29h-2.63v-5.29c0-2.18,1.77-3.94,3.94-3.94h13.12c2.18,0,3.94,1.77,3.94,3.94v5.29Z"/>
  </g>
  <rect class="st5" x="35.39" y="8.61" width="6.85" height="15.81" transform="translate(22.3 55.34) rotate(-90)"/>
  <g>
    <path class="st14" d="M50.62,16.89v-4.96c0-1.45,1.18-2.63,2.63-2.63h13.12c1.45,0,2.63,1.18,2.63,2.63v4.96"/>
    <path class="st14" d="M70.32,16.89h-2.63v-4.96c0-.73-.59-1.32-1.32-1.32h-13.12c-.73,0-1.32.59-1.32,1.32v4.96h-2.63v-4.96c0-2.18,1.77-3.94,3.94-3.94h13.12c2.18,0,3.94,1.77,3.94,3.94v4.96Z"/>
  </g>
  <g>
    <path class="st11" d="M8.39,16.89v-4.96c0-1.45,1.18-2.63,2.63-2.63h13.12c1.45,0,2.63,1.18,2.63,2.63v4.96"/>
    <path class="st11" d="M28.09,16.89h-2.63v-4.96c0-.73-.59-1.32-1.32-1.32h-13.12c-.73,0-1.32.59-1.32,1.32v4.96h-2.63v-4.96c0-2.18,1.77-3.94,3.94-3.94h13.12c2.18,0,3.94,1.77,3.94,3.94v4.96Z"/>
  </g>
  <path class="st5" d="M17.18,13.68l-.86.62c-.12.08-.27-.03-.23-.17l.33-1.01c.02-.06,0-.13-.05-.17l-.86-.62c-.12-.08-.06-.27.09-.27h1.06c.06,0,.12-.04.14-.1l.33-1.01c.04-.14.24-.14.28,0l.33,1.01c.02.06.08.1.14.1h1.06c.14,0,.2.18.09.27l-.86.62c-.05.04-.07.11-.05.17l.33,1.01c.04.14-.11.25-.23.17l-.86-.62c-.05-.04-.12-.04-.18,0Z"/>
  <path class="st10" d="M36.41,13.76l-.86.62c-.12.08-.27-.03-.23-.17l.33-1.01c.02-.06,0-.13-.05-.17l-.86-.62c-.12-.08-.06-.27.09-.27h1.06c.06,0,.12-.04.14-.1l.33-1.01c.04-.14.24-.14.28,0l.33,1.01c.02.06.08.1.14.1h1.06c.14,0,.2.18.09.27l-.86.62c-.05.04-.07.11-.05.17l.33,1.01c.04.14-.11.25-.23.17l-.86-.62c-.05-.04-.12-.04-.18,0Z"/>
  <path class="st10" d="M40.8,13.76l-.86.62c-.12.08-.27-.03-.23-.17l.33-1.01c.02-.06,0-.13-.05-.17l-.86-.62c-.12-.08-.06-.27.09-.27h1.06c.06,0,.12-.04.14-.1l.33-1.01c.04-.14.24-.14.28,0l.33,1.01c.02.06.08.1.14.1h1.06c.14,0,.2.18.09.27l-.86.62c-.05.04-.07.11-.05.17l.33,1.01c.04.14-.11.25-.23.17l-.86-.62c-.05-.04-.12-.04-.18,0Z"/>
  <path class="st10" d="M55.41,13.68l-.86.62c-.12.08-.27-.03-.23-.17l.33-1.01c.02-.06,0-.13-.05-.17l-.86-.62c-.12-.08-.06-.27.09-.27h1.06c.06,0,.12-.04.14-.1l.33-1.01c.04-.14.24-.14.28,0l.33,1.01c.02.06.08.1.14.1h1.06c.14,0,.2.18.09.27l-.86.62c-.05.04-.07.11-.05.17l.33,1.01c.04.14-.11.25-.23.17l-.86-.62c-.05-.04-.12-.04-.18,0Z"/>
  <path class="st10" d="M59.8,13.68l-.86.62c-.12.08-.27-.03-.23-.17l.33-1.01c.02-.06,0-.13-.05-.17l-.86-.62c-.12-.08-.06-.27.09-.27h1.06c.06,0,.12-.04.14-.1l.33-1.01c.04-.14.24-.14.28,0l.33,1.01c.02.06.08.1.14.1h1.06c.14,0,.2.18.09.27l-.86.62c-.05.04-.07.11-.05.17l.33,1.01c.04.14-.11.25-.23.17l-.86-.62c-.05-.04-.12-.04-.18,0Z"/>
  <path class="st10" d="M64.19,13.68l-.86.62c-.12.08-.27-.03-.23-.17l.33-1.01c.02-.06,0-.13-.05-.17l-.86-.62c-.12-.08-.06-.27.09-.27h1.06c.06,0,.12-.04.14-.1l.33-1.01c.04-.14.24-.14.28,0l.33,1.01c.02.06.08.1.14.1h1.06c.14,0,.2.18.09.27l-.86.62c-.05.04-.07.11-.05.17l.33,1.01c.04.14-.11.25-.23.17l-.86-.62c-.05-.04-.12-.04-.18,0Z"/>
  <g>
    <path class="st1" d="M35.37,96.61H9.58c-.82,0-1.48-.66-1.48-1.48s.66-1.48,1.48-1.48h25.78c.82,0,1.48.66,1.48,1.48s-.66,1.48-1.48,1.48Z"/>
    <path class="st1" d="M35.37,101.79H9.58c-.82,0-1.48-.66-1.48-1.48s.66-1.48,1.48-1.48h25.78c.82,0,1.48.66,1.48,1.48s-.66,1.48-1.48,1.48Z"/>
    <path class="st1" d="M28.24,106.96H9.58c-.82,0-1.48-.66-1.48-1.48s.66-1.48,1.48-1.48h18.66c.82,0,1.48.66,1.48,1.48s-.66,1.48-1.48,1.48Z"/>
  </g>
  <g>
    <rect class="st13" x="8.37" y="93.16" width="4.56" height="4.56" rx=".73" ry=".73"/>
    <g>
      <path class="st16" d="M10.65,97c-.14,0-.25-.11-.25-.25v-2.64c0-.14.11-.25.25-.25s.25.11.25.25v2.64c0,.14-.11.25-.25.25Z"/>
      <path class="st16" d="M11.97,95.68h-2.64c-.14,0-.25-.11-.25-.25s.11-.25.25-.25h2.64c.14,0,.25.11.25.25s-.11.25-.25.25Z"/>
    </g>
  </g>
  <g>
    <path class="st1" d="M126.67,165.29h-25.78c-.82,0-1.48-.66-1.48-1.48s.66-1.48,1.48-1.48h25.78c.82,0,1.48.66,1.48,1.48s-.66,1.48-1.48,1.48Z"/>
    <path class="st1" d="M126.67,170.47h-25.78c-.82,0-1.48-.66-1.48-1.48s.66-1.48,1.48-1.48h25.78c.82,0,1.48.66,1.48,1.48s-.66,1.48-1.48,1.48Z"/>
    <path class="st1" d="M119.55,175.64h-18.66c-.82,0-1.48-.66-1.48-1.48s.66-1.48,1.48-1.48h18.66c.82,0,1.48.66,1.48,1.48s-.66,1.48-1.48,1.48Z"/>
  </g>
  <g>
    <rect class="st13" x="99.68" y="161.84" width="4.56" height="4.56" rx=".73" ry=".73"/>
    <g>
      <path class="st16" d="M101.96,165.68c-.14,0-.25-.11-.25-.25v-2.64c0-.14.11-.25.25-.25s.25.11.25.25v2.64c0,.14-.11.25-.25.25Z"/>
      <path class="st16" d="M103.28,164.36h-2.64c-.14,0-.25-.11-.25-.25s.11-.25.25-.25h2.64c.14,0,.25.11.25.25s-.11.25-.25.25Z"/>
    </g>
  </g>
  <g>
    <path class="st1" d="M35.82,165.29H10.04c-.82,0-1.48-.66-1.48-1.48s.66-1.48,1.48-1.48h25.78c.82,0,1.48.66,1.48,1.48s-.66,1.48-1.48,1.48Z"/>
    <path class="st1" d="M35.82,170.47H10.04c-.82,0-1.48-.66-1.48-1.48s.66-1.48,1.48-1.48h25.78c.82,0,1.48.66,1.48,1.48s-.66,1.48-1.48,1.48Z"/>
    <path class="st1" d="M28.69,175.64H10.04c-.82,0-1.48-.66-1.48-1.48s.66-1.48,1.48-1.48h18.66c.82,0,1.48.66,1.48,1.48s-.66,1.48-1.48,1.48Z"/>
  </g>
  <g>
    <rect class="st13" x="8.82" y="161.84" width="4.56" height="4.56" rx=".73" ry=".73"/>
    <g>
      <path class="st16" d="M11.1,165.68c-.14,0-.25-.11-.25-.25v-2.64c0-.14.11-.25.25-.25s.25.11.25.25v2.64c0,.14-.11.25-.25.25Z"/>
      <path class="st16" d="M12.42,164.36h-2.64c-.14,0-.25-.11-.25-.25s.11-.25.25-.25h2.64c.14,0,.25.11.25.25s-.11.25-.25.25Z"/>
    </g>
  </g>
  <g>
    <circle class="st6" cx="67.91" cy="102.53" r="22.99"/>
    <circle class="st8" cx="51.27" cy="131.39" r="22.99"/>
    <path class="st16" d="M45.86,109.04c2.81,9.52,11.61,16.47,22.04,16.47,1.86,0,3.67-.23,5.41-.65-2.81-9.52-11.61-16.47-22.04-16.47-1.86,0-3.67.23-5.41.65Z"/>
    <circle class="st4" cx="83.78" cy="131.39" r="22.99"/>
    <path class="st0" d="M61.79,124.69c1.95.54,4,.83,6.12.83,10.36,0,19.12-6.86,21.99-16.29-1.95-.54-4-.83-6.12-.83-10.36,0-19.12,6.86-21.99,16.29Z"/>
    <path class="st15" d="M60.79,131.39c0,6.35,2.57,12.09,6.73,16.25,4.16-4.16,6.73-9.91,6.73-16.25s-2.57-12.09-6.73-16.25c-4.16,4.16-6.73,9.91-6.73,16.25Z"/>
    <path class="st5" d="M73.31,124.87c-1.1-3.73-3.11-7.06-5.79-9.74-.05.05-.11.1-.16.16-.11.11-.22.23-.33.34-.12.13-.25.26-.37.39-.1.11-.2.23-.29.34-.22.26-.44.53-.66.8-.09.11-.17.22-.26.33-.12.15-.23.31-.34.47-.08.11-.16.23-.24.34-.11.16-.22.32-.33.49-.07.11-.15.23-.22.34-.11.17-.21.34-.32.51-.06.1-.11.2-.17.3-.23.4-.45.81-.66,1.23-.02.04-.04.08-.07.13-.09.19-.18.39-.27.58-.05.11-.1.22-.15.33-.08.19-.16.38-.24.58-.05.12-.09.24-.14.35-.08.19-.15.39-.22.59-.04.11-.08.23-.12.34-.07.21-.14.41-.2.62,1.95.54,4,.83,6.12.83,1.86,0,3.67-.23,5.41-.64Z"/>
    <g>
      <path class="st5" d="M55.64,134.32h-19.96c-.82,0-1.48-.66-1.48-1.48s.66-1.48,1.48-1.48h19.96c.82,0,1.48.66,1.48,1.48s-.66,1.48-1.48,1.48Z"/>
      <path class="st5" d="M47.93,139.5h-12.25c-.82,0-1.48-.66-1.48-1.48s.66-1.48,1.48-1.48h12.25c.82,0,1.48.66,1.48,1.48s-.66,1.48-1.48,1.48Z"/>
    </g>
    <g>
      <path class="st5" d="M78.73,100.37h-20.88c-.82,0-1.48-.66-1.48-1.48s.66-1.48,1.48-1.48h20.88c.82,0,1.48.66,1.48,1.48s-.66,1.48-1.48,1.48Z"/>
      <path class="st5" d="M71.03,105.54h-13.17c-.82,0-1.48-.66-1.48-1.48s.66-1.48,1.48-1.48h13.17c.82,0,1.48.66,1.48,1.48s-.66,1.48-1.48,1.48Z"/>
    </g>
    <path class="st12" d="M41.85,124.24h-1.49l-.48,1.94h1.48v.74h-1.66l-.55,2.19h-.81l.56-2.19h-1.87l-.55,2.19h-.81l.56-2.19h-1.26v-.74h1.44l.48-1.94h-1.43v-.7h1.61l.54-2.17h.81l-.55,2.17h1.87l.54-2.17h.81l-.55,2.17h1.32v.7ZM39.07,126.18l.48-1.94h-1.87l-.48,1.94h1.87Z"/>
    <path class="st10" d="M63.36,90.21h-1.49l-.48,1.94h1.48v.74h-1.66l-.55,2.19h-.81l.56-2.19h-1.87l-.55,2.19h-.81l.56-2.19h-1.26v-.74h1.44l.48-1.94h-1.43v-.7h1.61l.54-2.17h.81l-.55,2.17h1.87l.54-2.17h.81l-.55,2.17h1.32v.7ZM60.59,92.15l.48-1.94h-1.87l-.48,1.94h1.87Z"/>
    <g>
      <path class="st5" d="M99.43,134.54h-20.88c-.82,0-1.48-.66-1.48-1.48s.66-1.48,1.48-1.48h20.88c.82,0,1.48.66,1.48,1.48s-.66,1.48-1.48,1.48Z"/>
      <path class="st5" d="M91.73,139.71h-13.17c-.82,0-1.48-.66-1.48-1.48s.66-1.48,1.48-1.48h13.17c.82,0,1.48.66,1.48,1.48s-.66,1.48-1.48,1.48Z"/>
    </g>
  </g>
  <rect class="st15" x="8.19" y="112.44" width="44.54" height=".66"/>
  <rect class="st5" x="37.79" y="112.44" width="14.93" height=".66"/>
  <rect class="st15" x="67.33" y="138.01" width=".66" height="26.95" transform="translate(-.18 .08) rotate(-.07)"/>
  <rect class="st5" x="67.31" y="138.01" width=".66" height="9.86"/>
  <rect class="st15" x="67.55" y="164.33" width="28.75" height=".66"/>
  <g>
    <path class="st1" d="M122.03,32.8h-25.78c-.82,0-1.48-.66-1.48-1.48s.66-1.48,1.48-1.48h25.78c.82,0,1.48.66,1.48,1.48s-.66,1.48-1.48,1.48Z"/>
    <path class="st1" d="M122.03,37.97h-25.78c-.82,0-1.48-.66-1.48-1.48s.66-1.48,1.48-1.48h25.78c.82,0,1.48.66,1.48,1.48s-.66,1.48-1.48,1.48Z"/>
    <path class="st1" d="M114.9,43.14h-18.66c-.82,0-1.48-.66-1.48-1.48s.66-1.48,1.48-1.48h18.66c.82,0,1.48.66,1.48,1.48s-.66,1.48-1.48,1.48Z"/>
  </g>
  <rect class="st15" x="34.88" y="51.8" width="92" height=".66"/>
  <path class="st2" d="M127.83,189.94H6.91c-3.81,0-6.91-3.09-6.91-6.88V7.32C0,3.52,3.1.43,6.91.43h120.92c3.81,0,6.91,3.09,6.91,6.88v175.74c0,3.8-3.1,6.88-6.91,6.88ZM6.91,1.09C3.46,1.09.66,3.88.66,7.32v175.74c0,3.44,2.81,6.23,6.26,6.23h120.92c3.45,0,6.26-2.8,6.26-6.23V7.32c0-3.44-2.81-6.23-6.26-6.23H6.91Z"/>
  <circle class="st7" cx="32.78" cy="40.67" r="11.81"/>
  <circle class="st4" cx="24.23" cy="55.5" r="11.81"/>
  <path class="st16" d="M21.46,44.02c1.44,4.89,5.97,8.46,11.33,8.46.96,0,1.89-.12,2.78-.33-1.44-4.89-5.97-8.46-11.33-8.46-.96,0-1.89.12-2.78.33Z"/>
  <circle class="st9" cx="40.94" cy="55.5" r="11.81"/>
  <path class="st3" d="M29.64,52.06c1,.28,2.06.43,3.14.43,5.33,0,9.83-3.52,11.3-8.37-1-.28-2.06-.43-3.14-.43-5.33,0-9.83,3.52-11.3,8.37Z"/>
  <path class="st10" d="M29.13,55.5c0,3.26,1.32,6.21,3.46,8.35,2.14-2.14,3.46-5.09,3.46-8.35s-1.32-6.21-3.46-8.35c-2.14,2.14-3.46,5.09-3.46,8.35Z"/>
  <path class="st5" d="M35.56,52.15c-.56-1.91-1.6-3.63-2.97-5-.03.03-.05.05-.08.08-.06.06-.11.12-.17.18-.06.07-.13.13-.19.2-.05.06-.1.12-.15.17-.12.13-.23.27-.34.41-.04.06-.09.11-.13.17-.06.08-.12.16-.18.24-.04.06-.08.12-.12.17-.06.08-.11.17-.17.25-.04.06-.07.12-.11.17-.06.09-.11.17-.16.26-.03.05-.06.1-.09.15-.12.21-.23.42-.34.63-.01.02-.02.04-.03.07-.05.1-.09.2-.14.3-.03.06-.05.11-.08.17-.04.1-.08.2-.12.3-.02.06-.05.12-.07.18-.04.1-.08.2-.11.3-.02.06-.04.12-.06.18-.04.11-.07.21-.1.32,1,.28,2.06.43,3.14.43.96,0,1.89-.12,2.78-.33Z"/>
  <rect class="st5" x="34.88" y="51.8" width="17.55" height=".66"/>
</svg>