<?xml version="1.0" encoding="UTF-8"?>
<svg xmlns="http://www.w3.org/2000/svg" version="1.1" viewBox="0 0 134.7 190.2">
  <defs>
    <style>
      .cls-1 {
        fill: #dd767e;
      }

      .cls-2 {
        fill: #fff;
      }

      .cls-3 {
        fill: #f0f0f0;
      }

      .cls-4 {
        fill: #f9c026;
      }

      .cls-5 {
        fill: #dd4053;
      }

      .cls-6 {
        fill: #034442;
      }
    </style>
  </defs>
  <!-- Generator: Adobe Illustrator 28.7.10, SVG Export Plug-In . SVG Version: 1.2.0 Build 236)  -->
  <g>
    <g id="Layer_1">
      <g>
        <path class="cls-2" d="M128.1,190.1H6.7c-3.6,0-6.6-2.9-6.6-6.5V6.7C0,3.1,3,0,6.6,0h121.4c3.6,0,6.6,2.9,6.6,6.5v176.9c.1,3.6-2.8,6.6-6.5,6.6"/>
        <path class="cls-1" d="M7.8,188.3c-2.6,0-4.6-2.1-4.6-4.6V6.7c-.1-2.6,1.9-4.6,4.5-4.6h121.4c2.6,0,4.6,2,4.6,4.5v176.9c.1,2.6-1.9,4.6-4.5,4.6H7.8c0,0,0,.1,0,.1Z"/>
        <path class="cls-3" d="M25.5,18.6c-.8,0-1.5-.7-1.5-1.5s.7-1.5,1.5-1.5h18.6c.8,0,1.5.7,1.5,1.5s-.7,1.5-1.5,1.5h-18.6Z"/>
        <path class="cls-3" d="M16,18.6c-.8,0-1.5-.7-1.5-1.5s.7-1.5,1.5-1.5h4.8c.8,0,1.5.7,1.5,1.5s-.7,1.5-1.5,1.5h-4.8Z"/>
        <path class="cls-6" d="M92.1,46.5c-2.5,0-4.9-.2-7.4-.6-6.3-1.1-12.8-3.7-20.8-8.4-1.3-.8-2.6-1.5-3.9-2.3-6.1-3.6-12.3-7.4-19.2-8.7-7.6-1.4-15.6.3-21.6,1.9-5.2,1.4-10.3,3.1-15.3,5.2v-.2c4.9-2,10.1-3.8,15.3-5.2,6.1-1.7,14.1-3.4,21.7-1.9,6.9,1.3,13.2,5.1,19.3,8.7,1.3.8,2.6,1.6,3.9,2.3,8,4.6,14.4,7.2,20.7,8.3,17.8,3.1,34.7-5.8,45.8-13.8v.2c-9.4,6.9-23.3,14.5-38.4,14.5h0Z"/>
        <path class="cls-6" d="M4.1,165v-.2c17-11.2,33.9-20.7,49.9-28.2,14.6-6.8,33.9-14.9,54.2-16.5,1.7-.1,3.9-.1,5,1.4.8,1.2.6,2.8.2,4.3-1,3.7-2.5,7.3-3.9,10.8-2,5-4.1,10.2-4.9,15.5-.2,1.5-.7,6.6,2.7,8.1.9.4,2,.5,3.3.4,7.2-.8,11.2-2.3,16.8-4.5,1.1-.4,2.2-.8,3.4-1.3v.2c-1.1.5-2.2.9-3.3,1.3-5.6,2.2-9.6,3.7-16.8,4.5-1.3.1-2.4,0-3.4-.4-3.5-1.6-3.1-6.7-2.8-8.3.8-5.4,2.9-10.6,4.9-15.6,1.4-3.5,2.8-7.1,3.8-10.8.4-1.4.7-2.9-.1-4.1-1-1.4-3.1-1.5-4.8-1.3-20.3,1.6-39.6,9.6-54.1,16.5-16,7.5-32.9,17-50,28.2h0Z"/>
        <g>
          <path class="cls-2" d="M40,147h-23.8c-.5,0-1-.5-1-1s.4-1,1-1h23.8c.5,0,1,.5,1,1s-.4,1-1,1Z"/>
          <path class="cls-4" d="M34.1,142.2h-17.8c-.5,0-1-.5-1-1s.4-1,1-1h17.8c.5,0,1,.5,1,1s-.4,1-1,1Z"/>
          <path class="cls-2" d="M40,150.1h-23.8c-.5,0-1-.5-1-1s.4-1,1-1h23.8c.5,0,1,.5,1,1s-.4,1-1,1Z"/>
          <path class="cls-2" d="M30.9,153.1h-14.7c-.5,0-1-.5-1-1s.4-1,1-1h14.7c.5,0,1,.5,1,1s-.4,1-1,1Z"/>
          <path class="cls-2" d="M33.4,156.2h-17.2c-.5,0-1-.5-1-1s.4-1,1-1h17.2c.5,0,1,.5,1,1s-.4,1-1,1Z"/>
          <path class="cls-2" d="M40,169.3h-23.8c-.5,0-1-.5-1-1s.4-1,1-1h23.8c.5,0,1,.5,1,1s-.4,1-1,1Z"/>
          <path class="cls-4" d="M26.8,164.6h-10.5c-.5,0-1-.5-1-1s.4-1,1-1h10.5c.5,0,1,.5,1,1s-.4,1-1,1Z"/>
          <path class="cls-2" d="M37.4,172.4h-21.1c-.5,0-1-.5-1-1s.4-1,1-1h21.1c.5,0,1,.5,1,1s-.4,1-1,1Z"/>
          <path class="cls-2" d="M76.4,169.3h-23.8c-.5,0-1-.5-1-1s.4-1,1-1h23.8c.5,0,1,.5,1,1s-.4,1-1,1Z"/>
          <path class="cls-4" d="M63.1,164.6h-10.5c-.5,0-1-.5-1-1s.4-1,1-1h10.5c.5,0,1,.5,1,1s-.4,1-1,1Z"/>
          <path class="cls-2" d="M73.7,172.4h-21.1c-.5,0-1-.5-1-1s.4-1,1-1h21.1c.5,0,1,.5,1,1s-.4,1-1,1Z"/>
        </g>
        <g>
          <path class="cls-4" d="M11.1,83.2c-.1,0-.2,0-.3-.1-.2-.2-.2-.5,0-.6l2.6-2.6-2.6-2.6c-.2-.2-.2-.5,0-.6s.5-.2.6,0l2.9,2.9c.2.2.2.5,0,.6l-2.9,2.9c0,0-.2.1-.3.1Z"/>
          <path class="cls-4" d="M7.2,83.2c-.1,0-.2,0-.3-.1-.2-.2-.2-.5,0-.6l2.6-2.6-2.6-2.6c-.2-.2-.2-.5,0-.6s.5-.2.6,0l2.9,2.9c0,0,.1.2.1.3s0,.2-.1.3l-2.9,2.9c0,0-.2.1-.3.1Z"/>
          <path class="cls-4" d="M3.2,83.2c-.1,0-.2,0-.3-.1-.2-.2-.2-.5,0-.6l2.6-2.6-2.6-2.6c-.2-.2-.2-.5,0-.6s.5-.2.6,0l2.9,2.9c.2.2.2.5,0,.6l-2.9,2.9c0,0-.2.1-.3.1Z"/>
        </g>
        <g>
          <path class="cls-5" d="M111.7,103.5c-.5,0-.9-.2-1.2-.5l-6.8-6.8c-.7-.7-.7-1.8,0-2.5l6.8-6.8c.7-.7,1.8-.7,2.5,0s.7,1.8,0,2.5l-5.6,5.6,5.6,5.6c.7.7.7,1.8,0,2.5s-.8.5-1.2.5h0Z"/>
          <path class="cls-5" d="M120.9,103.5c-.5,0-.9-.2-1.2-.5l-6.8-6.8c-.7-.7-.7-1.8,0-2.5l6.8-6.8c.7-.7,1.8-.7,2.5,0s.7,1.8,0,2.5l-5.6,5.6,5.6,5.6c.7.7.7,1.8,0,2.5s-.8.5-1.2.5h0Z"/>
          <path class="cls-5" d="M130.2,103.5c-.5,0-.9-.2-1.2-.5l-6.8-6.8c-.7-.7-.7-1.8,0-2.5l6.8-6.8c.7-.7,1.8-.7,2.5,0,.7.7.7,1.8,0,2.5l-5.6,5.6,5.6,5.6c.7.7.7,1.8,0,2.5-.3.3-.8.5-1.2.5h0Z"/>
        </g>
      </g>
      <g>
        <path class="cls-2" d="M24,80c0,.3,0,.6-.2.9s-.3.5-.5.6-.5.3-.8.4c-.3,0-.6.1-1,.1h-3.8v-7.8h4.2c.3,0,.5,0,.7.2s.4.3.6.5.3.4.4.6c0,.2.1.5.1.7,0,.4-.1.7-.3,1.1s-.5.6-.8.7c.5.1.8.4,1.1.7s.4.8.4,1.3h0ZM19.2,75.5v2h2c.3,0,.5,0,.7-.3.2-.2.3-.4.3-.7s0-.5-.3-.7c-.2-.2-.4-.3-.6-.3h-2.1,0ZM22.5,79.7c0-.1,0-.3,0-.4,0-.1-.1-.2-.2-.3,0,0-.2-.2-.3-.2-.1,0-.2,0-.4,0h-2.3v2.1h2.3c.1,0,.3,0,.4,0,.1,0,.2-.1.3-.2,0,0,.2-.2.2-.3s0-.3,0-.4h0Z"/>
        <path class="cls-2" d="M26.8,82.1c-.6,0-1-.2-1.4-.6-.3-.4-.5-.9-.5-1.7v-3.6h1.5v3.3c0,.9.3,1.3,1,1.3s.6,0,.8-.3.5-.4.7-.8v-3.6h1.5v4.1c0,.2,0,.3,0,.3s.1.1.3.1v1.3c-.2,0-.3,0-.4,0s-.2,0-.3,0c-.3,0-.5,0-.6-.2s-.3-.3-.3-.5v-.5c-.3.4-.6.7-1,.9s-.9.3-1.3.3Z"/>
        <path class="cls-2" d="M34.1,82.1c-.5,0-1,0-1.4-.2-.5-.2-.9-.4-1.2-.7l.6-.9c.4.3.7.4,1,.6.3.1.7.2,1,.2s.5,0,.7-.2.3-.3.3-.5-.1-.4-.3-.5c-.2,0-.5-.2-1-.3-.4-.1-.7-.2-1-.3-.3,0-.5-.2-.6-.3s-.3-.3-.4-.4-.1-.4-.1-.6,0-.6.2-.8.3-.4.5-.6c.2-.2.4-.3.7-.4s.6-.1.9-.1.8,0,1.2.2c.4.1.7.3,1,.6l-.6.9c-.3-.2-.6-.4-.9-.5s-.6-.2-.8-.2-.5,0-.6.2-.3.3-.3.5,0,.2,0,.3c0,0,.1.1.2.2s.2.1.4.2c.1,0,.3.1.5.2.4.1.7.2,1,.3s.5.2.7.4.3.3.4.5c0,.2.1.4.1.6,0,.6-.2,1-.6,1.3-.4.3-1,.5-1.7.5h0Z"/>
        <path class="cls-2" d="M37.4,75.4v-1.5h1.5v1.5h-1.5ZM37.4,82v-5.8h1.5v5.8h-1.5Z"/>
        <path class="cls-2" d="M45.6,82h-1.5v-3.2c0-.5,0-.8-.2-1s-.4-.3-.7-.3-.3,0-.5,0-.3.1-.4.3c-.1.1-.3.2-.4.4-.1.2-.2.3-.2.5v3.4h-1.5v-5.8h1.3v1.1c.2-.4.5-.7.9-.9.4-.2.9-.3,1.4-.3s.7,0,.9.2.4.3.5.5c.1.2.2.5.3.7s0,.5,0,.8v3.6h0Z"/>
        <path class="cls-2" d="M49.5,82.1c-.5,0-.9,0-1.3-.2-.4-.2-.7-.4-1-.6-.3-.3-.5-.6-.6-.9s-.2-.7-.2-1.1,0-.8.2-1.2.3-.7.6-1,.6-.5,1-.7c.4-.2.8-.2,1.3-.2s.9,0,1.3.2c.4.2.7.4.9.7.3.3.5.6.6.9.1.4.2.7.2,1.1v.3c0,0,0,.2,0,.2h-4.5c0,.2,0,.4.2.6,0,.2.2.3.3.5.1.1.3.2.5.3.2,0,.4.1.6.1.3,0,.6,0,.8-.2s.4-.3.5-.6l1.3.4c-.2.4-.6.8-1,1.1-.5.3-1,.4-1.7.4h0ZM51.1,78.6c0-.4-.2-.8-.5-1s-.6-.4-1-.4-.4,0-.6.1-.3.2-.5.3c-.1.1-.2.3-.3.5,0,.2-.1.4-.2.6h3,0Z"/>
        <path class="cls-2" d="M55.7,82.1c-.5,0-1,0-1.4-.2-.5-.2-.9-.4-1.2-.7l.6-.9c.4.3.7.4,1,.6.3.1.7.2,1,.2s.5,0,.7-.2.3-.3.3-.5-.1-.4-.3-.5c-.2,0-.5-.2-1-.3-.4-.1-.7-.2-1-.3-.3,0-.5-.2-.6-.3s-.3-.3-.4-.4-.1-.4-.1-.6,0-.6.2-.8c.1-.2.3-.4.5-.6.2-.2.4-.3.7-.4s.6-.1.9-.1.8,0,1.2.2c.4.1.7.3,1,.6l-.6.9c-.3-.2-.6-.4-.9-.5s-.6-.2-.8-.2-.5,0-.6.2-.3.3-.3.5,0,.2,0,.3c0,0,.1.1.2.2s.2.1.4.2c.1,0,.3.1.5.2.4.1.7.2,1,.3s.5.2.7.4.3.3.4.5c0,.2.1.4.1.6,0,.6-.2,1-.6,1.3-.4.3-1,.5-1.7.5h0Z"/>
        <path class="cls-2" d="M61.1,82.1c-.5,0-1,0-1.4-.2-.5-.2-.9-.4-1.2-.7l.6-.9c.4.3.7.4,1,.6.3.1.7.2,1,.2s.5,0,.7-.2.3-.3.3-.5-.1-.4-.3-.5c-.2,0-.5-.2-1-.3-.4-.1-.7-.2-1-.3-.3,0-.5-.2-.6-.3s-.3-.3-.4-.4-.1-.4-.1-.6,0-.6.2-.8c.1-.2.3-.4.5-.6.2-.2.4-.3.7-.4s.6-.1.9-.1.8,0,1.2.2c.4.1.7.3,1,.6l-.6.9c-.3-.2-.6-.4-.9-.5s-.6-.2-.8-.2-.5,0-.6.2-.3.3-.3.5,0,.2,0,.3c0,0,.1.1.2.2s.2.1.4.2c.1,0,.3.1.5.2.4.1.7.2,1,.3s.5.2.7.4.3.3.4.5c0,.2.1.4.1.6,0,.6-.2,1-.6,1.3-.4.3-1,.5-1.7.5h0Z"/>
        <path class="cls-2" d="M67.2,82v-7.8h3.3c.4,0,.7,0,1,.2.3.2.6.4.8.6s.4.5.5.8c.1.3.2.6.2.9s0,.7-.2,1-.3.6-.5.8c-.2.2-.5.4-.8.6-.3.2-.6.2-1,.2h-1.8v2.6s-1.5,0-1.5,0ZM68.8,78h1.8c.3,0,.5-.1.7-.3.2-.2.3-.5.3-.9s0-.4,0-.5c0-.2-.1-.3-.2-.4-.1-.1-.2-.2-.3-.3-.1,0-.3,0-.4,0h-1.7v2.5h0Z"/>
        <path class="cls-2" d="M73.9,73.9h1.5v6.2c0,.2,0,.4.2.5s.3.2.4.2.2,0,.3,0,.2,0,.3-.1l.2,1.1c-.2.1-.4.2-.7.2s-.5,0-.7,0c-.5,0-.8-.1-1.1-.4s-.4-.6-.4-1.1v-6.7h0Z"/>
        <path class="cls-2" d="M79,82.1c-.3,0-.5,0-.8-.1s-.5-.2-.6-.4c-.2-.2-.3-.4-.4-.6-.1-.2-.2-.5-.2-.7s0-.5.2-.8.3-.4.5-.6c.2-.2.5-.3.8-.4.3,0,.6-.1,1-.1s.5,0,.8,0,.5.1.7.2v-.3c0-.4-.1-.7-.3-.9-.2-.2-.5-.3-1-.3s-.6,0-.9.2-.6.3-.9.5l-.5-.9c.7-.5,1.5-.7,2.4-.7s1.5.2,1.9.6.7,1,.7,1.8v1.8c0,.2,0,.3,0,.3s.1.1.3.1v1.3c-.3,0-.5,0-.7,0-.3,0-.5,0-.6-.2-.2-.1-.2-.3-.3-.5v-.3c-.3.3-.6.6-1,.8-.4.2-.8.3-1.2.3h0ZM79.5,81c.3,0,.5,0,.7-.1.2,0,.4-.2.5-.4.2-.1.2-.3.2-.4v-.7c-.2,0-.4-.1-.6-.2-.2,0-.4,0-.6,0-.4,0-.7,0-.9.3-.2.2-.4.4-.4.7s.1.5.3.6.4.3.7.3h0Z"/>
        <path class="cls-2" d="M89.2,82h-1.5v-3.2c0-.5,0-.8-.2-1-.2-.2-.4-.3-.7-.3s-.3,0-.5,0c-.2,0-.3.1-.4.3-.1.1-.3.2-.4.4-.1.2-.2.3-.2.5v3.4h-1.5v-5.8h1.3v1.1c.2-.4.5-.7.9-.9.4-.2.9-.3,1.4-.3s.7,0,.9.2c.2.1.4.3.5.5.1.2.2.5.3.7s0,.5,0,.8v3.6h0Z"/>
        <path class="cls-4" d="M17.4,95c0-.2,0-.4,0-.7,0-.3.1-.5.3-.8.1-.3.3-.5.6-.8s.6-.5,1-.7c.2-.1.4-.2.7-.3s.5-.2.7-.4c.2-.1.4-.3.5-.5s.2-.4.2-.6,0-.3-.1-.4-.2-.3-.3-.4c-.1-.1-.3-.2-.5-.3-.2,0-.4-.1-.7-.1s-.5,0-.7.1c-.2,0-.4.2-.5.3s-.3.2-.4.3-.2.2-.2.2l-.4-.4.2-.2c.1-.1.3-.2.5-.4.2-.1.4-.2.7-.3s.6-.2.9-.2.6,0,.9.1.5.2.7.4.3.3.4.6c0,.2.1.4.1.7s0,.6-.2.8-.3.4-.5.6c-.2.2-.4.3-.7.4s-.4.2-.6.3c-.6.2-1,.5-1.3.9s-.5.8-.5,1.3h4v.5h-4.6,0Z"/>
        <path class="cls-4" d="M28.6,91.8c0,.5,0,.9-.2,1.3-.1.4-.3.8-.6,1.1s-.5.5-.9.7-.7.3-1.1.3-.8,0-1.1-.3-.6-.4-.9-.7-.4-.7-.6-1.1c-.1-.4-.2-.9-.2-1.3s0-.9.2-1.3c.1-.4.3-.8.6-1.1.2-.3.5-.5.9-.7s.7-.3,1.1-.3.8,0,1.1.3.6.4.9.7c.3.3.4.7.6,1.1.1.4.2.9.2,1.3ZM28.1,91.8c0-.4,0-.8-.2-1.2s-.3-.6-.4-.9-.4-.4-.7-.6-.6-.2-.9-.2-.6,0-.9.2c-.3.1-.5.3-.7.6s-.3.5-.4.9-.2.7-.2,1.2,0,.8.2,1.1.3.6.4.9.4.4.7.6.6.2.9.2.6,0,.9-.2.5-.3.7-.6.3-.5.4-.9c.1-.3.2-.7.2-1.1Z"/>
        <path class="cls-4" d="M29.8,95c0-.2,0-.4,0-.7,0-.3.1-.5.3-.8.1-.3.3-.5.6-.8s.6-.5,1-.7c.2-.1.4-.2.7-.3s.5-.2.7-.4.4-.3.5-.5.2-.4.2-.6,0-.3-.1-.4-.2-.3-.3-.4-.3-.2-.5-.3c-.2,0-.4-.1-.7-.1s-.5,0-.7.1c-.2,0-.4.2-.5.3s-.3.2-.4.3-.2.2-.2.2l-.4-.4.2-.2c.1-.1.3-.2.5-.4.2-.1.4-.2.7-.3s.6-.2.9-.2.6,0,.9.1.5.2.7.4.3.3.4.6c0,.2.1.4.1.7s0,.6-.2.8-.3.4-.5.6c-.2.2-.4.3-.7.4s-.4.2-.6.3c-.6.2-1,.5-1.3.9s-.5.8-.5,1.3h4v.5h-4.6Z"/>
        <path class="cls-4" d="M41,92.4c0,.4,0,.7-.2,1s-.3.6-.6.8-.5.4-.9.6c-.3.1-.7.2-1.1.2s-.8,0-1.1-.2-.6-.4-.9-.6c-.3-.3-.4-.6-.6-1-.1-.4-.2-.8-.2-1.3,0-.8,0-1.5.2-2.1s.3-1.1.6-1.5c.3-.4.6-.7.9-.9.4-.2.7-.3,1.2-.3s1,.1,1.4.4c.4.3.7.6.9,1.1l-.4.3c-.2-.4-.4-.7-.8-1s-.7-.4-1.2-.4-.7,0-.9.3c-.3.2-.5.4-.7.7-.2.3-.4.7-.5,1.2-.1.5-.2,1-.2,1.6,0-.2.2-.5.4-.6s.3-.4.5-.5c.2-.1.4-.3.7-.3.2,0,.5-.1.8-.1s.7,0,1,.2.6.3.9.6c.2.2.4.5.6.8s.2.7.2,1ZM38.3,94.6c.3,0,.6,0,.9-.2.3-.1.5-.3.7-.5.2-.2.4-.4.5-.7.1-.3.2-.5.2-.8s0-.6-.2-.9c-.1-.3-.3-.5-.5-.7-.2-.2-.4-.4-.7-.5s-.6-.2-.9-.2-.6,0-.9.2c-.3.1-.5.3-.7.5-.2.2-.4.4-.5.7-.1.3-.2.6-.2.9s0,.6.2.8c.1.3.3.5.5.7.2.2.4.4.7.5.3.1.6.2.9.2Z"/>
      </g>
      <path class="cls-2" d="M128,3.9c1.5,0,2.7,1.2,2.7,2.7v176.9c.1,1.5-1.1,2.7-2.5,2.7H6.8c-1.5,0-2.7-1.1-2.7-2.6V6.7c-.1-1.5,1.1-2.7,2.5-2.7h121.4c0,0,0,0,0,0ZM128,0H0v190.2h128.1c3.6,0,6.6,0,6.6,0V0s-3.1,0-6.7,0"/>
    </g>
  </g>
</svg>