<?xml version="1.0" encoding="UTF-8"?>
<svg id="Layer_1" xmlns="http://www.w3.org/2000/svg" version="1.1" viewBox="0 0 567.46 739.14">
  <!-- Generator: Adobe Illustrator 29.8.1, SVG Export Plug-In . SVG Version: 2.1.1 Build 2)  -->
  <defs>
    <style>
      .st0 {
        fill: #d2dfee;
      }

      .st0, .st1, .st2, .st3, .st4, .st5, .st6, .st7, .st8 {
        stroke-miterlimit: 10;
      }

      .st0, .st1, .st2, .st3, .st4, .st6, .st7, .st8 {
        stroke: #f2f2f2;
      }

      .st0, .st2, .st3, .st6, .st7, .st8 {
        stroke-width: 9px;
      }

      .st1, .st9 {
        fill: #f2f2f2;
      }

      .st1, .st4 {
        stroke-width: 8px;
      }

      .st2, .st3, .st4 {
        fill: none;
      }

      .st2, .st5 {
        stroke-linecap: round;
      }

      .st10 {
        fill: #ed727d;
      }

      .st11, .st5 {
        fill: #fff;
      }

      .st12 {
        fill: #f7c027;
      }

      .st5 {
        stroke: #fff;
        stroke-width: 2px;
      }

      .st6 {
        fill: #e0edea;
      }

      .st7 {
        fill: #fbe3e5;
      }

      .st13 {
        fill: #2160a9;
      }

      .st14 {
        fill: #205fa9;
      }

      .st8 {
        fill: #d6e6e2;
      }
    </style>
  </defs>
  <rect class="st5" x="79.27" y="79.86" width="408.92" height="578.28" rx="20.08" ry="20.08"/>
  <rect class="st0" x="148.63" y="346.38" width="59.75" height="40.3" rx="9.03" ry="9.03"/>
  <rect class="st8" x="252.11" y="346.38" width="59.75" height="40.3" rx="9.03" ry="9.03"/>
  <rect class="st7" x="222.75" y="167.94" width="118.46" height="78.81" rx="15.77" ry="15.77"/>
  <rect class="st8" x="357.65" y="346.38" width="59.75" height="40.3" rx="9.03" ry="9.03"/>
  <path class="st3" d="M179.44,347.76v-43.47c0-7.56,6.13-13.69,13.69-13.69h181.64c7.56,0,13.69,6.13,13.69,13.69v43.47"/>
  <line class="st6" x1="281.98" y1="246.75" x2="281.98" y2="347.76"/>
  <path class="st11" d="M401.01,362.56h-26.98c-2.22,0-3.97,1.75-3.97,3.97s1.75,3.97,3.97,3.97h26.98c2.22,0,3.97-1.75,3.97-3.97s-1.75-3.97-3.97-3.97Z"/>
  <path class="st11" d="M295.74,362.56h-26.98c-2.22,0-3.97,1.75-3.97,3.97s1.75,3.97,3.97,3.97h26.98c2.22,0,3.97-1.75,3.97-3.97s-1.75-3.97-3.97-3.97Z"/>
  <path class="st11" d="M191.99,362.56h-26.98c-2.22,0-3.97,1.75-3.97,3.97s1.75,3.97,3.97,3.97h26.98c2.22,0,3.97-1.75,3.97-3.97s-1.75-3.97-3.97-3.97Z"/>
  <path class="st11" d="M243.4,212.25h79.34c2.22,0,3.97-1.75,3.97-3.97s-1.75-3.97-3.97-3.97h-79.34c-2.22,0-3.97,1.75-3.97,3.97s1.75,3.97,3.97,3.97Z"/>
  <path class="st11" d="M243.4,195.24h79.34c2.22,0,3.97-1.75,3.97-3.97s-1.75-3.97-3.97-3.97h-79.34c-2.22,0-3.97,1.75-3.97,3.97s1.75,3.97,3.97,3.97Z"/>
  <path class="st11" d="M303.58,225.3c0-2.22-1.75-3.97-3.97-3.97h-56.22c-2.22,0-3.97,1.75-3.97,3.97s1.75,3.97,3.97,3.97h56.22c2.22,0,3.97-1.75,3.97-3.97Z"/>
  <g>
    <rect class="st10" x="315.42" y="220.66" width="15.85" height="15.85" rx="2.53" ry="2.53"/>
    <g>
      <path class="st11" d="M323.1,234h-2.89c-1.25,0-2.26-1.01-2.26-2.26v-6.3c0-1.25,1.01-2.26,2.26-2.26h6.3c1.25,0,2.26,1.01,2.26,2.26v2.89h-.85v-2.89c0-.77-.63-1.4-1.4-1.4h-6.3c-.77,0-1.4.63-1.4,1.4v6.3c0,.77.63,1.4,1.4,1.4h2.89v.85Z"/>
      <path class="st11" d="M328.13,235.28h-2.5c-.92,0-1.67-.75-1.67-1.67v-2.5c0-.92.75-1.67,1.67-1.67h2.5c.92,0,1.67.75,1.67,1.67v2.5c0,.92-.75,1.67-1.67,1.67ZM325.63,230.29c-.45,0-.81.37-.81.81v2.5c0,.45.37.81.81.81h2.5c.45,0,.81-.37.81-.81v-2.5c0-.45-.36-.81-.81-.81h-2.5Z"/>
      <path class="st11" d="M323.77,229.53c-.11,0-.22-.04-.3-.13l-3.83-3.83c-.17-.17-.17-.44,0-.6s.44-.17.6,0l3.83,3.83c.17.17.17.44,0,.6-.08.08-.19.13-.3.13Z"/>
      <path class="st11" d="M324.35,229.68h-3.19c-.24,0-.43-.19-.43-.43s.19-.43.43-.43h2.34v-2.34c0-.24.19-.43.43-.43s.43.19.43.43v3.19Z"/>
    </g>
  </g>
  <g>
    <line class="st2" x1="143.24" y1="420.63" x2="216.83" y2="420.63"/>
    <line class="st2" x1="143.24" y1="436.38" x2="216.83" y2="436.38"/>
    <line class="st2" x1="143.24" y1="452.13" x2="192.84" y2="452.13"/>
  </g>
  <g>
    <rect class="st13" x="137.63" y="412.68" width="13.89" height="13.89" rx="2.22" ry="2.22"/>
    <path class="st11" d="M141.99,421.99c.48.46.93,1.31,1.74.77l4.69-4.69c.56-.69-.21-1.61-.95-1.08l-4.23,4.2c-.17.03-1.41-1.48-1.65-1.59-.43-.2-.98.07-1.05.54-.1.59,1.07,1.48,1.45,1.84Z"/>
  </g>
  <g>
    <line class="st2" x1="250.52" y1="420.63" x2="324.1" y2="420.63"/>
    <line class="st2" x1="250.52" y1="436.38" x2="324.1" y2="436.38"/>
    <line class="st2" x1="250.52" y1="452.13" x2="300.12" y2="452.13"/>
  </g>
  <g>
    <rect class="st13" x="244.9" y="412.11" width="13.89" height="13.89" rx="2.22" ry="2.22"/>
    <path class="st11" d="M249.26,421.42c.48.46.93,1.31,1.74.77l4.69-4.69c.56-.69-.21-1.61-.95-1.08l-4.23,4.2c-.17.03-1.41-1.48-1.65-1.59-.43-.2-.98.07-1.05.54-.1.59,1.07,1.48,1.45,1.84Z"/>
  </g>
  <g>
    <line class="st2" x1="354.81" y1="420.63" x2="428.4" y2="420.63"/>
    <line class="st2" x1="354.81" y1="436.38" x2="428.4" y2="436.38"/>
    <line class="st2" x1="354.81" y1="452.13" x2="404.41" y2="452.13"/>
  </g>
  <g>
    <rect class="st13" x="349.2" y="412.11" width="13.89" height="13.89" rx="2.22" ry="2.22"/>
    <path class="st11" d="M353.56,421.42c.48.46.93,1.31,1.74.77l4.69-4.69c.56-.69-.21-1.61-.95-1.08l-4.23,4.2c-.17.03-1.41-1.48-1.65-1.59-.43-.2-.98.07-1.05.54-.1.59,1.07,1.48,1.45,1.84Z"/>
  </g>
  <path class="st9" d="M451.51,125.65H165.79v-8.81c0-6.21-5.03-11.24-11.24-11.24h-40c-6.21,0-11.24,5.03-11.24,11.24v500.04c0,8.81,7.14,15.95,15.95,15.95h332.25c8.81,0,15.95-7.14,15.95-15.95V141.6c0-8.81-7.14-15.95-15.95-15.95ZM458.45,616.88c0,3.83-3.12,6.95-6.95,6.95H119.25c-3.83,0-6.95-3.12-6.95-6.95V141.6c0-3.83,3.12-6.95,6.95-6.95h332.25c3.83,0,6.95,3.12,6.95,6.95v475.28Z"/>
  <path class="st4" d="M169.67,132.86v-15.12c0-4.42,3.59-8.01,8.01-8.01h41.96c4.42,0,8.01,3.59,8.01,8.01v15.12"/>
  <rect class="st11" x="173.7" y="121.56" width="49.92" height="20.86"/>
  <path class="st1" d="M235.67,132.86v-15.12c0-4.42,3.59-8.01,8.01-8.01h40.23c4.42,0,8.01,3.59,8.01,8.01v15.12"/>
  <path class="st12" d="M133.88,124.09l-2.6,1.89c-.36.26-.83-.09-.7-.51l.99-3.06c.06-.19,0-.39-.16-.51l-2.6-1.89c-.36-.26-.17-.82.27-.82h3.22c.2,0,.37-.13.43-.31l.99-3.06c.14-.42.73-.42.86,0l.99,3.06c.06.19.24.31.43.31h3.22c.44,0,.62.56.27.82l-2.6,1.89c-.16.12-.23.32-.16.51l.99,3.06c.14.42-.34.77-.7.51l-2.6-1.89c-.16-.12-.37-.12-.53,0Z"/>
  <path class="st14" d="M191.71,126.89l-2.6,1.89c-.36.26-.83-.09-.7-.51l.99-3.06c.06-.19,0-.39-.16-.51l-2.6-1.89c-.36-.26-.17-.82.27-.82h3.22c.2,0,.37-.13.43-.31l.99-3.06c.14-.42.73-.42.86,0l.99,3.06c.06.19.24.31.43.31h3.22c.44,0,.62.56.27.82l-2.6,1.89c-.16.12-.23.32-.16.51l.99,3.06c.14.42-.34.77-.7.51l-2.6-1.89c-.16-.12-.37-.12-.53,0Z"/>
  <path class="st14" d="M205.08,126.89l-2.6,1.89c-.36.26-.83-.09-.7-.51l.99-3.06c.06-.19,0-.39-.16-.51l-2.6-1.89c-.36-.26-.17-.82.27-.82h3.22c.2,0,.37-.13.43-.31l.99-3.06c.14-.42.73-.42.86,0l.99,3.06c.06.19.24.31.43.31h3.22c.44,0,.62.56.27.82l-2.6,1.89c-.16.12-.23.32-.16.51l.99,3.06c.14.42-.34.77-.7.51l-2.6-1.89c-.16-.12-.37-.12-.53,0Z"/>
  <path class="st12" d="M251.53,123.09l-2.6,1.89c-.36.26-.83-.09-.7-.51l.99-3.06c.06-.19,0-.39-.16-.51l-2.6-1.89c-.36-.26-.17-.82.27-.82h3.22c.2,0,.37-.13.43-.31l.99-3.06c.14-.42.73-.42.86,0l.99,3.06c.06.19.24.31.43.31h3.22c.44,0,.62.56.27.82l-2.6,1.89c-.16.12-.23.32-.16.51l.99,3.06c.14.42-.34.77-.7.51l-2.6-1.89c-.16-.12-.37-.12-.53,0Z"/>
  <path class="st12" d="M264.88,123.09l-2.6,1.89c-.36.26-.83-.09-.7-.51l.99-3.06c.06-.19,0-.39-.16-.51l-2.6-1.89c-.36-.26-.17-.82.27-.82h3.22c.2,0,.37-.13.43-.31l.99-3.06c.14-.42.73-.42.86,0l.99,3.06c.06.19.24.31.43.31h3.22c.44,0,.62.56.27.82l-2.6,1.89c-.16.12-.23.32-.16.51l.99,3.06c.14.42-.34.77-.7.51l-2.6-1.89c-.16-.12-.37-.12-.53,0Z"/>
  <path class="st12" d="M278.25,123.09l-2.6,1.89c-.36.26-.83-.09-.7-.51l.99-3.06c.06-.19,0-.39-.16-.51l-2.6-1.89c-.36-.26-.17-.82.27-.82h3.22c.2,0,.37-.13.43-.31l.99-3.06c.14-.42.73-.42.86,0l.99,3.06c.06.19.24.31.43.31h3.22c.44,0,.62.56.27.82l-2.6,1.89c-.16.12-.23.32-.16.51l.99,3.06c.14.42-.34.77-.7.51l-2.6-1.89c-.16-.12-.37-.12-.53,0Z"/>
  <path class="st12" d="M397.62,97.34c.43,1.97,1.1,3.85,1.92,5.69.4.88,1.8,1.2,2.57.67,1.58-1.08,3.25-2.02,4.99-2.82.92-.42,1.86-.79,2.81-1.12.85-.3,1.95-.83,2.87-.79,1.81.07,3.71,1.37,5.34,2.06,1.91.81,4,1.41,6.1,1.3s3.64-.93,5.51-1.49c2.08-.62,4.17-.08,6.25.3,4.31.79,8.69,1.19,13.06,1.22,4.99.02,9.97-.46,14.87-1.42,2.37-.47,1.36-4.08-1-3.62-8.57,1.69-17.57,1.76-26.16.16-2.27-.42-4.52-.91-6.83-.53-1.89.31-3.58,1.44-5.49,1.62-4.18.39-7.38-3.04-11.4-3.33-2.27-.17-4.8,1.11-6.84,1.98-2.1.9-4.1,1.96-5.98,3.25l2.57.67c-.69-1.54-1.19-3.14-1.55-4.79-.51-2.36-4.13-1.36-3.62,1h0Z"/>
</svg>