<?xml version="1.0" encoding="UTF-8"?>
<svg id="Layer_1" xmlns="http://www.w3.org/2000/svg" version="1.1" viewBox="0 0 567.46 739.14">
  <!-- Generator: Adobe Illustrator 29.8.1, SVG Export Plug-In . SVG Version: 2.1.1 Build 2)  -->
  <defs>
    <style>
      .st0 {
        fill: none;
        stroke: #f2f2f2;
        stroke-width: 9px;
      }

      .st0, .st1 {
        stroke-linecap: round;
        stroke-miterlimit: 10;
      }

      .st2 {
        fill: #f2f2f2;
      }

      .st3 {
        fill: #ed727d;
      }

      .st4 {
        fill: #f9c026;
      }

      .st5, .st1 {
        fill: #fff;
      }

      .st6 {
        fill: #f7c027;
      }

      .st1 {
        stroke: #fff;
        stroke-width: 2px;
      }

      .st7 {
        fill: #318370;
      }

      .st8 {
        fill: #fef2d4;
      }

      .st9 {
        fill: #fceaec;
      }

      .st10 {
        fill: #2160a9;
      }

      .st11 {
        fill: #205fa9;
      }

      .st12 {
        fill: #e0edea;
      }
    </style>
  </defs>
  <rect class="st1" x="79.27" y="79.86" width="408.92" height="578.28" rx="20.08" ry="20.08"/>
  <path class="st2" d="M441.27,140.58H172.3v-8.81c0-6.21-5.03-11.24-11.24-11.24h-40c-6.21,0-11.24,5.03-11.24,11.24v235c0,8.81,7.14,15.95,15.95,15.95h315.5c8.81,0,15.95-7.14,15.95-15.95v-210.24c0-8.81-7.14-15.95-15.95-15.95ZM448.22,366.77c0,3.83-3.12,6.95-6.95,6.95H125.77c-3.83,0-6.95-3.12-6.95-6.95v-210.24c0-3.83,3.12-6.95,6.95-6.95h315.5c3.83,0,6.95,3.12,6.95,6.95v210.24Z"/>
  <rect class="st5" x="265.26" y="403.29" width="202.28" height="147.31"/>
  <g>
    <path class="st2" d="M459.16,399.36h-142.69v-8.3c0-5.85-4.57-10.59-10.21-10.59h-36.33c-5.64,0-10.21,4.74-10.21,10.59v149.89c0,8.3,6.49,15.02,14.49,15.02h184.96c8,0,14.49-6.73,14.49-15.02v-126.57c0-8.3-6.49-15.02-14.49-15.02ZM465.47,540.96c0,3.61-2.83,6.55-6.31,6.55h-184.96c-3.48,0-6.31-2.94-6.31-6.55v-126.57c0-3.61,2.83-6.55,6.31-6.55h184.96c3.48,0,6.31,2.94,6.31,6.55v126.57Z"/>
    <g>
      <ellipse class="st3" cx="273.02" cy="392.54" rx="3.67" ry="3.81"/>
      <ellipse class="st4" cx="287.72" cy="392.54" rx="3.67" ry="3.81"/>
      <ellipse class="st7" cx="302.42" cy="392.54" rx="3.67" ry="3.81"/>
    </g>
  </g>
  <g>
    <g>
      <path class="st9" d="M379.81,463.5c-.91-1.58-2.11-2.37-3.32-2.37s-2.41.79-3.32,2.37l-18.56,32.14c-1.71-2.97-7.96-13.78-7.96-13.78-.91-1.58-2.11-2.37-3.32-2.37s-2.41.79-3.32,2.37c0,0-7.6,13.16-9.43,16.32l-2.79,4.83c-1.82,3.16-.33,5.74,3.32,5.74h68.18c3.65,0,5.14-2.58,3.32-5.74l-22.82-39.51Z"/>
      <path class="st9" d="M346.64,466.67c5.09,0,9.22-4.13,9.22-9.22s-4.13-9.22-9.22-9.22-9.22,4.13-9.22,9.22,4.13,9.22,9.22,9.22Z"/>
      <path class="st9" d="M419.69,426.84h-108.95c-7.94,0-14.39,6.44-14.39,14.36v74.57c0,7.92,6.46,14.36,14.39,14.36h108.95c7.94,0,14.39-6.44,14.39-14.36v-74.57c0-7.92-6.46-14.36-14.39-14.36ZM425.47,515.77c0,3.18-2.59,5.76-5.78,5.76h-108.95c-3.19,0-5.78-2.58-5.78-5.75v-74.57c0-3.18,2.59-5.76,5.78-5.76h108.95c3.19,0,5.78,2.58,5.78,5.76v74.57Z"/>
    </g>
    <g>
      <rect class="st3" x="407.29" y="502.63" width="13.89" height="13.89" rx="2.22" ry="2.22"/>
      <g>
        <path class="st5" d="M414.02,514.33h-2.53c-1.09,0-1.98-.89-1.98-1.98v-5.52c0-1.09.89-1.98,1.98-1.98h5.52c1.09,0,1.98.89,1.98,1.98v2.53h-.75v-2.53c0-.68-.55-1.23-1.23-1.23h-5.52c-.68,0-1.23.55-1.23,1.23v5.52c0,.68.55,1.23,1.23,1.23h2.53v.75Z"/>
        <path class="st5" d="M418.43,515.44h-2.19c-.81,0-1.46-.66-1.46-1.46v-2.19c0-.81.66-1.46,1.46-1.46h2.19c.81,0,1.46.66,1.46,1.46v2.19c0,.81-.66,1.46-1.46,1.46ZM416.24,511.08c-.39,0-.71.32-.71.71v2.19c0,.39.32.71.71.71h2.19c.39,0,.71-.32.71-.71v-2.19c0-.39-.32-.71-.71-.71h-2.19Z"/>
        <path class="st5" d="M414.61,510.41c-.1,0-.19-.04-.26-.11l-3.35-3.35c-.15-.15-.15-.38,0-.53s.38-.15.53,0l3.35,3.35c.15.15.15.38,0,.53-.07.07-.17.11-.26.11Z"/>
        <path class="st5" d="M415.11,510.54h-2.8c-.21,0-.37-.17-.37-.37s.17-.37.37-.37h2.05v-2.05c0-.21.17-.37.37-.37s.37.17.37.37v2.8Z"/>
      </g>
    </g>
  </g>
  <rect class="st5" x="267.2" y="189.51" width="202.28" height="147.31"/>
  <g>
    <path class="st2" d="M461.1,185.58h-142.69v-8.3c0-5.85-4.57-10.59-10.21-10.59h-36.33c-5.64,0-10.21,4.74-10.21,10.59v149.89c0,8.3,6.49,15.02,14.49,15.02h184.96c8,0,14.49-6.73,14.49-15.02v-126.57c0-8.3-6.49-15.02-14.49-15.02ZM467.41,327.18c0,3.61-2.83,6.55-6.31,6.55h-184.96c-3.48,0-6.31-2.94-6.31-6.55v-126.57c0-3.61,2.83-6.55,6.31-6.55h184.96c3.48,0,6.31,2.94,6.31,6.55v126.57Z"/>
    <g>
      <ellipse class="st3" cx="274.96" cy="178.76" rx="3.67" ry="3.81"/>
      <ellipse class="st4" cx="289.66" cy="178.76" rx="3.67" ry="3.81"/>
      <ellipse class="st7" cx="304.36" cy="178.76" rx="3.67" ry="3.81"/>
    </g>
  </g>
  <g>
    <path class="st12" d="M381.22,249.28c-.91-1.58-2.11-2.37-3.32-2.37s-2.41.79-3.32,2.37l-18.56,32.14c-1.71-2.97-7.96-13.78-7.96-13.78-.91-1.58-2.11-2.37-3.32-2.37s-2.41.79-3.32,2.37c0,0-7.6,13.16-9.43,16.32l-2.79,4.83c-1.82,3.16-.33,5.74,3.32,5.74h68.18c3.65,0,5.14-2.58,3.32-5.74l-22.82-39.51Z"/>
    <path class="st12" d="M348.06,252.46c5.09,0,9.22-4.13,9.22-9.22s-4.13-9.22-9.22-9.22-9.22,4.13-9.22,9.22,4.13,9.22,9.22,9.22Z"/>
    <path class="st12" d="M421.1,212.62h-108.95c-7.94,0-14.39,6.44-14.39,14.36v74.57c0,7.92,6.46,14.36,14.39,14.36h108.95c7.94,0,14.39-6.44,14.39-14.36v-74.57c0-7.92-6.46-14.36-14.39-14.36ZM426.89,301.56c0,3.18-2.59,5.76-5.78,5.76h-108.95c-3.19,0-5.78-2.58-5.78-5.75v-74.57c0-3.18,2.59-5.76,5.78-5.76h108.95c3.19,0,5.78,2.58,5.78,5.76v74.57Z"/>
  </g>
  <g>
    <rect class="st7" x="408.94" y="290.2" width="13.89" height="13.89" rx="2.22" ry="2.22"/>
    <g>
      <path class="st5" d="M415.66,301.9h-2.53c-1.09,0-1.98-.89-1.98-1.98v-5.52c0-1.09.89-1.98,1.98-1.98h5.52c1.09,0,1.98.89,1.98,1.98v2.53h-.75v-2.53c0-.68-.55-1.23-1.23-1.23h-5.52c-.68,0-1.23.55-1.23,1.23v5.52c0,.68.55,1.23,1.23,1.23h2.53v.75Z"/>
      <path class="st5" d="M420.08,303.01h-2.19c-.81,0-1.46-.66-1.46-1.46v-2.19c0-.81.66-1.46,1.46-1.46h2.19c.81,0,1.46.66,1.46,1.46v2.19c0,.81-.66,1.46-1.46,1.46ZM417.88,298.65c-.39,0-.71.32-.71.71v2.19c0,.39.32.71.71.71h2.19c.39,0,.71-.32.71-.71v-2.19c0-.39-.32-.71-.71-.71h-2.19Z"/>
      <path class="st5" d="M416.25,297.98c-.1,0-.19-.04-.26-.11l-3.35-3.35c-.15-.15-.15-.38,0-.53s.38-.15.53,0l3.35,3.35c.15.15.15.38,0,.53-.07.07-.17.11-.26.11Z"/>
      <path class="st5" d="M416.76,298.11h-2.8c-.21,0-.37-.17-.37-.37s.17-.37.37-.37h2.05v-2.05c0-.21.17-.37.37-.37s.37.17.37.37v2.8Z"/>
    </g>
  </g>
  <g>
    <rect class="st5" x="145.49" y="265.42" width="203.75" height="144.93"/>
    <rect class="st8" x="159.49" y="277.22" width="179.67" height="119.33" rx="5.33" ry="5.33"/>
    <g>
      <path class="st2" d="M340.87,258.97h-142.69v-8.3c0-5.85-4.57-10.59-10.21-10.59h-36.33c-5.64,0-10.21,4.74-10.21,10.59v149.89c0,8.3,6.49,15.02,14.49,15.02h184.96c8,0,14.49-6.73,14.49-15.02v-126.57c0-8.3-6.49-15.02-14.49-15.02ZM347.19,400.57c0,3.61-2.83,6.55-6.31,6.55h-184.96c-3.48,0-6.31-2.94-6.31-6.55v-126.57c0-3.61,2.83-6.55,6.31-6.55h184.96c3.48,0,6.31,2.94,6.31,6.55v126.57Z"/>
      <g>
        <ellipse class="st3" cx="154.74" cy="252.15" rx="3.67" ry="3.81"/>
        <ellipse class="st4" cx="169.44" cy="252.15" rx="3.67" ry="3.81"/>
        <ellipse class="st7" cx="184.13" cy="252.15" rx="3.67" ry="3.81"/>
      </g>
    </g>
    <g>
      <path class="st5" d="M248.49,379.45c-2.86,0-5.72-.29-8.5-.86-2.71-.55-5.37-1.38-7.92-2.46-2.5-1.06-4.91-2.37-7.17-3.89-2.23-1.51-4.33-3.24-6.24-5.15-1.9-1.9-3.64-4-5.15-6.24-1.53-2.26-2.83-4.67-3.89-7.17-1.08-2.55-1.9-5.21-2.46-7.92-.57-2.78-.86-5.64-.86-8.5s.29-5.72.86-8.5c.55-2.71,1.38-5.38,2.46-7.92,1.06-2.5,2.37-4.91,3.89-7.17,1.51-2.24,3.24-4.34,5.15-6.24,1.91-1.91,4.01-3.64,6.24-5.15,2.26-1.52,4.67-2.83,7.17-3.89,2.55-1.08,5.21-1.91,7.92-2.46,2.78-.57,5.64-.86,8.5-.86s5.72.29,8.5.86c2.71.55,5.37,1.38,7.92,2.46,2.5,1.06,4.91,2.37,7.17,3.89,2.23,1.51,4.33,3.24,6.24,5.15s3.64,4.01,5.15,6.24c1.53,2.26,2.83,4.67,3.89,7.17,1.08,2.55,1.9,5.21,2.46,7.92.57,2.78.86,5.64.86,8.5s-.29,5.72-.86,8.5c-.55,2.71-1.38,5.38-2.46,7.92-1.06,2.5-2.37,4.91-3.89,7.17-1.51,2.24-3.24,4.34-5.15,6.24-1.91,1.91-4.01,3.64-6.24,5.15-2.26,1.52-4.67,2.83-7.17,3.89-2.55,1.08-5.21,1.91-7.92,2.46-2.78.57-5.64.86-8.5.86ZM248.49,302.54c-19.15,0-34.73,15.58-34.73,34.73s15.58,34.73,34.73,34.73,34.73-15.58,34.73-34.73-15.58-34.73-34.73-34.73Z"/>
      <path class="st5" d="M248.49,295.59c2.83,0,5.65.28,8.4.85,2.68.55,5.31,1.37,7.83,2.43,2.47,1.04,4.85,2.34,7.08,3.84,2.21,1.49,4.28,3.2,6.17,5.09,1.89,1.89,3.6,3.96,5.09,6.17,1.51,2.23,2.8,4.61,3.84,7.08,1.06,2.52,1.88,5.15,2.43,7.83.56,2.75.85,5.57.85,8.4s-.28,5.65-.85,8.4c-.55,2.68-1.37,5.31-2.43,7.83-1.04,2.47-2.34,4.85-3.84,7.08-1.49,2.21-3.2,4.28-5.09,6.17s-3.96,3.6-6.17,5.09c-2.23,1.51-4.61,2.8-7.08,3.84-2.52,1.06-5.15,1.88-7.83,2.43-2.75.56-5.57.85-8.4.85s-5.65-.28-8.4-.85c-2.68-.55-5.31-1.37-7.83-2.43-2.47-1.04-4.85-2.34-7.08-3.84-2.21-1.49-4.28-3.2-6.17-5.09-1.89-1.89-3.6-3.96-5.09-6.17-1.51-2.23-2.8-4.61-3.84-7.08-1.06-2.52-1.88-5.15-2.43-7.83-.56-2.75-.85-5.57-.85-8.4s.28-5.65.85-8.4c.55-2.68,1.37-5.31,2.43-7.83,1.04-2.47,2.34-4.85,3.84-7.08,1.49-2.21,3.2-4.28,5.09-6.17,1.89-1.89,3.96-3.6,6.17-5.09,2.23-1.51,4.61-2.8,7.08-3.84,2.52-1.06,5.15-1.88,7.83-2.43,2.75-.56,5.57-.85,8.4-.85M248.49,372.5c19.43,0,35.23-15.8,35.23-35.23s-15.8-35.23-35.23-35.23-35.23,15.8-35.23,35.23,15.8,35.23,35.23,35.23M248.49,294.59c-2.89,0-5.79.29-8.6.87-2.74.56-5.44,1.4-8.02,2.49-2.53,1.07-4.97,2.39-7.25,3.94-2.26,1.53-4.38,3.28-6.31,5.21-1.93,1.93-3.68,4.05-5.21,6.31-1.54,2.28-2.87,4.72-3.94,7.25-1.09,2.58-1.93,5.27-2.49,8.02-.58,2.81-.87,5.7-.87,8.6s.29,5.79.87,8.6c.56,2.74,1.4,5.44,2.49,8.02,1.07,2.53,2.39,4.97,3.94,7.25,1.53,2.26,3.28,4.38,5.21,6.31,1.93,1.93,4.05,3.68,6.31,5.21,2.28,1.54,4.72,2.87,7.25,3.94,2.58,1.09,5.28,1.93,8.02,2.49,2.81.58,5.7.87,8.6.87s5.79-.29,8.6-.87c2.74-.56,5.44-1.4,8.02-2.49,2.53-1.07,4.97-2.39,7.25-3.94,2.26-1.53,4.38-3.28,6.31-5.21,1.93-1.93,3.68-4.05,5.21-6.31,1.54-2.28,2.87-4.72,3.94-7.25,1.09-2.58,1.93-5.28,2.49-8.02.58-2.81.87-5.7.87-8.6s-.29-5.79-.87-8.6c-.56-2.74-1.4-5.44-2.49-8.02-1.07-2.53-2.39-4.97-3.94-7.25-1.53-2.26-3.28-4.38-5.21-6.31-1.93-1.93-4.05-3.68-6.31-5.21-2.28-1.54-4.72-2.87-7.25-3.94-2.58-1.09-5.28-1.93-8.02-2.49-2.81-.58-5.7-.87-8.6-.87h0ZM248.49,371.5c-18.87,0-34.23-15.36-34.23-34.23s15.36-34.23,34.23-34.23,34.23,15.36,34.23,34.23-15.36,34.23-34.23,34.23h0Z"/>
    </g>
    <path class="st5" d="M272.23,339.29l-33.46,19.32c-1.56.9-3.5-.22-3.5-2.02v-38.64c0-1.8,1.94-2.92,3.5-2.02l33.46,19.32c1.56.9,1.56,3.14,0,4.04Z"/>
    <g>
      <rect class="st11" x="319.79" y="376.51" width="13.89" height="13.89" rx="2.22" ry="2.22"/>
      <g>
        <path class="st5" d="M332.34,383.99l-4.64,2.68c-.22.12-.49-.03-.49-.28v-5.36c0-.25.27-.4.49-.28l4.64,2.68c.22.12.22.44,0,.56Z"/>
        <path class="st5" d="M327.05,383.99l-4.64,2.68c-.22.12-.49-.03-.49-.28v-5.36c0-.25.27-.4.49-.28l4.64,2.68c.22.12.22.44,0,.56Z"/>
      </g>
    </g>
  </g>
  <g>
    <g>
      <line class="st0" x1="136.45" y1="189.93" x2="227.82" y2="189.93"/>
      <line class="st0" x1="136.45" y1="205.69" x2="227.82" y2="205.69"/>
      <line class="st0" x1="136.45" y1="221.44" x2="159.17" y2="221.44"/>
    </g>
    <g>
      <rect class="st10" x="130.83" y="181.42" width="13.89" height="13.89" rx="2.22" ry="2.22"/>
      <path class="st5" d="M135.2,190.73c.48.46.93,1.31,1.74.77l4.69-4.69c.56-.69-.21-1.61-.95-1.08l-4.23,4.2c-.17.03-1.41-1.48-1.65-1.59-.43-.2-.98.07-1.05.54-.1.59,1.07,1.48,1.45,1.84Z"/>
    </g>
  </g>
  <g>
    <line class="st0" x1="114.07" y1="434.4" x2="243.75" y2="434.4"/>
    <line class="st0" x1="114.07" y1="450.16" x2="243.75" y2="450.16"/>
    <line class="st0" x1="114.07" y1="465.91" x2="243.75" y2="465.91"/>
  </g>
  <path class="st6" d="M397.62,97.34c.43,1.97,1.1,3.85,1.92,5.69.4.88,1.8,1.2,2.57.67,1.58-1.08,3.25-2.02,4.99-2.82.92-.42,1.86-.79,2.81-1.12.85-.3,1.95-.83,2.87-.79,1.81.07,3.71,1.37,5.34,2.06,1.91.81,4,1.41,6.1,1.3s3.64-.93,5.51-1.49c2.08-.62,4.17-.08,6.25.3,4.31.79,8.69,1.19,13.06,1.22,4.99.02,9.97-.46,14.87-1.42,2.37-.47,1.36-4.08-1-3.62-8.57,1.69-17.57,1.76-26.16.16-2.27-.42-4.52-.91-6.83-.53-1.89.31-3.58,1.44-5.49,1.62-4.18.39-7.38-3.04-11.4-3.33-2.27-.17-4.8,1.11-6.84,1.98s-4.1,1.96-5.98,3.25l2.57.67c-.69-1.54-1.19-3.14-1.55-4.79-.51-2.36-4.13-1.36-3.62,1h0Z"/>
</svg>