<?xml version="1.0" encoding="UTF-8"?>
<svg id="Layer_1" xmlns="http://www.w3.org/2000/svg" version="1.1" xmlns:xlink="http://www.w3.org/1999/xlink" viewBox="0 0 134.74 190.23">
  <!-- Generator: Adobe Illustrator 29.8.1, SVG Export Plug-In . SVG Version: 2.1.1 Build 2)  -->
  <defs>
    <style>
      .st0 {
        fill: #d9d9d9;
      }

      .st1 {
        fill: #f0f0f0;
      }

      .st2 {
        fill: #f9c026;
      }

      .st3 {
        fill: #fff;
      }

      .st4 {
        fill: none;
      }

      .st5 {
        fill: #318370;
      }

      .st6 {
        fill: #034442;
      }
    </style>
    <clipPath id="clippath">
      <rect class="st4" x="129.21" y="-25.67" width="185.81" height="242.03"/>
    </clipPath>
    <clipPath id="clippath-1">
      <rect class="st4" x="129.21" y="-25.67" width="185.81" height="242.03"/>
    </clipPath>
  </defs>
  <g>
    <path class="st3" d="M127.85,189.66l-120.77.09c-3.63,0-6.58-2.94-6.58-6.57L.37,7C.37,3.37,3.31.42,6.94.42l120.77-.09c3.63,0,6.58,2.94,6.58,6.57l.13,176.18c0,3.63-2.94,6.58-6.57,6.58"/>
    <path class="st5" d="M8.16,187.78c-2.54,0-4.61-2.06-4.61-4.61L3.42,6.99c0-2.54,2.07-4.61,4.61-4.61l120.77-.09c2.54,0,4.61,2.06,4.61,4.61l.12,176.17c0,2.54-2.06,4.61-4.61,4.61l-120.77.09Z"/>
    <path class="st0" d="M7.07,190.07c-3.8,0-6.9-3.09-6.9-6.9L.04,7C.04,3.19,3.14.09,6.94.09L127.71,0h0c1.84,0,3.57.72,4.88,2.02,1.31,1.3,2.02,3.04,2.03,4.88l.13,176.18c0,3.81-3.09,6.9-6.9,6.91l-120.77.09h0ZM127.72.66h0L6.94.74c-3.45,0-6.25,2.81-6.24,6.25l.13,176.18c0,3.44,2.81,6.24,6.25,6.24h0l120.77-.09c3.44,0,6.25-2.81,6.24-6.25l-.13-176.17c0-1.67-.65-3.24-1.83-4.42-1.18-1.18-2.75-1.83-4.41-1.83Z"/>
    <path class="st1" d="M25.73,18.81c-.81,0-1.47-.66-1.47-1.47s.66-1.47,1.47-1.47h18.5s0-.01,0-.01c.81,0,1.47.66,1.47,1.47s-.66,1.47-1.47,1.47h-18.5s0,.01,0,.01Z"/>
    <path class="st1" d="M16.29,18.82c-.81,0-1.47-.66-1.47-1.47,0-.81.66-1.48,1.47-1.48h4.75s0-.01,0-.01c.81,0,1.47.66,1.47,1.47,0,.81-.66,1.48-1.47,1.48h-4.75s0,.01,0,.01Z"/>
    <path class="st6" d="M91.97,46.66c-2.45,0-4.92-.2-7.41-.64-6.31-1.11-12.69-3.68-20.67-8.32-1.3-.75-2.61-1.54-3.88-2.31-6.02-3.62-12.24-7.37-19.11-8.67-7.57-1.43-15.48.28-21.52,1.93-5.14,1.4-10.27,3.13-15.23,5.13l-.08-.2c4.98-2.01,10.11-3.74,15.26-5.14,6.07-1.66,14.01-3.37,21.62-1.94,6.91,1.3,13.15,5.06,19.19,8.69,1.27.76,2.58,1.55,3.87,2.31,7.97,4.63,14.32,7.19,20.6,8.29,17.67,3.11,34.53-5.77,45.56-13.76l.13.18c-9.51,6.89-23.34,14.44-38.31,14.44Z"/>
    <path class="st6" d="M4.47,164.62l-.12-.18c17.08-11.16,33.84-20.62,49.81-28.1,14.49-6.79,33.72-14.79,53.94-16.4,1.74-.14,3.88-.1,4.93,1.41.84,1.21.55,2.83.16,4.25-1.01,3.66-2.45,7.26-3.84,10.74-1.99,4.97-4.05,10.12-4.85,15.48-.23,1.51-.7,6.54,2.68,8.03.92.4,2,.54,3.24.4,7.13-.78,11.14-2.33,16.68-4.47,1.06-.41,2.16-.83,3.35-1.28l.08.2c-1.19.45-2.28.87-3.34,1.28-5.56,2.15-9.58,3.7-16.74,4.48-1.27.14-2.4,0-3.35-.42-3.52-1.55-3.04-6.71-2.81-8.26.81-5.39,2.87-10.55,4.86-15.53,1.39-3.48,2.83-7.07,3.83-10.72.38-1.37.66-2.92-.13-4.06-.98-1.42-3.05-1.45-4.73-1.32-20.18,1.6-39.39,9.6-53.86,16.38-15.96,7.48-32.7,16.93-49.78,28.08Z"/>
    <g>
      <path class="st3" d="M40.21,146.69h0l-23.67-.02c-.54,0-.98-.44-.98-.98,0-.54.44-.98.98-.98h0l23.67.02c.54,0,.98.44.98.98,0,.54-.44.98-.98.98Z"/>
      <path class="st2" d="M34.29,141.94h0l-17.75-.02c-.54,0-.98-.44-.98-.98,0-.54.44-.98.98-.98h0l17.75.02c.54,0,.98.44.98.98,0,.54-.44.98-.98.98Z"/>
      <path class="st3" d="M40.21,149.75h0l-23.67-.02c-.54,0-.98-.44-.98-.98,0-.54.44-.98.98-.98h0l23.67.02c.54,0,.98.44.98.98,0,.54-.44.98-.98.98Z"/>
      <path class="st3" d="M31.13,152.8h-14.59c-.54-.01-.98-.45-.98-.99,0-.54.44-.98.98-.98h14.59c.54.01.98.45.98.99,0,.54-.44.98-.98.98Z"/>
      <path class="st3" d="M33.62,155.86h-17.08c-.54-.01-.98-.45-.98-.99s.44-.98.98-.98h17.08c.54.01.98.45.98.99s-.44.98-.98.98Z"/>
      <path class="st3" d="M40.21,168.95h0l-23.67-.02c-.54,0-.98-.44-.98-.98,0-.54.44-.98.98-.98h0l23.67.02c.54,0,.98.44.98.98,0,.54-.44.98-.98.98Z"/>
      <path class="st2" d="M27.03,164.2h0l-10.49-.02c-.54,0-.98-.44-.98-.98,0-.54.44-.98.98-.98h0l10.49.02c.54,0,.98.44.98.98,0,.54-.44.98-.98.98Z"/>
      <path class="st3" d="M37.53,172.01h0l-20.98-.02c-.54,0-.98-.44-.98-.98,0-.54.44-.98.98-.98h0l20.98.02c.54,0,.98.44.98.98,0,.54-.44.98-.98.98Z"/>
      <path class="st3" d="M76.34,168.95h0l-23.67-.02c-.54,0-.98-.44-.98-.98,0-.54.44-.98.98-.98h0l23.67.02c.54,0,.98.44.98.98,0,.54-.44.98-.98.98Z"/>
      <path class="st2" d="M63.16,164.2h0l-10.49-.02c-.54,0-.98-.44-.98-.98,0-.54.44-.98.98-.98h0l10.49.02c.54,0,.98.44.98.98,0,.54-.44.98-.98.98Z"/>
      <path class="st3" d="M73.65,172.01h0l-20.98-.02c-.54,0-.98-.44-.98-.98,0-.54.44-.98.98-.98h0l20.98.02c.54,0,.98.44.98.98,0,.54-.44.98-.98.98Z"/>
    </g>
    <g>
      <path class="st2" d="M11.37,83.21c-.11,0-.22-.04-.31-.13-.17-.17-.17-.45,0-.62l2.56-2.56-2.56-2.56c-.17-.17-.17-.45,0-.62s.45-.17.62,0l2.87,2.87c.17.17.17.45,0,.62l-2.87,2.87c-.09.09-.2.13-.31.13Z"/>
      <path class="st2" d="M7.49,83.21c-.11,0-.22-.04-.31-.13-.17-.17-.17-.45,0-.62l2.56-2.56-2.56-2.56c-.17-.17-.17-.45,0-.62s.45-.17.62,0l2.87,2.87c.08.08.13.19.13.31s-.05.23-.13.31l-2.87,2.87c-.09.09-.2.13-.31.13Z"/>
      <path class="st2" d="M3.58,83.21c-.11,0-.22-.04-.31-.13-.17-.17-.17-.45,0-.62l2.56-2.56-2.56-2.56c-.17-.17-.17-.45,0-.62s.45-.17.62,0l2.87,2.87c.17.17.17.45,0,.62l-2.87,2.87c-.09.09-.2.13-.31.13Z"/>
    </g>
    <g>
      <path class="st6" d="M111.51,103.39c-.45,0-.89-.17-1.23-.51l-6.78-6.78c-.68-.68-.68-1.78,0-2.46l6.78-6.78c.68-.68,1.78-.68,2.46,0,.68.68.68,1.78,0,2.46l-5.55,5.54,5.55,5.54c.68.68.68,1.78,0,2.46-.34.34-.79.51-1.23.51Z"/>
      <path class="st6" d="M120.68,103.39c-.45,0-.89-.17-1.23-.51l-6.78-6.78c-.68-.68-.68-1.78,0-2.46l6.78-6.78c.68-.68,1.78-.68,2.46,0,.68.68.68,1.78,0,2.46l-5.55,5.54,5.55,5.54c.68.68.68,1.78,0,2.46-.34.34-.79.51-1.23.51Z"/>
      <path class="st6" d="M129.92,103.39c-.45,0-.89-.17-1.23-.51l-6.78-6.78c-.68-.68-.68-1.78,0-2.46l6.78-6.78c.68-.68,1.78-.68,2.46,0,.68.68.68,1.78,0,2.46l-5.55,5.54,5.55,5.54c.68.68.68,1.78,0,2.46-.34.34-.79.51-1.23.51Z"/>
    </g>
    <path class="st3" d="M127.71,4.26c1.46,0,2.65,1.18,2.65,2.64l.13,176.18c0,1.46-1.18,2.65-2.64,2.65l-120.77.09c-1.46,0-2.65-1.18-2.65-2.64l-.12-176.18c0-1.46,1.18-2.65,2.64-2.65l120.77-.09ZM127.71.33L6.94.42C3.31.42.37,3.37.37,7l.12,176.18c0,3.63,2.95,6.57,6.58,6.57l120.77-.09c3.63,0,6.57-2.95,6.57-6.58l-.12-176.18c0-3.63-2.95-6.57-6.58-6.57"/>
  </g>
  <g>
    <path class="st3" d="M24.29,79.94c0,.33-.07.62-.2.87s-.31.46-.54.63-.5.3-.8.38c-.3.09-.63.13-.97.13h-3.76v-7.79h4.17c.27,0,.52.06.74.18.22.12.41.27.56.46s.27.4.36.64c.08.24.13.48.13.72,0,.38-.1.74-.29,1.07-.19.33-.47.58-.83.74.45.13.8.37,1.06.71.26.34.39.77.39,1.28ZM19.52,75.46v1.96h2.02c.26,0,.47-.09.65-.26.18-.18.27-.42.27-.72s-.08-.54-.25-.71c-.16-.18-.37-.26-.61-.26h-2.09ZM22.76,79.66c0-.14-.02-.27-.07-.4-.05-.13-.11-.24-.19-.33-.08-.09-.18-.17-.29-.22-.11-.06-.23-.08-.36-.08h-2.33v2.05h2.25c.14,0,.27-.03.39-.08.12-.05.23-.12.31-.21.09-.09.16-.2.21-.32.05-.12.08-.26.08-.4Z"/>
    <path class="st3" d="M27.08,82.06c-.59,0-1.04-.19-1.35-.57-.31-.38-.46-.94-.46-1.69v-3.6h1.47v3.28c0,.88.32,1.33.96,1.33.29,0,.56-.09.83-.26s.48-.43.65-.78v-3.57h1.47v4.06c0,.15.03.26.08.33s.14.1.27.11v1.25c-.15.03-.27.05-.37.05-.1,0-.19.01-.27.01-.26,0-.48-.06-.64-.18s-.26-.29-.29-.5l-.03-.46c-.26.4-.59.69-.99.89-.4.2-.85.3-1.33.3Z"/>
    <path class="st3" d="M34.29,82.06c-.48,0-.95-.08-1.42-.23-.46-.15-.86-.37-1.19-.66l.55-.92c.35.25.69.44,1.03.56.33.13.66.19.99.19.29,0,.52-.05.69-.16s.25-.27.25-.47-.1-.35-.3-.45c-.2-.09-.52-.2-.97-.33-.37-.1-.69-.2-.96-.3-.26-.09-.48-.2-.64-.32-.16-.12-.28-.26-.35-.42s-.11-.35-.11-.57c0-.29.06-.56.17-.79.11-.23.27-.43.48-.6.2-.16.44-.29.72-.38s.57-.13.89-.13c.43,0,.84.06,1.21.19.38.12.72.33,1.04.6l-.59.89c-.29-.22-.58-.38-.85-.48s-.55-.15-.82-.15c-.25,0-.46.05-.63.15s-.25.27-.25.49c0,.1.02.19.06.25.04.07.1.12.19.18s.2.1.35.15c.14.05.32.1.53.15.4.1.73.21,1.02.31s.51.22.69.35c.18.13.31.28.4.46.08.17.13.38.13.62,0,.56-.21,1.01-.63,1.33-.42.33-.98.49-1.7.49Z"/>
    <path class="st3" d="M37.57,75.4v-1.46h1.47v1.46h-1.47ZM37.57,81.95v-5.75h1.47v5.75h-1.47Z"/>
    <path class="st3" d="M45.71,81.95h-1.47v-3.23c0-.46-.08-.8-.24-1.01-.16-.21-.38-.32-.67-.32-.15,0-.3.03-.45.09-.15.06-.3.14-.43.25-.14.11-.26.23-.37.38-.11.15-.19.31-.24.48v3.36h-1.47v-5.75h1.33v1.06c.21-.37.52-.65.92-.86.4-.2.86-.31,1.36-.31.36,0,.65.07.88.2.23.13.4.3.53.52.12.21.21.45.26.72s.07.54.07.82v3.59Z"/>
    <path class="st3" d="M49.66,82.06c-.46,0-.88-.08-1.25-.24-.37-.16-.69-.37-.96-.64-.26-.27-.47-.59-.61-.94s-.21-.74-.21-1.13.07-.8.21-1.16c.14-.36.34-.68.6-.95s.58-.49.96-.65c.38-.16.8-.24,1.27-.24s.89.08,1.26.24c.37.16.68.38.94.65.26.27.46.59.59.94.14.36.2.73.2,1.12,0,.1,0,.19,0,.27,0,.09-.01.16-.03.22h-4.45c.02.23.08.43.16.6.09.18.2.33.34.45.14.12.3.22.47.29.18.07.36.1.55.1.29,0,.57-.07.83-.21s.44-.33.53-.56l1.26.35c-.21.44-.55.8-1.02,1.08-.46.28-1.02.42-1.66.42ZM51.16,78.6c-.04-.43-.2-.78-.48-1.04-.28-.26-.62-.39-1.03-.39-.2,0-.38.03-.55.1-.17.07-.32.17-.46.29-.13.12-.24.27-.32.45-.08.18-.13.37-.15.58h2.99Z"/>
    <path class="st3" d="M55.74,82.06c-.48,0-.95-.08-1.42-.23-.46-.15-.86-.37-1.19-.66l.55-.92c.35.25.69.44,1.03.56.33.13.66.19.99.19.29,0,.52-.05.69-.16s.25-.27.25-.47-.1-.35-.3-.45c-.2-.09-.52-.2-.97-.33-.37-.1-.69-.2-.96-.3-.26-.09-.48-.2-.64-.32-.16-.12-.28-.26-.35-.42s-.11-.35-.11-.57c0-.29.06-.56.17-.79.11-.23.27-.43.48-.6.2-.16.44-.29.72-.38s.57-.13.89-.13c.43,0,.84.06,1.21.19.38.12.72.33,1.04.6l-.59.89c-.29-.22-.58-.38-.85-.48s-.55-.15-.82-.15c-.25,0-.46.05-.63.15s-.25.27-.25.49c0,.1.02.19.06.25.04.07.1.12.19.18s.2.1.35.15c.14.05.32.1.53.15.4.1.73.21,1.02.31s.51.22.69.35c.18.13.31.28.4.46.08.17.13.38.13.62,0,.56-.21,1.01-.63,1.33-.42.33-.98.49-1.7.49Z"/>
    <path class="st3" d="M61.2,82.06c-.48,0-.95-.08-1.42-.23-.46-.15-.86-.37-1.19-.66l.55-.92c.35.25.69.44,1.03.56.33.13.66.19.99.19.29,0,.52-.05.69-.16s.25-.27.25-.47-.1-.35-.3-.45c-.2-.09-.52-.2-.97-.33-.37-.1-.69-.2-.96-.3-.26-.09-.48-.2-.64-.32-.16-.12-.28-.26-.35-.42s-.11-.35-.11-.57c0-.29.06-.56.17-.79.11-.23.27-.43.48-.6.2-.16.44-.29.72-.38s.57-.13.89-.13c.43,0,.84.06,1.21.19.38.12.72.33,1.04.6l-.59.89c-.29-.22-.58-.38-.85-.48s-.55-.15-.82-.15c-.25,0-.46.05-.63.15s-.25.27-.25.49c0,.1.02.19.06.25.04.07.1.12.19.18s.2.1.35.15c.14.05.32.1.53.15.4.1.73.21,1.02.31s.51.22.69.35c.18.13.31.28.4.46.08.17.13.38.13.62,0,.56-.21,1.01-.63,1.33-.42.33-.98.49-1.7.49Z"/>
    <path class="st3" d="M67.26,81.95v-7.79h3.3c.36,0,.69.08.99.23.3.15.56.35.78.59s.39.52.52.83c.12.31.19.62.19.94s-.06.65-.18.96-.28.59-.49.83c-.21.24-.47.44-.77.58-.3.15-.63.22-.99.22h-1.84v2.61h-1.51ZM68.77,78.01h1.76c.28,0,.51-.11.7-.34.19-.23.28-.53.28-.92,0-.2-.03-.38-.09-.53-.06-.16-.14-.29-.23-.4-.1-.11-.21-.19-.33-.25-.13-.06-.26-.08-.39-.08h-1.69v2.52Z"/>
    <path class="st3" d="M73.94,73.94h1.47v6.17c0,.21.05.38.15.49s.25.18.44.18c.09,0,.18-.01.29-.04.11-.03.21-.07.3-.11l.2,1.12c-.2.1-.43.17-.69.22-.26.05-.5.08-.71.08-.46,0-.82-.12-1.07-.37s-.38-.59-.38-1.05v-6.68Z"/>
    <path class="st3" d="M79,82.06c-.28,0-.54-.05-.78-.14-.24-.09-.45-.22-.63-.38-.18-.16-.31-.36-.41-.58-.1-.22-.15-.46-.15-.72s.06-.52.18-.75.29-.43.5-.59c.22-.16.47-.29.77-.38.3-.09.63-.14.99-.14.26,0,.51.02.75.07s.46.11.65.19v-.33c0-.38-.11-.67-.32-.88-.22-.2-.54-.31-.96-.31-.31,0-.61.05-.9.16-.29.11-.59.27-.9.48l-.45-.93c.74-.49,1.54-.73,2.39-.73s1.47.2,1.93.61c.46.41.69.99.69,1.76v1.79c0,.15.03.26.08.33.05.07.14.1.27.11v1.25c-.25.05-.46.08-.65.08-.28,0-.49-.06-.64-.19-.15-.12-.24-.29-.28-.49l-.03-.32c-.26.34-.57.59-.93.77-.37.18-.76.26-1.17.26ZM79.42,80.99c.25,0,.48-.04.71-.13.22-.09.4-.21.52-.35.16-.12.24-.26.24-.42v-.66c-.18-.07-.37-.12-.57-.16-.21-.04-.4-.06-.59-.06-.38,0-.69.09-.93.26-.24.17-.36.39-.36.65,0,.25.1.46.29.62.19.16.42.25.7.25Z"/>
    <path class="st3" d="M89.08,81.95h-1.47v-3.23c0-.46-.08-.8-.24-1.01-.16-.21-.38-.32-.67-.32-.15,0-.3.03-.45.09-.15.06-.3.14-.43.25-.14.11-.26.23-.37.38-.11.15-.19.31-.24.48v3.36h-1.47v-5.75h1.33v1.06c.21-.37.52-.65.92-.86.4-.2.86-.31,1.36-.31.36,0,.65.07.88.2.23.13.4.3.53.52.12.21.21.45.26.72s.07.54.07.82v3.59Z"/>
    <path class="st2" d="M17.69,94.92c0-.2.02-.43.05-.69.04-.25.12-.51.25-.77.13-.26.31-.51.56-.76s.57-.47.98-.66c.21-.1.42-.2.66-.31s.45-.22.65-.36c.2-.14.36-.29.49-.47.13-.18.2-.39.2-.64,0-.15-.03-.29-.1-.44-.07-.15-.16-.28-.29-.4-.13-.12-.29-.21-.49-.29-.2-.07-.43-.11-.69-.11s-.48.04-.69.11c-.2.07-.38.16-.53.26s-.27.21-.37.31c-.1.1-.17.18-.21.24l-.37-.38.21-.21c.11-.11.27-.23.46-.35.19-.12.42-.23.69-.33.27-.1.57-.15.89-.15s.62.05.88.14.48.22.66.37.31.34.41.55c.09.21.14.43.14.65,0,.3-.07.56-.22.78-.15.22-.33.41-.54.58-.21.16-.43.3-.66.41-.23.11-.43.2-.6.27-.57.24-1.01.53-1.31.86s-.46.75-.48,1.26h3.93v.5h-4.56Z"/>
    <path class="st2" d="M28.85,91.71c0,.48-.07.93-.2,1.33-.14.41-.33.76-.57,1.05s-.53.53-.87.69-.7.25-1.09.25-.76-.08-1.09-.25-.62-.4-.86-.69-.43-.65-.57-1.05c-.14-.41-.2-.85-.2-1.33s.07-.93.2-1.33c.14-.41.32-.76.57-1.05.24-.3.53-.53.86-.7.33-.17.7-.25,1.09-.25s.76.08,1.09.25c.33.17.62.4.87.7.25.3.44.65.57,1.05.14.41.2.85.2,1.33ZM28.29,91.71c0-.42-.05-.8-.16-1.15-.11-.35-.25-.64-.44-.89s-.42-.44-.69-.58c-.27-.14-.56-.21-.88-.21s-.62.07-.88.21c-.27.14-.5.33-.69.58-.19.25-.34.54-.44.89s-.16.73-.16,1.15.05.8.16,1.14.25.64.44.89c.19.25.42.44.69.58s.56.2.88.2.62-.07.88-.2.5-.33.69-.58.34-.54.44-.89c.11-.34.16-.72.16-1.14Z"/>
    <path class="st2" d="M29.97,94.92c0-.2.02-.43.05-.69.04-.25.12-.51.25-.77.13-.26.31-.51.56-.76s.57-.47.98-.66c.21-.1.42-.2.66-.31s.45-.22.65-.36c.2-.14.36-.29.49-.47.13-.18.2-.39.2-.64,0-.15-.03-.29-.1-.44-.07-.15-.16-.28-.29-.4-.13-.12-.29-.21-.49-.29-.2-.07-.43-.11-.69-.11s-.48.04-.69.11c-.2.07-.38.16-.53.26s-.27.21-.37.31c-.1.1-.17.18-.21.24l-.37-.38.21-.21c.11-.11.27-.23.46-.35.19-.12.42-.23.69-.33.27-.1.57-.15.89-.15s.62.05.88.14.48.22.66.37.31.34.41.55c.09.21.14.43.14.65,0,.3-.07.56-.22.78-.15.22-.33.41-.54.58-.21.16-.43.3-.66.41-.23.11-.43.2-.6.27-.57.24-1.01.53-1.31.86s-.46.75-.48,1.26h3.93v.5h-4.56Z"/>
    <path class="st2" d="M41.16,92.37c0,.37-.07.72-.21,1.04s-.33.6-.58.84c-.25.24-.54.43-.87.57-.33.14-.69.21-1.07.21-.4,0-.77-.07-1.11-.22-.34-.15-.63-.35-.88-.63-.25-.27-.44-.6-.58-.99-.14-.39-.21-.84-.21-1.33,0-.82.07-1.53.21-2.13.14-.6.33-1.1.58-1.49.25-.4.55-.69.89-.88.35-.19.73-.29,1.15-.29.53,0,.99.14,1.4.41.41.27.71.64.91,1.11l-.38.3c-.15-.4-.4-.71-.75-.95-.35-.24-.74-.36-1.17-.36-.34,0-.66.08-.94.25-.28.16-.52.41-.72.72-.2.32-.35.71-.47,1.17-.11.46-.17.99-.17,1.58.08-.23.2-.45.35-.64s.33-.36.53-.5c.2-.14.42-.25.66-.32.24-.08.49-.12.76-.12.37,0,.72.07,1.04.21.32.14.6.33.85.57.24.24.43.52.57.84.14.32.21.67.21,1.03ZM38.43,94.54c.3,0,.58-.06.85-.17.27-.11.5-.27.7-.47.2-.2.35-.43.47-.69.12-.26.18-.54.18-.84s-.06-.58-.18-.85c-.12-.26-.27-.49-.47-.69-.2-.2-.43-.35-.7-.47-.27-.12-.55-.18-.85-.18s-.58.06-.85.18c-.27.12-.5.27-.7.47-.2.2-.35.43-.47.69-.12.26-.18.55-.18.85s.06.58.18.84c.12.26.27.49.47.69.2.2.43.35.7.47.27.11.55.17.85.17Z"/>
  </g>
</svg>