<?xml version="1.0" encoding="UTF-8"?>
<svg xmlns="http://www.w3.org/2000/svg" version="1.1" viewBox="0 0 408.5 578.1">
  <defs>
    <style>
      .cls-1 {
        fill: #d3dfee;
      }

      .cls-2 {
        stroke: #d3dfee;
      }

      .cls-2, .cls-3, .cls-4, .cls-5, .cls-6, .cls-7, .cls-8, .cls-9, .cls-10 {
        fill: none;
        stroke-linecap: round;
        stroke-miterlimit: 10;
      }

      .cls-2, .cls-5, .cls-9, .cls-10 {
        stroke-width: 18px;
      }

      .cls-3 {
        stroke: #f2f2f2;
      }

      .cls-3, .cls-8 {
        stroke-width: 9px;
      }

      .cls-11 {
        fill: #fff;
      }

      .cls-12 {
        fill: #2160a9;
      }

      .cls-4 {
        stroke-width: 1.5px;
      }

      .cls-4, .cls-7, .cls-9 {
        stroke: #f5f5f5;
      }

      .cls-13 {
        fill: #fdf2d4;
      }

      .cls-5 {
        stroke: #d6e6e2;
      }

      .cls-6 {
        stroke: #e6edf6;
        stroke-width: 6px;
      }

      .cls-7 {
        stroke-width: 10px;
      }

      .cls-8 {
        stroke: #e9eff6;
      }

      .cls-14 {
        fill: #c1dad4;
      }

      .cls-15 {
        fill: #fbe3e5;
      }

      .cls-16 {
        fill: #f5f5f5;
      }

      .cls-10 {
        stroke: #fbe3e5;
      }
    </style>
  </defs>
  <!-- Generator: Adobe Illustrator 28.7.10, SVG Export Plug-In . SVG Version: 1.2.0 Build 236)  -->
  <g>
    <g id="Layer_1">
      <rect class="cls-11" x="-.4" y="-.1" width="408.9" height="578.3"/>
      <g>
        <line class="cls-3" x1="37.2" y1="109.4" x2="188.1" y2="109.4"/>
        <line class="cls-3" x1="37.2" y1="125.1" x2="188.1" y2="125.1"/>
        <line class="cls-3" x1="37.2" y1="140.9" x2="188.1" y2="140.9"/>
      </g>
      <g>
        <line class="cls-3" x1="37.2" y1="166.9" x2="102.9" y2="166.9"/>
        <line class="cls-3" x1="37.2" y1="182.6" x2="102.9" y2="182.6"/>
        <line class="cls-3" x1="37.2" y1="198.4" x2="102.9" y2="198.4"/>
      </g>
      <g>
        <line class="cls-3" x1="122.4" y1="166.9" x2="188.1" y2="166.9"/>
        <line class="cls-3" x1="122.4" y1="182.6" x2="188.1" y2="182.6"/>
        <line class="cls-3" x1="122.4" y1="198.4" x2="188.1" y2="198.4"/>
      </g>
      <g>
        <line class="cls-3" x1="37.2" y1="231.1" x2="188.1" y2="231.1"/>
        <line class="cls-3" x1="37.2" y1="246.8" x2="188.1" y2="246.8"/>
        <line class="cls-3" x1="37.2" y1="262.6" x2="188.1" y2="262.6"/>
      </g>
      <g>
        <circle class="cls-9" cx="93.7" cy="346.9" r="37.4"/>
        <path class="cls-10" d="M93.7,309.6c20.6,0,37.4,16.7,37.4,37.4"/>
      </g>
      <g>
        <circle class="cls-9" cx="199.5" cy="346.9" r="37.4"/>
        <path class="cls-5" d="M199.5,309.6c20.6,0,37.4,16.7,37.4,37.4s-16.7,37.4-37.4,37.4-37.4-16.7-37.4-37.4"/>
      </g>
      <g>
        <circle class="cls-9" cx="303.8" cy="346.9" r="37.4"/>
        <path class="cls-2" d="M303.8,309.6c20.6,0,37.4,16.7,37.4,37.4s-16.7,37.4-37.4,37.4"/>
      </g>
      <g>
        <line class="cls-3" x1="61.2" y1="415.7" x2="129.8" y2="415.7"/>
        <line class="cls-3" x1="61.2" y1="431.5" x2="129.8" y2="431.5"/>
        <line class="cls-3" x1="61.2" y1="447.2" x2="108.1" y2="447.2"/>
      </g>
      <g>
        <line class="cls-3" x1="167.2" y1="415.7" x2="234.2" y2="415.7"/>
        <line class="cls-3" x1="167.2" y1="431.5" x2="213" y2="431.5"/>
        <line class="cls-3" x1="167.2" y1="447.2" x2="234.2" y2="447.2"/>
      </g>
      <g>
        <line class="cls-3" x1="271.9" y1="415.7" x2="339.1" y2="415.7"/>
        <line class="cls-3" x1="271.9" y1="431.5" x2="339.1" y2="431.5"/>
      </g>
      <g>
        <rect class="cls-12" x="57.6" y="409.7" width="13.9" height="13.9" rx="2.2" ry="2.2"/>
        <g>
          <line class="cls-4" x1="64.5" y1="412.6" x2="64.5" y2="420.7"/>
          <line class="cls-4" x1="60.5" y1="416.6" x2="68.5" y2="416.6"/>
        </g>
      </g>
      <g>
        <rect class="cls-12" x="163.2" y="409.7" width="13.9" height="13.9" rx="2.2" ry="2.2"/>
        <g>
          <line class="cls-4" x1="170.2" y1="412.6" x2="170.2" y2="420.7"/>
          <line class="cls-4" x1="166.2" y1="416.6" x2="174.2" y2="416.6"/>
        </g>
      </g>
      <g>
        <rect class="cls-12" x="268.5" y="409.7" width="13.9" height="13.9" rx="2.2" ry="2.2"/>
        <g>
          <line class="cls-4" x1="275.4" y1="412.6" x2="275.4" y2="420.7"/>
          <line class="cls-4" x1="271.4" y1="416.6" x2="279.5" y2="416.6"/>
        </g>
      </g>
      <path class="cls-12" d="M90.5,344.3c-.6,0-1.1,0-1.6-.3s-.9-.4-1.3-.7c-.4-.3-.7-.6-.9-1s-.3-.8-.3-1.3.1-.9.3-1.3.5-.8.9-1c.4-.3.8-.5,1.3-.7s1-.3,1.6-.3,1.1,0,1.6.3.9.4,1.3.7c.4.3.7.6.9,1,.2.4.3.8.3,1.3s-.1.9-.3,1.3-.5.8-.9,1c-.4.3-.8.5-1.3.7-.5.2-1.1.3-1.6.3ZM87.8,352.4l7.1-7.1,6.5-7.4,1.5,1.2-6.8,7-6.7,7.5-1.5-1.2h0ZM90.5,342.9c.2,0,.5,0,.7-.1s.4-.2.6-.4c.2-.2.3-.4.4-.6s.1-.5.1-.7c0-.5-.2-.9-.5-1.3s-.8-.5-1.2-.5-.5,0-.7.1-.4.2-.6.4c-.2.2-.3.4-.4.6s-.1.5-.1.7c0,.5.2.9.5,1.3s.8.5,1.2.5ZM100.2,353.6c-.6,0-1.1,0-1.6-.3s-.9-.4-1.3-.7-.7-.6-.9-1-.3-.8-.3-1.3.1-.9.3-1.3.5-.8.9-1c.4-.3.8-.5,1.3-.7.5-.2,1-.3,1.6-.3s1.1,0,1.6.3.9.4,1.3.7.7.6.9,1,.3.8.3,1.3-.1.9-.3,1.3c-.2.4-.5.7-.9,1s-.8.5-1.3.7c-.5.2-1,.3-1.6.3ZM100.2,352.1c.2,0,.5,0,.7-.1s.4-.2.6-.4c.2-.2.3-.4.4-.6s.1-.5.1-.7,0-.5-.1-.7c-.1-.2-.2-.4-.4-.6-.2-.2-.4-.3-.6-.4-.2,0-.4-.1-.7-.1s-.5,0-.7.1-.4.2-.6.4c-.2.2-.3.4-.4.6s-.1.5-.1.7c0,.5.2.9.5,1.3s.8.5,1.2.5h0Z"/>
      <path class="cls-12" d="M194.7,344.3c-.6,0-1.1,0-1.6-.3s-.9-.4-1.3-.7c-.4-.3-.7-.6-.9-1s-.3-.8-.3-1.3.1-.9.3-1.3.5-.8.9-1,.8-.5,1.3-.7,1-.3,1.6-.3,1.1,0,1.6.3,1,.4,1.3.7c.4.3.7.6.9,1,.2.4.3.8.3,1.3s-.1.9-.3,1.3-.5.8-.9,1c-.4.3-.8.5-1.3.7-.5.2-1,.3-1.6.3ZM192,352.4l7.1-7.1,6.5-7.4,1.5,1.2-6.8,7-6.7,7.5-1.5-1.2h0ZM194.7,342.9c.2,0,.5,0,.7-.1s.4-.2.6-.4c.2-.2.3-.4.4-.6,0-.2.1-.5.1-.7,0-.5-.2-.9-.5-1.3s-.8-.5-1.2-.5-.5,0-.7.1-.4.2-.6.4c-.2.2-.3.4-.4.6s-.1.5-.1.7c0,.5.2.9.5,1.3.4.4.8.5,1.2.5ZM204.4,353.6c-.6,0-1.1,0-1.6-.3s-.9-.4-1.3-.7-.7-.6-.9-1-.3-.8-.3-1.3.1-.9.3-1.3.5-.8.9-1c.4-.3.8-.5,1.3-.7.5-.2,1-.3,1.6-.3s1.1,0,1.6.3.9.4,1.3.7.7.6.9,1,.3.8.3,1.3-.1.9-.3,1.3-.5.7-.9,1-.8.5-1.3.7c-.5.2-1,.3-1.6.3ZM204.4,352.1c.2,0,.5,0,.7-.1s.4-.2.6-.4.3-.4.4-.6.1-.5.1-.7,0-.5-.1-.7c-.1-.2-.2-.4-.4-.6-.2-.2-.4-.3-.6-.4s-.4-.1-.7-.1-.5,0-.7.1-.4.2-.6.4-.3.4-.4.6c0,.2-.1.5-.1.7,0,.5.2.9.5,1.3s.8.5,1.2.5h0Z"/>
      <path class="cls-12" d="M298.6,345.3c-.6,0-1.1,0-1.6-.3s-.9-.4-1.3-.7c-.4-.3-.7-.6-.9-1s-.3-.8-.3-1.3.1-.9.3-1.3.5-.8.9-1,.8-.5,1.3-.7,1-.3,1.6-.3,1.1,0,1.6.3,1,.4,1.3.7c.4.3.7.6.9,1,.2.4.3.8.3,1.3s-.1.9-.3,1.3-.5.8-.9,1c-.4.3-.8.5-1.3.7-.5.2-1,.3-1.6.3ZM295.9,353.4l7.1-7.1,6.5-7.4,1.5,1.2-6.8,7-6.7,7.5-1.5-1.2h0ZM298.6,343.9c.2,0,.5,0,.7-.1s.4-.2.6-.4c.2-.2.3-.4.4-.6,0-.2.1-.5.1-.7,0-.5-.2-.9-.5-1.3s-.8-.5-1.2-.5-.5,0-.7.1-.4.2-.6.4c-.2.2-.3.4-.4.6s-.1.5-.1.7c0,.5.2.9.5,1.3.4.4.8.5,1.2.5ZM308.3,354.6c-.6,0-1.1,0-1.6-.3s-.9-.4-1.3-.7-.7-.6-.9-1-.3-.8-.3-1.3.1-.9.3-1.3.5-.8.9-1c.4-.3.8-.5,1.3-.7.5-.2,1-.3,1.6-.3s1.1,0,1.6.3.9.4,1.3.7.7.6.9,1,.3.8.3,1.3-.1.9-.3,1.3-.5.7-.9,1-.8.5-1.3.7c-.5.2-1,.3-1.6.3ZM308.3,353.1c.2,0,.5,0,.7-.1s.4-.2.6-.4.3-.4.4-.6.1-.5.1-.7,0-.5-.1-.7c-.1-.2-.2-.4-.4-.6-.2-.2-.4-.3-.6-.4s-.4-.1-.7-.1-.5,0-.7.1-.4.2-.6.4-.3.4-.4.6c0,.2-.1.5-.1.7,0,.5.2.9.5,1.3s.8.5,1.2.5h0Z"/>
      <g>
        <g>
          <rect class="cls-14" x="334.2" y="96" width="30.4" height="107.9" rx="3.6" ry="3.6"/>
          <rect class="cls-1" x="297.9" y="108.5" width="30.4" height="95.4" rx="3.6" ry="3.6"/>
          <rect class="cls-15" x="260.8" y="134.2" width="30.4" height="69.7" rx="3.6" ry="3.6"/>
          <rect class="cls-13" x="223.7" y="162.2" width="30.4" height="41.7" rx="3.6" ry="3.6"/>
        </g>
        <line class="cls-7" x1="227" y1="125.5" x2="339.4" y2="67.8"/>
        <polyline class="cls-16" points="327.4 52.4 360.9 55.3 344.9 83.8"/>
      </g>
      <g>
        <line class="cls-8" x1="222.5" y1="232.5" x2="285.2" y2="232.5"/>
        <line class="cls-8" x1="222.5" y1="248.2" x2="285.2" y2="248.2"/>
        <line class="cls-8" x1="222.5" y1="264" x2="285.2" y2="264"/>
      </g>
      <g>
        <line class="cls-8" x1="303.8" y1="232.5" x2="366.6" y2="232.5"/>
        <line class="cls-8" x1="303.8" y1="248.2" x2="366.6" y2="248.2"/>
        <line class="cls-8" x1="303.8" y1="264" x2="366.6" y2="264"/>
      </g>
      <g>
        <g>
          <path class="cls-12" d="M62.2,56.5s0,0,0,.1c0-.5.1-1,.1-1.6-.2-1.9-.6-3.9-1-6.1-.2-.5-.4-.9-.6-1.4.7,3.2,1.2,6.1,1.5,8.9h0Z"/>
          <path class="cls-12" d="M61.8,57.5c-.3-3.2-.8-6.8-1.5-10.7-.1-.3-.3-.5-.5-.8.8,4.2,1.4,8,1.7,11.5,0,.7.1,1.4.1,2,.1-.3.2-.6.3-.9,0-.4,0-.7,0-1.1Z"/>
          <path class="cls-12" d="M61,58.4c-.2-3.8-.7-8.2-1.6-12.9-.1-.2-.3-.4-.4-.6.9,5,1.5,9.5,1.7,13.5,0,1.2,0,2.3,0,3.4.1-.2.2-.5.3-.7,0-.9,0-1.7,0-2.7h0Z"/>
          <path class="cls-12" d="M58.3,44c1,5.7,1.5,10.8,1.5,15.2,0,1.6,0,3.1-.2,4.5.1-.2.3-.4.4-.6,0-1.2.1-2.5.1-3.9,0-4.3-.5-9.3-1.4-14.7-.1-.2-.3-.3-.4-.5h0Z"/>
          <path class="cls-12" d="M57.6,43.3c.9,6.3,1.4,11.9,1.2,16.7,0,2-.2,3.9-.5,5.5.1-.2.3-.3.4-.5.2-1.5.4-3.1.4-4.9.2-4.6-.2-10.2-1.1-16.3-.1-.1-.3-.3-.4-.4h0Z"/>
          <path class="cls-12" d="M57,42.7c.9,6.8,1.1,12.9.8,18-.2,2.4-.5,4.5-1,6.3.2-.1.3-.3.5-.4.4-1.7.7-3.6.9-5.9.4-4.9.1-10.9-.7-17.6-.1-.1-.3-.2-.4-.4h0Z"/>
          <path class="cls-12" d="M56.8,42.5c-.1-.1-.3-.2-.4-.3.8,7.3.9,13.8.2,19.1-.4,2.8-.9,5.2-1.7,7.1.2-.1.3-.2.5-.4.7-1.8,1.2-4.1,1.5-6.7.6-5.2.6-11.6-.2-18.8h0Z"/>
          <path class="cls-12" d="M55.4,61.8c-.6,3.2-1.4,5.7-2.4,7.7.2,0,.4-.2.6-.3,1-1.9,1.7-4.4,2.3-7.3.9-5.4,1.1-12.1.5-19.8-.1,0-.2-.2-.4-.3.6,7.8.5,14.6-.5,20h0Z"/>
          <path class="cls-12" d="M51.1,69.7c0,0-.1.1-.1.2,0,.1-.2.3-.3.4.2,0,.4-.1.6-.2,0,0,0-.1.1-.2.2-.3.4-.6.5-.8,0,0,0-.2.1-.2,1-1.8,1.8-3.9,2.4-6.5,1.3-5.5,1.7-12.6,1.3-20.7-.1,0-.2-.2-.4-.3.4,8.2,0,15.3-1.3,20.9-.6,2.5-1.4,4.7-2.3,6.4,0,0,0,.2-.1.2-.2.3-.3.6-.5.9h0Z"/>
          <path class="cls-12" d="M49.9,68.7c0,0-.1.1-.1.2-.2.3-.4.6-.6.8,0,0-.1.1-.2.2-.2.2-.4.5-.6.7,0,0,0,0-.1.1.2,0,.4,0,.6-.1.1-.2.3-.3.4-.5,0,0,.1-.1.2-.2.2-.2.4-.5.6-.8,0,0,.1-.1.1-.2.2-.3.4-.6.5-.9,0,0,0-.2.1-.2.8-1.5,1.5-3.2,2.1-5.2,1.6-5.6,2.4-12.9,2.2-21.4-.1,0-.2-.2-.4-.2.2,8.5-.5,15.9-2.2,21.5-.6,1.9-1.2,3.6-2,5.1,0,0,0,.2-.1.2-.2.3-.4.6-.5.9h0Z"/>
          <path class="cls-12" d="M48.7,67.7c0,0-.1.2-.1.2-.2.3-.4.6-.6.8,0,0-.1.1-.2.2-.2.3-.4.5-.6.8,0,0-.1.1-.2.2-.2.2-.5.4-.7.6,0,0-.2.1-.2.2,0,0-.1.1-.2.2h.6c0,0,0,0,.1-.1.2-.2.5-.4.7-.6,0,0,.1-.1.2-.2.2-.2.4-.5.6-.7,0,0,.1-.1.2-.2.2-.3.4-.5.6-.8,0,0,.1-.2.1-.2.2-.3.4-.6.6-.9,0,0,0-.2.1-.2.6-1.1,1.2-2.4,1.8-3.9,2.1-5.6,3.1-13.2,3.2-22-.1,0-.3-.2-.4-.2-.1,8.8-1.2,16.4-3.2,22.1-.5,1.4-1.1,2.6-1.7,3.8,0,0,0,.2-.1.2-.2.3-.4.6-.6.9Z"/>
          <path class="cls-12" d="M45.1,70c0,0,.1-.1.2-.2.2-.2.5-.4.7-.7,0,0,.1-.1.2-.2.2-.2.4-.5.7-.8,0,0,.1-.1.2-.2.2-.3.4-.6.6-.9,0,0,.1-.2.2-.2.2-.3.4-.6.6-.9,0,0,0-.2.1-.2.5-.8.9-1.7,1.3-2.6,2.5-5.6,3.9-13.4,4.4-22.5-.1,0-.3-.2-.4-.2-.4,9.1-1.9,16.9-4.4,22.5-.4.9-.8,1.7-1.2,2.5,0,0,0,.2-.1.2-.2.3-.4.6-.6.9,0,0-.1.2-.2.2-.2.3-.4.6-.6.9,0,0-.1.1-.2.2-.2.3-.4.5-.7.8,0,0-.1.1-.2.2-.2.2-.5.5-.7.7,0,0-.1.1-.2.2-.2.2-.5.4-.7.6-.1,0-.2.1-.3.2,0,0-.2.1-.3.2.2,0,.4,0,.6,0,0,0,0,0,0,0,.1,0,.2-.1.3-.2.2-.2.5-.4.7-.6h0Z"/>
          <path class="cls-12" d="M43.8,68.9c0,0,.2-.1.2-.2.2-.2.5-.5.7-.7,0,0,.1-.1.2-.2.2-.2.5-.5.7-.8,0,0,.1-.1.2-.2.2-.3.4-.6.6-.9,0,0,.1-.2.2-.2.2-.3.4-.6.6-.9,0,0,.1-.2.1-.2.3-.4.5-.9.8-1.3,2.9-5.6,4.8-13.5,5.6-22.8-.1,0-.3-.1-.4-.2-.8,9.3-2.6,17.2-5.6,22.8-.2.4-.4.8-.7,1.2,0,0-.1.2-.1.2-.2.3-.4.6-.6.9,0,0-.1.2-.2.2-.2.3-.4.6-.6.9,0,0-.1.1-.2.2-.2.3-.4.6-.7.8,0,0-.1.1-.2.2-.2.3-.5.5-.7.7,0,0-.2.1-.2.2-.2.2-.5.4-.7.6,0,0-.2.2-.3.2-.2.2-.5.3-.8.5-.1,0-.2.1-.4.2,0,0-.1,0-.2,0,.2,0,.3.1.5.1,0,0,.2-.1.3-.2.2-.1.5-.3.7-.5,0,0,.2-.1.3-.2.2-.2.5-.4.7-.6h0Z"/>
          <path class="cls-12" d="M41.5,68.5c0,0,.2-.2.3-.2.2-.2.5-.4.7-.6,0,0,.2-.1.2-.2.2-.2.5-.5.8-.7,0,0,.1-.1.2-.2.2-.3.5-.5.7-.8,0,0,.1-.1.2-.2.2-.3.4-.6.7-.9,0,0,.1-.2.2-.2.2-.3.4-.6.6-.9,0,0,.1-.2.2-.2,0,0,0,0,0-.1,3.4-5.5,5.8-13.4,7-23-.1,0-.3-.1-.4-.2-1.2,9.5-3.5,17.5-6.9,22.9,0,0,0,0,0,0,0,0-.1.2-.2.2-.2.3-.4.6-.6.9,0,0-.1.2-.2.2-.2.3-.4.6-.6.9,0,0-.1.1-.2.2-.2.3-.5.6-.7.8,0,0-.1.1-.2.2-.2.3-.5.5-.8.8,0,0-.2.1-.2.2-.2.2-.5.4-.7.6,0,0-.2.2-.3.2-.3.2-.5.4-.8.5-.1,0-.2.1-.3.2-.3.2-.5.3-.8.4,0,0,0,0,0,0,.2,0,.3.1.5.2.2-.1.5-.3.7-.4.1,0,.2-.1.3-.2.3-.2.5-.3.8-.5h0Z"/>
          <path class="cls-12" d="M39,67.9c.1,0,.2-.1.3-.2.3-.2.5-.4.8-.6,0,0,.2-.1.3-.2.3-.2.5-.4.8-.6,0,0,.2-.1.2-.2.3-.2.5-.5.8-.7,0,0,.1-.1.2-.2.2-.3.5-.5.7-.8,0,0,.1-.1.2-.2.2-.3.4-.6.7-.8,0,0,.1-.1.2-.2,0,0,0,0,0-.1.2-.2.4-.5.5-.8,0,0,.1-.2.2-.2,3.6-5.3,6.2-12.9,7.8-22-.1,0-.3-.1-.4-.2-1.6,9-4.1,16.6-7.7,21.9,0,0-.1.2-.2.2-.2.3-.4.6-.6.8,0,0,0,0,0,0,0,0-.1.2-.2.2-.2.3-.4.6-.7.8,0,0-.1.1-.2.2-.2.3-.5.5-.7.8,0,0-.1.1-.2.2-.3.3-.5.5-.8.8,0,0-.2.1-.2.2-.2.2-.5.4-.8.6,0,0-.2.2-.3.2-.3.2-.5.4-.8.6-.1,0-.2.1-.3.2-.3.2-.6.3-.8.5-.1,0-.3.1-.4.2,0,0-.1,0-.2,0,.1,0,.3.2.4.3,0,0,0,0,0,0,.1,0,.3-.1.4-.2.3-.1.6-.3.8-.5h0Z"/>
          <path class="cls-12" d="M37.7,66.5c.1,0,.2-.1.3-.2.3-.2.6-.4.8-.6,0,0,.2-.1.3-.2.3-.2.5-.4.8-.6,0,0,.2-.1.2-.2.3-.2.5-.5.8-.7,0,0,.1-.1.2-.2.2-.2.5-.5.8-.8,0,0,.1-.1.2-.2,0,0,0,0,0-.1.2-.2.4-.5.6-.7,0,0,.1-.1.2-.2.2-.3.4-.6.7-.8,0,0,.1-.2.2-.2,3.7-5.1,6.6-12.3,8.5-20.9-.1,0-.3-.1-.4-.2-1.9,8.5-4.7,15.6-8.3,20.7,0,0-.1.2-.2.2-.2.3-.4.6-.7.8,0,0-.1.1-.2.2-.2.3-.4.5-.7.8,0,0,0,0,0,0,0,0-.1.1-.2.2-.2.3-.5.5-.8.8,0,0-.1.1-.2.2-.3.3-.5.5-.8.7,0,0-.2.1-.2.2-.3.2-.5.4-.8.6,0,0-.2.1-.3.2-.3.2-.6.4-.8.6-.1,0-.2.1-.3.2-.3.2-.6.3-.9.5-.1,0-.2.1-.4.2-.2,0-.3.2-.5.2.1.1.2.2.4.3.2,0,.3-.1.4-.2.1,0,.3-.1.4-.2.3-.1.6-.3.9-.5h0Z"/>
          <path class="cls-12" d="M36.3,65c.1,0,.2-.1.3-.2.3-.2.6-.4.9-.6,0,0,.2-.1.3-.2.3-.2.6-.4.8-.6,0,0,.2-.1.2-.2.3-.2.6-.5.8-.7,0,0,.2-.1.2-.2,0,0,0,0,0,0,.2-.2.4-.4.7-.7,0,0,.1-.1.2-.2.2-.3.5-.5.7-.8,0,0,.1-.1.2-.2.2-.3.4-.5.7-.8,0,0,.1-.1.2-.2,3.8-4.9,6.9-11.6,9.1-19.7-.1,0-.3,0-.4-.2-2.2,8-5.2,14.7-9,19.5,0,0-.1.1-.2.2-.2.3-.4.6-.7.8,0,0-.1.1-.2.2-.2.3-.5.5-.7.8,0,0-.1.1-.2.2-.2.2-.5.5-.7.7,0,0,0,0,0,0,0,0-.2.1-.2.2-.3.2-.6.5-.8.7,0,0-.2.1-.2.2-.3.2-.6.4-.8.6,0,0-.2.1-.3.2-.3.2-.6.4-.9.6-.1,0-.2.1-.3.2-.3.2-.6.4-.9.5-.1,0-.2.1-.4.2-.2.1-.4.2-.6.3,0,.1.2.2.3.3.2-.1.4-.2.6-.3.1,0,.2-.1.4-.2.3-.2.6-.3.9-.5h0Z"/>
          <path class="cls-12" d="M35,63.5c.1,0,.2-.1.3-.2.3-.2.6-.4.9-.6,0,0,.2-.1.3-.2.3-.2.6-.4.9-.6,0,0,.2-.1.2-.2,0,0,0,0,0,0,.2-.2.5-.4.8-.6,0,0,.2-.1.2-.2.3-.2.5-.5.8-.7,0,0,.1-.1.2-.2.2-.2.5-.5.8-.8,0,0,.1-.1.2-.2.2-.2.5-.5.7-.8,0,0,.1-.1.2-.2,4-4.6,7.3-10.9,9.8-18.5-.1,0-.3,0-.4-.1-2.5,7.4-5.7,13.7-9.6,18.3,0,0-.1.1-.2.2-.2.3-.5.5-.7.8,0,0-.1.1-.2.2-.2.3-.5.5-.8.8,0,0-.1.1-.2.2-.3.2-.5.5-.8.7,0,0-.2.1-.2.2-.2.2-.5.4-.8.6,0,0,0,0,0,0,0,0-.2.1-.2.2-.3.2-.6.4-.9.6,0,0-.2.1-.3.2-.3.2-.6.4-.9.6-.1,0-.2.1-.3.2-.3.2-.6.4-.9.5-.1,0-.2.1-.4.2-.2.1-.4.2-.6.3,0,.1.2.2.3.4.2,0,.4-.2.6-.3.1,0,.2-.1.4-.2.3-.2.6-.3.9-.5h0Z"/>
          <path class="cls-12" d="M33.7,61.8c.1,0,.2-.1.3-.2.3-.2.6-.4.9-.6,0,0,.2-.1.3-.2,0,0,0,0,0,0,.3-.2.6-.4.8-.6,0,0,.2-.1.3-.2.3-.2.6-.4.9-.7,0,0,.2-.1.2-.2.3-.2.6-.5.8-.7,0,0,.2-.1.2-.2.3-.2.5-.5.8-.7,0,0,.1-.1.2-.2.2-.2.5-.5.7-.7,0,0,.1-.1.2-.2,4.1-4.3,7.6-10.2,10.4-17.3-.1,0-.3,0-.4-.1-2.8,6.9-6.2,12.7-10.2,17,0,0-.1.1-.2.2-.2.2-.5.5-.7.7,0,0-.1.1-.2.2-.2.2-.5.5-.8.7,0,0-.2.1-.2.2-.3.2-.5.5-.8.7,0,0-.2.1-.2.2-.3.2-.6.5-.9.7,0,0-.2.1-.3.2-.3.2-.5.4-.8.6,0,0,0,0,0,0,0,0-.2.1-.3.2-.3.2-.6.4-.9.6-.1,0-.2.1-.3.2-.3.2-.7.4-1,.5-.1,0-.2.1-.4.2s-.2.1-.4.2c0,.1.2.3.2.4.1,0,.3-.1.4-.2.1,0,.2-.1.4-.2.3-.2.7-.3,1-.5h0Z"/>
          <path class="cls-12" d="M32.4,60.1c.1,0,.2-.1.3-.2,0,0,0,0,0,0,.3-.2.6-.3.9-.5.1,0,.2-.1.3-.2.3-.2.6-.4.9-.6,0,0,.2-.1.3-.2.3-.2.6-.4.9-.6,0,0,.2-.1.2-.2.3-.2.6-.4.8-.7,0,0,.2-.1.2-.2.3-.2.5-.4.8-.7,0,0,.2-.1.2-.2.2-.2.5-.4.8-.7,0,0,.1-.1.2-.2,4.2-4.1,7.9-9.5,11-16-.2,0-.3,0-.5-.1-3,6.4-6.6,11.7-10.8,15.7,0,0-.1.1-.2.2-.2.2-.5.5-.7.7,0,0-.2.1-.2.2-.3.2-.5.4-.8.7,0,0-.2.1-.2.2-.3.2-.6.4-.8.7,0,0-.2.1-.2.2-.3.2-.6.4-.9.6,0,0-.2.1-.3.2-.3.2-.6.4-.9.6,0,0-.2.1-.3.2-.3.2-.6.3-.9.5,0,0,0,0-.1,0-.1,0-.2.1-.3.2-.3.2-.7.3-1,.5,0,0-.2,0-.3.1,0,.2.1.3.2.5,0,0,0,0,0,0,.1,0,.2-.1.4-.2.3-.2.7-.3,1-.5h0Z"/>
          <path class="cls-12" d="M32.5,57.8c.1,0,.2-.1.3-.2.3-.2.6-.4.9-.6,0,0,.2-.1.3-.2.3-.2.6-.4.9-.6,0,0,.2-.1.3-.2.3-.2.6-.4.9-.6,0,0,.2-.1.2-.2.3-.2.6-.4.8-.6,0,0,.2-.1.2-.2.3-.2.5-.4.8-.6,0,0,.2-.1.2-.2,4.3-3.7,8.2-8.8,11.5-14.7-.2,0-.3,0-.5-.1,0,0,0,0,0,0-3.2,5.8-7,10.7-11.3,14.4,0,0-.2.1-.2.2-.2.2-.5.4-.8.6,0,0-.2.1-.2.2-.3.2-.5.4-.8.6,0,0-.2.1-.2.2-.3.2-.6.4-.9.6,0,0-.2.1-.3.2-.3.2-.6.4-.9.6,0,0-.2.1-.3.2-.3.2-.6.4-.9.6-.1,0-.2.1-.3.2-.3.2-.7.4-1,.5-.1,0-.2.1-.3.2-.2.1-.4.2-.7.3,0,.2,0,.3.1.5.3-.1.6-.3.8-.4.1,0,.2-.1.3-.2.3-.2.7-.3,1-.5h0Z"/>
          <path class="cls-12" d="M31.4,56.1c.1,0,.2-.1.3-.2.3-.2.7-.3,1-.5,0,0,.2-.1.3-.2.3-.2.6-.4.9-.6,0,0,.2-.1.3-.2.3-.2.6-.4.9-.6,0,0,.2-.1.3-.2.3-.2.6-.4.8-.6,0,0,.2-.1.2-.2.3-.2.5-.4.8-.6,0,0,.2-.1.2-.2,4.4-3.4,8.5-7.9,12-13.4,0,0,0,0,0,0h0c-.2,0-.3,0-.5,0,0,0-.1.2-.2.3-3.4,5.2-7.3,9.6-11.6,12.8,0,0-.2.1-.2.2-.3.2-.5.4-.8.6,0,0-.2.1-.2.2-.3.2-.6.4-.8.6,0,0-.2.1-.3.2-.3.2-.6.4-.9.6,0,0-.2.1-.3.2-.3.2-.6.4-.9.6,0,0-.2.1-.3.2-.3.2-.7.4-1,.5-.1,0-.2.1-.3.2-.3.2-.7.3-1,.5,0,0,0,0-.2,0,0,.2,0,.4,0,.6,0,0,0,0,0,0,.1,0,.2-.1.3-.2.3-.2.7-.3,1-.5h0Z"/>
          <path class="cls-12" d="M31.6,53.7c0,0,.2-.1.3-.1.3-.2.7-.3,1-.5,0,0,.2-.1.3-.1.3-.2.6-.3.9-.5,0,0,.2-.1.3-.2.3-.2.6-.4.9-.5,0,0,.2-.1.3-.2.3-.2.5-.4.8-.5,0,0,.2-.1.2-.2,4.5-3,8.6-7.1,12.3-11.9,0,0,.1-.2.2-.3-.2,0-.4,0-.5,0-.1.2-.3.3-.4.5-3.6,4.6-7.5,8.4-11.8,11.4,0,0-.2.1-.2.2-.3.2-.5.4-.8.5,0,0-.2.1-.3.2-.3.2-.6.4-.9.5,0,0-.2.1-.3.2-.3.2-.6.4-.9.5,0,0-.2.1-.3.1-.3.2-.6.3-1,.5,0,0-.2.1-.3.1-.3.2-.7.3-1,.5-.1,0-.2.1-.3.1,0,0,0,0,0,0,0,.2,0,.4,0,.6.1,0,.3-.1.4-.2.1,0,.2-.1.3-.1.3-.1.7-.3,1-.5h0Z"/>
          <path class="cls-12" d="M31.8,51.5c0,0,.2,0,.3-.1.3-.1.6-.3.9-.5,0,0,.2-.1.3-.1.3-.1.6-.3.9-.5,0,0,.2-.1.3-.1.3-.2.6-.3.8-.5,0,0,.2-.1.3-.1,4.5-2.7,8.7-6.2,12.5-10.4.1-.2.3-.3.4-.5-.2,0-.4,0-.6,0l-.7.6c-3.7,4-7.7,7.3-12,9.9,0,0-.2.1-.2.1-.3.2-.6.3-.8.5,0,0-.2.1-.3.1-.3.2-.6.3-.9.5,0,0-.2.1-.3.1-.3.2-.6.3-.9.5,0,0-.2,0-.3.1-.3.1-.7.3-1,.4,0,0-.2,0-.3.1,0,0,0,0,0,0,0,.2,0,.4-.1.6.2,0,.3-.1.5-.2,0,0,.2,0,.3-.1.3-.1.7-.3,1-.4h0Z"/>
          <path class="cls-12" d="M32,49.4c0,0,.2,0,.3-.1.3-.1.6-.3.9-.4,0,0,.2,0,.3-.1.3-.1.6-.3.8-.4,0,0,.2,0,.3-.1,4.5-2.3,8.7-5.3,12.6-9l.7-.6c-.2,0-.4,0-.6,0l-.9.8c-3.7,3.4-7.8,6.3-12,8.5,0,0-.2,0-.3.1-.3.1-.6.3-.8.4,0,0-.2,0-.3.1-.3.1-.6.3-.9.4,0,0-.2,0-.3.1-.3.1-.6.3-.9.4,0,.2-.2.5-.2.7,0,0,.2,0,.2,0,0,0,.2,0,.3-.1.3-.1.6-.3,1-.4h0Z"/>
          <path class="cls-12" d="M33.4,47c0,0,.2,0,.3-.1,4.4-1.9,8.6-4.5,12.6-7.6.3-.2.6-.5.9-.8-.2,0-.5,0-.7,0-.4.3-.8.6-1.2.8-3.8,2.9-7.8,5.3-11.9,7.1,0,0-.2,0-.3.1-.3.1-.6.2-.9.4,0,0-.2,0-.3.1,0,0-.1,0-.2,0-.1.2-.3.5-.4.8.3-.1.6-.2.9-.3,0,0,.2,0,.3-.1.3-.1.6-.2.9-.4h0Z"/>
          <path class="cls-12" d="M45.3,39.3c.4-.3.8-.5,1.2-.8h-.8c-.5.3-1,.6-1.5.8-3.5,2.2-7.2,4.1-11,5.5-.2.3-.4.6-.6.9,0,0,.2,0,.3,0,4.3-1.6,8.5-3.7,12.5-6.3h0Z"/>
          <path class="cls-12" d="M44.6,38.5c-.5.2-1,.5-1.5.7-2.5,1.3-5.1,2.4-7.8,3.4-.4.3-.7.7-1,1,3.4-1.2,6.8-2.6,10-4.3.5-.3,1-.5,1.5-.8-.4,0-.7,0-1.1,0h0Z"/>
          <path class="cls-12" d="M41.9,39c0,0-.1,0-.2,0-1,.4-2,.8-3,1.1-.8.4-1.6.9-2.4,1.5,2.2-.7,4.5-1.5,6.6-2.4.5-.2,1-.4,1.5-.7-.9,0-1.8.2-2.6.5h0Z"/>
        </g>
        <path class="cls-12" d="M40.4,39.5c.5-.1.9-.3,1.4-.4,0,0,.1,0,.2,0-.5.1-1.1.3-1.6.5Z"/>
      </g>
      <g>
        <line class="cls-6" x1="190.6" y1="44.2" x2="71.7" y2="44.2"/>
        <line class="cls-6" x1="190.6" y1="55.3" x2="71.7" y2="55.3"/>
        <line class="cls-6" x1="124.6" y1="66.4" x2="71.7" y2="66.4"/>
      </g>
    </g>
  </g>
</svg>