<?xml version="1.0" encoding="UTF-8"?>
<svg id="Layer_1" xmlns="http://www.w3.org/2000/svg" version="1.1" viewBox="0 0 567.46 739.14">
  <!-- Generator: Adobe Illustrator 29.8.1, SVG Export Plug-In . SVG Version: 2.1.1 Build 2)  -->
  <defs>
    <style>
      .st0 {
        stroke: #e9eff6;
      }

      .st0, .st1 {
        stroke-width: 9px;
      }

      .st0, .st1, .st2, .st3, .st4, .st5, .st6, .st7, .st8 {
        fill: none;
        stroke-linecap: round;
        stroke-miterlimit: 10;
      }

      .st1 {
        stroke: #f2f2f2;
      }

      .st2 {
        stroke-width: 1.5px;
      }

      .st2, .st5, .st7 {
        stroke: #f5f5f5;
      }

      .st9 {
        fill: #fff;
      }

      .st3 {
        stroke: #d6e6e2;
      }

      .st3, .st4, .st7, .st8 {
        stroke-width: 18px;
      }

      .st10 {
        fill: #fbe3e5;
      }

      .st4 {
        stroke: #fbe3e5;
      }

      .st11 {
        fill: #d3dfee;
      }

      .st12 {
        fill: #2160a9;
      }

      .st5 {
        stroke-width: 10px;
      }

      .st6 {
        stroke: #e6edf6;
        stroke-width: 6px;
      }

      .st13 {
        fill: #fdf2d4;
      }

      .st8 {
        stroke: #d3dfee;
      }

      .st14 {
        fill: #f5f5f5;
      }

      .st15 {
        fill: #c1dad4;
      }
    </style>
  </defs>
  <rect class="st9" x="83.57" y="79.86" width="408.92" height="578.28" rx="20.08" ry="20.08"/>
  <g>
    <line class="st1" x1="121.21" y1="189.39" x2="272.08" y2="189.39"/>
    <line class="st1" x1="121.21" y1="205.14" x2="272.08" y2="205.14"/>
    <line class="st1" x1="121.21" y1="220.9" x2="272.08" y2="220.9"/>
  </g>
  <g>
    <line class="st1" x1="121.21" y1="246.89" x2="186.92" y2="246.89"/>
    <line class="st1" x1="121.21" y1="262.65" x2="186.92" y2="262.65"/>
    <line class="st1" x1="121.21" y1="278.4" x2="186.92" y2="278.4"/>
  </g>
  <g>
    <line class="st1" x1="206.37" y1="246.89" x2="272.08" y2="246.89"/>
    <line class="st1" x1="206.37" y1="262.65" x2="272.08" y2="262.65"/>
    <line class="st1" x1="206.37" y1="278.4" x2="272.08" y2="278.4"/>
  </g>
  <g>
    <line class="st1" x1="121.21" y1="311.09" x2="272.08" y2="311.09"/>
    <line class="st1" x1="121.21" y1="326.84" x2="272.08" y2="326.84"/>
    <line class="st1" x1="121.21" y1="342.59" x2="272.08" y2="342.59"/>
  </g>
  <g>
    <circle class="st7" cx="177.66" cy="426.93" r="37.36"/>
    <path class="st4" d="M177.66,389.58c20.63,0,37.36,16.73,37.36,37.36"/>
  </g>
  <g>
    <circle class="st7" cx="283.55" cy="426.93" r="37.36"/>
    <path class="st3" d="M283.55,389.58c20.63,0,37.36,16.73,37.36,37.36s-16.73,37.36-37.36,37.36-37.36-16.73-37.36-37.36"/>
  </g>
  <g>
    <circle class="st7" cx="387.81" cy="426.93" r="37.36"/>
    <path class="st8" d="M387.81,389.58c20.63,0,37.36,16.73,37.36,37.36s-16.73,37.36-37.36,37.36"/>
  </g>
  <g>
    <line class="st1" x1="145.25" y1="495.73" x2="213.76" y2="495.73"/>
    <line class="st1" x1="145.25" y1="511.49" x2="213.76" y2="511.49"/>
    <line class="st1" x1="145.25" y1="527.24" x2="192.06" y2="527.24"/>
  </g>
  <g>
    <line class="st1" x1="251.22" y1="495.73" x2="318.22" y2="495.73"/>
    <line class="st1" x1="251.22" y1="511.49" x2="297" y2="511.49"/>
    <line class="st1" x1="251.22" y1="527.24" x2="318.22" y2="527.24"/>
  </g>
  <g>
    <line class="st1" x1="355.9" y1="495.73" x2="423.13" y2="495.73"/>
    <line class="st1" x1="355.9" y1="511.49" x2="423.13" y2="511.49"/>
  </g>
  <g>
    <rect class="st12" x="141.56" y="489.71" width="13.89" height="13.89" rx="2.22" ry="2.22"/>
    <g>
      <line class="st2" x1="148.5" y1="492.64" x2="148.5" y2="500.67"/>
      <line class="st2" x1="144.49" y1="496.65" x2="152.52" y2="496.65"/>
    </g>
  </g>
  <g>
    <rect class="st12" x="247.25" y="489.71" width="13.89" height="13.89" rx="2.22" ry="2.22"/>
    <g>
      <line class="st2" x1="254.19" y1="492.64" x2="254.19" y2="500.67"/>
      <line class="st2" x1="250.18" y1="496.65" x2="258.21" y2="496.65"/>
    </g>
  </g>
  <g>
    <rect class="st12" x="352.49" y="489.71" width="13.89" height="13.89" rx="2.22" ry="2.22"/>
    <g>
      <line class="st2" x1="359.44" y1="492.64" x2="359.44" y2="500.67"/>
      <line class="st2" x1="355.42" y1="496.65" x2="363.45" y2="496.65"/>
    </g>
  </g>
  <path class="st12" d="M174.53,424.34c-.58,0-1.13-.09-1.63-.26-.5-.17-.93-.41-1.3-.7-.37-.3-.66-.64-.88-1.04-.22-.4-.33-.83-.33-1.29s.11-.88.33-1.28c.22-.4.51-.75.88-1.04.37-.29.8-.52,1.3-.69.5-.17,1.04-.26,1.63-.26s1.11.09,1.62.26c.51.17.95.41,1.31.69.37.29.66.64.88,1.04.22.41.33.83.33,1.28s-.11.89-.33,1.29c-.22.4-.51.75-.88,1.04-.37.3-.81.53-1.31.7-.51.17-1.05.26-1.62.26ZM171.8,432.37l7.06-7.14,6.51-7.42,1.53,1.17-6.84,7.01-6.74,7.55-1.53-1.17ZM174.53,422.89c.25,0,.48-.05.69-.15.21-.1.4-.23.56-.4.17-.17.3-.36.39-.58.09-.22.14-.46.14-.71,0-.51-.18-.94-.53-1.29-.35-.35-.77-.53-1.25-.53-.25,0-.48.05-.69.15-.21.1-.4.23-.56.4-.17.17-.3.36-.39.58s-.14.45-.14.69c0,.51.18.94.53,1.3.35.36.77.54,1.25.54ZM184.2,433.6c-.58,0-1.13-.09-1.63-.26-.5-.17-.94-.41-1.3-.69s-.66-.63-.88-1.03-.33-.83-.33-1.29.11-.89.33-1.29.51-.75.88-1.04c.37-.3.8-.53,1.3-.71.5-.17,1.04-.26,1.63-.26s1.13.09,1.63.26c.5.17.94.41,1.32.71.38.3.67.64.88,1.04.21.4.31.83.31,1.29s-.11.89-.31,1.29c-.21.4-.5.74-.88,1.03-.38.29-.81.52-1.32.69-.5.17-1.04.26-1.63.26ZM184.2,432.15c.25,0,.48-.05.69-.15.21-.1.4-.23.56-.4.17-.17.3-.36.39-.58s.14-.45.14-.69c0-.26-.05-.5-.15-.73-.1-.22-.23-.42-.39-.59-.16-.17-.35-.3-.56-.39-.22-.09-.44-.14-.68-.14-.25,0-.48.05-.69.15-.21.1-.4.24-.56.4-.17.17-.3.36-.39.58-.09.22-.14.46-.14.71,0,.51.18.94.53,1.29.35.35.77.53,1.25.53Z"/>
  <path class="st12" d="M278.69,424.34c-.58,0-1.13-.09-1.63-.26-.5-.17-.94-.41-1.3-.7-.37-.3-.66-.64-.88-1.04-.22-.4-.33-.83-.33-1.29s.11-.88.33-1.28c.22-.4.51-.75.88-1.04.37-.29.8-.52,1.3-.69.5-.17,1.04-.26,1.63-.26s1.11.09,1.62.26c.51.17.95.41,1.31.69.37.29.66.64.88,1.04.22.41.33.83.33,1.28s-.11.89-.33,1.29c-.22.4-.51.75-.88,1.04-.37.3-.81.53-1.31.7-.51.17-1.05.26-1.62.26ZM275.96,432.37l7.06-7.14,6.51-7.42,1.53,1.17-6.84,7.01-6.74,7.55-1.53-1.17ZM278.69,422.89c.25,0,.48-.05.69-.15.21-.1.4-.23.56-.4.17-.17.3-.36.39-.58.09-.22.14-.46.14-.71,0-.51-.18-.94-.53-1.29-.35-.35-.77-.53-1.25-.53-.25,0-.48.05-.69.15-.21.1-.4.23-.56.4-.17.17-.3.36-.39.58s-.14.45-.14.69c0,.51.17.94.53,1.3.35.36.77.54,1.25.54ZM288.36,433.6c-.58,0-1.13-.09-1.63-.26-.5-.17-.93-.41-1.3-.69s-.66-.63-.88-1.03-.33-.83-.33-1.29.11-.89.33-1.29.51-.75.88-1.04c.37-.3.8-.53,1.3-.71.5-.17,1.04-.26,1.63-.26s1.13.09,1.63.26c.5.17.94.41,1.32.71.38.3.67.64.88,1.04s.31.83.31,1.29-.1.89-.31,1.29-.5.74-.88,1.03c-.38.29-.81.52-1.32.69-.5.17-1.04.26-1.63.26ZM288.36,432.15c.25,0,.48-.05.69-.15.21-.1.4-.23.56-.4s.3-.36.39-.58.14-.45.14-.69c0-.26-.05-.5-.15-.73-.1-.22-.23-.42-.39-.59-.16-.17-.35-.3-.56-.39s-.44-.14-.68-.14c-.25,0-.48.05-.69.15-.21.1-.4.24-.56.4-.17.17-.3.36-.39.58-.09.22-.14.46-.14.71,0,.51.18.94.53,1.29s.77.53,1.25.53Z"/>
  <path class="st12" d="M382.65,425.34c-.58,0-1.13-.09-1.63-.26-.5-.17-.94-.41-1.3-.7-.37-.3-.66-.64-.88-1.04-.22-.4-.33-.83-.33-1.29s.11-.88.33-1.28c.22-.4.51-.75.88-1.04.37-.29.8-.52,1.3-.69.5-.17,1.04-.26,1.63-.26s1.11.09,1.62.26c.51.17.95.41,1.31.69.37.29.66.64.88,1.04.22.41.33.83.33,1.28s-.11.89-.33,1.29c-.22.4-.51.75-.88,1.04-.37.3-.81.53-1.31.7-.51.17-1.05.26-1.62.26ZM379.92,433.37l7.06-7.14,6.51-7.42,1.53,1.17-6.84,7.01-6.74,7.55-1.53-1.17ZM382.65,423.89c.25,0,.48-.05.69-.15.21-.1.4-.23.56-.4.17-.17.3-.36.39-.58.09-.22.14-.46.14-.71,0-.51-.18-.94-.53-1.29-.35-.35-.77-.53-1.25-.53-.25,0-.48.05-.69.15-.21.1-.4.23-.56.4-.17.17-.3.36-.39.58s-.14.45-.14.69c0,.51.17.94.53,1.3.35.36.77.54,1.25.54ZM392.32,434.6c-.58,0-1.13-.09-1.63-.26-.5-.17-.93-.41-1.3-.69s-.66-.63-.88-1.03-.33-.83-.33-1.29.11-.89.33-1.29.51-.75.88-1.04c.37-.3.8-.53,1.3-.71.5-.17,1.04-.26,1.63-.26s1.13.09,1.63.26c.5.17.94.41,1.32.71.38.3.67.64.88,1.04s.31.83.31,1.29-.1.89-.31,1.29-.5.74-.88,1.03c-.38.29-.81.52-1.32.69-.5.17-1.04.26-1.63.26ZM392.32,433.15c.25,0,.48-.05.69-.15.21-.1.4-.23.56-.4s.3-.36.39-.58.14-.45.14-.69c0-.26-.05-.5-.15-.73-.1-.22-.23-.42-.39-.59-.16-.17-.35-.3-.56-.39s-.44-.14-.68-.14c-.25,0-.48.05-.69.15-.21.1-.4.24-.56.4-.17.17-.3.36-.39.58-.09.22-.14.46-.14.71,0,.51.18.94.53,1.29s.77.53,1.25.53Z"/>
  <g>
    <g>
      <rect class="st15" x="379.49" y="214.74" width="107.87" height="30.36" rx="3.62" ry="3.62" transform="translate(203.51 663.34) rotate(-90)"/>
      <rect class="st11" x="349.42" y="221" width="95.35" height="30.36" rx="3.62" ry="3.62" transform="translate(160.92 633.27) rotate(-90)"/>
      <rect class="st10" x="325.11" y="233.82" width="69.69" height="30.36" rx="3.62" ry="3.62" transform="translate(110.95 608.96) rotate(-90)"/>
      <rect class="st13" x="301.98" y="247.83" width="41.69" height="30.36" rx="3.62" ry="3.62" transform="translate(59.82 585.83) rotate(-90)"/>
    </g>
    <line class="st5" x1="311.02" y1="205.5" x2="423.36" y2="147.83"/>
    <polyline class="st14" points="411.41 132.35 444.87 135.31 428.9 163.77"/>
  </g>
  <g>
    <line class="st0" x1="306.48" y1="312.47" x2="369.23" y2="312.47"/>
    <line class="st0" x1="306.48" y1="328.22" x2="369.23" y2="328.22"/>
    <line class="st0" x1="306.48" y1="343.97" x2="369.23" y2="343.97"/>
  </g>
  <g>
    <line class="st0" x1="387.81" y1="312.47" x2="450.57" y2="312.47"/>
    <line class="st0" x1="387.81" y1="328.22" x2="450.57" y2="328.22"/>
    <line class="st0" x1="387.81" y1="343.97" x2="450.57" y2="343.97"/>
  </g>
  <g>
    <g>
      <path class="st12" d="M146.2,136.54s0,.08.01.13c.06-.52.1-1.04.12-1.56-.25-1.91-.59-3.93-1-6.05-.18-.47-.37-.94-.59-1.39.66,3.17,1.16,6.14,1.47,8.87Z"/>
      <path class="st12" d="M145.79,137.46c-.26-3.23-.78-6.82-1.53-10.68-.15-.27-.31-.54-.47-.8.84,4.18,1.42,8.04,1.69,11.5.06.69.1,1.36.13,2.01.1-.31.18-.63.26-.95-.02-.36-.05-.72-.08-1.08Z"/>
      <path class="st12" d="M145,138.35c-.17-3.83-.71-8.17-1.57-12.91-.14-.2-.29-.4-.43-.6.93,4.97,1.51,9.53,1.69,13.52.05,1.19.07,2.31.05,3.37.11-.24.22-.48.33-.73,0-.85-.01-1.73-.05-2.66Z"/>
      <path class="st12" d="M142.29,123.97c.96,5.66,1.49,10.81,1.52,15.22,0,1.63-.05,3.12-.18,4.49.13-.2.26-.4.38-.6.09-1.2.13-2.5.13-3.89-.03-4.29-.52-9.26-1.43-14.72-.14-.17-.27-.33-.42-.5Z"/>
      <path class="st12" d="M141.64,123.27c.94,6.27,1.37,11.92,1.2,16.67-.07,2.03-.25,3.85-.53,5.46.14-.16.29-.33.42-.5.23-1.48.38-3.13.44-4.94.16-4.65-.24-10.16-1.14-16.26-.13-.14-.27-.29-.4-.43Z"/>
      <path class="st12" d="M141.02,122.68c.87,6.82,1.15,12.91.76,17.95-.19,2.42-.53,4.53-1.02,6.32.16-.14.31-.28.47-.43.43-1.7.73-3.65.9-5.87.39-4.95.12-10.93-.71-17.6-.13-.13-.26-.25-.4-.37Z"/>
      <path class="st12" d="M140.83,122.51c-.13-.11-.26-.22-.39-.33.76,7.31.85,13.8.19,19.06-.35,2.8-.91,5.16-1.66,7.06.17-.11.34-.23.51-.35.67-1.84,1.18-4.07,1.51-6.67.65-5.19.56-11.58-.16-18.77Z"/>
      <path class="st12" d="M139.4,141.77c-.56,3.16-1.38,5.72-2.45,7.67.19-.09.37-.18.55-.27.98-1.92,1.74-4.37,2.26-7.33.95-5.38,1.09-12.13.51-19.79-.13-.1-.25-.2-.38-.3.6,7.76.47,14.6-.49,20.03Z"/>
      <path class="st12" d="M135.12,149.68c-.05.08-.1.15-.15.23-.09.13-.18.26-.27.38.2-.06.4-.13.6-.19.04-.06.09-.13.13-.19.18-.27.35-.55.52-.84.04-.08.09-.16.13-.23.96-1.75,1.75-3.94,2.36-6.54,1.29-5.52,1.68-12.58,1.3-20.67-.13-.09-.25-.19-.38-.28.4,8.17.01,15.31-1.28,20.86-.59,2.54-1.36,4.68-2.29,6.39-.04.08-.09.16-.13.24-.17.3-.34.58-.52.85Z"/>
      <path class="st12" d="M133.94,148.73c-.05.08-.1.15-.15.23-.19.28-.38.55-.58.8-.06.07-.11.15-.17.22-.21.25-.42.49-.63.71-.04.04-.08.08-.11.12.21-.03.42-.06.63-.1.14-.16.28-.32.42-.49.06-.07.12-.14.17-.22.2-.25.39-.52.58-.8.05-.08.1-.15.15-.23.18-.28.36-.57.53-.87.04-.08.09-.16.13-.24.81-1.47,1.51-3.21,2.1-5.21,1.65-5.61,2.35-12.94,2.21-21.4-.13-.09-.25-.17-.38-.25.16,8.53-.53,15.91-2.2,21.55-.57,1.95-1.25,3.63-2.03,5.06-.04.08-.09.16-.13.24-.17.31-.35.6-.53.88Z"/>
      <path class="st12" d="M132.74,147.68c-.05.08-.1.16-.15.24-.2.29-.4.57-.6.83-.06.07-.12.15-.17.22-.21.26-.43.51-.65.75-.07.07-.13.14-.2.21-.23.23-.46.45-.69.65-.08.07-.16.13-.23.2-.07.06-.14.12-.22.17.21,0,.42,0,.63,0,.05-.04.09-.08.14-.12.23-.2.46-.42.68-.65.07-.07.13-.14.2-.21.22-.23.43-.48.64-.74.06-.07.12-.14.17-.22.2-.26.4-.54.6-.83.05-.08.1-.16.15-.23.19-.29.37-.58.55-.89.05-.08.09-.16.14-.24.64-1.15,1.23-2.44,1.75-3.89,2.05-5.65,3.1-13.21,3.23-22.01-.13-.08-.26-.15-.38-.23-.12,8.84-1.16,16.44-3.22,22.1-.51,1.39-1.07,2.64-1.68,3.75-.05.08-.09.16-.14.24-.18.31-.36.61-.55.9Z"/>
      <path class="st12" d="M129.08,150.01c.08-.07.15-.13.23-.2.24-.22.47-.45.7-.69.07-.07.13-.14.2-.21.22-.25.44-.5.66-.77.06-.07.12-.15.17-.22.21-.27.41-.55.62-.85.05-.08.11-.16.16-.23.19-.29.38-.59.57-.9.05-.08.09-.16.14-.24.46-.8.9-1.66,1.31-2.59,2.49-5.64,3.92-13.38,4.37-22.46-.13-.07-.26-.15-.39-.22-.44,9.12-1.86,16.87-4.35,22.52-.39.89-.8,1.7-1.23,2.46-.05.08-.09.17-.14.25-.18.31-.37.62-.56.91-.05.08-.11.16-.16.24-.2.3-.4.58-.61.86-.06.08-.12.15-.17.23-.22.27-.44.53-.66.78-.07.07-.13.14-.2.21-.23.25-.47.48-.71.7-.08.07-.15.13-.23.2-.23.2-.46.38-.7.55-.11.08-.21.15-.32.23-.1.07-.21.14-.32.2.19.03.38.06.57.08.02-.01.04-.02.05-.04.11-.07.21-.15.32-.23.23-.17.46-.36.68-.55Z"/>
      <path class="st12" d="M127.8,148.86c.07-.07.15-.13.22-.2.25-.23.49-.47.73-.72.07-.07.13-.14.2-.22.23-.25.46-.52.68-.79.06-.07.12-.15.18-.22.22-.27.43-.56.63-.85.06-.08.11-.16.16-.24.2-.29.39-.59.59-.9.05-.08.1-.16.15-.25.26-.43.51-.87.75-1.33,2.95-5.59,4.8-13.46,5.62-22.79-.13-.07-.26-.14-.39-.2-.8,9.35-2.65,17.22-5.6,22.8-.22.42-.45.83-.68,1.22-.05.08-.1.16-.15.25-.19.31-.39.62-.58.91-.05.08-.11.16-.16.24-.21.3-.42.59-.63.86-.06.08-.12.15-.18.23-.22.28-.45.55-.68.8-.07.07-.13.15-.2.22-.24.26-.48.5-.73.73-.07.07-.15.14-.22.2-.24.21-.48.41-.72.59-.1.08-.21.16-.31.23-.25.18-.5.34-.75.49-.12.07-.24.14-.36.21-.05.03-.11.06-.16.08.17.05.35.1.52.15.1-.06.21-.12.31-.18.25-.15.49-.32.74-.49.1-.08.21-.15.31-.23.24-.19.48-.38.71-.59Z"/>
      <path class="st12" d="M125.46,148.47c.1-.08.2-.16.31-.23.25-.2.5-.4.74-.62.08-.07.15-.13.23-.2.25-.23.5-.48.75-.74.07-.07.14-.14.2-.22.24-.26.47-.52.7-.8.06-.07.12-.15.18-.22.22-.27.44-.56.66-.85.06-.08.11-.16.17-.24.21-.29.41-.58.61-.89.05-.08.1-.16.16-.24.03-.05.06-.09.09-.13,3.45-5.49,5.77-13.44,6.99-22.98-.13-.06-.26-.12-.39-.18-1.21,9.53-3.51,17.46-6.95,22.93,0,.01-.02.02-.02.04-.05.08-.1.16-.16.24-.2.31-.4.61-.6.89-.06.08-.11.16-.17.24-.21.3-.43.58-.65.86-.06.08-.12.15-.18.23-.23.28-.46.55-.7.81-.07.07-.14.15-.2.22-.25.26-.5.51-.75.75-.07.07-.15.14-.22.2-.25.22-.49.43-.74.62-.1.08-.2.16-.31.23-.26.19-.52.37-.78.53-.12.07-.23.15-.35.21-.27.16-.54.3-.81.43-.03.01-.06.03-.08.04.15.07.31.15.46.21.25-.13.49-.26.73-.4.12-.07.24-.14.35-.22.26-.17.52-.34.77-.53Z"/>
      <path class="st12" d="M123,147.92c.12-.07.23-.14.34-.22.27-.18.54-.36.8-.56.1-.08.2-.15.31-.23.26-.2.52-.41.77-.63.08-.07.15-.13.23-.2.26-.24.52-.48.78-.74.07-.07.14-.14.21-.21.25-.26.49-.52.73-.79.06-.07.13-.15.19-.22.23-.27.45-.55.68-.84.06-.08.12-.15.18-.23.03-.04.06-.08.09-.12.18-.24.36-.49.54-.75.06-.08.11-.16.16-.24,3.61-5.32,6.2-12.92,7.77-22.03-.13-.06-.27-.12-.4-.17-1.55,9.03-4.1,16.57-7.67,21.86-.05.08-.11.16-.16.24-.19.28-.39.56-.59.83-.01.02-.02.03-.04.05-.06.08-.12.16-.18.23-.22.29-.45.57-.68.84-.06.08-.13.15-.19.23-.24.28-.48.54-.72.8-.07.07-.14.14-.21.22-.26.26-.51.51-.78.75-.08.07-.15.14-.23.2-.25.22-.51.44-.77.64-.1.08-.2.16-.31.23-.27.2-.54.39-.81.56-.11.07-.23.15-.34.22-.28.17-.56.33-.84.47-.13.07-.26.13-.39.19-.06.03-.13.06-.19.09.14.09.28.17.42.26.03-.01.06-.03.09-.04.13-.06.26-.13.39-.2.28-.15.55-.3.83-.47Z"/>
      <path class="st12" d="M121.66,146.52c.11-.07.23-.14.34-.21.28-.18.56-.37.84-.57.1-.07.2-.15.31-.23.27-.2.53-.42.8-.64.08-.07.16-.13.23-.2.27-.24.54-.48.8-.74.07-.07.14-.14.21-.21.25-.25.5-.51.75-.78.07-.07.13-.15.2-.22.03-.04.06-.07.1-.11.2-.23.4-.47.6-.71.06-.08.12-.15.19-.23.22-.27.44-.55.65-.84.06-.08.12-.16.17-.24,3.73-5.11,6.56-12.29,8.45-20.89-.14-.06-.27-.11-.41-.16-1.87,8.51-4.66,15.63-8.34,20.7-.06.08-.12.16-.17.24-.21.29-.43.57-.65.84-.06.08-.12.15-.19.23-.21.26-.43.51-.65.76-.02.02-.04.04-.05.06-.07.07-.13.15-.2.22-.25.27-.5.53-.75.79-.07.07-.14.14-.21.22-.26.26-.53.51-.8.74-.08.07-.16.14-.23.2-.26.23-.53.44-.8.65-.1.08-.2.15-.3.23-.28.2-.56.4-.84.58-.11.07-.23.14-.34.21-.29.18-.58.34-.87.5-.13.07-.25.13-.38.19-.17.08-.34.16-.51.24.12.1.24.2.36.3.15-.07.3-.14.45-.22.13-.06.26-.13.38-.2.29-.15.58-.32.87-.5Z"/>
      <path class="st12" d="M120.33,145.03c.11-.07.23-.14.34-.21.29-.18.58-.38.87-.58.1-.07.21-.15.31-.22.28-.2.55-.42.83-.64.08-.07.16-.13.24-.2.28-.23.55-.47.82-.72.07-.07.15-.14.22-.21.03-.03.06-.06.1-.09.23-.22.45-.44.68-.67.07-.07.14-.14.21-.22.24-.26.49-.52.72-.79.07-.07.13-.15.2-.22.23-.26.45-.53.67-.81.06-.08.12-.15.18-.23,3.85-4.87,6.91-11.64,9.12-19.72-.14-.05-.28-.1-.42-.15-2.18,7.98-5.19,14.67-8.99,19.5-.06.08-.12.15-.18.23-.22.28-.45.55-.67.81-.07.08-.13.15-.2.23-.24.27-.48.53-.72.79-.07.07-.14.15-.21.22-.23.24-.46.47-.7.7-.02.02-.05.04-.07.07-.07.07-.15.14-.22.21-.27.25-.55.5-.82.73-.08.07-.16.13-.24.2-.27.23-.55.44-.83.65-.1.08-.2.15-.31.22-.29.21-.58.4-.87.59-.11.07-.23.14-.34.21-.3.18-.6.35-.91.51-.13.07-.25.13-.38.19-.21.11-.43.21-.64.3.1.11.21.23.31.34.21-.1.42-.19.63-.3.13-.06.25-.13.38-.2.3-.16.6-.33.9-.51Z"/>
      <path class="st12" d="M119.02,143.46c.11-.07.23-.14.34-.2.3-.18.6-.38.9-.58.1-.07.21-.14.31-.21.29-.2.57-.41.86-.63.08-.06.16-.13.25-.19.03-.03.07-.05.1-.08.25-.2.5-.41.75-.63.08-.07.15-.13.23-.2.27-.24.53-.48.8-.73.07-.07.14-.14.22-.21.25-.25.5-.5.75-.76.07-.07.14-.14.21-.22.24-.25.47-.51.7-.77.06-.07.13-.15.19-.22,3.98-4.62,7.25-10.95,9.76-18.5-.14-.05-.29-.1-.43-.14-2.47,7.45-5.7,13.7-9.62,18.26-.06.07-.13.15-.19.22-.23.26-.46.52-.7.77-.07.07-.14.14-.21.22-.25.26-.49.51-.75.76-.07.07-.14.14-.22.21-.26.25-.53.5-.8.73-.08.07-.15.14-.23.2-.25.22-.5.43-.75.63-.03.03-.06.05-.1.07-.08.07-.17.13-.25.19-.29.22-.57.43-.86.63-.1.07-.2.14-.31.21-.3.2-.6.4-.9.58-.11.07-.23.14-.34.2-.31.18-.63.36-.94.52-.12.06-.25.13-.37.19-.2.1-.4.19-.6.28.09.13.18.25.27.37.21-.09.42-.19.62-.29.13-.06.25-.12.38-.19.31-.16.63-.33.94-.52Z"/>
      <path class="st12" d="M117.72,141.83c.11-.06.23-.13.34-.19.31-.18.62-.37.93-.57.1-.07.21-.13.31-.2.02-.01.04-.02.06-.04.28-.19.56-.38.83-.58.09-.06.17-.12.26-.19.29-.22.59-.44.87-.67.08-.06.16-.13.24-.2.28-.23.55-.46.82-.7.08-.07.15-.13.23-.2.26-.23.52-.47.77-.72.07-.07.14-.14.21-.21.24-.24.48-.48.72-.73.07-.07.13-.14.2-.21,4.1-4.34,7.59-10.23,10.38-17.26-.15-.05-.3-.09-.45-.13-2.75,6.92-6.18,12.72-10.22,17-.07.07-.13.14-.2.21-.24.25-.48.49-.72.73-.07.07-.14.14-.22.21-.25.24-.51.48-.77.72-.08.07-.15.13-.23.2-.27.24-.54.47-.82.7-.08.07-.16.13-.24.2-.29.23-.58.46-.87.67-.09.06-.17.13-.26.19-.27.19-.53.38-.81.56-.03.02-.06.04-.08.05-.1.07-.21.14-.31.2-.31.2-.62.39-.94.57-.11.07-.23.13-.34.19-.33.18-.65.35-.98.51-.12.06-.25.12-.37.18-.12.06-.24.11-.36.17.08.14.16.29.24.43.14-.06.29-.13.43-.2.12-.06.25-.12.37-.18.33-.16.65-.33.97-.51Z"/>
      <path class="st12" d="M116.45,140.15c.11-.06.23-.12.35-.18.02,0,.03-.02.05-.02.31-.17.61-.34.92-.52.11-.06.21-.13.32-.19.31-.19.61-.38.92-.59.09-.06.18-.12.26-.18.3-.21.6-.42.9-.64.08-.06.17-.12.25-.19.28-.21.56-.43.84-.66.08-.06.16-.13.24-.19.27-.22.53-.44.79-.67.08-.07.15-.13.22-.2.25-.22.5-.45.75-.68.07-.07.14-.14.21-.2,4.23-4.05,7.91-9.5,10.96-16-.16-.04-.31-.08-.47-.12-3.01,6.39-6.63,11.74-10.78,15.72-.07.07-.14.14-.21.2-.25.23-.49.46-.74.68-.08.07-.15.13-.23.2-.26.23-.53.45-.79.67-.08.06-.16.13-.24.19-.28.23-.56.45-.84.66-.08.06-.17.12-.25.18-.3.22-.6.43-.9.64-.09.06-.18.12-.26.18-.3.2-.61.4-.92.59-.1.06-.21.13-.31.19-.28.17-.57.33-.86.49-.04.02-.07.04-.11.06-.11.06-.23.12-.34.18-.34.17-.67.34-1.01.5-.1.04-.19.09-.29.13.06.16.12.31.18.47.01,0,.03-.01.04-.02.12-.06.25-.12.37-.17.34-.16.67-.32,1.01-.5Z"/>
      <path class="st12" d="M116.54,137.75c.11-.06.21-.12.32-.18.32-.18.63-.36.95-.55.09-.06.18-.11.27-.17.31-.19.62-.39.92-.6.09-.06.17-.12.26-.18.29-.2.58-.4.87-.61.08-.06.16-.12.25-.18.27-.2.55-.41.82-.63.08-.06.16-.13.23-.19.26-.21.51-.42.77-.63.07-.06.15-.13.22-.19,4.34-3.74,8.21-8.75,11.51-14.73-.16-.04-.33-.08-.49-.12-.01.02-.03.04-.04.06-3.24,5.83-7.03,10.71-11.28,14.37-.07.06-.15.13-.22.19-.25.22-.51.42-.77.63-.08.06-.16.13-.23.19-.27.21-.54.42-.82.62-.08.06-.16.12-.25.18-.29.21-.58.41-.87.61-.09.06-.17.12-.26.18-.31.2-.61.4-.92.6-.09.06-.18.11-.28.17-.31.19-.63.38-.95.55-.11.06-.21.12-.32.18-.33.18-.66.35-1,.52-.11.06-.23.11-.34.17-.22.11-.45.21-.67.31.04.17.08.34.12.5.28-.13.57-.26.85-.39.12-.06.23-.11.35-.17.33-.17.66-.34.99-.52Z"/>
      <path class="st12" d="M115.36,136.05c.11-.05.22-.11.32-.16.33-.17.65-.34.97-.52.09-.05.19-.1.28-.16.32-.18.63-.36.95-.55.09-.05.18-.11.27-.17.3-.18.6-.37.89-.57.09-.06.17-.11.26-.17.28-.19.56-.38.84-.58.08-.06.16-.12.25-.18.26-.19.53-.38.79-.58.08-.06.16-.12.23-.18,4.44-3.41,8.46-7.95,11.98-13.39.01-.02.03-.04.04-.06,0,0,0,0-.01,0-.17-.04-.33-.06-.5-.09-.07.09-.14.18-.21.27-3.42,5.21-7.32,9.56-11.6,12.85-.08.06-.16.12-.23.18-.26.2-.52.39-.79.58-.08.06-.16.12-.25.18-.28.2-.56.39-.84.57-.09.06-.17.11-.26.17-.3.19-.59.38-.89.56-.09.06-.18.11-.27.16-.31.19-.63.37-.94.55-.09.05-.19.1-.28.16-.32.18-.65.35-.98.52-.11.05-.22.11-.32.16-.34.17-.68.33-1.03.48-.05.02-.1.05-.15.07.02.18.04.36.06.55.01,0,.03-.01.04-.02.12-.05.23-.1.35-.16.34-.16.68-.32,1.02-.49Z"/>
      <path class="st12" d="M115.55,133.73c.1-.05.19-.1.29-.15.32-.16.65-.33.97-.5.09-.05.19-.1.28-.15.31-.17.61-.34.91-.52.09-.05.18-.11.27-.16.29-.17.58-.35.86-.52.09-.05.17-.11.26-.16.27-.17.54-.35.81-.53.08-.05.16-.11.24-.16,4.47-3.04,8.59-7.07,12.28-11.9.07-.09.14-.18.21-.27-.18-.03-.35-.06-.53-.09-.14.16-.28.31-.42.47-3.57,4.6-7.54,8.44-11.84,11.35-.08.06-.16.11-.24.16-.27.18-.54.36-.81.53-.09.05-.17.11-.26.16-.29.18-.57.35-.86.52-.09.05-.18.11-.27.16-.3.18-.61.35-.91.51-.09.05-.19.1-.28.15-.32.17-.64.34-.97.5-.1.05-.2.1-.29.15-.33.16-.67.32-1,.47-.11.05-.22.1-.33.15-.03.01-.05.02-.08.03,0,.2-.02.4-.02.59.13-.06.26-.11.39-.17.11-.05.22-.1.33-.15.34-.15.67-.31,1-.47Z"/>
      <path class="st12" d="M115.75,131.5c.1-.05.19-.09.29-.14.31-.15.63-.3.94-.46.09-.05.18-.1.28-.14.3-.15.59-.31.88-.47.09-.05.18-.1.27-.15.28-.16.56-.32.83-.48.09-.05.17-.1.26-.15,4.48-2.67,8.67-6.19,12.48-10.43.14-.16.28-.31.42-.47-.19-.03-.38-.05-.56-.07-.22.21-.44.42-.66.63-3.68,4-7.69,7.34-11.98,9.89-.08.05-.17.1-.25.15-.28.16-.55.32-.83.48-.09.05-.18.1-.27.15-.29.16-.58.32-.88.47-.09.05-.19.1-.28.14-.31.16-.62.31-.93.46-.1.05-.19.09-.29.14-.33.15-.66.3-.99.45-.1.04-.2.09-.3.13-.01,0-.03.01-.04.02-.04.21-.08.43-.11.64.15-.06.31-.13.46-.19.1-.04.2-.09.3-.13.33-.15.66-.3.99-.45Z"/>
      <path class="st12" d="M115.99,129.41c.1-.04.19-.08.29-.13.3-.14.6-.28.9-.42.09-.04.19-.09.28-.13.29-.14.57-.28.85-.42.09-.04.18-.09.27-.14,4.46-2.3,8.68-5.33,12.59-9,.22-.21.44-.42.66-.63-.21-.02-.41-.04-.62-.05-.31.25-.62.5-.93.75-3.74,3.43-7.77,6.29-12.02,8.47-.09.05-.18.09-.26.14-.28.14-.57.28-.85.42-.09.04-.19.09-.28.13-.3.14-.6.28-.9.41-.1.04-.19.08-.29.13-.31.14-.63.27-.94.4-.08.23-.16.46-.23.7.08-.03.15-.06.23-.09.1-.04.2-.08.3-.12.32-.13.64-.27.96-.41Z"/>
      <path class="st12" d="M117.41,126.97c.09-.04.18-.08.28-.12,4.42-1.94,8.63-4.5,12.59-7.62.31-.25.62-.49.93-.75-.23-.02-.46-.03-.7-.03-.4.28-.81.55-1.22.81-3.76,2.89-7.76,5.28-11.93,7.1-.09.04-.18.08-.28.12-.29.12-.58.25-.87.36-.1.04-.19.08-.29.12-.06.03-.13.05-.19.08-.14.25-.26.51-.39.77.3-.12.6-.23.9-.35.1-.04.19-.08.29-.12.29-.12.58-.24.87-.37Z"/>
      <path class="st12" d="M129.3,119.27c.41-.27.81-.54,1.22-.81-.28,0-.55,0-.83,0-.49.28-.98.55-1.47.81-3.52,2.23-7.21,4.09-11.03,5.53-.21.28-.42.57-.61.86.09-.03.18-.06.26-.1,4.33-1.59,8.51-3.7,12.47-6.29Z"/>
      <path class="st12" d="M128.58,118.51c-.51.23-1.02.46-1.54.68-2.53,1.3-5.13,2.44-7.8,3.4-.36.32-.71.66-1.04,1.01,3.44-1.16,6.78-2.61,10.01-4.33.49-.26.99-.53,1.47-.81-.37,0-.74.03-1.11.06Z"/>
      <path class="st12" d="M125.95,118.98c-.07.02-.13.04-.2.07-.98.4-1.96.77-2.96,1.13-.83.42-1.63.91-2.38,1.46,2.25-.71,4.46-1.52,6.62-2.44.52-.22,1.03-.45,1.54-.68-.9.08-1.77.24-2.63.47Z"/>
    </g>
    <path class="st12" d="M124.36,119.48c.46-.14.93-.29,1.39-.44.07-.02.13-.04.2-.07-.54.14-1.07.31-1.59.51Z"/>
  </g>
  <g>
    <line class="st6" x1="274.56" y1="124.19" x2="155.74" y2="124.19"/>
    <line class="st6" x1="274.56" y1="135.29" x2="155.74" y2="135.29"/>
    <line class="st6" x1="208.59" y1="146.39" x2="155.74" y2="146.39"/>
  </g>
</svg>