<?xml version="1.0" encoding="UTF-8"?>
<svg id="Layer_1" xmlns="http://www.w3.org/2000/svg" version="1.1" xmlns:xlink="http://www.w3.org/1999/xlink" viewBox="0 0 134.74 190.23">
  <!-- Generator: Adobe Illustrator 29.8.1, SVG Export Plug-In . SVG Version: 2.1.1 Build 2)  -->
  <defs>
    <style>
      .st0 {
        fill: #152841;
      }

      .st0, .st1, .st2, .st3, .st4 {
        fill-rule: evenodd;
      }

      .st1, .st5 {
        fill: #205fa9;
      }

      .st6 {
        fill: #d9d9d9;
      }

      .st7 {
        fill: #f0f0f0;
      }

      .st8 {
        fill: #ed727d;
      }

      .st2 {
        fill: #f3a3aa;
      }

      .st9, .st10, .st3, .st11 {
        fill: #fff;
      }

      .st10, .st12, .st11, .st13 {
        font-family: ArialMT, Arial;
      }

      .st10, .st13 {
        font-size: 2.52px;
      }

      .st14 {
        fill: none;
      }

      .st12 {
        fill: #f9c026;
      }

      .st12, .st11 {
        font-size: 2.52px;
      }

      .st4 {
        fill: #f1959d;
      }

      .st15 {
        clip-path: url(#clippath);
      }
    </style>
    <clipPath id="clippath">
      <rect class="st14" x="29.24" y="62.38" width="74.09" height="74.16"/>
    </clipPath>
  </defs>
  <path class="st9" d="M127.85,189.66l-120.77.09c-3.63,0-6.58-2.94-6.58-6.57L.37,7C.37,3.37,3.31.42,6.94.42l120.77-.09c3.63,0,6.58,2.94,6.58,6.57l.13,176.18c0,3.63-2.94,6.58-6.57,6.58"/>
  <path class="st8" d="M8.16,187.78c-2.54,0-4.61-2.06-4.61-4.61L3.42,6.99c0-2.54,2.07-4.61,4.61-4.61l120.77-.09c2.54,0,4.61,2.06,4.61,4.61l.12,176.17c0,2.54-2.06,4.61-4.61,4.61l-120.77.09Z"/>
  <path class="st6" d="M7.07,190.07c-3.8,0-6.9-3.09-6.9-6.9L.04,7C.04,3.19,3.14.09,6.94.09L127.71,0h0c1.84,0,3.57.72,4.88,2.02,1.31,1.3,2.02,3.04,2.03,4.88l.13,176.18c0,3.81-3.09,6.9-6.9,6.91l-120.77.09h0ZM127.72.66h0L6.94.74c-3.45,0-6.25,2.81-6.24,6.25l.13,176.18c0,3.44,2.81,6.24,6.25,6.24h0l120.77-.09c3.44,0,6.25-2.81,6.24-6.25l-.13-176.17c0-1.67-.65-3.24-1.83-4.42-1.18-1.18-2.75-1.83-4.41-1.83Z"/>
  <path class="st9" d="M127.71,4.26c1.46,0,2.65,1.18,2.65,2.64l.13,176.18c0,1.46-1.18,2.65-2.64,2.65l-120.77.09c-1.46,0-2.65-1.18-2.65-2.64l-.12-176.18c0-1.46,1.18-2.65,2.64-2.65l120.77-.09ZM127.71.33L6.94.42C3.31.42.37,3.37.37,7l.12,176.18c0,3.63,2.95,6.57,6.58,6.57l120.77-.09c3.63,0,6.57-2.95,6.57-6.58l-.12-176.18c0-3.63-2.95-6.57-6.58-6.57"/>
  <g>
    <g class="st15">
      <text class="st13" transform="translate(29.24 64.75)"><tspan x="0" y="0"> </tspan></text>
    </g>
    <path class="st1" d="M29.39,80.84c0-10.13,8.22-18.46,18.36-18.46.05.27.08,18.45,0,18.45.01.03-18.36.09-18.37,0h0Z"/>
    <path class="st2" d="M66.09,62.42c0,10.13-8.22,18.46-18.36,18.46-.05-.27-.08-18.45,0-18.45-.01-.03,18.36-.09,18.37,0h0Z"/>
    <text class="st10" transform="translate(56.9 70.81) rotate(-180)"><tspan x="0" y="0"> </tspan></text>
    <path class="st0" d="M66.12,71.63c0-5.11,4.14-9.25,9.26-9.25s9.26,4.14,9.26,9.25-4.14,9.25-9.26,9.25-9.26-4.14-9.26-9.25h0Z"/>
    <path class="st2" d="M103.15,62.42c0,10.13-8.22,18.46-18.36,18.46-.05-.27-.08-18.45,0-18.45-.01-.03,18.36-.09,18.37,0h0Z"/>
    <text class="st10" transform="translate(93.44 70.8) rotate(-180)"><tspan x="0" y="0"> </tspan></text>
    <path class="st1" d="M103.26,99.24c-10.14,0-18.47-8.22-18.47-18.35.27-.05,18.46-.08,18.47,0,.03-.01.09,18.34,0,18.36h0Z"/>
    <text class="st11" transform="translate(94.89 90.03) rotate(-90)"><tspan x="0" y="0"> </tspan></text>
    <path class="st2" d="M66.21,80.99c10.14,0,18.47,8.22,18.47,18.35-.27.05-18.46.08-18.47,0-.03.01-.09-18.34,0-18.36h0Z"/>
    <text class="st11" transform="translate(74.61 90.19) rotate(90)"><tspan x="0" y="0"> </tspan></text>
    <path class="st3" d="M66.09,81.03c0,10.13-8.22,18.46-18.36,18.46-.05-.27-.08-18.45,0-18.45-.01-.03,18.36-.09,18.37,0h0Z"/>
    <text class="st10" transform="translate(56.42 89.39) rotate(-180)"><tspan x="0" y="0"> </tspan></text>
    <path class="st4" d="M29.24,90.24c0-5.11,4.14-9.25,9.26-9.25s9.26,4.14,9.26,9.25-4.14,9.25-9.26,9.25-9.26-4.14-9.26-9.25h0Z"/>
    <path class="st4" d="M47.78,99.61c0,10.13-8.21,18.46-18.34,18.46-.05-.27-.08-18.45,0-18.45-.01-.03,18.33-.09,18.35,0h0Z"/>
    <path class="st2" d="M47.68,117.85c0-10.18,8.26-18.44,18.45-18.44-.03-.12-.05,18.03-.12,18.06.08-.02.16,18.84.12,18.82-10.19,0-18.45-8.26-18.45-18.44h0Z"/>
    <text class="st10" transform="translate(55.06 120.23)"><tspan x="0" y="0"> </tspan></text>
    <path class="st3" d="M47.78,118.06c0,10.13-8.21,18.46-18.34,18.46-.05-.27-.08-18.45,0-18.45-.01-.03,18.33-.09,18.35,0h0Z"/>
    <text class="st10" transform="translate(38.12 126.43) rotate(-180)"><tspan x="0" y="0"> </tspan></text>
    <path class="st1" d="M66.12,127.12c0-5.11,4.14-9.25,9.26-9.25s9.26,4.14,9.26,9.25-4.14,9.25-9.26,9.25-9.26-4.14-9.26-9.25h0Z"/>
    <path class="st0" d="M66.12,117.87c0-10.13,8.22-18.46,18.36-18.46.05.27.08,18.45,0,18.45.01.03-18.36.09-18.37,0h0Z"/>
    <text class="st10" transform="translate(75.33 109.5)"><tspan x="0" y="0"> </tspan></text>
    <path class="st3" d="M84.58,117.72c0-10.13,8.32-18.46,18.59-18.46.05.27.08,18.45,0,18.45.01.03-18.58.09-18.6,0h0Z"/>
    <text class="st10" transform="translate(93.89 109.34)"><tspan x="0" y="0"> </tspan></text>
    <path class="st0" d="M103.11,136.12c-10.14,0-18.47-8.22-18.47-18.35.27-.05,18.46-.08,18.47,0,.03-.01.09,18.34,0,18.36h0Z"/>
    <text class="st12" transform="translate(94.74 126.91) rotate(-90)"><tspan x="0" y="0"> </tspan></text>
  </g>
  <path class="st9" d="M89.56,173.39h0l33.11-.02c.54,0,.98-.44.98-.98,0-.54-.44-.98-.98-.98h0l-33.11.02c-.54,0-.98.44-.98.98,0,.54.44.98.98.98Z"/>
  <path class="st9" d="M99,176.45h0l23.67-.02c.54,0,.98-.44.98-.98,0-.54-.44-.98-.98-.98h0l-23.67.02c-.54,0-.98.44-.98.98,0,.54.44.98.98.98Z"/>
  <path class="st9" d="M36.79,173.6h0l-23.67-.02c-.54,0-.98-.44-.98-.98,0-.54.44-.98.98-.98h0l23.67.02c.54,0,.98.44.98.98,0,.54-.44.98-.98.98Z"/>
  <path class="st9" d="M23.61,170.61h0l-10.49-.02c-.54,0-.98-.44-.98-.98,0-.54.44-.98.98-.98h0l10.49.02c.54,0,.98.44.98.98,0,.54-.44.98-.98.98Z"/>
  <path class="st9" d="M122.67,170.33h0l-20.26-.02c-.54,0-.98-.44-.98-.98,0-.54.44-.98.98-.98h0l20.26.02c.54,0,.98.44.98.98,0,.54-.44.98-.98.98Z"/>
  <path class="st9" d="M34.11,176.66h0l-20.98-.02c-.54,0-.98-.44-.98-.98,0-.54.44-.98.98-.98h0l20.98.02c.54,0,.98.44.98.98,0,.54-.44.98-.98.98Z"/>
  <g>
    <path class="st9" d="M15.59,90.01c0-.3.02-.57.07-.81.05-.24.13-.47.24-.68.12-.21.28-.4.48-.58.2-.18.46-.36.78-.53.27-.15.51-.27.72-.38.21-.11.38-.21.53-.31.14-.09.25-.19.32-.29.07-.1.11-.21.11-.33,0-.2-.08-.37-.24-.51-.16-.14-.39-.22-.69-.22-.16,0-.31.02-.44.06-.13.04-.26.1-.38.18-.12.07-.22.15-.32.25-.1.09-.18.18-.26.28l-.86-.99c.09-.09.21-.2.37-.31s.35-.21.57-.31.46-.18.72-.24.54-.1.84-.1c.34,0,.64.04.91.12.27.08.49.2.67.35.18.15.32.33.42.54s.15.44.15.69c0,.23-.04.44-.13.62-.09.18-.2.34-.33.48-.13.14-.28.26-.44.36-.16.1-.31.19-.45.27-.12.07-.26.14-.41.23-.15.09-.31.18-.46.29-.15.1-.29.21-.42.32-.13.11-.22.22-.29.33h3.03v1.21h-4.82Z"/>
    <path class="st9" d="M26.5,87.08c0,.44-.07.85-.2,1.22-.13.37-.31.69-.54.96-.23.27-.5.48-.82.63-.32.15-.66.23-1.03.23s-.72-.08-1.03-.23-.58-.36-.81-.63c-.23-.27-.41-.59-.54-.96-.13-.37-.2-.78-.2-1.22s.07-.84.2-1.21.31-.69.54-.96c.23-.27.5-.48.81-.64.31-.15.66-.23,1.03-.23s.71.08,1.03.23c.32.15.59.37.82.64.23.27.41.59.54.96s.2.77.2,1.21ZM25.15,87.08c0-.27-.03-.51-.09-.73-.06-.22-.14-.42-.25-.58-.11-.16-.24-.28-.39-.37-.15-.09-.32-.13-.5-.13s-.36.04-.5.13c-.15.09-.28.21-.39.37-.11.16-.19.35-.25.58-.06.22-.09.47-.09.73s.03.51.09.73c.06.22.15.41.25.57.11.16.24.28.39.37.15.09.32.13.5.13s.34-.04.5-.13c.15-.09.28-.21.39-.37.11-.16.2-.35.25-.57.06-.22.09-.46.09-.73Z"/>
    <path class="st9" d="M27.37,90.01c0-.3.02-.57.07-.81s.13-.47.25-.68c.12-.21.28-.4.48-.58.2-.18.46-.36.78-.53.27-.15.51-.27.72-.38.21-.11.39-.21.53-.31s.25-.19.32-.29c.07-.1.11-.21.11-.33,0-.2-.08-.37-.24-.51-.16-.14-.39-.22-.69-.22-.16,0-.31.02-.44.06-.13.04-.26.1-.38.18-.12.07-.22.15-.32.25-.1.09-.19.18-.27.28l-.86-.99c.09-.09.21-.2.37-.31s.35-.21.56-.31.46-.18.72-.24c.26-.06.54-.1.84-.1.34,0,.64.04.91.12.27.08.49.2.67.35s.32.33.42.54.14.44.14.69c0,.23-.04.44-.13.62-.09.18-.2.34-.33.48-.13.14-.28.26-.43.36-.16.1-.31.19-.46.27-.12.07-.26.14-.41.23-.15.09-.3.18-.46.29-.15.1-.29.21-.42.32-.13.11-.22.22-.29.33h3.03v1.21h-4.82Z"/>
    <path class="st9" d="M38.3,87.64c0,.35-.07.67-.2.97-.13.3-.32.56-.55.78-.23.22-.51.4-.83.53-.32.13-.66.19-1.03.19-.4,0-.76-.07-1.08-.22s-.6-.36-.82-.64c-.23-.28-.4-.62-.52-1.03-.12-.4-.18-.86-.18-1.38,0-.65.06-1.22.19-1.71.13-.5.31-.91.55-1.25.24-.34.53-.59.87-.77.34-.17.72-.26,1.14-.26.45,0,.86.1,1.23.29.38.19.7.47.96.83l-.77.84c-.16-.25-.37-.45-.62-.59-.25-.14-.53-.21-.82-.21-.45,0-.8.18-1.07.53s-.41.85-.42,1.5c.14-.24.34-.43.59-.57.26-.14.55-.21.89-.21s.67.06.98.18c.3.12.57.29.79.5.22.21.4.46.52.75.13.29.19.6.19.94ZM35.71,88.98c.17,0,.34-.04.5-.1.16-.07.3-.17.42-.29.12-.12.21-.27.29-.43.07-.16.1-.33.1-.52s-.04-.35-.1-.5c-.07-.16-.17-.29-.29-.42s-.26-.21-.42-.28c-.16-.07-.33-.1-.5-.1s-.35.03-.51.1c-.16.07-.3.16-.42.28s-.21.26-.28.42c-.07.16-.1.33-.1.5s.04.35.11.52c.07.16.17.31.29.42.12.12.26.22.42.29.16.07.32.11.5.11Z"/>
    <path class="st5" d="M22.39,102.01v-5.17l-2.01,3.85h-.83l-2.01-3.85v5.17h-1.52v-7.81h1.63l2.31,4.44,2.33-4.44h1.62v7.81h-1.52Z"/>
    <path class="st5" d="M26.92,102.12c-.28,0-.54-.05-.78-.14-.24-.09-.45-.22-.63-.39s-.31-.36-.41-.58c-.1-.22-.15-.46-.15-.73s.06-.52.18-.75c.12-.23.29-.43.51-.59.22-.16.47-.29.78-.38s.63-.14.99-.14c.26,0,.51.02.75.07.25.04.46.11.65.19v-.33c0-.38-.11-.67-.32-.88-.22-.21-.54-.31-.96-.31-.31,0-.61.05-.9.17-.29.11-.59.27-.9.48l-.45-.94c.74-.49,1.54-.74,2.4-.74s1.47.2,1.93.61c.46.41.69,1,.69,1.77v1.79c0,.15.03.26.08.33.05.07.14.1.27.11v1.25c-.25.05-.47.08-.65.08-.28,0-.49-.06-.64-.19s-.24-.29-.28-.5l-.03-.32c-.26.34-.57.59-.93.77-.37.18-.76.26-1.18.26ZM27.33,101.04c.25,0,.49-.04.71-.13s.4-.21.52-.35c.16-.12.24-.26.24-.42v-.66c-.18-.07-.37-.12-.57-.16-.21-.04-.4-.06-.59-.06-.38,0-.69.09-.93.26-.24.17-.36.39-.36.65,0,.25.09.46.29.62.19.17.42.25.7.25Z"/>
    <path class="st5" d="M35.09,97.52c-.45,0-.85.09-1.2.26-.35.17-.61.41-.76.74v3.49h-1.47v-5.76h1.35v1.23c.1-.2.22-.38.36-.53.14-.16.29-.3.45-.41s.33-.21.49-.27c.17-.06.32-.09.48-.09h.18s.08,0,.12.01v1.34Z"/>
    <path class="st5" d="M39.85,102.01l-1.67-2.5-.79.78v1.72h-1.47v-8.03h1.47v4.87l2.31-2.6h1.57l-2.15,2.44,2.3,3.31h-1.57Z"/>
    <path class="st5" d="M44.43,102.12c-.46,0-.88-.08-1.25-.24s-.69-.37-.96-.64c-.26-.27-.47-.59-.61-.95-.14-.36-.21-.74-.21-1.13s.07-.8.21-1.16c.14-.36.34-.68.61-.96.26-.28.58-.49.96-.65.38-.16.8-.24,1.27-.24s.89.08,1.26.24c.37.16.69.38.95.65.26.27.46.59.59.95s.2.73.2,1.12c0,.1,0,.19,0,.27,0,.09-.01.16-.03.22h-4.46c.02.23.08.43.17.6.09.18.2.33.34.45.14.12.3.22.47.29s.36.1.55.1c.29,0,.57-.07.83-.21.26-.14.44-.33.53-.57l1.26.35c-.21.44-.55.8-1.02,1.08-.47.28-1.02.42-1.67.42ZM45.92,98.64c-.04-.43-.2-.78-.48-1.04s-.62-.39-1.03-.39c-.2,0-.38.03-.56.1-.17.07-.32.17-.46.29-.13.12-.24.27-.32.45-.08.18-.13.37-.15.58h2.99Z"/>
    <path class="st5" d="M51.75,101.71c-.2.09-.44.18-.73.26-.29.09-.59.13-.9.13-.21,0-.4-.03-.58-.08s-.34-.13-.47-.25c-.14-.11-.24-.26-.32-.44-.08-.18-.12-.4-.12-.65v-3.31h-.76v-1.13h.76v-1.87h1.47v1.87h1.21v1.13h-1.21v2.82c0,.21.05.35.16.43.11.08.24.13.39.13s.3-.03.45-.08.26-.1.35-.13l.3,1.17Z"/>
    <path class="st5" d="M52.52,95.44v-1.46h1.47v1.46h-1.47ZM52.52,102.01v-5.76h1.47v5.76h-1.47Z"/>
    <path class="st5" d="M60.69,102.01h-1.47v-3.23c0-.46-.08-.8-.24-1.01-.16-.21-.39-.32-.67-.32-.15,0-.3.03-.45.09s-.3.14-.43.25-.26.23-.37.38c-.11.15-.19.31-.24.48v3.37h-1.47v-5.76h1.33v1.07c.21-.37.52-.65.92-.86.4-.21.86-.31,1.36-.31.36,0,.65.07.88.2s.4.3.53.52.21.45.26.73c.05.27.07.55.07.82v3.6Z"/>
    <path class="st5" d="M64.23,102.04c-.39,0-.74-.08-1.06-.23-.32-.15-.59-.36-.82-.63-.23-.27-.41-.58-.53-.93-.12-.35-.19-.73-.19-1.12,0-.42.07-.81.2-1.17.13-.36.32-.67.55-.95.23-.27.52-.48.85-.64.33-.15.69-.23,1.09-.23.45,0,.84.1,1.18.3.34.2.62.47.84.81v-1.01h1.29v5.49c0,.43-.08.81-.24,1.14-.16.34-.38.62-.67.86-.28.23-.62.41-1.01.54-.39.12-.82.19-1.28.19-.63,0-1.16-.1-1.59-.31s-.8-.5-1.11-.89l.8-.78c.22.27.5.48.83.64.33.15.69.23,1.06.23.23,0,.45-.03.66-.09.21-.06.39-.16.56-.29.16-.13.29-.3.38-.51.09-.21.14-.45.14-.73v-.73c-.19.33-.46.58-.8.76s-.72.27-1.11.27ZM64.72,100.86c.16,0,.32-.03.46-.08.15-.05.28-.12.41-.21.12-.09.23-.19.33-.31.09-.12.17-.24.22-.37v-1.38c-.13-.34-.34-.61-.62-.81-.28-.21-.58-.31-.88-.31-.23,0-.43.05-.62.15s-.34.23-.47.4c-.13.17-.23.35-.3.57-.07.21-.1.43-.1.66s.04.45.12.66c.08.21.19.39.33.54.14.15.31.28.5.36.19.09.4.13.63.13Z"/>
    <path class="st5" d="M16.03,114.01v-7.81h3.31c.36,0,.69.08,1,.23s.57.35.79.59c.22.25.39.52.52.84.12.31.19.62.19.94s-.06.65-.18.96-.28.59-.5.83c-.21.24-.47.44-.77.58s-.63.22-.99.22h-1.85v2.62h-1.52ZM17.54,110.06h1.76c.28,0,.51-.11.7-.34.19-.23.28-.54.28-.92,0-.2-.03-.38-.09-.53s-.14-.29-.23-.4c-.1-.11-.21-.19-.34-.25-.13-.06-.26-.08-.39-.08h-1.69v2.53Z"/>
    <path class="st5" d="M22.72,105.98h1.47v6.18c0,.21.05.38.15.5s.25.18.44.18c.09,0,.18-.01.29-.04.11-.03.21-.07.3-.11l.2,1.12c-.2.1-.43.17-.69.22-.26.05-.5.08-.71.08-.46,0-.82-.12-1.07-.37s-.38-.6-.38-1.05v-6.7Z"/>
    <path class="st5" d="M27.8,114.12c-.28,0-.54-.05-.78-.14-.24-.09-.45-.22-.63-.39s-.31-.36-.41-.58c-.1-.22-.15-.46-.15-.73s.06-.52.18-.75c.12-.23.29-.43.51-.59.22-.16.47-.29.78-.38s.63-.14.99-.14c.26,0,.51.02.75.07.25.04.46.11.65.19v-.33c0-.38-.11-.67-.32-.88-.22-.21-.54-.31-.96-.31-.31,0-.61.05-.9.17-.29.11-.59.27-.9.48l-.45-.94c.74-.49,1.54-.74,2.4-.74s1.47.2,1.93.61c.46.41.69,1,.69,1.77v1.79c0,.15.03.26.08.33.05.07.14.1.27.11v1.25c-.25.05-.47.08-.65.08-.28,0-.49-.06-.64-.19s-.24-.29-.28-.5l-.03-.32c-.26.34-.57.59-.93.77-.37.18-.76.26-1.18.26ZM28.21,113.04c.25,0,.49-.04.71-.13s.4-.21.52-.35c.16-.12.24-.26.24-.42v-.66c-.18-.07-.37-.12-.57-.16-.21-.04-.4-.06-.59-.06-.38,0-.69.09-.93.26-.24.17-.36.39-.36.65,0,.25.09.46.29.62.19.17.42.25.7.25Z"/>
    <path class="st5" d="M37.89,114.01h-1.47v-3.23c0-.46-.08-.8-.24-1.01-.16-.21-.39-.32-.67-.32-.15,0-.3.03-.45.09s-.3.14-.43.25-.26.23-.37.38c-.11.15-.19.31-.24.48v3.37h-1.47v-5.76h1.33v1.07c.21-.37.52-.65.92-.86.4-.21.86-.31,1.36-.31.36,0,.65.07.88.2s.4.3.53.52.21.45.26.73c.05.27.07.55.07.82v3.6Z"/>
  </g>
  <path class="st7" d="M25.73,20.81c-.81,0-1.47-.66-1.47-1.47s.66-1.47,1.47-1.47h18.5s0-.01,0-.01c.81,0,1.47.66,1.47,1.47s-.66,1.47-1.47,1.47h-18.5s0,.01,0,.01Z"/>
  <path class="st7" d="M16.29,20.82c-.81,0-1.47-.66-1.47-1.47,0-.81.66-1.48,1.47-1.48h4.75s0-.01,0-.01c.81,0,1.47.66,1.47,1.47,0,.81-.66,1.48-1.47,1.48h-4.75s0,.01,0,.01Z"/>
  <path class="st5" d="M32.37,16.19h0l-16.24-.02c-.61,0-1.1-.49-1.1-1.1,0-.61.49-1.1,1.1-1.1h0l16.24.02c.61,0,1.1.49,1.1,1.1,0,.61-.49,1.1-1.1,1.1Z"/>
</svg>