<?xml version="1.0" encoding="UTF-8"?>
<svg id="Layer_1" xmlns="http://www.w3.org/2000/svg" version="1.1" xmlns:xlink="http://www.w3.org/1999/xlink" viewBox="0 0 134.74 190.23">
  <!-- Generator: Adobe Illustrator 29.8.1, SVG Export Plug-In . SVG Version: 2.1.1 Build 2)  -->
  <defs>
    <style>
      .st0 {
        fill: #f7c027;
      }

      .st1 {
        clip-path: url(#clippath-4);
      }

      .st2 {
        fill: #f2f2f2;
      }

      .st3 {
        stroke: #d9d9d9;
        stroke-width: .65px;
      }

      .st3, .st4, .st5, .st6 {
        fill: none;
      }

      .st3, .st5, .st6 {
        stroke-miterlimit: 10;
      }

      .st3, .st6 {
        stroke-linecap: round;
      }

      .st7 {
        fill: #ed727d;
      }

      .st8 {
        fill: #fff;
      }

      .st9 {
        fill: #2160a9;
      }

      .st5 {
        stroke: #f2f2f2;
        stroke-width: 2.62px;
      }

      .st6 {
        stroke: #f5f5f5;
        stroke-width: 2.95px;
      }

      .st10 {
        fill: #318370;
      }

      .st11 {
        fill: #fceaec;
      }

      .st12 {
        clip-path: url(#clippath-3);
      }

      .st13 {
        fill: #e0edea;
      }
    </style>
    <clipPath id="clippath">
      <rect class="st4" x="-180.28" y="-25.67" width="185.81" height="242.03"/>
    </clipPath>
    <clipPath id="clippath-1">
      <rect class="st4" x="-180.28" y="-25.67" width="185.81" height="242.03"/>
    </clipPath>
    <clipPath id="clippath-3">
      <rect class="st4" x="-26.94" y="-25.69" width="185.83" height="242.05"/>
    </clipPath>
    <clipPath id="clippath-4">
      <rect class="st4" x="-26.94" y="-25.69" width="185.83" height="242.05"/>
    </clipPath>
  </defs>
  <g class="st12">
    <g class="st1">
      <path class="st8" d="M127.84,189.78l-120.76.1c-3.63,0-6.58-2.94-6.58-6.57L.35,7.09c0-3.63,2.94-6.58,6.57-6.58l120.76-.1c3.63,0,6.58,2.94,6.58,6.57l.15,176.22c0,3.63-2.94,6.58-6.57,6.58"/>
      <path class="st3" d="M7,.46h120.76c3.63,0,6.58,2.95,6.58,6.58v176.22c0,3.63-2.95,6.58-6.58,6.58H7c-3.63,0-6.58-2.95-6.58-6.58V7.03C.43,3.4,3.37.46,7,.46Z"/>
      <line class="st6" x1="21.08" y1="33.05" x2="61.92" y2="33.02"/>
      <line class="st6" x1="21.08" y1="38.21" x2="61.93" y2="38.18"/>
      <line class="st6" x1="21.08" y1="43.37" x2="61.93" y2="43.34"/>
      <path class="st9" d="M23.06,30.26h-3.1c-.4,0-.73.33-.73.73v3.1c0,.4.33.73.73.73h3.1c.4,0,.73-.33.73-.73v-3.1c0-.4-.33-.73-.73-.73"/>
      <path class="st8" d="M20.66,33.31c.16.15.3.43.57.25l1.54-1.54c.18-.23-.07-.53-.31-.35l-1.38,1.38c-.06,0-.46-.48-.54-.52-.14-.06-.32.02-.35.18-.03.19.35.48.48.6"/>
      <path class="st13" d="M95.67,40.97c-.3-.52-.69-.78-1.09-.78s-.79.26-1.09.78l-6.07,10.53c-.56-.97-2.61-4.51-2.61-4.51-.3-.52-.69-.78-1.09-.78s-.79.26-1.09.78c0,0-2.48,4.31-3.08,5.35l-.91,1.58c-.6,1.04-.11,1.88,1.09,1.88l22.33-.02c1.19,0,1.68-.85,1.09-1.88l-7.48-12.93Z"/>
      <path class="st13" d="M84.81,42.02c1.67,0,3.02-1.35,3.02-3.02s-1.35-3.02-3.02-3.02-3.02,1.35-3.02,3.02,1.35,3.02,3.02,3.02"/>
      <path class="st13" d="M108.72,28.95l-35.68.03c-2.6,0-4.71,2.11-4.71,4.71l.02,24.42c0,2.59,2.12,4.7,4.72,4.7l35.68-.03c2.6,0,4.71-2.11,4.71-4.71l-.02-24.42c0-2.59-2.12-4.7-4.72-4.7M110.64,58.08c0,1.04-.85,1.89-1.89,1.89l-35.68.03c-1.04,0-1.89-.84-1.9-1.88l-.02-24.42c0-1.04.85-1.89,1.89-1.89l35.68-.03c1.04,0,1.89.84,1.9,1.88l.02,24.42Z"/>
      <line class="st6" x1="21.09" y1="53.28" x2="61.94" y2="53.25"/>
      <line class="st6" x1="21.1" y1="58.44" x2="61.94" y2="58.4"/>
      <line class="st6" x1="21.1" y1="63.6" x2="28.54" y2="63.59"/>
      <path class="st9" d="M23.07,50.49h-3.1c-.4,0-.73.33-.73.73v3.1c0,.4.33.73.73.73h3.1c.4,0,.73-.33.73-.73v-3.1c0-.4-.33-.73-.73-.73"/>
      <path class="st8" d="M20.68,53.54c.16.15.3.43.57.25l1.54-1.54c.18-.23-.07-.53-.31-.35l-1.38,1.38c-.06,0-.46-.48-.54-.52-.14-.06-.32.02-.35.18-.03.19.35.48.48.6"/>
      <line class="st6" x1="21.11" y1="75.28" x2="61.96" y2="75.24"/>
      <line class="st6" x1="21.11" y1="80.44" x2="61.96" y2="80.4"/>
      <line class="st6" x1="21.12" y1="85.6" x2="50.82" y2="85.57"/>
      <path class="st9" d="M23.09,72.49h-3.1c-.4,0-.73.33-.73.73v3.1c0,.4.33.73.73.73h3.1c.4,0,.73-.33.73-.73v-3.1c0-.4-.33-.73-.73-.73"/>
      <path class="st8" d="M20.7,75.54c.16.15.3.43.57.25l1.54-1.54c.18-.23-.07-.53-.31-.35l-1.38,1.38c-.06,0-.46-.48-.54-.52-.14-.06-.32.02-.35.18-.03.19.35.48.48.6"/>
      <path class="st2" d="M122.72,176.17l-.12-144.47h2.89c2.03,0,3.68-1.65,3.68-3.69v-13.1c-.01-2.03-1.66-3.68-3.7-3.68h-8.11s-.65,0-.65,0l-102.5.09c-2.88,0-5.22,2.34-5.22,5.23l.13,159.71c0,2.88,2.34,5.22,5.23,5.22l103.15-.09c2.88,0,5.22-2.34,5.22-5.23M14.35,178.53c-1.25,0-2.28-1.02-2.28-2.27l-.13-159.71c0-1.25,1.02-2.28,2.27-2.28l103.15-.09c1.25,0,2.28,1.02,2.28,2.27l.13,159.71c0,1.25-1.02,2.28-2.27,2.28l-103.15.09Z"/>
      <line class="st6" x1="71.45" y1="111.37" x2="112.3" y2="111.33"/>
      <line class="st6" x1="71.45" y1="116.52" x2="112.3" y2="116.49"/>
      <line class="st6" x1="71.46" y1="121.68" x2="112.3" y2="121.65"/>
      <path class="st9" d="M73.43,108.58h-3.1c-.4,0-.73.33-.73.73v3.1c0,.4.33.73.73.73h3.1c.4,0,.73-.33.73-.73v-3.1c0-.4-.33-.73-.73-.73"/>
      <path class="st8" d="M71.04,111.62c.16.15.3.43.57.25l1.54-1.54c.18-.23-.07-.53-.31-.35l-1.38,1.38c-.06,0-.46-.48-.54-.52-.14-.06-.32.02-.35.18-.03.19.35.48.48.6"/>
      <line class="st6" x1="71.46" y1="131.59" x2="112.31" y2="131.56"/>
      <line class="st6" x1="71.47" y1="136.75" x2="112.32" y2="136.72"/>
      <line class="st6" x1="71.47" y1="141.91" x2="78.91" y2="141.9"/>
      <path class="st9" d="M73.45,128.8h-3.1c-.4,0-.73.33-.73.73v3.1c0,.4.33.73.73.73h3.1c.4,0,.73-.33.73-.73v-3.1c0-.4-.33-.73-.73-.73"/>
      <path class="st8" d="M71.05,131.85c.16.15.3.43.57.25l1.54-1.54c.18-.23-.07-.53-.31-.35l-1.38,1.38c-.06,0-.46-.48-.54-.52-.14-.06-.32.02-.35.18-.03.19.35.48.48.6"/>
      <line class="st6" x1="71.48" y1="153.59" x2="112.33" y2="153.56"/>
      <line class="st6" x1="71.49" y1="158.75" x2="112.34" y2="158.71"/>
      <line class="st6" x1="71.49" y1="163.91" x2="101.19" y2="163.88"/>
      <path class="st9" d="M73.46,150.8h-3.1c-.4,0-.73.33-.73.73v3.1c0,.4.33.73.73.73h3.1c.4,0,.73-.33.73-.73v-3.1c0-.4-.33-.73-.73-.73"/>
      <path class="st8" d="M71.07,153.85c.16.15.3.43.57.25l1.54-1.54c.18-.23-.07-.53-.31-.35l-1.38,1.38c-.06,0-.46-.48-.54-.52-.14-.06-.32.02-.35.18-.03.19.35.48.48.6"/>
      <path class="st11" d="M45.73,119.36c-.3-.52-.69-.78-1.09-.78s-.79.26-1.09.78l-6.07,10.53c-.56-.97-2.61-4.51-2.61-4.51-.3-.52-.69-.78-1.09-.78s-.79.26-1.09.78c0,0-2.48,4.31-3.08,5.35l-.91,1.58c-.6,1.04-.11,1.88,1.09,1.88l22.33-.02c1.19,0,1.68-.85,1.09-1.88l-7.48-12.93Z"/>
      <path class="st11" d="M34.87,120.41c1.67,0,3.02-1.35,3.02-3.02s-1.35-3.02-3.02-3.02-3.02,1.35-3.02,3.02,1.35,3.02,3.02,3.02"/>
      <path class="st11" d="M58.78,107.35l-35.68.03c-2.6,0-4.71,2.11-4.71,4.71l.02,24.42c0,2.59,2.12,4.7,4.72,4.7l35.68-.03c2.6,0,4.71-2.11,4.71-4.71l-.02-24.42c0-2.59-2.12-4.7-4.72-4.7M60.7,136.47c0,1.04-.85,1.89-1.89,1.89l-35.68.03c-1.04,0-1.89-.84-1.9-1.88l-.02-24.42c0-1.04.85-1.89,1.89-1.89l35.68-.03c1.04,0,1.89.84,1.9,1.88l.02,24.42Z"/>
      <path class="st5" d="M120.24,33.3h4.95c1.45,0,2.62,1.17,2.63,2.62v13.08c.01,1.45-1.16,2.62-2.61,2.63h-4.95"/>
      <rect class="st8" x="117.2" y="34.7" width="6.83" height="15.77"/>
      <path class="st2" d="M120.26,54.68h4.95c1.45,0,2.62,1.17,2.63,2.62v13.08c.01,1.45-1.16,2.62-2.61,2.63h-4.95"/>
      <path class="st5" d="M120.26,54.68h4.95c1.45,0,2.62,1.17,2.63,2.62v13.08c.01,1.45-1.16,2.62-2.61,2.63h-4.95"/>
      <path class="st0" d="M123.1,22.23l-.62-.85c-.08-.12.03-.27.17-.23l1,.33c.06.02.13,0,.17-.05l.62-.85c.08-.12.27-.06.27.09v1.05c0,.06.04.12.1.14l1,.33c.14.04.14.24,0,.28l-1,.33c-.06.02-.1.08-.1.14v1.05c0,.14-.18.2-.27.09l-.62-.85c-.04-.05-.11-.07-.17-.05l-1,.33c-.14.04-.25-.11-.17-.23l.62-.85c.04-.05.04-.12,0-.17"/>
      <path class="st10" d="M122.2,40.19l-.62-.85c-.08-.12.03-.27.17-.23l1,.33c.06.02.13,0,.17-.05l.62-.85c.08-.12.27-.06.27.09v1.05c0,.06.04.12.1.14l1,.33c.14.04.14.24,0,.28l-1,.33c-.06.02-.1.08-.1.14v1.05c0,.14-.18.2-.27.09l-.62-.85c-.04-.05-.11-.07-.17-.05l-1,.33c-.14.04-.25-.11-.17-.23l.62-.85c.04-.05.04-.12,0-.17"/>
      <path class="st10" d="M122.2,44.57l-.62-.85c-.08-.12.03-.27.17-.23l1,.33c.06.02.13,0,.17-.05l.62-.85c.08-.12.27-.06.27.09v1.05c0,.06.04.12.1.14l1,.33c.14.04.14.24,0,.28l-1,.33c-.06.02-.1.08-.1.14v1.05c0,.14-.18.2-.27.09l-.62-.85c-.04-.05-.11-.07-.17-.05l-1,.33c-.14.04-.25-.11-.17-.23l.62-.85c.04-.05.04-.12,0-.17"/>
      <path class="st0" d="M123.46,59.77l-.62-.85c-.08-.12.03-.27.17-.23l1,.33c.06.02.13,0,.17-.05l.62-.85c.08-.12.27-.06.27.09v1.05c0,.06.04.12.1.14l1,.33c.14.04.14.24,0,.28l-1,.33c-.06.02-.1.08-.1.14v1.05c0,.14-.18.2-.27.09l-.62-.85c-.04-.05-.11-.07-.17-.05l-1,.33c-.14.04-.25-.11-.17-.23l.62-.85c.04-.05.04-.12,0-.17"/>
      <path class="st0" d="M123.47,64.15l-.62-.85c-.08-.12.03-.27.17-.23l1,.33c.06.02.13,0,.17-.05l.62-.85c.08-.12.27-.06.27.09v1.05c0,.06.04.12.1.14l1,.33c.14.04.14.24,0,.28l-1,.33c-.06.02-.1.08-.1.14v1.05c0,.14-.18.2-.27.09l-.62-.85c-.04-.05-.11-.07-.17-.05l-1,.33c-.14.04-.25-.11-.17-.23l.62-.85c.04-.05.04-.12,0-.17"/>
      <path class="st0" d="M123.47,68.53l-.62-.85c-.08-.12.03-.27.17-.23l1,.33c.06.02.13,0,.17-.05l.62-.85c.08-.12.27-.06.27.09v1.05c0,.06.04.12.1.14l1,.33c.14.04.14.24,0,.28l-1,.33c-.06.02-.1.08-.1.14v1.05c0,.14-.18.2-.27.09l-.62-.85c-.04-.05-.11-.07-.17-.05l-1,.33c-.14.04-.25-.11-.17-.23l.62-.85c.04-.05.04-.12,0-.17"/>
      <path class="st10" d="M108.58,54.36h-3.1c-.4,0-.73.33-.73.73v3.1c0,.4.33.73.73.73h3.1c.4,0,.73-.33.73-.73v-3.1c0-.4-.33-.73-.73-.73"/>
      <path class="st8" d="M106.97,58.19h-.83c-.36,0-.65-.29-.65-.65v-1.81c0-.36.29-.65.65-.65h1.81c.36,0,.65.29.65.65v.83s-.24,0-.24,0v-.83c0-.22-.18-.4-.4-.4h-1.81c-.22,0-.4.18-.4.4v1.81c0,.22.18.4.4.4h.83s0,.24,0,.24Z"/>
      <path class="st8" d="M108.41,58.55h-.72c-.26,0-.48-.21-.48-.48v-.72c0-.26.21-.48.48-.48h.72c.26,0,.48.21.48.48v.72c0,.26-.21.48-.48.48M107.69,57.12c-.13,0-.23.1-.23.23v.72c0,.13.11.23.23.23h.72c.13,0,.23-.11.23-.23v-.72c0-.13-.11-.23-.23-.23h-.72Z"/>
      <path class="st8" d="M107.16,56.91s-.06-.01-.09-.04l-1.1-1.1s-.05-.13,0-.17c.05-.05.13-.05.17,0l1.1,1.1s.05.13,0,.17c-.02.02-.05.04-.09.04"/>
      <path class="st8" d="M107.32,56.95h-.92c-.07,0-.12-.05-.12-.12s.05-.12.12-.12h.67s0-.67,0-.67c0-.07.05-.12.12-.12s.12.05.12.12v.92Z"/>
      <path class="st7" d="M58.56,132.17h-3.1c-.4,0-.73.33-.73.73v3.1c0,.4.33.73.73.73h3.1c.4,0,.73-.33.73-.73v-3.1c0-.4-.33-.73-.73-.73"/>
      <path class="st8" d="M56.94,136h-.83c-.36,0-.65-.29-.65-.65v-1.81c0-.36.29-.65.65-.65h1.81c.36,0,.65.29.65.65v.83s-.24,0-.24,0v-.83c0-.22-.18-.4-.4-.4h-1.81c-.22,0-.4.18-.4.4v1.81c0,.22.18.4.4.4h.83s0,.24,0,.24Z"/>
      <path class="st8" d="M58.39,136.36h-.72c-.26,0-.48-.21-.48-.48v-.72c0-.26.21-.48.48-.48h.72c.26,0,.48.21.48.48v.72c0,.26-.21.48-.48.48M57.67,134.94c-.13,0-.23.1-.23.23v.72c0,.13.11.23.23.23h.72c.13,0,.23-.11.23-.23v-.72c0-.13-.11-.23-.23-.23h-.72Z"/>
      <path class="st8" d="M57.14,134.72s-.06-.01-.09-.04l-1.1-1.1s-.05-.13,0-.17c.05-.05.13-.05.17,0l1.1,1.1s.05.13,0,.17c-.02.02-.05.04-.09.04"/>
      <path class="st8" d="M57.3,134.76h-.92c-.07,0-.12-.05-.12-.12s.05-.12.12-.12h.67s0-.67,0-.67c0-.07.05-.12.12-.12s.12.05.12.12v.92Z"/>
      <path class="st0" d="M10.05,6.23c.14.65.36,1.26.63,1.86.13.29.59.39.84.22.52-.36,1.06-.66,1.63-.92.3-.14.61-.26.92-.37.28-.1.64-.27.94-.26.59.02,1.22.45,1.75.67.63.26,1.31.46,2,.43.65-.03,1.19-.31,1.8-.49.68-.2,1.37-.03,2.05.1,1.41.26,2.84.39,4.28.39,1.63,0,3.27-.15,4.87-.47.77-.15.45-1.34-.33-1.18-2.81.55-5.75.58-8.57.06-.74-.14-1.48-.3-2.24-.17-.62.1-1.17.47-1.8.53-1.37.13-2.42-.99-3.73-1.09-.74-.05-1.57.37-2.24.65-.69.29-1.34.64-1.96,1.07.28.07.56.15.84.22-.23-.5-.39-1.03-.51-1.57-.17-.77-1.35-.44-1.18.33"/>
    </g>
  </g>
</svg>