<?xml version="1.0" encoding="UTF-8"?>
<svg id="Layer_1" xmlns="http://www.w3.org/2000/svg" version="1.1" xmlns:xlink="http://www.w3.org/1999/xlink" viewBox="0 0 134.74 190.23">
  <!-- Generator: Adobe Illustrator 29.8.1, SVG Export Plug-In . SVG Version: 2.1.1 Build 2)  -->
  <defs>
    <style>
      .st0 {
        stroke: #f2f2f2;
        stroke-width: 1.96px;
      }

      .st0, .st1, .st2 {
        stroke-linecap: round;
        stroke-miterlimit: 10;
      }

      .st0, .st1, .st2, .st3 {
        fill: none;
      }

      .st1 {
        stroke: #d9d9d9;
        stroke-width: .65px;
      }

      .st4 {
        fill: #f7c027;
      }

      .st5 {
        clip-path: url(#clippath-4);
      }

      .st6 {
        fill: #f2f2f2;
      }

      .st7 {
        fill: #fff;
      }

      .st2 {
        stroke: #f5f5f5;
        stroke-width: 2.95px;
      }

      .st8 {
        fill: #2160a9;
      }

      .st9 {
        clip-path: url(#clippath-3);
      }

      .st10 {
        clip-path: url(#clippath-2);
      }
    </style>
    <clipPath id="clippath">
      <rect class="st3" x="-181.68" y="-25.69" width="185.83" height="242.05"/>
    </clipPath>
    <clipPath id="clippath-2">
      <rect class="st3" x="-26.97" y="-25.67" width="185.81" height="242.03"/>
    </clipPath>
    <clipPath id="clippath-3">
      <rect class="st3" x="-26.97" y="-25.67" width="185.81" height="242.03"/>
    </clipPath>
    <clipPath id="clippath-4">
      <rect class="st3" x="-26.97" y="-25.67" width="185.81" height="242.03"/>
    </clipPath>
  </defs>
  <g class="st10">
    <g class="st9">
      <g class="st5">
        <path class="st7" d="M127.8,189.78l-120.75.1c-3.63,0-6.58-2.94-6.58-6.57L.32,7.11c0-3.63,2.94-6.58,6.57-6.58l120.75-.1c3.63,0,6.58,2.94,6.58,6.57l.15,176.21c0,3.63-2.94,6.58-6.57,6.58"/>
        <rect class="st1" x=".4" y=".48" width="133.9" height="189.36" rx="6.57" ry="6.57"/>
        <path class="st6" d="M120.67,33.05l-91.03.08v-2.88c0-2.03-1.65-3.68-3.69-3.68h-13.1c-2.03.01-3.68,1.66-3.68,3.69v8.11s0,.65,0,.65l.02,29.55c0,2.88,2.34,5.22,5.23,5.22l106.27-.09c2.88,0,5.22-2.34,5.22-5.23l-.03-30.2c0-2.88-2.34-5.22-5.23-5.22M122.98,68.46c0,1.25-1.02,2.28-2.27,2.28l-106.27.09c-1.25,0-2.28-1.02-2.28-2.27l-.03-30.2c0-1.25,1.02-2.28,2.27-2.28l106.27-.09c1.25,0,2.28,1.02,2.28,2.27l.03,30.2Z"/>
        <line class="st2" x1="24.29" y1="44.02" x2="115.3" y2="43.94"/>
        <line class="st2" x1="24.3" y1="53.4" x2="115.31" y2="53.33"/>
        <path class="st8" d="M19.84,43.62h-.85s-.27,1.11-.27,1.11h.85s0,.42,0,.42h-.95s-.31,1.25-.31,1.25h-.46s.32-1.25.32-1.25h-1.07s-.31,1.25-.31,1.25h-.46s.32-1.25.32-1.25h-.72s0-.42,0-.42h.82s.27-1.11.27-1.11h-.81s0-.4,0-.4h.92s.3-1.24.3-1.24h.46s-.31,1.24-.31,1.24h1.07s.3-1.24.3-1.24h.46s-.31,1.24-.31,1.24h.75s0,.4,0,.4ZM18.25,44.72l.27-1.11h-1.07s-.27,1.11-.27,1.11h1.07Z"/>
        <path class="st8" d="M19.84,52.46h-.85s-.27,1.11-.27,1.11h.85s0,.42,0,.42h-.95s-.31,1.25-.31,1.25h-.46s.32-1.25.32-1.25h-1.07s-.31,1.25-.31,1.25h-.46s.32-1.25.32-1.25h-.72s0-.42,0-.42h.82s.27-1.11.27-1.11h-.81s0-.4,0-.4h.92s.3-1.24.3-1.24h.46s-.31,1.24-.31,1.24h1.07s.3-1.24.3-1.24h.46s-.31,1.24-.31,1.24h.75s0,.4,0,.4ZM18.26,53.56l.27-1.11h-1.07s-.27,1.11-.27,1.11h1.07Z"/>
        <line class="st2" x1="24.31" y1="62.27" x2="115.32" y2="62.2"/>
        <path class="st8" d="M19.85,61.33h-.85s-.27,1.11-.27,1.11h.85s0,.42,0,.42h-.95s-.31,1.25-.31,1.25h-.46s.32-1.25.32-1.25h-1.07s-.31,1.25-.31,1.25h-.46s.32-1.25.32-1.25h-.72s0-.42,0-.42h.82s.27-1.11.27-1.11h-.81s0-.4,0-.4h.92s.3-1.24.3-1.24h.46s-.31,1.24-.31,1.24h1.07s.3-1.24.3-1.24h.46s-.31,1.24-.31,1.24h.75s0,.4,0,.4ZM18.27,62.44l.27-1.11h-1.07s-.27,1.11-.27,1.11h1.07Z"/>
        <path class="st4" d="M15.91,31.76l.32,1c.04.14-.11.25-.23.17l-.85-.62c-.05-.04-.12-.04-.17,0l-.85.62c-.12.08-.27-.03-.23-.17l.33-1c.02-.06,0-.13-.05-.17l-.85-.62c-.12-.09-.06-.27.09-.27h1.05c.06,0,.12-.04.14-.1l.33-1c.05-.14.24-.14.28,0l.32,1c.02.06.08.1.14.1h1.05c.14,0,.2.19.09.27l-.85.62c-.05.04-.07.1-.05.17"/>
        <path class="st4" d="M20.68,31.76l.32,1c.04.14-.11.25-.23.17l-.85-.62c-.05-.04-.12-.04-.17,0l-.85.62c-.12.08-.27-.03-.23-.17l.33-1c.02-.06,0-.13-.05-.17l-.85-.62c-.12-.09-.06-.27.09-.27h1.05c.06,0,.12-.04.14-.1l.33-1c.05-.14.24-.14.28,0l.32,1c.02.06.08.1.14.1h1.05c.14,0,.2.19.09.27l-.85.62c-.05.04-.07.1-.05.17"/>
        <path class="st4" d="M25.42,31.76l.32,1c.04.14-.11.25-.23.17l-.85-.62c-.05-.04-.12-.04-.17,0l-.85.62c-.12.08-.27-.03-.23-.17l.33-1c.02-.06,0-.13-.05-.17l-.85-.62c-.12-.09-.06-.27.09-.27h1.05c.06,0,.12-.04.14-.1l.33-1c.05-.14.24-.14.28,0l.32,1c.02.06.08.1.14.1h1.05c.14,0,.2.19.09.27l-.85.62c-.05.04-.07.1-.05.17"/>
        <path class="st6" d="M120.72,87.15l-91.03.08v-2.88c0-2.03-1.65-3.68-3.69-3.68h-13.1c-2.03.01-3.68,1.66-3.68,3.69v8.11s0,.65,0,.65l.02,29.55c0,2.88,2.34,5.22,5.23,5.22l106.27-.09c2.88,0,5.22-2.34,5.22-5.23l-.03-30.2c0-2.88-2.34-5.22-5.23-5.22M123.02,122.57c0,1.25-1.02,2.28-2.27,2.28l-106.27.09c-1.25,0-2.28-1.02-2.28-2.27l-.03-30.2c0-1.25,1.02-2.28,2.27-2.28l106.27-.09c1.25,0,2.28,1.02,2.28,2.27l.03,30.2Z"/>
        <line class="st2" x1="24.34" y1="98.13" x2="115.35" y2="98.05"/>
        <line class="st2" x1="24.35" y1="107.51" x2="115.35" y2="107.43"/>
        <path class="st8" d="M19.88,97.72h-.85s-.27,1.11-.27,1.11h.85s0,.42,0,.42h-.95s-.31,1.25-.31,1.25h-.46s.32-1.25.32-1.25h-1.07s-.31,1.25-.31,1.25h-.46s.32-1.25.32-1.25h-.72s0-.42,0-.42h.82s.27-1.11.27-1.11h-.81s0-.4,0-.4h.92s.3-1.24.3-1.24h.46s-.31,1.24-.31,1.24h1.07s.3-1.24.3-1.24h.46s-.31,1.24-.31,1.24h.75s0,.4,0,.4ZM18.3,98.83l.27-1.11h-1.07s-.27,1.11-.27,1.11h1.07Z"/>
        <path class="st8" d="M19.89,106.57h-.85s-.27,1.11-.27,1.11h.85s0,.42,0,.42h-.95s-.31,1.25-.31,1.25h-.46s.32-1.25.32-1.25h-1.07s-.31,1.25-.31,1.25h-.46s.32-1.25.32-1.25h-.72s0-.42,0-.42h.82s.27-1.11.27-1.11h-.81s0-.4,0-.4h.92s.3-1.24.3-1.24h.46s-.31,1.24-.31,1.24h1.07s.3-1.24.3-1.24h.46s-.31,1.24-.31,1.24h.75s0,.4,0,.4ZM18.3,107.67l.27-1.11h-1.07s-.27,1.11-.27,1.11h1.07Z"/>
        <line class="st2" x1="24.35" y1="116.38" x2="115.36" y2="116.3"/>
        <path class="st8" d="M19.9,115.44h-.85s-.27,1.11-.27,1.11h.85s0,.42,0,.42h-.95s-.31,1.25-.31,1.25h-.46s.32-1.25.32-1.25h-1.07s-.31,1.25-.31,1.25h-.46s.32-1.25.32-1.25h-.72s0-.42,0-.42h.82s.27-1.11.27-1.11h-.81s0-.4,0-.4h.92s.3-1.24.3-1.24h.46s-.31,1.24-.31,1.24h1.07s.3-1.24.3-1.24h.46s-.31,1.24-.31,1.24h.75s0,.4,0,.4ZM18.31,116.54l.27-1.11h-1.07s-.27,1.11-.27,1.11h1.07Z"/>
        <path class="st4" d="M15.95,85.87l.32,1c.04.14-.11.25-.23.17l-.85-.62c-.05-.04-.12-.04-.17,0l-.85.62c-.12.08-.27-.03-.23-.17l.33-1c.02-.06,0-.13-.05-.17l-.85-.62c-.12-.09-.06-.27.09-.27h1.05c.06,0,.12-.04.14-.1l.33-1c.05-.14.24-.14.28,0l.32,1c.02.06.08.1.14.1h1.05c.14,0,.2.19.09.27l-.85.62c-.05.04-.07.1-.05.17"/>
        <path class="st4" d="M20.73,85.87l.32,1c.04.14-.11.25-.23.17l-.85-.62c-.05-.04-.12-.04-.17,0l-.85.62c-.12.08-.27-.03-.23-.17l.33-1c.02-.06,0-.13-.05-.17l-.85-.62c-.12-.09-.06-.27.09-.27h1.05c.06,0,.12-.04.14-.1l.33-1c.05-.14.24-.14.28,0l.32,1c.02.06.08.1.14.1h1.05c.14,0,.2.19.09.27l-.85.62c-.05.04-.07.1-.05.17"/>
        <path class="st4" d="M25.47,85.86l.32,1c.04.14-.11.25-.23.17l-.85-.62c-.05-.04-.12-.04-.17,0l-.85.62c-.12.08-.27-.03-.23-.17l.33-1c.02-.06,0-.13-.05-.17l-.85-.62c-.12-.09-.06-.27.09-.27h1.05c.06,0,.12-.04.14-.1l.33-1c.05-.14.24-.14.28,0l.32,1c.02.06.08.1.14.1h1.05c.14,0,.2.19.09.27l-.85.62c-.05.04-.07.1-.05.17"/>
        <path class="st6" d="M120.76,140.29l-91.03.08v-2.88c0-2.03-1.65-3.68-3.69-3.68h-13.1c-2.03.01-3.68,1.66-3.68,3.69v8.11s0,.65,0,.65l.02,29.55c0,2.88,2.34,5.22,5.23,5.22l106.27-.09c2.88,0,5.22-2.34,5.22-5.23l-.03-30.2c0-2.88-2.34-5.22-5.23-5.22M123.06,175.71c0,1.25-1.02,2.28-2.27,2.28l-106.27.09c-1.25,0-2.28-1.02-2.28-2.27l-.03-30.2c0-1.25,1.02-2.28,2.27-2.28l106.27-.09c1.25,0,2.28,1.02,2.28,2.27l.03,30.2Z"/>
        <line class="st2" x1="24.38" y1="151.26" x2="115.39" y2="151.19"/>
        <line class="st2" x1="24.39" y1="160.64" x2="115.4" y2="160.57"/>
        <path class="st8" d="M19.92,150.86h-.85s-.27,1.11-.27,1.11h.85s0,.42,0,.42h-.95s-.31,1.25-.31,1.25h-.46s.32-1.25.32-1.25h-1.07s-.31,1.25-.31,1.25h-.46s.32-1.25.32-1.25h-.72s0-.42,0-.42h.82s.27-1.11.27-1.11h-.81s0-.4,0-.4h.92s.3-1.24.3-1.24h.46s-.31,1.24-.31,1.24h1.07s.3-1.24.3-1.24h.46s-.31,1.24-.31,1.24h.75s0,.4,0,.4ZM18.34,151.97l.27-1.11h-1.07s-.27,1.11-.27,1.11h1.07Z"/>
        <path class="st8" d="M19.93,159.7h-.85s-.27,1.11-.27,1.11h.85s0,.42,0,.42h-.95s-.31,1.25-.31,1.25h-.46s.32-1.25.32-1.25h-1.07s-.31,1.25-.31,1.25h-.46s.32-1.25.32-1.25h-.72s0-.42,0-.42h.82s.27-1.11.27-1.11h-.81s0-.4,0-.4h.92s.3-1.24.3-1.24h.46s-.31,1.24-.31,1.24h1.07s.3-1.24.3-1.24h.46s-.31,1.24-.31,1.24h.75s0,.4,0,.4ZM18.35,160.81l.27-1.11h-1.07s-.27,1.11-.27,1.11h1.07Z"/>
        <line class="st2" x1="24.4" y1="169.51" x2="115.4" y2="169.44"/>
        <path class="st8" d="M19.94,168.57h-.85s-.27,1.11-.27,1.11h.85s0,.42,0,.42h-.95s-.31,1.25-.31,1.25h-.46s.32-1.25.32-1.25h-1.07s-.31,1.25-.31,1.25h-.46s.32-1.25.32-1.25h-.72s0-.42,0-.42h.82s.27-1.11.27-1.11h-.81s0-.4,0-.4h.92s.3-1.24.3-1.24h.46s-.31,1.24-.31,1.24h1.07s.3-1.24.3-1.24h.46s-.31,1.24-.31,1.24h.75s0,.4,0,.4ZM18.36,169.68l.27-1.11h-1.07s-.27,1.11-.27,1.11h1.07Z"/>
        <path class="st4" d="M16,139.01l.32,1c.04.14-.11.25-.23.17l-.85-.62c-.05-.04-.12-.04-.17,0l-.85.62c-.12.08-.27-.03-.23-.17l.33-1c.02-.06,0-.13-.05-.17l-.85-.62c-.12-.09-.06-.27.09-.27h1.05c.06,0,.12-.04.14-.1l.33-1c.05-.14.24-.14.28,0l.32,1c.02.06.08.1.14.1h1.05c.14,0,.2.19.09.27l-.85.62c-.05.04-.07.1-.05.17"/>
        <path class="st4" d="M20.77,139l.32,1c.04.14-.11.25-.23.17l-.85-.62c-.05-.04-.12-.04-.17,0l-.85.62c-.12.08-.27-.03-.23-.17l.33-1c.02-.06,0-.13-.05-.17l-.85-.62c-.12-.09-.06-.27.09-.27h1.05c.06,0,.12-.04.14-.1l.33-1c.05-.14.24-.14.28,0l.32,1c.02.06.08.1.14.1h1.05c.14,0,.2.19.09.27l-.85.62c-.05.04-.07.1-.05.17"/>
        <path class="st4" d="M25.51,139l.32,1c.04.14-.11.25-.23.17l-.85-.62c-.05-.04-.12-.04-.17,0l-.85.62c-.12.08-.27-.03-.23-.17l.33-1c.02-.06,0-.13-.05-.17l-.85-.62c-.12-.09-.06-.27.09-.27h1.05c.06,0,.12-.04.14-.1l.33-1c.05-.14.24-.14.28,0l.32,1c.02.06.08.1.14.1h1.05c.14,0,.2.19.09.27l-.85.62c-.05.04-.07.1-.05.17"/>
        <path class="st8" d="M19.63,13.49s0,.03,0,.04c.02-.17.03-.34.04-.51-.08-.63-.19-1.29-.33-1.98-.06-.16-.12-.31-.19-.46.22,1.04.38,2.01.48,2.9"/>
        <path class="st8" d="M19.5,13.79c-.09-1.06-.26-2.23-.5-3.5-.05-.09-.1-.18-.16-.26.28,1.37.47,2.63.56,3.77.02.23.03.45.04.66.03-.1.06-.21.08-.31,0-.12-.02-.23-.03-.35"/>
        <path class="st8" d="M19.24,14.08c-.06-1.25-.23-2.68-.52-4.23-.05-.07-.09-.13-.14-.2.31,1.63.5,3.12.56,4.43.02.39.02.76.02,1.1.04-.08.07-.16.11-.24,0-.28,0-.57-.02-.87"/>
        <path class="st8" d="M18.35,9.37c.32,1.85.49,3.54.5,4.98,0,.53-.02,1.02-.06,1.47.04-.06.08-.13.12-.2.03-.39.04-.82.04-1.27,0-1.4-.17-3.03-.47-4.82-.04-.05-.09-.11-.14-.16"/>
        <path class="st8" d="M18.13,9.14c.31,2.05.45,3.9.4,5.46-.02.67-.08,1.26-.17,1.79.05-.05.09-.11.14-.16.08-.49.12-1.03.14-1.62.05-1.52-.08-3.33-.38-5.32-.04-.05-.09-.09-.13-.14"/>
        <path class="st8" d="M17.93,8.95c.29,2.23.38,4.23.25,5.88-.06.79-.17,1.48-.33,2.07.05-.05.1-.09.15-.14.14-.56.24-1.2.29-1.92.13-1.62.04-3.58-.24-5.76-.04-.04-.09-.08-.13-.12"/>
        <path class="st8" d="M17.87,8.89s-.08-.07-.13-.11c.25,2.39.28,4.52.07,6.24-.11.92-.3,1.69-.54,2.31.06-.04.11-.08.17-.11.22-.6.39-1.33.49-2.18.21-1.7.18-3.79-.06-6.15"/>
        <path class="st8" d="M17.41,15.2c-.18,1.03-.45,1.87-.8,2.51.06-.03.12-.06.18-.09.32-.63.57-1.43.74-2.4.31-1.76.35-3.97.16-6.48-.04-.03-.08-.07-.13-.1.2,2.54.16,4.78-.15,6.56"/>
        <path class="st8" d="M16.01,17.79s-.03.05-.05.07c-.03.04-.06.08-.09.13.07-.02.13-.04.2-.06.01-.02.03-.04.04-.06.06-.09.11-.18.17-.28.01-.03.03-.05.04-.08.31-.57.57-1.29.77-2.14.42-1.81.55-4.12.42-6.77-.04-.03-.08-.06-.13-.09.13,2.67,0,5.01-.41,6.83-.19.83-.44,1.53-.75,2.09-.01.03-.03.05-.04.08-.05.1-.11.19-.17.28"/>
        <path class="st8" d="M15.62,17.48s-.03.05-.05.08c-.06.09-.13.18-.19.26-.02.02-.04.05-.06.07-.07.08-.14.16-.21.23-.01.01-.03.03-.04.04.07,0,.14-.02.2-.03.05-.05.09-.1.14-.16.02-.02.04-.05.06-.07.06-.08.13-.17.19-.26.02-.02.03-.05.05-.08.06-.09.12-.19.17-.29.01-.03.03-.05.04-.08.26-.48.49-1.05.69-1.71.54-1.84.77-4.24.72-7.01-.04-.03-.08-.06-.13-.08.06,2.79-.17,5.21-.71,7.06-.19.64-.41,1.19-.66,1.66-.01.03-.03.05-.04.08-.06.1-.11.2-.17.29"/>
        <path class="st8" d="M15.23,17.14s-.03.05-.05.08c-.06.1-.13.19-.2.27-.02.02-.04.05-.06.07-.07.09-.14.17-.21.25-.02.02-.04.05-.07.07-.07.08-.15.15-.23.21-.03.02-.05.04-.08.06-.02.02-.05.04-.07.06.07,0,.14,0,.21,0,.02-.01.03-.03.05-.04.08-.07.15-.14.22-.21.02-.02.04-.05.07-.07.07-.08.14-.16.21-.24.02-.02.04-.05.06-.07.07-.09.13-.18.2-.27.02-.02.03-.05.05-.08.06-.09.12-.19.18-.29.02-.03.03-.05.05-.08.21-.38.4-.8.57-1.27.67-1.85,1.01-4.33,1.05-7.21-.04-.03-.08-.05-.13-.07-.04,2.9-.37,5.38-1.05,7.24-.17.46-.35.87-.55,1.23-.02.03-.03.05-.05.08-.06.1-.12.2-.18.3"/>
        <path class="st8" d="M14.03,17.9s.05-.04.07-.07c.08-.07.16-.15.23-.23.02-.02.04-.05.07-.07.07-.08.15-.16.22-.25.02-.02.04-.05.06-.07.07-.09.14-.18.2-.28.02-.03.03-.05.05-.08.06-.1.12-.19.19-.3.02-.03.03-.05.05-.08.15-.26.29-.54.43-.85.81-1.85,1.28-4.38,1.42-7.36-.04-.02-.08-.05-.13-.07-.14,2.99-.61,5.53-1.42,7.37-.13.29-.26.56-.4.81-.02.03-.03.05-.05.08-.06.1-.12.2-.18.3-.02.03-.03.05-.05.08-.07.1-.13.19-.2.28-.02.02-.04.05-.06.07-.07.09-.14.18-.22.26-.02.02-.04.05-.06.07-.08.08-.15.16-.23.23-.02.02-.05.04-.07.07-.07.06-.15.13-.23.18-.03.03-.07.05-.11.07-.03.02-.07.05-.1.07.06.01.12.02.19.03,0,0,.01,0,.02-.01.04-.02.07-.05.1-.08.08-.06.15-.12.22-.18"/>
        <path class="st8" d="M13.61,17.53s.05-.04.07-.07c.08-.07.16-.15.24-.24.02-.02.04-.05.07-.07.08-.08.15-.17.22-.26.02-.02.04-.05.06-.07.07-.09.14-.18.21-.28.02-.03.04-.05.05-.08.07-.1.13-.19.19-.29.02-.03.03-.05.05-.08.08-.14.17-.29.25-.44.97-1.83,1.57-4.41,1.83-7.46-.04-.02-.08-.05-.13-.07-.26,3.06-.86,5.64-1.83,7.47-.07.14-.15.27-.22.4-.02.03-.03.05-.05.08-.06.1-.13.2-.19.3-.02.03-.04.05-.05.08-.07.1-.14.19-.21.28-.02.03-.04.05-.06.07-.07.09-.15.18-.22.26-.02.02-.04.05-.07.07-.08.08-.16.16-.24.24-.02.02-.05.05-.07.07-.08.07-.16.13-.24.19-.03.03-.07.05-.1.08-.08.06-.16.11-.25.16-.04.02-.08.05-.12.07-.02,0-.03.02-.05.03.06.02.11.03.17.05.03-.02.07-.04.1-.06.08-.05.16-.1.24-.16.03-.02.07-.05.1-.08.08-.06.16-.12.23-.19"/>
        <path class="st8" d="M12.85,17.4s.07-.05.1-.08c.08-.06.16-.13.24-.2.02-.02.05-.04.07-.07.08-.08.16-.16.25-.24.02-.02.04-.05.07-.07.08-.08.15-.17.23-.26.02-.02.04-.05.06-.07.07-.09.14-.18.21-.28.02-.03.04-.05.06-.08.07-.09.13-.19.2-.29.02-.03.03-.05.05-.08,0-.01.02-.03.03-.04,1.13-1.8,1.89-4.4,2.28-7.53-.04-.02-.09-.04-.13-.06-.39,3.12-1.15,5.72-2.27,7.51,0,0,0,0,0,.01-.02.03-.03.05-.05.08-.06.1-.13.2-.2.29-.02.03-.04.05-.06.08-.07.1-.14.19-.21.28-.02.02-.04.05-.06.07-.08.09-.15.18-.23.26-.02.02-.04.05-.07.07-.08.09-.16.17-.25.24-.02.02-.05.04-.07.07-.08.07-.16.14-.24.2-.03.03-.07.05-.1.08-.08.06-.17.12-.26.17-.04.02-.08.05-.12.07-.09.05-.18.1-.27.14,0,0-.02,0-.03.01.05.02.1.05.15.07.08-.04.16-.09.24-.13.04-.02.08-.05.11-.07.09-.05.17-.11.25-.17"/>
        <path class="st8" d="M12.04,17.22s.08-.05.11-.07c.09-.06.18-.12.26-.18.03-.03.07-.05.1-.08.08-.07.17-.14.25-.21.03-.02.05-.04.07-.07.09-.08.17-.16.25-.24.02-.02.05-.05.07-.07.08-.08.16-.17.24-.26.02-.02.04-.05.06-.07.07-.09.15-.18.22-.27.02-.03.04-.05.06-.08.01-.01.02-.03.03-.04.06-.08.12-.16.17-.25.02-.03.04-.05.05-.08,1.18-1.74,2.03-4.23,2.54-7.22-.04-.02-.09-.04-.13-.06-.5,2.96-1.34,5.43-2.5,7.16-.02.03-.04.05-.05.08-.06.09-.13.18-.19.27,0,0,0,.01-.01.02-.02.03-.04.05-.06.08-.07.1-.15.19-.22.28-.02.02-.04.05-.06.07-.08.09-.16.18-.24.26-.02.02-.05.05-.07.07-.08.09-.17.17-.25.25-.02.02-.05.05-.07.07-.08.07-.17.14-.25.21-.03.03-.07.05-.1.08-.09.07-.18.13-.27.18-.04.02-.07.05-.11.07-.09.06-.18.11-.28.15-.04.02-.09.04-.13.06-.02.01-.04.02-.06.03.05.03.09.06.14.08,0,0,.02,0,.03-.01.04-.02.09-.04.13-.06.09-.05.18-.1.27-.15"/>
        <path class="st8" d="M11.6,16.76s.07-.05.11-.07c.09-.06.18-.12.27-.19.03-.02.07-.05.1-.08.09-.07.17-.14.26-.21.03-.02.05-.04.08-.07.09-.08.18-.16.26-.24.02-.02.05-.05.07-.07.08-.08.16-.17.25-.26.02-.02.04-.05.07-.07.01-.01.02-.02.03-.04.07-.08.13-.15.2-.23.02-.02.04-.05.06-.08.07-.09.14-.18.21-.28.02-.03.04-.05.06-.08,1.22-1.67,2.14-4.03,2.76-6.84-.04-.02-.09-.04-.13-.05-.61,2.79-1.52,5.12-2.72,6.78-.02.03-.04.05-.06.08-.07.09-.14.19-.21.28-.02.03-.04.05-.06.08-.07.09-.14.17-.21.25,0,0-.01.01-.02.02-.02.02-.04.05-.07.07-.08.09-.16.17-.24.26-.02.02-.05.05-.07.07-.09.08-.17.17-.26.24-.03.02-.05.04-.08.07-.09.07-.17.15-.26.21-.03.03-.07.05-.1.08-.09.07-.18.13-.27.19-.04.02-.07.05-.11.07-.09.06-.19.11-.29.16-.04.02-.08.04-.13.06-.06.03-.11.05-.17.08.04.03.08.06.12.1.05-.02.1-.05.15-.07.04-.02.08-.04.13-.06.09-.05.19-.1.28-.16"/>
        <path class="st8" d="M11.16,16.27s.07-.05.11-.07c.1-.06.19-.12.28-.19.03-.02.07-.05.1-.07.09-.07.18-.14.27-.21.03-.02.05-.04.08-.07.09-.08.18-.16.27-.24.02-.02.05-.05.07-.07.01,0,.02-.02.03-.03.07-.07.15-.14.22-.22.02-.02.05-.05.07-.07.08-.08.16-.17.24-.26.02-.02.04-.05.06-.07.07-.09.15-.17.22-.27.02-.02.04-.05.06-.07,1.26-1.6,2.26-3.81,2.98-6.46-.05-.02-.09-.03-.14-.05-.71,2.61-1.7,4.8-2.94,6.39-.02.03-.04.05-.06.08-.07.09-.15.18-.22.27-.02.02-.04.05-.06.07-.08.09-.16.18-.24.26-.02.02-.05.05-.07.07-.08.08-.15.15-.23.23,0,0-.02.01-.02.02-.02.02-.05.05-.07.07-.09.08-.18.16-.27.24-.03.02-.05.04-.08.07-.09.07-.18.14-.27.21-.03.02-.07.05-.1.07-.09.07-.19.13-.28.19-.04.02-.07.05-.11.07-.1.06-.2.12-.3.17-.04.02-.08.04-.12.06-.07.03-.14.07-.21.1.03.04.07.07.1.11.07-.03.14-.06.21-.1.04-.02.08-.04.12-.06.1-.05.2-.11.29-.17"/>
        <path class="st8" d="M10.73,15.76s.07-.04.11-.07c.1-.06.2-.12.29-.19.03-.02.07-.05.1-.07.09-.07.19-.14.28-.21.03-.02.05-.04.08-.06.01,0,.02-.02.03-.02.08-.07.16-.14.25-.21.03-.02.05-.04.08-.07.09-.08.18-.16.26-.24.02-.02.05-.05.07-.07.08-.08.16-.16.24-.25.02-.02.05-.05.07-.07.08-.08.15-.17.23-.25.02-.02.04-.05.06-.07,1.3-1.51,2.37-3.59,3.19-6.06-.05-.02-.09-.03-.14-.05-.81,2.44-1.86,4.49-3.15,5.98-.02.02-.04.05-.06.07-.08.09-.15.17-.23.25-.02.02-.04.05-.07.07-.08.08-.16.17-.24.25-.02.02-.05.05-.07.07-.09.08-.17.16-.26.24-.03.02-.05.04-.08.07-.08.07-.16.14-.25.21-.01,0-.02.02-.03.02-.03.02-.05.04-.08.06-.09.07-.19.14-.28.21-.03.02-.07.05-.1.07-.1.07-.2.13-.3.19-.04.02-.07.04-.11.07-.1.06-.2.12-.31.17-.04.02-.08.04-.12.06-.07.03-.13.06-.2.09.03.04.06.08.09.12.07-.03.14-.06.2-.1.04-.02.08-.04.12-.06.1-.05.2-.11.31-.17"/>
        <path class="st8" d="M10.31,15.23s.07-.04.11-.06c.1-.06.2-.12.3-.19.03-.02.07-.04.1-.07,0,0,.01,0,.02-.01.09-.06.18-.12.27-.19.03-.02.06-.04.08-.06.1-.07.19-.14.29-.22.03-.02.05-.04.08-.06.09-.07.18-.15.27-.23.02-.02.05-.04.07-.07.08-.08.17-.16.25-.24.02-.02.05-.05.07-.07.08-.08.16-.16.24-.24.02-.02.04-.05.07-.07,1.34-1.42,2.48-3.35,3.39-5.65-.05-.02-.1-.03-.15-.04-.9,2.27-2.02,4.17-3.34,5.57-.02.02-.04.05-.07.07-.08.08-.16.16-.24.24-.02.02-.05.05-.07.07-.08.08-.17.16-.25.24-.02.02-.05.04-.07.07-.09.08-.18.16-.27.23-.03.02-.05.04-.08.06-.09.08-.19.15-.29.22-.03.02-.06.04-.08.06-.09.06-.18.12-.26.18,0,0-.02.01-.03.02-.03.02-.07.04-.1.07-.1.06-.2.13-.31.19-.04.02-.07.04-.11.06-.11.06-.21.11-.32.17-.04.02-.08.04-.12.06-.04.02-.08.04-.12.05.02.05.05.09.08.14.05-.02.09-.04.14-.07.04-.02.08-.04.12-.06.11-.05.21-.11.32-.17"/>
        <path class="st8" d="M9.89,14.68s.08-.04.11-.06c0,0,.01,0,.02,0,.1-.05.2-.11.3-.17.03-.02.07-.04.1-.06.1-.06.2-.13.3-.19.03-.02.06-.04.09-.06.1-.07.2-.14.29-.21.03-.02.05-.04.08-.06.09-.07.18-.14.28-.22.03-.02.05-.04.08-.06.09-.07.17-.15.26-.22.02-.02.05-.04.07-.07.08-.07.16-.15.24-.22.02-.02.05-.04.07-.07,1.38-1.33,2.59-3.11,3.58-5.24-.05-.01-.1-.03-.15-.04-.98,2.09-2.17,3.85-3.53,5.15-.02.02-.05.05-.07.07-.08.08-.16.15-.24.22-.02.02-.05.04-.07.07-.09.08-.17.15-.26.22-.03.02-.05.04-.08.06-.09.07-.18.15-.28.22-.03.02-.05.04-.08.06-.1.07-.2.14-.29.21-.03.02-.06.04-.09.06-.1.07-.2.13-.3.19-.03.02-.07.04-.1.06-.09.06-.19.11-.28.16-.01,0-.02.01-.04.02-.04.02-.07.04-.11.06-.11.06-.22.11-.33.16-.03.01-.06.03-.09.04.02.05.04.1.06.15,0,0,0,0,.01,0,.04-.02.08-.04.12-.06.11-.05.22-.11.33-.16"/>
        <path class="st8" d="M9.92,13.89s.07-.04.1-.06c.1-.06.21-.12.31-.18.03-.02.06-.04.09-.06.1-.06.2-.13.3-.2.03-.02.06-.04.09-.06.1-.07.19-.13.28-.2.03-.02.05-.04.08-.06.09-.07.18-.14.27-.2.03-.02.05-.04.08-.06.08-.07.17-.14.25-.21.02-.02.05-.04.07-.06,1.42-1.23,2.69-2.87,3.76-4.83-.05-.01-.11-.03-.16-.04,0,0,0,.01-.01.02-1.06,1.91-2.3,3.51-3.69,4.71-.02.02-.05.04-.07.06-.08.07-.17.14-.25.21-.03.02-.05.04-.08.06-.09.07-.18.14-.27.2-.03.02-.05.04-.08.06-.09.07-.19.14-.28.2-.03.02-.06.04-.09.06-.1.07-.2.13-.3.2-.03.02-.06.04-.09.06-.1.06-.21.12-.31.18-.03.02-.07.04-.1.06-.11.06-.22.12-.33.17-.04.02-.08.04-.11.06-.07.04-.15.07-.22.1.01.06.03.11.04.17.09-.04.19-.08.28-.13.04-.02.08-.04.11-.06.11-.05.22-.11.33-.17"/>
        <path class="st8" d="M9.53,13.33s.07-.04.11-.05c.11-.05.21-.11.32-.17.03-.02.06-.03.09-.05.1-.06.21-.12.31-.18.03-.02.06-.04.09-.05.1-.06.2-.12.29-.19.03-.02.06-.04.08-.06.09-.06.18-.12.27-.19.03-.02.05-.04.08-.06.09-.06.17-.13.26-.19.03-.02.05-.04.08-.06,1.45-1.12,2.77-2.61,3.92-4.39,0,0,0-.01.01-.02,0,0,0,0,0,0-.06-.01-.11-.02-.16-.03-.02.03-.05.06-.07.09-1.12,1.71-2.39,3.13-3.8,4.21-.03.02-.05.04-.08.06-.09.06-.17.13-.26.19-.03.02-.05.04-.08.06-.09.06-.18.13-.27.19-.03.02-.06.04-.08.06-.1.06-.19.12-.29.18-.03.02-.06.04-.09.05-.1.06-.21.12-.31.18-.03.02-.06.03-.09.05-.11.06-.21.11-.32.17-.04.02-.07.04-.11.05-.11.06-.22.11-.34.16-.02,0-.03.01-.05.02,0,.06.01.12.02.18,0,0,0,0,.01,0,.04-.02.08-.03.11-.05.11-.05.22-.1.34-.16"/>
        <path class="st8" d="M9.59,12.57s.06-.03.1-.05c.11-.05.21-.11.32-.16.03-.02.06-.03.09-.05.1-.06.2-.11.3-.17.03-.02.06-.03.09-.05.09-.06.19-.11.28-.17.03-.02.06-.04.08-.05.09-.06.18-.11.27-.17.03-.02.05-.04.08-.05,1.46-1,2.81-2.32,4.02-3.9.02-.03.05-.06.07-.09-.06-.01-.12-.02-.17-.03-.05.05-.09.1-.14.15-1.17,1.51-2.47,2.77-3.87,3.72-.03.02-.05.04-.08.05-.09.06-.18.12-.27.17-.03.02-.06.04-.08.05-.09.06-.19.12-.28.17-.03.02-.06.03-.09.05-.1.06-.2.11-.3.17-.03.02-.06.03-.09.05-.11.06-.21.11-.32.16-.03.02-.06.03-.1.05-.11.05-.22.1-.33.15-.04.02-.07.03-.11.05,0,0-.02,0-.02.01,0,.06,0,.13,0,.19.04-.02.09-.04.13-.06.04-.02.07-.03.11-.05.11-.05.22-.1.33-.16"/>
        <path class="st8" d="M9.66,11.85s.06-.03.09-.05c.1-.05.2-.1.31-.15.03-.02.06-.03.09-.05.1-.05.19-.1.29-.15.03-.02.06-.03.09-.05.09-.05.18-.1.27-.16.03-.02.06-.03.08-.05,1.47-.87,2.84-2.03,4.08-3.42.05-.05.09-.1.14-.15-.06,0-.12-.02-.19-.02-.07.07-.14.14-.22.21-1.2,1.31-2.52,2.41-3.92,3.24-.03.02-.06.03-.08.05-.09.05-.18.1-.27.16-.03.02-.06.03-.09.05-.1.05-.19.1-.29.15-.03.02-.06.03-.09.05-.1.05-.2.1-.31.15-.03.02-.06.03-.09.05-.11.05-.22.1-.32.15-.03.01-.07.03-.1.04,0,0,0,0-.01,0-.01.07-.03.14-.04.21.05-.02.1-.04.15-.06.03-.01.07-.03.1-.04.11-.05.22-.1.32-.15"/>
        <path class="st8" d="M9.74,11.16s.06-.03.09-.04c.1-.04.2-.09.3-.14.03-.01.06-.03.09-.04.09-.05.19-.09.28-.14.03-.01.06-.03.09-.04,1.46-.75,2.84-1.75,4.12-2.95.07-.07.15-.14.22-.21-.07,0-.13-.01-.2-.02-.1.08-.2.16-.31.25-1.22,1.13-2.54,2.06-3.93,2.78-.03.02-.06.03-.09.04-.09.05-.19.09-.28.14-.03.01-.06.03-.09.04-.1.05-.2.09-.29.14-.03.01-.06.03-.09.04-.1.04-.21.09-.31.13-.03.08-.05.15-.07.23.02,0,.05-.02.07-.03.03-.01.07-.03.1-.04.1-.04.21-.09.31-.13"/>
        <path class="st8" d="M10.2,10.36s.06-.03.09-.04c1.45-.64,2.83-1.48,4.12-2.5.1-.08.2-.16.31-.25-.08,0-.15,0-.23-.01-.13.09-.26.18-.4.27-1.23.95-2.54,1.73-3.91,2.33-.03.01-.06.03-.09.04-.09.04-.19.08-.29.12-.03.01-.06.03-.09.04-.02,0-.04.02-.06.02-.04.08-.09.17-.13.25.1-.04.2-.08.29-.12.03-.01.06-.03.09-.04.1-.04.19-.08.29-.12"/>
        <path class="st8" d="M14.09,7.83c.13-.09.27-.18.4-.27-.09,0-.18,0-.27,0-.16.09-.32.18-.48.27-1.15.73-2.36,1.34-3.61,1.81-.07.09-.14.19-.2.28.03-.01.06-.02.09-.03,1.42-.52,2.78-1.21,4.08-2.06"/>
        <path class="st8" d="M13.86,7.59c-.17.08-.34.15-.5.22-.83.43-1.68.8-2.55,1.11-.12.11-.23.22-.34.33,1.13-.38,2.22-.86,3.28-1.42.16-.09.32-.17.48-.27-.12,0-.24,0-.36.02"/>
        <path class="st8" d="M13,7.74s-.04.01-.07.02c-.32.13-.64.25-.97.37-.27.14-.53.3-.78.48.74-.23,1.46-.5,2.17-.8.17-.07.34-.15.5-.22-.29.03-.58.08-.86.15"/>
        <path class="st8" d="M12.48,7.91c.15-.05.3-.09.45-.14.02,0,.04-.01.07-.02-.18.05-.35.1-.52.17"/>
        <line class="st0" x1="50.83" y1="9.42" x2="22.75" y2="9.44"/>
        <line class="st0" x1="50.84" y1="13.05" x2="22.76" y2="13.07"/>
        <line class="st0" x1="40.07" y1="16.69" x2="22.76" y2="16.71"/>
      </g>
    </g>
  </g>
</svg>