<?xml version="1.0" encoding="UTF-8"?>
<svg id="Layer_1" xmlns="http://www.w3.org/2000/svg" version="1.1" viewBox="0 0 134.74 190.23">
  <!-- Generator: Adobe Illustrator 29.8.1, SVG Export Plug-In . SVG Version: 2.1.1 Build 2)  -->
  <defs>
    <style>
      .st0 {
        fill: #f2f2f2;
      }

      .st1 {
        fill: #d9d9d9;
      }

      .st2 {
        fill: #ed727d;
      }

      .st3 {
        fill: #fff;
      }

      .st4 {
        fill: #f7c027;
      }

      .st5 {
        fill: #fbe3e5;
      }

      .st6 {
        fill: #d6e6e2;
      }

      .st7 {
        fill: #2160a9;
      }

      .st8 {
        fill: #205fa9;
      }

      .st9 {
        fill: #d2dfee;
      }

      .st10 {
        fill: #f5f5f5;
      }
    </style>
  </defs>
  <path class="st1" d="M127.83,189.94H6.91c-3.81,0-6.91-3.09-6.91-6.88V7.32C0,3.52,3.1.43,6.91.43h120.92c3.81,0,6.91,3.09,6.91,6.88v175.74c0,3.8-3.1,6.88-6.91,6.88ZM6.91,1.09C3.46,1.09.66,3.88.66,7.32v175.74c0,3.44,2.81,6.23,6.26,6.23h120.92c3.45,0,6.26-2.8,6.26-6.23V7.32c0-3.44-2.81-6.23-6.26-6.23H6.91Z"/>
  <g>
    <rect class="st9" x="23.52" y="87.8" width="19.51" height="13.16" rx="6.58" ry="6.58"/>
    <path class="st0" d="M40.09,102.43h-13.62c-2.44,0-4.42-1.98-4.42-4.42v-7.26c0-2.44,1.98-4.42,4.42-4.42h13.62c2.44,0,4.42,1.98,4.42,4.42v7.26c0,2.44-1.98,4.42-4.42,4.42ZM26.47,89.27c-.82,0-1.48.66-1.48,1.48v7.26c0,.82.66,1.48,1.48,1.48h13.62c.82,0,1.48-.66,1.48-1.48v-7.26c0-.82-.66-1.48-1.48-1.48h-13.62Z"/>
  </g>
  <g>
    <rect class="st6" x="57.32" y="87.8" width="19.51" height="13.16" rx="6.58" ry="6.58"/>
    <path class="st0" d="M73.88,102.43h-13.62c-2.44,0-4.42-1.98-4.42-4.42v-7.26c0-2.44,1.98-4.42,4.42-4.42h13.62c2.44,0,4.42,1.98,4.42,4.42v7.26c0,2.44-1.98,4.42-4.42,4.42ZM60.27,89.27c-.82,0-1.48.66-1.48,1.48v7.26c0,.82.66,1.48,1.48,1.48h13.62c.82,0,1.48-.66,1.48-1.48v-7.26c0-.82-.66-1.48-1.48-1.48h-13.62Z"/>
  </g>
  <g>
    <rect class="st5" x="47.73" y="29.53" width="38.69" height="25.74" rx="5.24" ry="5.24"/>
    <path class="st0" d="M81.27,56.73h-28.39c-3.65,0-6.62-2.97-6.62-6.62v-15.44c0-3.65,2.97-6.62,6.62-6.62h28.39c3.65,0,6.62,2.97,6.62,6.62v15.44c0,3.65-2.97,6.62-6.62,6.62ZM52.88,31c-2.03,0-3.68,1.65-3.68,3.68v15.44c0,2.03,1.65,3.68,3.68,3.68h28.39c2.03,0,3.68-1.65,3.68-3.68v-15.44c0-2.03-1.65-3.68-3.68-3.68h-28.39Z"/>
  </g>
  <g>
    <rect class="st6" x="91.79" y="87.8" width="19.51" height="13.16" rx="6.58" ry="6.58"/>
    <path class="st0" d="M108.35,102.43h-13.61c-2.44,0-4.42-1.98-4.42-4.42v-7.26c0-2.44,1.98-4.42,4.42-4.42h13.61c2.44,0,4.42,1.98,4.42,4.42v7.26c0,2.44-1.98,4.42-4.42,4.42ZM94.74,89.27c-.82,0-1.48.66-1.48,1.48v7.26c0,.82.66,1.48,1.48,1.48h13.61c.82,0,1.48-.66,1.48-1.48v-7.26c0-.82-.66-1.48-1.48-1.48h-13.61Z"/>
  </g>
  <path class="st0" d="M103.32,88.25h-2.94v-14.2c0-1.65-1.35-3-3-3h-59.32c-1.65,0-3,1.35-3,3v14.2h-2.94v-14.2c0-3.28,2.66-5.94,5.94-5.94h59.32c3.28,0,5.94,2.66,5.94,5.94v14.2Z"/>
  <rect class="st0" x="65.61" y="55.26" width="2.94" height="32.99"/>
  <path class="st3" d="M105.95,93.08h-8.81c-.73,0-1.3.57-1.3,1.3s.57,1.3,1.3,1.3h8.81c.73,0,1.3-.57,1.3-1.3s-.57-1.3-1.3-1.3Z"/>
  <path class="st3" d="M71.57,93.08h-8.81c-.73,0-1.3.57-1.3,1.3s.57,1.3,1.3,1.3h8.81c.73,0,1.3-.57,1.3-1.3s-.57-1.3-1.3-1.3Z"/>
  <path class="st3" d="M37.69,93.08h-8.81c-.73,0-1.3.57-1.3,1.3s.57,1.3,1.3,1.3h8.81c.73,0,1.3-.57,1.3-1.3s-.57-1.3-1.3-1.3Z"/>
  <path class="st3" d="M54.47,44h25.91c.73,0,1.3-.57,1.3-1.3s-.57-1.3-1.3-1.3h-25.91c-.73,0-1.3.57-1.3,1.3s.57,1.3,1.3,1.3Z"/>
  <path class="st3" d="M54.47,38.44h25.91c.73,0,1.3-.57,1.3-1.3s-.57-1.3-1.3-1.3h-25.91c-.73,0-1.3.57-1.3,1.3s.57,1.3,1.3,1.3Z"/>
  <path class="st3" d="M74.13,48.26c0-.73-.57-1.3-1.3-1.3h-18.36c-.73,0-1.3.57-1.3,1.3s.57,1.3,1.3,1.3h18.36c.73,0,1.3-.57,1.3-1.3Z"/>
  <g>
    <rect class="st2" x="78" y="46.74" width="5.18" height="5.18" rx=".83" ry=".83"/>
    <g>
      <path class="st3" d="M80.5,51.1h-.94c-.41,0-.74-.33-.74-.74v-2.06c0-.41.33-.74.74-.74h2.06c.41,0,.74.33.74.74v.94h-.28v-.94c0-.25-.21-.46-.46-.46h-2.06c-.25,0-.46.21-.46.46v2.06c0,.25.21.46.46.46h.94v.28Z"/>
      <path class="st3" d="M82.15,51.52h-.82c-.3,0-.54-.24-.54-.54v-.82c0-.3.24-.54.54-.54h.82c.3,0,.54.24.54.54v.82c0,.3-.24.54-.54.54ZM81.33,49.89c-.15,0-.27.12-.27.27v.82c0,.15.12.27.27.27h.82c.15,0,.27-.12.27-.27v-.82c0-.15-.12-.27-.27-.27h-.82Z"/>
      <path class="st3" d="M80.72,49.64s-.07-.01-.1-.04l-1.25-1.25c-.05-.05-.05-.14,0-.2s.14-.05.2,0l1.25,1.25c.05.05.05.14,0,.2-.03.03-.06.04-.1.04Z"/>
      <path class="st3" d="M80.91,49.69h-1.04c-.08,0-.14-.06-.14-.14s.06-.14.14-.14h.76v-.76c0-.08.06-.14.14-.14s.14.06.14.14v1.04Z"/>
    </g>
  </g>
  <g>
    <path class="st0" d="M45.8,113.52h-24.03c-.81,0-1.47-.66-1.47-1.47s.66-1.47,1.47-1.47h24.03c.81,0,1.47.66,1.47,1.47s-.66,1.47-1.47,1.47Z"/>
    <path class="st0" d="M45.8,118.66h-24.03c-.81,0-1.47-.66-1.47-1.47s.66-1.47,1.47-1.47h24.03c.81,0,1.47.66,1.47,1.47s-.66,1.47-1.47,1.47Z"/>
    <path class="st0" d="M37.96,123.81h-16.2c-.81,0-1.47-.66-1.47-1.47s.66-1.47,1.47-1.47h16.2c.81,0,1.47.66,1.47,1.47s-.66,1.47-1.47,1.47Z"/>
  </g>
  <g>
    <rect class="st7" x="19.93" y="109.45" width="4.54" height="4.54" rx=".72" ry=".72"/>
    <path class="st3" d="M21.36,112.49c.16.15.3.43.57.25l1.53-1.53c.18-.22-.07-.52-.31-.35l-1.38,1.37c-.06,0-.46-.48-.54-.52-.14-.06-.32.02-.34.18-.03.19.35.48.47.6Z"/>
  </g>
  <g>
    <path class="st0" d="M80.83,113.52h-24.03c-.81,0-1.47-.66-1.47-1.47s.66-1.47,1.47-1.47h24.03c.81,0,1.47.66,1.47,1.47s-.66,1.47-1.47,1.47Z"/>
    <path class="st0" d="M80.83,118.66h-24.03c-.81,0-1.47-.66-1.47-1.47s.66-1.47,1.47-1.47h24.03c.81,0,1.47.66,1.47,1.47s-.66,1.47-1.47,1.47Z"/>
    <path class="st0" d="M73,123.81h-16.2c-.81,0-1.47-.66-1.47-1.47s.66-1.47,1.47-1.47h16.2c.81,0,1.47.66,1.47,1.47s-.66,1.47-1.47,1.47Z"/>
  </g>
  <g>
    <rect class="st7" x="54.97" y="109.27" width="4.54" height="4.54" rx=".72" ry=".72"/>
    <path class="st3" d="M56.39,112.31c.16.15.3.43.57.25l1.53-1.53c.18-.22-.07-.52-.31-.35l-1.38,1.37c-.06,0-.46-.48-.54-.52-.14-.06-.32.02-.34.18-.03.19.35.48.47.6Z"/>
  </g>
  <g>
    <path class="st0" d="M114.89,113.52h-24.03c-.81,0-1.47-.66-1.47-1.47s.66-1.47,1.47-1.47h24.03c.81,0,1.47.66,1.47,1.47s-.66,1.47-1.47,1.47Z"/>
    <path class="st0" d="M114.89,118.66h-24.03c-.81,0-1.47-.66-1.47-1.47s.66-1.47,1.47-1.47h24.03c.81,0,1.47.66,1.47,1.47s-.66,1.47-1.47,1.47Z"/>
    <path class="st0" d="M107.06,123.81h-16.2c-.81,0-1.47-.66-1.47-1.47s.66-1.47,1.47-1.47h16.2c.81,0,1.47.66,1.47,1.47s-.66,1.47-1.47,1.47Z"/>
  </g>
  <g>
    <rect class="st7" x="89.03" y="109.27" width="4.54" height="4.54" rx=".72" ry=".72"/>
    <path class="st3" d="M90.45,112.31c.16.15.3.43.57.25l1.53-1.53c.18-.22-.07-.52-.31-.35l-1.38,1.37c-.06,0-.46-.48-.54-.52-.14-.06-.32.02-.34.18-.03.19.35.48.47.6Z"/>
  </g>
  <path class="st0" d="M122.44,15.71H29.13v-2.88c0-2.03-1.64-3.67-3.67-3.67h-13.06c-2.03,0-3.67,1.64-3.67,3.67v163.3c0,2.88,2.33,5.21,5.21,5.21h108.5c2.88,0,5.21-2.33,5.21-5.21V20.92c0-2.88-2.33-5.21-5.21-5.21ZM124.71,176.14c0,1.25-1.02,2.27-2.27,2.27H13.93c-1.25,0-2.27-1.02-2.27-2.27V20.92c0-1.25,1.02-2.27,2.27-2.27h108.5c1.25,0,2.27,1.02,2.27,2.27v155.21Z"/>
  <path class="st0" d="M50.64,18.07h-2.61v-4.94c0-.72-.59-1.31-1.31-1.31h-13.7c-.72,0-1.31.59-1.31,1.31v4.94h-2.61v-4.94c0-2.16,1.76-3.92,3.92-3.92h13.7c2.16,0,3.92,1.76,3.92,3.92v4.94Z"/>
  <rect class="st3" x="31.71" y="14.38" width="16.3" height="6.81"/>
  <g>
    <path class="st0" d="M51.95,18.07v-4.94c0-1.44,1.17-2.62,2.62-2.62h13.14c1.44,0,2.62,1.17,2.62,2.62v4.94"/>
    <path class="st0" d="M71.63,18.07h-2.61v-4.94c0-.72-.59-1.31-1.31-1.31h-13.14c-.72,0-1.31.59-1.31,1.31v4.94h-2.61v-4.94c0-2.16,1.76-3.92,3.92-3.92h13.14c2.16,0,3.92,1.76,3.92,3.92v4.94Z"/>
  </g>
  <path class="st4" d="M18.71,15.21l-.85.62c-.12.08-.27-.03-.23-.17l.32-1c.02-.06,0-.13-.05-.17l-.85-.62c-.12-.08-.06-.27.09-.27h1.05c.06,0,.12-.04.14-.1l.32-1c.04-.14.24-.14.28,0l.32,1c.02.06.08.1.14.1h1.05c.14,0,.2.18.09.27l-.85.62c-.05.04-.07.1-.05.17l.32,1c.04.14-.11.25-.23.17l-.85-.62c-.05-.04-.12-.04-.17,0Z"/>
  <path class="st8" d="M37.6,16.12l-.85.62c-.12.08-.27-.03-.23-.17l.32-1c.02-.06,0-.13-.05-.17l-.85-.62c-.12-.08-.06-.27.09-.27h1.05c.06,0,.12-.04.14-.1l.32-1c.04-.14.24-.14.28,0l.32,1c.02.06.08.1.14.1h1.05c.14,0,.2.18.09.27l-.85.62c-.05.04-.07.1-.05.17l.32,1c.04.14-.11.25-.23.17l-.85-.62c-.05-.04-.12-.04-.17,0Z"/>
  <path class="st8" d="M41.96,16.12l-.85.62c-.12.08-.27-.03-.23-.17l.32-1c.02-.06,0-.13-.05-.17l-.85-.62c-.12-.08-.06-.27.09-.27h1.05c.06,0,.12-.04.14-.1l.32-1c.04-.14.24-.14.28,0l.32,1c.02.06.08.1.14.1h1.05c.14,0,.2.18.09.27l-.85.62c-.05.04-.07.1-.05.17l.32,1c.04.14-.11.25-.23.17l-.85-.62c-.05-.04-.12-.04-.17,0Z"/>
  <path class="st4" d="M57.13,14.88l-.85.62c-.12.08-.27-.03-.23-.17l.32-1c.02-.06,0-.13-.05-.17l-.85-.62c-.12-.08-.06-.27.09-.27h1.05c.06,0,.12-.04.14-.1l.32-1c.04-.14.24-.14.28,0l.32,1c.02.06.08.1.14.1h1.05c.14,0,.2.18.09.27l-.85.62c-.05.04-.07.1-.05.17l.32,1c.04.14-.11.25-.23.17l-.85-.62c-.05-.04-.12-.04-.17,0Z"/>
  <path class="st4" d="M61.49,14.88l-.85.62c-.12.08-.27-.03-.23-.17l.32-1c.02-.06,0-.13-.05-.17l-.85-.62c-.12-.08-.06-.27.09-.27h1.05c.06,0,.12-.04.14-.1l.32-1c.04-.14.24-.14.28,0l.32,1c.02.06.08.1.14.1h1.05c.14,0,.2.18.09.27l-.85.62c-.05.04-.07.1-.05.17l.32,1c.04.14-.11.25-.23.17l-.85-.62c-.05-.04-.12-.04-.17,0Z"/>
  <path class="st4" d="M65.86,14.88l-.85.62c-.12.08-.27-.03-.23-.17l.32-1c.02-.06,0-.13-.05-.17l-.85-.62c-.12-.08-.06-.27.09-.27h1.05c.06,0,.12-.04.14-.1l.32-1c.04-.14.24-.14.28,0l.32,1c.02.06.08.1.14.1h1.05c.14,0,.2.18.09.27l-.85.62c-.05.04-.07.1-.05.17l.32,1c.04.14-.11.25-.23.17l-.85-.62c-.05-.04-.12-.04-.17,0Z"/>
  <path class="st4" d="M104.84,6.47c.14.64.36,1.26.63,1.86.13.29.59.39.84.22.52-.35,1.06-.66,1.63-.92.3-.14.61-.26.92-.37.28-.1.64-.27.94-.26.59.02,1.21.45,1.74.67.62.26,1.31.46,1.99.43s1.19-.3,1.8-.49c.68-.2,1.36-.03,2.04.1,1.41.26,2.84.39,4.27.4,1.63,0,3.26-.15,4.85-.46.77-.15.45-1.33-.33-1.18-2.8.55-5.74.58-8.54.05-.74-.14-1.48-.3-2.23-.17-.62.1-1.17.47-1.79.53-1.36.13-2.41-.99-3.72-1.09-.74-.05-1.57.36-2.23.65s-1.34.64-1.95,1.06l.84.22c-.23-.5-.39-1.03-.51-1.56-.17-.77-1.35-.44-1.18.33h0Z"/>
  <g>
    <path class="st0" d="M113.95,137.18H37.03v-2.44c0-1.72-1.39-3.11-3.11-3.11h-11.07c-1.72,0-3.11,1.39-3.11,3.11v32.36c0,2.44,1.98,4.41,4.41,4.41h89.79c2.44,0,4.41-1.98,4.41-4.41v-25.51c0-2.44-1.98-4.41-4.41-4.41ZM115.87,167.11c0,1.06-.86,1.92-1.92,1.92H24.16c-1.06,0-1.92-.86-1.92-1.92v-25.51c0-1.06.86-1.92,1.92-1.92h89.79c1.06,0,1.92.86,1.92,1.92v25.51Z"/>
    <path class="st10" d="M109.4,147.63H32.51c-.69,0-1.25-.56-1.25-1.25s.56-1.25,1.25-1.25h76.89c.69,0,1.25.56,1.25,1.25s-.56,1.25-1.25,1.25Z"/>
    <path class="st10" d="M109.4,155.56H32.51c-.69,0-1.25-.56-1.25-1.25s.56-1.25,1.25-1.25h76.89c.69,0,1.25.56,1.25,1.25s-.56,1.25-1.25,1.25Z"/>
    <path class="st7" d="M28.74,146.04h-.72l-.23.93h.72v.36h-.8l-.26,1.05h-.39l.27-1.05h-.9l-.26,1.05h-.39l.27-1.05h-.61v-.36h.69l.23-.93h-.69v-.34h.77l.26-1.04h.39l-.26,1.04h.9l.26-1.04h.39l-.26,1.04h.63v.34ZM27.4,146.98l.23-.93h-.9l-.23.93h.9Z"/>
    <path class="st7" d="M28.74,153.51h-.72l-.23.93h.72v.36h-.8l-.26,1.05h-.39l.27-1.05h-.9l-.26,1.05h-.39l.27-1.05h-.61v-.36h.69l.23-.93h-.69v-.34h.77l.26-1.04h.39l-.26,1.04h.9l.26-1.04h.39l-.26,1.04h.63v.34ZM27.4,154.45l.23-.93h-.9l-.23.93h.9Z"/>
    <path class="st10" d="M109.4,163.05H32.51c-.69,0-1.25-.56-1.25-1.25s.56-1.25,1.25-1.25h76.89c.69,0,1.25.56,1.25,1.25s-.56,1.25-1.25,1.25Z"/>
    <path class="st7" d="M28.74,161.01h-.72l-.23.93h.72v.36h-.8l-.26,1.05h-.39l.27-1.05h-.9l-.26,1.05h-.39l.27-1.05h-.61v-.36h.69l.23-.93h-.69v-.34h.77l.26-1.04h.39l-.26,1.04h.9l.26-1.04h.39l-.26,1.04h.63v.34ZM27.4,161.94l.23-.93h-.9l-.23.93h.9Z"/>
    <g>
      <path class="st4" d="M25.43,136.03l.27.85c.04.12-.1.21-.19.14l-.72-.53s-.1-.03-.15,0l-.72.52c-.1.07-.23-.03-.19-.14l.28-.85c.02-.05,0-.11-.05-.14l-.72-.53c-.1-.07-.05-.23.07-.23h.89c.05,0,.1-.03.12-.08l.28-.85c.04-.12.2-.11.24,0l.27.85c.02.05.06.09.12.09h.89c.12,0,.17.16.07.23l-.72.52s-.06.09-.05.14Z"/>
      <path class="st4" d="M29.47,136.03l.27.85c.04.12-.1.21-.19.14l-.72-.53s-.1-.03-.15,0l-.72.52c-.1.07-.23-.03-.19-.14l.28-.85c.02-.05,0-.11-.05-.14l-.72-.53c-.1-.07-.05-.23.07-.23h.89c.05,0,.1-.03.12-.08l.28-.85c.04-.12.2-.11.24,0l.27.85c.02.05.06.09.12.09h.89c.12,0,.17.16.07.23l-.72.52s-.06.09-.05.14Z"/>
      <path class="st4" d="M33.47,136.03l.27.85c.04.12-.1.21-.19.14l-.72-.53s-.1-.03-.15,0l-.72.52c-.1.07-.23-.03-.19-.14l.28-.85c.02-.05,0-.11-.05-.14l-.72-.53c-.1-.07-.05-.23.07-.23h.89c.05,0,.1-.03.12-.08l.28-.85c.04-.12.2-.11.24,0l.27.85c.02.05.06.09.12.09h.89c.12,0,.17.16.07.23l-.72.52s-.06.09-.05.14Z"/>
    </g>
  </g>
</svg>