<?xml version="1.0" encoding="UTF-8"?>
<svg xmlns="http://www.w3.org/2000/svg" version="1.1" viewBox="0 0 619 499.9">
  <defs>
    <style>
      .cls-1 {
        fill: #f9c026;
      }

      .cls-2 {
        fill: #152841;
      }

      .cls-3 {
        fill: none;
        stroke: #fff;
        stroke-linecap: round;
        stroke-miterlimit: 10;
        stroke-width: 9px;
      }

      .cls-4 {
        fill: #034442;
      }

      .cls-5 {
        fill: #625ef3;
      }

      .cls-6 {
        fill: #318370;
      }

      .cls-7 {
        fill: #292929;
      }

      .cls-8 {
        fill: #205fa9;
      }

      .cls-9 {
        opacity: .1;
      }

      .cls-10 {
        fill: #ed727d;
      }
    </style>
  </defs>
  <!-- Generator: Adobe Illustrator 28.7.10, SVG Export Plug-In . SVG Version: 1.2.0 Build 236)  -->
  <g>
    <g id="_ò_x2021__xF8FF__x5F_1">
      <g>
        <path class="cls-7" d="M586-271.7c-.4,0-.9-.2-1.2-.5-.5-.6-.4-1.6.2-2.1l185.7-154.8c.6-.5,1.4-.5,2,0l72,68.5,142.7-114.2c.7-.5,1.6-.4,2.1.2.5.6.4,1.6-.2,2.1l-143.7,115.1c-.6.5-1.4.4-2,0l-72-68.5-184.7,153.9c-.3.2-.6.4-1,.4h0Z"/>
        <path class="cls-7" d="M971.4-471.4c-.8,0-1.5-.6-1.5-1.4,0-.8.6-1.5,1.4-1.6l17-.7c.8,0,1.5.6,1.6,1.4,0,.8-.6,1.5-1.4,1.6l-17,.7h0,0Z"/>
        <path class="cls-7" d="M989.1-454.5c-.8,0-1.5-.6-1.5-1.4l-.7-17c0-.8.6-1.5,1.4-1.6.8,0,1.5.6,1.6,1.4l.7,17c0,.8-.6,1.5-1.4,1.6h0,0Z"/>
      </g>
      <rect class="cls-6" x="-285.7" y="-468.1" width="85.2" height="105.8"/>
      <rect class="cls-10" x="-285.7" y="-341.3" width="85.2" height="105.8"/>
      <rect class="cls-8" x="-389.6" y="-468.1" width="85.2" height="105.8"/>
      <rect class="cls-1" x="-500.6" y="-468" width="85.2" height="105.8"/>
      <rect class="cls-2" x="-498.9" y="-341.3" width="85.2" height="105.8"/>
      <rect class="cls-4" x="-389.6" y="-341.3" width="85.2" height="105.8"/>
      <g>
        <path class="cls-7" d="M2.1-258.2c-.5,0-1-.2-1.2-.7-.5-.7-.3-1.6.4-2.1l178.3-120.9c.4-.2.8-.3,1.2-.2l161.4,42.5,126.1-104.1c.6-.5,1.6-.4,2.1.2s.4,1.6-.2,2.1l-126.7,104.6c-.4.3-.9.4-1.3.3l-161.5-42.6L3-258.5c-.3.2-.5.3-.8.3Z"/>
        <circle class="cls-5" cx="0" cy="-257.5" r="13.3"/>
        <path class="cls-7" d="M0-242.7c-8.1,0-14.8-6.6-14.8-14.8s6.6-14.8,14.8-14.8,14.8,6.6,14.8,14.8-6.6,14.8-14.8,14.8ZM0-269.2c-6.5,0-11.8,5.3-11.8,11.8s5.3,11.8,11.8,11.8,11.8-5.3,11.8-11.8-5.3-11.8-11.8-11.8Z"/>
        <circle class="cls-5" cx="182.7" cy="-378.3" r="13.3"/>
        <path class="cls-7" d="M182.7-363.6c-8.1,0-14.8-6.6-14.8-14.8s6.6-14.8,14.8-14.8,14.8,6.6,14.8,14.8-6.6,14.8-14.8,14.8ZM182.7-390.1c-6.5,0-11.8,5.3-11.8,11.8s5.3,11.8,11.8,11.8,11.8-5.3,11.8-11.8-5.3-11.8-11.8-11.8Z"/>
        <circle class="cls-5" cx="344.8" cy="-340" r="13.3"/>
        <path class="cls-7" d="M344.8-325.2c-8.1,0-14.8-6.6-14.8-14.8s6.6-14.8,14.8-14.8,14.8,6.6,14.8,14.8-6.6,14.8-14.8,14.8ZM344.8-351.8c-6.5,0-11.8,5.3-11.8,11.8s5.3,11.8,11.8,11.8,11.8-5.3,11.8-11.8-5.3-11.8-11.8-11.8Z"/>
        <circle class="cls-5" cx="473" cy="-446.1" r="13.3"/>
        <path class="cls-7" d="M473-431.4c-8.1,0-14.8-6.6-14.8-14.8s6.6-14.8,14.8-14.8,14.8,6.6,14.8,14.8-6.6,14.8-14.8,14.8ZM473-457.9c-6.5,0-11.8,5.3-11.8,11.8s5.3,11.8,11.8,11.8,11.8-5.3,11.8-11.8-5.3-11.8-11.8-11.8Z"/>
      </g>
      <g class="cls-9">
        <line class="cls-3" x1="127.3" y1="-279.2" x2="269" y2="-279.2"/>
        <line class="cls-3" x1="127.3" y1="-256.4" x2="269" y2="-256.4"/>
        <line class="cls-3" x1="127.3" y1="-233.6" x2="160.2" y2="-233.6"/>
      </g>
      <path d="M525.8,1.8c-42.9,0-77.8,34.9-77.8,77.8s2,17.5,6.2,27.8l-39.3,32.5c-3.7-.8-7.5-1.2-11.4-1.2-12.1,0-23.6,4-32.9,10.9l-81-23.9c-8.8-18.5-27.7-31.4-49.5-31.4s-47.9,18.2-53.4,42.6l-99.3,54.5c-7.4-3.6-15.6-5.6-24.2-5.6-30.2,0-54.8,24.6-54.8,54.8v259.3h595.2V79.6c0-42.9-34.9-77.8-77.8-77.8Z"/>
    </g>
  </g>
</svg>