<?xml version="1.0" encoding="UTF-8"?>
<svg xmlns="http://www.w3.org/2000/svg" version="1.1" viewBox="0 0 619 499.5">
  <defs>
    <style>
      .cls-1, .cls-2 {
        fill: #fff;
      }

      .cls-3, .cls-4 {
        fill: none;
      }

      .cls-5, .cls-6 {
        fill: #f9c026;
      }

      .cls-5, .cls-7 {
        opacity: .3;
      }

      .cls-5, .cls-7, .cls-2 {
        isolation: isolate;
      }

      .cls-7, .cls-8 {
        fill: #ed727d;
      }

      .cls-9 {
        fill: #152841;
      }

      .cls-4 {
        stroke: #fff;
        stroke-linecap: round;
        stroke-miterlimit: 10;
        stroke-width: 9px;
      }

      .cls-10 {
        fill: #034442;
      }

      .cls-11 {
        fill: #625ef3;
      }

      .cls-12 {
        fill: #318370;
      }

      .cls-13 {
        fill: #292929;
      }

      .cls-14 {
        fill: #205fa9;
      }

      .cls-15, .cls-2 {
        opacity: .1;
      }
    </style>
  </defs>
  <!-- Generator: Adobe Illustrator 28.7.10, SVG Export Plug-In . SVG Version: 1.2.0 Build 236)  -->
  <g>
    <g id="_ò_x2021__xF8FF__x5F_1">
      <rect class="cls-3" x="-1" y="0" width="620" height="545"/>
      <g>
        <path class="cls-13" d="M586-271.7c-.4,0-.9-.2-1.2-.5-.5-.6-.4-1.6.2-2.1l185.7-154.8c.6-.5,1.4-.5,2,0l72,68.5,142.7-114.2c.7-.5,1.6-.4,2.1.2.5.6.4,1.6-.2,2.1l-143.7,115.1c-.6.5-1.4.4-2,0l-72-68.5-184.7,153.9c-.3.2-.6.4-1,.4h0Z"/>
        <path class="cls-13" d="M971.4-471.4c-.8,0-1.5-.6-1.5-1.4,0-.8.6-1.5,1.4-1.6l17-.7c.8,0,1.5.6,1.6,1.4,0,.8-.6,1.5-1.4,1.6l-17,.7h0,0Z"/>
        <path class="cls-13" d="M989.1-454.5c-.8,0-1.5-.6-1.5-1.4l-.7-17c0-.8.6-1.5,1.4-1.6.8,0,1.5.6,1.6,1.4l.7,17c0,.8-.6,1.5-1.4,1.6h0,0Z"/>
      </g>
      <path class="cls-2" d="M153.6,376h43.9c6.2,0,11.2,5,11.2,11.2v112.2h-66.3v-112.2c0-6.2,5-11.2,11.2-11.2Z"/>
      <path class="cls-2" d="M241.7,341.4h43.1c6.4,0,11.6,5.2,11.6,11.6v146.4h-66.3v-146.4c0-6.4,5.2-11.6,11.6-11.6Z"/>
      <path class="cls-2" d="M331.2,300.9h39.4c7.4,0,13.5,6,13.5,13.5v185.1h-66.3v-185.1c0-7.4,6-13.5,13.5-13.5Z"/>
      <path class="cls-7" d="M413.2,247.1h50.7c4.3,0,7.8,3.5,7.8,7.8v244.6h-66.3v-244.6c0-4.3,3.5-7.8,7.8-7.8Z"/>
      <path class="cls-5" d="M505.8,183h41c7,0,12.7,5.7,12.7,12.7v303.8h-66.3V195.6c0-7,5.7-12.7,12.7-12.7Z"/>
      <path class="cls-14" d="M61.3,243.1c-.5,0-1-.2-1.2-.7-.5-.7-.3-1.6.4-2.1l178.3-97.8c.4-.2.8-.3,1.2-.2l161.4,47.5,126.1-104.2c.6-.5,1.6-.4,2.1.2.5.6.4,1.6-.2,2.1l-126.7,104.6c-.4.3-.9.4-1.3.3l-161.5-47.6L62.2,242.8c-.3.2-.5.3-.8.3h0Z"/>
      <g>
        <circle class="cls-1" cx="63.2" cy="239.2" r="11.9"/>
        <path class="cls-14" d="M63.2,215.8c-13.7,0-24.8,11.1-24.8,24.8s24.8,42.4,24.8,42.4c0,0,24.8-28.7,24.8-42.4s-11.1-24.8-24.8-24.8ZM63.2,250.9c-6.5,0-11.8-5.3-11.8-11.8s5.3-11.8,11.8-11.8,11.8,5.3,11.8,11.8-5.3,11.8-11.8,11.8Z"/>
      </g>
      <rect class="cls-12" x="-285.7" y="-468.1" width="85.2" height="105.8"/>
      <rect class="cls-8" x="-285.7" y="-341.3" width="85.2" height="105.8"/>
      <rect class="cls-14" x="-389.6" y="-468.1" width="85.2" height="105.8"/>
      <rect class="cls-6" x="-500.6" y="-468" width="85.2" height="105.8"/>
      <rect class="cls-9" x="-498.9" y="-341.3" width="85.2" height="105.8"/>
      <rect class="cls-10" x="-389.6" y="-341.3" width="85.2" height="105.8"/>
      <g>
        <path class="cls-13" d="M2.1-258.2c-.5,0-1-.2-1.2-.7-.5-.7-.3-1.6.4-2.1l178.3-120.9c.4-.2.8-.3,1.2-.2l161.4,42.5,126.1-104.1c.6-.5,1.6-.4,2.1.2s.4,1.6-.2,2.1l-126.7,104.6c-.4.3-.9.4-1.3.3l-161.5-42.6L3-258.5c-.3.2-.5.3-.8.3Z"/>
        <circle class="cls-11" cx="0" cy="-257.5" r="13.3"/>
        <path class="cls-13" d="M0-242.7c-8.1,0-14.8-6.6-14.8-14.8s6.6-14.8,14.8-14.8,14.8,6.6,14.8,14.8-6.6,14.8-14.8,14.8ZM0-269.2c-6.5,0-11.8,5.3-11.8,11.8s5.3,11.8,11.8,11.8,11.8-5.3,11.8-11.8-5.3-11.8-11.8-11.8Z"/>
        <circle class="cls-11" cx="182.7" cy="-378.3" r="13.3"/>
        <path class="cls-13" d="M182.7-363.6c-8.1,0-14.8-6.6-14.8-14.8s6.6-14.8,14.8-14.8,14.8,6.6,14.8,14.8-6.6,14.8-14.8,14.8ZM182.7-390.1c-6.5,0-11.8,5.3-11.8,11.8s5.3,11.8,11.8,11.8,11.8-5.3,11.8-11.8-5.3-11.8-11.8-11.8Z"/>
        <circle class="cls-11" cx="344.8" cy="-340" r="13.3"/>
        <path class="cls-13" d="M344.8-325.2c-8.1,0-14.8-6.6-14.8-14.8s6.6-14.8,14.8-14.8,14.8,6.6,14.8,14.8-6.6,14.8-14.8,14.8ZM344.8-351.8c-6.5,0-11.8,5.3-11.8,11.8s5.3,11.8,11.8,11.8,11.8-5.3,11.8-11.8-5.3-11.8-11.8-11.8Z"/>
        <circle class="cls-11" cx="473" cy="-446.1" r="13.3"/>
        <path class="cls-13" d="M473-431.4c-8.1,0-14.8-6.6-14.8-14.8s6.6-14.8,14.8-14.8,14.8,6.6,14.8,14.8-6.6,14.8-14.8,14.8ZM473-457.9c-6.5,0-11.8,5.3-11.8,11.8s5.3,11.8,11.8,11.8,11.8-5.3,11.8-11.8-5.3-11.8-11.8-11.8Z"/>
      </g>
      <g>
        <circle class="cls-1" cx="240.1" cy="147.6" r="11.9"/>
        <path class="cls-14" d="M240.1,124.3c-13.7,0-24.8,11.1-24.8,24.8s24.8,42.4,24.8,42.4c0,0,24.8-28.7,24.8-42.4s-11.1-24.8-24.8-24.8ZM240.1,159.3c-6.5,0-11.8-5.3-11.8-11.8s5.3-11.8,11.8-11.8,11.8,5.3,11.8,11.8-5.3,11.8-11.8,11.8h0Z"/>
      </g>
      <g>
        <circle class="cls-1" cx="403.4" cy="192" r="11.9"/>
        <path class="cls-14" d="M403.5,168.6c-13.7,0-24.8,11.1-24.8,24.8s24.8,42.4,24.8,42.4c0,0,24.8-28.7,24.8-42.4s-11.1-24.8-24.8-24.8ZM403.5,203.7c-6.5,0-11.8-5.3-11.8-11.8s5.3-11.8,11.8-11.8,11.8,5.3,11.8,11.8-5.3,11.8-11.8,11.8Z"/>
      </g>
      <g>
        <circle class="cls-1" cx="532.7" cy="86.5" r="11.9"/>
        <path class="cls-14" d="M532.8,63.1c-13.7,0-24.8,11.1-24.8,24.8s24.8,42.4,24.8,42.4c0,0,24.8-28.7,24.8-42.4s-11.1-24.8-24.8-24.8ZM532.8,98.2c-6.5,0-11.8-5.3-11.8-11.8s5.3-11.8,11.8-11.8,11.8,5.3,11.8,11.8-5.3,11.8-11.8,11.8Z"/>
      </g>
      <g>
        <circle class="cls-1" cx="525.7" cy="76.8" r="22.9"/>
        <path class="cls-14" d="M525.8,31.8c-26.4,0-47.8,21.4-47.8,47.8s47.8,81.8,47.8,81.8c0,0,47.8-55.4,47.8-81.8s-21.4-47.8-47.8-47.8ZM525.8,99.4c-12.6,0-22.8-10.2-22.8-22.8s10.2-22.8,22.8-22.8,22.8,10.2,22.8,22.8-10.2,22.8-22.8,22.8Z"/>
      </g>
      <g class="cls-15">
        <line class="cls-4" x1="127.3" y1="-279.2" x2="269" y2="-279.2"/>
        <line class="cls-4" x1="127.3" y1="-256.4" x2="269" y2="-256.4"/>
        <line class="cls-4" x1="127.3" y1="-233.6" x2="160.2" y2="-233.6"/>
      </g>
      <path class="cls-2" d="M65.6,403h43.9c6.2,0,11.2,5,11.2,11.2v85.2H54.4v-85.2c0-6.2,5-11.2,11.2-11.2Z"/>
    </g>
  </g>
</svg>