<?xml version="1.0" encoding="UTF-8"?>
<svg id="pict" xmlns="http://www.w3.org/2000/svg" version="1.1" viewBox="0 0 2026.54 1356.41">
  <!-- Generator: Adobe Illustrator 29.8.2, SVG Export Plug-In . SVG Version: 2.1.1 Build 3)  -->
  <path d="M1382.39,554.45c.22-33.77-29.37-41.72-36.94-14.66-8.74,31.27-9.62,205.18-18.9,210.27l-110.44-153.47c-157.02-187.25-475.58-318.95-599.37-23.99-8.17,19.47-40.04,108.09-11.05,117.7,32.38.23,25.67-51.64,32.93-73.88,116.86-358.1,503.78-106.93,624.64,106.98,4.05,7.15,26.86,45.29,18.35,49.52l-197.06-114.35c-21.43-4.46-26.86,22.48-14.71,35.91l272.29,148.41v-.02c1.11.57,2.27.88,3.46.88,6.94,0,12.56-10.22,12.56-22.82,0-.18,0-.36,0-.53.11-86.75,23.68-180.5,24.24-265.95Z"/>
</svg>