<?xml version="1.0" encoding="UTF-8"?>
<svg id="pict" xmlns="http://www.w3.org/2000/svg" version="1.1" viewBox="0 0 2026.54 1356.41">
  <!-- Generator: Adobe Illustrator 29.8.2, SVG Export Plug-In . SVG Version: 2.1.1 Build 3)  -->
  <path d="M1152.74,868.21c2.79-2.04,5.55-4.15,8.22-6.28,37-28.36,62.41-68.74,71.49-113.69,7.3-41.25-5.71-84.3-39.75-131.67-29.15-40.57-68.73-77.56-103.65-110.19-12.49-11.67-24.29-22.7-34.7-33.05l-.68-.65c-32.83-31.4-77.8-74.4-75.14-114.84,1.16-17.67,11.59-33.82,30.98-48.01,1.15-.84,2.35-1.69,3.56-2.51,70.54-47.89,153.83-72.06,218.51-87.76,110.43-23.6,207.08-21.7,287.2,5.66,8.72,5.63,25.67,10.21,34.23,3.95,3.04-2.22,6.29-6.74,4.52-15.67l-.04-.18c-7.62-28.38-71.69-37.05-109.96-42.24-5.74-.78-10.7-1.45-14.57-2.08l-.18-.02c-124.4-11.95-258.35,14.39-387.38,76.17-20.23,9.87-37.71,20.16-51.97,30.59-33.93,24.82-51.27,51.05-53,80.18-3.57,59.89,61.48,120.54,124.38,179.2,34.9,32.54,70.98,66.19,93.28,98.26l.06.09c23.82,31.64,49.38,73.52,35.41,116.83l-.05.17c-8.6,33.85-29.64,63.21-62.54,87.28-24.31,17.78-54.36,32.24-89.31,42.99-50.22,15.92-102.78,26.66-153.61,37.04-69.22,14.14-140.79,28.77-207.6,56.67-37.95,15.77-74.59,31.81-105.73,54.59-9.87,7.22-18.84,14.9-26.75,22.91,6.67-35.2,17.17-70.81,31.25-106l.13-.32.05-.35c1.71-12.53-3.6-17.72-6.92-19.7-5.79-3.45-13.95-2.45-20.78,2.55-3.9,2.85-7,6.75-8.97,11.29-21.91,48.79-35.37,107.55-39.98,174.62l-.02.34.06.34c1.34,7.68,4.96,13.05,10.76,15.96,13.24,6.65,33.1-2.25,39.1-5.26,24.49-9.32,46.53-16.45,67.37-21.77,19.32-4.5,40.4-8.01,66.28-11.03,21.7-2.36,39.7-3.44,56.63-3.4,3.54.01,7-1.14,10-3.33h0c5.14-3.76,8.16-9.92,7.88-16.09.04-4.63-1.66-8.47-5.05-11.42-13.84-12.04-54.01-5.81-83.34-1.26-9.91,1.54-18.48,2.86-23.07,2.95h-.18s-.18.03-.18.03c-23.44,3.44-47.71,9.27-73.88,17.75,6.7-6.77,14.18-13.15,22.65-19.35,29.47-21.56,64.64-36.06,98.65-50.08l6.34-2.61c64.39-25.53,133.29-39.53,199.93-53.07,25.23-5.13,51.33-10.43,76.83-16.29,63.22-15.4,124.02-32.2,173.26-68.22Z"/>
</svg>